  0
SECTION
  2
HEADER
  9
$ACADVER
  1
AC1009
  9
$FILLMODE
 70
 0
  9
$SPLFRAME
 70
 1
  9
$EXTMIN
 10
0
 20
0
 30
0.0
  9
$EXTMAX
 10
1058.33
 20
1058.33
 30
0.0
  0
ENDSEC
  0
SECTION
  2
TABLES
  0
TABLE
  2
LAYER
 70
1
  0
LAYER
  2
0
 70
     0
 62
     7
  6
CONTINUOUS
  0
ENDTAB
  0
ENDSEC
  0
SECTION
  2
ENTITIES
  0
LINE
  8
0
 62
     0
 10
0.0950846
 20
130.785
 30
0.0
 11
359.188
 21
130.785
 31
0.0
  0
LINE
  8
0
 62
     0
 10
359.188
 20
130.785
 30
0.0
 11
359.188
 21
0.241157
 31
0.0
  0
LINE
  8
0
 62
     0
 10
359.188
 20
0.241157
 30
0.0
 11
0.0950846
 21
0.241157
 31
0.0
  0
LINE
  8
0
 62
     0
 10
0.0950846
 20
0.241157
 30
0.0
 11
0.0950846
 21
130.785
 31
0.0
  0
LINE
  8
0
 62
     0
 10
204.738
 20
22.1864
 30
0.0
 11
205.411
 21
19.0266
 31
0.0
  0
LINE
  8
0
 62
     0
 10
205.411
 20
19.0266
 30
0.0
 11
203.918
 21
18.7096
 31
0.0
  0
LINE
  8
0
 62
     0
 10
203.918
 20
18.7096
 30
0.0
 11
202.941
 21
23.3068
 31
0.0
  0
LINE
  8
0
 62
     0
 10
202.941
 20
23.3068
 30
0.0
 11
189.247
 21
20.3963
 31
0.0
  0
LINE
  8
0
 62
     0
 10
189.247
 20
20.3963
 30
0.0
 11
190.224
 21
15.7992
 31
0.0
  0
LINE
  8
0
 62
     0
 10
190.224
 20
15.7992
 30
0.0
 11
188.733
 21
15.4823
 31
0.0
  0
LINE
  8
0
 62
     0
 10
188.733
 20
15.4823
 30
0.0
 11
188.061
 21
18.6421
 31
0.0
  0
LINE
  8
0
 62
     0
 10
188.061
 20
18.6421
 30
0.0
 11
181.46
 21
17.2379
 31
0.0
  0
LINE
  8
0
 62
     0
 10
181.46
 20
17.2379
 30
0.0
 11
182.131
 21
14.0794
 31
0.0
  0
LINE
  8
0
 62
     0
 10
182.131
 20
14.0794
 30
0.0
 11
181.324
 21
13.9072
 31
0.0
  0
LINE
  8
0
 62
     0
 10
181.324
 20
13.9072
 30
0.0
 11
181.905
 21
11.1676
 31
0.0
  0
LINE
  8
0
 62
     0
 10
181.905
 20
11.1676
 30
0.0
 11
182.713
 21
11.3399
 31
0.0
  0
LINE
  8
0
 62
     0
 10
182.713
 20
11.3399
 30
0.0
 11
184.016
 21
5.2076
 31
0.0
  0
LINE
  8
0
 62
     0
 10
184.016
 20
5.2076
 30
0.0
 11
185.703
 21
5.56588
 31
0.0
  0
LINE
  8
0
 62
     0
 10
185.703
 20
5.56588
 30
0.0
 11
185.954
 21
4.3918
 31
0.0
  0
LINE
  8
0
 62
     0
 10
185.954
 20
4.3918
 30
0.0
 11
189.181
 21
5.07806
 31
0.0
  0
LINE
  8
0
 62
     0
 10
189.181
 20
5.07806
 30
0.0
 11
188.932
 21
6.25355
 31
0.0
  0
LINE
  8
0
 62
     0
 10
188.932
 20
6.25355
 30
0.0
 11
190.619
 21
6.61046
 31
0.0
  0
LINE
  8
0
 62
     0
 10
190.619
 20
6.61046
 30
0.0
 11
189.69
 21
10.983
 31
0.0
  0
LINE
  8
0
 62
     0
 10
189.69
 20
10.983
 30
0.0
 11
191.182
 21
11.2999
 31
0.0
  0
LINE
  8
0
 62
     0
 10
191.182
 20
11.2999
 30
0.0
 11
192.159
 21
6.7014
 31
0.0
  0
LINE
  8
0
 62
     0
 10
192.159
 20
6.7014
 30
0.0
 11
205.853
 21
9.61319
 31
0.0
  0
LINE
  8
0
 62
     0
 10
205.853
 20
9.61319
 30
0.0
 11
204.876
 21
14.2117
 31
0.0
  0
LINE
  8
0
 62
     0
 10
204.876
 20
14.2117
 30
0.0
 11
206.367
 21
14.5287
 31
0.0
  0
LINE
  8
0
 62
     0
 10
206.367
 20
14.5287
 30
0.0
 11
207.297
 21
10.1548
 31
0.0
  0
LINE
  8
0
 62
     0
 10
207.297
 20
10.1548
 30
0.0
 11
208.984
 21
10.5144
 31
0.0
  0
LINE
  8
0
 62
     0
 10
208.984
 20
10.5144
 30
0.0
 11
209.233
 21
9.34036
 31
0.0
  0
LINE
  8
0
 62
     0
 10
209.233
 20
9.34036
 30
0.0
 11
212.46
 21
10.0266
 31
0.0
  0
LINE
  8
0
 62
     0
 10
212.46
 20
10.0266
 30
0.0
 11
212.211
 21
11.2007
 31
0.0
  0
LINE
  8
0
 62
     0
 10
212.211
 20
11.2007
 30
0.0
 11
213.899
 21
11.559
 31
0.0
  0
LINE
  8
0
 62
     0
 10
213.899
 20
11.559
 30
0.0
 11
212.596
 21
17.6926
 31
0.0
  0
LINE
  8
0
 62
     0
 10
212.596
 20
17.6926
 30
0.0
 11
213.403
 21
17.8635
 31
0.0
  0
LINE
  8
0
 62
     0
 10
213.403
 20
17.8635
 30
0.0
 11
212.82
 21
20.6017
 31
0.0
  0
LINE
  8
0
 62
     0
 10
212.82
 20
20.6017
 30
0.0
 11
212.014
 21
20.4294
 31
0.0
  0
LINE
  8
0
 62
     0
 10
212.014
 20
20.4294
 30
0.0
 11
211.341
 21
23.5906
 31
0.0
  0
LINE
  8
0
 62
     0
 10
211.341
 20
23.5906
 30
0.0
 11
204.738
 21
22.1864
 31
0.0
  0
LINE
  8
0
 62
     0
 10
120.891
 20
24.3913
 30
0.0
 11
119.204
 21
24.7496
 31
0.0
  0
LINE
  8
0
 62
     0
 10
119.204
 20
24.7496
 30
0.0
 11
117.901
 21
18.6173
 31
0.0
  0
LINE
  8
0
 62
     0
 10
117.901
 20
18.6173
 30
0.0
 11
117.093
 21
18.7882
 31
0.0
  0
LINE
  8
0
 62
     0
 10
117.093
 20
18.7882
 30
0.0
 11
116.512
 21
16.05
 31
0.0
  0
LINE
  8
0
 62
     0
 10
116.512
 20
16.05
 30
0.0
 11
117.318
 21
15.8778
 31
0.0
  0
LINE
  8
0
 62
     0
 10
117.318
 20
15.8778
 30
0.0
 11
116.648
 21
12.7193
 31
0.0
  0
LINE
  8
0
 62
     0
 10
116.648
 20
12.7193
 30
0.0
 11
123.249
 21
11.3151
 31
0.0
  0
LINE
  8
0
 62
     0
 10
123.249
 20
11.3151
 30
0.0
 11
123.921
 21
14.4749
 31
0.0
  0
LINE
  8
0
 62
     0
 10
123.921
 20
14.4749
 30
0.0
 11
125.413
 21
14.158
 31
0.0
  0
LINE
  8
0
 62
     0
 10
125.413
 20
14.158
 30
0.0
 11
124.435
 21
9.55947
 31
0.0
  0
LINE
  8
0
 62
     0
 10
124.435
 20
9.55947
 30
0.0
 11
138.129
 21
6.65043
 31
0.0
  0
LINE
  8
0
 62
     0
 10
138.129
 20
6.65043
 30
0.0
 11
139.106
 21
11.2475
 31
0.0
  0
LINE
  8
0
 62
     0
 10
139.106
 20
11.2475
 30
0.0
 11
140.599
 21
10.9306
 31
0.0
  0
LINE
  8
0
 62
     0
 10
140.599
 20
10.9306
 30
0.0
 11
139.926
 21
7.77074
 31
0.0
  0
LINE
  8
0
 62
     0
 10
139.926
 20
7.77074
 30
0.0
 11
146.529
 21
6.36655
 31
0.0
  0
LINE
  8
0
 62
     0
 10
146.529
 20
6.36655
 30
0.0
 11
147.202
 21
9.52638
 31
0.0
  0
LINE
  8
0
 62
     0
 10
147.202
 20
9.52638
 30
0.0
 11
148.007
 21
9.35549
 31
0.0
  0
LINE
  8
0
 62
     0
 10
148.007
 20
9.35549
 30
0.0
 11
148.591
 21
12.0937
 31
0.0
  0
LINE
  8
0
 62
     0
 10
148.591
 20
12.0937
 30
0.0
 11
147.784
 21
12.2645
 31
0.0
  0
LINE
  8
0
 62
     0
 10
147.784
 20
12.2645
 30
0.0
 11
149.086
 21
18.3982
 31
0.0
  0
LINE
  8
0
 62
     0
 10
149.086
 20
18.3982
 30
0.0
 11
147.399
 21
18.7565
 31
0.0
  0
LINE
  8
0
 62
     0
 10
147.399
 20
18.7565
 30
0.0
 11
147.648
 21
19.9306
 31
0.0
  0
LINE
  8
0
 62
     0
 10
147.648
 20
19.9306
 30
0.0
 11
144.421
 21
20.6168
 31
0.0
  0
LINE
  8
0
 62
     0
 10
144.421
 20
20.6168
 30
0.0
 11
144.172
 21
19.4427
 31
0.0
  0
LINE
  8
0
 62
     0
 10
144.172
 20
19.4427
 30
0.0
 11
142.485
 21
19.8024
 31
0.0
  0
LINE
  8
0
 62
     0
 10
142.485
 20
19.8024
 30
0.0
 11
141.555
 21
15.4285
 31
0.0
  0
LINE
  8
0
 62
     0
 10
141.555
 20
15.4285
 30
0.0
 11
140.064
 21
15.7455
 31
0.0
  0
LINE
  8
0
 62
     0
 10
140.064
 20
15.7455
 30
0.0
 11
141.041
 21
20.344
 31
0.0
  0
LINE
  8
0
 62
     0
 10
141.041
 20
20.344
 30
0.0
 11
127.346
 21
23.2544
 31
0.0
  0
LINE
  8
0
 62
     0
 10
127.346
 20
23.2544
 30
0.0
 11
126.369
 21
18.6573
 31
0.0
  0
LINE
  8
0
 62
     0
 10
126.369
 20
18.6573
 30
0.0
 11
124.876
 21
18.9742
 31
0.0
  0
LINE
  8
0
 62
     0
 10
124.876
 20
18.9742
 30
0.0
 11
125.805
 21
23.3467
 31
0.0
  0
LINE
  8
0
 62
     0
 10
125.805
 20
23.3467
 30
0.0
 11
124.12
 21
23.705
 31
0.0
  0
LINE
  8
0
 62
     0
 10
124.12
 20
23.705
 30
0.0
 11
124.369
 21
24.8791
 31
0.0
  0
LINE
  8
0
 62
     0
 10
124.369
 20
24.8791
 30
0.0
 11
121.142
 21
25.5654
 31
0.0
  0
LINE
  8
0
 62
     0
 10
121.142
 20
25.5654
 30
0.0
 11
120.891
 21
24.3913
 31
0.0
  0
LINE
  8
0
 62
     0
 10
91.827
 20
16.4924
 30
0.0
 11
105.52
 21
13.5806
 31
0.0
  0
LINE
  8
0
 62
     0
 10
105.52
 20
13.5806
 30
0.0
 11
108.431
 21
27.2755
 31
0.0
  0
LINE
  8
0
 62
     0
 10
108.431
 20
27.2755
 30
0.0
 11
94.7374
 21
30.1859
 31
0.0
  0
LINE
  8
0
 62
     0
 10
94.7374
 20
30.1859
 30
0.0
 11
91.827
 21
16.4924
 31
0.0
  0
LINE
  8
0
 62
     0
 10
228.844
 20
28.8134
 30
0.0
 11
231.754
 21
15.1185
 31
0.0
  0
LINE
  8
0
 62
     0
 10
231.754
 20
15.1185
 30
0.0
 11
245.449
 21
18.0303
 31
0.0
  0
LINE
  8
0
 62
     0
 10
245.449
 20
18.0303
 30
0.0
 11
242.539
 21
31.7238
 31
0.0
  0
LINE
  8
0
 62
     0
 10
242.539
 20
31.7238
 30
0.0
 11
228.844
 21
28.8134
 31
0.0
  0
LINE
  8
0
 62
     0
 10
24.0509
 20
33.0123
 30
0.0
 11
38.0503
 21
33.0123
 31
0.0
  0
LINE
  8
0
 62
     0
 10
38.0503
 20
33.0123
 30
0.0
 11
38.0503
 21
19.0114
 31
0.0
  0
LINE
  8
0
 62
     0
 10
38.0503
 20
19.0114
 30
0.0
 11
24.0509
 21
19.0114
 31
0.0
  0
LINE
  8
0
 62
     0
 10
24.0509
 20
19.0114
 30
0.0
 11
24.0509
 21
33.0123
 31
0.0
  0
LINE
  8
0
 62
     0
 10
47.8621
 20
33.0123
 30
0.0
 11
61.8628
 21
33.0123
 31
0.0
  0
LINE
  8
0
 62
     0
 10
61.8628
 20
33.0123
 30
0.0
 11
61.8628
 21
19.0114
 31
0.0
  0
LINE
  8
0
 62
     0
 10
61.8628
 20
19.0114
 30
0.0
 11
47.8621
 21
19.0114
 31
0.0
  0
LINE
  8
0
 62
     0
 10
47.8621
 20
19.0114
 30
0.0
 11
47.8621
 21
33.0123
 31
0.0
  0
LINE
  8
0
 62
     0
 10
280.749
 20
33.0123
 30
0.0
 11
294.75
 21
33.0123
 31
0.0
  0
LINE
  8
0
 62
     0
 10
294.75
 20
33.0123
 30
0.0
 11
294.75
 21
19.0114
 31
0.0
  0
LINE
  8
0
 62
     0
 10
294.75
 20
19.0114
 30
0.0
 11
280.749
 21
19.0114
 31
0.0
  0
LINE
  8
0
 62
     0
 10
280.749
 20
19.0114
 30
0.0
 11
280.749
 21
33.0123
 31
0.0
  0
LINE
  8
0
 62
     0
 10
304.562
 20
33.0123
 30
0.0
 11
318.561
 21
33.0123
 31
0.0
  0
LINE
  8
0
 62
     0
 10
318.561
 20
33.0123
 30
0.0
 11
318.561
 21
19.0114
 31
0.0
  0
LINE
  8
0
 62
     0
 10
318.561
 20
19.0114
 30
0.0
 11
304.562
 21
19.0114
 31
0.0
  0
LINE
  8
0
 62
     0
 10
304.562
 20
19.0114
 30
0.0
 11
304.562
 21
33.0123
 31
0.0
  0
LINE
  8
0
 62
     0
 10
323.612
 20
33.0123
 30
0.0
 11
337.611
 21
33.0123
 31
0.0
  0
LINE
  8
0
 62
     0
 10
337.611
 20
33.0123
 30
0.0
 11
337.611
 21
19.0114
 31
0.0
  0
LINE
  8
0
 62
     0
 10
337.611
 20
19.0114
 30
0.0
 11
323.612
 21
19.0114
 31
0.0
  0
LINE
  8
0
 62
     0
 10
323.612
 20
19.0114
 30
0.0
 11
323.612
 21
33.0123
 31
0.0
  0
LINE
  8
0
 62
     0
 10
342.662
 20
33.0123
 30
0.0
 11
356.662
 21
33.0123
 31
0.0
  0
LINE
  8
0
 62
     0
 10
356.662
 20
33.0123
 30
0.0
 11
356.662
 21
19.0114
 31
0.0
  0
LINE
  8
0
 62
     0
 10
356.662
 20
19.0114
 30
0.0
 11
342.662
 21
19.0114
 31
0.0
  0
LINE
  8
0
 62
     0
 10
342.662
 20
19.0114
 30
0.0
 11
342.662
 21
33.0123
 31
0.0
  0
LINE
  8
0
 62
     0
 10
141.905
 20
25.3228
 30
0.0
 11
155.6
 21
22.4124
 31
0.0
  0
LINE
  8
0
 62
     0
 10
155.6
 20
22.4124
 30
0.0
 11
158.51
 21
36.1061
 31
0.0
  0
LINE
  8
0
 62
     0
 10
158.51
 20
36.1061
 30
0.0
 11
144.817
 21
39.0165
 31
0.0
  0
LINE
  8
0
 62
     0
 10
144.817
 20
39.0165
 30
0.0
 11
141.905
 21
25.3228
 31
0.0
  0
LINE
  8
0
 62
     0
 10
173.641
 20
36.5552
 30
0.0
 11
176.552
 21
22.8617
 31
0.0
  0
LINE
  8
0
 62
     0
 10
176.552
 20
22.8617
 30
0.0
 11
190.245
 21
25.7707
 31
0.0
  0
LINE
  8
0
 62
     0
 10
190.245
 20
25.7707
 30
0.0
 11
187.335
 21
39.4656
 31
0.0
  0
LINE
  8
0
 62
     0
 10
187.335
 20
39.4656
 30
0.0
 11
173.641
 21
36.5552
 31
0.0
  0
LINE
  8
0
 62
     0
 10
123.273
 20
29.2833
 30
0.0
 11
136.966
 21
26.3715
 31
0.0
  0
LINE
  8
0
 62
     0
 10
136.966
 20
26.3715
 30
0.0
 11
139.876
 21
40.0664
 31
0.0
  0
LINE
  8
0
 62
     0
 10
139.876
 20
40.0664
 30
0.0
 11
126.183
 21
42.9768
 31
0.0
  0
LINE
  8
0
 62
     0
 10
126.183
 20
42.9768
 30
0.0
 11
123.273
 21
29.2833
 31
0.0
  0
LINE
  8
0
 62
     0
 10
192.275
 20
40.5158
 30
0.0
 11
195.185
 21
26.8207
 31
0.0
  0
LINE
  8
0
 62
     0
 10
195.185
 20
26.8207
 30
0.0
 11
208.879
 21
29.7326
 31
0.0
  0
LINE
  8
0
 62
     0
 10
208.879
 20
29.7326
 30
0.0
 11
205.969
 21
43.4262
 31
0.0
  0
LINE
  8
0
 62
     0
 10
205.969
 20
43.4262
 30
0.0
 11
192.275
 21
40.5158
 31
0.0
  0
LINE
  8
0
 62
     0
 10
104.638
 20
33.2438
 30
0.0
 11
118.332
 21
30.3334
 31
0.0
  0
LINE
  8
0
 62
     0
 10
118.332
 20
30.3334
 30
0.0
 11
121.244
 21
44.027
 31
0.0
  0
LINE
  8
0
 62
     0
 10
121.244
 20
44.027
 30
0.0
 11
107.549
 21
46.9388
 31
0.0
  0
LINE
  8
0
 62
     0
 10
107.549
 20
46.9388
 30
0.0
 11
104.638
 21
33.2438
 31
0.0
  0
LINE
  8
0
 62
     0
 10
210.909
 20
44.4761
 30
0.0
 11
213.819
 21
30.7826
 31
0.0
  0
LINE
  8
0
 62
     0
 10
213.819
 20
30.7826
 30
0.0
 11
227.514
 21
33.693
 31
0.0
  0
LINE
  8
0
 62
     0
 10
227.514
 20
33.693
 30
0.0
 11
224.602
 21
47.3865
 31
0.0
  0
LINE
  8
0
 62
     0
 10
224.602
 20
47.3865
 30
0.0
 11
210.909
 21
44.4761
 31
0.0
  0
LINE
  8
0
 62
     0
 10
86.0048
 20
37.2057
 30
0.0
 11
99.6982
 21
34.2938
 31
0.0
  0
LINE
  8
0
 62
     0
 10
99.6982
 20
34.2938
 30
0.0
 11
102.61
 21
47.9873
 31
0.0
  0
LINE
  8
0
 62
     0
 10
102.61
 20
47.9873
 30
0.0
 11
88.9152
 21
50.8991
 31
0.0
  0
LINE
  8
0
 62
     0
 10
88.9152
 20
50.8991
 30
0.0
 11
86.0048
 21
37.2057
 31
0.0
  0
LINE
  8
0
 62
     0
 10
229.541
 20
48.4367
 30
0.0
 11
232.453
 21
34.7431
 31
0.0
  0
LINE
  8
0
 62
     0
 10
232.453
 20
34.7431
 30
0.0
 11
246.146
 21
37.6534
 31
0.0
  0
LINE
  8
0
 62
     0
 10
246.146
 20
37.6534
 30
0.0
 11
243.236
 21
51.3486
 31
0.0
  0
LINE
  8
0
 62
     0
 10
243.236
 20
51.3486
 30
0.0
 11
229.541
 21
48.4367
 31
0.0
  0
LINE
  8
0
 62
     0
 10
35.4803
 20
52.0608
 30
0.0
 11
35.4803
 21
47.3604
 31
0.0
  0
LINE
  8
0
 62
     0
 10
35.4803
 20
47.3604
 30
0.0
 11
33.9549
 21
47.3604
 31
0.0
  0
LINE
  8
0
 62
     0
 10
33.9549
 20
47.3604
 30
0.0
 11
33.9549
 21
50.5905
 31
0.0
  0
LINE
  8
0
 62
     0
 10
33.9549
 20
50.5905
 30
0.0
 11
27.2039
 21
50.5905
 31
0.0
  0
LINE
  8
0
 62
     0
 10
27.2039
 20
50.5905
 30
0.0
 11
27.2039
 21
47.3604
 31
0.0
  0
LINE
  8
0
 62
     0
 10
27.2039
 20
47.3604
 30
0.0
 11
26.3812
 21
47.3604
 31
0.0
  0
LINE
  8
0
 62
     0
 10
26.3812
 20
47.3604
 30
0.0
 11
26.3812
 21
44.5615
 31
0.0
  0
LINE
  8
0
 62
     0
 10
26.3812
 20
44.5615
 30
0.0
 11
27.2039
 21
44.5615
 31
0.0
  0
LINE
  8
0
 62
     0
 10
27.2039
 20
44.5615
 30
0.0
 11
27.2039
 21
38.2916
 31
0.0
  0
LINE
  8
0
 62
     0
 10
27.2039
 20
38.2916
 30
0.0
 11
28.9305
 21
38.2916
 31
0.0
  0
LINE
  8
0
 62
     0
 10
28.9305
 20
38.2916
 30
0.0
 11
28.9305
 21
37.0914
 31
0.0
  0
LINE
  8
0
 62
     0
 10
28.9305
 20
37.0914
 30
0.0
 11
32.2309
 21
37.0914
 31
0.0
  0
LINE
  8
0
 62
     0
 10
32.2309
 20
37.0914
 30
0.0
 11
32.2309
 21
38.2916
 31
0.0
  0
LINE
  8
0
 62
     0
 10
32.2309
 20
38.2916
 30
0.0
 11
33.9549
 21
38.2916
 31
0.0
  0
LINE
  8
0
 62
     0
 10
33.9549
 20
38.2916
 30
0.0
 11
33.9549
 21
42.762
 31
0.0
  0
LINE
  8
0
 62
     0
 10
33.9549
 20
42.762
 30
0.0
 11
35.4803
 21
42.762
 31
0.0
  0
LINE
  8
0
 62
     0
 10
35.4803
 20
42.762
 30
0.0
 11
35.4803
 21
38.0615
 31
0.0
  0
LINE
  8
0
 62
     0
 10
35.4803
 20
38.0615
 30
0.0
 11
49.4799
 21
38.0615
 31
0.0
  0
LINE
  8
0
 62
     0
 10
49.4799
 20
38.0615
 30
0.0
 11
49.4799
 21
42.762
 31
0.0
  0
LINE
  8
0
 62
     0
 10
49.4799
 20
42.762
 30
0.0
 11
51.0053
 21
42.762
 31
0.0
  0
LINE
  8
0
 62
     0
 10
51.0053
 20
42.762
 30
0.0
 11
51.0053
 21
38.2916
 31
0.0
  0
LINE
  8
0
 62
     0
 10
51.0053
 20
38.2916
 30
0.0
 11
52.7308
 21
38.2916
 31
0.0
  0
LINE
  8
0
 62
     0
 10
52.7308
 20
38.2916
 30
0.0
 11
52.7308
 21
37.0914
 31
0.0
  0
LINE
  8
0
 62
     0
 10
52.7308
 20
37.0914
 30
0.0
 11
56.031
 21
37.0914
 31
0.0
  0
LINE
  8
0
 62
     0
 10
56.031
 20
37.0914
 30
0.0
 11
56.031
 21
38.2916
 31
0.0
  0
LINE
  8
0
 62
     0
 10
56.031
 20
38.2916
 30
0.0
 11
57.755
 21
38.2916
 31
0.0
  0
LINE
  8
0
 62
     0
 10
57.755
 20
38.2916
 30
0.0
 11
57.755
 21
44.5615
 31
0.0
  0
LINE
  8
0
 62
     0
 10
57.755
 20
44.5615
 30
0.0
 11
58.5805
 21
44.5615
 31
0.0
  0
LINE
  8
0
 62
     0
 10
58.5805
 20
44.5615
 30
0.0
 11
58.5805
 21
47.3604
 31
0.0
  0
LINE
  8
0
 62
     0
 10
58.5805
 20
47.3604
 30
0.0
 11
57.755
 21
47.3604
 31
0.0
  0
LINE
  8
0
 62
     0
 10
57.755
 20
47.3604
 30
0.0
 11
57.755
 21
50.5905
 31
0.0
  0
LINE
  8
0
 62
     0
 10
57.755
 20
50.5905
 30
0.0
 11
51.0053
 21
50.5905
 31
0.0
  0
LINE
  8
0
 62
     0
 10
51.0053
 20
50.5905
 30
0.0
 11
51.0053
 21
47.3604
 31
0.0
  0
LINE
  8
0
 62
     0
 10
51.0053
 20
47.3604
 30
0.0
 11
49.4799
 21
47.3604
 31
0.0
  0
LINE
  8
0
 62
     0
 10
49.4799
 20
47.3604
 30
0.0
 11
49.4799
 21
52.0608
 31
0.0
  0
LINE
  8
0
 62
     0
 10
49.4799
 20
52.0608
 30
0.0
 11
35.4803
 21
52.0608
 31
0.0
  0
LINE
  8
0
 62
     0
 10
66.4365
 20
52.0608
 30
0.0
 11
80.4362
 21
52.0608
 31
0.0
  0
LINE
  8
0
 62
     0
 10
80.4362
 20
52.0608
 30
0.0
 11
80.4362
 21
38.0615
 31
0.0
  0
LINE
  8
0
 62
     0
 10
80.4362
 20
38.0615
 30
0.0
 11
66.4365
 21
38.0615
 31
0.0
  0
LINE
  8
0
 62
     0
 10
66.4365
 20
38.0615
 30
0.0
 11
66.4365
 21
52.0608
 31
0.0
  0
LINE
  8
0
 62
     0
 10
252.174
 20
52.0608
 30
0.0
 11
266.175
 21
52.0608
 31
0.0
  0
LINE
  8
0
 62
     0
 10
266.175
 20
52.0608
 30
0.0
 11
266.175
 21
38.0615
 31
0.0
  0
LINE
  8
0
 62
     0
 10
266.175
 20
38.0615
 30
0.0
 11
252.174
 21
38.0615
 31
0.0
  0
LINE
  8
0
 62
     0
 10
252.174
 20
38.0615
 30
0.0
 11
252.174
 21
52.0608
 31
0.0
  0
LINE
  8
0
 62
     0
 10
271.224
 20
52.0608
 30
0.0
 11
285.225
 21
52.0608
 31
0.0
  0
LINE
  8
0
 62
     0
 10
285.225
 20
52.0608
 30
0.0
 11
285.225
 21
38.0615
 31
0.0
  0
LINE
  8
0
 62
     0
 10
285.225
 20
38.0615
 30
0.0
 11
271.224
 21
38.0615
 31
0.0
  0
LINE
  8
0
 62
     0
 10
271.224
 20
38.0615
 30
0.0
 11
271.224
 21
52.0608
 31
0.0
  0
LINE
  8
0
 62
     0
 10
297.418
 20
52.0608
 30
0.0
 11
311.417
 21
52.0608
 31
0.0
  0
LINE
  8
0
 62
     0
 10
311.417
 20
52.0608
 30
0.0
 11
311.417
 21
38.0615
 31
0.0
  0
LINE
  8
0
 62
     0
 10
311.417
 20
38.0615
 30
0.0
 11
297.418
 21
38.0615
 31
0.0
  0
LINE
  8
0
 62
     0
 10
297.418
 20
38.0615
 30
0.0
 11
297.418
 21
52.0608
 31
0.0
  0
LINE
  8
0
 62
     0
 10
323.612
 20
52.0608
 30
0.0
 11
337.611
 21
52.0608
 31
0.0
  0
LINE
  8
0
 62
     0
 10
337.611
 20
52.0608
 30
0.0
 11
337.611
 21
38.0615
 31
0.0
  0
LINE
  8
0
 62
     0
 10
337.611
 20
38.0615
 30
0.0
 11
323.612
 21
38.0615
 31
0.0
  0
LINE
  8
0
 62
     0
 10
323.612
 20
38.0615
 30
0.0
 11
323.612
 21
52.0608
 31
0.0
  0
LINE
  8
0
 62
     0
 10
136.55
 20
45.937
 30
0.0
 11
150.243
 21
43.0265
 31
0.0
  0
LINE
  8
0
 62
     0
 10
150.243
 20
43.0265
 30
0.0
 11
153.155
 21
56.72
 31
0.0
  0
LINE
  8
0
 62
     0
 10
153.155
 20
56.72
 30
0.0
 11
139.46
 21
59.6304
 31
0.0
  0
LINE
  8
0
 62
     0
 10
139.46
 20
59.6304
 30
0.0
 11
136.55
 21
45.937
 31
0.0
  0
LINE
  8
0
 62
     0
 10
178.066
 20
56.9708
 30
0.0
 11
180.976
 21
43.2774
 31
0.0
  0
LINE
  8
0
 62
     0
 10
180.976
 20
43.2774
 30
0.0
 11
194.67
 21
46.1878
 31
0.0
  0
LINE
  8
0
 62
     0
 10
194.67
 20
46.1878
 30
0.0
 11
191.759
 21
59.8826
 31
0.0
  0
LINE
  8
0
 62
     0
 10
191.759
 20
59.8826
 30
0.0
 11
178.066
 21
56.9708
 31
0.0
  0
LINE
  8
0
 62
     0
 10
117.916
 20
49.8972
 30
0.0
 11
131.609
 21
46.9868
 31
0.0
  0
LINE
  8
0
 62
     0
 10
131.609
 20
46.9868
 30
0.0
 11
134.52
 21
60.6806
 31
0.0
  0
LINE
  8
0
 62
     0
 10
134.52
 20
60.6806
 30
0.0
 11
120.826
 21
63.591
 31
0.0
  0
LINE
  8
0
 62
     0
 10
120.826
 20
63.591
 30
0.0
 11
117.916
 21
49.8972
 31
0.0
  0
LINE
  8
0
 62
     0
 10
196.698
 20
60.9314
 30
0.0
 11
199.609
 21
47.2362
 31
0.0
  0
LINE
  8
0
 62
     0
 10
199.609
 20
47.2362
 30
0.0
 11
213.304
 21
50.1481
 31
0.0
  0
LINE
  8
0
 62
     0
 10
213.304
 20
50.1481
 30
0.0
 11
210.393
 21
63.8418
 31
0.0
  0
LINE
  8
0
 62
     0
 10
210.393
 20
63.8418
 30
0.0
 11
196.698
 21
60.9314
 31
0.0
  0
LINE
  8
0
 62
     0
 10
99.2822
 20
53.8579
 30
0.0
 11
112.977
 21
50.9475
 31
0.0
  0
LINE
  8
0
 62
     0
 10
112.977
 20
50.9475
 30
0.0
 11
115.888
 21
64.6409
 31
0.0
  0
LINE
  8
0
 62
     0
 10
115.888
 20
64.6409
 30
0.0
 11
102.193
 21
67.5513
 31
0.0
  0
LINE
  8
0
 62
     0
 10
102.193
 20
67.5513
 30
0.0
 11
99.2822
 21
53.8579
 31
0.0
  0
LINE
  8
0
 62
     0
 10
215.332
 20
64.8917
 30
0.0
 11
218.244
 21
51.1983
 31
0.0
  0
LINE
  8
0
 62
     0
 10
218.244
 20
51.1983
 30
0.0
 11
231.938
 21
54.1087
 31
0.0
  0
LINE
  8
0
 62
     0
 10
231.938
 20
54.1087
 30
0.0
 11
229.026
 21
67.8035
 31
0.0
  0
LINE
  8
0
 62
     0
 10
229.026
 20
67.8035
 30
0.0
 11
215.332
 21
64.8917
 31
0.0
  0
LINE
  8
0
 62
     0
 10
80.6482
 20
57.8196
 30
0.0
 11
94.3419
 21
54.9081
 31
0.0
  0
LINE
  8
0
 62
     0
 10
94.3419
 20
54.9081
 30
0.0
 11
97.2538
 21
68.6015
 31
0.0
  0
LINE
  8
0
 62
     0
 10
97.2538
 20
68.6015
 30
0.0
 11
83.56
 21
71.5148
 31
0.0
  0
LINE
  8
0
 62
     0
 10
83.56
 20
71.5148
 30
0.0
 11
80.6482
 21
57.8196
 31
0.0
  0
LINE
  8
0
 62
     0
 10
233.966
 20
68.8538
 30
0.0
 11
236.878
 21
55.1586
 31
0.0
  0
LINE
  8
0
 62
     0
 10
236.878
 20
55.1586
 30
0.0
 11
250.571
 21
58.0704
 31
0.0
  0
LINE
  8
0
 62
     0
 10
250.571
 20
58.0704
 30
0.0
 11
247.661
 21
71.7642
 31
0.0
  0
LINE
  8
0
 62
     0
 10
247.661
 20
71.7642
 30
0.0
 11
233.966
 21
68.8538
 31
0.0
  0
LINE
  8
0
 62
     0
 10
307.895
 20
71.1108
 30
0.0
 11
307.895
 21
66.4104
 31
0.0
  0
LINE
  8
0
 62
     0
 10
307.895
 20
66.4104
 30
0.0
 11
306.371
 21
66.4104
 31
0.0
  0
LINE
  8
0
 62
     0
 10
306.371
 20
66.4104
 30
0.0
 11
306.371
 21
69.6405
 31
0.0
  0
LINE
  8
0
 62
     0
 10
306.371
 20
69.6405
 30
0.0
 11
299.62
 21
69.6405
 31
0.0
  0
LINE
  8
0
 62
     0
 10
299.62
 20
69.6405
 30
0.0
 11
299.62
 21
66.4104
 31
0.0
  0
LINE
  8
0
 62
     0
 10
299.62
 20
66.4104
 30
0.0
 11
298.796
 21
66.4104
 31
0.0
  0
LINE
  8
0
 62
     0
 10
298.796
 20
66.4104
 30
0.0
 11
298.796
 21
63.6115
 31
0.0
  0
LINE
  8
0
 62
     0
 10
298.796
 20
63.6115
 30
0.0
 11
299.62
 21
63.6115
 31
0.0
  0
LINE
  8
0
 62
     0
 10
299.62
 20
63.6115
 30
0.0
 11
299.62
 21
57.3416
 31
0.0
  0
LINE
  8
0
 62
     0
 10
299.62
 20
57.3416
 30
0.0
 11
301.345
 21
57.3416
 31
0.0
  0
LINE
  8
0
 62
     0
 10
301.345
 20
57.3416
 30
0.0
 11
301.345
 21
56.1414
 31
0.0
  0
LINE
  8
0
 62
     0
 10
301.345
 20
56.1414
 30
0.0
 11
304.646
 21
56.1414
 31
0.0
  0
LINE
  8
0
 62
     0
 10
304.646
 20
56.1414
 30
0.0
 11
304.646
 21
57.3416
 31
0.0
  0
LINE
  8
0
 62
     0
 10
304.646
 20
57.3416
 30
0.0
 11
306.371
 21
57.3416
 31
0.0
  0
LINE
  8
0
 62
     0
 10
306.371
 20
57.3416
 30
0.0
 11
306.371
 21
61.8105
 31
0.0
  0
LINE
  8
0
 62
     0
 10
306.371
 20
61.8105
 30
0.0
 11
307.895
 21
61.8105
 31
0.0
  0
LINE
  8
0
 62
     0
 10
307.895
 20
61.8105
 30
0.0
 11
307.895
 21
57.1115
 31
0.0
  0
LINE
  8
0
 62
     0
 10
307.895
 20
57.1115
 30
0.0
 11
321.896
 21
57.1115
 31
0.0
  0
LINE
  8
0
 62
     0
 10
321.896
 20
57.1115
 30
0.0
 11
321.896
 21
61.8105
 31
0.0
  0
LINE
  8
0
 62
     0
 10
321.896
 20
61.8105
 30
0.0
 11
323.42
 21
61.8105
 31
0.0
  0
LINE
  8
0
 62
     0
 10
323.42
 20
61.8105
 30
0.0
 11
323.42
 21
57.3416
 31
0.0
  0
LINE
  8
0
 62
     0
 10
323.42
 20
57.3416
 30
0.0
 11
325.145
 21
57.3416
 31
0.0
  0
LINE
  8
0
 62
     0
 10
325.145
 20
57.3416
 30
0.0
 11
325.145
 21
56.1414
 31
0.0
  0
LINE
  8
0
 62
     0
 10
325.145
 20
56.1414
 30
0.0
 11
328.446
 21
56.1414
 31
0.0
  0
LINE
  8
0
 62
     0
 10
328.446
 20
56.1414
 30
0.0
 11
328.446
 21
57.3416
 31
0.0
  0
LINE
  8
0
 62
     0
 10
328.446
 20
57.3416
 30
0.0
 11
330.171
 21
57.3416
 31
0.0
  0
LINE
  8
0
 62
     0
 10
330.171
 20
57.3416
 30
0.0
 11
330.171
 21
63.6115
 31
0.0
  0
LINE
  8
0
 62
     0
 10
330.171
 20
63.6115
 30
0.0
 11
330.995
 21
63.6115
 31
0.0
  0
LINE
  8
0
 62
     0
 10
330.995
 20
63.6115
 30
0.0
 11
330.995
 21
66.4104
 31
0.0
  0
LINE
  8
0
 62
     0
 10
330.995
 20
66.4104
 30
0.0
 11
330.171
 21
66.4104
 31
0.0
  0
LINE
  8
0
 62
     0
 10
330.171
 20
66.4104
 30
0.0
 11
330.171
 21
69.6405
 31
0.0
  0
LINE
  8
0
 62
     0
 10
330.171
 20
69.6405
 30
0.0
 11
323.42
 21
69.6405
 31
0.0
  0
LINE
  8
0
 62
     0
 10
323.42
 20
69.6405
 30
0.0
 11
323.42
 21
66.4104
 31
0.0
  0
LINE
  8
0
 62
     0
 10
323.42
 20
66.4104
 30
0.0
 11
321.896
 21
66.4104
 31
0.0
  0
LINE
  8
0
 62
     0
 10
321.896
 20
66.4104
 30
0.0
 11
321.896
 21
71.1108
 31
0.0
  0
LINE
  8
0
 62
     0
 10
321.896
 20
71.1108
 30
0.0
 11
307.895
 21
71.1108
 31
0.0
  0
LINE
  8
0
 62
     0
 10
34.5281
 20
71.1108
 30
0.0
 11
48.5278
 21
71.1108
 31
0.0
  0
LINE
  8
0
 62
     0
 10
48.5278
 20
71.1108
 30
0.0
 11
48.5278
 21
57.1115
 31
0.0
  0
LINE
  8
0
 62
     0
 10
48.5278
 20
57.1115
 30
0.0
 11
34.5281
 21
57.1115
 31
0.0
  0
LINE
  8
0
 62
     0
 10
34.5281
 20
57.1115
 30
0.0
 11
34.5281
 21
71.1108
 31
0.0
  0
LINE
  8
0
 62
     0
 10
60.7219
 20
71.1108
 30
0.0
 11
74.7215
 21
71.1108
 31
0.0
  0
LINE
  8
0
 62
     0
 10
74.7215
 20
71.1108
 30
0.0
 11
74.7215
 21
57.1115
 31
0.0
  0
LINE
  8
0
 62
     0
 10
74.7215
 20
57.1115
 30
0.0
 11
60.7219
 21
57.1115
 31
0.0
  0
LINE
  8
0
 62
     0
 10
60.7219
 20
57.1115
 30
0.0
 11
60.7219
 21
71.1108
 31
0.0
  0
LINE
  8
0
 62
     0
 10
257.889
 20
71.1108
 30
0.0
 11
271.89
 21
71.1108
 31
0.0
  0
LINE
  8
0
 62
     0
 10
271.89
 20
71.1108
 30
0.0
 11
271.89
 21
57.1115
 31
0.0
  0
LINE
  8
0
 62
     0
 10
271.89
 20
57.1115
 30
0.0
 11
257.889
 21
57.1115
 31
0.0
  0
LINE
  8
0
 62
     0
 10
257.889
 20
57.1115
 30
0.0
 11
257.889
 21
71.1108
 31
0.0
  0
LINE
  8
0
 62
     0
 10
276.939
 20
71.1108
 30
0.0
 11
290.94
 21
71.1108
 31
0.0
  0
LINE
  8
0
 62
     0
 10
290.94
 20
71.1108
 30
0.0
 11
290.94
 21
57.1115
 31
0.0
  0
LINE
  8
0
 62
     0
 10
290.94
 20
57.1115
 30
0.0
 11
276.939
 21
57.1115
 31
0.0
  0
LINE
  8
0
 62
     0
 10
276.939
 20
57.1115
 30
0.0
 11
276.939
 21
71.1108
 31
0.0
  0
LINE
  8
0
 62
     0
 10
171.31
 20
75.0108
 30
0.0
 11
174.22
 21
61.316
 31
0.0
  0
LINE
  8
0
 62
     0
 10
174.22
 20
61.316
 30
0.0
 11
187.915
 21
64.2278
 31
0.0
  0
LINE
  8
0
 62
     0
 10
187.915
 20
64.2278
 30
0.0
 11
185.003
 21
77.9212
 31
0.0
  0
LINE
  8
0
 62
     0
 10
185.003
 20
77.9212
 30
0.0
 11
171.31
 21
75.0108
 31
0.0
  0
LINE
  8
0
 62
     0
 10
4.52409
 20
75.8733
 30
0.0
 11
18.525
 21
75.8733
 31
0.0
  0
LINE
  8
0
 62
     0
 10
18.525
 20
75.8733
 30
0.0
 11
18.525
 21
61.874
 31
0.0
  0
LINE
  8
0
 62
     0
 10
18.525
 20
61.874
 30
0.0
 11
4.52409
 21
61.874
 31
0.0
  0
LINE
  8
0
 62
     0
 10
4.52409
 20
61.874
 30
0.0
 11
4.52409
 21
75.8733
 31
0.0
  0
LINE
  8
0
 62
     0
 10
342.662
 20
75.8733
 30
0.0
 11
356.662
 21
75.8733
 31
0.0
  0
LINE
  8
0
 62
     0
 10
356.662
 20
75.8733
 30
0.0
 11
356.662
 21
61.874
 31
0.0
  0
LINE
  8
0
 62
     0
 10
356.662
 20
61.874
 30
0.0
 11
342.662
 21
61.874
 31
0.0
  0
LINE
  8
0
 62
     0
 10
342.662
 20
61.874
 30
0.0
 11
342.662
 21
75.8733
 31
0.0
  0
LINE
  8
0
 62
     0
 10
134.921
 20
65.7585
 30
0.0
 11
148.615
 21
62.8481
 31
0.0
  0
LINE
  8
0
 62
     0
 10
148.615
 20
62.8481
 30
0.0
 11
151.525
 21
76.5418
 31
0.0
  0
LINE
  8
0
 62
     0
 10
151.525
 20
76.5418
 30
0.0
 11
137.83
 21
79.4537
 31
0.0
  0
LINE
  8
0
 62
     0
 10
137.83
 20
79.4537
 30
0.0
 11
134.921
 21
65.7585
 31
0.0
  0
LINE
  8
0
 62
     0
 10
189.943
 20
78.9711
 30
0.0
 11
192.854
 21
65.2776
 31
0.0
  0
LINE
  8
0
 62
     0
 10
192.854
 20
65.2776
 30
0.0
 11
206.549
 21
68.1881
 31
0.0
  0
LINE
  8
0
 62
     0
 10
206.549
 20
68.1881
 30
0.0
 11
203.637
 21
81.8815
 31
0.0
  0
LINE
  8
0
 62
     0
 10
203.637
 20
81.8815
 30
0.0
 11
189.943
 21
78.9711
 31
0.0
  0
LINE
  8
0
 62
     0
 10
116.287
 20
69.7191
 30
0.0
 11
129.981
 21
66.8087
 31
0.0
  0
LINE
  8
0
 62
     0
 10
129.981
 20
66.8087
 30
0.0
 11
132.891
 21
80.5035
 31
0.0
  0
LINE
  8
0
 62
     0
 10
132.891
 20
80.5035
 30
0.0
 11
119.198
 21
83.4125
 31
0.0
  0
LINE
  8
0
 62
     0
 10
119.198
 20
83.4125
 30
0.0
 11
116.287
 21
69.7191
 31
0.0
  0
LINE
  8
0
 62
     0
 10
208.577
 20
82.9317
 30
0.0
 11
211.487
 21
69.2383
 31
0.0
  0
LINE
  8
0
 62
     0
 10
211.487
 20
69.2383
 30
0.0
 11
225.181
 21
72.1487
 31
0.0
  0
LINE
  8
0
 62
     0
 10
225.181
 20
72.1487
 30
0.0
 11
222.271
 21
85.8435
 31
0.0
  0
LINE
  8
0
 62
     0
 10
222.271
 20
85.8435
 30
0.0
 11
208.577
 21
82.9317
 31
0.0
  0
LINE
  8
0
 62
     0
 10
97.6521
 20
73.6794
 30
0.0
 11
111.347
 21
70.7704
 31
0.0
  0
LINE
  8
0
 62
     0
 10
111.347
 20
70.7704
 30
0.0
 11
114.257
 21
84.4628
 31
0.0
  0
LINE
  8
0
 62
     0
 10
114.257
 20
84.4628
 30
0.0
 11
100.564
 21
87.3746
 31
0.0
  0
LINE
  8
0
 62
     0
 10
100.564
 20
87.3746
 30
0.0
 11
97.6521
 21
73.6794
 31
0.0
  0
LINE
  8
0
 62
     0
 10
227.211
 20
86.8938
 30
0.0
 11
230.122
 21
73.1986
 31
0.0
  0
LINE
  8
0
 62
     0
 10
230.122
 20
73.1986
 30
0.0
 11
243.815
 21
76.109
 31
0.0
  0
LINE
  8
0
 62
     0
 10
243.815
 20
76.109
 30
0.0
 11
240.905
 21
89.8028
 31
0.0
  0
LINE
  8
0
 62
     0
 10
240.905
 20
89.8028
 30
0.0
 11
227.211
 21
86.8938
 31
0.0
  0
LINE
  8
0
 62
     0
 10
79.0194
 20
77.6414
 30
0.0
 11
92.7132
 21
74.7296
 31
0.0
  0
LINE
  8
0
 62
     0
 10
92.7132
 20
74.7296
 30
0.0
 11
95.6236
 21
88.4245
 31
0.0
  0
LINE
  8
0
 62
     0
 10
95.6236
 20
88.4245
 30
0.0
 11
81.9298
 21
91.3349
 31
0.0
  0
LINE
  8
0
 62
     0
 10
81.9298
 20
91.3349
 30
0.0
 11
79.0194
 21
77.6414
 31
0.0
  0
LINE
  8
0
 62
     0
 10
35.9572
 20
90.1608
 30
0.0
 11
49.9565
 21
90.1608
 31
0.0
  0
LINE
  8
0
 62
     0
 10
49.9565
 20
90.1608
 30
0.0
 11
49.9565
 21
76.1615
 31
0.0
  0
LINE
  8
0
 62
     0
 10
49.9565
 20
76.1615
 30
0.0
 11
35.9572
 21
76.1615
 31
0.0
  0
LINE
  8
0
 62
     0
 10
35.9572
 20
76.1615
 30
0.0
 11
35.9572
 21
90.1608
 31
0.0
  0
LINE
  8
0
 62
     0
 10
59.7697
 20
90.1608
 30
0.0
 11
73.769
 21
90.1608
 31
0.0
  0
LINE
  8
0
 62
     0
 10
73.769
 20
90.1608
 30
0.0
 11
73.769
 21
76.1615
 31
0.0
  0
LINE
  8
0
 62
     0
 10
73.769
 20
76.1615
 30
0.0
 11
59.7697
 21
76.1615
 31
0.0
  0
LINE
  8
0
 62
     0
 10
59.7697
 20
76.1615
 30
0.0
 11
59.7697
 21
90.1608
 31
0.0
  0
LINE
  8
0
 62
     0
 10
268.366
 20
90.1608
 30
0.0
 11
282.367
 21
90.1608
 31
0.0
  0
LINE
  8
0
 62
     0
 10
282.367
 20
90.1608
 30
0.0
 11
282.367
 21
76.1615
 31
0.0
  0
LINE
  8
0
 62
     0
 10
282.367
 20
76.1615
 30
0.0
 11
268.366
 21
76.1615
 31
0.0
  0
LINE
  8
0
 62
     0
 10
268.366
 20
76.1615
 30
0.0
 11
268.366
 21
90.1608
 31
0.0
  0
LINE
  8
0
 62
     0
 10
287.416
 20
90.1608
 30
0.0
 11
301.417
 21
90.1608
 31
0.0
  0
LINE
  8
0
 62
     0
 10
301.417
 20
90.1608
 30
0.0
 11
301.417
 21
76.1615
 31
0.0
  0
LINE
  8
0
 62
     0
 10
301.417
 20
76.1615
 30
0.0
 11
287.416
 21
76.1615
 31
0.0
  0
LINE
  8
0
 62
     0
 10
287.416
 20
76.1615
 30
0.0
 11
287.416
 21
90.1608
 31
0.0
  0
LINE
  8
0
 62
     0
 10
311.23
 20
90.1608
 30
0.0
 11
325.229
 21
90.1608
 31
0.0
  0
LINE
  8
0
 62
     0
 10
325.229
 20
90.1608
 30
0.0
 11
325.229
 21
76.1615
 31
0.0
  0
LINE
  8
0
 62
     0
 10
325.229
 20
76.1615
 30
0.0
 11
311.23
 21
76.1615
 31
0.0
  0
LINE
  8
0
 62
     0
 10
311.23
 20
76.1615
 30
0.0
 11
311.23
 21
90.1608
 31
0.0
  0
LINE
  8
0
 62
     0
 10
249.316
 20
91.1144
 30
0.0
 11
263.317
 21
91.1144
 31
0.0
  0
LINE
  8
0
 62
     0
 10
263.317
 20
91.1144
 30
0.0
 11
263.317
 21
77.1137
 31
0.0
  0
LINE
  8
0
 62
     0
 10
263.317
 20
77.1137
 30
0.0
 11
249.316
 21
77.1137
 31
0.0
  0
LINE
  8
0
 62
     0
 10
249.316
 20
77.1137
 30
0.0
 11
249.316
 21
91.1144
 31
0.0
  0
LINE
  8
0
 62
     0
 10
148.197
 20
82.4121
 30
0.0
 11
161.892
 21
79.5002
 31
0.0
  0
LINE
  8
0
 62
     0
 10
161.892
 20
79.5002
 30
0.0
 11
164.802
 21
93.1954
 31
0.0
  0
LINE
  8
0
 62
     0
 10
164.802
 20
93.1954
 30
0.0
 11
151.109
 21
96.1058
 31
0.0
  0
LINE
  8
0
 62
     0
 10
151.109
 20
96.1058
 30
0.0
 11
148.197
 21
82.4121
 31
0.0
  0
LINE
  8
0
 62
     0
 10
6.42994
 20
94.9233
 30
0.0
 11
20.4294
 21
94.9233
 31
0.0
  0
LINE
  8
0
 62
     0
 10
20.4294
 20
94.9233
 30
0.0
 11
20.4294
 21
80.924
 31
0.0
  0
LINE
  8
0
 62
     0
 10
20.4294
 20
80.924
 30
0.0
 11
6.42994
 21
80.924
 31
0.0
  0
LINE
  8
0
 62
     0
 10
6.42994
 20
80.924
 30
0.0
 11
6.42994
 21
94.9233
 31
0.0
  0
LINE
  8
0
 62
     0
 10
340.757
 20
94.9233
 30
0.0
 11
354.757
 21
94.9233
 31
0.0
  0
LINE
  8
0
 62
     0
 10
354.757
 20
94.9233
 30
0.0
 11
354.757
 21
80.924
 31
0.0
  0
LINE
  8
0
 62
     0
 10
354.757
 20
80.924
 30
0.0
 11
340.757
 21
80.924
 31
0.0
  0
LINE
  8
0
 62
     0
 10
340.757
 20
80.924
 30
0.0
 11
340.757
 21
94.9233
 31
0.0
  0
LINE
  8
0
 62
     0
 10
176.666
 20
95.6236
 30
0.0
 11
179.576
 21
81.9298
 31
0.0
  0
LINE
  8
0
 62
     0
 10
179.576
 20
81.9298
 30
0.0
 11
193.27
 21
84.8416
 31
0.0
  0
LINE
  8
0
 62
     0
 10
193.27
 20
84.8416
 30
0.0
 11
190.36
 21
98.5354
 31
0.0
  0
LINE
  8
0
 62
     0
 10
190.36
 20
98.5354
 30
0.0
 11
176.666
 21
95.6236
 31
0.0
  0
LINE
  8
0
 62
     0
 10
129.565
 20
86.3727
 30
0.0
 11
143.258
 21
83.4623
 31
0.0
  0
LINE
  8
0
 62
     0
 10
143.258
 20
83.4623
 30
0.0
 11
146.169
 21
97.1557
 31
0.0
  0
LINE
  8
0
 62
     0
 10
146.169
 20
97.1557
 30
0.0
 11
132.475
 21
100.068
 31
0.0
  0
LINE
  8
0
 62
     0
 10
132.475
 20
100.068
 30
0.0
 11
129.565
 21
86.3727
 31
0.0
  0
LINE
  8
0
 62
     0
 10
195.3
 20
99.5853
 30
0.0
 11
198.21
 21
85.8919
 31
0.0
  0
LINE
  8
0
 62
     0
 10
198.21
 20
85.8919
 30
0.0
 11
211.905
 21
88.8023
 31
0.0
  0
LINE
  8
0
 62
     0
 10
211.905
 20
88.8023
 30
0.0
 11
208.993
 21
102.496
 31
0.0
  0
LINE
  8
0
 62
     0
 10
208.993
 20
102.496
 30
0.0
 11
195.3
 21
99.5853
 31
0.0
  0
LINE
  8
0
 62
     0
 10
110.931
 20
90.3333
 30
0.0
 11
124.624
 21
87.4229
 31
0.0
  0
LINE
  8
0
 62
     0
 10
124.624
 20
87.4229
 30
0.0
 11
127.536
 21
101.118
 31
0.0
  0
LINE
  8
0
 62
     0
 10
127.536
 20
101.118
 30
0.0
 11
113.841
 21
104.027
 31
0.0
  0
LINE
  8
0
 62
     0
 10
113.841
 20
104.027
 30
0.0
 11
110.931
 21
90.3333
 31
0.0
  0
LINE
  8
0
 62
     0
 10
213.934
 20
103.546
 30
0.0
 11
216.844
 21
89.8521
 31
0.0
  0
LINE
  8
0
 62
     0
 10
216.844
 20
89.8521
 30
0.0
 11
230.537
 21
92.7626
 31
0.0
  0
LINE
  8
0
 62
     0
 10
230.537
 20
92.7626
 30
0.0
 11
227.627
 21
106.458
 31
0.0
  0
LINE
  8
0
 62
     0
 10
227.627
 20
106.458
 30
0.0
 11
213.934
 21
103.546
 31
0.0
  0
LINE
  8
0
 62
     0
 10
92.2969
 20
94.2936
 30
0.0
 11
105.99
 21
91.3832
 31
0.0
  0
LINE
  8
0
 62
     0
 10
105.99
 20
91.3832
 30
0.0
 11
108.901
 21
105.077
 31
0.0
  0
LINE
  8
0
 62
     0
 10
108.901
 20
105.077
 30
0.0
 11
95.2073
 21
107.988
 31
0.0
  0
LINE
  8
0
 62
     0
 10
95.2073
 20
107.988
 30
0.0
 11
92.2969
 21
94.2936
 31
0.0
  0
LINE
  8
0
 62
     0
 10
232.566
 20
107.508
 30
0.0
 11
235.478
 21
93.8128
 31
0.0
  0
LINE
  8
0
 62
     0
 10
235.478
 20
93.8128
 30
0.0
 11
249.172
 21
96.7232
 31
0.0
  0
LINE
  8
0
 62
     0
 10
249.172
 20
96.7232
 30
0.0
 11
246.261
 21
110.417
 31
0.0
  0
LINE
  8
0
 62
     0
 10
246.261
 20
110.417
 30
0.0
 11
232.566
 21
107.508
 31
0.0
  0
LINE
  8
0
 62
     0
 10
302.657
 20
109.211
 30
0.0
 11
302.657
 21
104.51
 31
0.0
  0
LINE
  8
0
 62
     0
 10
302.657
 20
104.51
 30
0.0
 11
301.132
 21
104.51
 31
0.0
  0
LINE
  8
0
 62
     0
 10
301.132
 20
104.51
 30
0.0
 11
301.132
 21
107.74
 31
0.0
  0
LINE
  8
0
 62
     0
 10
301.132
 20
107.74
 30
0.0
 11
294.382
 21
107.74
 31
0.0
  0
LINE
  8
0
 62
     0
 10
294.382
 20
107.74
 30
0.0
 11
294.382
 21
104.51
 31
0.0
  0
LINE
  8
0
 62
     0
 10
294.382
 20
104.51
 30
0.0
 11
293.557
 21
104.51
 31
0.0
  0
LINE
  8
0
 62
     0
 10
293.557
 20
104.51
 30
0.0
 11
293.557
 21
101.711
 31
0.0
  0
LINE
  8
0
 62
     0
 10
293.557
 20
101.711
 30
0.0
 11
294.382
 21
101.711
 31
0.0
  0
LINE
  8
0
 62
     0
 10
294.382
 20
101.711
 30
0.0
 11
294.382
 21
95.4416
 31
0.0
  0
LINE
  8
0
 62
     0
 10
294.382
 20
95.4416
 30
0.0
 11
296.106
 21
95.4416
 31
0.0
  0
LINE
  8
0
 62
     0
 10
296.106
 20
95.4416
 30
0.0
 11
296.106
 21
94.2414
 31
0.0
  0
LINE
  8
0
 62
     0
 10
296.106
 20
94.2414
 30
0.0
 11
299.406
 21
94.2414
 31
0.0
  0
LINE
  8
0
 62
     0
 10
299.406
 20
94.2414
 30
0.0
 11
299.406
 21
95.4416
 31
0.0
  0
LINE
  8
0
 62
     0
 10
299.406
 20
95.4416
 30
0.0
 11
301.132
 21
95.4416
 31
0.0
  0
LINE
  8
0
 62
     0
 10
301.132
 20
95.4416
 30
0.0
 11
301.132
 21
99.9105
 31
0.0
  0
LINE
  8
0
 62
     0
 10
301.132
 20
99.9105
 30
0.0
 11
302.657
 21
99.9105
 31
0.0
  0
LINE
  8
0
 62
     0
 10
302.657
 20
99.9105
 30
0.0
 11
302.657
 21
95.2115
 31
0.0
  0
LINE
  8
0
 62
     0
 10
302.657
 20
95.2115
 30
0.0
 11
316.657
 21
95.2115
 31
0.0
  0
LINE
  8
0
 62
     0
 10
316.657
 20
95.2115
 30
0.0
 11
316.657
 21
99.9105
 31
0.0
  0
LINE
  8
0
 62
     0
 10
316.657
 20
99.9105
 30
0.0
 11
318.182
 21
99.9105
 31
0.0
  0
LINE
  8
0
 62
     0
 10
318.182
 20
99.9105
 30
0.0
 11
318.182
 21
95.4416
 31
0.0
  0
LINE
  8
0
 62
     0
 10
318.182
 20
95.4416
 30
0.0
 11
319.906
 21
95.4416
 31
0.0
  0
LINE
  8
0
 62
     0
 10
319.906
 20
95.4416
 30
0.0
 11
319.906
 21
94.2414
 31
0.0
  0
LINE
  8
0
 62
     0
 10
319.906
 20
94.2414
 30
0.0
 11
323.207
 21
94.2414
 31
0.0
  0
LINE
  8
0
 62
     0
 10
323.207
 20
94.2414
 30
0.0
 11
323.207
 21
95.4416
 31
0.0
  0
LINE
  8
0
 62
     0
 10
323.207
 20
95.4416
 30
0.0
 11
324.932
 21
95.4416
 31
0.0
  0
LINE
  8
0
 62
     0
 10
324.932
 20
95.4416
 30
0.0
 11
324.932
 21
101.711
 31
0.0
  0
LINE
  8
0
 62
     0
 10
324.932
 20
101.711
 30
0.0
 11
325.756
 21
101.711
 31
0.0
  0
LINE
  8
0
 62
     0
 10
325.756
 20
101.711
 30
0.0
 11
325.756
 21
104.51
 31
0.0
  0
LINE
  8
0
 62
     0
 10
325.756
 20
104.51
 30
0.0
 11
324.932
 21
104.51
 31
0.0
  0
LINE
  8
0
 62
     0
 10
324.932
 20
104.51
 30
0.0
 11
324.932
 21
107.74
 31
0.0
  0
LINE
  8
0
 62
     0
 10
324.932
 20
107.74
 30
0.0
 11
318.182
 21
107.74
 31
0.0
  0
LINE
  8
0
 62
     0
 10
318.182
 20
107.74
 30
0.0
 11
318.182
 21
104.51
 31
0.0
  0
LINE
  8
0
 62
     0
 10
318.182
 20
104.51
 30
0.0
 11
316.657
 21
104.51
 31
0.0
  0
LINE
  8
0
 62
     0
 10
316.657
 20
104.51
 30
0.0
 11
316.657
 21
109.211
 31
0.0
  0
LINE
  8
0
 62
     0
 10
316.657
 20
109.211
 30
0.0
 11
302.657
 21
109.211
 31
0.0
  0
LINE
  8
0
 62
     0
 10
35.0049
 20
109.211
 30
0.0
 11
49.0044
 21
109.211
 31
0.0
  0
LINE
  8
0
 62
     0
 10
49.0044
 20
109.211
 30
0.0
 11
49.0044
 21
95.2115
 31
0.0
  0
LINE
  8
0
 62
     0
 10
49.0044
 20
95.2115
 30
0.0
 11
35.0049
 21
95.2115
 31
0.0
  0
LINE
  8
0
 62
     0
 10
35.0049
 20
95.2115
 30
0.0
 11
35.0049
 21
109.211
 31
0.0
  0
LINE
  8
0
 62
     0
 10
54.0537
 20
109.211
 30
0.0
 11
68.0544
 21
109.211
 31
0.0
  0
LINE
  8
0
 62
     0
 10
68.0544
 20
109.211
 30
0.0
 11
68.0544
 21
95.2115
 31
0.0
  0
LINE
  8
0
 62
     0
 10
68.0544
 20
95.2115
 30
0.0
 11
54.0537
 21
95.2115
 31
0.0
  0
LINE
  8
0
 62
     0
 10
54.0537
 20
95.2115
 30
0.0
 11
54.0537
 21
109.211
 31
0.0
  0
LINE
  8
0
 62
     0
 10
274.082
 20
109.211
 30
0.0
 11
288.082
 21
109.211
 31
0.0
  0
LINE
  8
0
 62
     0
 10
288.082
 20
109.211
 30
0.0
 11
288.082
 21
95.2115
 31
0.0
  0
LINE
  8
0
 62
     0
 10
288.082
 20
95.2115
 30
0.0
 11
274.082
 21
95.2115
 31
0.0
  0
LINE
  8
0
 62
     0
 10
274.082
 20
95.2115
 30
0.0
 11
274.082
 21
109.211
 31
0.0
  0
LINE
  8
0
 62
     0
 10
73.1051
 20
111.117
 30
0.0
 11
87.1044
 21
111.117
 31
0.0
  0
LINE
  8
0
 62
     0
 10
87.1044
 20
111.117
 30
0.0
 11
87.1044
 21
97.1158
 31
0.0
  0
LINE
  8
0
 62
     0
 10
87.1044
 20
97.1158
 30
0.0
 11
73.1051
 21
97.1158
 31
0.0
  0
LINE
  8
0
 62
     0
 10
73.1051
 20
97.1158
 30
0.0
 11
73.1051
 21
111.117
 31
0.0
  0
LINE
  8
0
 62
     0
 10
255.032
 20
111.117
 30
0.0
 11
269.032
 21
111.117
 31
0.0
  0
LINE
  8
0
 62
     0
 10
269.032
 20
111.117
 30
0.0
 11
269.032
 21
97.1158
 31
0.0
  0
LINE
  8
0
 62
     0
 10
269.032
 20
97.1158
 30
0.0
 11
255.032
 21
97.1158
 31
0.0
  0
LINE
  8
0
 62
     0
 10
255.032
 20
97.1158
 30
0.0
 11
255.032
 21
111.117
 31
0.0
  0
LINE
  8
0
 62
     0
 10
8.33438
 20
113.973
 30
0.0
 11
22.3339
 21
113.973
 31
0.0
  0
LINE
  8
0
 62
     0
 10
22.3339
 20
113.973
 30
0.0
 11
22.3339
 21
99.974
 31
0.0
  0
LINE
  8
0
 62
     0
 10
22.3339
 20
99.974
 30
0.0
 11
8.33438
 21
99.974
 31
0.0
  0
LINE
  8
0
 62
     0
 10
8.33438
 20
99.974
 30
0.0
 11
8.33438
 21
113.973
 31
0.0
  0
LINE
  8
0
 62
     0
 10
338.851
 20
113.973
 30
0.0
 11
352.852
 21
113.973
 31
0.0
  0
LINE
  8
0
 62
     0
 10
352.852
 20
113.973
 30
0.0
 11
352.852
 21
99.974
 31
0.0
  0
LINE
  8
0
 62
     0
 10
352.852
 20
99.974
 30
0.0
 11
338.851
 21
99.974
 31
0.0
  0
LINE
  8
0
 62
     0
 10
338.851
 20
99.974
 30
0.0
 11
338.851
 21
113.973
 31
0.0
  0
ENDSEC
  0
EOF
