  0
SECTION
  2
HEADER
  9
$ACADVER
  1
AC1032
  9
$ACADMAINTVER
 90
      140
  9
$DWGCODEPAGE
  3
ANSI_936
  9
$LASTSAVEDBY
  1
luxiaofeng
  9
$REQUIREDVERSIONS
160
                 0
  9
$INSBASE
 10
0.0
 20
0.0
 30
0.0
  9
$EXTMIN
 10
-35.54338320312445
 20
-727.7554943710313
 30
0.0
  9
$EXTMAX
 10
305.0932031699149
 20
259.2748178405902
 30
0.0
  9
$LIMMIN
 10
0.0
 20
0.0
  9
$LIMMAX
 10
12.0
 20
9.0
  9
$ORTHOMODE
 70
     0
  9
$REGENMODE
 70
     1
  9
$FILLMODE
 70
     0
  9
$QTEXTMODE
 70
     0
  9
$MIRRTEXT
 70
     0
  9
$LTSCALE
 40
1.0
  9
$ATTMODE
 70
     1
  9
$TEXTSIZE
 40
0.2
  9
$TRACEWID
 40
0.05
  9
$TEXTSTYLE
  7
Standard
  9
$CLAYER
  8
0
  9
$CELTYPE
  6
Continuous
  9
$CECOLOR
 62
   256
  9
$CELTSCALE
 40
1.0
  9
$DISPSILH
 70
     0
  9
$DIMSCALE
 40
1.0
  9
$DIMASZ
 40
0.18
  9
$DIMEXO
 40
0.0625
  9
$DIMDLI
 40
0.38
  9
$DIMRND
 40
0.0
  9
$DIMDLE
 40
0.0
  9
$DIMEXE
 40
0.18
  9
$DIMTP
 40
0.0
  9
$DIMTM
 40
0.0
  9
$DIMTXT
 40
0.18
  9
$DIMCEN
 40
0.09
  9
$DIMTSZ
 40
0.0
  9
$DIMTOL
 70
     0
  9
$DIMLIM
 70
     0
  9
$DIMTIH
 70
     1
  9
$DIMTOH
 70
     1
  9
$DIMSE1
 70
     0
  9
$DIMSE2
 70
     0
  9
$DIMTAD
 70
     0
  9
$DIMZIN
 70
     0
  9
$DIMBLK
  1

  9
$DIMASO
 70
     1
  9
$DIMSHO
 70
     1
  9
$DIMPOST
  1

  9
$DIMAPOST
  1

  9
$DIMALT
 70
     0
  9
$DIMALTD
 70
     2
  9
$DIMALTF
 40
25.4
  9
$DIMLFAC
 40
1.0
  9
$DIMTOFL
 70
     0
  9
$DIMTVP
 40
0.0
  9
$DIMTIX
 70
     0
  9
$DIMSOXD
 70
     0
  9
$DIMSAH
 70
     0
  9
$DIMBLK1
  1

  9
$DIMBLK2
  1

  9
$DIMSTYLE
  2
Standard
  9
$DIMCLRD
 70
     0
  9
$DIMCLRE
 70
     0
  9
$DIMCLRT
 70
     0
  9
$DIMTFAC
 40
1.0
  9
$DIMGAP
 40
0.09
  9
$DIMJUST
 70
     0
  9
$DIMSD1
 70
     0
  9
$DIMSD2
 70
     0
  9
$DIMTOLJ
 70
     1
  9
$DIMTZIN
 70
     0
  9
$DIMALTZ
 70
     0
  9
$DIMALTTZ
 70
     0
  9
$DIMUPT
 70
     0
  9
$DIMDEC
 70
     4
  9
$DIMTDEC
 70
     4
  9
$DIMALTU
 70
     2
  9
$DIMALTTD
 70
     2
  9
$DIMTXSTY
  7
Standard
  9
$DIMAUNIT
 70
     0
  9
$DIMADEC
 70
     0
  9
$DIMALTRND
 40
0.0
  9
$DIMAZIN
 70
     0
  9
$DIMDSEP
 70
    46
  9
$DIMATFIT
 70
     3
  9
$DIMFRAC
 70
     0
  9
$DIMLDRBLK
  1

  9
$DIMLUNIT
 70
     2
  9
$DIMLWD
 70
    -2
  9
$DIMLWE
 70
    -2
  9
$DIMTMOVE
 70
     0
  9
$DIMFXL
 40
1.0
  9
$DIMFXLON
 70
     0
  9
$DIMJOGANG
 40
0.7853981633974483
  9
$DIMTFILL
 70
     0
  9
$DIMTFILLCLR
 70
     0
  9
$DIMARCSYM
 70
     0
  9
$DIMLTYPE
  6

  9
$DIMLTEX1
  6

  9
$DIMLTEX2
  6

  9
$DIMTXTDIRECTION
 70
     0
  9
$LUNITS
 70
     2
  9
$LUPREC
 70
     4
  9
$SKETCHINC
 40
0.1
  9
$FILLETRAD
 40
0.0
  9
$AUNITS
 70
     0
  9
$AUPREC
 70
     0
  9
$MENU
  1
.
  9
$ELEVATION
 40
0.0
  9
$PELEVATION
 40
0.0
  9
$THICKNESS
 40
0.0
  9
$LIMCHECK
 70
     0
  9
$CHAMFERA
 40
0.0
  9
$CHAMFERB
 40
0.0
  9
$CHAMFERC
 40
0.0
  9
$CHAMFERD
 40
0.0
  9
$SKPOLY
 70
     0
  9
$TDCREATE
 40
2459786.820081018
  9
$TDUCREATE
 40
2459786.486747685
  9
$TDUPDATE
 40
2459786.847627315
  9
$TDUUPDATE
 40
2459786.514293981
  9
$TDINDWG
 40
0.0275462963
  9
$TDUSRTIMER
 40
0.0275462963
  9
$USRTIMER
 70
     1
  9
$ANGBASE
 50
0.0
  9
$ANGDIR
 70
     0
  9
$PDMODE
 70
     0
  9
$PDSIZE
 40
0.0
  9
$PLINEWID
 40
0.0
  9
$SPLFRAME
 70
     1
  9
$SPLINETYPE
 70
     6
  9
$SPLINESEGS
 70
     8
  9
$HANDSEED
  5
E66
  9
$SURFTAB1
 70
     6
  9
$SURFTAB2
 70
     6
  9
$SURFTYPE
 70
     6
  9
$SURFU
 70
     6
  9
$SURFV
 70
     6
  9
$UCSBASE
  2

  9
$UCSNAME
  2

  9
$UCSORG
 10
0.0
 20
0.0
 30
0.0
  9
$UCSXDIR
 10
1.0
 20
0.0
 30
0.0
  9
$UCSYDIR
 10
0.0
 20
1.0
 30
0.0
  9
$UCSORTHOREF
  2

  9
$UCSORTHOVIEW
 70
     0
  9
$UCSORGTOP
 10
0.0
 20
0.0
 30
0.0
  9
$UCSORGBOTTOM
 10
0.0
 20
0.0
 30
0.0
  9
$UCSORGLEFT
 10
0.0
 20
0.0
 30
0.0
  9
$UCSORGRIGHT
 10
0.0
 20
0.0
 30
0.0
  9
$UCSORGFRONT
 10
0.0
 20
0.0
 30
0.0
  9
$UCSORGBACK
 10
0.0
 20
0.0
 30
0.0
  9
$PUCSBASE
  2

  9
$PUCSNAME
  2

  9
$PUCSORG
 10
0.0
 20
0.0
 30
0.0
  9
$PUCSXDIR
 10
1.0
 20
0.0
 30
0.0
  9
$PUCSYDIR
 10
0.0
 20
1.0
 30
0.0
  9
$PUCSORTHOREF
  2

  9
$PUCSORTHOVIEW
 70
     0
  9
$PUCSORGTOP
 10
0.0
 20
0.0
 30
0.0
  9
$PUCSORGBOTTOM
 10
0.0
 20
0.0
 30
0.0
  9
$PUCSORGLEFT
 10
0.0
 20
0.0
 30
0.0
  9
$PUCSORGRIGHT
 10
0.0
 20
0.0
 30
0.0
  9
$PUCSORGFRONT
 10
0.0
 20
0.0
 30
0.0
  9
$PUCSORGBACK
 10
0.0
 20
0.0
 30
0.0
  9
$USERI1
 70
     0
  9
$USERI2
 70
     0
  9
$USERI3
 70
     0
  9
$USERI4
 70
     0
  9
$USERI5
 70
     0
  9
$USERR1
 40
0.0
  9
$USERR2
 40
0.0
  9
$USERR3
 40
0.0
  9
$USERR4
 40
0.0
  9
$USERR5
 40
0.0
  9
$WORLDVIEW
 70
     1
  9
$SHADEDGE
 70
     3
  9
$SHADEDIF
 70
    70
  9
$TILEMODE
 70
     1
  9
$MAXACTVP
 70
    64
  9
$PINSBASE
 10
0.0
 20
0.0
 30
0.0
  9
$PLIMCHECK
 70
     0
  9
$PEXTMIN
 10
1.000000000000000E+20
 20
1.000000000000000E+20
 30
1.000000000000000E+20
  9
$PEXTMAX
 10
-1.000000000000000E+20
 20
-1.000000000000000E+20
 30
-1.000000000000000E+20
  9
$PLIMMIN
 10
0.0
 20
0.0
  9
$PLIMMAX
 10
12.0
 20
9.0
  9
$UNITMODE
 70
     0
  9
$VISRETAIN
 70
     1
  9
$PLINEGEN
 70
     0
  9
$PSLTSCALE
 70
     1
  9
$TREEDEPTH
 70
  3020
  9
$CMLSTYLE
  2
Standard
  9
$CMLJUST
 70
     0
  9
$CMLSCALE
 40
1.0
  9
$PROXYGRAPHICS
 70
     1
  9
$MEASUREMENT
 70
     0
  9
$CELWEIGHT
370
    -1
  9
$ENDCAPS
280
     0
  9
$JOINSTYLE
280
     0
  9
$LWDISPLAY
290
     0
  9
$INSUNITS
 70
     0
  9
$HYPERLINKBASE
  1

  9
$STYLESHEET
  1

  9
$XEDIT
290
     1
  9
$CEPSNTYPE
380
     0
  9
$PSTYLEMODE
290
     1
  9
$FINGERPRINTGUID
  2
{01343F2B-5002-D345-8E98-F3B24AE55E79}
  9
$VERSIONGUID
  2
{181FEFDB-FEA3-3748-9ACA-97FAE47EE114}
  9
$EXTNAMES
290
     1
  9
$PSVPSCALE
 40
0.0
  9
$OLESTARTUP
290
     0
  9
$SORTENTS
280
   127
  9
$INDEXCTL
280
     0
  9
$HIDETEXT
280
     0
  9
$XCLIPFRAME
280
     2
  9
$HALOGAP
280
     0
  9
$OBSCOLOR
 70
   257
  9
$OBSLTYPE
280
     0
  9
$INTERSECTIONDISPLAY
280
     0
  9
$INTERSECTIONCOLOR
 70
   257
  9
$DIMASSOC
280
     1
  9
$PROJECTNAME
  1

  9
$CAMERADISPLAY
290
     0
  9
$LENSLENGTH
 40
50.0
  9
$CAMERAHEIGHT
 40
0.0
  9
$STEPSPERSEC
 40
2.0
  9
$STEPSIZE
 40
6.0
  9
$3DDWFPREC
 40
2.0
  9
$PSOLWIDTH
 40
0.25
  9
$PSOLHEIGHT
 40
4.0
  9
$LOFTANG1
 40
1.570796326794896
  9
$LOFTANG2
 40
1.570796326794896
  9
$LOFTMAG1
 40
0.0
  9
$LOFTMAG2
 40
0.0
  9
$LOFTPARAM
 70
     7
  9
$LOFTNORMALS
280
     1
  9
$LATITUDE
 40
37.795
  9
$LONGITUDE
 40
-122.394
  9
$NORTHDIRECTION
 40
0.0
  9
$TIMEZONE
 70
 -8000
  9
$LIGHTGLYPHDISPLAY
280
     1
  9
$TILEMODELIGHTSYNCH
280
     1
  9
$CMATERIAL
347
11
  9
$SOLIDHIST
280
     0
  9
$SHOWHIST
280
     1
  9
$DWFFRAME
280
     2
  9
$DGNFRAME
280
     0
  9
$REALWORLDSCALE
290
     1
  9
$INTERFERECOLOR
 62
     1
  9
$INTERFEREOBJVS
345
33
  9
$INTERFEREVPVS
346
30
  9
$CSHADOW
280
     0
  9
$SHADOWPLANELOCATION
 40
0.0
  0
ENDSEC
  0
SECTION
  2
CLASSES
  0
CLASS
  1
ACDBDICTIONARYWDFLT
  2
AcDbDictionaryWithDefault
  3
ObjectDBX Classes
 90
        0
 91
        1
280
     0
281
     0
  0
CLASS
  1
MATERIAL
  2
AcDbMaterial
  3
ObjectDBX Classes
 90
     1153
 91
        3
280
     0
281
     0
  0
CLASS
  1
VISUALSTYLE
  2
AcDbVisualStyle
  3
ObjectDBX Classes
 90
     4095
 91
       24
280
     0
281
     0
  0
CLASS
  1
SCALE
  2
AcDbScale
  3
ObjectDBX Classes
 90
     1153
 91
       17
280
     0
281
     0
  0
CLASS
  1
TABLESTYLE
  2
AcDbTableStyle
  3
ObjectDBX Classes
 90
     4095
 91
        1
280
     0
281
     0
  0
CLASS
  1
MLEADERSTYLE
  2
AcDbMLeaderStyle
  3
ACDB_MLEADERSTYLE_CLASS
 90
     4095
 91
        1
280
     0
281
     0
  0
CLASS
  1
ACDBSECTIONVIEWSTYLE
  2
AcDbSectionViewStyle
  3
ObjectDBX Classes
 90
     1025
 91
        1
280
     0
281
     0
  0
CLASS
  1
ACDBDETAILVIEWSTYLE
  2
AcDbDetailViewStyle
  3
ObjectDBX Classes
 90
     1025
 91
        1
280
     0
281
     0
  0
CLASS
  1
SORTENTSTABLE
  2
AcDbSortentsTable
  3
ObjectDBX Classes
 90
        0
 91
       10
280
     0
281
     0
  0
CLASS
  1
DICTIONARYVAR
  2
AcDbDictionaryVar
  3
ObjectDBX Classes
 90
        0
 91
       18
280
     0
281
     0
  0
CLASS
  1
CELLSTYLEMAP
  2
AcDbCellStyleMap
  3
ObjectDBX Classes
 90
     1152
 91
        1
280
     0
281
     0
  0
ENDSEC
  0
SECTION
  2
TABLES
  0
TABLE
  2
VPORT
  5
8
330
0
100
AcDbSymbolTable
 70
     1
  0
VPORT
  5
74
330
8
100
AcDbSymbolTableRecord
100
AcDbViewportTableRecord
  2
*Active
 70
     0
 10
0.0
 20
0.0
 11
1.0
 21
1.0
 12
35.9241997702668
 22
-306.3625586447352
 13
0.0
 23
0.0
 14
1.0
 24
1.0
 15
0.0
 25
0.0
 16
0.0
 26
0.0
 36
1.0
 17
0.0
 27
0.0
 37
0.0
 40
726.7219603550361
 41
1.51624548736462
 42
50.0
 43
0.0
 44
0.0
 50
0.0
 51
0.0
 71
     0
 72
   100
 73
     1
 74
     1
 75
     0
 76
     0
 77
     0
 78
     0
281
     0
 65
     1
110
0.0
120
0.0
130
0.0
111
1.0
121
0.0
131
0.0
112
0.0
122
1.0
132
0.0
 79
     0
146
0.0
348
2F
 60
     3
 61
     5
292
     1
282
     1
141
0.0
142
0.0
 63
   250
421
  3355443
1001
ACAD_NAV_VCDISPLAY
1070
     3
  0
ENDTAB
  0
TABLE
  2
LTYPE
  5
5
330
0
100
AcDbSymbolTable
 70
     2
  0
LTYPE
  5
5A
330
5
100
AcDbSymbolTableRecord
100
AcDbLinetypeTableRecord
  2
ByBlock
 70
     0
  3

 72
    65
 73
     0
 40
0.0
  0
LTYPE
  5
5B
330
5
100
AcDbSymbolTableRecord
100
AcDbLinetypeTableRecord
  2
ByLayer
 70
     0
  3

 72
    65
 73
     0
 40
0.0
  0
LTYPE
  5
5C
330
5
100
AcDbSymbolTableRecord
100
AcDbLinetypeTableRecord
  2
Continuous
 70
     0
  3
Solid line
 72
    65
 73
     0
 40
0.0
  0
ENDTAB
  0
TABLE
  2
LAYER
  5
2
102
{ACAD_XDICTIONARY
360
128
102
}
330
0
100
AcDbSymbolTable
 70
     1
  0
LAYER
  5
54
102
{ACAD_XDICTIONARY
360
E5A
102
}
330
2
100
AcDbSymbolTableRecord
100
AcDbLayerTableRecord
  2
0
 70
     0
 62
     7
  6
Continuous
370
    -3
390
F
347
21
348
0
  0
ENDTAB
  0
TABLE
  2
STYLE
  5
3
330
0
100
AcDbSymbolTable
 70
     2
  0
STYLE
  5
55
330
3
100
AcDbSymbolTableRecord
100
AcDbTextStyleTableRecord
  2
Standard
 70
     0
 40
0.0
 41
1.0
 50
0.0
 71
     0
 42
0.2
  3
txt
  4

  0
STYLE
  5
59
330
3
100
AcDbSymbolTableRecord
100
AcDbTextStyleTableRecord
  2
Annotative
 70
     0
 40
0.0
 41
1.0
 50
0.0
 71
     0
 42
0.2
  3
txt
  4

1001
AcadAnnotative
1000
AnnotativeData
1002
{
1070
     1
1070
     1
1002
}
  0
ENDTAB
  0
TABLE
  2
VIEW
  5
6
330
0
100
AcDbSymbolTable
 70
     1
  0
ENDTAB
  0
TABLE
  2
UCS
  5
7
330
0
100
AcDbSymbolTable
 70
     0
  0
ENDTAB
  0
TABLE
  2
APPID
  5
9
330
0
100
AcDbSymbolTable
 70
     5
  0
APPID
  5
56
330
9
100
AcDbSymbolTableRecord
100
AcDbRegAppTableRecord
  2
ACAD
 70
     0
  0
APPID
  5
5D
330
9
100
AcDbSymbolTableRecord
100
AcDbRegAppTableRecord
  2
AcadAnnotative
 70
     0
  0
APPID
  5
127
330
9
100
AcDbSymbolTableRecord
100
AcDbRegAppTableRecord
  2
ACAD_NAV_VCDISPLAY
 70
     0
  0
APPID
  5
38E
330
9
100
AcDbSymbolTableRecord
100
AcDbRegAppTableRecord
  2
ACAD_EXEMPT_FROM_CAD_STANDARDS
 70
     0
  0
APPID
  5
395
330
9
100
AcDbSymbolTableRecord
100
AcDbRegAppTableRecord
  2
Acad_TC
 70
     0
  0
ENDTAB
  0
TABLE
  2
DIMSTYLE
  5
A
330
0
100
AcDbSymbolTable
 70
     3
100
AcDbDimStyleTable
 71
     1
340
57
  0
DIMSTYLE
105
57
330
A
100
AcDbSymbolTableRecord
100
AcDbDimStyleTableRecord
  2
Standard
 70
     0
340
55
  0
DIMSTYLE
105
58
330
A
100
AcDbSymbolTableRecord
100
AcDbDimStyleTableRecord
  2
Annotative
 70
     0
340
55
1001
AcadAnnotative
1000
AnnotativeData
1002
{
1070
     1
1070
     1
1002
}
  0
ENDTAB
  0
TABLE
  2
BLOCK_RECORD
  5
1
330
0
100
AcDbSymbolTable
 70
     9
  0
BLOCK_RECORD
  5
6F
102
{ACAD_XDICTIONARY
360
397
102
}
330
1
100
AcDbSymbolTableRecord
100
AcDbBlockTableRecord
  2
*Model_Space
340
72
 70
     0
280
     1
281
     0
  0
BLOCK_RECORD
  5
6B
330
1
100
AcDbSymbolTableRecord
100
AcDbBlockTableRecord
  2
*Paper_Space
340
6E
 70
     0
280
     1
281
     0
  0
ENDTAB
  0
ENDSEC
  0
SECTION
  2
BLOCKS
  0
BLOCK
  5
70
330
6F
100
AcDbEntity
  8
0
100
AcDbBlockBegin
  2
*Model_Space
 70
     0
 10
0.0
 20
0.0
 30
0.0
  3
*Model_Space
  1

  0
ENDBLK
  5
71
330
6F
100
AcDbEntity
  8
0
100
AcDbBlockEnd
  0
BLOCK
  5
6C
330
6B
100
AcDbEntity
 67
     1
  8
0
100
AcDbBlockBegin
  2
*Paper_Space
 70
     0
 10
0.0
 20
0.0
 30
0.0
  3
*Paper_Space
  1

  0
ENDBLK
  5
6D
330
6B
100
AcDbEntity
 67
     1
  8
0
100
AcDbBlockEnd
  0
ENDSEC
  0
SECTION
  2
ENTITIES
  0
LINE
  5
28B
330
6F
100
AcDbEntity
  8
0
 62
     0
100
AcDbLine
 10
239.2835993311969
 20
-127.3131622512643
 30
0.0
 11
212.8835993311969
 21
-127.3131622512644
 31
0.0
  0
LINE
  5
28C
330
6F
100
AcDbEntity
  8
0
 62
     0
100
AcDbLine
 10
191.2835993311969
 20
-127.3131622512644
 30
0.0
 11
164.8835993311969
 21
-127.3131622512644
 31
0.0
  0
LINE
  5
28D
330
6F
100
AcDbEntity
  8
0
 62
     0
100
AcDbLine
 10
143.2835993311969
 20
-127.3131622512639
 30
0.0
 11
116.8835993311969
 21
-127.3131622512643
 31
0.0
  0
LINE
  5
28E
330
6F
100
AcDbEntity
  8
0
 62
     0
100
AcDbLine
 10
95.28359933119688
 20
-127.3131622512644
 30
0.0
 11
68.88359933119687
 21
-127.3131622512644
 31
0.0
  0
LINE
  5
28F
330
6F
100
AcDbEntity
  8
0
 62
     0
100
AcDbLine
 10
47.2835993311969
 20
-127.3131622512644
 30
0.0
 11
20.88359933119688
 21
-127.3131622512644
 31
0.0
  0
LINE
  5
2A7
330
6F
100
AcDbEntity
  8
0
 62
     0
100
AcDbLine
 10
1.547509331196851
 20
-97.74316225126423
 30
0.0
 11
1.547509331196851
 21
-71.34316225126444
 31
0.0
  0
LINE
  5
327
330
6F
100
AcDbEntity
  8
0
 62
     0
100
AcDbLine
 10
20.88359933119697
 20
-41.7637022512644
 30
0.0
 11
47.28359933119697
 21
-41.7637022512644
 31
0.0
  0
LINE
  5
328
330
6F
100
AcDbEntity
  8
0
 62
     0
100
AcDbLine
 10
68.88359933119699
 20
-41.76370225126452
 30
0.0
 11
95.28359933119698
 21
-41.76370225126475
 31
0.0
  0
LINE
  5
329
330
6F
100
AcDbEntity
  8
0
 62
     0
100
AcDbLine
 10
116.8835993311969
 20
-41.76370225126452
 30
0.0
 11
143.2835993311969
 21
-41.76370225126452
 31
0.0
  0
LINE
  5
32A
330
6F
100
AcDbEntity
  8
0
 62
     0
100
AcDbLine
 10
164.8835993311969
 20
-41.76370225126453
 30
0.0
 11
191.2835993311969
 21
-41.76370225126453
 31
0.0
  0
LINE
  5
32B
330
6F
100
AcDbEntity
  8
0
 62
     0
100
AcDbLine
 10
212.8835993311969
 20
-41.76370225126453
 30
0.0
 11
239.283599331197
 21
-41.76370225126476
 31
0.0
  0
LINE
  5
35B
330
6F
100
AcDbEntity
  8
0
 62
     0
100
AcDbLine
 10
258.6035993311971
 20
-71.34316225126422
 30
0.0
 11
258.603599331197
 21
-97.74316225126424
 31
0.0
  0
ARC
  5
376
330
6F
100
AcDbEntity
  8
0
  6
Continuous
100
AcDbCircle
 10
239.283599331197
 20
-43.76370225126453
 30
0.0
 40
2.0
100
AcDbArc
 50
0.0
 51
90.0
  0
ARC
  5
377
330
6F
100
AcDbEntity
  8
0
  6
Continuous
100
AcDbCircle
 10
212.8835993311969
 20
-43.76370225126454
 30
0.0
 40
2.0
100
AcDbArc
 50
90.0
 51
180.0
  0
ARC
  5
378
330
6F
100
AcDbEntity
  8
0
  6
Continuous
100
AcDbCircle
 10
191.2835993311969
 20
-43.76370225126453
 30
0.0
 40
2.0
100
AcDbArc
 50
0.0
 51
90.0
  0
ARC
  5
379
330
6F
100
AcDbEntity
  8
0
  6
Continuous
100
AcDbCircle
 10
164.8835993311969
 20
-43.76370225126453
 30
0.0
 40
2.0
100
AcDbArc
 50
90.0
 51
180.0
  0
ARC
  5
37A
330
6F
100
AcDbEntity
  8
0
  6
Continuous
100
AcDbCircle
 10
143.2835993311969
 20
-43.76370225126453
 30
0.0
 40
2.0
100
AcDbArc
 50
0.0
 51
90.0
  0
ARC
  5
37B
330
6F
100
AcDbEntity
  8
0
  6
Continuous
100
AcDbCircle
 10
116.8835993311969
 20
-43.76370225126453
 30
0.0
 40
2.0
100
AcDbArc
 50
90.0
 51
180.0
  0
ARC
  5
37C
330
6F
100
AcDbEntity
  8
0
  6
Continuous
100
AcDbCircle
 10
95.28359933119697
 20
-43.76370225126453
 30
0.0
 40
2.0
100
AcDbArc
 50
0.0
 51
90.0
  0
ARC
  5
37D
330
6F
100
AcDbEntity
  8
0
  6
Continuous
100
AcDbCircle
 10
68.88359933119698
 20
-43.76370225126453
 30
0.0
 40
2.0
100
AcDbArc
 50
89.9999999999998
 51
180.0
  0
ARC
  5
37E
330
6F
100
AcDbEntity
  8
0
  6
Continuous
100
AcDbCircle
 10
47.28359933119697
 20
-43.7637022512644
 30
0.0
 40
2.0
100
AcDbArc
 50
0.0
 51
90.00000000000019
  0
ARC
  5
37F
330
6F
100
AcDbEntity
  8
0
  6
Continuous
100
AcDbCircle
 10
20.88359933119697
 20
-43.76370225126441
 30
0.0
 40
2.0
100
AcDbArc
 50
90.00000000000019
 51
180.0
  0
ARC
  5
380
330
6F
100
AcDbEntity
  8
0
  6
Continuous
100
AcDbCircle
 10
3.547509331196851
 20
-71.34316225126444
 30
0.0
 40
2.0
100
AcDbArc
 50
90.0
 51
180.0
  0
ARC
  5
381
330
6F
100
AcDbEntity
  8
0
  6
Continuous
100
AcDbCircle
 10
3.547509331196852
 20
-97.74316225126423
 30
0.0
 40
2.0
100
AcDbArc
 50
180.0
 51
270.0
  0
ARC
  5
382
330
6F
100
AcDbEntity
  8
0
  6
Continuous
100
AcDbCircle
 10
20.88359933119688
 20
-125.3131622512644
 30
0.0
 40
2.0
100
AcDbArc
 50
180.0
 51
269.9999999999999
  0
ARC
  5
383
330
6F
100
AcDbEntity
  8
0
  6
Continuous
100
AcDbCircle
 10
47.2835993311969
 20
-125.3131622512644
 30
0.0
 40
2.0
100
AcDbArc
 50
269.9999999999998
 51
0.0
  0
ARC
  5
384
330
6F
100
AcDbEntity
  8
0
  6
Continuous
100
AcDbCircle
 10
68.88359933119687
 20
-125.3131622512644
 30
0.0
 40
2.0
100
AcDbArc
 50
180.0
 51
270.0
  0
ARC
  5
385
330
6F
100
AcDbEntity
  8
0
  6
Continuous
100
AcDbCircle
 10
95.28359933119688
 20
-125.3131622512644
 30
0.0
 40
2.0
100
AcDbArc
 50
270.0
 51
0.0
  0
ARC
  5
386
330
6F
100
AcDbEntity
  8
0
  6
Continuous
100
AcDbCircle
 10
116.8835993311969
 20
-125.3131622512644
 30
0.0
 40
2.0
100
AcDbArc
 50
180.0
 51
270.0
  0
ARC
  5
387
330
6F
100
AcDbEntity
  8
0
  6
Continuous
100
AcDbCircle
 10
143.2835993311968
 20
-125.3131622512644
 30
0.0
 40
2.0
100
AcDbArc
 50
270.0
 51
0.0
  0
ARC
  5
388
330
6F
100
AcDbEntity
  8
0
  6
Continuous
100
AcDbCircle
 10
164.8835993311969
 20
-125.3131622512644
 30
0.0
 40
2.0
100
AcDbArc
 50
180.0
 51
270.0
  0
ARC
  5
389
330
6F
100
AcDbEntity
  8
0
  6
Continuous
100
AcDbCircle
 10
191.2835993311969
 20
-125.3131622512644
 30
0.0
 40
2.0
100
AcDbArc
 50
270.0
 51
0.0
  0
ARC
  5
38A
330
6F
100
AcDbEntity
  8
0
  6
Continuous
100
AcDbCircle
 10
212.8835993311969
 20
-125.3131622512644
 30
0.0
 40
2.0
100
AcDbArc
 50
180.0
 51
270.0
  0
ARC
  5
38B
330
6F
100
AcDbEntity
  8
0
  6
Continuous
100
AcDbCircle
 10
239.2835993311969
 20
-125.3131622512644
 30
0.0
 40
2.0
100
AcDbArc
 50
270.0
 51
0.0
  0
ARC
  5
38C
330
6F
100
AcDbEntity
  8
0
  6
Continuous
100
AcDbCircle
 10
256.6035993311971
 20
-97.74316225126423
 30
0.0
 40
2.0
100
AcDbArc
 50
270.0
 51
0.0
  0
ARC
  5
38D
330
6F
100
AcDbEntity
  8
0
  6
Continuous
100
AcDbCircle
 10
256.6035993311971
 20
-71.34316225126422
 30
0.0
 40
2.0
100
AcDbArc
 50
0.0
 51
90.0
  0
LINE
  5
396
330
6F
100
AcDbEntity
  8
0
 62
     0
100
AcDbLine
 10
5.54750933119685
 20
-120.3131622512643
 30
0.0
 11
5.547509331196851
 21
-99.74316225126422
 31
0.0
  0
LINE
  5
399
330
6F
100
AcDbEntity
  8
0
 62
     0
100
AcDbLine
 10
8.547509331196852
 20
-45.7637022512644
 30
0.0
 11
18.88359933119696
 21
-45.7637022512644
 31
0.0
  0
LINE
  5
39A
330
6F
100
AcDbEntity
  8
0
 62
     0
100
AcDbLine
 10
251.6035993311969
 20
-123.3131622512643
 30
0.0
 11
241.2835993311969
 21
-123.3131622512643
 31
0.0
  0
LINE
  5
39B
330
6F
100
AcDbEntity
  8
0
 62
     0
100
AcDbLine
 10
254.6035993311971
 20
-48.76370225126443
 30
0.0
 11
254.6035993311971
 21
-69.34316225126422
 31
0.0
  0
LINE
  5
74C
330
6F
100
AcDbEntity
  8
0
 62
     0
100
AcDbLine
 10
122.5953801637605
 20
195.1248178405902
 30
0.0
 11
122.5953801637605
 21
190.4243178405903
 31
0.0
  0
LINE
  5
74D
330
6F
100
AcDbEntity
  8
0
 62
     0
100
AcDbLine
 10
122.5953801637605
 20
190.4243178405903
 30
0.0
 11
82.97168016376053
 21
190.4243178405903
 31
0.0
  0
LINE
  5
74E
330
6F
100
AcDbEntity
  8
0
 62
     0
100
AcDbLine
 10
82.97168016376053
 20
190.4243178405903
 30
0.0
 11
82.97168016376053
 21
193.6545178405904
 31
0.0
  0
LINE
  5
74F
330
6F
100
AcDbEntity
  8
0
 62
     0
100
AcDbLine
 10
82.97168016376053
 20
193.6545178405904
 30
0.0
 11
76.22058016376053
 21
193.6545178405904
 31
0.0
  0
LINE
  5
750
330
6F
100
AcDbEntity
  8
0
 62
     0
100
AcDbLine
 10
76.22058016376053
 20
193.6545178405904
 30
0.0
 11
76.22058016376053
 21
190.4243178405903
 31
0.0
  0
LINE
  5
751
330
6F
100
AcDbEntity
  8
0
 62
     0
100
AcDbLine
 10
76.22058016376053
 20
190.4243178405903
 30
0.0
 11
75.39648016376054
 21
190.4243178405903
 31
0.0
  0
LINE
  5
752
330
6F
100
AcDbEntity
  8
0
 62
     0
100
AcDbLine
 10
75.39648016376054
 20
190.4243178405903
 30
0.0
 11
75.39648016376054
 21
187.6255578405902
 31
0.0
  0
LINE
  5
753
330
6F
100
AcDbEntity
  8
0
 62
     0
100
AcDbLine
 10
75.39648016376054
 20
187.6255578405902
 30
0.0
 11
76.22058016376053
 21
187.6255578405902
 31
0.0
  0
LINE
  5
754
330
6F
100
AcDbEntity
  8
0
 62
     0
100
AcDbLine
 10
76.22058016376053
 20
187.6255578405902
 30
0.0
 11
76.22058016376053
 21
181.3554878405901
 31
0.0
  0
LINE
  5
755
330
6F
100
AcDbEntity
  8
0
 62
     0
100
AcDbLine
 10
76.22058016376053
 20
181.3554878405901
 30
0.0
 11
77.94568016376053
 21
181.3554878405901
 31
0.0
  0
LINE
  5
756
330
6F
100
AcDbEntity
  8
0
 62
     0
100
AcDbLine
 10
77.94568016376053
 20
181.3554878405901
 30
0.0
 11
77.94568016376053
 21
180.1552178405902
 31
0.0
  0
LINE
  5
757
330
6F
100
AcDbEntity
  8
0
 62
     0
100
AcDbLine
 10
77.94568016376053
 20
180.1552178405902
 30
0.0
 11
81.24628016376055
 21
180.1552178405902
 31
0.0
  0
LINE
  5
758
330
6F
100
AcDbEntity
  8
0
 62
     0
100
AcDbLine
 10
81.24628016376055
 20
180.1552178405902
 30
0.0
 11
81.24628016376055
 21
181.3554878405901
 31
0.0
  0
LINE
  5
759
330
6F
100
AcDbEntity
  8
0
 62
     0
100
AcDbLine
 10
81.24628016376055
 20
181.3554878405901
 30
0.0
 11
82.97168016376053
 21
181.3554878405901
 31
0.0
  0
LINE
  5
75A
330
6F
100
AcDbEntity
  8
0
 62
     0
100
AcDbLine
 10
82.97168016376053
 20
181.3554878405901
 30
0.0
 11
82.97168016376053
 21
185.8244478405903
 31
0.0
  0
LINE
  5
75B
330
6F
100
AcDbEntity
  8
0
 62
     0
100
AcDbLine
 10
82.97168016376053
 20
185.8244478405903
 30
0.0
 11
122.5953801637605
 21
185.8244478405903
 31
0.0
  0
LINE
  5
75C
330
6F
100
AcDbEntity
  8
0
 62
     0
100
AcDbLine
 10
122.5953801637605
 20
185.8244478405903
 30
0.0
 11
122.5953801637605
 21
181.1253578405903
 31
0.0
  0
LINE
  5
75D
330
6F
100
AcDbEntity
  8
0
 62
     0
100
AcDbLine
 10
122.5953801637605
 20
181.1253578405903
 30
0.0
 11
136.5963801637605
 21
181.1253578405903
 31
0.0
  0
LINE
  5
75E
330
6F
100
AcDbEntity
  8
0
 62
     0
100
AcDbLine
 10
136.5963801637605
 20
181.1253578405903
 30
0.0
 11
136.5963801637605
 21
185.8244478405903
 31
0.0
  0
LINE
  5
75F
330
6F
100
AcDbEntity
  8
0
 62
     0
100
AcDbLine
 10
136.5963801637605
 20
185.8244478405903
 30
0.0
 11
176.2223801637605
 21
185.8244478405903
 31
0.0
  0
LINE
  5
760
330
6F
100
AcDbEntity
  8
0
 62
     0
100
AcDbLine
 10
176.2223801637605
 20
185.8244478405903
 30
0.0
 11
176.2223801637605
 21
181.3554878405901
 31
0.0
  0
LINE
  5
761
330
6F
100
AcDbEntity
  8
0
 62
     0
100
AcDbLine
 10
176.2223801637605
 20
181.3554878405901
 30
0.0
 11
177.9453801637605
 21
181.3554878405901
 31
0.0
  0
LINE
  5
762
330
6F
100
AcDbEntity
  8
0
 62
     0
100
AcDbLine
 10
177.9453801637605
 20
181.3554878405901
 30
0.0
 11
177.9453801637605
 21
180.1552178405902
 31
0.0
  0
LINE
  5
763
330
6F
100
AcDbEntity
  8
0
 62
     0
100
AcDbLine
 10
177.9453801637605
 20
180.1552178405902
 30
0.0
 11
181.2463801637606
 21
180.1552178405902
 31
0.0
  0
LINE
  5
764
330
6F
100
AcDbEntity
  8
0
 62
     0
100
AcDbLine
 10
181.2463801637606
 20
180.1552178405902
 30
0.0
 11
181.2463801637606
 21
181.3554878405901
 31
0.0
  0
LINE
  5
765
330
6F
100
AcDbEntity
  8
0
 62
     0
100
AcDbLine
 10
181.2463801637606
 20
181.3554878405901
 30
0.0
 11
182.9713801637606
 21
181.3554878405901
 31
0.0
  0
LINE
  5
766
330
6F
100
AcDbEntity
  8
0
 62
     0
100
AcDbLine
 10
182.9713801637606
 20
181.3554878405901
 30
0.0
 11
182.9713801637606
 21
187.6255578405902
 31
0.0
  0
LINE
  5
767
330
6F
100
AcDbEntity
  8
0
 62
     0
100
AcDbLine
 10
182.9713801637606
 20
187.6255578405902
 30
0.0
 11
183.7953801637605
 21
187.6255578405902
 31
0.0
  0
LINE
  5
768
330
6F
100
AcDbEntity
  8
0
 62
     0
100
AcDbLine
 10
183.7953801637605
 20
187.6255578405902
 30
0.0
 11
183.7953801637605
 21
190.4243178405903
 31
0.0
  0
LINE
  5
769
330
6F
100
AcDbEntity
  8
0
 62
     0
100
AcDbLine
 10
183.7953801637605
 20
190.4243178405903
 30
0.0
 11
182.9713801637606
 21
190.4243178405903
 31
0.0
  0
LINE
  5
76A
330
6F
100
AcDbEntity
  8
0
 62
     0
100
AcDbLine
 10
182.9713801637606
 20
190.4243178405903
 30
0.0
 11
182.9713801637606
 21
193.6545178405904
 31
0.0
  0
LINE
  5
76B
330
6F
100
AcDbEntity
  8
0
 62
     0
100
AcDbLine
 10
182.9713801637606
 20
193.6545178405904
 30
0.0
 11
176.2223801637605
 21
193.6545178405904
 31
0.0
  0
LINE
  5
76C
330
6F
100
AcDbEntity
  8
0
 62
     0
100
AcDbLine
 10
176.2223801637605
 20
193.6545178405904
 30
0.0
 11
176.2223801637605
 21
190.4243178405903
 31
0.0
  0
LINE
  5
76D
330
6F
100
AcDbEntity
  8
0
 62
     0
100
AcDbLine
 10
176.2223801637605
 20
190.4243178405903
 30
0.0
 11
136.5963801637605
 21
190.4243178405903
 31
0.0
  0
LINE
  5
76E
330
6F
100
AcDbEntity
  8
0
 62
     0
100
AcDbLine
 10
136.5963801637605
 20
190.4243178405903
 30
0.0
 11
136.5963801637605
 21
195.1248178405902
 31
0.0
  0
LINE
  5
76F
330
6F
100
AcDbEntity
  8
0
 62
     0
100
AcDbLine
 10
136.5963801637605
 20
195.1248178405902
 30
0.0
 11
122.5953801637605
 21
195.1248178405902
 31
0.0
  0
LINE
  5
770
330
6F
100
AcDbEntity
  8
0
 62
     0
100
AcDbLine
 10
29.72828016376054
 20
195.1248178405902
 30
0.0
 11
43.72768016376054
 21
195.1248178405902
 31
0.0
  0
LINE
  5
771
330
6F
100
AcDbEntity
  8
0
 62
     0
100
AcDbLine
 10
43.72768016376054
 20
195.1248178405902
 30
0.0
 11
43.72768016376054
 21
181.1253578405903
 31
0.0
  0
LINE
  5
772
330
6F
100
AcDbEntity
  8
0
 62
     0
100
AcDbLine
 10
43.72768016376054
 20
181.1253578405903
 30
0.0
 11
29.72828016376054
 21
181.1253578405903
 31
0.0
  0
LINE
  5
773
330
6F
100
AcDbEntity
  8
0
 62
     0
100
AcDbLine
 10
251.9343801637606
 20
178.1253578405904
 30
0.0
 11
240.6143801637606
 21
178.1253578405904
 31
0.0
  0
LINE
  5
774
330
6F
100
AcDbEntity
  8
0
 62
     0
100
AcDbLine
 10
210.6143801637606
 20
178.1253578405904
 30
0.0
 11
192.6143801637606
 21
178.1253578405904
 31
0.0
  0
LINE
  5
775
330
6F
100
AcDbEntity
  8
0
 62
     0
100
AcDbLine
 10
162.6143801637606
 20
178.1253578405904
 30
0.0
 11
144.6143801637606
 21
178.1253578405904
 31
0.0
  0
LINE
  5
776
330
6F
100
AcDbEntity
  8
0
 62
     0
100
AcDbLine
 10
114.6143801637606
 20
178.1253578405904
 30
0.0
 11
96.61438016376058
 21
178.1253578405904
 31
0.0
  0
LINE
  5
777
330
6F
100
AcDbEntity
  8
0
 62
     0
100
AcDbLine
 10
66.61438016376056
 20
178.1253578405904
 30
0.0
 11
48.61438016376059
 21
178.1253578405904
 31
0.0
  0
LINE
  5
778
330
6F
100
AcDbEntity
  8
0
 62
     0
100
AcDbLine
 10
18.61438016376058
 20
178.1253578405904
 30
0.0
 11
7.278290163760544
 21
178.1253578405904
 31
0.0
  0
LINE
  5
779
330
6F
100
AcDbEntity
  8
0
 62
     0
100
AcDbLine
 10
238.6143801637606
 20
174.1253578405904
 30
0.0
 11
212.6143801637605
 21
174.1253578405902
 31
0.0
  0
LINE
  5
77A
330
6F
100
AcDbEntity
  8
0
 62
     0
100
AcDbLine
 10
190.6143801637606
 20
174.1253578405902
 30
0.0
 11
164.6143801637606
 21
174.1253578405902
 31
0.0
  0
LINE
  5
77B
330
6F
100
AcDbEntity
  8
0
 62
     0
100
AcDbLine
 10
142.6143801637605
 20
174.1253578405907
 30
0.0
 11
116.6143801637606
 21
174.1253578405904
 31
0.0
  0
LINE
  5
77C
330
6F
100
AcDbEntity
  8
0
 62
     0
100
AcDbLine
 10
94.61438016376055
 20
174.1253578405902
 30
0.0
 11
68.61438016376059
 21
174.1253578405902
 31
0.0
  0
LINE
  5
77D
330
6F
100
AcDbEntity
  8
0
 62
     0
100
AcDbLine
 10
46.61438016376057
 20
174.1253578405902
 30
0.0
 11
20.61438016376057
 21
174.1253578405902
 31
0.0
  0
LINE
  5
77E
330
6F
100
AcDbEntity
  8
0
 62
     0
100
AcDbLine
 10
255.9343801637606
 20
201.6953578405904
 30
0.0
 11
253.9343801637607
 21
201.6953578405904
 31
0.0
  0
LINE
  5
77F
330
6F
100
AcDbEntity
  8
0
 62
     0
100
AcDbLine
 10
5.278290163760544
 20
201.6953578405904
 30
0.0
 11
3.278290163760544
 21
201.6953578405904
 31
0.0
  0
LINE
  5
780
330
6F
100
AcDbEntity
  8
0
 62
     0
100
AcDbLine
 10
255.9343801637606
 20
231.6953578405904
 30
0.0
 11
253.9343801637606
 21
231.6953578405904
 31
0.0
  0
LINE
  5
781
330
6F
100
AcDbEntity
  8
0
 62
     0
100
AcDbLine
 10
5.278290163760544
 20
231.6953578405902
 30
0.0
 11
3.278290163760544
 21
231.6953578405902
 31
0.0
  0
LINE
  5
782
330
6F
100
AcDbEntity
  8
0
 62
     0
100
AcDbLine
 10
29.72828016376054
 20
181.1253578405903
 30
0.0
 11
29.72828016376054
 21
195.1248178405902
 31
0.0
  0
LINE
  5
783
330
6F
100
AcDbEntity
  8
0
 62
     0
100
AcDbLine
 10
51.15958016376055
 20
195.1248178405902
 30
0.0
 11
65.15888016376054
 21
195.1248178405902
 31
0.0
  0
LINE
  5
784
330
6F
100
AcDbEntity
  8
0
 62
     0
100
AcDbLine
 10
65.15888016376054
 20
195.1248178405902
 30
0.0
 11
65.15888016376054
 21
181.1253578405903
 31
0.0
  0
LINE
  5
785
330
6F
100
AcDbEntity
  8
0
 62
     0
100
AcDbLine
 10
65.15888016376054
 20
181.1253578405903
 30
0.0
 11
51.15958016376055
 21
181.1253578405903
 31
0.0
  0
LINE
  5
786
330
6F
100
AcDbEntity
  8
0
 62
     0
100
AcDbLine
 10
51.15958016376055
 20
181.1253578405903
 30
0.0
 11
51.15958016376055
 21
195.1248178405902
 31
0.0
  0
LINE
  5
787
330
6F
100
AcDbEntity
  8
0
 62
     0
100
AcDbLine
 10
194.0343801637604
 20
195.1248178405902
 30
0.0
 11
208.0343801637605
 21
195.1248178405902
 31
0.0
  0
LINE
  5
788
330
6F
100
AcDbEntity
  8
0
 62
     0
100
AcDbLine
 10
208.0343801637605
 20
195.1248178405902
 30
0.0
 11
208.0343801637605
 21
181.1253578405903
 31
0.0
  0
LINE
  5
789
330
6F
100
AcDbEntity
  8
0
 62
     0
100
AcDbLine
 10
208.0343801637605
 20
181.1253578405903
 30
0.0
 11
194.0343801637604
 21
181.1253578405903
 31
0.0
  0
LINE
  5
78A
330
6F
100
AcDbEntity
  8
0
 62
     0
100
AcDbLine
 10
194.0343801637604
 20
181.1253578405903
 30
0.0
 11
194.0343801637604
 21
195.1248178405902
 31
0.0
  0
LINE
  5
78B
330
6F
100
AcDbEntity
  8
0
 62
     0
100
AcDbLine
 10
215.4643801637605
 20
195.1248178405902
 30
0.0
 11
229.4653801637605
 21
195.1248178405902
 31
0.0
  0
LINE
  5
78C
330
6F
100
AcDbEntity
  8
0
 62
     0
100
AcDbLine
 10
229.4653801637605
 20
195.1248178405902
 30
0.0
 11
229.4653801637605
 21
181.1253578405903
 31
0.0
  0
LINE
  5
78D
330
6F
100
AcDbEntity
  8
0
 62
     0
100
AcDbLine
 10
229.4653801637605
 20
181.1253578405903
 30
0.0
 11
215.4643801637605
 21
181.1253578405903
 31
0.0
  0
LINE
  5
78E
330
6F
100
AcDbEntity
  8
0
 62
     0
100
AcDbLine
 10
215.4643801637605
 20
181.1253578405903
 30
0.0
 11
215.4643801637605
 21
195.1248178405902
 31
0.0
  0
LINE
  5
78F
330
6F
100
AcDbEntity
  8
0
 62
     0
100
AcDbLine
 10
10.67829016376054
 20
214.1747178405903
 30
0.0
 11
24.67778016376055
 21
214.1747178405903
 31
0.0
  0
LINE
  5
790
330
6F
100
AcDbEntity
  8
0
 62
     0
100
AcDbLine
 10
24.67778016376055
 20
214.1747178405903
 30
0.0
 11
24.67778016376055
 21
200.1753178405903
 31
0.0
  0
LINE
  5
791
330
6F
100
AcDbEntity
  8
0
 62
     0
100
AcDbLine
 10
24.67778016376055
 20
200.1753178405903
 30
0.0
 11
10.67829016376054
 21
200.1753178405903
 31
0.0
  0
LINE
  5
792
330
6F
100
AcDbEntity
  8
0
 62
     0
100
AcDbLine
 10
10.67829016376054
 20
200.1753178405903
 30
0.0
 11
10.67829016376054
 21
214.1747178405903
 31
0.0
  0
LINE
  5
793
330
6F
100
AcDbEntity
  8
0
 62
     0
100
AcDbLine
 10
5.278290163760544
 20
180.1253578405903
 30
0.0
 11
5.278290163760544
 21
201.6953578405904
 31
0.0
  0
LINE
  5
794
330
6F
100
AcDbEntity
  8
0
 62
     0
100
AcDbLine
 10
5.278290163760544
 20
231.6953578405902
 30
0.0
 11
5.278290163760544
 21
253.2748178405902
 31
0.0
  0
LINE
  5
795
330
6F
100
AcDbEntity
  8
0
 62
     0
100
AcDbLine
 10
1.278290163760544
 20
203.6953578405902
 30
0.0
 11
1.278290163760544
 21
229.6953578405902
 31
0.0
  0
LINE
  5
796
330
6F
100
AcDbEntity
  8
0
 62
     0
100
AcDbLine
 10
32.10958016376055
 20
214.1747178405903
 30
0.0
 11
46.10888016376054
 21
214.1747178405903
 31
0.0
  0
LINE
  5
797
330
6F
100
AcDbEntity
  8
0
 62
     0
100
AcDbLine
 10
46.10888016376054
 20
214.1747178405903
 30
0.0
 11
46.10888016376054
 21
200.1753178405903
 31
0.0
  0
LINE
  5
798
330
6F
100
AcDbEntity
  8
0
 62
     0
100
AcDbLine
 10
46.10888016376054
 20
200.1753178405903
 30
0.0
 11
32.10958016376055
 21
200.1753178405903
 31
0.0
  0
LINE
  5
799
330
6F
100
AcDbEntity
  8
0
 62
     0
100
AcDbLine
 10
32.10958016376055
 20
200.1753178405903
 30
0.0
 11
32.10958016376055
 21
214.1747178405903
 31
0.0
  0
LINE
  5
79A
330
6F
100
AcDbEntity
  8
0
 62
     0
100
AcDbLine
 10
51.15958016376055
 20
214.1747178405903
 30
0.0
 11
65.15888016376054
 21
214.1747178405903
 31
0.0
  0
LINE
  5
79B
330
6F
100
AcDbEntity
  8
0
 62
     0
100
AcDbLine
 10
65.15888016376054
 20
214.1747178405903
 30
0.0
 11
65.15888016376054
 21
200.1753178405903
 31
0.0
  0
LINE
  5
79C
330
6F
100
AcDbEntity
  8
0
 62
     0
100
AcDbLine
 10
65.15888016376054
 20
200.1753178405903
 30
0.0
 11
51.15958016376055
 21
200.1753178405903
 31
0.0
  0
LINE
  5
79D
330
6F
100
AcDbEntity
  8
0
 62
     0
100
AcDbLine
 10
51.15958016376055
 20
200.1753178405903
 30
0.0
 11
51.15958016376055
 21
214.1747178405903
 31
0.0
  0
LINE
  5
79E
330
6F
100
AcDbEntity
  8
0
 62
     0
100
AcDbLine
 10
70.20958016376056
 20
214.1747178405903
 30
0.0
 11
84.20888016376053
 21
214.1747178405903
 31
0.0
  0
LINE
  5
79F
330
6F
100
AcDbEntity
  8
0
 62
     0
100
AcDbLine
 10
84.20888016376053
 20
214.1747178405903
 30
0.0
 11
84.20888016376053
 21
200.1753178405903
 31
0.0
  0
LINE
  5
7A0
330
6F
100
AcDbEntity
  8
0
 62
     0
100
AcDbLine
 10
84.20888016376053
 20
200.1753178405903
 30
0.0
 11
70.20958016376056
 21
200.1753178405903
 31
0.0
  0
LINE
  5
7A1
330
6F
100
AcDbEntity
  8
0
 62
     0
100
AcDbLine
 10
70.20958016376056
 20
200.1753178405903
 30
0.0
 11
70.20958016376056
 21
214.1747178405903
 31
0.0
  0
LINE
  5
7A2
330
6F
100
AcDbEntity
  8
0
 62
     0
100
AcDbLine
 10
89.25958016376055
 20
214.1747178405903
 30
0.0
 11
103.2588801637605
 21
214.1747178405903
 31
0.0
  0
LINE
  5
7A3
330
6F
100
AcDbEntity
  8
0
 62
     0
100
AcDbLine
 10
103.2588801637605
 20
214.1747178405903
 30
0.0
 11
103.2588801637605
 21
200.1753178405903
 31
0.0
  0
LINE
  5
7A4
330
6F
100
AcDbEntity
  8
0
 62
     0
100
AcDbLine
 10
103.2588801637605
 20
200.1753178405903
 30
0.0
 11
89.25958016376055
 21
200.1753178405903
 31
0.0
  0
LINE
  5
7A5
330
6F
100
AcDbEntity
  8
0
 62
     0
100
AcDbLine
 10
89.25958016376055
 20
200.1753178405903
 30
0.0
 11
89.25958016376055
 21
214.1747178405903
 31
0.0
  0
LINE
  5
7A6
330
6F
100
AcDbEntity
  8
0
 62
     0
100
AcDbLine
 10
108.3093801637605
 20
214.1747178405903
 30
0.0
 11
122.3093801637605
 21
214.1747178405903
 31
0.0
  0
LINE
  5
7A7
330
6F
100
AcDbEntity
  8
0
 62
     0
100
AcDbLine
 10
122.3093801637605
 20
214.1747178405903
 30
0.0
 11
122.3093801637605
 21
200.1753178405903
 31
0.0
  0
LINE
  5
7A8
330
6F
100
AcDbEntity
  8
0
 62
     0
100
AcDbLine
 10
122.3093801637605
 20
200.1753178405903
 30
0.0
 11
108.3093801637605
 21
200.1753178405903
 31
0.0
  0
LINE
  5
7A9
330
6F
100
AcDbEntity
  8
0
 62
     0
100
AcDbLine
 10
108.3093801637605
 20
200.1753178405903
 30
0.0
 11
108.3093801637605
 21
214.1747178405903
 31
0.0
  0
LINE
  5
7AA
330
6F
100
AcDbEntity
  8
0
 62
     0
100
AcDbLine
 10
127.3593801637605
 20
214.1747178405903
 30
0.0
 11
141.3593801637605
 21
214.1747178405903
 31
0.0
  0
LINE
  5
7AB
330
6F
100
AcDbEntity
  8
0
 62
     0
100
AcDbLine
 10
141.3593801637605
 20
214.1747178405903
 30
0.0
 11
141.3593801637605
 21
200.1753178405903
 31
0.0
  0
LINE
  5
7AC
330
6F
100
AcDbEntity
  8
0
 62
     0
100
AcDbLine
 10
141.3593801637605
 20
200.1753178405903
 30
0.0
 11
127.3593801637605
 21
200.1753178405903
 31
0.0
  0
LINE
  5
7AD
330
6F
100
AcDbEntity
  8
0
 62
     0
100
AcDbLine
 10
127.3593801637605
 20
200.1753178405903
 30
0.0
 11
127.3593801637605
 21
214.1747178405903
 31
0.0
  0
LINE
  5
7AE
330
6F
100
AcDbEntity
  8
0
 62
     0
100
AcDbLine
 10
146.4093801637605
 20
214.1747178405903
 30
0.0
 11
160.4093801637605
 21
214.1747178405903
 31
0.0
  0
LINE
  5
7AF
330
6F
100
AcDbEntity
  8
0
 62
     0
100
AcDbLine
 10
160.4093801637605
 20
214.1747178405903
 30
0.0
 11
160.4093801637605
 21
200.1753178405903
 31
0.0
  0
LINE
  5
7B0
330
6F
100
AcDbEntity
  8
0
 62
     0
100
AcDbLine
 10
160.4093801637605
 20
200.1753178405903
 30
0.0
 11
146.4093801637605
 21
200.1753178405903
 31
0.0
  0
LINE
  5
7B1
330
6F
100
AcDbEntity
  8
0
 62
     0
100
AcDbLine
 10
146.4093801637605
 20
200.1753178405903
 30
0.0
 11
146.4093801637605
 21
214.1747178405903
 31
0.0
  0
LINE
  5
7B2
330
6F
100
AcDbEntity
  8
0
 62
     0
100
AcDbLine
 10
165.4593801637606
 20
214.1747178405903
 30
0.0
 11
179.4593801637606
 21
214.1747178405903
 31
0.0
  0
LINE
  5
7B3
330
6F
100
AcDbEntity
  8
0
 62
     0
100
AcDbLine
 10
179.4593801637606
 20
214.1747178405903
 30
0.0
 11
179.4593801637606
 21
200.1753178405903
 31
0.0
  0
LINE
  5
7B4
330
6F
100
AcDbEntity
  8
0
 62
     0
100
AcDbLine
 10
179.4593801637606
 20
200.1753178405903
 30
0.0
 11
165.4593801637606
 21
200.1753178405903
 31
0.0
  0
LINE
  5
7B5
330
6F
100
AcDbEntity
  8
0
 62
     0
100
AcDbLine
 10
165.4593801637606
 20
200.1753178405903
 30
0.0
 11
165.4593801637606
 21
214.1747178405903
 31
0.0
  0
LINE
  5
7B6
330
6F
100
AcDbEntity
  8
0
 62
     0
100
AcDbLine
 10
184.5093801637604
 20
214.1747178405903
 30
0.0
 11
198.5093801637605
 21
214.1747178405903
 31
0.0
  0
LINE
  5
7B7
330
6F
100
AcDbEntity
  8
0
 62
     0
100
AcDbLine
 10
198.5093801637605
 20
214.1747178405903
 30
0.0
 11
198.5093801637605
 21
200.1753178405903
 31
0.0
  0
LINE
  5
7B8
330
6F
100
AcDbEntity
  8
0
 62
     0
100
AcDbLine
 10
198.5093801637605
 20
200.1753178405903
 30
0.0
 11
184.5093801637604
 21
200.1753178405903
 31
0.0
  0
LINE
  5
7B9
330
6F
100
AcDbEntity
  8
0
 62
     0
100
AcDbLine
 10
184.5093801637604
 20
200.1753178405903
 30
0.0
 11
184.5093801637604
 21
214.1747178405903
 31
0.0
  0
LINE
  5
7BA
330
6F
100
AcDbEntity
  8
0
 62
     0
100
AcDbLine
 10
203.5593801637605
 20
214.1747178405903
 30
0.0
 11
217.5593801637606
 21
214.1747178405903
 31
0.0
  0
LINE
  5
7BB
330
6F
100
AcDbEntity
  8
0
 62
     0
100
AcDbLine
 10
217.5593801637606
 20
214.1747178405903
 30
0.0
 11
217.5593801637606
 21
200.1753178405903
 31
0.0
  0
LINE
  5
7BC
330
6F
100
AcDbEntity
  8
0
 62
     0
100
AcDbLine
 10
217.5593801637606
 20
200.1753178405903
 30
0.0
 11
203.5593801637605
 21
200.1753178405903
 31
0.0
  0
LINE
  5
7BD
330
6F
100
AcDbEntity
  8
0
 62
     0
100
AcDbLine
 10
203.5593801637605
 20
200.1753178405903
 30
0.0
 11
203.5593801637605
 21
214.1747178405903
 31
0.0
  0
LINE
  5
7BE
330
6F
100
AcDbEntity
  8
0
 62
     0
100
AcDbLine
 10
229.7533801637606
 20
214.1747178405903
 30
0.0
 11
243.7523801637606
 21
214.1747178405903
 31
0.0
  0
LINE
  5
7BF
330
6F
100
AcDbEntity
  8
0
 62
     0
100
AcDbLine
 10
243.7523801637606
 20
214.1747178405903
 30
0.0
 11
243.7523801637606
 21
200.1753178405903
 31
0.0
  0
LINE
  5
7C0
330
6F
100
AcDbEntity
  8
0
 62
     0
100
AcDbLine
 10
243.7523801637606
 20
200.1753178405903
 30
0.0
 11
229.7533801637606
 21
200.1753178405903
 31
0.0
  0
LINE
  5
7C1
330
6F
100
AcDbEntity
  8
0
 62
     0
100
AcDbLine
 10
229.7533801637606
 20
200.1753178405903
 30
0.0
 11
229.7533801637606
 21
214.1747178405903
 31
0.0
  0
LINE
  5
7C2
330
6F
100
AcDbEntity
  8
0
 62
     0
100
AcDbLine
 10
224.9893801637606
 20
233.2248178405904
 30
0.0
 11
224.9893801637606
 21
228.5243178405902
 31
0.0
  0
LINE
  5
7C3
330
6F
100
AcDbEntity
  8
0
 62
     0
100
AcDbLine
 10
224.9893801637606
 20
228.5243178405902
 30
0.0
 11
223.4653801637605
 21
228.5243178405902
 31
0.0
  0
LINE
  5
7C4
330
6F
100
AcDbEntity
  8
0
 62
     0
100
AcDbLine
 10
223.4653801637605
 20
228.5243178405902
 30
0.0
 11
223.4653801637605
 21
231.7544178405902
 31
0.0
  0
LINE
  5
7C5
330
6F
100
AcDbEntity
  8
0
 62
     0
100
AcDbLine
 10
223.4653801637605
 20
231.7544178405902
 30
0.0
 11
216.7143801637606
 21
231.7544178405902
 31
0.0
  0
LINE
  5
7C6
330
6F
100
AcDbEntity
  8
0
 62
     0
100
AcDbLine
 10
216.7143801637606
 20
231.7544178405902
 30
0.0
 11
216.7143801637606
 21
228.5243178405902
 31
0.0
  0
LINE
  5
7C7
330
6F
100
AcDbEntity
  8
0
 62
     0
100
AcDbLine
 10
216.7143801637606
 20
228.5243178405902
 30
0.0
 11
215.8903801637606
 21
228.5243178405902
 31
0.0
  0
LINE
  5
7C8
330
6F
100
AcDbEntity
  8
0
 62
     0
100
AcDbLine
 10
215.8903801637606
 20
228.5243178405902
 30
0.0
 11
215.8903801637606
 21
225.7254178405903
 31
0.0
  0
LINE
  5
7C9
330
6F
100
AcDbEntity
  8
0
 62
     0
100
AcDbLine
 10
215.8903801637606
 20
225.7254178405903
 30
0.0
 11
216.7143801637606
 21
225.7254178405903
 31
0.0
  0
LINE
  5
7CA
330
6F
100
AcDbEntity
  8
0
 62
     0
100
AcDbLine
 10
216.7143801637606
 20
225.7254178405903
 30
0.0
 11
216.7143801637606
 21
219.4555178405902
 31
0.0
  0
LINE
  5
7CB
330
6F
100
AcDbEntity
  8
0
 62
     0
100
AcDbLine
 10
216.7143801637606
 20
219.4555178405902
 30
0.0
 11
218.4393801637606
 21
219.4555178405902
 31
0.0
  0
LINE
  5
7CC
330
6F
100
AcDbEntity
  8
0
 62
     0
100
AcDbLine
 10
218.4393801637606
 20
219.4555178405902
 30
0.0
 11
218.4393801637606
 21
218.2553178405903
 31
0.0
  0
LINE
  5
7CD
330
6F
100
AcDbEntity
  8
0
 62
     0
100
AcDbLine
 10
218.4393801637606
 20
218.2553178405903
 30
0.0
 11
221.7403801637606
 21
218.2553178405903
 31
0.0
  0
LINE
  5
7CE
330
6F
100
AcDbEntity
  8
0
 62
     0
100
AcDbLine
 10
221.7403801637606
 20
218.2553178405903
 30
0.0
 11
221.7403801637606
 21
219.4555178405902
 31
0.0
  0
LINE
  5
7CF
330
6F
100
AcDbEntity
  8
0
 62
     0
100
AcDbLine
 10
221.7403801637606
 20
219.4555178405902
 30
0.0
 11
223.4653801637605
 21
219.4555178405902
 31
0.0
  0
LINE
  5
7D0
330
6F
100
AcDbEntity
  8
0
 62
     0
100
AcDbLine
 10
223.4653801637605
 20
219.4555178405902
 30
0.0
 11
223.4653801637605
 21
223.9245178405904
 31
0.0
  0
LINE
  5
7D1
330
6F
100
AcDbEntity
  8
0
 62
     0
100
AcDbLine
 10
223.4653801637605
 20
223.9245178405904
 30
0.0
 11
224.9893801637606
 21
223.9245178405904
 31
0.0
  0
LINE
  5
7D2
330
6F
100
AcDbEntity
  8
0
 62
     0
100
AcDbLine
 10
224.9893801637606
 20
223.9245178405904
 30
0.0
 11
224.9893801637606
 21
219.2255178405902
 31
0.0
  0
LINE
  5
7D3
330
6F
100
AcDbEntity
  8
0
 62
     0
100
AcDbLine
 10
224.9893801637606
 20
219.2255178405902
 30
0.0
 11
238.9903801637606
 21
219.2255178405902
 31
0.0
  0
LINE
  5
7D4
330
6F
100
AcDbEntity
  8
0
 62
     0
100
AcDbLine
 10
238.9903801637606
 20
219.2255178405902
 30
0.0
 11
238.9903801637606
 21
223.9245178405904
 31
0.0
  0
LINE
  5
7D5
330
6F
100
AcDbEntity
  8
0
 62
     0
100
AcDbLine
 10
238.9903801637606
 20
223.9245178405904
 30
0.0
 11
240.5143801637606
 21
223.9245178405904
 31
0.0
  0
LINE
  5
7D6
330
6F
100
AcDbEntity
  8
0
 62
     0
100
AcDbLine
 10
240.5143801637606
 20
223.9245178405904
 30
0.0
 11
240.5143801637606
 21
219.4555178405902
 31
0.0
  0
LINE
  5
7D7
330
6F
100
AcDbEntity
  8
0
 62
     0
100
AcDbLine
 10
240.5143801637606
 20
219.4555178405902
 30
0.0
 11
242.2393801637606
 21
219.4555178405902
 31
0.0
  0
LINE
  5
7D8
330
6F
100
AcDbEntity
  8
0
 62
     0
100
AcDbLine
 10
242.2393801637606
 20
219.4555178405902
 30
0.0
 11
242.2393801637606
 21
218.2553178405903
 31
0.0
  0
LINE
  5
7D9
330
6F
100
AcDbEntity
  8
0
 62
     0
100
AcDbLine
 10
242.2393801637606
 20
218.2553178405903
 30
0.0
 11
245.5403801637606
 21
218.2553178405903
 31
0.0
  0
LINE
  5
7DA
330
6F
100
AcDbEntity
  8
0
 62
     0
100
AcDbLine
 10
245.5403801637606
 20
218.2553178405903
 30
0.0
 11
245.5403801637606
 21
219.4555178405902
 31
0.0
  0
LINE
  5
7DB
330
6F
100
AcDbEntity
  8
0
 62
     0
100
AcDbLine
 10
245.5403801637606
 20
219.4555178405902
 30
0.0
 11
247.2653801637605
 21
219.4555178405902
 31
0.0
  0
LINE
  5
7DC
330
6F
100
AcDbEntity
  8
0
 62
     0
100
AcDbLine
 10
247.2653801637605
 20
219.4555178405902
 30
0.0
 11
247.2653801637605
 21
225.7254178405903
 31
0.0
  0
LINE
  5
7DD
330
6F
100
AcDbEntity
  8
0
 62
     0
100
AcDbLine
 10
247.2653801637605
 20
225.7254178405903
 30
0.0
 11
248.0893801637606
 21
225.7254178405903
 31
0.0
  0
LINE
  5
7DE
330
6F
100
AcDbEntity
  8
0
 62
     0
100
AcDbLine
 10
248.0893801637606
 20
225.7254178405903
 30
0.0
 11
248.0893801637606
 21
228.5243178405902
 31
0.0
  0
LINE
  5
7DF
330
6F
100
AcDbEntity
  8
0
 62
     0
100
AcDbLine
 10
248.0893801637606
 20
228.5243178405902
 30
0.0
 11
247.2653801637605
 21
228.5243178405902
 31
0.0
  0
LINE
  5
7E0
330
6F
100
AcDbEntity
  8
0
 62
     0
100
AcDbLine
 10
247.2653801637605
 20
228.5243178405902
 30
0.0
 11
247.2653801637605
 21
231.7544178405902
 31
0.0
  0
LINE
  5
7E1
330
6F
100
AcDbEntity
  8
0
 62
     0
100
AcDbLine
 10
247.2653801637605
 20
231.7544178405902
 30
0.0
 11
240.5143801637606
 21
231.7544178405902
 31
0.0
  0
LINE
  5
7E2
330
6F
100
AcDbEntity
  8
0
 62
     0
100
AcDbLine
 10
240.5143801637606
 20
231.7544178405902
 30
0.0
 11
240.5143801637606
 21
228.5243178405902
 31
0.0
  0
LINE
  5
7E3
330
6F
100
AcDbEntity
  8
0
 62
     0
100
AcDbLine
 10
240.5143801637606
 20
228.5243178405902
 30
0.0
 11
238.9903801637606
 21
228.5243178405902
 31
0.0
  0
LINE
  5
7E4
330
6F
100
AcDbEntity
  8
0
 62
     0
100
AcDbLine
 10
238.9903801637606
 20
228.5243178405902
 30
0.0
 11
238.9903801637606
 21
233.2248178405904
 31
0.0
  0
LINE
  5
7E5
330
6F
100
AcDbEntity
  8
0
 62
     0
100
AcDbLine
 10
238.9903801637606
 20
233.2248178405904
 30
0.0
 11
224.9893801637606
 21
233.2248178405904
 31
0.0
  0
LINE
  5
7E6
330
6F
100
AcDbEntity
  8
0
 62
     0
100
AcDbLine
 10
15.43941016376055
 20
233.2248178405904
 30
0.0
 11
29.44028016376055
 21
233.2248178405904
 31
0.0
  0
LINE
  5
7E7
330
6F
100
AcDbEntity
  8
0
 62
     0
100
AcDbLine
 10
29.44028016376055
 20
233.2248178405904
 30
0.0
 11
29.44028016376055
 21
219.2255178405902
 31
0.0
  0
LINE
  5
7E8
330
6F
100
AcDbEntity
  8
0
 62
     0
100
AcDbLine
 10
29.44028016376055
 20
219.2255178405902
 30
0.0
 11
15.43941016376055
 21
219.2255178405902
 31
0.0
  0
LINE
  5
7E9
330
6F
100
AcDbEntity
  8
0
 62
     0
100
AcDbLine
 10
15.43941016376055
 20
219.2255178405902
 30
0.0
 11
15.43941016376055
 21
233.2248178405904
 31
0.0
  0
LINE
  5
7EA
330
6F
100
AcDbEntity
  8
0
 62
     0
100
AcDbLine
 10
41.63458016376054
 20
233.2248178405904
 30
0.0
 11
55.63388016376054
 21
233.2248178405904
 31
0.0
  0
LINE
  5
7EB
330
6F
100
AcDbEntity
  8
0
 62
     0
100
AcDbLine
 10
55.63388016376054
 20
233.2248178405904
 30
0.0
 11
55.63388016376054
 21
219.2255178405902
 31
0.0
  0
LINE
  5
7EC
330
6F
100
AcDbEntity
  8
0
 62
     0
100
AcDbLine
 10
55.63388016376054
 20
219.2255178405902
 30
0.0
 11
41.63458016376054
 21
219.2255178405902
 31
0.0
  0
LINE
  5
7ED
330
6F
100
AcDbEntity
  8
0
 62
     0
100
AcDbLine
 10
41.63458016376054
 20
219.2255178405902
 30
0.0
 11
41.63458016376054
 21
233.2248178405904
 31
0.0
  0
LINE
  5
7EE
330
6F
100
AcDbEntity
  8
0
 62
     0
100
AcDbLine
 10
60.68458016376053
 20
233.2248178405904
 30
0.0
 11
74.68388016376055
 21
233.2248178405904
 31
0.0
  0
LINE
  5
7EF
330
6F
100
AcDbEntity
  8
0
 62
     0
100
AcDbLine
 10
74.68388016376055
 20
233.2248178405904
 30
0.0
 11
74.68388016376055
 21
219.2255178405902
 31
0.0
  0
LINE
  5
7F0
330
6F
100
AcDbEntity
  8
0
 62
     0
100
AcDbLine
 10
74.68388016376055
 20
219.2255178405902
 30
0.0
 11
60.68458016376053
 21
219.2255178405902
 31
0.0
  0
LINE
  5
7F1
330
6F
100
AcDbEntity
  8
0
 62
     0
100
AcDbLine
 10
60.68458016376053
 20
219.2255178405902
 30
0.0
 11
60.68458016376053
 21
233.2248178405904
 31
0.0
  0
LINE
  5
7F2
330
6F
100
AcDbEntity
  8
0
 62
     0
100
AcDbLine
 10
79.73458016376054
 20
233.2248178405904
 30
0.0
 11
93.73388016376054
 21
233.2248178405904
 31
0.0
  0
LINE
  5
7F3
330
6F
100
AcDbEntity
  8
0
 62
     0
100
AcDbLine
 10
93.73388016376054
 20
233.2248178405904
 30
0.0
 11
93.73388016376054
 21
219.2255178405902
 31
0.0
  0
LINE
  5
7F4
330
6F
100
AcDbEntity
  8
0
 62
     0
100
AcDbLine
 10
93.73388016376054
 20
219.2255178405902
 30
0.0
 11
79.73458016376054
 21
219.2255178405902
 31
0.0
  0
LINE
  5
7F5
330
6F
100
AcDbEntity
  8
0
 62
     0
100
AcDbLine
 10
79.73458016376054
 20
219.2255178405902
 30
0.0
 11
79.73458016376054
 21
233.2248178405904
 31
0.0
  0
LINE
  5
7F6
330
6F
100
AcDbEntity
  8
0
 62
     0
100
AcDbLine
 10
98.78458016376056
 20
233.2248178405904
 30
0.0
 11
112.7843801637605
 21
233.2248178405904
 31
0.0
  0
LINE
  5
7F7
330
6F
100
AcDbEntity
  8
0
 62
     0
100
AcDbLine
 10
112.7843801637605
 20
233.2248178405904
 30
0.0
 11
112.7843801637605
 21
219.2255178405902
 31
0.0
  0
LINE
  5
7F8
330
6F
100
AcDbEntity
  8
0
 62
     0
100
AcDbLine
 10
112.7843801637605
 20
219.2255178405902
 30
0.0
 11
98.78458016376056
 21
219.2255178405902
 31
0.0
  0
LINE
  5
7F9
330
6F
100
AcDbEntity
  8
0
 62
     0
100
AcDbLine
 10
98.78458016376056
 20
219.2255178405902
 30
0.0
 11
98.78458016376056
 21
233.2248178405904
 31
0.0
  0
LINE
  5
7FA
330
6F
100
AcDbEntity
  8
0
 62
     0
100
AcDbLine
 10
117.8343801637605
 20
233.2248178405904
 30
0.0
 11
131.8343801637605
 21
233.2248178405904
 31
0.0
  0
LINE
  5
7FB
330
6F
100
AcDbEntity
  8
0
 62
     0
100
AcDbLine
 10
131.8343801637605
 20
233.2248178405904
 30
0.0
 11
131.8343801637605
 21
219.2255178405902
 31
0.0
  0
LINE
  5
7FC
330
6F
100
AcDbEntity
  8
0
 62
     0
100
AcDbLine
 10
131.8343801637605
 20
219.2255178405902
 30
0.0
 11
117.8343801637605
 21
219.2255178405902
 31
0.0
  0
LINE
  5
7FD
330
6F
100
AcDbEntity
  8
0
 62
     0
100
AcDbLine
 10
117.8343801637605
 20
219.2255178405902
 30
0.0
 11
117.8343801637605
 21
233.2248178405904
 31
0.0
  0
LINE
  5
7FE
330
6F
100
AcDbEntity
  8
0
 62
     0
100
AcDbLine
 10
136.8843801637604
 20
233.2248178405904
 30
0.0
 11
150.8843801637605
 21
233.2248178405904
 31
0.0
  0
LINE
  5
7FF
330
6F
100
AcDbEntity
  8
0
 62
     0
100
AcDbLine
 10
150.8843801637605
 20
233.2248178405904
 30
0.0
 11
150.8843801637605
 21
219.2255178405902
 31
0.0
  0
LINE
  5
800
330
6F
100
AcDbEntity
  8
0
 62
     0
100
AcDbLine
 10
150.8843801637605
 20
219.2255178405902
 30
0.0
 11
136.8843801637604
 21
219.2255178405902
 31
0.0
  0
LINE
  5
801
330
6F
100
AcDbEntity
  8
0
 62
     0
100
AcDbLine
 10
136.8843801637604
 20
219.2255178405902
 30
0.0
 11
136.8843801637604
 21
233.2248178405904
 31
0.0
  0
LINE
  5
802
330
6F
100
AcDbEntity
  8
0
 62
     0
100
AcDbLine
 10
155.9343801637606
 20
233.2248178405904
 30
0.0
 11
169.9343801637605
 21
233.2248178405904
 31
0.0
  0
LINE
  5
803
330
6F
100
AcDbEntity
  8
0
 62
     0
100
AcDbLine
 10
169.9343801637605
 20
233.2248178405904
 30
0.0
 11
169.9343801637605
 21
219.2255178405902
 31
0.0
  0
LINE
  5
804
330
6F
100
AcDbEntity
  8
0
 62
     0
100
AcDbLine
 10
169.9343801637605
 20
219.2255178405902
 30
0.0
 11
155.9343801637606
 21
219.2255178405902
 31
0.0
  0
LINE
  5
805
330
6F
100
AcDbEntity
  8
0
 62
     0
100
AcDbLine
 10
155.9343801637606
 20
219.2255178405902
 30
0.0
 11
155.9343801637606
 21
233.2248178405904
 31
0.0
  0
LINE
  5
806
330
6F
100
AcDbEntity
  8
0
 62
     0
100
AcDbLine
 10
174.9843801637606
 20
233.2248178405904
 30
0.0
 11
188.9843801637606
 21
233.2248178405904
 31
0.0
  0
LINE
  5
807
330
6F
100
AcDbEntity
  8
0
 62
     0
100
AcDbLine
 10
188.9843801637606
 20
233.2248178405904
 30
0.0
 11
188.9843801637606
 21
219.2255178405902
 31
0.0
  0
LINE
  5
808
330
6F
100
AcDbEntity
  8
0
 62
     0
100
AcDbLine
 10
188.9843801637606
 20
219.2255178405902
 30
0.0
 11
174.9843801637606
 21
219.2255178405902
 31
0.0
  0
LINE
  5
809
330
6F
100
AcDbEntity
  8
0
 62
     0
100
AcDbLine
 10
174.9843801637606
 20
219.2255178405902
 30
0.0
 11
174.9843801637606
 21
233.2248178405904
 31
0.0
  0
LINE
  5
80A
330
6F
100
AcDbEntity
  8
0
 62
     0
100
AcDbLine
 10
194.0343801637604
 20
233.2248178405904
 30
0.0
 11
208.0343801637605
 21
233.2248178405904
 31
0.0
  0
LINE
  5
80B
330
6F
100
AcDbEntity
  8
0
 62
     0
100
AcDbLine
 10
208.0343801637605
 20
233.2248178405904
 30
0.0
 11
208.0343801637605
 21
219.2255178405902
 31
0.0
  0
LINE
  5
80C
330
6F
100
AcDbEntity
  8
0
 62
     0
100
AcDbLine
 10
208.0343801637605
 20
219.2255178405902
 30
0.0
 11
194.0343801637604
 21
219.2255178405902
 31
0.0
  0
LINE
  5
80D
330
6F
100
AcDbEntity
  8
0
 62
     0
100
AcDbLine
 10
194.0343801637604
 20
219.2255178405902
 30
0.0
 11
194.0343801637604
 21
233.2248178405904
 31
0.0
  0
LINE
  5
80E
330
6F
100
AcDbEntity
  8
0
 62
     0
100
AcDbLine
 10
13.05954016376054
 20
252.2748178405902
 30
0.0
 11
27.05908016376055
 21
252.2748178405902
 31
0.0
  0
LINE
  5
80F
330
6F
100
AcDbEntity
  8
0
 62
     0
100
AcDbLine
 10
7.278290163760544
 20
255.2748178405902
 30
0.0
 11
18.61438016376066
 21
255.2748178405902
 31
0.0
  0
LINE
  5
810
330
6F
100
AcDbEntity
  8
0
 62
     0
100
AcDbLine
 10
48.61438016376066
 20
255.2748178405904
 30
0.0
 11
66.61438016376064
 21
255.2748178405904
 31
0.0
  0
LINE
  5
811
330
6F
100
AcDbEntity
  8
0
 62
     0
100
AcDbLine
 10
96.61438016376067
 20
255.2748178405904
 30
0.0
 11
114.6143801637606
 21
255.2748178405904
 31
0.0
  0
LINE
  5
812
330
6F
100
AcDbEntity
  8
0
 62
     0
100
AcDbLine
 10
144.6143801637606
 20
255.2748178405904
 30
0.0
 11
162.6143801637606
 21
255.2748178405904
 31
0.0
  0
LINE
  5
813
330
6F
100
AcDbEntity
  8
0
 62
     0
100
AcDbLine
 10
192.6143801637606
 20
255.2748178405904
 30
0.0
 11
210.6143801637607
 21
255.2748178405904
 31
0.0
  0
LINE
  5
814
330
6F
100
AcDbEntity
  8
0
 62
     0
100
AcDbLine
 10
240.6143801637607
 20
255.2748178405902
 30
0.0
 11
251.9343801637605
 21
255.2748178405902
 31
0.0
  0
LINE
  5
815
330
6F
100
AcDbEntity
  8
0
 62
     0
100
AcDbLine
 10
20.61438016376066
 20
259.2748178405902
 30
0.0
 11
46.61438016376066
 21
259.2748178405902
 31
0.0
  0
LINE
  5
816
330
6F
100
AcDbEntity
  8
0
 62
     0
100
AcDbLine
 10
68.61438016376067
 20
259.2748178405902
 30
0.0
 11
94.61438016376066
 21
259.27481784059
 31
0.0
  0
LINE
  5
817
330
6F
100
AcDbEntity
  8
0
 62
     0
100
AcDbLine
 10
116.6143801637606
 20
259.2748178405902
 30
0.0
 11
142.6143801637605
 21
259.2748178405902
 31
0.0
  0
LINE
  5
818
330
6F
100
AcDbEntity
  8
0
 62
     0
100
AcDbLine
 10
164.6143801637606
 20
259.2748178405902
 30
0.0
 11
190.6143801637606
 21
259.2748178405902
 31
0.0
  0
LINE
  5
819
330
6F
100
AcDbEntity
  8
0
 62
     0
100
AcDbLine
 10
212.6143801637607
 20
259.2748178405902
 30
0.0
 11
238.6143801637607
 21
259.27481784059
 31
0.0
  0
LINE
  5
81A
330
6F
100
AcDbEntity
  8
0
 62
     0
100
AcDbLine
 10
27.05908016376055
 20
252.2748178405902
 30
0.0
 11
27.05908016376055
 21
238.2755178405904
 31
0.0
  0
LINE
  5
81B
330
6F
100
AcDbEntity
  8
0
 62
     0
100
AcDbLine
 10
27.05908016376055
 20
238.2755178405904
 30
0.0
 11
13.05954016376054
 21
238.2755178405904
 31
0.0
  0
LINE
  5
81C
330
6F
100
AcDbEntity
  8
0
 62
     0
100
AcDbLine
 10
13.05954016376054
 20
238.2755178405904
 30
0.0
 11
13.05954016376054
 21
252.2748178405902
 31
0.0
  0
LINE
  5
81D
330
6F
100
AcDbEntity
  8
0
 62
     0
100
AcDbLine
 10
36.87208016376054
 20
252.2748178405902
 30
0.0
 11
50.87138016376055
 21
252.2748178405902
 31
0.0
  0
LINE
  5
81E
330
6F
100
AcDbEntity
  8
0
 62
     0
100
AcDbLine
 10
50.87138016376055
 20
252.2748178405902
 30
0.0
 11
50.87138016376055
 21
238.2755178405904
 31
0.0
  0
LINE
  5
81F
330
6F
100
AcDbEntity
  8
0
 62
     0
100
AcDbLine
 10
50.87138016376055
 20
238.2755178405904
 30
0.0
 11
36.87208016376054
 21
238.2755178405904
 31
0.0
  0
LINE
  5
820
330
6F
100
AcDbEntity
  8
0
 62
     0
100
AcDbLine
 10
36.87208016376054
 20
238.2755178405904
 30
0.0
 11
36.87208016376054
 21
252.2748178405902
 31
0.0
  0
LINE
  5
821
330
6F
100
AcDbEntity
  8
0
 62
     0
100
AcDbLine
 10
55.92208016376055
 20
252.2748178405902
 30
0.0
 11
69.92138016376054
 21
252.2748178405902
 31
0.0
  0
LINE
  5
822
330
6F
100
AcDbEntity
  8
0
 62
     0
100
AcDbLine
 10
69.92138016376054
 20
252.2748178405902
 30
0.0
 11
69.92138016376054
 21
238.2755178405904
 31
0.0
  0
LINE
  5
823
330
6F
100
AcDbEntity
  8
0
 62
     0
100
AcDbLine
 10
69.92138016376054
 20
238.2755178405904
 30
0.0
 11
55.92208016376055
 21
238.2755178405904
 31
0.0
  0
LINE
  5
824
330
6F
100
AcDbEntity
  8
0
 62
     0
100
AcDbLine
 10
55.92208016376055
 20
238.2755178405904
 30
0.0
 11
55.92208016376055
 21
252.2748178405902
 31
0.0
  0
LINE
  5
825
330
6F
100
AcDbEntity
  8
0
 62
     0
100
AcDbLine
 10
74.97208016376055
 20
252.2748178405902
 30
0.0
 11
88.97138016376052
 21
252.2748178405902
 31
0.0
  0
LINE
  5
826
330
6F
100
AcDbEntity
  8
0
 62
     0
100
AcDbLine
 10
88.97138016376052
 20
252.2748178405902
 30
0.0
 11
88.97138016376052
 21
238.2755178405904
 31
0.0
  0
LINE
  5
827
330
6F
100
AcDbEntity
  8
0
 62
     0
100
AcDbLine
 10
88.97138016376052
 20
238.2755178405904
 30
0.0
 11
74.97208016376055
 21
238.2755178405904
 31
0.0
  0
LINE
  5
828
330
6F
100
AcDbEntity
  8
0
 62
     0
100
AcDbLine
 10
74.97208016376055
 20
238.2755178405904
 30
0.0
 11
74.97208016376055
 21
252.2748178405902
 31
0.0
  0
LINE
  5
829
330
6F
100
AcDbEntity
  8
0
 62
     0
100
AcDbLine
 10
94.02208016376055
 20
252.2748178405902
 30
0.0
 11
108.0213801637605
 21
252.2748178405902
 31
0.0
  0
LINE
  5
82A
330
6F
100
AcDbEntity
  8
0
 62
     0
100
AcDbLine
 10
108.0213801637605
 20
252.2748178405902
 30
0.0
 11
108.0213801637605
 21
238.2755178405904
 31
0.0
  0
LINE
  5
82B
330
6F
100
AcDbEntity
  8
0
 62
     0
100
AcDbLine
 10
108.0213801637605
 20
238.2755178405904
 30
0.0
 11
94.02208016376055
 21
238.2755178405904
 31
0.0
  0
LINE
  5
82C
330
6F
100
AcDbEntity
  8
0
 62
     0
100
AcDbLine
 10
94.02208016376055
 20
238.2755178405904
 30
0.0
 11
94.02208016376055
 21
252.2748178405902
 31
0.0
  0
LINE
  5
82D
330
6F
100
AcDbEntity
  8
0
 62
     0
100
AcDbLine
 10
113.0723801637605
 20
252.2748178405902
 30
0.0
 11
127.0713801637605
 21
252.2748178405902
 31
0.0
  0
LINE
  5
82E
330
6F
100
AcDbEntity
  8
0
 62
     0
100
AcDbLine
 10
127.0713801637605
 20
252.2748178405902
 30
0.0
 11
127.0713801637605
 21
238.2755178405904
 31
0.0
  0
LINE
  5
82F
330
6F
100
AcDbEntity
  8
0
 62
     0
100
AcDbLine
 10
127.0713801637605
 20
238.2755178405904
 30
0.0
 11
113.0723801637605
 21
238.2755178405904
 31
0.0
  0
LINE
  5
830
330
6F
100
AcDbEntity
  8
0
 62
     0
100
AcDbLine
 10
113.0723801637605
 20
238.2755178405904
 30
0.0
 11
113.0723801637605
 21
252.2748178405902
 31
0.0
  0
LINE
  5
831
330
6F
100
AcDbEntity
  8
0
 62
     0
100
AcDbLine
 10
132.1223801637604
 20
252.2748178405902
 30
0.0
 11
146.1213801637605
 21
252.2748178405902
 31
0.0
  0
LINE
  5
832
330
6F
100
AcDbEntity
  8
0
 62
     0
100
AcDbLine
 10
146.1213801637605
 20
252.2748178405902
 30
0.0
 11
146.1213801637605
 21
238.2755178405904
 31
0.0
  0
LINE
  5
833
330
6F
100
AcDbEntity
  8
0
 62
     0
100
AcDbLine
 10
146.1213801637605
 20
238.2755178405904
 30
0.0
 11
132.1223801637604
 21
238.2755178405904
 31
0.0
  0
LINE
  5
834
330
6F
100
AcDbEntity
  8
0
 62
     0
100
AcDbLine
 10
132.1223801637604
 20
238.2755178405904
 30
0.0
 11
132.1223801637604
 21
252.2748178405902
 31
0.0
  0
LINE
  5
835
330
6F
100
AcDbEntity
  8
0
 62
     0
100
AcDbLine
 10
151.1723801637606
 20
252.2748178405902
 30
0.0
 11
165.1713801637605
 21
252.2748178405902
 31
0.0
  0
LINE
  5
836
330
6F
100
AcDbEntity
  8
0
 62
     0
100
AcDbLine
 10
165.1713801637605
 20
252.2748178405902
 30
0.0
 11
165.1713801637605
 21
238.2755178405904
 31
0.0
  0
LINE
  5
837
330
6F
100
AcDbEntity
  8
0
 62
     0
100
AcDbLine
 10
165.1713801637605
 20
238.2755178405904
 30
0.0
 11
151.1723801637606
 21
238.2755178405904
 31
0.0
  0
LINE
  5
838
330
6F
100
AcDbEntity
  8
0
 62
     0
100
AcDbLine
 10
151.1723801637606
 20
238.2755178405904
 30
0.0
 11
151.1723801637606
 21
252.2748178405902
 31
0.0
  0
LINE
  5
839
330
6F
100
AcDbEntity
  8
0
 62
     0
100
AcDbLine
 10
170.2223801637605
 20
252.2748178405902
 30
0.0
 11
184.2213801637605
 21
252.2748178405902
 31
0.0
  0
LINE
  5
83A
330
6F
100
AcDbEntity
  8
0
 62
     0
100
AcDbLine
 10
184.2213801637605
 20
252.2748178405902
 30
0.0
 11
184.2213801637605
 21
238.2755178405904
 31
0.0
  0
LINE
  5
83B
330
6F
100
AcDbEntity
  8
0
 62
     0
100
AcDbLine
 10
184.2213801637605
 20
238.2755178405904
 30
0.0
 11
170.2223801637605
 21
238.2755178405904
 31
0.0
  0
LINE
  5
83C
330
6F
100
AcDbEntity
  8
0
 62
     0
100
AcDbLine
 10
170.2223801637605
 20
238.2755178405904
 30
0.0
 11
170.2223801637605
 21
252.2748178405902
 31
0.0
  0
LINE
  5
83D
330
6F
100
AcDbEntity
  8
0
 62
     0
100
AcDbLine
 10
189.2723801637604
 20
252.2748178405902
 30
0.0
 11
203.2713801637606
 21
252.2748178405902
 31
0.0
  0
LINE
  5
83E
330
6F
100
AcDbEntity
  8
0
 62
     0
100
AcDbLine
 10
203.2713801637606
 20
252.2748178405902
 30
0.0
 11
203.2713801637606
 21
238.2755178405904
 31
0.0
  0
LINE
  5
83F
330
6F
100
AcDbEntity
  8
0
 62
     0
100
AcDbLine
 10
203.2713801637606
 20
238.2755178405904
 30
0.0
 11
189.2723801637604
 21
238.2755178405904
 31
0.0
  0
LINE
  5
840
330
6F
100
AcDbEntity
  8
0
 62
     0
100
AcDbLine
 10
189.2723801637604
 20
238.2755178405904
 30
0.0
 11
189.2723801637604
 21
252.2748178405902
 31
0.0
  0
LINE
  5
841
330
6F
100
AcDbEntity
  8
0
 62
     0
100
AcDbLine
 10
208.3223801637605
 20
252.2748178405902
 30
0.0
 11
222.3213801637606
 21
252.2748178405902
 31
0.0
  0
LINE
  5
842
330
6F
100
AcDbEntity
  8
0
 62
     0
100
AcDbLine
 10
222.3213801637606
 20
252.2748178405902
 30
0.0
 11
222.3213801637606
 21
238.2755178405904
 31
0.0
  0
LINE
  5
843
330
6F
100
AcDbEntity
  8
0
 62
     0
100
AcDbLine
 10
222.3213801637606
 20
238.2755178405904
 30
0.0
 11
208.3223801637605
 21
238.2755178405904
 31
0.0
  0
LINE
  5
844
330
6F
100
AcDbEntity
  8
0
 62
     0
100
AcDbLine
 10
208.3223801637605
 20
238.2755178405904
 30
0.0
 11
208.3223801637605
 21
252.2748178405902
 31
0.0
  0
LINE
  5
845
330
6F
100
AcDbEntity
  8
0
 62
     0
100
AcDbLine
 10
232.1343801637606
 20
252.2748178405902
 30
0.0
 11
246.1343801637606
 21
252.2748178405902
 31
0.0
  0
LINE
  5
846
330
6F
100
AcDbEntity
  8
0
 62
     0
100
AcDbLine
 10
246.1343801637606
 20
252.2748178405902
 30
0.0
 11
246.1343801637606
 21
238.2755178405904
 31
0.0
  0
LINE
  5
847
330
6F
100
AcDbEntity
  8
0
 62
     0
100
AcDbLine
 10
253.9343801637606
 20
253.2748178405902
 30
0.0
 11
253.9343801637607
 21
231.6953578405904
 31
0.0
  0
LINE
  5
848
330
6F
100
AcDbEntity
  8
0
 62
     0
100
AcDbLine
 10
253.9343801637607
 20
201.6953578405904
 30
0.0
 11
253.9343801637606
 21
180.1253578405903
 31
0.0
  0
LINE
  5
849
330
6F
100
AcDbEntity
  8
0
 62
     0
100
AcDbLine
 10
257.9343801637606
 20
229.6953578405902
 30
0.0
 11
257.9343801637605
 21
203.6953578405902
 31
0.0
  0
LINE
  5
84A
330
6F
100
AcDbEntity
  8
0
 62
     0
100
AcDbLine
 10
144.6143801637606
 20
257.2748178405902
 30
0.0
 11
144.6143801637606
 21
255.2748178405904
 31
0.0
  0
LINE
  5
84B
330
6F
100
AcDbEntity
  8
0
 62
     0
100
AcDbLine
 10
144.6143801637606
 20
178.1253578405904
 30
0.0
 11
144.6143801637606
 21
176.1253578405902
 31
0.0
  0
LINE
  5
84C
330
6F
100
AcDbEntity
  8
0
 62
     0
100
AcDbLine
 10
162.6143801637606
 20
257.2748178405902
 30
0.0
 11
162.6143801637606
 21
255.2748178405904
 31
0.0
  0
LINE
  5
84D
330
6F
100
AcDbEntity
  8
0
 62
     0
100
AcDbLine
 10
162.6143801637606
 20
178.1253578405904
 30
0.0
 11
162.6143801637606
 21
176.1253578405902
 31
0.0
  0
LINE
  5
84E
330
6F
100
AcDbEntity
  8
0
 62
     0
100
AcDbLine
 10
192.6143801637606
 20
257.2748178405902
 30
0.0
 11
192.6143801637606
 21
255.2748178405904
 31
0.0
  0
LINE
  5
84F
330
6F
100
AcDbEntity
  8
0
 62
     0
100
AcDbLine
 10
192.6143801637606
 20
178.1253578405904
 30
0.0
 11
192.6143801637606
 21
176.1253578405902
 31
0.0
  0
LINE
  5
850
330
6F
100
AcDbEntity
  8
0
 62
     0
100
AcDbLine
 10
210.6143801637606
 20
257.2748178405902
 30
0.0
 11
210.6143801637607
 21
255.2748178405904
 31
0.0
  0
LINE
  5
851
330
6F
100
AcDbEntity
  8
0
 62
     0
100
AcDbLine
 10
210.6143801637606
 20
178.1253578405904
 30
0.0
 11
210.6143801637606
 21
176.1253578405902
 31
0.0
  0
LINE
  5
852
330
6F
100
AcDbEntity
  8
0
 62
     0
100
AcDbLine
 10
240.6143801637607
 20
257.2748178405902
 30
0.0
 11
240.6143801637607
 21
255.2748178405904
 31
0.0
  0
LINE
  5
853
330
6F
100
AcDbEntity
  8
0
 62
     0
100
AcDbLine
 10
240.6143801637606
 20
178.1253578405904
 30
0.0
 11
240.6143801637606
 21
176.1253578405902
 31
0.0
  0
LINE
  5
854
330
6F
100
AcDbEntity
  8
0
 62
     0
100
AcDbLine
 10
114.6143801637606
 20
257.2748178405902
 30
0.0
 11
114.6143801637606
 21
255.2748178405907
 31
0.0
  0
LINE
  5
855
330
6F
100
AcDbEntity
  8
0
 62
     0
100
AcDbLine
 10
114.6143801637606
 20
178.1253578405904
 30
0.0
 11
114.6143801637606
 21
176.1253578405902
 31
0.0
  0
LINE
  5
856
330
6F
100
AcDbEntity
  8
0
 62
     0
100
AcDbLine
 10
96.61438016376067
 20
257.2748178405902
 30
0.0
 11
96.61438016376067
 21
255.2748178405904
 31
0.0
  0
LINE
  5
857
330
6F
100
AcDbEntity
  8
0
 62
     0
100
AcDbLine
 10
96.61438016376058
 20
178.1253578405904
 30
0.0
 11
96.61438016376058
 21
176.1253578405904
 31
0.0
  0
LINE
  5
858
330
6F
100
AcDbEntity
  8
0
 62
     0
100
AcDbLine
 10
66.61438016376067
 20
257.2748178405902
 30
0.0
 11
66.61438016376064
 21
255.2748178405904
 31
0.0
  0
LINE
  5
859
330
6F
100
AcDbEntity
  8
0
 62
     0
100
AcDbLine
 10
66.61438016376056
 20
178.1253578405904
 30
0.0
 11
66.61438016376057
 21
176.1253578405902
 31
0.0
  0
LINE
  5
85A
330
6F
100
AcDbEntity
  8
0
 62
     0
100
AcDbLine
 10
48.61438016376066
 20
257.2748178405902
 30
0.0
 11
48.61438016376066
 21
255.2748178405902
 31
0.0
  0
LINE
  5
85B
330
6F
100
AcDbEntity
  8
0
 62
     0
100
AcDbLine
 10
48.61438016376059
 20
178.1253578405904
 30
0.0
 11
48.61438016376059
 21
176.1253578405904
 31
0.0
  0
LINE
  5
85C
330
6F
100
AcDbEntity
  8
0
 62
     0
100
AcDbLine
 10
18.61438016376066
 20
257.2748178405902
 30
0.0
 11
18.61438016376065
 21
255.2748178405902
 31
0.0
  0
LINE
  5
85D
330
6F
100
AcDbEntity
  8
0
 62
     0
100
AcDbLine
 10
18.61438016376058
 20
178.1253578405904
 30
0.0
 11
18.61438016376057
 21
176.1253578405902
 31
0.0
  0
LINE
  5
85E
330
6F
100
AcDbEntity
  8
0
 62
     0
100
AcDbLine
 10
246.1343801637606
 20
238.2755178405904
 30
0.0
 11
232.1343801637606
 21
238.2755178405904
 31
0.0
  0
LINE
  5
85F
330
6F
100
AcDbEntity
  8
0
 62
     0
100
AcDbLine
 10
232.1343801637606
 20
238.2755178405904
 30
0.0
 11
232.1343801637606
 21
252.2748178405902
 31
0.0
  0
ARC
  5
860
330
6F
100
AcDbEntity
  8
0
  6
Continuous
100
AcDbCircle
 10
251.9343801637606
 20
180.1253578405903
 30
0.0
 40
2.0
100
AcDbArc
 50
270.0
 51
0.0
  0
ARC
  5
861
330
6F
100
AcDbEntity
  8
0
  6
Continuous
100
AcDbCircle
 10
251.9343801637606
 20
253.2748178405902
 30
0.0
 40
2.0
100
AcDbArc
 50
0.0
 51
90.0
  0
ARC
  5
862
330
6F
100
AcDbEntity
  8
0
  6
Continuous
100
AcDbCircle
 10
7.278290163760544
 20
253.2748178405902
 30
0.0
 40
2.0
100
AcDbArc
 50
90.0
 51
180.0
  0
ARC
  5
863
330
6F
100
AcDbEntity
  8
0
  6
Continuous
100
AcDbCircle
 10
7.278290163760544
 20
180.1253578405903
 30
0.0
 40
2.0
100
AcDbArc
 50
180.0
 51
270.0
  0
ARC
  5
864
330
6F
100
AcDbEntity
  8
0
  6
Continuous
100
AcDbCircle
 10
238.6143801637607
 20
257.2748178405902
 30
0.0
 40
2.0
100
AcDbArc
 50
0.0
 51
90.0
  0
ARC
  5
865
330
6F
100
AcDbEntity
  8
0
  6
Continuous
100
AcDbCircle
 10
212.6143801637607
 20
257.2748178405902
 30
0.0
 40
2.0
100
AcDbArc
 50
90.0
 51
180.0
  0
ARC
  5
866
330
6F
100
AcDbEntity
  8
0
  6
Continuous
100
AcDbCircle
 10
190.6143801637606
 20
257.2748178405902
 30
0.0
 40
2.0
100
AcDbArc
 50
0.0
 51
90.0
  0
ARC
  5
867
330
6F
100
AcDbEntity
  8
0
  6
Continuous
100
AcDbCircle
 10
164.6143801637606
 20
257.2748178405902
 30
0.0
 40
2.0
100
AcDbArc
 50
90.0
 51
180.0
  0
ARC
  5
868
330
6F
100
AcDbEntity
  8
0
  6
Continuous
100
AcDbCircle
 10
142.6143801637605
 20
257.2748178405902
 30
0.0
 40
2.0
100
AcDbArc
 50
0.0
 51
90.0
  0
ARC
  5
869
330
6F
100
AcDbEntity
  8
0
  6
Continuous
100
AcDbCircle
 10
116.6143801637606
 20
257.2748178405902
 30
0.0
 40
2.0
100
AcDbArc
 50
90.0
 51
180.0
  0
ARC
  5
86A
330
6F
100
AcDbEntity
  8
0
  6
Continuous
100
AcDbCircle
 10
94.61438016376066
 20
257.2748178405902
 30
0.0
 40
2.0
100
AcDbArc
 50
0.0
 51
90.0
  0
ARC
  5
86B
330
6F
100
AcDbEntity
  8
0
  6
Continuous
100
AcDbCircle
 10
68.61438016376064
 20
257.2748178405902
 30
0.0
 40
2.0
100
AcDbArc
 50
89.9999999999998
 51
180.0
  0
ARC
  5
86C
330
6F
100
AcDbEntity
  8
0
  6
Continuous
100
AcDbCircle
 10
46.61438016376066
 20
257.2748178405902
 30
0.0
 40
2.0
100
AcDbArc
 50
0.0
 51
90.00000000000019
  0
ARC
  5
86D
330
6F
100
AcDbEntity
  8
0
  6
Continuous
100
AcDbCircle
 10
20.61438016376066
 20
257.2748178405902
 30
0.0
 40
2.0
100
AcDbArc
 50
90.00000000000019
 51
180.0
  0
ARC
  5
86E
330
6F
100
AcDbEntity
  8
0
  6
Continuous
100
AcDbCircle
 10
3.278290163760544
 20
229.6953578405902
 30
0.0
 40
2.0
100
AcDbArc
 50
90.0
 51
180.0
  0
ARC
  5
86F
330
6F
100
AcDbEntity
  8
0
  6
Continuous
100
AcDbCircle
 10
3.278290163760544
 20
203.6953578405902
 30
0.0
 40
2.0
100
AcDbArc
 50
180.0
 51
270.0
  0
ARC
  5
870
330
6F
100
AcDbEntity
  8
0
  6
Continuous
100
AcDbCircle
 10
20.61438016376057
 20
176.1253578405902
 30
0.0
 40
2.0
100
AcDbArc
 50
180.0
 51
269.9999999999999
  0
ARC
  5
871
330
6F
100
AcDbEntity
  8
0
  6
Continuous
100
AcDbCircle
 10
46.61438016376057
 20
176.1253578405902
 30
0.0
 40
2.0
100
AcDbArc
 50
269.9999999999998
 51
0.0
  0
ARC
  5
872
330
6F
100
AcDbEntity
  8
0
  6
Continuous
100
AcDbCircle
 10
68.61438016376059
 20
176.1253578405902
 30
0.0
 40
2.0
100
AcDbArc
 50
180.0
 51
270.0
  0
ARC
  5
873
330
6F
100
AcDbEntity
  8
0
  6
Continuous
100
AcDbCircle
 10
94.61438016376055
 20
176.1253578405902
 30
0.0
 40
2.0
100
AcDbArc
 50
270.0
 51
0.0
  0
ARC
  5
874
330
6F
100
AcDbEntity
  8
0
  6
Continuous
100
AcDbCircle
 10
116.6143801637606
 20
176.1253578405902
 30
0.0
 40
2.0
100
AcDbArc
 50
180.0
 51
270.0
  0
ARC
  5
875
330
6F
100
AcDbEntity
  8
0
  6
Continuous
100
AcDbCircle
 10
142.6143801637605
 20
176.1253578405902
 30
0.0
 40
2.0
100
AcDbArc
 50
270.0
 51
0.0
  0
ARC
  5
876
330
6F
100
AcDbEntity
  8
0
  6
Continuous
100
AcDbCircle
 10
164.6143801637606
 20
176.1253578405902
 30
0.0
 40
2.0
100
AcDbArc
 50
180.0
 51
270.0
  0
ARC
  5
877
330
6F
100
AcDbEntity
  8
0
  6
Continuous
100
AcDbCircle
 10
190.6143801637606
 20
176.1253578405902
 30
0.0
 40
2.0
100
AcDbArc
 50
270.0
 51
0.0
  0
ARC
  5
878
330
6F
100
AcDbEntity
  8
0
  6
Continuous
100
AcDbCircle
 10
212.6143801637606
 20
176.1253578405902
 30
0.0
 40
2.0
100
AcDbArc
 50
180.0
 51
270.0
  0
ARC
  5
879
330
6F
100
AcDbEntity
  8
0
  6
Continuous
100
AcDbCircle
 10
238.6143801637606
 20
176.1253578405902
 30
0.0
 40
2.0
100
AcDbArc
 50
270.0
 51
0.0
  0
ARC
  5
87A
330
6F
100
AcDbEntity
  8
0
  6
Continuous
100
AcDbCircle
 10
255.9343801637606
 20
203.6953578405902
 30
0.0
 40
2.0
100
AcDbArc
 50
270.0
 51
0.0
  0
ARC
  5
87B
330
6F
100
AcDbEntity
  8
0
  6
Continuous
100
AcDbCircle
 10
255.9343801637606
 20
229.6953578405902
 30
0.0
 40
2.0
100
AcDbArc
 50
0.0
 51
90.0
  0
LINE
  5
87C
330
6F
100
AcDbEntity
  8
0
 62
     0
100
AcDbLine
 10
-2.452490668803147
 20
-123.3131622512643
 30
0.0
 11
-2.452490668803148
 21
-37.76370225126441
 31
0.0
  0
LINE
  5
87D
330
6F
100
AcDbEntity
  8
0
 62
     0
100
AcDbLine
 10
254.6035993311969
 20
-131.3131622512642
 30
0.0
 11
5.547509331196852
 21
-131.3131622512643
 31
0.0
  0
LINE
  5
87E
330
6F
100
AcDbEntity
  8
0
 62
     0
100
AcDbLine
 10
262.603599331197
 20
-37.76370225126441
 30
0.0
 11
262.6035993311969
 21
-123.3131622512643
 31
0.0
  0
LINE
  5
880
330
6F
100
AcDbEntity
  8
0
 62
     0
100
AcDbLine
 10
5.547509331196851
 20
-29.76370225126441
 30
0.0
 11
254.6035993311971
 21
-29.76370225126441
 31
0.0
  0
LINE
  5
ADB
330
6F
100
AcDbEntity
  8
0
 62
     0
100
AcDbLine
 10
18.88359933119696
 20
-43.7637022512644
 30
0.0
 11
18.88359933119696
 21
-45.7637022512644
 31
0.0
  0
LINE
  5
ADC
330
6F
100
AcDbEntity
  8
0
 62
     0
100
AcDbLine
 10
49.28359933119697
 20
-43.7637022512644
 30
0.0
 11
49.28359933119697
 21
-45.7637022512644
 31
0.0
  0
LINE
  5
ADD
330
6F
100
AcDbEntity
  8
0
 62
     0
100
AcDbLine
 10
66.88359933119698
 20
-43.76370225126453
 30
0.0
 11
66.88359933119695
 21
-45.76370225126441
 31
0.0
  0
LINE
  5
ADE
330
6F
100
AcDbEntity
  8
0
 62
     0
100
AcDbLine
 10
97.28359933119698
 20
-43.76370225126453
 30
0.0
 11
97.28359933119698
 21
-45.76370225126441
 31
0.0
  0
LINE
  5
ADF
330
6F
100
AcDbEntity
  8
0
 62
     0
100
AcDbLine
 10
114.8835993311969
 20
-43.76370225126453
 30
0.0
 11
114.8835993311969
 21
-45.76370225126407
 31
0.0
  0
LINE
  5
AE0
330
6F
100
AcDbEntity
  8
0
 62
     0
100
AcDbLine
 10
145.2835993311969
 20
-43.76370225126453
 30
0.0
 11
145.2835993311969
 21
-45.76370225126441
 31
0.0
  0
LINE
  5
AE1
330
6F
100
AcDbEntity
  8
0
 62
     0
100
AcDbLine
 10
162.8835993311969
 20
-43.76370225126453
 30
0.0
 11
162.8835993311969
 21
-45.76370225126441
 31
0.0
  0
LINE
  5
AE2
330
6F
100
AcDbEntity
  8
0
 62
     0
100
AcDbLine
 10
193.2835993311969
 20
-43.76370225126453
 30
0.0
 11
193.2835993311969
 21
-45.76370225126441
 31
0.0
  0
LINE
  5
AE3
330
6F
100
AcDbEntity
  8
0
 62
     0
100
AcDbLine
 10
210.8835993311969
 20
-43.76370225126454
 30
0.0
 11
210.883599331197
 21
-45.76370225126442
 31
0.0
  0
LINE
  5
AE4
330
6F
100
AcDbEntity
  8
0
 62
     0
100
AcDbLine
 10
241.283599331197
 20
-43.76370225126453
 30
0.0
 11
241.283599331197
 21
-45.76370225126441
 31
0.0
  0
LINE
  5
AE5
330
6F
100
AcDbEntity
  8
0
 62
     0
100
AcDbLine
 10
256.6035993311971
 20
-69.34316225126422
 30
0.0
 11
254.6035993311971
 21
-69.34316225126422
 31
0.0
  0
LINE
  5
AE6
330
6F
100
AcDbEntity
  8
0
 62
     0
100
AcDbLine
 10
256.6035993311971
 20
-99.74316225126422
 30
0.0
 11
254.6035993311971
 21
-99.74316225126422
 31
0.0
  0
LINE
  5
AE7
330
6F
100
AcDbEntity
  8
0
 62
     0
100
AcDbLine
 10
241.2835993311969
 20
-123.3131622512643
 30
0.0
 11
241.2835993311969
 21
-125.3131622512644
 31
0.0
  0
LINE
  5
AE8
330
6F
100
AcDbEntity
  8
0
 62
     0
100
AcDbLine
 10
210.8835993311969
 20
-123.3131622512643
 30
0.0
 11
210.8835993311969
 21
-125.3131622512644
 31
0.0
  0
LINE
  5
AE9
330
6F
100
AcDbEntity
  8
0
 62
     0
100
AcDbLine
 10
193.2835993311968
 20
-123.3131622512643
 30
0.0
 11
193.2835993311968
 21
-125.3131622512644
 31
0.0
  0
LINE
  5
AEA
330
6F
100
AcDbEntity
  8
0
 62
     0
100
AcDbLine
 10
162.8835993311969
 20
-123.3131622512643
 30
0.0
 11
162.8835993311969
 21
-125.3131622512644
 31
0.0
  0
LINE
  5
AEB
330
6F
100
AcDbEntity
  8
0
 62
     0
100
AcDbLine
 10
145.2835993311968
 20
-123.3131622512643
 30
0.0
 11
145.2835993311968
 21
-125.3131622512644
 31
0.0
  0
LINE
  5
AEC
330
6F
100
AcDbEntity
  8
0
 62
     0
100
AcDbLine
 10
114.8835993311969
 20
-123.3131622512643
 30
0.0
 11
114.8835993311969
 21
-125.3131622512644
 31
0.0
  0
LINE
  5
AED
330
6F
100
AcDbEntity
  8
0
 62
     0
100
AcDbLine
 10
97.28359933119689
 20
-123.3131622512643
 30
0.0
 11
97.28359933119689
 21
-125.3131622512643
 31
0.0
  0
LINE
  5
AEE
330
6F
100
AcDbEntity
  8
0
 62
     0
100
AcDbLine
 10
66.88359933119686
 20
-123.3131622512643
 30
0.0
 11
66.88359933119688
 21
-125.3131622512644
 31
0.0
  0
LINE
  5
AEF
330
6F
100
AcDbEntity
  8
0
 62
     0
100
AcDbLine
 10
49.2835993311969
 20
-123.3131622512643
 30
0.0
 11
49.2835993311969
 21
-125.3131622512643
 31
0.0
  0
LINE
  5
AF0
330
6F
100
AcDbEntity
  8
0
 62
     0
100
AcDbLine
 10
18.88359933119689
 20
-123.3131622512643
 30
0.0
 11
18.88359933119688
 21
-125.3131622512644
 31
0.0
  0
LINE
  5
AF1
330
6F
100
AcDbEntity
  8
0
 62
     0
100
AcDbLine
 10
5.547509331196851
 20
-99.74316225126422
 30
0.0
 11
3.547509331196851
 21
-99.74316225126422
 31
0.0
  0
LINE
  5
AF2
330
6F
100
AcDbEntity
  8
0
 62
     0
100
AcDbLine
 10
5.547509331196851
 20
-69.34316225126444
 30
0.0
 11
3.547509331196851
 21
-69.34316225126444
 31
0.0
  0
LINE
  5
C49
330
6F
100
AcDbEntity
  8
0
 62
     0
100
AcDbLine
 10
231.6193488133644
 20
-289.7584205310334
 30
0.0
 11
31.68224881336439
 21
-289.7584205310334
 31
0.0
  0
LINE
  5
C4A
330
6F
100
AcDbEntity
  8
0
 62
     0
100
AcDbLine
 10
256.1883488133644
 20
-297.7584205310334
 30
0.0
 11
7.132258813364388
 21
-297.7584205310334
 31
0.0
  0
LINE
  5
C55
330
6F
100
AcDbEntity
  8
0
 62
     0
100
AcDbLine
 10
28.68224881336438
 20
-286.7584205310334
 30
0.0
 11
28.68224881336438
 21
-273.6084605310334
 31
0.0
  0
LINE
  5
C60
330
6F
100
AcDbEntity
  8
0
 62
     0
100
AcDbLine
 10
234.6193488133643
 20
-273.6084605310334
 30
0.0
 11
234.6193488133644
 21
-286.7584205310333
 31
0.0
  0
LINE
  5
C66
330
6F
100
AcDbEntity
  8
0
 62
     0
100
AcDbLine
 10
25.68224881336438
 20
-270.6084605310334
 30
0.0
 11
10.13225881336438
 21
-270.6084605310335
 31
0.0
  0
LINE
  5
C68
330
6F
100
AcDbEntity
  8
0
 62
     0
100
AcDbLine
 10
7.132258813364387
 20
-267.6084605310334
 30
0.0
 11
7.132258813364389
 21
-215.2089605310335
 31
0.0
  0
LINE
  5
C69
330
6F
100
AcDbEntity
  8
0
 62
     0
100
AcDbLine
 10
-0.8677411866356115
 20
-289.7584205310334
 30
0.0
 11
-0.8677411866356123
 21
-204.2089605310335
 31
0.0
  0
LINE
  5
C96
330
6F
100
AcDbEntity
  8
0
 62
     0
100
AcDbLine
 10
253.1883488133645
 20
-270.6084605310334
 30
0.0
 11
237.6193488133643
 21
-270.6084605310334
 31
0.0
  0
LINE
  5
CE5
330
6F
100
AcDbEntity
  8
0
 62
     0
100
AcDbLine
 10
10.13225881336438
 20
-212.2089605310335
 30
0.0
 11
253.1883488133647
 21
-212.2089605310335
 31
0.0
  0
LINE
  5
CE6
330
6F
100
AcDbEntity
  8
0
 62
     0
100
AcDbLine
 10
7.132258813364388
 20
-196.2089605310335
 30
0.0
 11
256.1883488133646
 21
-196.2089605310335
 31
0.0
  0
LINE
  5
D19
330
6F
100
AcDbEntity
  8
0
 62
     0
100
AcDbLine
 10
256.1883488133647
 20
-215.2089605310335
 30
0.0
 11
256.1883488133644
 21
-267.6084605310334
 31
0.0
  0
LINE
  5
D1A
330
6F
100
AcDbEntity
  8
0
 62
     0
100
AcDbLine
 10
264.1883488133645
 20
-204.2089605310335
 30
0.0
 11
264.1883488133644
 21
-289.7584205310334
 31
0.0
  0
LINE
  5
D4A
330
6F
100
AcDbEntity
  8
0
 62
     0
100
AcDbLine
 10
18.88359933119689
 20
-123.3131622512643
 30
0.0
 11
8.547509331196851
 21
-123.3131622512643
 31
0.0
  0
LINE
  5
D4B
330
6F
100
AcDbEntity
  8
0
 62
     0
100
AcDbLine
 10
66.88359933119686
 20
-123.3131622512643
 30
0.0
 11
49.2835993311969
 21
-123.3131622512643
 31
0.0
  0
LINE
  5
D4C
330
6F
100
AcDbEntity
  8
0
 62
     0
100
AcDbLine
 10
114.8835993311969
 20
-123.3131622512643
 30
0.0
 11
97.28359933119689
 21
-123.3131622512643
 31
0.0
  0
LINE
  5
D4D
330
6F
100
AcDbEntity
  8
0
 62
     0
100
AcDbLine
 10
162.8835993311969
 20
-123.3131622512643
 30
0.0
 11
145.2835993311968
 21
-123.3131622512643
 31
0.0
  0
LINE
  5
D4E
330
6F
100
AcDbEntity
  8
0
 62
     0
100
AcDbLine
 10
210.8835993311969
 20
-123.3131622512643
 30
0.0
 11
193.2835993311969
 21
-123.3131622512643
 31
0.0
  0
LINE
  5
D4F
330
6F
100
AcDbEntity
  8
0
 62
     0
100
AcDbLine
 10
254.603599331197
 20
-99.74316225126424
 30
0.0
 11
254.6035993311969
 21
-120.3131622512643
 31
0.0
  0
LINE
  5
D50
330
6F
100
AcDbEntity
  8
0
 62
     0
100
AcDbLine
 10
241.283599331197
 20
-45.76370225126442
 30
0.0
 11
251.6035993311971
 21
-45.76370225126442
 31
0.0
  0
LINE
  5
D51
330
6F
100
AcDbEntity
  8
0
 62
     0
100
AcDbLine
 10
193.2835993311969
 20
-45.76370225126441
 30
0.0
 11
210.883599331197
 21
-45.76370225126442
 31
0.0
  0
LINE
  5
D52
330
6F
100
AcDbEntity
  8
0
 62
     0
100
AcDbLine
 10
145.2835993311969
 20
-45.76370225126441
 30
0.0
 11
162.8835993311969
 21
-45.76370225126441
 31
0.0
  0
LINE
  5
D53
330
6F
100
AcDbEntity
  8
0
 62
     0
100
AcDbLine
 10
97.28359933119698
 20
-45.76370225126441
 30
0.0
 11
114.8835993311969
 21
-45.76370225126441
 31
0.0
  0
LINE
  5
D54
330
6F
100
AcDbEntity
  8
0
 62
     0
100
AcDbLine
 10
49.28359933119697
 20
-45.76370225126441
 30
0.0
 11
66.88359933119693
 21
-45.76370225126441
 31
0.0
  0
LINE
  5
D55
330
6F
100
AcDbEntity
  8
0
 62
     0
100
AcDbLine
 10
5.547509331196851
 20
-69.34316225126444
 30
0.0
 11
5.547509331196852
 21
-48.76370225126439
 31
0.0
  0
ARC
  5
D5E
330
6F
100
AcDbEntity
  8
0
  6
Continuous
100
AcDbCircle
 10
5.547509331196851
 20
-37.76370225126441
 30
0.0
 40
8.0
100
AcDbArc
 50
90.0
 51
180.0
  0
ARC
  5
D5F
330
6F
100
AcDbEntity
  8
0
  6
Continuous
100
AcDbCircle
 10
5.547509331196852
 20
-123.3131622512643
 30
0.0
 40
8.0
100
AcDbArc
 50
180.0
 51
270.0
  0
ARC
  5
D61
330
6F
100
AcDbEntity
  8
0
  6
Continuous
100
AcDbCircle
 10
254.6035993311971
 20
-37.76370225126441
 30
0.0
 40
8.0
100
AcDbArc
 50
360.0
 51
90.0
  0
ARC
  5
D65
330
6F
100
AcDbEntity
  8
0
  6
Continuous
100
AcDbCircle
 10
254.6035993311969
 20
-123.3131622512643
 30
0.0
 40
8.0
100
AcDbArc
 50
270.0
 51
0.0000000000004071
  0
ARC
  5
D66
330
6F
100
AcDbEntity
  8
0
  6
Continuous
100
AcDbCircle
 10
7.132258813364386
 20
-204.2089605310335
 30
0.0
 40
8.0
100
AcDbArc
 50
90.0
 51
180.0
  0
ARC
  5
D67
330
6F
100
AcDbEntity
  8
0
  6
Continuous
100
AcDbCircle
 10
256.1883488133646
 20
-204.2089605310335
 30
0.0
 40
8.0
100
AcDbArc
 50
0.0
 51
90.0
  0
ARC
  5
D69
330
6F
100
AcDbEntity
  8
0
  6
Continuous
100
AcDbCircle
 10
7.132258813364388
 20
-289.7584205310334
 30
0.0
 40
8.0
100
AcDbArc
 50
180.0
 51
270.0
  0
ARC
  5
D6A
330
6F
100
AcDbEntity
  8
0
  6
Continuous
100
AcDbCircle
 10
7.132258813364386
 20
-204.2089605310335
 30
0.0
 40
8.0
100
AcDbArc
 50
359.9999999999998
 51
0.0
  0
ARC
  5
D6C
330
6F
100
AcDbEntity
  8
0
  6
Continuous
100
AcDbCircle
 10
256.1883488133644
 20
-289.7584205310334
 30
0.0
 40
8.0
100
AcDbArc
 50
270.0
 51
0.0
  0
LINE
  5
DEC
330
6F
100
AcDbEntity
  8
0
 62
     0
100
AcDbLine
 10
253.3117332672391
 20
-440.6855594192425
 30
0.0
 11
10.25564326723906
 21
-440.6855594192425
 31
0.0
  0
LINE
  5
DED
330
6F
100
AcDbEntity
  8
0
 62
     0
100
AcDbLine
 10
256.3117332672391
 20
-448.6855594192425
 30
0.0
 11
7.255643267239067
 21
-448.6855594192425
 31
0.0
  0
LINE
  5
DF1
330
6F
100
AcDbEntity
  8
0
 62
     0
100
AcDbLine
 10
7.255643267239063
 20
-437.6855594192424
 30
0.0
 11
7.255643267239069
 21
-366.1360994192425
 31
0.0
  0
LINE
  5
DF2
330
6F
100
AcDbEntity
  8
0
 62
     0
100
AcDbLine
 10
-0.7443567327609327
 20
-440.6855594192425
 30
0.0
 11
-0.7443567327609335
 21
-355.1360994192426
 31
0.0
  0
LINE
  5
DF4
330
6F
100
AcDbEntity
  8
0
 62
     0
100
AcDbLine
 10
10.25564326723907
 20
-363.1360994192425
 30
0.0
 11
122.7836882672392
 21
-363.1360994192426
 31
0.0
  0
LINE
  5
DF5
330
6F
100
AcDbEntity
  8
0
 62
     0
100
AcDbLine
 10
7.255643267239067
 20
-347.1360994192427
 30
0.0
 11
122.7836882672392
 21
-347.1360994192427
 31
0.0
  0
LINE
  5
DF6
330
6F
100
AcDbEntity
  8
0
 62
     0
100
AcDbLine
 10
256.3117332672393
 20
-366.1360994192427
 30
0.0
 11
256.3117332672391
 21
-437.6855594192424
 31
0.0
  0
LINE
  5
DF7
330
6F
100
AcDbEntity
  8
0
 62
     0
100
AcDbLine
 10
264.3117332672392
 20
-355.1360994192426
 30
0.0
 11
264.3117332672391
 21
-440.6855594192425
 31
0.0
  0
ARC
  5
DF8
330
6F
100
AcDbEntity
  8
0
  6
Continuous
100
AcDbCircle
 10
7.255643267239065
 20
-355.1360994192426
 30
0.0
 40
8.0
100
AcDbArc
 50
90.0
 51
180.0
  0
ARC
  5
DF9
330
6F
100
AcDbEntity
  8
0
  6
Continuous
100
AcDbCircle
 10
7.255643267239065
 20
-355.1360994192426
 30
0.0
 40
8.0
100
AcDbArc
 50
0.0
 51
0.0
  0
ARC
  5
DFA
330
6F
100
AcDbEntity
  8
0
  6
Continuous
100
AcDbCircle
 10
256.3117332672393
 20
-355.1360994192426
 30
0.0
 40
8.0
100
AcDbArc
 50
0.0
 51
90.0
  0
ARC
  5
DFB
330
6F
100
AcDbEntity
  8
0
  6
Continuous
100
AcDbCircle
 10
256.3117332672391
 20
-440.6855594192425
 30
0.0
 40
8.0
100
AcDbArc
 50
270.0
 51
0.0
  0
ARC
  5
DFC
330
6F
100
AcDbEntity
  8
0
  6
Continuous
100
AcDbCircle
 10
7.255643267239067
 20
-440.6855594192425
 30
0.0
 40
8.0
100
AcDbArc
 50
180.0
 51
270.0
  0
LINE
  5
E0C
330
6F
100
AcDbEntity
  8
0
 62
     0
100
AcDbLine
 10
255.335563620401
 20
-598.9539857421966
 30
0.0
 11
6.279473620400951
 21
-598.9539857421966
 31
0.0
  0
LINE
  5
E0D
330
6F
100
AcDbEntity
  8
0
 62
     0
100
AcDbLine
 10
-1.720526379599048
 20
-590.9539857421966
 30
0.0
 11
-1.720526379599049
 21
-505.4045257421967
 31
0.0
  0
LINE
  5
E0E
330
6F
100
AcDbEntity
  8
0
 62
     0
100
AcDbLine
 10
6.279473620400951
 20
-497.4045257421968
 30
0.0
 11
255.3355636204011
 21
-497.4045257421967
 31
0.0
  0
LINE
  5
E0F
330
6F
100
AcDbEntity
  8
0
 62
     0
100
AcDbLine
 10
263.3355636204011
 20
-505.4045257421967
 30
0.0
 11
263.335563620401
 21
-590.9539857421966
 31
0.0
  0
ARC
  5
E10
330
6F
100
AcDbEntity
  8
0
  6
Continuous
100
AcDbCircle
 10
6.279473620400949
 20
-505.4045257421967
 30
0.0
 40
8.0
100
AcDbArc
 50
90.0
 51
180.0
  0
ARC
  5
E11
330
6F
100
AcDbEntity
  8
0
  6
Continuous
100
AcDbCircle
 10
6.279473620400949
 20
-505.4045257421967
 30
0.0
 40
8.0
100
AcDbArc
 50
0.0
 51
0.0
  0
ARC
  5
E12
330
6F
100
AcDbEntity
  8
0
  6
Continuous
100
AcDbCircle
 10
255.3355636204011
 20
-505.4045257421967
 30
0.0
 40
8.0
100
AcDbArc
 50
0.0
 51
90.0
  0
ARC
  5
E13
330
6F
100
AcDbEntity
  8
0
  6
Continuous
100
AcDbCircle
 10
255.335563620401
 20
-590.9539857421966
 30
0.0
 40
8.0
100
AcDbArc
 50
270.0
 51
0.0
  0
ARC
  5
E14
330
6F
100
AcDbEntity
  8
0
  6
Continuous
100
AcDbCircle
 10
6.279473620400951
 20
-590.9539857421966
 30
0.0
 40
8.0
100
AcDbArc
 50
180.0
 51
270.0
  0
ARC
  5
E2B
330
6F
100
AcDbEntity
  8
0
  6
Continuous
100
AcDbCircle
 10
10.25564326723906
 20
-437.6855594192424
 30
0.0
 40
3.0
100
AcDbArc
 50
180.0
 51
270.0
  0
ARC
  5
E2C
330
6F
100
AcDbEntity
  8
0
  6
Continuous
100
AcDbCircle
 10
10.25564326723907
 20
-366.1360994192425
 30
0.0
 40
3.0
100
AcDbArc
 50
89.99999999999996
 51
180.0
  0
ARC
  5
E2D
330
6F
100
AcDbEntity
  8
0
  6
Continuous
100
AcDbCircle
 10
253.3117332672393
 20
-366.1360994192427
 30
0.0
 40
3.0
100
AcDbArc
 50
0.0
 51
90.0
  0
ARC
  5
E2E
330
6F
100
AcDbEntity
  8
0
  6
Continuous
100
AcDbCircle
 10
253.3117332672391
 20
-437.6855594192424
 30
0.0
 40
3.0
100
AcDbArc
 50
270.0
 51
0.0
  0
ARC
  5
E2F
330
6F
100
AcDbEntity
  8
0
  6
Continuous
100
AcDbCircle
 10
8.547509331196849
 20
-120.3131622512643
 30
0.0
 40
3.0
100
AcDbArc
 50
180.0
 51
270.0
  0
ARC
  5
E31
330
6F
100
AcDbEntity
  8
0
  6
Continuous
100
AcDbCircle
 10
8.547509331196852
 20
-48.7637022512644
 30
0.0
 40
3.0
100
AcDbArc
 50
90.0
 51
180.0
  0
ARC
  5
E33
330
6F
100
AcDbEntity
  8
0
  6
Continuous
100
AcDbCircle
 10
251.6035993311969
 20
-120.3131622512643
 30
0.0
 40
3.0
100
AcDbArc
 50
270.0
 51
359.9999999999997
  0
ARC
  5
E35
330
6F
100
AcDbEntity
  8
0
  6
Continuous
100
AcDbCircle
 10
251.6035993311971
 20
-48.76370225126442
 30
0.0
 40
3.0
100
AcDbArc
 50
359.9999999999998
 51
90.0
  0
ARC
  5
E37
330
6F
100
AcDbEntity
  8
0
  6
Continuous
100
AcDbCircle
 10
10.13225881336439
 20
-215.2089605310335
 30
0.0
 40
3.0
100
AcDbArc
 50
90.0
 51
180.0
  0
ARC
  5
E38
330
6F
100
AcDbEntity
  8
0
  6
Continuous
100
AcDbCircle
 10
253.1883488133646
 20
-215.2089605310335
 30
0.0
 40
3.0
100
AcDbArc
 50
0.0
 51
90.0
  0
ARC
  5
E3A
330
6F
100
AcDbEntity
  8
0
  6
Continuous
100
AcDbCircle
 10
231.6193488133643
 20
-286.7584205310333
 30
0.0
 40
3.0
100
AcDbArc
 50
270.0
 51
0.0
  0
ARC
  5
E3C
330
6F
100
AcDbEntity
  8
0
  6
Continuous
100
AcDbCircle
 10
31.68224881336438
 20
-286.7584205310334
 30
0.0
 40
3.0
100
AcDbArc
 50
180.0000000000011
 51
270.0
  0
ARC
  5
E3D
330
6F
100
AcDbEntity
  8
0
  6
Continuous
100
AcDbCircle
 10
25.68224881336438
 20
-273.6084605310334
 30
0.0
 40
3.0
100
AcDbArc
 50
0.0
 51
90.0
  0
ARC
  5
E3F
330
6F
100
AcDbEntity
  8
0
  6
Continuous
100
AcDbCircle
 10
237.6193488133643
 20
-273.6084605310334
 30
0.0
 40
3.0
100
AcDbArc
 50
90.00000000000108
 51
180.0
  0
ARC
  5
E43
330
6F
100
AcDbEntity
  8
0
  6
Continuous
100
AcDbCircle
 10
10.13225881336438
 20
-267.6084605310334
 30
0.0
 40
3.0
100
AcDbArc
 50
180.0
 51
270.0000000000002
  0
ARC
  5
E45
330
6F
100
AcDbEntity
  8
0
  6
Continuous
100
AcDbCircle
 10
253.1883488133645
 20
-267.6084605310334
 30
0.0
 40
3.0
100
AcDbArc
 50
270.0
 51
0.0
  0
LINE
  5
E48
330
6F
100
AcDbEntity
  8
0
  6
Continuous
100
AcDbLine
 10
125.7836882672392
 20
-360.1360994192426
 30
0.0
 11
125.7836882672392
 21
-350.1360994192427
 31
0.0
  0
LINE
  5
E49
330
6F
100
AcDbEntity
  8
0
  6
Continuous
100
AcDbLine
 10
137.7836882672392
 20
-360.1360994192427
 30
0.0
 11
137.7836882672392
 21
-350.1360994192426
 31
0.0
  0
ARC
  5
E4F
330
6F
100
AcDbEntity
  8
0
  6
Continuous
100
AcDbCircle
 10
140.7836882672392
 20
-360.1360994192426
 30
0.0
 40
3.0
100
AcDbArc
 50
180.0
 51
270.0
  0
LINE
  5
E52
330
6F
100
AcDbEntity
  8
0
 62
     0
100
AcDbLine
 10
140.7836882672392
 20
-347.1360994192426
 30
0.0
 11
256.3117332672393
 21
-347.1360994192426
 31
0.0
  0
LINE
  5
E55
330
6F
100
AcDbEntity
  8
0
 62
     0
100
AcDbLine
 10
140.7836882672392
 20
-363.1360994192426
 30
0.0
 11
253.3117332672393
 21
-363.1360994192427
 31
0.0
  0
ARC
  5
E56
330
6F
100
AcDbEntity
  8
0
  6
Continuous
100
AcDbCircle
 10
122.7836882672392
 20
-350.1360994192427
 30
0.0
 40
3.0
100
AcDbArc
 50
0.0
 51
90.0
  0
ARC
  5
E57
330
6F
100
AcDbEntity
  8
0
  6
Continuous
100
AcDbCircle
 10
122.7836882672392
 20
-360.1360994192426
 30
0.0
 40
3.0
100
AcDbArc
 50
270.0
 51
0.0
  0
ARC
  5
E58
330
6F
100
AcDbEntity
  8
0
  6
Continuous
100
AcDbCircle
 10
140.7836882672392
 20
-350.1360994192426
 30
0.0
 40
3.0
100
AcDbArc
 50
90.0
 51
180.0
  0
ENDSEC
  0
SECTION
  2
OBJECTS
  0
DICTIONARY
  5
C
330
0
100
AcDbDictionary
281
     1
  3
ACAD_CIP_PREVIOUS_PRODUCT_INFO
350
126
  3
ACAD_COLOR
350
62
  3
ACAD_DETAILVIEWSTYLE
350
69
  3
ACAD_GROUP
350
D
  3
ACAD_LAYOUT
350
61
  3
ACAD_MATERIAL
350
10
  3
ACAD_MLEADERSTYLE
350
65
  3
ACAD_MLINESTYLE
350
5E
  3
ACAD_PLOTSETTINGS
350
60
  3
ACAD_PLOTSTYLENAME
350
E
  3
ACAD_SCALELIST
350
42
  3
ACAD_SECTIONVIEWSTYLE
350
67
  3
ACAD_TABLESTYLE
350
63
  3
ACAD_VISUALSTYLE
350
29
  3
ACDB_RECOMPOSE_DATA
350
E65
  3
AcDbVariableDictionary
350
60C
  0
DICTIONARY
  5
128
330
2
100
AcDbDictionary
280
     1
281
     1
  3
ACAD_LAYERSTATES
360
129
  0
DICTIONARY
  5
E5A
330
54
100
AcDbDictionary
280
     1
281
     1
  3
ADSK_XREC_LAYER_RECONCILED
360
E5B
  0
DICTIONARY
  5
397
330
6F
100
AcDbDictionary
280
     1
281
     1
  3
ACAD_SORTENTS
360
398
  0
XRECORD
  5
126
102
{ACAD_REACTORS
330
C
102
}
330
C
100
AcDbXrecord
280
     1
300
ACDMAC
300
2022
300
ACDMAC_F_S
  0
DICTIONARY
  5
62
102
{ACAD_REACTORS
330
C
102
}
330
C
100
AcDbDictionary
281
     1
  0
DICTIONARY
  5
69
102
{ACAD_REACTORS
330
C
102
}
330
C
100
AcDbDictionary
281
     1
  3
Imperial24
350
6A
  0
DICTIONARY
  5
D
102
{ACAD_REACTORS
330
C
102
}
330
C
100
AcDbDictionary
281
     1
  0
DICTIONARY
  5
61
102
{ACAD_REACTORS
330
C
102
}
330
C
100
AcDbDictionary
281
     1
  3
Model
350
72
  3
1
350
6E
  0
DICTIONARY
  5
10
102
{ACAD_REACTORS
330
C
102
}
330
C
100
AcDbDictionary
281
     1
  3
ByBlock
350
19
  3
ByLayer
350
11
  3
Global
350
21
  0
DICTIONARY
  5
65
102
{ACAD_REACTORS
330
C
102
}
330
C
100
AcDbDictionary
281
     1
  3
Standard
350
66
  0
DICTIONARY
  5
5E
102
{ACAD_REACTORS
330
C
102
}
330
C
100
AcDbDictionary
281
     1
  3
Standard
350
5F
  0
DICTIONARY
  5
60
102
{ACAD_REACTORS
330
C
102
}
330
C
100
AcDbDictionary
281
     1
  0
ACDBDICTIONARYWDFLT
  5
E
102
{ACAD_REACTORS
330
C
102
}
330
C
100
AcDbDictionary
281
     1
  3
Normal
350
F
100
AcDbDictionaryWithDefault
340
F
  0
DICTIONARY
  5
42
102
{ACAD_REACTORS
330
C
102
}
330
C
100
AcDbDictionary
281
     1
  3
A0
350
43
  3
A1
350
44
  3
A2
350
45
  3
A3
350
46
  3
A4
350
47
  3
A5
350
48
  3
A6
350
49
  3
A7
350
4A
  3
A8
350
4B
  3
A9
350
4C
  3
B0
350
4D
  3
B1
350
4E
  3
B2
350
4F
  3
B3
350
50
  3
B4
350
51
  3
B5
350
52
  3
B6
350
53
  0
DICTIONARY
  5
67
102
{ACAD_REACTORS
330
C
102
}
330
C
100
AcDbDictionary
281
     1
  3
Imperial24
350
68
  0
DICTIONARY
  5
63
102
{ACAD_REACTORS
330
C
102
}
330
C
100
AcDbDictionary
281
     1
  3
Standard
350
64
  0
DICTIONARY
  5
29
102
{ACAD_REACTORS
330
C
102
}
330
C
100
AcDbDictionary
281
     1
  3
2dWireframe
350
2F
  3
Basic
350
2E
  3
Brighten
350
35
  3
ColorChange
350
39
  3
Conceptual
350
32
  3
Dim
350
34
  3
EdgeColorOff
350
41
  3
Facepattern
350
38
  3
Flat
350
2A
  3
FlatWithEdges
350
2B
  3
Gouraud
350
2C
  3
GouraudWithEdges
350
2D
  3
Hidden
350
31
  3
JitterOff
350
3F
  3
Linepattern
350
37
  3
OverhangOff
350
40
  3
Realistic
350
33
  3
Shaded
350
3E
  3
Shaded with edges
350
3D
  3
Shades of Gray
350
3A
  3
Sketchy
350
3B
  3
Thicken
350
36
  3
Wireframe
350
30
  3
X-Ray
350
3C
  0
XRECORD
  5
E65
102
{ACAD_REACTORS
330
C
102
}
330
C
100
AcDbXrecord
280
     1
 90
        1
330
64
  0
DICTIONARY
  5
60C
102
{ACAD_REACTORS
330
C
102
}
330
C
100
AcDbDictionary
281
     1
  3
CANNOSCALE
350
612
  3
CMLEADERSTYLE
350
60E
  3
CTABLESTYLE
350
60D
  3
CVIEWDETAILSTYLE
350
60F
  3
CVIEWSECTIONSTYLE
350
610
  3
LAYEREVAL
350
614
  3
LAYERNOTIFY
350
615
  3
LIGHTINGUNITS
350
613
  3
MSLTSCALE
350
611
  0
DICTIONARY
  5
129
102
{ACAD_REACTORS
330
128
102
}
330
128
100
AcDbDictionary
281
     1
  0
XRECORD
  5
E5B
102
{ACAD_REACTORS
330
E5A
102
}
330
E5A
100
AcDbXrecord
280
     1
290
     1
  0
SORTENTSTABLE
  5
398
102
{ACAD_REACTORS
330
397
102
}
330
397
100
AcDbSortentsTable
330
6F
331
28B
  5
299
331
28C
  5
29A
331
28D
  5
29C
331
28E
  5
29D
331
28F
  5
29E
331
2A7
  5
33F
331
327
  5
38A
331
328
  5
38C
331
329
  5
39A
331
32A
  5
74C
331
32B
  5
74E
331
35B
  5
756
331
376
  5
76D
331
377
  5
76E
331
378
  5
76F
331
379
  5
770
331
37A
  5
771
331
37B
  5
772
331
37C
  5
773
331
37D
  5
774
331
37E
  5
775
331
37F
  5
776
331
380
  5
777
331
381
  5
778
331
382
  5
779
331
383
  5
77A
331
384
  5
77B
331
385
  5
77C
331
386
  5
77D
331
387
  5
77E
331
388
  5
77F
331
389
  5
780
331
38A
  5
781
331
38B
  5
782
331
38C
  5
783
331
38D
  5
784
331
396
  5
2B8
331
399
  5
340
331
39A
  5
28B
331
39B
  5
750
331
74C
  5
785
331
74D
  5
786
331
74E
  5
787
331
74F
  5
788
331
750
  5
789
331
751
  5
78A
331
752
  5
78B
331
753
  5
78C
331
754
  5
78D
331
755
  5
78E
331
756
  5
78F
331
757
  5
790
331
758
  5
791
331
759
  5
792
331
75A
  5
793
331
75B
  5
794
331
75C
  5
795
331
75D
  5
796
331
75E
  5
797
331
75F
  5
798
331
760
  5
799
331
761
  5
79A
331
762
  5
79B
331
763
  5
79C
331
764
  5
79D
331
765
  5
79E
331
766
  5
79F
331
767
  5
7A0
331
768
  5
7A1
331
769
  5
7A2
331
76A
  5
7A3
331
76B
  5
7A4
331
76C
  5
7A5
331
76D
  5
7A6
331
76E
  5
7A7
331
76F
  5
7A8
331
770
  5
7A9
331
771
  5
7AA
331
772
  5
7AB
331
773
  5
7AC
331
774
  5
7AD
331
775
  5
7AE
331
776
  5
7AF
331
777
  5
7B0
331
778
  5
7B1
331
779
  5
7B2
331
77A
  5
7B3
331
77B
  5
7B4
331
77C
  5
7B5
331
77D
  5
7B6
331
77E
  5
7B7
331
77F
  5
7B8
331
780
  5
7B9
331
781
  5
7BA
331
782
  5
7BB
331
783
  5
7BC
331
784
  5
7BD
331
785
  5
7BE
331
786
  5
7BF
331
787
  5
7C0
331
788
  5
7C1
331
789
  5
7C2
331
78A
  5
7C3
331
78B
  5
7C4
331
78C
  5
7C5
331
78D
  5
7C6
331
78E
  5
7C7
331
78F
  5
7C8
331
790
  5
7C9
331
791
  5
7CA
331
792
  5
7CB
331
793
  5
7CC
331
794
  5
7CD
331
795
  5
7CE
331
796
  5
7CF
331
797
  5
7D0
331
798
  5
7D1
331
799
  5
7D2
331
79A
  5
7D3
331
79B
  5
7D4
331
79C
  5
7D5
331
79D
  5
7D6
331
79E
  5
7D7
331
79F
  5
7D8
331
7A0
  5
7D9
331
7A1
  5
7DA
331
7A2
  5
7DB
331
7A3
  5
7DC
331
7A4
  5
7DD
331
7A5
  5
7DE
331
7A6
  5
7DF
331
7A7
  5
7E0
331
7A8
  5
7E1
331
7A9
  5
7E2
331
7AA
  5
7E3
331
7AB
  5
7E4
331
7AC
  5
7E5
331
7AD
  5
7E6
331
7AE
  5
7E7
331
7AF
  5
7E8
331
7B0
  5
7E9
331
7B1
  5
7EA
331
7B2
  5
7EB
331
7B3
  5
7EC
331
7B4
  5
7ED
331
7B5
  5
7EE
331
7B6
  5
7EF
331
7B7
  5
7F0
331
7B8
  5
7F1
331
7B9
  5
7F2
331
7BA
  5
7F3
331
7BB
  5
7F4
331
7BC
  5
7F5
331
7BD
  5
7F6
331
7BE
  5
7F7
331
7BF
  5
7F8
331
7C0
  5
7F9
331
7C1
  5
7FA
331
7C2
  5
7FB
331
7C3
  5
7FC
331
7C4
  5
7FD
331
7C5
  5
7FE
331
7C6
  5
7FF
331
7C7
  5
800
331
7C8
  5
801
331
7C9
  5
802
331
7CA
  5
803
331
7CB
  5
804
331
7CC
  5
805
331
7CD
  5
806
331
7CE
  5
807
331
7CF
  5
808
331
7D0
  5
809
331
7D1
  5
80A
331
7D2
  5
80B
331
7D3
  5
80C
331
7D4
  5
80D
331
7D5
  5
80E
331
7D6
  5
80F
331
7D7
  5
810
331
7D8
  5
811
331
7D9
  5
812
331
7DA
  5
813
331
7DB
  5
814
331
7DC
  5
815
331
7DD
  5
816
331
7DE
  5
817
331
7DF
  5
818
331
7E0
  5
819
331
7E1
  5
81A
331
7E2
  5
81B
331
7E3
  5
81C
331
7E4
  5
81D
331
7E5
  5
81E
331
7E6
  5
81F
331
7E7
  5
820
331
7E8
  5
821
331
7E9
  5
822
331
7EA
  5
823
331
7EB
  5
824
331
7EC
  5
825
331
7ED
  5
826
331
7EE
  5
827
331
7EF
  5
828
331
7F0
  5
829
331
7F1
  5
82A
331
7F2
  5
82B
331
7F3
  5
82C
331
7F4
  5
82D
331
7F5
  5
82E
331
7F6
  5
82F
331
7F7
  5
830
331
7F8
  5
831
331
7F9
  5
832
331
7FA
  5
833
331
7FB
  5
834
331
7FC
  5
835
331
7FD
  5
836
331
7FE
  5
837
331
7FF
  5
838
331
800
  5
839
331
801
  5
83A
331
802
  5
83B
331
803
  5
83C
331
804
  5
83D
331
805
  5
83E
331
806
  5
83F
331
807
  5
840
331
808
  5
841
331
809
  5
842
331
80A
  5
843
331
80B
  5
844
331
80C
  5
845
331
80D
  5
846
331
80E
  5
847
331
80F
  5
848
331
810
  5
849
331
811
  5
84A
331
812
  5
84B
331
813
  5
84C
331
814
  5
84D
331
815
  5
84E
331
816
  5
84F
331
817
  5
850
331
818
  5
851
331
819
  5
852
331
81A
  5
853
331
81B
  5
854
331
81C
  5
855
331
81D
  5
856
331
81E
  5
857
331
81F
  5
858
331
820
  5
859
331
821
  5
85A
331
822
  5
85B
331
823
  5
85C
331
824
  5
85D
331
825
  5
85E
331
826
  5
85F
331
827
  5
860
331
828
  5
861
331
829
  5
862
331
82A
  5
863
331
82B
  5
864
331
82C
  5
865
331
82D
  5
866
331
82E
  5
867
331
82F
  5
868
331
830
  5
869
331
831
  5
86A
331
832
  5
86B
331
833
  5
86C
331
834
  5
86D
331
835
  5
86E
331
836
  5
86F
331
837
  5
870
331
838
  5
871
331
839
  5
872
331
83A
  5
873
331
83B
  5
874
331
83C
  5
875
331
83D
  5
876
331
83E
  5
877
331
83F
  5
878
331
840
  5
879
331
841
  5
87A
331
842
  5
87B
331
843
  5
87C
331
844
  5
87D
331
845
  5
87E
331
846
  5
87F
331
847
  5
880
331
848
  5
881
331
849
  5
882
331
84A
  5
883
331
84B
  5
884
331
84C
  5
ADB
331
84D
  5
ADC
331
84E
  5
ADD
331
84F
  5
ADE
331
850
  5
ADF
331
851
  5
AE0
331
852
  5
AE1
331
853
  5
AE2
331
854
  5
AE3
331
855
  5
AE4
331
856
  5
AE5
331
857
  5
AE6
331
858
  5
AE7
331
859
  5
AE8
331
85A
  5
AE9
331
85B
  5
AEA
331
85C
  5
AEB
331
85D
  5
AEC
331
85E
  5
AED
331
85F
  5
AEE
331
860
  5
AEF
331
861
  5
AF0
331
862
  5
AF1
331
863
  5
AF2
331
864
  5
C22
331
865
  5
C23
331
866
  5
C24
331
867
  5
C25
331
868
  5
C26
331
869
  5
C27
331
86A
  5
C28
331
86B
  5
C29
331
86C
  5
C2A
331
86D
  5
C2B
331
86E
  5
C2C
331
86F
  5
C2D
331
870
  5
C55
331
871
  5
C56
331
872
  5
C61
331
873
  5
C6C
331
874
  5
C72
331
875
  5
C74
331
876
  5
CA2
331
877
  5
CF1
331
878
  5
CF2
331
879
  5
D25
331
87A
  5
D26
331
87B
  5
D57
331
87C
  5
33E
331
87D
  5
297
331
87E
  5
755
331
880
  5
388
331
ADB
  5
76B
331
ADC
  5
769
331
ADD
  5
767
331
ADE
  5
765
331
ADF
  5
763
331
AE0
  5
757
331
AE1
  5
759
331
AE2
  5
75B
331
AE3
  5
75D
331
AE4
  5
761
331
AE5
  5
2B6
331
AE6
  5
29F
331
AE7
  5
762
331
AE8
  5
75E
331
AE9
  5
75C
331
AEA
  5
75A
331
AEB
  5
758
331
AEC
  5
764
331
AED
  5
766
331
AEE
  5
768
331
AEF
  5
76A
331
AF0
  5
76C
331
AF1
  5
2B5
331
AF2
  5
2B7
331
C49
  5
D58
331
C4A
  5
D5B
331
C55
  5
D5C
331
C60
  5
D64
331
C66
  5
D67
331
C68
  5
D6C
331
C69
  5
DED
331
C96
  5
DF2
331
CE5
  5
DF6
331
CE6
  5
DF8
331
D19
  5
DF9
331
D1A
  5
DFB
331
D4A
  5
291
331
D4B
  5
290
331
D4C
  5
28F
331
D4D
  5
28E
331
D4E
  5
28D
331
D4F
  5
753
331
D50
  5
384
331
D51
  5
37E
331
D52
  5
345
331
D53
  5
344
331
D54
  5
342
331
D55
  5
33C
331
D5E
  5
DFC
331
D5F
  5
E0C
331
D61
  5
E0E
331
D65
  5
E0D
331
D66
  5
E0F
331
D67
  5
E11
331
D69
  5
E14
331
D6A
  5
E10
331
D6C
  5
E13
331
DEC
  5
E16
331
DED
  5
E17
331
DF1
  5
E19
331
DF2
  5
E1A
331
DF4
  5
E1C
331
DF5
  5
E20
331
DF6
  5
E24
331
DF7
  5
E25
331
DF8
  5
E26
331
DF9
  5
E27
331
DFA
  5
E28
331
DFB
  5
E29
331
DFC
  5
E2A
331
E0C
  5
E2B
331
E0D
  5
E2C
331
E0E
  5
E2D
331
E0F
  5
E2E
331
E10
  5
E2F
331
E11
  5
E31
331
E12
  5
E35
331
E13
  5
E36
331
E14
  5
E37
331
E2B
  5
E38
331
E2C
  5
E3A
331
E2D
  5
E3C
331
E2E
  5
E3D
331
E2F
  5
E3F
331
E31
  5
E40
331
E33
  5
E42
331
E35
  5
E41
331
E37
  5
E43
331
E38
  5
E46
331
E3A
  5
E49
331
E3C
  5
E4B
331
E3D
  5
E4A
331
E3F
  5
E48
331
E43
  5
E4C
331
E45
  5
E4D
331
E48
  5
E50
331
E49
  5
E4E
331
E4F
  5
E55
331
E52
  5
E21
331
E55
  5
E1D
331
E56
  5
E59
331
E57
  5
E58
331
E58
  5
E53
  0
ACDBDETAILVIEWSTYLE
  5
6A
102
{ACAD_REACTORS
330
69
102
}
330
69
100
AcDbModelDocViewStyle
 70
     0
  3
Imperial24
290
     0
300
Imperial24
 90
        0
100
AcDbDetailViewStyle
 70
     0
 71
     0
 90
        3
 71
     1
340
55
 62
   256
 40
0.24
340
0
 62
   256
 40
0.24
300

 40
0.36
280
     3
 71
     2
340
5C
 90
       25
 62
   256
 71
     3
340
55
 62
   256
 40
0.24
 90
        1
 40
0.75
 90
        1
300
%<\AcVar ViewType \f "%tc1">% %<\AcVar ViewDetailId>%\PSCALE %<\AcVar ViewScale \f "%sn">%
 71
     4
340
5C
 90
       25
 62
   256
340
5C
 90
       25
 62
   256
280
     0
  0
LAYOUT
  5
72
102
{ACAD_REACTORS
330
61
102
}
330
61
100
AcDbPlotSettings
  1

  2

  4

  6

 40
0.0
 41
0.0
 42
0.0
 43
0.0
 44
0.0
 45
0.0
 46
0.0
 47
0.0
 48
0.0
 49
0.0
140
0.0
141
0.0
142
1.0
143
1.0
 70
  1712
 72
     0
 73
     0
 74
     0
  7

 75
     0
147
1.0
 76
     0
 77
     2
 78
   300
148
0.0
149
0.0
100
AcDbLayout
  1
Model
 70
     1
 71
     0
 10
0.0
 20
0.0
 11
12.0
 21
9.0
 12
0.0
 22
0.0
 32
0.0
 14
0.0
 24
0.0
 34
0.0
 15
0.0
 25
0.0
 35
0.0
146
0.0
 13
0.0
 23
0.0
 33
0.0
 16
1.0
 26
0.0
 36
0.0
 17
0.0
 27
1.0
 37
0.0
 76
     0
330
6F
331
74
  0
LAYOUT
  5
6E
102
{ACAD_REACTORS
330
61
102
}
330
61
100
AcDbPlotSettings
  1

  2

  4

  6

 40
0.0
 41
0.0
 42
0.0
 43
0.0
 44
0.0
 45
0.0
 46
0.0
 47
0.0
 48
0.0
 49
0.0
140
0.0
141
0.0
142
1.0
143
1.0
 70
   688
 72
     0
 73
     0
 74
     5
  7

 75
    16
147
1.0
 76
     0
 77
     2
 78
   300
148
0.0
149
0.0
100
AcDbLayout
  1
1
 70
     1
 71
     1
 10
0.0
 20
0.0
 11
12.0
 21
9.0
 12
0.0
 22
0.0
 32
0.0
 14
1.000000000000000E+20
 24
1.000000000000000E+20
 34
1.000000000000000E+20
 15
-1.000000000000000E+20
 25
-1.000000000000000E+20
 35
-1.000000000000000E+20
146
0.0
 13
0.0
 23
0.0
 33
0.0
 16
1.0
 26
0.0
 36
0.0
 17
0.0
 27
1.0
 37
0.0
 76
     0
330
6B
  0
MATERIAL
  5
19
102
{ACAD_XDICTIONARY
360
1A
102
}
102
{ACAD_REACTORS
330
10
102
}
330
10
100
AcDbMaterial
  1
ByBlock
 72
     0
 43
0.0208333333333333
 43
0.0
 43
0.0
 43
0.0
 43
0.0
 43
0.0208333333333333
 43
0.0
 43
0.0
 43
0.0
 43
0.0
 43
1.0
 43
0.0
 43
0.0
 43
0.0
 43
0.0
 43
1.0
 77
     0
 47
0.0208333333333333
 47
0.0
 47
0.0
 47
0.0
 47
0.0
 47
0.0208333333333333
 47
0.0
 47
0.0
 47
0.0
 47
0.0
 47
1.0
 47
0.0
 47
0.0
 47
0.0
 47
0.0
 47
1.0
171
     0
 49
0.0208333333333333
 49
0.0
 49
0.0
 49
0.0
 49
0.0
 49
0.0208333333333333
 49
0.0
 49
0.0
 49
0.0
 49
0.0
 49
1.0
 49
0.0
 49
0.0
 49
0.0
 49
0.0
 49
1.0
175
     0
142
0.0208333333333333
142
0.0
142
0.0
142
0.0
142
0.0
142
0.0208333333333333
142
0.0
142
0.0
142
0.0
142
0.0
142
1.0
142
0.0
142
0.0
142
0.0
142
0.0
142
1.0
179
     0
144
0.0208333333333333
144
0.0
144
0.0
144
0.0
144
0.0
144
0.0208333333333333
144
0.0
144
0.0
144
0.0
144
0.0
144
1.0
144
0.0
144
0.0
144
0.0
144
0.0
144
1.0
147
0.0208333333333333
147
0.0
147
0.0
147
0.0
147
0.0
147
0.0208333333333333
147
0.0
147
0.0
147
0.0
147
0.0
147
1.0
147
0.0
147
0.0
147
0.0
147
0.0
147
1.0
  0
MATERIAL
  5
11
102
{ACAD_XDICTIONARY
360
12
102
}
102
{ACAD_REACTORS
330
10
102
}
330
10
100
AcDbMaterial
  1
ByLayer
 72
     0
 43
0.0208333333333333
 43
0.0
 43
0.0
 43
0.0
 43
0.0
 43
0.0208333333333333
 43
0.0
 43
0.0
 43
0.0
 43
0.0
 43
1.0
 43
0.0
 43
0.0
 43
0.0
 43
0.0
 43
1.0
 77
     0
 47
0.0208333333333333
 47
0.0
 47
0.0
 47
0.0
 47
0.0
 47
0.0208333333333333
 47
0.0
 47
0.0
 47
0.0
 47
0.0
 47
1.0
 47
0.0
 47
0.0
 47
0.0
 47
0.0
 47
1.0
171
     0
 49
0.0208333333333333
 49
0.0
 49
0.0
 49
0.0
 49
0.0
 49
0.0208333333333333
 49
0.0
 49
0.0
 49
0.0
 49
0.0
 49
1.0
 49
0.0
 49
0.0
 49
0.0
 49
0.0
 49
1.0
175
     0
142
0.0208333333333333
142
0.0
142
0.0
142
0.0
142
0.0
142
0.0208333333333333
142
0.0
142
0.0
142
0.0
142
0.0
142
1.0
142
0.0
142
0.0
142
0.0
142
0.0
142
1.0
179
     0
144
0.0208333333333333
144
0.0
144
0.0
144
0.0
144
0.0
144
0.0208333333333333
144
0.0
144
0.0
144
0.0
144
0.0
144
1.0
144
0.0
144
0.0
144
0.0
144
0.0
144
1.0
147
0.0208333333333333
147
0.0
147
0.0
147
0.0
147
0.0
147
0.0208333333333333
147
0.0
147
0.0
147
0.0
147
0.0
147
1.0
147
0.0
147
0.0
147
0.0
147
0.0
147
1.0
  0
MATERIAL
  5
21
102
{ACAD_XDICTIONARY
360
22
102
}
102
{ACAD_REACTORS
330
10
102
}
330
10
100
AcDbMaterial
  1
Global
 72
     0
 43
0.0208333333333333
 43
0.0
 43
0.0
 43
0.0
 43
0.0
 43
0.0208333333333333
 43
0.0
 43
0.0
 43
0.0
 43
0.0
 43
1.0
 43
0.0
 43
0.0
 43
0.0
 43
0.0
 43
1.0
 77
     0
 47
0.0208333333333333
 47
0.0
 47
0.0
 47
0.0
 47
0.0
 47
0.0208333333333333
 47
0.0
 47
0.0
 47
0.0
 47
0.0
 47
1.0
 47
0.0
 47
0.0
 47
0.0
 47
0.0
 47
1.0
171
     0
 49
0.0208333333333333
 49
0.0
 49
0.0
 49
0.0
 49
0.0
 49
0.0208333333333333
 49
0.0
 49
0.0
 49
0.0
 49
0.0
 49
1.0
 49
0.0
 49
0.0
 49
0.0
 49
0.0
 49
1.0
175
     0
142
0.0208333333333333
142
0.0
142
0.0
142
0.0
142
0.0
142
0.0208333333333333
142
0.0
142
0.0
142
0.0
142
0.0
142
1.0
142
0.0
142
0.0
142
0.0
142
0.0
142
1.0
179
     0
144
0.0208333333333333
144
0.0
144
0.0
144
0.0
144
0.0
144
0.0208333333333333
144
0.0
144
0.0
144
0.0
144
0.0
144
1.0
144
0.0
144
0.0
144
0.0
144
0.0
144
1.0
147
0.0208333333333333
147
0.0
147
0.0
147
0.0
147
0.0
147
0.0208333333333333
147
0.0
147
0.0
147
0.0
147
0.0
147
1.0
147
0.0
147
0.0
147
0.0
147
0.0
147
1.0
  0
MLEADERSTYLE
  5
66
102
{ACAD_REACTORS
330
65
102
}
330
65
100
AcDbMLeaderStyle
179
     2
170
     2
171
     1
172
     0
 90
        2
 40
0.0
 41
0.0
173
     1
 91
-1056964608
340
5A
 92
       -2
290
     1
 42
0.09
291
     1
 43
0.36
  3
Standard
 44
0.18
300

342
55
174
     1
178
     6
175
     1
176
     0
 93
-1056964608
 45
0.18
292
     0
297
     0
 46
0.18
 94
-1056964608
 47
1.0
 49
1.0
140
1.0
293
     1
141
0.0
294
     1
177
     0
142
1.0
295
     0
296
     0
143
0.125
271
     0
272
     9
273
     9
298
     0
  0
MLINESTYLE
  5
5F
102
{ACAD_REACTORS
330
5E
102
}
330
5E
100
AcDbMlineStyle
  2
STANDARD
 70
     0
  3

 62
   256
 51
90.0
 52
90.0
 71
     2
 49
0.5
 62
   256
  6
BYLAYER
 49
-0.5
 62
   256
  6
BYLAYER
  0
ACDBPLACEHOLDER
  5
F
102
{ACAD_REACTORS
330
E
102
}
330
E
  0
SCALE
  5
43
102
{ACAD_REACTORS
330
42
102
}
330
42
100
AcDbScale
 70
     0
300
1:1
140
1.0
141
1.0
290
     1
  0
SCALE
  5
44
102
{ACAD_REACTORS
330
42
102
}
330
42
100
AcDbScale
 70
     0
300
1/128" = 1'-0"
140
0.0078125
141
12.0
290
     0
  0
SCALE
  5
45
102
{ACAD_REACTORS
330
42
102
}
330
42
100
AcDbScale
 70
     0
300
1/64" = 1'-0"
140
0.015625
141
12.0
290
     0
  0
SCALE
  5
46
102
{ACAD_REACTORS
330
42
102
}
330
42
100
AcDbScale
 70
     0
300
1/32" = 1'-0"
140
0.03125
141
12.0
290
     0
  0
SCALE
  5
47
102
{ACAD_REACTORS
330
42
102
}
330
42
100
AcDbScale
 70
     0
300
1/16" = 1'-0"
140
0.0625
141
12.0
290
     0
  0
SCALE
  5
48
102
{ACAD_REACTORS
330
42
102
}
330
42
100
AcDbScale
 70
     0
300
3/32" = 1'-0"
140
0.09375
141
12.0
290
     0
  0
SCALE
  5
49
102
{ACAD_REACTORS
330
42
102
}
330
42
100
AcDbScale
 70
     0
300
1/8" = 1'-0"
140
0.125
141
12.0
290
     0
  0
SCALE
  5
4A
102
{ACAD_REACTORS
330
42
102
}
330
42
100
AcDbScale
 70
     0
300
3/16" = 1'-0"
140
0.1875
141
12.0
290
     0
  0
SCALE
  5
4B
102
{ACAD_REACTORS
330
42
102
}
330
42
100
AcDbScale
 70
     0
300
1/4" = 1'-0"
140
0.25
141
12.0
290
     0
  0
SCALE
  5
4C
102
{ACAD_REACTORS
330
42
102
}
330
42
100
AcDbScale
 70
     0
300
3/8" = 1'-0"
140
0.375
141
12.0
290
     0
  0
SCALE
  5
4D
102
{ACAD_REACTORS
330
42
102
}
330
42
100
AcDbScale
 70
     0
300
1/2" = 1'-0"
140
0.5
141
12.0
290
     0
  0
SCALE
  5
4E
102
{ACAD_REACTORS
330
42
102
}
330
42
100
AcDbScale
 70
     0
300
3/4" = 1'-0"
140
0.75
141
12.0
290
     0
  0
SCALE
  5
4F
102
{ACAD_REACTORS
330
42
102
}
330
42
100
AcDbScale
 70
     0
300
1" = 1'-0"
140
1.0
141
12.0
290
     0
  0
SCALE
  5
50
102
{ACAD_REACTORS
330
42
102
}
330
42
100
AcDbScale
 70
     0
300
1-1/2" = 1'-0"
140
1.5
141
12.0
290
     0
  0
SCALE
  5
51
102
{ACAD_REACTORS
330
42
102
}
330
42
100
AcDbScale
 70
     0
300
3" = 1'-0"
140
3.0
141
12.0
290
     0
  0
SCALE
  5
52
102
{ACAD_REACTORS
330
42
102
}
330
42
100
AcDbScale
 70
     0
300
6" = 1'-0"
140
6.0
141
12.0
290
     0
  0
SCALE
  5
53
102
{ACAD_REACTORS
330
42
102
}
330
42
100
AcDbScale
 70
     0
300
1'-0" = 1'-0"
140
12.0
141
12.0
290
     0
  0
ACDBSECTIONVIEWSTYLE
  5
68
102
{ACAD_REACTORS
330
67
102
}
330
67
100
AcDbModelDocViewStyle
 70
     0
  3
Imperial24
290
     0
300
Imperial24
 90
        0
100
AcDbSectionViewStyle
 70
     0
 71
     0
 90
       78
 71
     1
340
55
 62
   256
 40
0.24
340
0
340
0
 62
   256
 40
0.24
300
I, O, Q, S, X, Z
 40
0.48
 90
        3
 40
0.18
 90
        1
 71
     2
340
5C
 90
       25
 62
   256
340
5C
 90
       50
 62
   256
 40
0.24
 40
0.0
 40
0.24
 71
     3
340
55
 62
   256
 40
0.24
 90
        1
 40
0.75
 90
        1
300
%<\AcVar ViewType \f "%tc1">% %<\AcVar ViewSectionStartId>%-%<\AcVar ViewSectionEndId>%\PSCALE %<\AcVar ViewScale \f "%sn">%
 71
     4
 62
   256
 62
   257
300
ANSI31
 40
1.0
 90
        0
290
     0
290
     0
 90
        6
 40
0.0
 40
1.570796326794896
 40
0.2617993877991494
 40
1.308996938995747
 40
-0.2617993877991494
 40
1.832595714594046
  0
TABLESTYLE
  5
64
102
{ACAD_XDICTIONARY
360
E63
102
}
102
{ACAD_REACTORS
330
63
102
}
330
63
100
AcDbTableStyle
280
     0
  3
Standard
 70
     0
 71
     0
 40
0.06
 41
0.06
280
     0
281
     0
  7
Standard
140
0.18
170
     2
 62
     0
 63
     7
283
     0
 90
      512
 91
        0
  1

274
    -2
284
     1
 64
     0
275
    -2
285
     1
 65
     0
276
    -2
286
     1
 66
     0
277
    -2
287
     1
 67
     0
278
    -2
288
     1
 68
     0
279
    -2
289
     1
 69
     0
  7
Standard
140
0.25
170
     5
 62
     0
 63
     7
283
     0
 90
      512
 91
        0
  1

274
    -2
284
     1
 64
     0
275
    -2
285
     1
 65
     0
276
    -2
286
     1
 66
     0
277
    -2
287
     1
 67
     0
278
    -2
288
     1
 68
     0
279
    -2
289
     1
 69
     0
  7
Standard
140
0.18
170
     5
 62
     0
 63
     7
283
     0
 90
      512
 91
        0
  1

274
    -2
284
     1
 64
     0
275
    -2
285
     1
 65
     0
276
    -2
286
     1
 66
     0
277
    -2
287
     1
 67
     0
278
    -2
288
     1
 68
     0
279
    -2
289
     1
 69
     0
  0
VISUALSTYLE
  5
2F
102
{ACAD_REACTORS
330
29
102
}
330
29
100
AcDbVisualStyle
  2
2dWireframe
 70
     4
177
     3
291
     0
 70
    58
 90
        0
176
     1
 90
        2
176
     1
 90
        0
176
     1
 90
        0
176
     1
 40
0.6
176
     1
 40
30.0
176
     1
 62
     7
420
 16777215
176
     1
 90
        1
176
     1
 90
        4
176
     1
 62
     7
176
     1
 62
   257
176
     1
 90
        1
176
     1
 90
        1
176
     1
 40
1.0
176
     1
 90
        0
176
     1
 62
   257
176
     1
 40
1.0
176
     1
 90
        1
176
     1
 90
        6
176
     1
 90
        2
176
     1
 62
     7
176
     1
 90
        5
176
     1
 90
        0
176
     1
 90
        0
176
     1
290
     0
176
     1
 90
        1
176
     1
 40
0.0
176
     1
 90
        0
176
     1
290
     1
176
     1
290
     1
176
     1
290
     0
176
     1
290
     0
176
     1
290
     0
176
     1
290
     0
176
     1
290
     0
176
     1
290
     0
176
     1
290
     0
176
     1
 90
       50
176
     1
 40
0.0
176
     1
 40
1.0
176
     1
 90
        0
176
     1
 62
    18
420
        0
176
     1
 90
       50
176
     1
 90
        3
176
     1
 62
     5
420
      255
176
     1
290
     0
176
     1
 90
       50
176
     1
 90
       50
176
     1
 90
       50
176
     1
290
     0
176
     1
 90
       50
176
     1
 62
   256
176
     0
 40
1.0
176
     0
 90
        2
176
     1
  1
strokes_ogs.tif
176
     1
290
     0
176
     1
 40
1.0
176
     1
 40
1.0
176
     1
  0
VISUALSTYLE
  5
2E
102
{ACAD_REACTORS
330
29
102
}
330
29
100
AcDbVisualStyle
  2
Basic
 70
     7
177
     3
291
     1
 70
    58
 90
        1
176
     1
 90
        0
176
     1
 90
        1
176
     1
 90
        0
176
     1
 40
0.6
176
     1
 40
30.0
176
     1
 62
     7
420
 16777215
176
     1
 90
        0
176
     1
 90
        4
176
     1
 62
     7
176
     1
 62
   257
176
     1
 90
        1
176
     1
 90
        1
176
     1
 40
1.0
176
     1
 90
        8
176
     1
 62
     7
176
     1
 40
1.0
176
     1
 90
        1
176
     1
 90
        6
176
     1
 90
        2
176
     1
 62
     7
176
     1
 90
        5
176
     1
 90
        0
176
     1
 90
        0
176
     1
290
     0
176
     1
 90
        1
176
     1
 40
0.0
176
     1
 90
        0
176
     1
290
     0
176
     1
290
     1
176
     1
290
     1
176
     1
290
     0
176
     1
290
     0
176
     1
290
     0
176
     1
290
     0
176
     1
290
     0
176
     1
290
     0
176
     1
 90
       50
176
     1
 40
0.0
176
     1
 40
1.0
176
     1
 90
        0
176
     1
 62
    18
420
        0
176
     1
 90
       50
176
     1
 90
        3
176
     1
 62
     5
420
      255
176
     1
290
     0
176
     1
 90
       50
176
     1
 90
       50
176
     1
 90
       50
176
     1
290
     0
176
     1
 90
       50
176
     1
 62
   256
176
     0
 40
1.0
176
     0
 90
        2
176
     1
  1
strokes_ogs.tif
176
     1
290
     0
176
     1
 40
1.0
176
     1
 40
1.0
176
     1
  0
VISUALSTYLE
  5
35
102
{ACAD_REACTORS
330
29
102
}
330
29
100
AcDbVisualStyle
  2
Brighten
 70
    12
177
     3
291
     1
 70
    58
 90
        2
176
     1
 90
        2
176
     1
 90
        0
176
     1
 90
        0
176
     1
 40
0.6
176
     1
 40
30.0
176
     1
 62
     7
420
 16777215
176
     1
 90
        1
176
     1
 90
        4
176
     1
 62
     7
176
     1
 62
   257
176
     1
 90
        1
176
     1
 90
        1
176
     1
 40
1.0
176
     1
 90
        8
176
     1
 62
     7
176
     1
 40
1.0
176
     1
 90
        1
176
     1
 90
        6
176
     1
 90
        2
176
     1
 62
     7
176
     1
 90
        5
176
     1
 90
        0
176
     1
 90
        0
176
     1
290
     0
176
     1
 90
        1
176
     1
 40
50.0
176
     1
 90
        0
176
     1
290
     0
176
     1
290
     1
176
     1
290
     1
176
     1
290
     0
176
     1
290
     0
176
     1
290
     0
176
     1
290
     0
176
     1
290
     0
176
     1
290
     0
176
     1
 90
       50
176
     1
 40
0.0
176
     1
 40
1.0
176
     1
 90
        0
176
     1
 62
    18
420
        0
176
     1
 90
       50
176
     1
 90
        3
176
     1
 62
     5
420
      255
176
     1
290
     0
176
     1
 90
       50
176
     1
 90
       50
176
     1
 90
       50
176
     1
290
     0
176
     1
 90
       50
176
     1
 62
   256
176
     0
 40
1.0
176
     0
 90
        2
176
     1
  1
strokes_ogs.tif
176
     1
290
     0
176
     1
 40
1.0
176
     1
 40
1.0
176
     1
  0
VISUALSTYLE
  5
39
102
{ACAD_REACTORS
330
29
102
}
330
29
100
AcDbVisualStyle
  2
ColorChange
 70
    16
177
     3
291
     1
 70
    58
 90
        2
176
     1
 90
        2
176
     1
 90
        3
176
     1
 90
        0
176
     1
 40
0.6
176
     1
 40
30.0
176
     1
 62
     8
420
  8421504
176
     1
 90
        1
176
     1
 90
        4
176
     1
 62
     7
176
     1
 62
   257
176
     1
 90
        1
176
     1
 90
        1
176
     1
 40
1.0
176
     1
 90
        8
176
     1
 62
     8
420
  8421504
176
     1
 40
1.0
176
     1
 90
        1
176
     1
 90
        6
176
     1
 90
        2
176
     1
 62
     7
176
     1
 90
        5
176
     1
 90
        0
176
     1
 90
        0
176
     1
290
     0
176
     1
 90
        1
176
     1
 40
0.0
176
     1
 90
        0
176
     1
290
     0
176
     1
290
     1
176
     1
290
     1
176
     1
290
     0
176
     1
290
     0
176
     1
290
     0
176
     1
290
     0
176
     1
290
     0
176
     1
290
     0
176
     1
 90
       50
176
     1
 40
0.0
176
     1
 40
1.0
176
     1
 90
        0
176
     1
 62
    18
420
        0
176
     1
 90
       50
176
     1
 90
        3
176
     1
 62
     5
420
      255
176
     1
290
     0
176
     1
 90
       50
176
     1
 90
       50
176
     1
 90
       50
176
     1
290
     0
176
     1
 90
       50
176
     1
 62
   256
176
     0
 40
1.0
176
     0
 90
        2
176
     1
  1
strokes_ogs.tif
176
     1
290
     0
176
     1
 40
1.0
176
     1
 40
1.0
176
     1
  0
VISUALSTYLE
  5
32
102
{ACAD_REACTORS
330
29
102
}
330
29
100
AcDbVisualStyle
  2
Conceptual
 70
     9
177
     3
291
     0
 70
    58
 90
        3
176
     1
 90
        2
176
     1
 90
        0
176
     1
 90
        0
176
     1
 40
0.6
176
     1
 40
30.0
176
     1
 62
     7
420
 16777215
176
     1
 90
        2
176
     1
 90
        2
176
     1
 62
     7
176
     1
 62
   257
176
     1
 90
        1
176
     1
 90
        1
176
     1
 40
179.0
176
     1
 90
        8
176
     1
 62
     7
176
     1
 40
1.0
176
     1
 90
        1
176
     1
 90
        6
176
     1
 90
        2
176
     1
 62
     7
176
     1
 90
        3
176
     1
 90
        0
176
     1
 90
        0
176
     1
290
     0
176
     1
 90
        1
176
     1
 40
0.0
176
     1
 90
        0
176
     1
290
     0
176
     1
290
     1
176
     1
290
     1
176
     1
290
     0
176
     1
290
     0
176
     1
290
     0
176
     1
290
     0
176
     1
290
     0
176
     1
290
     0
176
     1
 90
       50
176
     1
 40
0.0
176
     1
 40
1.0
176
     1
 90
        0
176
     1
 62
    18
420
        0
176
     1
 90
       50
176
     1
 90
        3
176
     1
 62
     5
420
      255
176
     1
290
     0
176
     1
 90
       50
176
     1
 90
       50
176
     1
 90
       50
176
     1
290
     0
176
     1
 90
       50
176
     1
 62
   256
176
     0
 40
1.0
176
     0
 90
        2
176
     1
  1
strokes_ogs.tif
176
     1
290
     0
176
     1
 40
1.0
176
     1
 40
1.0
176
     1
  0
VISUALSTYLE
  5
34
102
{ACAD_REACTORS
330
29
102
}
330
29
100
AcDbVisualStyle
  2
Dim
 70
    11
177
     3
291
     1
 70
    58
 90
        2
176
     1
 90
        2
176
     1
 90
        0
176
     1
 90
        0
176
     1
 40
0.6
176
     1
 40
30.0
176
     1
 62
     7
420
 16777215
176
     1
 90
        1
176
     1
 90
        4
176
     1
 62
     7
176
     1
 62
   257
176
     1
 90
        1
176
     1
 90
        1
176
     1
 40
1.0
176
     1
 90
        8
176
     1
 62
     7
176
     1
 40
1.0
176
     1
 90
        1
176
     1
 90
        6
176
     1
 90
        2
176
     1
 62
     7
176
     1
 90
        5
176
     1
 90
        0
176
     1
 90
        0
176
     1
290
     0
176
     1
 90
        1
176
     1
 40
-50.0
176
     1
 90
        0
176
     1
290
     0
176
     1
290
     1
176
     1
290
     1
176
     1
290
     0
176
     1
290
     0
176
     1
290
     0
176
     1
290
     0
176
     1
290
     0
176
     1
290
     0
176
     1
 90
       50
176
     1
 40
0.0
176
     1
 40
1.0
176
     1
 90
        0
176
     1
 62
    18
420
        0
176
     1
 90
       50
176
     1
 90
        3
176
     1
 62
     5
420
      255
176
     1
290
     0
176
     1
 90
       50
176
     1
 90
       50
176
     1
 90
       50
176
     1
290
     0
176
     1
 90
       50
176
     1
 62
   256
176
     0
 40
1.0
176
     0
 90
        2
176
     1
  1
strokes_ogs.tif
176
     1
290
     0
176
     1
 40
1.0
176
     1
 40
1.0
176
     1
  0
VISUALSTYLE
  5
41
102
{ACAD_REACTORS
330
29
102
}
330
29
100
AcDbVisualStyle
  2
EdgeColorOff
 70
    22
177
     3
291
     1
 70
    58
 90
        2
176
     0
 90
        2
176
     0
 90
        0
176
     0
 90
        0
176
     0
 40
0.6
176
     0
 40
30.0
176
     0
 62
     7
420
 16777215
176
     0
 90
        1
176
     0
 90
        4
176
     0
 62
     7
176
     0
 62
   257
176
     0
 90
        1
176
     0
 90
        1
176
     0
 40
1.0
176
     0
 90
        8
176
     2
 62
     7
176
     0
 40
1.0
176
     0
 90
        1
176
     0
 90
        6
176
     0
 90
        2
176
     0
 62
     7
176
     0
 90
        5
176
     0
 90
        0
176
     0
 90
        0
176
     0
290
     0
176
     0
 90
        1
176
     0
 40
0.0
176
     0
 90
        0
176
     0
290
     0
176
     1
290
     1
176
     1
290
     1
176
     1
290
     0
176
     1
290
     0
176
     1
290
     0
176
     1
290
     0
176
     1
290
     0
176
     1
290
     0
176
     1
 90
       50
176
     0
 40
0.0
176
     0
 40
1.0
176
     0
 90
        0
176
     0
 62
    18
420
        0
176
     0
 90
       50
176
     0
 90
        3
176
     0
 62
     5
420
      255
176
     0
290
     0
176
     1
 90
       50
176
     0
 90
       50
176
     0
 90
       50
176
     0
290
     0
176
     1
 90
       50
176
     0
 62
   256
176
     0
 40
1.0
176
     0
 90
        2
176
     0
  1
strokes_ogs.tif
176
     0
290
     0
176
     1
 40
1.0
176
     0
 40
1.0
176
     0
  0
VISUALSTYLE
  5
38
102
{ACAD_REACTORS
330
29
102
}
330
29
100
AcDbVisualStyle
  2
Facepattern
 70
    15
177
     3
291
     1
 70
    58
 90
        2
176
     1
 90
        2
176
     1
 90
        0
176
     1
 90
        0
176
     1
 40
0.6
176
     1
 40
30.0
176
     1
 62
     7
420
 16777215
176
     1
 90
        1
176
     1
 90
        4
176
     1
 62
     7
176
     1
 62
   257
176
     1
 90
        1
176
     1
 90
        1
176
     1
 40
1.0
176
     1
 90
        8
176
     1
 62
     7
176
     1
 40
1.0
176
     1
 90
        1
176
     1
 90
        6
176
     1
 90
        2
176
     1
 62
     7
176
     1
 90
        5
176
     1
 90
        0
176
     1
 90
        0
176
     1
290
     0
176
     1
 90
        1
176
     1
 40
0.0
176
     1
 90
        0
176
     1
290
     0
176
     1
290
     1
176
     1
290
     1
176
     1
290
     0
176
     1
290
     0
176
     1
290
     0
176
     1
290
     0
176
     1
290
     0
176
     1
290
     0
176
     1
 90
       50
176
     1
 40
0.0
176
     1
 40
1.0
176
     1
 90
        0
176
     1
 62
    18
420
        0
176
     1
 90
       50
176
     1
 90
        3
176
     1
 62
     5
420
      255
176
     1
290
     0
176
     1
 90
       50
176
     1
 90
       50
176
     1
 90
       50
176
     1
290
     0
176
     1
 90
       50
176
     1
 62
   256
176
     0
 40
1.0
176
     0
 90
        2
176
     1
  1
strokes_ogs.tif
176
     1
290
     0
176
     1
 40
1.0
176
     1
 40
1.0
176
     1
  0
VISUALSTYLE
  5
2A
102
{ACAD_REACTORS
330
29
102
}
330
29
100
AcDbVisualStyle
  2
Flat
 70
     0
177
     3
291
     1
 70
    58
 90
        2
176
     1
 90
        1
176
     1
 90
        1
176
     1
 90
        2
176
     1
 40
0.6
176
     1
 40
30.0
176
     1
 62
     7
420
 16777215
176
     1
 90
        0
176
     1
 90
        0
176
     1
 62
     7
176
     1
 62
   257
176
     1
 90
        1
176
     1
 90
        1
176
     1
 40
1.0
176
     1
 90
        8
176
     1
 62
     7
176
     1
 40
1.0
176
     1
 90
        1
176
     1
 90
        6
176
     1
 90
        2
176
     1
 62
     7
176
     1
 90
        5
176
     1
 90
        0
176
     1
 90
        0
176
     1
290
     0
176
     1
 90
       13
176
     1
 40
0.0
176
     1
 90
        0
176
     1
290
     0
176
     1
290
     1
176
     1
290
     1
176
     1
290
     0
176
     1
290
     0
176
     1
290
     0
176
     1
290
     0
176
     1
290
     0
176
     1
290
     0
176
     1
 90
       50
176
     1
 40
0.0
176
     1
 40
1.0
176
     1
 90
        0
176
     1
 62
    18
420
        0
176
     1
 90
       50
176
     1
 90
        3
176
     1
 62
     5
420
      255
176
     1
290
     0
176
     1
 90
       50
176
     1
 90
       50
176
     1
 90
       50
176
     1
290
     0
176
     1
 90
       50
176
     1
 62
   256
176
     0
 40
1.0
176
     0
 90
        2
176
     1
  1
strokes_ogs.tif
176
     1
290
     0
176
     1
 40
1.0
176
     1
 40
1.0
176
     1
  0
VISUALSTYLE
  5
2B
102
{ACAD_REACTORS
330
29
102
}
330
29
100
AcDbVisualStyle
  2
FlatWithEdges
 70
     1
177
     3
291
     1
 70
    58
 90
        2
176
     1
 90
        1
176
     1
 90
        1
176
     1
 90
        2
176
     1
 40
0.6
176
     1
 40
30.0
176
     1
 62
     7
420
 16777215
176
     1
 90
        1
176
     1
 90
        0
176
     1
 62
     7
176
     1
 62
   257
176
     1
 90
        1
176
     1
 90
        1
176
     1
 40
1.0
176
     1
 90
        0
176
     1
 62
   257
176
     1
 40
1.0
176
     1
 90
        1
176
     1
 90
        6
176
     1
 90
        2
176
     1
 62
     7
176
     1
 90
        5
176
     1
 90
        0
176
     1
 90
        0
176
     1
290
     0
176
     1
 90
       13
176
     1
 40
0.0
176
     1
 90
        0
176
     1
290
     0
176
     1
290
     1
176
     1
290
     1
176
     1
290
     0
176
     1
290
     0
176
     1
290
     0
176
     1
290
     0
176
     1
290
     0
176
     1
290
     0
176
     1
 90
       50
176
     1
 40
0.0
176
     1
 40
1.0
176
     1
 90
        0
176
     1
 62
    18
420
        0
176
     1
 90
       50
176
     1
 90
        3
176
     1
 62
     5
420
      255
176
     1
290
     0
176
     1
 90
       50
176
     1
 90
       50
176
     1
 90
       50
176
     1
290
     0
176
     1
 90
       50
176
     1
 62
   256
176
     0
 40
1.0
176
     0
 90
        2
176
     1
  1
strokes_ogs.tif
176
     1
290
     0
176
     1
 40
1.0
176
     1
 40
1.0
176
     1
  0
VISUALSTYLE
  5
2C
102
{ACAD_REACTORS
330
29
102
}
330
29
100
AcDbVisualStyle
  2
Gouraud
 70
     2
177
     3
291
     1
 70
    58
 90
        2
176
     1
 90
        2
176
     1
 90
        1
176
     1
 90
        2
176
     1
 40
0.6
176
     1
 40
30.0
176
     1
 62
     7
420
 16777215
176
     1
 90
        0
176
     1
 90
        0
176
     1
 62
     7
176
     1
 62
   257
176
     1
 90
        1
176
     1
 90
        1
176
     1
 40
1.0
176
     1
 90
        0
176
     1
 62
     7
176
     1
 40
1.0
176
     1
 90
        1
176
     1
 90
        6
176
     1
 90
        2
176
     1
 62
     7
176
     1
 90
        5
176
     1
 90
        0
176
     1
 90
        0
176
     1
290
     0
176
     1
 90
       13
176
     1
 40
0.0
176
     1
 90
        0
176
     1
290
     0
176
     1
290
     1
176
     1
290
     1
176
     1
290
     0
176
     1
290
     0
176
     1
290
     0
176
     1
290
     0
176
     1
290
     0
176
     1
290
     0
176
     1
 90
       50
176
     1
 40
0.0
176
     1
 40
1.0
176
     1
 90
        0
176
     1
 62
    18
420
        0
176
     1
 90
       50
176
     1
 90
        3
176
     1
 62
     5
420
      255
176
     1
290
     0
176
     1
 90
       50
176
     1
 90
       50
176
     1
 90
       50
176
     1
290
     0
176
     1
 90
       50
176
     1
 62
   256
176
     0
 40
1.0
176
     0
 90
        2
176
     1
  1
strokes_ogs.tif
176
     1
290
     0
176
     1
 40
1.0
176
     1
 40
1.0
176
     1
  0
VISUALSTYLE
  5
2D
102
{ACAD_REACTORS
330
29
102
}
330
29
100
AcDbVisualStyle
  2
GouraudWithEdges
 70
     3
177
     3
291
     1
 70
    58
 90
        2
176
     1
 90
        2
176
     1
 90
        1
176
     1
 90
        2
176
     1
 40
0.6
176
     1
 40
30.0
176
     1
 62
     7
420
 16777215
176
     1
 90
        1
176
     1
 90
        0
176
     1
 62
     7
176
     1
 62
   257
176
     1
 90
        1
176
     1
 90
        1
176
     1
 40
1.0
176
     1
 90
        0
176
     1
 62
   257
176
     1
 40
1.0
176
     1
 90
        1
176
     1
 90
        6
176
     1
 90
        2
176
     1
 62
     7
176
     1
 90
        5
176
     1
 90
        0
176
     1
 90
        0
176
     1
290
     0
176
     1
 90
       13
176
     1
 40
0.0
176
     1
 90
        0
176
     1
290
     0
176
     1
290
     1
176
     1
290
     1
176
     1
290
     0
176
     1
290
     0
176
     1
290
     0
176
     1
290
     0
176
     1
290
     0
176
     1
290
     0
176
     1
 90
       50
176
     1
 40
0.0
176
     1
 40
1.0
176
     1
 90
        0
176
     1
 62
    18
420
        0
176
     1
 90
       50
176
     1
 90
        3
176
     1
 62
     5
420
      255
176
     1
290
     0
176
     1
 90
       50
176
     1
 90
       50
176
     1
 90
       50
176
     1
290
     0
176
     1
 90
       50
176
     1
 62
   256
176
     0
 40
1.0
176
     0
 90
        2
176
     1
  1
strokes_ogs.tif
176
     1
290
     0
176
     1
 40
1.0
176
     1
 40
1.0
176
     1
  0
VISUALSTYLE
  5
31
102
{ACAD_REACTORS
330
29
102
}
330
29
100
AcDbVisualStyle
  2
Hidden
 70
     6
177
     3
291
     0
 70
    58
 90
        1
176
     1
 90
        2
176
     1
 90
        2
176
     1
 90
        0
176
     1
 40
0.6
176
     1
 40
30.0
176
     1
 62
     7
420
 16777215
176
     1
 90
        2
176
     1
 90
        2
176
     1
 62
     7
176
     1
 62
   257
176
     1
 90
        2
176
     1
 90
        1
176
     1
 40
40.0
176
     1
 90
        0
176
     1
 62
   257
176
     1
 40
1.0
176
     1
 90
        1
176
     1
 90
        6
176
     1
 90
        2
176
     1
 62
     7
176
     1
 90
        3
176
     1
 90
        0
176
     1
 90
        0
176
     1
290
     0
176
     1
 90
        1
176
     1
 40
0.0
176
     1
 90
        0
176
     1
290
     0
176
     1
290
     1
176
     1
290
     1
176
     1
290
     0
176
     1
290
     0
176
     1
290
     0
176
     1
290
     0
176
     1
290
     0
176
     1
290
     0
176
     1
 90
       50
176
     1
 40
0.0
176
     1
 40
1.0
176
     1
 90
        0
176
     1
 62
    18
420
        0
176
     1
 90
       50
176
     1
 90
        3
176
     1
 62
     5
420
      255
176
     1
290
     0
176
     1
 90
       50
176
     1
 90
       50
176
     1
 90
       50
176
     1
290
     0
176
     1
 90
       50
176
     1
 62
   256
176
     0
 40
1.0
176
     0
 90
        2
176
     1
  1
strokes_ogs.tif
176
     1
290
     0
176
     1
 40
1.0
176
     1
 40
1.0
176
     1
  0
VISUALSTYLE
  5
3F
102
{ACAD_REACTORS
330
29
102
}
330
29
100
AcDbVisualStyle
  2
JitterOff
 70
    20
177
     3
291
     1
 70
    58
 90
        2
176
     0
 90
        2
176
     0
 90
        0
176
     0
 90
        0
176
     0
 40
0.6
176
     0
 40
30.0
176
     0
 62
     7
420
 16777215
176
     0
 90
        1
176
     0
 90
        4
176
     0
 62
     7
176
     0
 62
   257
176
     0
 90
        1
176
     0
 90
        1
176
     0
 40
1.0
176
     0
 90
       10
176
     2
 62
     7
176
     0
 40
1.0
176
     0
 90
        1
176
     0
 90
        6
176
     0
 90
        2
176
     0
 62
     7
176
     0
 90
        5
176
     0
 90
        0
176
     0
 90
        0
176
     0
290
     0
176
     0
 90
        1
176
     0
 40
0.0
176
     0
 90
        0
176
     0
290
     0
176
     1
290
     1
176
     1
290
     1
176
     1
290
     0
176
     1
290
     0
176
     1
290
     0
176
     1
290
     0
176
     1
290
     0
176
     1
290
     0
176
     1
 90
       50
176
     0
 40
0.0
176
     0
 40
1.0
176
     0
 90
        0
176
     0
 62
    18
420
        0
176
     0
 90
       50
176
     0
 90
        3
176
     0
 62
     5
420
      255
176
     0
290
     0
176
     1
 90
       50
176
     0
 90
       50
176
     0
 90
       50
176
     0
290
     0
176
     1
 90
       50
176
     0
 62
   256
176
     0
 40
1.0
176
     0
 90
        2
176
     0
  1
strokes_ogs.tif
176
     0
290
     0
176
     1
 40
1.0
176
     0
 40
1.0
176
     0
  0
VISUALSTYLE
  5
37
102
{ACAD_REACTORS
330
29
102
}
330
29
100
AcDbVisualStyle
  2
Linepattern
 70
    14
177
     3
291
     1
 70
    58
 90
        2
176
     1
 90
        2
176
     1
 90
        0
176
     1
 90
        0
176
     1
 40
0.6
176
     1
 40
30.0
176
     1
 62
     7
420
 16777215
176
     1
 90
        1
176
     1
 90
        4
176
     1
 62
     7
176
     1
 62
   257
176
     1
 90
        7
176
     1
 90
        7
176
     1
 40
1.0
176
     1
 90
        8
176
     1
 62
     7
176
     1
 40
1.0
176
     1
 90
        1
176
     1
 90
        6
176
     1
 90
        2
176
     1
 62
     7
176
     1
 90
        5
176
     1
 90
        0
176
     1
 90
        0
176
     1
290
     0
176
     1
 90
        1
176
     1
 40
0.0
176
     1
 90
        0
176
     1
290
     0
176
     1
290
     1
176
     1
290
     1
176
     1
290
     0
176
     1
290
     0
176
     1
290
     0
176
     1
290
     0
176
     1
290
     0
176
     1
290
     0
176
     1
 90
       50
176
     1
 40
0.0
176
     1
 40
1.0
176
     1
 90
        0
176
     1
 62
    18
420
        0
176
     1
 90
       50
176
     1
 90
        3
176
     1
 62
     5
420
      255
176
     1
290
     0
176
     1
 90
       50
176
     1
 90
       50
176
     1
 90
       50
176
     1
290
     0
176
     1
 90
       50
176
     1
 62
   256
176
     0
 40
1.0
176
     0
 90
        2
176
     1
  1
strokes_ogs.tif
176
     1
290
     0
176
     1
 40
1.0
176
     1
 40
1.0
176
     1
  0
VISUALSTYLE
  5
40
102
{ACAD_REACTORS
330
29
102
}
330
29
100
AcDbVisualStyle
  2
OverhangOff
 70
    21
177
     3
291
     1
 70
    58
 90
        2
176
     0
 90
        2
176
     0
 90
        0
176
     0
 90
        0
176
     0
 40
0.6
176
     0
 40
30.0
176
     0
 62
     7
420
 16777215
176
     0
 90
        1
176
     0
 90
        4
176
     0
 62
     7
176
     0
 62
   257
176
     0
 90
        1
176
     0
 90
        1
176
     0
 40
1.0
176
     0
 90
        9
176
     2
 62
     7
176
     0
 40
1.0
176
     0
 90
        1
176
     0
 90
        6
176
     0
 90
        2
176
     0
 62
     7
176
     0
 90
        5
176
     0
 90
        0
176
     0
 90
        0
176
     0
290
     0
176
     0
 90
        1
176
     0
 40
0.0
176
     0
 90
        0
176
     0
290
     0
176
     1
290
     1
176
     1
290
     1
176
     1
290
     0
176
     1
290
     0
176
     1
290
     0
176
     1
290
     0
176
     1
290
     0
176
     1
290
     0
176
     1
 90
       50
176
     0
 40
0.0
176
     0
 40
1.0
176
     0
 90
        0
176
     0
 62
    18
420
        0
176
     0
 90
       50
176
     0
 90
        3
176
     0
 62
     5
420
      255
176
     0
290
     0
176
     1
 90
       50
176
     0
 90
       50
176
     0
 90
       50
176
     0
290
     0
176
     1
 90
       50
176
     0
 62
   256
176
     0
 40
1.0
176
     0
 90
        2
176
     0
  1
strokes_ogs.tif
176
     0
290
     0
176
     1
 40
1.0
176
     0
 40
1.0
176
     0
  0
VISUALSTYLE
  5
33
102
{ACAD_REACTORS
330
29
102
}
330
29
100
AcDbVisualStyle
  2
Realistic
 70
     8
177
     3
291
     0
 70
    58
 90
        2
176
     1
 90
        3
176
     1
 90
        0
176
     1
 90
        2
176
     1
 40
0.6
176
     1
 40
30.0
176
     1
 62
     7
420
 16777215
176
     1
 90
        0
176
     1
 90
        0
176
     1
 62
     7
176
     1
 62
   257
176
     1
 90
        1
176
     1
 90
        1
176
     1
 40
1.0
176
     1
 90
        8
176
     1
 62
   257
176
     1
 40
1.0
176
     1
 90
        1
176
     1
 90
        6
176
     1
 90
        2
176
     1
 62
     7
176
     1
 90
        3
176
     1
 90
        0
176
     1
 90
        0
176
     1
290
     0
176
     1
 90
       13
176
     1
 40
0.0
176
     1
 90
        0
176
     1
290
     0
176
     1
290
     1
176
     1
290
     1
176
     1
290
     0
176
     1
290
     0
176
     1
290
     0
176
     1
290
     0
176
     1
290
     0
176
     1
290
     0
176
     1
 90
       50
176
     1
 40
0.0
176
     1
 40
1.0
176
     1
 90
        0
176
     1
 62
    18
420
        0
176
     1
 90
       50
176
     1
 90
        3
176
     1
 62
     5
420
      255
176
     1
290
     0
176
     1
 90
       50
176
     1
 90
       50
176
     1
 90
       50
176
     1
290
     0
176
     1
 90
       50
176
     1
 62
   256
176
     0
 40
1.0
176
     0
 90
        2
176
     1
  1
strokes_ogs.tif
176
     1
290
     0
176
     1
 40
1.0
176
     1
 40
1.0
176
     1
  0
VISUALSTYLE
  5
3E
102
{ACAD_REACTORS
330
29
102
}
330
29
100
AcDbVisualStyle
  2
Shaded
 70
    27
177
     3
291
     0
 70
    58
 90
        2
176
     1
 90
        2
176
     1
 90
        1
176
     1
 90
        2
176
     1
 40
0.6
176
     1
 40
30.0
176
     1
 62
     7
420
 16777215
176
     1
 90
        0
176
     1
 90
        4
176
     1
 62
     7
176
     1
 62
   257
176
     1
 90
        1
176
     1
 90
        1
176
     1
 40
1.0
176
     1
 90
        8
176
     1
 62
   257
176
     1
 40
1.0
176
     1
 90
        1
176
     1
 90
        6
176
     1
 90
        2
176
     1
 62
     8
420
  7895160
176
     1
 90
        3
176
     1
 90
        0
176
     1
 90
        0
176
     1
290
     0
176
     1
 90
        5
176
     1
 40
0.0
176
     1
 90
        0
176
     1
290
     0
176
     1
290
     1
176
     1
290
     1
176
     1
290
     0
176
     1
290
     0
176
     1
290
     0
176
     1
290
     0
176
     1
290
     0
176
     1
290
     0
176
     1
 90
       50
176
     1
 40
0.0
176
     1
 40
1.0
176
     1
 90
        0
176
     1
 62
    18
420
        0
176
     1
 90
       50
176
     1
 90
        3
176
     1
 62
     5
420
      255
176
     1
290
     0
176
     1
 90
       50
176
     1
 90
       50
176
     1
 90
       50
176
     1
290
     0
176
     1
 90
       50
176
     1
 62
   256
176
     0
 40
1.0
176
     0
 90
        2
176
     1
  1
strokes_ogs.tif
176
     1
290
     0
176
     1
 40
1.0
176
     1
 40
1.0
176
     1
  0
VISUALSTYLE
  5
3D
102
{ACAD_REACTORS
330
29
102
}
330
29
100
AcDbVisualStyle
  2
Shaded with edges
 70
    26
177
     3
291
     0
 70
    58
 90
        2
176
     1
 90
        2
176
     1
 90
        1
176
     1
 90
        2
176
     1
 40
0.6
176
     1
 40
30.0
176
     1
 62
     7
420
 16777215
176
     1
 90
        1
176
     1
 90
        2
176
     1
 62
     7
176
     1
 62
   257
176
     1
 90
        2
176
     1
 90
        1
176
     1
 40
1.0
176
     1
 90
        8
176
     1
 62
   257
176
     1
 40
1.0
176
     1
 90
        1
176
     1
 90
        6
176
     1
 90
        2
176
     1
 62
     7
176
     1
 90
        3
176
     1
 90
        0
176
     1
 90
        0
176
     1
290
     0
176
     1
 90
        5
176
     1
 40
0.0
176
     1
 90
        0
176
     1
290
     0
176
     1
290
     1
176
     1
290
     1
176
     1
290
     0
176
     1
290
     0
176
     1
290
     0
176
     1
290
     0
176
     1
290
     0
176
     1
290
     0
176
     1
 90
       50
176
     1
 40
0.0
176
     1
 40
1.0
176
     1
 90
        0
176
     1
 62
    18
420
        0
176
     1
 90
       50
176
     1
 90
        3
176
     1
 62
     5
420
      255
176
     1
290
     0
176
     1
 90
       50
176
     1
 90
       50
176
     1
 90
       50
176
     1
290
     0
176
     1
 90
       50
176
     1
 62
   256
176
     0
 40
1.0
176
     0
 90
        2
176
     1
  1
strokes_ogs.tif
176
     1
290
     0
176
     1
 40
1.0
176
     1
 40
1.0
176
     1
  0
VISUALSTYLE
  5
3A
102
{ACAD_REACTORS
330
29
102
}
330
29
100
AcDbVisualStyle
  2
Shades of Gray
 70
    23
177
     3
291
     0
 70
    58
 90
        2
176
     1
 90
        2
176
     1
 90
        3
176
     1
 90
        0
176
     1
 40
0.6
176
     1
 40
30.0
176
     1
 62
     7
420
 16777215
176
     1
 90
        2
176
     1
 90
        2
176
     1
 62
     7
176
     1
 62
     7
176
     1
 90
        1
176
     1
 90
        1
176
     1
 40
40.0
176
     1
 90
        8
176
     1
 62
     7
176
     1
 40
1.0
176
     1
 90
        1
176
     1
 90
        6
176
     1
 90
        2
176
     1
 62
     7
176
     1
 90
        3
176
     1
 90
        0
176
     1
 90
        0
176
     1
290
     0
176
     1
 90
        1
176
     1
 40
0.0
176
     1
 90
        0
176
     1
290
     0
176
     1
290
     1
176
     1
290
     1
176
     1
290
     0
176
     1
290
     0
176
     1
290
     0
176
     1
290
     0
176
     1
290
     0
176
     1
290
     0
176
     1
 90
       50
176
     1
 40
0.0
176
     1
 40
1.0
176
     1
 90
        0
176
     1
 62
    18
420
        0
176
     1
 90
       50
176
     1
 90
        3
176
     1
 62
     5
420
      255
176
     1
290
     0
176
     1
 90
       50
176
     1
 90
       50
176
     1
 90
       50
176
     1
290
     0
176
     1
 90
       50
176
     1
 62
   256
176
     0
 40
1.0
176
     0
 90
        2
176
     1
  1
strokes_ogs.tif
176
     1
290
     0
176
     1
 40
1.0
176
     1
 40
1.0
176
     1
  0
VISUALSTYLE
  5
3B
102
{ACAD_REACTORS
330
29
102
}
330
29
100
AcDbVisualStyle
  2
Sketchy
 70
    24
177
     3
291
     0
 70
    58
 90
        1
176
     1
 90
        2
176
     1
 90
        2
176
     1
 90
        0
176
     1
 40
0.6
176
     1
 40
30.0
176
     1
 62
     7
420
 16777215
176
     1
 90
        2
176
     1
 90
        2
176
     1
 62
     7
176
     1
 62
     7
176
     1
 90
        1
176
     1
 90
        1
176
     1
 40
40.0
176
     1
 90
       11
176
     1
 62
     7
176
     1
 40
1.0
176
     1
 90
        1
176
     1
 90
        6
176
     1
 90
        2
176
     1
 62
     7
176
     1
 90
        6
176
     1
 90
        0
176
     1
 90
        0
176
     1
290
     0
176
     1
 90
        1
176
     1
 40
0.0
176
     1
 90
        0
176
     1
290
     0
176
     1
290
     1
176
     1
290
     1
176
     1
290
     0
176
     1
290
     0
176
     1
290
     0
176
     1
290
     0
176
     1
290
     0
176
     1
290
     0
176
     1
 90
       50
176
     1
 40
0.0
176
     1
 40
1.0
176
     1
 90
        0
176
     1
 62
    18
420
        0
176
     1
 90
       50
176
     1
 90
        3
176
     1
 62
     5
420
      255
176
     1
290
     0
176
     1
 90
       50
176
     1
 90
       50
176
     1
 90
       50
176
     1
290
     0
176
     1
 90
       50
176
     1
 62
   256
176
     0
 40
1.0
176
     0
 90
        2
176
     1
  1
strokes_ogs.tif
176
     1
290
     0
176
     1
 40
1.0
176
     1
 40
1.0
176
     1
  0
VISUALSTYLE
  5
36
102
{ACAD_REACTORS
330
29
102
}
330
29
100
AcDbVisualStyle
  2
Thicken
 70
    13
177
     3
291
     1
 70
    58
 90
        2
176
     1
 90
        2
176
     1
 90
        0
176
     1
 90
        0
176
     1
 40
0.6
176
     1
 40
30.0
176
     1
 62
     7
420
 16777215
176
     1
 90
        1
176
     1
 90
        4
176
     1
 62
     7
176
     1
 62
   257
176
     1
 90
        1
176
     1
 90
        1
176
     1
 40
1.0
176
     1
 90
       12
176
     1
 62
     7
176
     1
 40
1.0
176
     1
 90
        1
176
     1
 90
        6
176
     1
 90
        2
176
     1
 62
     7
176
     1
 90
        5
176
     1
 90
        0
176
     1
 90
        0
176
     1
290
     0
176
     1
 90
        1
176
     1
 40
0.0
176
     1
 90
        0
176
     1
290
     0
176
     1
290
     1
176
     1
290
     1
176
     1
290
     0
176
     1
290
     0
176
     1
290
     0
176
     1
290
     0
176
     1
290
     0
176
     1
290
     0
176
     1
 90
       50
176
     1
 40
0.0
176
     1
 40
1.0
176
     1
 90
        0
176
     1
 62
    18
420
        0
176
     1
 90
       50
176
     1
 90
        3
176
     1
 62
     5
420
      255
176
     1
290
     0
176
     1
 90
       50
176
     1
 90
       50
176
     1
 90
       50
176
     1
290
     0
176
     1
 90
       50
176
     1
 62
   256
176
     0
 40
1.0
176
     0
 90
        2
176
     1
  1
strokes_ogs.tif
176
     1
290
     0
176
     1
 40
1.0
176
     1
 40
1.0
176
     1
  0
VISUALSTYLE
  5
30
102
{ACAD_REACTORS
330
29
102
}
330
29
100
AcDbVisualStyle
  2
Wireframe
 70
     5
177
     3
291
     0
 70
    58
 90
        0
176
     1
 90
        2
176
     1
 90
        0
176
     1
 90
        0
176
     1
 40
0.6
176
     1
 40
30.0
176
     1
 62
     7
420
 16777215
176
     1
 90
        1
176
     1
 90
        4
176
     1
 62
     7
176
     1
 62
   257
176
     1
 90
        1
176
     1
 90
        1
176
     1
 40
1.0
176
     1
 90
        0
176
     1
 62
   257
176
     1
 40
1.0
176
     1
 90
        1
176
     1
 90
        6
176
     1
 90
        2
176
     1
 62
     7
176
     1
 90
        3
176
     1
 90
        0
176
     1
 90
        0
176
     1
290
     0
176
     1
 90
        1
176
     1
 40
0.0
176
     1
 90
        0
176
     1
290
     0
176
     1
290
     1
176
     1
290
     1
176
     1
290
     0
176
     1
290
     0
176
     1
290
     0
176
     1
290
     0
176
     1
290
     0
176
     1
290
     0
176
     1
 90
       50
176
     1
 40
0.0
176
     1
 40
1.0
176
     1
 90
        0
176
     1
 62
    18
420
        0
176
     1
 90
       50
176
     1
 90
        3
176
     1
 62
     5
420
      255
176
     1
290
     0
176
     1
 90
       50
176
     1
 90
       50
176
     1
 90
       50
176
     1
290
     0
176
     1
 90
       50
176
     1
 62
   256
176
     0
 40
1.0
176
     0
 90
        2
176
     1
  1
strokes_ogs.tif
176
     1
290
     0
176
     1
 40
1.0
176
     1
 40
1.0
176
     1
  0
VISUALSTYLE
  5
3C
102
{ACAD_REACTORS
330
29
102
}
330
29
100
AcDbVisualStyle
  2
X-Ray
 70
    25
177
     3
291
     0
 70
    58
 90
        2
176
     1
 90
        2
176
     1
 90
        1
176
     1
 90
        1
176
     1
 40
0.5
176
     1
 40
30.0
176
     1
 62
     7
420
 16777215
176
     1
 90
        1
176
     1
 90
        0
176
     1
 62
     7
176
     1
 62
   257
176
     1
 90
        1
176
     1
 90
        1
176
     1
 40
1.0
176
     1
 90
        8
176
     1
 62
     7
176
     1
 40
1.0
176
     1
 90
        1
176
     1
 90
        6
176
     1
 90
        2
176
     1
 62
     7
176
     1
 90
        3
176
     1
 90
        0
176
     1
 90
        0
176
     1
290
     0
176
     1
 90
       13
176
     1
 40
0.0
176
     1
 90
        0
176
     1
290
     0
176
     1
290
     1
176
     1
290
     1
176
     1
290
     0
176
     1
290
     0
176
     1
290
     0
176
     1
290
     0
176
     1
290
     0
176
     1
290
     0
176
     1
 90
       50
176
     1
 40
0.0
176
     1
 40
1.0
176
     1
 90
        0
176
     1
 62
    18
420
        0
176
     1
 90
       50
176
     1
 90
        3
176
     1
 62
     5
420
      255
176
     1
290
     0
176
     1
 90
       50
176
     1
 90
       50
176
     1
 90
       50
176
     1
290
     0
176
     1
 90
       50
176
     1
 62
   256
176
     0
 40
1.0
176
     0
 90
        2
176
     1
  1
strokes_ogs.tif
176
     1
290
     0
176
     1
 40
1.0
176
     1
 40
1.0
176
     1
  0
DICTIONARYVAR
  5
612
102
{ACAD_REACTORS
330
60C
102
}
330
60C
100
DictionaryVariables
280
     0
  1
1:1
  0
DICTIONARYVAR
  5
60E
102
{ACAD_REACTORS
330
60C
102
}
330
60C
100
DictionaryVariables
280
     0
  1
STANDARD
  0
DICTIONARYVAR
  5
60D
102
{ACAD_REACTORS
330
60C
102
}
330
60C
100
DictionaryVariables
280
     0
  1
STANDARD
  0
DICTIONARYVAR
  5
60F
102
{ACAD_REACTORS
330
60C
102
}
330
60C
100
DictionaryVariables
280
     0
  1
Imperial24
  0
DICTIONARYVAR
  5
610
102
{ACAD_REACTORS
330
60C
102
}
330
60C
100
DictionaryVariables
280
     0
  1
Imperial24
  0
DICTIONARYVAR
  5
614
102
{ACAD_REACTORS
330
60C
102
}
330
60C
100
DictionaryVariables
280
     0
  1
1
  0
DICTIONARYVAR
  5
615
102
{ACAD_REACTORS
330
60C
102
}
330
60C
100
DictionaryVariables
280
     0
  1
15
  0
DICTIONARYVAR
  5
613
102
{ACAD_REACTORS
330
60C
102
}
330
60C
100
DictionaryVariables
280
     0
  1
0
  0
DICTIONARYVAR
  5
611
102
{ACAD_REACTORS
330
60C
102
}
330
60C
100
DictionaryVariables
280
     0
  1
0
  0
DICTIONARY
  5
1A
330
19
100
AcDbDictionary
280
     1
281
     1
  3
BUMPTILE
360
1C
  3
DIFFUSETILE
360
1B
  3
OPACITYTILE
360
1F
  3
REFLECTIONTILE
360
1E
  3
REFRACTIONTILE
360
20
  3
SPECULARTILE
360
1D
  0
DICTIONARY
  5
12
330
11
100
AcDbDictionary
280
     1
281
     1
  3
BUMPTILE
360
14
  3
DIFFUSETILE
360
13
  3
OPACITYTILE
360
17
  3
REFLECTIONTILE
360
16
  3
REFRACTIONTILE
360
18
  3
SPECULARTILE
360
15
  0
DICTIONARY
  5
22
330
21
100
AcDbDictionary
280
     1
281
     1
  3
BUMPTILE
360
24
  3
DIFFUSETILE
360
23
  3
OPACITYTILE
360
27
  3
REFLECTIONTILE
360
26
  3
REFRACTIONTILE
360
28
  3
SPECULARTILE
360
25
  0
DICTIONARY
  5
E63
330
64
100
AcDbDictionary
280
     1
281
     1
  3
ACAD_ROUNDTRIP_2008_TABLESTYLE_CELLSTYLEMAP
360
E64
  0
XRECORD
  5
1C
102
{ACAD_REACTORS
330
1A
102
}
330
1A
100
AcDbXrecord
280
     1
270
     1
271
     1
  0
XRECORD
  5
1B
102
{ACAD_REACTORS
330
1A
102
}
330
1A
100
AcDbXrecord
280
     1
270
     1
271
     1
  0
XRECORD
  5
1F
102
{ACAD_REACTORS
330
1A
102
}
330
1A
100
AcDbXrecord
280
     1
270
     1
271
     1
  0
XRECORD
  5
1E
102
{ACAD_REACTORS
330
1A
102
}
330
1A
100
AcDbXrecord
280
     1
270
     1
271
     1
  0
XRECORD
  5
20
102
{ACAD_REACTORS
330
1A
102
}
330
1A
100
AcDbXrecord
280
     1
270
     1
271
     1
  0
XRECORD
  5
1D
102
{ACAD_REACTORS
330
1A
102
}
330
1A
100
AcDbXrecord
280
     1
270
     1
271
     1
  0
XRECORD
  5
14
102
{ACAD_REACTORS
330
12
102
}
330
12
100
AcDbXrecord
280
     1
270
     1
271
     1
  0
XRECORD
  5
13
102
{ACAD_REACTORS
330
12
102
}
330
12
100
AcDbXrecord
280
     1
270
     1
271
     1
  0
XRECORD
  5
17
102
{ACAD_REACTORS
330
12
102
}
330
12
100
AcDbXrecord
280
     1
270
     1
271
     1
  0
XRECORD
  5
16
102
{ACAD_REACTORS
330
12
102
}
330
12
100
AcDbXrecord
280
     1
270
     1
271
     1
  0
XRECORD
  5
18
102
{ACAD_REACTORS
330
12
102
}
330
12
100
AcDbXrecord
280
     1
270
     1
271
     1
  0
XRECORD
  5
15
102
{ACAD_REACTORS
330
12
102
}
330
12
100
AcDbXrecord
280
     1
270
     1
271
     1
  0
XRECORD
  5
24
102
{ACAD_REACTORS
330
22
102
}
330
22
100
AcDbXrecord
280
     1
270
     1
271
     1
  0
XRECORD
  5
23
102
{ACAD_REACTORS
330
22
102
}
330
22
100
AcDbXrecord
280
     1
270
     1
271
     1
  0
XRECORD
  5
27
102
{ACAD_REACTORS
330
22
102
}
330
22
100
AcDbXrecord
280
     1
270
     1
271
     1
  0
XRECORD
  5
26
102
{ACAD_REACTORS
330
22
102
}
330
22
100
AcDbXrecord
280
     1
270
     1
271
     1
  0
XRECORD
  5
28
102
{ACAD_REACTORS
330
22
102
}
330
22
100
AcDbXrecord
280
     1
270
     1
271
     1
  0
XRECORD
  5
25
102
{ACAD_REACTORS
330
22
102
}
330
22
100
AcDbXrecord
280
     1
270
     1
271
     1
  0
CELLSTYLEMAP
  5
E64
102
{ACAD_REACTORS
330
E63
102
}
330
E63
100
AcDbCellStyleMap
 90
        3
300
CELLSTYLE
  1
TABLEFORMAT_BEGIN
 90
        5
170
     1
 91
        0
 92
    32768
 62
   257
 93
        1
300
CONTENTFORMAT
  1
CONTENTFORMAT_BEGIN
 90
        0
 91
        0
 92
      512
 93
        0
300

 40
0.0
140
1.0
 94
        5
 62
     0
340
55
144
0.25
309
CONTENTFORMAT_END
171
     0
 94
        0
309
TABLEFORMAT_END
  1
CELLSTYLE_BEGIN
 90
        1
 91
        1
300
_TITLE
309
CELLSTYLE_END
300
CELLSTYLE
  1
TABLEFORMAT_BEGIN
 90
        5
170
     1
 91
        0
 92
        0
 62
   257
 93
        1
300
CONTENTFORMAT
  1
CONTENTFORMAT_BEGIN
 90
        0
 91
        0
 92
      512
 93
        0
300

 40
0.0
140
1.0
 94
        5
 62
     0
340
55
144
0.18
309
CONTENTFORMAT_END
171
     0
 94
        0
309
TABLEFORMAT_END
  1
CELLSTYLE_BEGIN
 90
        2
 91
        1
300
_HEADER
309
CELLSTYLE_END
300
CELLSTYLE
  1
TABLEFORMAT_BEGIN
 90
        5
170
     1
 91
        0
 92
        0
 62
   257
 93
        1
300
CONTENTFORMAT
  1
CONTENTFORMAT_BEGIN
 90
        0
 91
        0
 92
      512
 93
        0
300

 40
0.0
140
1.0
 94
        2
 62
     0
340
55
144
0.18
309
CONTENTFORMAT_END
171
     0
 94
        0
309
TABLEFORMAT_END
  1
CELLSTYLE_BEGIN
 90
        3
 91
        2
300
_DATA
309
CELLSTYLE_END
  0
ENDSEC
  0
SECTION
  2
ACDSDATA
 70
     2
 71
     8
  0
ACDSSCHEMA
 90
        0
  1
AcDb_Thumbnail_Schema
  2
AcDbDs::ID
280
    10
 91
        8
  2
Thumbnail_Data
280
    15
 91
        0
101
ACDSRECORD
 95
        0
 90
        1
  2
AcDbDs::TreatedAsObjectData
280
     1
291
     1
101
ACDSRECORD
 95
        0
 90
        2
  2
AcDbDs::Legacy
280
     1
291
     1
101
ACDSRECORD
  1
AcDbDs::ID
 90
        3
  2
AcDs:Indexable
280
     1
291
     1
101
ACDSRECORD
  1
AcDbDs::ID
 90
        4
  2
AcDbDs::HandleAttribute
280
     7
282
     1
  0
ACDSSCHEMA
 90
        1
  1
AcDbDs::TreatedAsObjectDataSchema
  2
AcDbDs::TreatedAsObjectData
280
     1
 91
        0
  0
ACDSSCHEMA
 90
        2
  1
AcDbDs::LegacySchema
  2
AcDbDs::Legacy
280
     1
 91
        0
  0
ACDSSCHEMA
 90
        3
  1
AcDbDs::IndexedPropertySchema
  2
AcDs:Indexable
280
     1
 91
        0
  0
ACDSSCHEMA
 90
        4
  1
AcDbDs::HandleAttributeSchema
  2
AcDbDs::HandleAttribute
280
     7
 91
        1
284
     1
  0
ACDSRECORD
 90
        0
  2
AcDbDs::ID
280
    10
320
72
  2
Thumbnail_Data
280
    15
 94
     1127
310
89504E470D0A1A0A0000000D4948445200000100000000A808030000003894C06300000300504C5445212830FFFFFF2128300000000000000000000000000000000000000000000000000000330000660000990000CC0000FF0033000033330033660033990033CC0033FF0066000066330066660066990066CC0066FF0099
310
000099330099660099990099CC0099FF00CC0000CC3300CC6600CC9900CCCC00CCFF00FF0000FF3300FF6600FF9900FFCC00FFFF3300003300333300663300993300CC3300FF3333003333333333663333993333CC3333FF3366003366333366663366993366CC3366FF3399003399333399663399993399CC3399FF33CC00
310
33CC3333CC6633CC9933CCCC33CCFF33FF0033FF3333FF6633FF9933FFCC33FFFF6600006600336600666600996600CC6600FF6633006633336633666633996633CC6633FF6666006666336666666666996666CC6666FF6699006699336699666699996699CC6699FF66CC0066CC3366CC6666CC9966CCCC66CCFF66FF0066
310
FF3366FF6666FF9966FFCC66FFFF9900009900339900669900999900CC9900FF9933009933339933669933999933CC9933FF9966009966339966669966999966CC9966FF9999009999339999669999999999CC9999FF99CC0099CC3399CC6699CC9999CCCC99CCFF99FF0099FF3399FF6699FF9999FFCC99FFFFCC0000CC00
310
33CC0066CC0099CC00CCCC00FFCC3300CC3333CC3366CC3399CC33CCCC33FFCC6600CC6633CC6666CC6699CC66CCCC66FFCC9900CC9933CC9966CC9999CC99CCCC99FFCCCC00CCCC33CCCC66CCCC99CCCCCCCCCCFFCCFF00CCFF33CCFF66CCFF99CCFFCCCCFFFFFF0000FF0033FF0066FF0099FF00CCFF00FFFF3300FF3333
310
FF3366FF3399FF33CCFF33FFFF6600FF6633FF6666FF6699FF66CCFF66FFFF9900FF9933FF9966FF9999FF99CCFF99FFFFCC00FFCC33FFCC66FFCC99FFCCCCFFCCFFFFFF00FFFF33FFFF66FFFF99FFFFCCFFFFFF0000000D0D0D1A1A1A2828283535354343435050505D5D5D6B6B6B787878868686939393A1A1A1AEAEAEBB
310
BBBBC9C9C9D6D6D6E4E4E4F1F1F1FFFFFF0000000000000000000000000000000000000000000000000000000000002E4550F1000001224944415478DAEDDCB10AC320188551DFFF7DDDBB149A4D8C14F5BFE79BB264C8C1A651C4D624499224499224E9FFF5954A006CBB19C041008F213D735903E0F1639EBD2C02B03078
310
000000100DD0C3011A0000000000F037E843080000005703A42F88FC149297C48297C5254992244991C5EF125B798A2A2B423D1D207C042CBC028A006CB815000000000000000000000000A74C86A697114AED10999ED87EC182011A0000C5005EAD07DB2DDE5A0902BBE424499294D8E06337FB24A53E98F095DF22930210
310
3E0206BFF1EAEF8095B56D00000000000000000000000000000000C0B5008E97DF72EF39004E529224495266E642E193A1BEF2180E51010000000000000000000000000000000000000000C075000E51B1414692244992246DEA03D2FB44369F04F0F20000000049454E44AE426082
  0
ENDSEC
  0
EOF
