  0
SECTION
  2
HEADER
  9
$ACADVER
  1
AC1032
  9
$ACADMAINTVER
 90
      140
  9
$DWGCODEPAGE
  3
ANSI_936
  9
$LASTSAVEDBY
  1
luxiaofeng
  9
$REQUIREDVERSIONS
160
                 0
  9
$INSBASE
 10
0.0
 20
0.0
 30
0.0
  9
$EXTMIN
 10
-524.6936089581931
 20
-1280.743852233511
 30
-0.0015258207003583
  9
$EXTMAX
 10
740.6191065204662
 20
96.04685516749761
 30
0.0000000349246037
  9
$LIMMIN
 10
0.0
 20
0.0
  9
$LIMMAX
 10
12.0
 20
9.0
  9
$ORTHOMODE
 70
     0
  9
$REGENMODE
 70
     1
  9
$FILLMODE
 70
     0
  9
$QTEXTMODE
 70
     0
  9
$MIRRTEXT
 70
     0
  9
$LTSCALE
 40
1.0
  9
$ATTMODE
 70
     1
  9
$TEXTSIZE
 40
0.2
  9
$TRACEWID
 40
0.05
  9
$TEXTSTYLE
  7
Standard
  9
$CLAYER
  8
0
  9
$CELTYPE
  6
Continuous
  9
$CECOLOR
 62
   256
  9
$CELTSCALE
 40
1.0
  9
$DISPSILH
 70
     0
  9
$DIMSCALE
 40
1.0
  9
$DIMASZ
 40
0.18
  9
$DIMEXO
 40
0.0625
  9
$DIMDLI
 40
0.38
  9
$DIMRND
 40
0.0
  9
$DIMDLE
 40
0.0
  9
$DIMEXE
 40
0.18
  9
$DIMTP
 40
0.0
  9
$DIMTM
 40
0.0
  9
$DIMTXT
 40
0.18
  9
$DIMCEN
 40
0.09
  9
$DIMTSZ
 40
0.0
  9
$DIMTOL
 70
     0
  9
$DIMLIM
 70
     0
  9
$DIMTIH
 70
     1
  9
$DIMTOH
 70
     1
  9
$DIMSE1
 70
     0
  9
$DIMSE2
 70
     0
  9
$DIMTAD
 70
     0
  9
$DIMZIN
 70
     0
  9
$DIMBLK
  1

  9
$DIMASO
 70
     1
  9
$DIMSHO
 70
     1
  9
$DIMPOST
  1

  9
$DIMAPOST
  1

  9
$DIMALT
 70
     0
  9
$DIMALTD
 70
     2
  9
$DIMALTF
 40
25.4
  9
$DIMLFAC
 40
1.0
  9
$DIMTOFL
 70
     0
  9
$DIMTVP
 40
0.0
  9
$DIMTIX
 70
     0
  9
$DIMSOXD
 70
     0
  9
$DIMSAH
 70
     0
  9
$DIMBLK1
  1

  9
$DIMBLK2
  1

  9
$DIMSTYLE
  2
Standard
  9
$DIMCLRD
 70
     0
  9
$DIMCLRE
 70
     0
  9
$DIMCLRT
 70
     0
  9
$DIMTFAC
 40
1.0
  9
$DIMGAP
 40
0.09
  9
$DIMJUST
 70
     0
  9
$DIMSD1
 70
     0
  9
$DIMSD2
 70
     0
  9
$DIMTOLJ
 70
     1
  9
$DIMTZIN
 70
     0
  9
$DIMALTZ
 70
     0
  9
$DIMALTTZ
 70
     0
  9
$DIMUPT
 70
     0
  9
$DIMDEC
 70
     4
  9
$DIMTDEC
 70
     4
  9
$DIMALTU
 70
     2
  9
$DIMALTTD
 70
     2
  9
$DIMTXSTY
  7
Standard
  9
$DIMAUNIT
 70
     0
  9
$DIMADEC
 70
     0
  9
$DIMALTRND
 40
0.0
  9
$DIMAZIN
 70
     0
  9
$DIMDSEP
 70
    46
  9
$DIMATFIT
 70
     3
  9
$DIMFRAC
 70
     0
  9
$DIMLDRBLK
  1

  9
$DIMLUNIT
 70
     2
  9
$DIMLWD
 70
    -2
  9
$DIMLWE
 70
    -2
  9
$DIMTMOVE
 70
     0
  9
$DIMFXL
 40
1.0
  9
$DIMFXLON
 70
     0
  9
$DIMJOGANG
 40
0.7853981633974483
  9
$DIMTFILL
 70
     0
  9
$DIMTFILLCLR
 70
     0
  9
$DIMARCSYM
 70
     0
  9
$DIMLTYPE
  6

  9
$DIMLTEX1
  6

  9
$DIMLTEX2
  6

  9
$DIMTXTDIRECTION
 70
     0
  9
$LUNITS
 70
     2
  9
$LUPREC
 70
     4
  9
$SKETCHINC
 40
0.1
  9
$FILLETRAD
 40
0.0
  9
$AUNITS
 70
     0
  9
$AUPREC
 70
     0
  9
$MENU
  1
.
  9
$ELEVATION
 40
0.0
  9
$PELEVATION
 40
0.0
  9
$THICKNESS
 40
0.0
  9
$LIMCHECK
 70
     0
  9
$CHAMFERA
 40
0.0
  9
$CHAMFERB
 40
0.0
  9
$CHAMFERC
 40
0.0
  9
$CHAMFERD
 40
0.0
  9
$SKPOLY
 70
     0
  9
$TDCREATE
 40
2459779.629826389
  9
$TDUCREATE
 40
2459779.296493056
  9
$TDUPDATE
 40
2459784.499178240
  9
$TDUUPDATE
 40
2459784.165844907
  9
$TDINDWG
 40
4.8693518519
  9
$TDUSRTIMER
 40
4.8693518519
  9
$USRTIMER
 70
     1
  9
$ANGBASE
 50
0.0
  9
$ANGDIR
 70
     0
  9
$PDMODE
 70
     0
  9
$PDSIZE
 40
0.0
  9
$PLINEWID
 40
0.0
  9
$SPLFRAME
 70
     1
  9
$SPLINETYPE
 70
     6
  9
$SPLINESEGS
 70
     8
  9
$HANDSEED
  5
CB2
  9
$SURFTAB1
 70
     6
  9
$SURFTAB2
 70
     6
  9
$SURFTYPE
 70
     6
  9
$SURFU
 70
     6
  9
$SURFV
 70
     6
  9
$UCSBASE
  2

  9
$UCSNAME
  2

  9
$UCSORG
 10
0.0
 20
0.0
 30
0.0
  9
$UCSXDIR
 10
1.0
 20
0.0
 30
0.0
  9
$UCSYDIR
 10
0.0
 20
1.0
 30
0.0
  9
$UCSORTHOREF
  2

  9
$UCSORTHOVIEW
 70
     0
  9
$UCSORGTOP
 10
0.0
 20
0.0
 30
0.0
  9
$UCSORGBOTTOM
 10
0.0
 20
0.0
 30
0.0
  9
$UCSORGLEFT
 10
0.0
 20
0.0
 30
0.0
  9
$UCSORGRIGHT
 10
0.0
 20
0.0
 30
0.0
  9
$UCSORGFRONT
 10
0.0
 20
0.0
 30
0.0
  9
$UCSORGBACK
 10
0.0
 20
0.0
 30
0.0
  9
$PUCSBASE
  2

  9
$PUCSNAME
  2

  9
$PUCSORG
 10
0.0
 20
0.0
 30
0.0
  9
$PUCSXDIR
 10
1.0
 20
0.0
 30
0.0
  9
$PUCSYDIR
 10
0.0
 20
1.0
 30
0.0
  9
$PUCSORTHOREF
  2

  9
$PUCSORTHOVIEW
 70
     0
  9
$PUCSORGTOP
 10
0.0
 20
0.0
 30
0.0
  9
$PUCSORGBOTTOM
 10
0.0
 20
0.0
 30
0.0
  9
$PUCSORGLEFT
 10
0.0
 20
0.0
 30
0.0
  9
$PUCSORGRIGHT
 10
0.0
 20
0.0
 30
0.0
  9
$PUCSORGFRONT
 10
0.0
 20
0.0
 30
0.0
  9
$PUCSORGBACK
 10
0.0
 20
0.0
 30
0.0
  9
$USERI1
 70
     0
  9
$USERI2
 70
     0
  9
$USERI3
 70
     0
  9
$USERI4
 70
     0
  9
$USERI5
 70
     0
  9
$USERR1
 40
0.0
  9
$USERR2
 40
0.0
  9
$USERR3
 40
0.0
  9
$USERR4
 40
0.0
  9
$USERR5
 40
0.0
  9
$WORLDVIEW
 70
     1
  9
$SHADEDGE
 70
     3
  9
$SHADEDIF
 70
    70
  9
$TILEMODE
 70
     1
  9
$MAXACTVP
 70
    64
  9
$PINSBASE
 10
0.0
 20
0.0
 30
0.0
  9
$PLIMCHECK
 70
     0
  9
$PEXTMIN
 10
1.000000000000000E+20
 20
1.000000000000000E+20
 30
1.000000000000000E+20
  9
$PEXTMAX
 10
-1.000000000000000E+20
 20
-1.000000000000000E+20
 30
-1.000000000000000E+20
  9
$PLIMMIN
 10
0.0
 20
0.0
  9
$PLIMMAX
 10
12.0
 20
9.0
  9
$UNITMODE
 70
     0
  9
$VISRETAIN
 70
     1
  9
$PLINEGEN
 70
     0
  9
$PSLTSCALE
 70
     1
  9
$TREEDEPTH
 70
  3020
  9
$CMLSTYLE
  2
Standard
  9
$CMLJUST
 70
     0
  9
$CMLSCALE
 40
1.0
  9
$PROXYGRAPHICS
 70
     1
  9
$MEASUREMENT
 70
     0
  9
$CELWEIGHT
370
    -1
  9
$ENDCAPS
280
     0
  9
$JOINSTYLE
280
     0
  9
$LWDISPLAY
290
     0
  9
$INSUNITS
 70
     0
  9
$HYPERLINKBASE
  1

  9
$STYLESHEET
  1

  9
$XEDIT
290
     1
  9
$CEPSNTYPE
380
     0
  9
$PSTYLEMODE
290
     1
  9
$FINGERPRINTGUID
  2
{D8063172-FE8C-8F4C-816E-DCF49FC87CA0}
  9
$VERSIONGUID
  2
{9BEC9D3B-9809-CB4C-9FCB-CCC280F9554F}
  9
$EXTNAMES
290
     1
  9
$PSVPSCALE
 40
0.0
  9
$OLESTARTUP
290
     0
  9
$SORTENTS
280
   127
  9
$INDEXCTL
280
     0
  9
$HIDETEXT
280
     0
  9
$XCLIPFRAME
280
     2
  9
$HALOGAP
280
     0
  9
$OBSCOLOR
 70
   257
  9
$OBSLTYPE
280
     0
  9
$INTERSECTIONDISPLAY
280
     0
  9
$INTERSECTIONCOLOR
 70
   257
  9
$DIMASSOC
280
     1
  9
$PROJECTNAME
  1

  9
$CAMERADISPLAY
290
     0
  9
$LENSLENGTH
 40
50.0
  9
$CAMERAHEIGHT
 40
0.0
  9
$STEPSPERSEC
 40
2.0
  9
$STEPSIZE
 40
6.0
  9
$3DDWFPREC
 40
2.0
  9
$PSOLWIDTH
 40
0.25
  9
$PSOLHEIGHT
 40
4.0
  9
$LOFTANG1
 40
1.570796326794896
  9
$LOFTANG2
 40
1.570796326794896
  9
$LOFTMAG1
 40
0.0
  9
$LOFTMAG2
 40
0.0
  9
$LOFTPARAM
 70
     7
  9
$LOFTNORMALS
280
     1
  9
$LATITUDE
 40
37.795
  9
$LONGITUDE
 40
-122.394
  9
$NORTHDIRECTION
 40
0.0
  9
$TIMEZONE
 70
 -8000
  9
$LIGHTGLYPHDISPLAY
280
     1
  9
$TILEMODELIGHTSYNCH
280
     1
  9
$CMATERIAL
347
11
  9
$SOLIDHIST
280
     0
  9
$SHOWHIST
280
     1
  9
$DWFFRAME
280
     2
  9
$DGNFRAME
280
     0
  9
$REALWORLDSCALE
290
     1
  9
$INTERFERECOLOR
 62
     1
  9
$INTERFEREOBJVS
345
33
  9
$INTERFEREVPVS
346
30
  9
$CSHADOW
280
     0
  9
$SHADOWPLANELOCATION
 40
0.0
  0
ENDSEC
  0
SECTION
  2
CLASSES
  0
CLASS
  1
ACDBDICTIONARYWDFLT
  2
AcDbDictionaryWithDefault
  3
ObjectDBX Classes
 90
        0
 91
        1
280
     0
281
     0
  0
CLASS
  1
MATERIAL
  2
AcDbMaterial
  3
ObjectDBX Classes
 90
     1153
 91
        3
280
     0
281
     0
  0
CLASS
  1
VISUALSTYLE
  2
AcDbVisualStyle
  3
ObjectDBX Classes
 90
     4095
 91
       24
280
     0
281
     0
  0
CLASS
  1
SCALE
  2
AcDbScale
  3
ObjectDBX Classes
 90
     1153
 91
       17
280
     0
281
     0
  0
CLASS
  1
TABLESTYLE
  2
AcDbTableStyle
  3
ObjectDBX Classes
 90
     4095
 91
        1
280
     0
281
     0
  0
CLASS
  1
MLEADERSTYLE
  2
AcDbMLeaderStyle
  3
ACDB_MLEADERSTYLE_CLASS
 90
     4095
 91
        1
280
     0
281
     0
  0
CLASS
  1
ACDBSECTIONVIEWSTYLE
  2
AcDbSectionViewStyle
  3
ObjectDBX Classes
 90
     1025
 91
        2
280
     0
281
     0
  0
CLASS
  1
ACDBDETAILVIEWSTYLE
  2
AcDbDetailViewStyle
  3
ObjectDBX Classes
 90
     1025
 91
        2
280
     0
281
     0
  0
CLASS
  1
DICTIONARYVAR
  2
AcDbDictionaryVar
  3
ObjectDBX Classes
 90
        0
 91
        9
280
     0
281
     0
  0
CLASS
  1
SORTENTSTABLE
  2
AcDbSortentsTable
  3
ObjectDBX Classes
 90
        0
 91
       18
280
     0
281
     0
  0
CLASS
  1
CELLSTYLEMAP
  2
AcDbCellStyleMap
  3
ObjectDBX Classes
 90
     1152
 91
        3
280
     0
281
     0
  0
ENDSEC
  0
SECTION
  2
TABLES
  0
TABLE
  2
VPORT
  5
8
330
0
100
AcDbSymbolTable
 70
     1
  0
VPORT
  5
74
330
8
100
AcDbSymbolTableRecord
100
AcDbViewportTableRecord
  2
*Active
 70
     0
 10
0.0
 20
0.0
 11
1.0
 21
1.0
 12
176.6349858140622
 22
-679.897980056563
 13
0.0
 23
0.0
 14
1.0
 24
1.0
 15
0.0
 25
0.0
 16
0.0
 26
0.0
 36
1.0
 17
0.0
 27
0.0
 37
0.0
 40
1429.049791671834
 41
1.51624548736462
 42
50.0
 43
0.0
 44
0.0
 50
0.0
 51
0.0
 71
     0
 72
   100
 73
     1
 74
     1
 75
     0
 76
     0
 77
     0
 78
     0
281
     0
 65
     1
110
0.0
120
0.0
130
0.0
111
1.0
121
0.0
131
0.0
112
0.0
122
1.0
132
0.0
 79
     0
146
0.0
348
2F
 60
     3
 61
     5
292
     1
282
     1
141
0.0
142
0.0
 63
   250
421
  3355443
1001
ACAD_NAV_VCDISPLAY
1070
     3
  0
ENDTAB
  0
TABLE
  2
LTYPE
  5
5
330
0
100
AcDbSymbolTable
 70
     2
  0
LTYPE
  5
5A
330
5
100
AcDbSymbolTableRecord
100
AcDbLinetypeTableRecord
  2
ByBlock
 70
     0
  3

 72
    65
 73
     0
 40
0.0
  0
LTYPE
  5
5B
330
5
100
AcDbSymbolTableRecord
100
AcDbLinetypeTableRecord
  2
ByLayer
 70
     0
  3

 72
    65
 73
     0
 40
0.0
  0
LTYPE
  5
5C
330
5
100
AcDbSymbolTableRecord
100
AcDbLinetypeTableRecord
  2
Continuous
 70
     0
  3
Solid line
 72
    65
 73
     0
 40
0.0
  0
ENDTAB
  0
TABLE
  2
LAYER
  5
2
102
{ACAD_XDICTIONARY
360
222
102
}
330
0
100
AcDbSymbolTable
 70
     8
  0
LAYER
  5
54
102
{ACAD_XDICTIONARY
360
7F5
102
}
330
2
100
AcDbSymbolTableRecord
100
AcDbLayerTableRecord
  2
0
 70
     0
 62
     7
  6
Continuous
370
    -3
390
F
347
21
348
0
  0
LAYER
  5
BE5
330
2
100
AcDbSymbolTableRecord
100
AcDbLayerTableRecord
  2
TopLayer
 70
     0
 62
     1
420
 16711680
  6
Continuous
370
    -3
390
F
347
21
348
0
  0
LAYER
  5
BE6
330
2
100
AcDbSymbolTableRecord
100
AcDbLayerTableRecord
  2
BottomSilkLayer
 70
     0
 62
    72
420
  6736947
  6
Continuous
370
    -3
390
F
347
21
348
0
  0
LAYER
  5
BE7
330
2
100
AcDbSymbolTableRecord
100
AcDbLayerTableRecord
  2
BottomPasteMaskLayer
 70
     0
 62
    16
420
  8388608
  6
Continuous
370
    -3
390
F
347
21
348
0
  0
LAYER
  5
BE8
330
2
100
AcDbSymbolTableRecord
100
AcDbLayerTableRecord
  2
TopSolderMaskLayer
 70
     0
 62
   216
420
  8388736
  6
Continuous
370
    -3
390
F
347
21
348
0
  0
LAYER
  5
BE9
330
2
100
AcDbSymbolTableRecord
100
AcDbLayerTableRecord
  2
BottomSolderMaskLayer
 70
     0
 62
   200
420
 11141375
  6
Continuous
370
    -3
390
F
347
21
348
0
  0
LAYER
  5
BEA
330
2
100
AcDbSymbolTableRecord
100
AcDbLayerTableRecord
  2
BoardOutLine
 70
     0
 62
     6
420
 16711935
  6
Continuous
370
    -3
390
F
347
21
348
0
  0
LAYER
  5
BEB
330
2
100
AcDbSymbolTableRecord
100
AcDbLayerTableRecord
  2
Multi-Layer
 70
     0
 62
     9
420
 12632256
  6
Continuous
370
    -3
390
F
347
21
348
0
  0
ENDTAB
  0
TABLE
  2
STYLE
  5
3
330
0
100
AcDbSymbolTable
 70
     2
  0
STYLE
  5
55
330
3
100
AcDbSymbolTableRecord
100
AcDbTextStyleTableRecord
  2
Standard
 70
     0
 40
0.0
 41
1.0
 50
0.0
 71
     0
 42
0.2
  3
txt
  4

  0
STYLE
  5
59
330
3
100
AcDbSymbolTableRecord
100
AcDbTextStyleTableRecord
  2
Annotative
 70
     0
 40
0.0
 41
1.0
 50
0.0
 71
     0
 42
0.2
  3
txt
  4

1001
AcadAnnotative
1000
AnnotativeData
1002
{
1070
     1
1070
     1
1002
}
  0
ENDTAB
  0
TABLE
  2
VIEW
  5
6
330
0
100
AcDbSymbolTable
 70
     3
  0
ENDTAB
  0
TABLE
  2
UCS
  5
7
330
0
100
AcDbSymbolTable
 70
     0
  0
ENDTAB
  0
TABLE
  2
APPID
  5
9
330
0
100
AcDbSymbolTable
 70
     8
  0
APPID
  5
56
330
9
100
AcDbSymbolTableRecord
100
AcDbRegAppTableRecord
  2
ACAD
 70
     0
  0
APPID
  5
5D
330
9
100
AcDbSymbolTableRecord
100
AcDbRegAppTableRecord
  2
AcadAnnotative
 70
     0
  0
APPID
  5
217
330
9
100
AcDbSymbolTableRecord
100
AcDbRegAppTableRecord
  2
ACAD_NAV_VCDISPLAY
 70
     0
  0
APPID
  5
602
330
9
100
AcDbSymbolTableRecord
100
AcDbRegAppTableRecord
  2
ACAD_EXEMPT_FROM_CAD_STANDARDS
 70
     0
  0
APPID
  5
609
330
9
100
AcDbSymbolTableRecord
100
AcDbRegAppTableRecord
  2
Acad_TC
 70
     0
  0
APPID
  5
BED
330
9
100
AcDbSymbolTableRecord
100
AcDbRegAppTableRecord
  2
ACAD_PSEXT
 70
     0
  0
APPID
  5
BEE
330
9
100
AcDbSymbolTableRecord
100
AcDbRegAppTableRecord
  2
ACAD_DSTYLE_DIMJAG
 70
     0
  0
APPID
  5
BEF
330
9
100
AcDbSymbolTableRecord
100
AcDbRegAppTableRecord
  2
ACAD_DSTYLE_DIMTALN
 70
     0
  0
ENDTAB
  0
TABLE
  2
DIMSTYLE
  5
A
330
0
100
AcDbSymbolTable
 70
     4
100
AcDbDimStyleTable
 71
     1
340
57
  0
DIMSTYLE
105
57
330
A
100
AcDbSymbolTableRecord
100
AcDbDimStyleTableRecord
  2
Standard
 70
     0
340
55
  0
DIMSTYLE
105
58
330
A
100
AcDbSymbolTableRecord
100
AcDbDimStyleTableRecord
  2
Annotative
 70
     0
340
55
1001
AcadAnnotative
1000
AnnotativeData
1002
{
1070
     1
1070
     1
1002
}
  0
DIMSTYLE
105
BEC
330
A
100
AcDbSymbolTableRecord
100
AcDbDimStyleTableRecord
  2
ISO-25
 70
     0
 41
2.5
 42
0.625
 43
3.75
 44
1.25
 73
     0
 74
     0
 77
     1
 78
     8
140
2.5
141
2.5
143
0.03937007874016
147
0.625
171
     3
172
     1
271
     2
272
     2
274
     3
278
    44
283
     0
284
     8
340
55
  0
ENDTAB
  0
TABLE
  2
BLOCK_RECORD
  5
1
330
0
100
AcDbSymbolTable
 70
    18
  0
BLOCK_RECORD
  5
6F
102
{ACAD_XDICTIONARY
360
60B
102
}
330
1
100
AcDbSymbolTableRecord
100
AcDbBlockTableRecord
  2
*Model_Space
340
72
 70
     0
280
     1
281
     0
  0
BLOCK_RECORD
  5
6B
330
1
100
AcDbSymbolTableRecord
100
AcDbBlockTableRecord
  2
*Paper_Space
340
6E
 70
     0
280
     1
281
     0
  0
BLOCK_RECORD
  5
7B7
102
{ACAD_XDICTIONARY
360
7C8
102
}
330
1
100
AcDbSymbolTableRecord
100
AcDbBlockTableRecord
  2
A$C703822ef
340
0
 70
     0
280
     1
281
     0
  0
BLOCK_RECORD
  5
7CC
102
{ACAD_XDICTIONARY
360
7F1
102
}
330
1
100
AcDbSymbolTableRecord
100
AcDbBlockTableRecord
  2
A$Cd2e5c557
340
0
 70
     0
280
     1
281
     0
  0
ENDTAB
  0
ENDSEC
  0
SECTION
  2
BLOCKS
  0
BLOCK
  5
70
330
6F
100
AcDbEntity
  8
0
100
AcDbBlockBegin
  2
*Model_Space
 70
     0
 10
0.0
 20
0.0
 30
0.0
  3
*Model_Space
  1

  0
ENDBLK
  5
71
330
6F
100
AcDbEntity
  8
0
100
AcDbBlockEnd
  0
BLOCK
  5
6C
330
6B
100
AcDbEntity
 67
     1
  8
0
100
AcDbBlockBegin
  2
*Paper_Space
 70
     0
 10
0.0
 20
0.0
 30
0.0
  3
*Paper_Space
  1

  0
ENDBLK
  5
6D
330
6B
100
AcDbEntity
 67
     1
  8
0
100
AcDbBlockEnd
  0
BLOCK
  5
7CA
330
7B7
100
AcDbEntity
  8
0
100
AcDbBlockBegin
  2
A$C703822ef
 70
     0
 10
0.0
 20
0.0
 30
0.0
  3
A$C703822ef
  1

  0
LINE
  5
7B8
330
7B7
100
AcDbEntity
  8
0
 62
     0
100
AcDbLine
 10
0.0
 20
0.9702000000000339
 30
0.0
 11
0.0
 21
5.669200000000046
 31
0.0
  0
LINE
  5
7B9
330
7B7
100
AcDbEntity
  8
0
 62
     0
100
AcDbLine
 10
0.0
 20
5.669200000000046
 30
0.0
 11
1.525999999999953
 21
5.669200000000046
 31
0.0
  0
LINE
  5
7BA
330
7B7
100
AcDbEntity
  8
0
 62
     0
100
AcDbLine
 10
1.525999999999953
 20
5.669200000000046
 30
0.0
 11
1.525999999999953
 21
1.200199999999995
 31
0.0
  0
LINE
  5
7BB
330
7B7
100
AcDbEntity
  8
0
 62
     0
100
AcDbLine
 10
1.525999999999953
 20
1.200199999999995
 30
0.0
 11
3.250999999999976
 21
1.200199999999995
 31
0.0
  0
LINE
  5
7BC
330
7B7
100
AcDbEntity
  8
0
 62
     0
100
AcDbLine
 10
3.250999999999976
 20
1.200199999999995
 30
0.0
 11
3.250999999999976
 21
0.0
 31
0.0
  0
LINE
  5
7BD
330
7B7
100
AcDbEntity
  8
0
 62
     0
100
AcDbLine
 10
3.250999999999976
 20
0.0
 30
0.0
 11
6.549999999999954
 21
0.0
 31
0.0
  0
LINE
  5
7BE
330
7B7
100
AcDbEntity
  8
0
 62
     0
100
AcDbLine
 10
6.549999999999954
 20
0.0
 30
0.0
 11
6.549999999999954
 21
1.200199999999995
 31
0.0
  0
LINE
  5
7BF
330
7B7
100
AcDbEntity
  8
0
 62
     0
100
AcDbLine
 10
6.549999999999954
 20
1.200199999999995
 30
0.0
 11
8.274999999999977
 21
1.200199999999995
 31
0.0
  0
LINE
  5
7C0
330
7B7
100
AcDbEntity
  8
0
 62
     0
100
AcDbLine
 10
8.274999999999977
 20
1.200199999999995
 30
0.0
 11
8.274999999999977
 21
7.470100000000002
 31
0.0
  0
LINE
  5
7C1
330
7B7
100
AcDbEntity
  8
0
 62
     0
100
AcDbLine
 10
8.274999999999977
 20
7.470100000000002
 30
0.0
 11
9.100999999999942
 21
7.470100000000002
 31
0.0
  0
LINE
  5
7C2
330
7B7
100
AcDbEntity
  8
0
 62
     0
100
AcDbLine
 10
9.100999999999942
 20
7.470100000000002
 30
0.0
 11
9.100999999999942
 21
10.269
 31
0.0
  0
LINE
  5
7C3
330
7B7
100
AcDbEntity
  8
0
 62
     0
100
AcDbLine
 10
9.100999999999942
 20
10.269
 30
0.0
 11
8.274999999999977
 21
10.269
 31
0.0
  0
LINE
  5
7C4
330
7B7
100
AcDbEntity
  8
0
 62
     0
100
AcDbLine
 10
8.274999999999977
 20
10.269
 30
0.0
 11
8.274999999999977
 21
13.4991
 31
0.0
  0
LINE
  5
7C5
330
7B7
100
AcDbEntity
  8
0
 62
     0
100
AcDbLine
 10
8.274999999999977
 20
13.4991
 30
0.0
 11
1.525999999999953
 21
13.4991
 31
0.0
  0
LINE
  5
7C6
330
7B7
100
AcDbEntity
  8
0
 62
     0
100
AcDbLine
 10
1.525999999999953
 20
13.4991
 30
0.0
 11
1.525999999999953
 21
10.269
 31
0.0
  0
LINE
  5
7C7
330
7B7
100
AcDbEntity
  8
0
 62
     0
100
AcDbLine
 10
1.525999999999953
 20
10.269
 30
0.0
 11
0.0
 21
10.269
 31
0.0
  0
ENDBLK
  5
7CB
330
7B7
100
AcDbEntity
  8
0
100
AcDbBlockEnd
  0
BLOCK
  5
7F3
330
7CC
100
AcDbEntity
  8
0
100
AcDbBlockBegin
  2
A$Cd2e5c557
 70
     0
 10
0.0
 20
0.0
 30
0.0
  3
A$Cd2e5c557
  1

  0
LINE
  5
7CD
330
7CC
100
AcDbEntity
  8
0
 62
     0
100
AcDbLine
 10
9.100999999999999
 20
14.9695
 30
0.0
 11
9.100999999999999
 21
10.269
 31
0.0
  0
LINE
  5
7CE
330
7CC
100
AcDbEntity
  8
0
 62
     0
100
AcDbLine
 10
9.100999999999999
 20
10.269
 30
0.0
 11
7.574999999999988
 21
10.269
 31
0.0
  0
LINE
  5
7CF
330
7CC
100
AcDbEntity
  8
0
 62
     0
100
AcDbLine
 10
7.574999999999988
 20
10.269
 30
0.0
 11
7.574999999999988
 21
13.4991
 31
0.0
  0
LINE
  5
7D0
330
7CC
100
AcDbEntity
  8
0
 62
     0
100
AcDbLine
 10
7.574999999999988
 20
13.4991
 30
0.0
 11
0.8259999999999934
 21
13.4991
 31
0.0
  0
LINE
  5
7D1
330
7CC
100
AcDbEntity
  8
0
 62
     0
100
AcDbLine
 10
0.8259999999999934
 20
13.4991
 30
0.0
 11
0.8259999999999934
 21
10.269
 31
0.0
  0
LINE
  5
7D2
330
7CC
100
AcDbEntity
  8
0
 62
     0
100
AcDbLine
 10
0.8259999999999934
 20
10.269
 30
0.0
 11
0.0
 21
10.269
 31
0.0
  0
LINE
  5
7D3
330
7CC
100
AcDbEntity
  8
0
 62
     0
100
AcDbLine
 10
0.0
 20
10.269
 30
0.0
 11
0.0
 21
7.470100000000002
 31
0.0
  0
LINE
  5
7D4
330
7CC
100
AcDbEntity
  8
0
 62
     0
100
AcDbLine
 10
0.0
 20
7.470100000000002
 30
0.0
 11
0.8259999999999934
 21
7.470100000000002
 31
0.0
  0
LINE
  5
7D5
330
7CC
100
AcDbEntity
  8
0
 62
     0
100
AcDbLine
 10
0.8259999999999934
 20
7.470100000000002
 30
0.0
 11
0.8259999999999934
 21
1.200200000000009
 31
0.0
  0
LINE
  5
7D6
330
7CC
100
AcDbEntity
  8
0
 62
     0
100
AcDbLine
 10
0.8259999999999934
 20
1.200200000000009
 30
0.0
 11
2.548999999999978
 21
1.200200000000009
 31
0.0
  0
LINE
  5
7D7
330
7CC
100
AcDbEntity
  8
0
 62
     0
100
AcDbLine
 10
2.548999999999978
 20
1.200200000000009
 30
0.0
 11
2.548999999999978
 21
0.0
 31
0.0
  0
LINE
  5
7D8
330
7CC
100
AcDbEntity
  8
0
 62
     0
100
AcDbLine
 10
2.548999999999978
 20
0.0
 30
0.0
 11
5.850000000000022
 21
0.0
 31
0.0
  0
LINE
  5
7D9
330
7CC
100
AcDbEntity
  8
0
 62
     0
100
AcDbLine
 10
5.850000000000022
 20
0.0
 30
0.0
 11
5.850000000000022
 21
1.200200000000009
 31
0.0
  0
LINE
  5
7DA
330
7CC
100
AcDbEntity
  8
0
 62
     0
100
AcDbLine
 10
5.850000000000022
 20
1.200200000000009
 30
0.0
 11
7.574999999999988
 21
1.200200000000009
 31
0.0
  0
LINE
  5
7DB
330
7CC
100
AcDbEntity
  8
0
 62
     0
100
AcDbLine
 10
7.574999999999988
 20
1.200200000000009
 30
0.0
 11
7.574999999999988
 21
5.669200000000003
 31
0.0
  0
LINE
  5
7DC
330
7CC
100
AcDbEntity
  8
0
 62
     0
100
AcDbLine
 10
7.574999999999988
 20
5.669200000000003
 30
0.0
 11
9.100999999999999
 21
5.669200000000003
 31
0.0
  0
LINE
  5
7DD
330
7CC
100
AcDbEntity
  8
0
 62
     0
100
AcDbLine
 10
9.100999999999999
 20
5.669200000000003
 30
0.0
 11
9.100999999999999
 21
0.9702000000000055
 31
0.0
  0
LINE
  5
7DE
330
7CC
100
AcDbEntity
  8
0
 62
     0
100
AcDbLine
 10
9.100999999999999
 20
0.9702000000000055
 30
0.0
 11
23.10000000000002
 21
0.9702000000000055
 31
0.0
  0
LINE
  5
7DF
330
7CC
100
AcDbEntity
  8
0
 62
     0
100
AcDbLine
 10
23.10000000000002
 20
0.9702000000000055
 30
0.0
 11
23.10000000000002
 21
5.669200000000003
 31
0.0
  0
LINE
  5
7E0
330
7CC
100
AcDbEntity
  8
0
 62
     0
100
AcDbLine
 10
23.10000000000002
 20
5.669200000000003
 30
0.0
 11
24.62599999999998
 21
5.669200000000003
 31
0.0
  0
LINE
  5
7E1
330
7CC
100
AcDbEntity
  8
0
 62
     0
100
AcDbLine
 10
24.62599999999998
 20
5.669200000000003
 30
0.0
 11
24.62599999999998
 21
1.200200000000009
 31
0.0
  0
LINE
  5
7E2
330
7CC
100
AcDbEntity
  8
0
 62
     0
100
AcDbLine
 10
24.62599999999998
 20
1.200200000000009
 30
0.0
 11
26.351
 21
1.200200000000009
 31
0.0
  0
LINE
  5
7E3
330
7CC
100
AcDbEntity
  8
0
 62
     0
100
AcDbLine
 10
26.351
 20
1.200200000000009
 30
0.0
 11
26.351
 21
0.0
 31
0.0
  0
LINE
  5
7E4
330
7CC
100
AcDbEntity
  8
0
 62
     0
100
AcDbLine
 10
26.351
 20
0.0
 30
0.0
 11
29.64999999999998
 21
0.0
 31
0.0
  0
LINE
  5
7E5
330
7CC
100
AcDbEntity
  8
0
 62
     0
100
AcDbLine
 10
29.64999999999998
 20
0.0
 30
0.0
 11
29.64999999999998
 21
1.200200000000009
 31
0.0
  0
LINE
  5
7E6
330
7CC
100
AcDbEntity
  8
0
 62
     0
100
AcDbLine
 10
29.64999999999998
 20
1.200200000000009
 30
0.0
 11
31.375
 21
1.200200000000009
 31
0.0
  0
LINE
  5
7E7
330
7CC
100
AcDbEntity
  8
0
 62
     0
100
AcDbLine
 10
31.375
 20
1.200200000000009
 30
0.0
 11
31.375
 21
7.470100000000002
 31
0.0
  0
LINE
  5
7E8
330
7CC
100
AcDbEntity
  8
0
 62
     0
100
AcDbLine
 10
31.375
 20
7.470100000000002
 30
0.0
 11
32.20099999999997
 21
7.470100000000002
 31
0.0
  0
LINE
  5
7E9
330
7CC
100
AcDbEntity
  8
0
 62
     0
100
AcDbLine
 10
32.20099999999997
 20
7.470100000000002
 30
0.0
 11
32.20099999999997
 21
10.269
 31
0.0
  0
LINE
  5
7EA
330
7CC
100
AcDbEntity
  8
0
 62
     0
100
AcDbLine
 10
32.20099999999997
 20
10.269
 30
0.0
 11
31.375
 21
10.269
 31
0.0
  0
LINE
  5
7EB
330
7CC
100
AcDbEntity
  8
0
 62
     0
100
AcDbLine
 10
31.375
 20
10.269
 30
0.0
 11
31.375
 21
13.4991
 31
0.0
  0
LINE
  5
7EC
330
7CC
100
AcDbEntity
  8
0
 62
     0
100
AcDbLine
 10
31.375
 20
13.4991
 30
0.0
 11
24.62599999999998
 21
13.4991
 31
0.0
  0
LINE
  5
7ED
330
7CC
100
AcDbEntity
  8
0
 62
     0
100
AcDbLine
 10
24.62599999999998
 20
13.4991
 30
0.0
 11
24.62599999999998
 21
10.269
 31
0.0
  0
LINE
  5
7EE
330
7CC
100
AcDbEntity
  8
0
 62
     0
100
AcDbLine
 10
24.62599999999998
 20
10.269
 30
0.0
 11
23.10000000000002
 21
10.269
 31
0.0
  0
LINE
  5
7EF
330
7CC
100
AcDbEntity
  8
0
 62
     0
100
AcDbLine
 10
23.10000000000002
 20
10.269
 30
0.0
 11
23.10000000000002
 21
14.9695
 31
0.0
  0
LINE
  5
7F0
330
7CC
100
AcDbEntity
  8
0
 62
     0
100
AcDbLine
 10
23.10000000000002
 20
14.9695
 30
0.0
 11
9.100999999999999
 21
14.9695
 31
0.0
  0
ENDBLK
  5
7F4
330
7CC
100
AcDbEntity
  8
0
100
AcDbBlockEnd
  0
ENDSEC
  0
SECTION
  2
ENTITIES
  0
LINE
  5
A3A
330
6F
100
AcDbEntity
  8
0
 62
     0
100
AcDbLine
 10
241.5406579775996
 20
-914.6833977997955
 30
0.0
 11
-42.05869202240046
 21
-914.6833977997955
 31
0.0
  0
LINE
  5
A3B
330
6F
100
AcDbEntity
  8
0
 62
     0
100
AcDbLine
 10
245.5406579775995
 20
-924.6833977997951
 30
0.0
 11
-46.05869202240046
 21
-924.6833977997953
 31
0.0
  0
LINE
  5
A3E
330
6F
100
AcDbEntity
  8
0
 62
     0
100
AcDbLine
 10
253.5406579775997
 20
-809.5839377997952
 30
0.0
 11
253.5406579775996
 21
-916.6833977997953
 31
0.0
  0
LINE
  5
A40
330
6F
100
AcDbEntity
  8
0
 62
     0
100
AcDbLine
 10
-42.05869202240046
 20
-817.5839377997952
 30
0.0
 11
201.5406579775996
 21
-817.5839377997952
 31
0.0
  0
LINE
  5
A41
330
6F
100
AcDbEntity
  8
0
 62
     0
100
AcDbLine
 10
-46.05869202240046
 20
-801.5839377997952
 30
0.0
 11
201.5406579775996
 21
-801.5839377997952
 31
0.0
  0
LINE
  5
A43
330
6F
100
AcDbEntity
  8
0
 62
     0
100
AcDbLine
 10
-54.05869202240044
 20
-916.6833977997951
 30
0.0
 11
-54.05869202240046
 21
-809.5839377997952
 31
0.0
  0
ARC
  5
A45
330
6F
100
AcDbEntity
  8
0
  6
Continuous
100
AcDbCircle
 10
-46.05869202240046
 20
-809.5839377997952
 30
0.0
 40
8.0
100
AcDbArc
 50
90.0
 51
180.0
  0
ARC
  5
A46
330
6F
100
AcDbEntity
  8
0
  6
Continuous
100
AcDbCircle
 10
-46.05869202240046
 20
-916.6833977997953
 30
0.0
 40
8.0
100
AcDbArc
 50
180.0
 51
270.0
  0
ARC
  5
A47
330
6F
100
AcDbEntity
  8
0
  6
Continuous
100
AcDbCircle
 10
245.5406579775996
 20
-916.6833977997953
 30
0.0
 40
8.0
100
AcDbArc
 50
270.0
 51
0.0
  0
ARC
  5
A48
330
6F
100
AcDbEntity
  8
0
  6
Continuous
100
AcDbCircle
 10
245.5406579775996
 20
-809.5839377997952
 30
0.0
 40
8.0
100
AcDbArc
 50
0.0
 51
90.0
  0
ARC
  5
A49
330
6F
100
AcDbEntity
  8
0
  6
Continuous
100
AcDbCircle
 10
241.5406579775996
 20
-819.5839377997952
 30
0.0
 40
2.0
100
AcDbArc
 50
0.0
 51
90.0
  0
ARC
  5
A4A
330
6F
100
AcDbEntity
  8
0
  6
Continuous
100
AcDbCircle
 10
-42.05869202240046
 20
-819.5839377997952
 30
0.0
 40
2.0
100
AcDbArc
 50
90.0
 51
180.0
  0
LINE
  5
A51
330
6F
100
AcDbEntity
  8
0
 62
     0
100
AcDbLine
 10
247.0125851324033
 20
-1098.299652374212
 30
0.0
 11
-44.58676486759667
 21
-1098.299652374212
 31
0.0
  0
LINE
  5
A52
330
6F
100
AcDbEntity
  8
0
 62
     0
100
AcDbLine
 10
255.0125851324034
 20
-983.2001923742121
 30
0.0
 11
255.0125851324034
 21
-1090.299652374212
 31
0.0
  0
LINE
  5
A53
330
6F
100
AcDbEntity
  8
0
 62
     0
100
AcDbLine
 10
-44.58676486759668
 20
-975.2001923742122
 30
0.0
 11
247.0125851324034
 21
-975.200192374212
 31
0.0
  0
LINE
  5
A54
330
6F
100
AcDbEntity
  8
0
 62
     0
100
AcDbLine
 10
-52.58676486759666
 20
-1090.299652374212
 30
0.0
 11
-52.58676486759668
 21
-983.2001923742122
 31
0.0
  0
ARC
  5
A55
330
6F
100
AcDbEntity
  8
0
  6
Continuous
100
AcDbCircle
 10
-44.58676486759668
 20
-983.2001923742122
 30
0.0
 40
8.0
100
AcDbArc
 50
90.0
 51
180.0
  0
ARC
  5
A56
330
6F
100
AcDbEntity
  8
0
  6
Continuous
100
AcDbCircle
 10
-44.58676486759667
 20
-1090.299652374212
 30
0.0
 40
8.0
100
AcDbArc
 50
180.0
 51
270.0
  0
ARC
  5
A57
330
6F
100
AcDbEntity
  8
0
  6
Continuous
100
AcDbCircle
 10
247.0125851324033
 20
-1090.299652374212
 30
0.0
 40
8.0
100
AcDbArc
 50
270.0
 51
0.0
  0
ARC
  5
A58
330
6F
100
AcDbEntity
  8
0
  6
Continuous
100
AcDbCircle
 10
247.0125851324034
 20
-983.2001923742121
 30
0.0
 40
8.0
100
AcDbArc
 50
0.0
 51
90.0
  0
ARC
  5
A5D
330
6F
100
AcDbEntity
  8
0
  6
Continuous
100
AcDbCircle
 10
-42.05869202240046
 20
-912.6833977997952
 30
0.0
 40
2.0
100
AcDbArc
 50
180.0000000000065
 51
270.0
  0
ARC
  5
A61
330
6F
100
AcDbEntity
  8
0
  6
Continuous
100
AcDbCircle
 10
241.5406579775996
 20
-912.6833977997955
 30
0.0
 40
2.0
100
AcDbArc
 50
270.0
 51
0.0
  0
LINE
  5
AF6
330
6F
100
AcDbEntity
  8
0
 62
     0
100
AcDbLine
 10
241.6021588731779
 20
-728.8002185751078
 30
0.0
 11
234.9032011731779
 21
-728.8002185751078
 31
0.0
  0
LINE
  5
AF7
330
6F
100
AcDbEntity
  8
0
 62
     0
100
AcDbLine
 10
204.7032011731779
 20
-728.8002185751078
 30
0.0
 11
174.9032011731778
 21
-728.8002185751078
 31
0.0
  0
LINE
  5
AF8
330
6F
100
AcDbEntity
  8
0
 62
     0
100
AcDbLine
 10
144.7032011731779
 20
-728.8002185751078
 30
0.0
 11
114.9032011731778
 21
-728.8002185751078
 31
0.0
  0
LINE
  5
AF9
330
6F
100
AcDbEntity
  8
0
 62
     0
100
AcDbLine
 10
84.70320117317788
 20
-728.8002185751078
 30
0.0
 11
54.90320117317783
 21
-728.8002185751078
 31
0.0
  0
LINE
  5
AFA
330
6F
100
AcDbEntity
  8
0
 62
     0
100
AcDbLine
 10
24.70320117317783
 20
-728.8002185751078
 30
0.0
 11
-5.096798826822102
 21
-728.8002185751078
 31
0.0
  0
LINE
  5
AFB
330
6F
100
AcDbEntity
  8
0
 62
     0
100
AcDbLine
 10
245.6021588731779
 20
-738.8002185751076
 30
0.0
 11
-45.99719112682211
 21
-738.8002185751079
 31
0.0
  0
LINE
  5
AFC
330
6F
100
AcDbEntity
  8
0
 62
     0
100
AcDbLine
 10
-35.29679882682211
 20
-728.8002185751078
 30
0.0
 11
-41.99719112682211
 21
-728.8002185751079
 31
0.0
  0
LINE
  5
AFE
330
6F
100
AcDbEntity
  8
0
 62
     0
100
AcDbLine
 10
243.6021588731779
 20
-695.3512620751078
 30
0.0
 11
243.6021588731778
 21
-726.8002185751078
 31
0.0
  0
LINE
  5
AFF
330
6F
100
AcDbEntity
  8
0
 62
     0
100
AcDbLine
 10
253.6021588731779
 20
-623.7007585751078
 30
0.0
 11
253.6021588731779
 21
-730.8002185751078
 31
0.0
  0
LINE
  5
B00
330
6F
100
AcDbEntity
  8
0
 62
     0
100
AcDbLine
 10
-41.99719112682212
 20
-631.7007585751078
 30
0.0
 11
-35.29679882682211
 21
-631.7007585751078
 31
0.0
  0
LINE
  5
B01
330
6F
100
AcDbEntity
  8
0
 62
     0
100
AcDbLine
 10
-5.096798826822102
 20
-631.7007585751078
 30
0.0
 11
24.70320117317789
 21
-631.7007585751078
 31
0.0
  0
LINE
  5
B02
330
6F
100
AcDbEntity
  8
0
 62
     0
100
AcDbLine
 10
-45.99719112682215
 20
-615.7007585751077
 30
0.0
 11
245.6021588731779
 21
-615.7007585751077
 31
0.0
  0
LINE
  5
B03
330
6F
100
AcDbEntity
  8
0
 62
     0
100
AcDbLine
 10
54.90320117317789
 20
-631.7007585751078
 30
0.0
 11
84.70320117317795
 21
-631.7007585751078
 31
0.0
  0
LINE
  5
B04
330
6F
100
AcDbEntity
  8
0
 62
     0
100
AcDbLine
 10
114.9032011731779
 20
-631.7007585751077
 30
0.0
 11
144.7032011731779
 21
-631.7007585751078
 31
0.0
  0
LINE
  5
B05
330
6F
100
AcDbEntity
  8
0
 62
     0
100
AcDbLine
 10
174.9032011731778
 20
-631.7007585751078
 30
0.0
 11
204.7032011731779
 21
-631.7007585751078
 31
0.0
  0
LINE
  5
B06
330
6F
100
AcDbEntity
  8
0
 62
     0
100
AcDbLine
 10
234.9032011731779
 20
-631.7007585751078
 30
0.0
 11
241.6021588731779
 21
-631.7007585751078
 31
0.0
  0
LINE
  5
B08
330
6F
100
AcDbEntity
  8
0
 62
     0
100
AcDbLine
 10
-53.99719112682211
 20
-730.8002185751079
 30
0.0
 11
-53.99719112682214
 21
-623.7007585751078
 31
0.0
  0
LINE
  5
B09
330
6F
100
AcDbEntity
  8
0
 62
     0
100
AcDbLine
 10
-43.99719112682212
 20
-665.1512620751077
 30
0.0
 11
-43.99719112682212
 21
-633.7007585751077
 31
0.0
  0
LINE
  5
B0A
330
6F
100
AcDbEntity
  8
0
 62
     0
100
AcDbLine
 10
-33.2967988268221
 20
-627.7007585751078
 30
0.0
 11
-7.096798826822102
 21
-627.7007585751078
 31
0.0
  0
LINE
  5
B0B
330
6F
100
AcDbEntity
  8
0
 62
     0
100
AcDbLine
 10
-5.096798826822102
 20
-631.7007585751078
 30
0.0
 11
-5.096798826822102
 21
-629.7007585751077
 31
0.0
  0
LINE
  5
B0C
330
6F
100
AcDbEntity
  8
0
 62
     0
100
AcDbLine
 10
-35.29679882682211
 20
-631.7007585751078
 30
0.0
 11
-35.29679882682211
 21
-629.7007585751077
 31
0.0
  0
ARC
  5
B0D
330
6F
100
AcDbEntity
  8
0
  6
Continuous
100
AcDbCircle
 10
-33.2967988268221
 20
-629.7007585751077
 30
0.0
 40
2.0
100
AcDbArc
 50
90.0
 51
180.0
  0
ARC
  5
B0E
330
6F
100
AcDbEntity
  8
0
  6
Continuous
100
AcDbCircle
 10
-7.096798826822102
 20
-629.7007585751077
 30
0.0
 40
2.0
100
AcDbArc
 50
0.0
 51
90.0
  0
LINE
  5
B0F
330
6F
100
AcDbEntity
  8
0
 62
     0
100
AcDbLine
 10
26.70320117317789
 20
-627.7007585751078
 30
0.0
 11
52.90320117317789
 21
-627.7007585751078
 31
0.0
  0
LINE
  5
B10
330
6F
100
AcDbEntity
  8
0
 62
     0
100
AcDbLine
 10
54.90320117317789
 20
-631.7007585751078
 30
0.0
 11
54.90320117317789
 21
-629.7007585751077
 31
0.0
  0
LINE
  5
B11
330
6F
100
AcDbEntity
  8
0
 62
     0
100
AcDbLine
 10
24.70320117317789
 20
-631.7007585751078
 30
0.0
 11
24.70320117317789
 21
-629.7007585751077
 31
0.0
  0
ARC
  5
B12
330
6F
100
AcDbEntity
  8
0
  6
Continuous
100
AcDbCircle
 10
26.70320117317789
 20
-629.7007585751077
 30
0.0
 40
2.0
100
AcDbArc
 50
90.0
 51
180.0
  0
ARC
  5
B13
330
6F
100
AcDbEntity
  8
0
  6
Continuous
100
AcDbCircle
 10
52.90320117317789
 20
-629.7007585751077
 30
0.0
 40
2.0
100
AcDbArc
 50
0.0
 51
90.0
  0
LINE
  5
B14
330
6F
100
AcDbEntity
  8
0
 62
     0
100
AcDbLine
 10
86.70320117317794
 20
-627.7007585751078
 30
0.0
 11
112.9032011731779
 21
-627.7007585751078
 31
0.0
  0
LINE
  5
B15
330
6F
100
AcDbEntity
  8
0
 62
     0
100
AcDbLine
 10
114.9032011731779
 20
-631.7007585751078
 30
0.0
 11
114.9032011731779
 21
-629.7007585751077
 31
0.0
  0
LINE
  5
B16
330
6F
100
AcDbEntity
  8
0
 62
     0
100
AcDbLine
 10
84.70320117317795
 20
-631.7007585751078
 30
0.0
 11
84.70320117317795
 21
-629.7007585751077
 31
0.0
  0
ARC
  5
B17
330
6F
100
AcDbEntity
  8
0
  6
Continuous
100
AcDbCircle
 10
86.70320117317794
 20
-629.7007585751077
 30
0.0
 40
2.0
100
AcDbArc
 50
90.0
 51
180.0
  0
ARC
  5
B18
330
6F
100
AcDbEntity
  8
0
  6
Continuous
100
AcDbCircle
 10
112.9032011731779
 20
-629.7007585751077
 30
0.0
 40
2.0
100
AcDbArc
 50
0.0
 51
90.0
  0
LINE
  5
B19
330
6F
100
AcDbEntity
  8
0
 62
     0
100
AcDbLine
 10
146.7032011731779
 20
-627.7007585751078
 30
0.0
 11
172.9032011731779
 21
-627.7007585751078
 31
0.0
  0
LINE
  5
B1A
330
6F
100
AcDbEntity
  8
0
 62
     0
100
AcDbLine
 10
174.9032011731778
 20
-631.7007585751078
 30
0.0
 11
174.9032011731778
 21
-629.7007585751077
 31
0.0
  0
LINE
  5
B1B
330
6F
100
AcDbEntity
  8
0
 62
     0
100
AcDbLine
 10
144.7032011731779
 20
-631.7007585751078
 30
0.0
 11
144.7032011731779
 21
-629.7007585751077
 31
0.0
  0
ARC
  5
B1C
330
6F
100
AcDbEntity
  8
0
  6
Continuous
100
AcDbCircle
 10
146.7032011731779
 20
-629.7007585751077
 30
0.0
 40
2.0
100
AcDbArc
 50
90.0
 51
180.0
  0
ARC
  5
B1D
330
6F
100
AcDbEntity
  8
0
  6
Continuous
100
AcDbCircle
 10
172.9032011731779
 20
-629.7007585751077
 30
0.0
 40
2.0
100
AcDbArc
 50
0.0
 51
90.0
  0
LINE
  5
B1E
330
6F
100
AcDbEntity
  8
0
 62
     0
100
AcDbLine
 10
206.7032011731779
 20
-627.7007585751078
 30
0.0
 11
232.9032011731779
 21
-627.7007585751078
 31
0.0
  0
LINE
  5
B1F
330
6F
100
AcDbEntity
  8
0
 62
     0
100
AcDbLine
 10
234.9032011731779
 20
-631.7007585751078
 30
0.0
 11
234.9032011731779
 21
-629.7007585751077
 31
0.0
  0
LINE
  5
B20
330
6F
100
AcDbEntity
  8
0
 62
     0
100
AcDbLine
 10
204.7032011731779
 20
-631.7007585751078
 30
0.0
 11
204.7032011731779
 21
-629.7007585751077
 31
0.0
  0
ARC
  5
B21
330
6F
100
AcDbEntity
  8
0
  6
Continuous
100
AcDbCircle
 10
206.7032011731779
 20
-629.7007585751077
 30
0.0
 40
2.0
100
AcDbArc
 50
90.0
 51
180.0
  0
ARC
  5
B22
330
6F
100
AcDbEntity
  8
0
  6
Continuous
100
AcDbCircle
 10
232.9032011731779
 20
-629.7007585751077
 30
0.0
 40
2.0
100
AcDbArc
 50
0.0
 51
90.0
  0
LINE
  5
B23
330
6F
100
AcDbEntity
  8
0
 62
     0
100
AcDbLine
 10
247.6021588731779
 20
-667.1512620751077
 30
0.0
 11
247.6021588731779
 21
-693.3512620751078
 31
0.0
  0
LINE
  5
B24
330
6F
100
AcDbEntity
  8
0
 62
     0
100
AcDbLine
 10
245.6021588731779
 20
-665.1512620751077
 30
0.0
 11
243.6021588731779
 21
-665.1512620751077
 31
0.0
  0
LINE
  5
B25
330
6F
100
AcDbEntity
  8
0
 62
     0
100
AcDbLine
 10
245.6021588731779
 20
-695.3512620751078
 30
0.0
 11
243.6021588731779
 21
-695.3512620751078
 31
0.0
  0
ARC
  5
B26
330
6F
100
AcDbEntity
  8
0
  6
Continuous
100
AcDbCircle
 10
245.6021588731779
 20
-693.3512620751078
 30
0.0
 40
2.0
100
AcDbArc
 50
270.0
 51
0.0
  0
ARC
  5
B27
330
6F
100
AcDbEntity
  8
0
  6
Continuous
100
AcDbCircle
 10
245.6021588731779
 20
-667.1512620751077
 30
0.0
 40
2.0
100
AcDbArc
 50
0.0
 51
90.0
  0
LINE
  5
B28
330
6F
100
AcDbEntity
  8
0
 62
     0
100
AcDbLine
 10
-47.99719112682212
 20
-693.3512620751078
 30
0.0
 11
-47.99719112682212
 21
-667.1512620751077
 31
0.0
  0
LINE
  5
B29
330
6F
100
AcDbEntity
  8
0
 62
     0
100
AcDbLine
 10
-43.99719112682212
 20
-665.1512620751077
 30
0.0
 11
-45.99719112682212
 21
-665.1512620751077
 31
0.0
  0
LINE
  5
B2A
330
6F
100
AcDbEntity
  8
0
 62
     0
100
AcDbLine
 10
-43.99719112682212
 20
-695.3512620751078
 30
0.0
 11
-45.99719112682212
 21
-695.3512620751078
 31
0.0
  0
ARC
  5
B2B
330
6F
100
AcDbEntity
  8
0
  6
Continuous
100
AcDbCircle
 10
-45.99719112682212
 20
-693.3512620751078
 30
0.0
 40
2.0
100
AcDbArc
 50
180.0
 51
270.0
  0
ARC
  5
B2C
330
6F
100
AcDbEntity
  8
0
  6
Continuous
100
AcDbCircle
 10
-45.99719112682212
 20
-667.1512620751077
 30
0.0
 40
2.0
100
AcDbArc
 50
90.0
 51
180.0
  0
LINE
  5
B2D
330
6F
100
AcDbEntity
  8
0
 62
     0
100
AcDbLine
 10
-7.096798826822102
 20
-732.8002185751078
 30
0.0
 11
-33.2967988268221
 21
-732.8002185751078
 31
0.0
  0
LINE
  5
B2E
330
6F
100
AcDbEntity
  8
0
 62
     0
100
AcDbLine
 10
-5.096798826822102
 20
-730.8002185751078
 30
0.0
 11
-5.096798826822102
 21
-728.8002185751078
 31
0.0
  0
LINE
  5
B2F
330
6F
100
AcDbEntity
  8
0
 62
     0
100
AcDbLine
 10
-35.29679882682211
 20
-730.8002185751078
 30
0.0
 11
-35.29679882682211
 21
-728.8002185751078
 31
0.0
  0
ARC
  5
B30
330
6F
100
AcDbEntity
  8
0
  6
Continuous
100
AcDbCircle
 10
-7.096798826822102
 20
-730.8002185751078
 30
0.0
 40
2.0
100
AcDbArc
 50
270.0
 51
0.0
  0
ARC
  5
B31
330
6F
100
AcDbEntity
  8
0
  6
Continuous
100
AcDbCircle
 10
-33.2967988268221
 20
-730.8002185751078
 30
0.0
 40
2.0
100
AcDbArc
 50
180.0
 51
270.0
  0
LINE
  5
B32
330
6F
100
AcDbEntity
  8
0
 62
     0
100
AcDbLine
 10
52.90320117317783
 20
-732.8002185751078
 30
0.0
 11
26.70320117317783
 21
-732.8002185751078
 31
0.0
  0
LINE
  5
B33
330
6F
100
AcDbEntity
  8
0
 62
     0
100
AcDbLine
 10
54.90320117317783
 20
-730.8002185751078
 30
0.0
 11
54.90320117317783
 21
-728.8002185751078
 31
0.0
  0
LINE
  5
B34
330
6F
100
AcDbEntity
  8
0
 62
     0
100
AcDbLine
 10
24.70320117317783
 20
-730.8002185751078
 30
0.0
 11
24.70320117317783
 21
-728.8002185751078
 31
0.0
  0
ARC
  5
B35
330
6F
100
AcDbEntity
  8
0
  6
Continuous
100
AcDbCircle
 10
52.90320117317783
 20
-730.8002185751078
 30
0.0
 40
2.0
100
AcDbArc
 50
270.0
 51
0.0
  0
ARC
  5
B36
330
6F
100
AcDbEntity
  8
0
  6
Continuous
100
AcDbCircle
 10
26.70320117317783
 20
-730.8002185751078
 30
0.0
 40
2.0
100
AcDbArc
 50
180.0
 51
270.0
  0
LINE
  5
B37
330
6F
100
AcDbEntity
  8
0
 62
     0
100
AcDbLine
 10
112.9032011731778
 20
-732.8002185751079
 30
0.0
 11
86.70320117317789
 21
-732.8002185751078
 31
0.0
  0
LINE
  5
B38
330
6F
100
AcDbEntity
  8
0
 62
     0
100
AcDbLine
 10
114.9032011731778
 20
-730.8002185751078
 30
0.0
 11
114.9032011731778
 21
-728.8002185751078
 31
0.0
  0
LINE
  5
B39
330
6F
100
AcDbEntity
  8
0
 62
     0
100
AcDbLine
 10
84.70320117317788
 20
-730.8002185751078
 30
0.0
 11
84.70320117317788
 21
-728.8002185751078
 31
0.0
  0
ARC
  5
B3A
330
6F
100
AcDbEntity
  8
0
  6
Continuous
100
AcDbCircle
 10
112.9032011731778
 20
-730.8002185751078
 30
0.0
 40
2.0
100
AcDbArc
 50
270.0
 51
0.0
  0
ARC
  5
B3B
330
6F
100
AcDbEntity
  8
0
  6
Continuous
100
AcDbCircle
 10
86.70320117317789
 20
-730.8002185751078
 30
0.0
 40
2.0
100
AcDbArc
 50
180.0
 51
270.0
  0
LINE
  5
B3C
330
6F
100
AcDbEntity
  8
0
 62
     0
100
AcDbLine
 10
172.9032011731779
 20
-732.8002185751078
 30
0.0
 11
146.7032011731779
 21
-732.8002185751078
 31
0.0
  0
LINE
  5
B3D
330
6F
100
AcDbEntity
  8
0
 62
     0
100
AcDbLine
 10
174.9032011731778
 20
-730.8002185751078
 30
0.0
 11
174.9032011731778
 21
-728.8002185751078
 31
0.0
  0
LINE
  5
B3E
330
6F
100
AcDbEntity
  8
0
 62
     0
100
AcDbLine
 10
144.7032011731779
 20
-730.8002185751078
 30
0.0
 11
144.7032011731779
 21
-728.8002185751078
 31
0.0
  0
ARC
  5
B3F
330
6F
100
AcDbEntity
  8
0
  6
Continuous
100
AcDbCircle
 10
172.9032011731779
 20
-730.8002185751078
 30
0.0
 40
2.0
100
AcDbArc
 50
270.0
 51
0.0
  0
ARC
  5
B40
330
6F
100
AcDbEntity
  8
0
  6
Continuous
100
AcDbCircle
 10
146.7032011731779
 20
-730.8002185751078
 30
0.0
 40
2.0
100
AcDbArc
 50
180.0
 51
270.0
  0
LINE
  5
B41
330
6F
100
AcDbEntity
  8
0
 62
     0
100
AcDbLine
 10
232.9032011731779
 20
-732.8002185751078
 30
0.0
 11
206.7032011731779
 21
-732.8002185751078
 31
0.0
  0
LINE
  5
B42
330
6F
100
AcDbEntity
  8
0
 62
     0
100
AcDbLine
 10
234.9032011731779
 20
-730.8002185751078
 30
0.0
 11
234.9032011731779
 21
-728.8002185751078
 31
0.0
  0
LINE
  5
B43
330
6F
100
AcDbEntity
  8
0
 62
     0
100
AcDbLine
 10
204.7032011731779
 20
-730.8002185751078
 30
0.0
 11
204.7032011731779
 21
-728.8002185751078
 31
0.0
  0
ARC
  5
B44
330
6F
100
AcDbEntity
  8
0
  6
Continuous
100
AcDbCircle
 10
232.9032011731779
 20
-730.8002185751078
 30
0.0
 40
2.0
100
AcDbArc
 50
270.0
 51
0.0
  0
ARC
  5
B45
330
6F
100
AcDbEntity
  8
0
  6
Continuous
100
AcDbCircle
 10
206.7032011731779
 20
-730.8002185751078
 30
0.0
 40
2.0
100
AcDbArc
 50
180.0
 51
270.0
  0
ARC
  5
B46
330
6F
100
AcDbEntity
  8
0
  6
Continuous
100
AcDbCircle
 10
245.6021588731779
 20
-623.7007585751078
 30
0.0
 40
8.0
100
AcDbArc
 50
0.0
 51
90.0
  0
ARC
  5
B47
330
6F
100
AcDbEntity
  8
0
  6
Continuous
100
AcDbCircle
 10
245.6021588731779
 20
-730.8002185751078
 30
0.0
 40
8.0
100
AcDbArc
 50
270.0
 51
0.0
  0
ARC
  5
B48
330
6F
100
AcDbEntity
  8
0
  6
Continuous
100
AcDbCircle
 10
-45.99719112682211
 20
-730.8002185751079
 30
0.0
 40
8.0
100
AcDbArc
 50
180.0
 51
270.0
  0
ARC
  5
B49
330
6F
100
AcDbEntity
  8
0
  6
Continuous
100
AcDbCircle
 10
-45.99719112682215
 20
-623.7007585751078
 30
0.0
 40
8.0
100
AcDbArc
 50
90.0
 51
180.0
  0
ARC
  5
B4A
330
6F
100
AcDbEntity
  8
0
  6
Continuous
100
AcDbCircle
 10
-41.99719112682212
 20
-633.7007585751077
 30
0.0
 40
2.0
100
AcDbArc
 50
89.99999999999959
 51
180.0
  0
ARC
  5
B4B
330
6F
100
AcDbEntity
  8
0
  6
Continuous
100
AcDbCircle
 10
-41.99719112682211
 20
-726.8002185751078
 30
0.0
 40
2.0
100
AcDbArc
 50
180.0
 51
270.0
  0
ARC
  5
B4C
330
6F
100
AcDbEntity
  8
0
  6
Continuous
100
AcDbCircle
 10
241.6021588731779
 20
-633.7007585751077
 30
0.0
 40
2.0
100
AcDbArc
 50
0.0
 51
90.0
  0
ARC
  5
B4D
330
6F
100
AcDbEntity
  8
0
  6
Continuous
100
AcDbCircle
 10
241.6021588731779
 20
-726.8002185751078
 30
0.0
 40
2.0
100
AcDbArc
 50
270.0
 51
0.0
  0
LINE
  5
B6C
330
6F
100
AcDbEntity
  8
0
 62
     0
100
AcDbLine
 10
222.7095166219904
 20
-518.7024607718369
 30
0.0
 11
222.7095166219903
 21
-534.1024207718369
 31
0.0
  0
LINE
  5
B6D
330
6F
100
AcDbEntity
  8
0
 62
     0
100
AcDbLine
 10
220.7095166219904
 20
-536.1024207718369
 30
0.0
 11
-5.039833378009632
 21
-536.1024207718367
 31
0.0
  0
LINE
  5
B6E
330
6F
100
AcDbEntity
  8
0
 62
     0
100
AcDbLine
 10
253.6345166219903
 20
-546.1024207718367
 30
0.0
 11
-37.96483337800964
 21
-546.1024207718369
 31
0.0
  0
LINE
  5
B6F
330
6F
100
AcDbEntity
  8
0
 62
     0
100
AcDbLine
 10
-33.96483337800964
 20
-516.7024607718367
 30
0.0
 11
-9.039833378009632
 21
-516.7024607718368
 31
0.0
  0
LINE
  5
B71
330
6F
100
AcDbEntity
  8
0
 62
     0
100
AcDbLine
 10
261.6345166219905
 20
-431.0029607718368
 30
0.0
 11
261.6345166219904
 21
-538.1024207718367
 31
0.0
  0
LINE
  5
B72
330
6F
100
AcDbEntity
  8
0
 62
     0
100
AcDbLine
 10
249.6345166219904
 20
-516.7024607718368
 30
0.0
 11
224.7095166219904
 21
-516.7024607718368
 31
0.0
  0
LINE
  5
B73
330
6F
100
AcDbEntity
  8
0
 62
     0
100
AcDbLine
 10
-33.96483337800964
 20
-439.0029607718369
 30
0.0
 11
249.6345166219904
 21
-439.0029607718368
 31
0.0
  0
LINE
  5
B74
330
6F
100
AcDbEntity
  8
0
 62
     0
100
AcDbLine
 10
-37.96483337800964
 20
-423.0029607718369
 30
0.0
 11
253.6345166219904
 21
-423.0029607718368
 31
0.0
  0
LINE
  5
B76
330
6F
100
AcDbEntity
  8
0
 62
     0
100
AcDbLine
 10
-45.96483337800964
 20
-538.1024207718366
 30
0.0
 11
-45.96483337800964
 21
-431.0029607718369
 31
0.0
  0
LINE
  5
B77
330
6F
100
AcDbEntity
  8
0
 62
     0
100
AcDbLine
 10
-7.039833378009632
 20
-534.1024207718368
 30
0.0
 11
-7.039833378009632
 21
-518.7024607718369
 31
0.0
  0
ARC
  5
B78
330
6F
100
AcDbEntity
  8
0
  6
Continuous
100
AcDbCircle
 10
-37.96483337800964
 20
-431.0029607718369
 30
0.0
 40
8.0
100
AcDbArc
 50
90.0
 51
180.0
  0
ARC
  5
B79
330
6F
100
AcDbEntity
  8
0
  6
Continuous
100
AcDbCircle
 10
-37.96483337800964
 20
-538.1024207718367
 30
0.0
 40
8.0
100
AcDbArc
 50
180.0
 51
270.0
  0
ARC
  5
B7A
330
6F
100
AcDbEntity
  8
0
  6
Continuous
100
AcDbCircle
 10
253.6345166219904
 20
-538.1024207718367
 30
0.0
 40
8.0
100
AcDbArc
 50
270.0
 51
0.0
  0
ARC
  5
B7B
330
6F
100
AcDbEntity
  8
0
  6
Continuous
100
AcDbCircle
 10
253.6345166219904
 20
-431.0029607718368
 30
0.0
 40
8.0
100
AcDbArc
 50
0.0
 51
90.0
  0
ARC
  5
B7C
330
6F
100
AcDbEntity
  8
0
  6
Continuous
100
AcDbCircle
 10
249.6345166219904
 20
-441.0029607718367
 30
0.0
 40
2.0
100
AcDbArc
 50
0.0
 51
90.0
  0
ARC
  5
B7D
330
6F
100
AcDbEntity
  8
0
  6
Continuous
100
AcDbCircle
 10
-33.96483337800964
 20
-441.0029607718369
 30
0.0
 40
2.0
100
AcDbArc
 50
90.0
 51
180.0
  0
ARC
  5
B7E
330
6F
100
AcDbEntity
  8
0
  6
Continuous
100
AcDbCircle
 10
-33.96483337800964
 20
-514.7024607718367
 30
0.0
 40
2.0
100
AcDbArc
 50
180.0
 51
270.0
  0
ARC
  5
B7F
330
6F
100
AcDbEntity
  8
0
  6
Continuous
100
AcDbCircle
 10
-9.039833378009632
 20
-518.7024607718369
 30
0.0
 40
2.0
100
AcDbArc
 50
0.0
 51
90.0
  0
ARC
  5
B80
330
6F
100
AcDbEntity
  8
0
  6
Continuous
100
AcDbCircle
 10
-5.039833378009632
 20
-534.1024207718368
 30
0.0
 40
2.0
100
AcDbArc
 50
180.0
 51
270.0
  0
ARC
  5
B81
330
6F
100
AcDbEntity
  8
0
  6
Continuous
100
AcDbCircle
 10
249.6345166219904
 20
-514.7024607718369
 30
0.0
 40
2.0
100
AcDbArc
 50
270.0
 51
0.0
  0
ARC
  5
B82
330
6F
100
AcDbEntity
  8
0
  6
Continuous
100
AcDbCircle
 10
224.7095166219904
 20
-518.7024607718369
 30
0.0
 40
2.0
100
AcDbArc
 50
90.0
 51
180.0
  0
ARC
  5
B83
330
6F
100
AcDbEntity
  8
0
  6
Continuous
100
AcDbCircle
 10
220.7095166219904
 20
-534.1024207718368
 30
0.0
 40
2.0
100
AcDbArc
 50
270.0
 51
0.0
  0
LINE
  5
B85
330
6F
100
AcDbEntity
  8
0
  6
Continuous
100
AcDbLine
 10
9.803201173177894
 20
-609.9066308378565
 30
0.0
 11
9.803201173177894
 21
-609.9066308378565
 31
0.0
  0
CIRCLE
  5
B94
330
6F
100
AcDbEntity
  8
0
  6
Continuous
100
AcDbCircle
 10
9.802158873177887
 20
-623.7007585751078
 30
0.0
 40
1.05
  0
CIRCLE
  5
B95
330
6F
100
AcDbEntity
  8
0
  6
Continuous
100
AcDbCircle
 10
69.80215887317789
 20
-623.7007585751078
 30
0.0
 40
1.05
  0
CIRCLE
  5
B96
330
6F
100
AcDbEntity
  8
0
  6
Continuous
100
AcDbCircle
 10
129.8021588731779
 20
-623.7007585751078
 30
0.0
 40
1.05
  0
CIRCLE
  5
B97
330
6F
100
AcDbEntity
  8
0
  6
Continuous
100
AcDbCircle
 10
189.8021588731779
 20
-623.7007585751078
 30
0.0
 40
1.05
  0
CIRCLE
  5
B99
330
6F
100
AcDbEntity
  8
0
  6
Continuous
100
AcDbCircle
 10
9.802158873177894
 20
-733.8002185751079
 30
0.0
 40
1.05
  0
CIRCLE
  5
B9A
330
6F
100
AcDbEntity
  8
0
  6
Continuous
100
AcDbCircle
 10
69.80215887317789
 20
-733.8002185751077
 30
0.0
 40
1.05
  0
CIRCLE
  5
B9B
330
6F
100
AcDbEntity
  8
0
  6
Continuous
100
AcDbCircle
 10
129.8021588731779
 20
-733.8002185751077
 30
0.0
 40
1.05
  0
CIRCLE
  5
B9C
330
6F
100
AcDbEntity
  8
0
  6
Continuous
100
AcDbCircle
 10
189.8021588731779
 20
-733.8002185751077
 30
0.0
 40
1.05
  0
CIRCLE
  5
B9D
330
6F
100
AcDbEntity
  8
0
  6
Continuous
100
AcDbCircle
 10
243.6021588731778
 20
-733.8002185751077
 30
0.0
 40
1.05
  0
CIRCLE
  5
B9E
330
6F
100
AcDbEntity
  8
0
  6
Continuous
100
AcDbCircle
 10
243.6021588731779
 20
-623.7007585751078
 30
0.0
 40
1.05
  0
CIRCLE
  5
B9F
330
6F
100
AcDbEntity
  8
0
  6
Continuous
100
AcDbCircle
 10
-43.99719112682211
 20
-733.8002185751079
 30
0.0
 40
1.05
  0
CIRCLE
  5
BA0
330
6F
100
AcDbEntity
  8
0
  6
Continuous
100
AcDbCircle
 10
-43.99719112682212
 20
-623.7007585751078
 30
0.0
 40
1.05
  0
LINE
  5
BA1
330
6F
100
AcDbEntity
  8
0
 62
     0
100
AcDbLine
 10
243.6021588731779
 20
-633.7007585751077
 30
0.0
 11
243.6021588731779
 21
-665.1512620751077
 31
0.0
  0
LINE
  5
BA3
330
6F
100
AcDbEntity
  8
0
 62
     0
100
AcDbLine
 10
-43.99719112682211
 20
-726.8002185751078
 30
0.0
 11
-43.99719112682212
 21
-695.3512620751078
 31
0.0
  0
CIRCLE
  5
BAB
330
6F
100
AcDbEntity
  8
0
  6
Continuous
100
AcDbCircle
 10
251.6345166219904
 20
-431.0029607718368
 30
0.0
 40
1.05
  0
CIRCLE
  5
BAC
330
6F
100
AcDbEntity
  8
0
  6
Continuous
100
AcDbCircle
 10
251.6345166219904
 20
-541.1024207718367
 30
0.0
 40
1.05
  0
CIRCLE
  5
BAD
330
6F
100
AcDbEntity
  8
0
  6
Continuous
100
AcDbCircle
 10
197.8345166219904
 20
-541.1024207718367
 30
0.0
 40
1.05
  0
CIRCLE
  5
BAE
330
6F
100
AcDbEntity
  8
0
  6
Continuous
100
AcDbCircle
 10
137.8345166219904
 20
-541.1024207718368
 30
0.0
 40
1.05
  0
CIRCLE
  5
BAF
330
6F
100
AcDbEntity
  8
0
  6
Continuous
100
AcDbCircle
 10
77.83451662199043
 20
-541.1024207718368
 30
0.0
 40
1.05
  0
CIRCLE
  5
BB0
330
6F
100
AcDbEntity
  8
0
  6
Continuous
100
AcDbCircle
 10
17.83451662199044
 20
-541.1024207718369
 30
0.0
 40
1.05
  0
CIRCLE
  5
BB1
330
6F
100
AcDbEntity
  8
0
  6
Continuous
100
AcDbCircle
 10
-35.96483337800965
 20
-541.1024207718369
 30
0.0
 40
1.05
  0
CIRCLE
  5
BB2
330
6F
100
AcDbEntity
  8
0
  6
Continuous
100
AcDbCircle
 10
-35.96483337800965
 20
-431.0029607718369
 30
0.0
 40
1.05
  0
CIRCLE
  5
BB3
330
6F
100
AcDbEntity
  8
0
  6
Continuous
100
AcDbCircle
 10
17.8345166219905
 20
-431.0029607718365
 30
0.0
 40
1.05
  0
CIRCLE
  5
BB4
330
6F
100
AcDbEntity
  8
0
  6
Continuous
100
AcDbCircle
 10
77.8345166219905
 20
-431.0029607718369
 30
0.0
 40
1.05
  0
CIRCLE
  5
BB5
330
6F
100
AcDbEntity
  8
0
  6
Continuous
100
AcDbCircle
 10
137.8345166219905
 20
-431.0029607718369
 30
0.0
 40
1.05
  0
CIRCLE
  5
BB6
330
6F
100
AcDbEntity
  8
0
  6
Continuous
100
AcDbCircle
 10
197.8345166219905
 20
-431.0029607718368
 30
0.0
 40
1.05
  0
LINE
  5
BB8
330
6F
100
AcDbEntity
  8
0
 62
     0
100
AcDbLine
 10
251.6345166219904
 20
-441.0029607718367
 30
0.0
 11
251.6345166219904
 21
-514.7024607718369
 31
0.0
  0
LINE
  5
BB9
330
6F
100
AcDbEntity
  8
0
 62
     0
100
AcDbLine
 10
-35.96483337800965
 20
-514.7024607718367
 30
0.0
 11
-35.96483337800965
 21
-441.0029607718369
 31
0.0
  0
CIRCLE
  5
BC3
330
6F
100
AcDbEntity
  8
0
  6
Continuous
100
AcDbCircle
 10
-42.58676486759666
 20
-1093.299652374212
 30
0.0
 40
1.05
  0
CIRCLE
  5
BC4
330
6F
100
AcDbEntity
  8
0
  6
Continuous
100
AcDbCircle
 10
11.21258513240337
 20
-1093.299652374212
 30
0.0
 40
1.05
  0
CIRCLE
  5
BC5
330
6F
100
AcDbEntity
  8
0
  6
Continuous
100
AcDbCircle
 10
71.21258513240338
 20
-1093.299652374212
 30
0.0
 40
1.05
  0
CIRCLE
  5
BC6
330
6F
100
AcDbEntity
  8
0
  6
Continuous
100
AcDbCircle
 10
131.2125851324033
 20
-1093.299652374212
 30
0.0
 40
1.05
  0
CIRCLE
  5
BC7
330
6F
100
AcDbEntity
  8
0
  6
Continuous
100
AcDbCircle
 10
191.2125851324034
 20
-1093.299652374212
 30
0.0
 40
1.05
  0
CIRCLE
  5
BC8
330
6F
100
AcDbEntity
  8
0
  6
Continuous
100
AcDbCircle
 10
245.0125851324034
 20
-1093.299652374212
 30
0.0
 40
1.05
  0
CIRCLE
  5
BC9
330
6F
100
AcDbEntity
  8
0
  6
Continuous
100
AcDbCircle
 10
245.0125851324035
 20
-983.2001923742121
 30
0.0
 40
1.05
  0
CIRCLE
  5
BCA
330
6F
100
AcDbEntity
  8
0
  6
Continuous
100
AcDbCircle
 10
191.2125851324034
 20
-983.2001923742121
 30
0.0
 40
1.05
  0
CIRCLE
  5
BCB
330
6F
100
AcDbEntity
  8
0
  6
Continuous
100
AcDbCircle
 10
131.2125851324034
 20
-983.2001923742122
 30
0.0
 40
1.05
  0
CIRCLE
  5
BCC
330
6F
100
AcDbEntity
  8
0
  6
Continuous
100
AcDbCircle
 10
71.21258513240343
 20
-983.2001923742122
 30
0.0
 40
1.05
  0
CIRCLE
  5
BCD
330
6F
100
AcDbEntity
  8
0
  6
Continuous
100
AcDbCircle
 10
11.21258513240343
 20
-983.2001923742121
 30
0.0
 40
1.05
  0
CIRCLE
  5
BCE
330
6F
100
AcDbEntity
  8
0
  6
Continuous
100
AcDbCircle
 10
-42.58676486759667
 20
-983.2001923742122
 30
0.0
 40
1.05
  0
CIRCLE
  5
BD5
330
6F
100
AcDbEntity
  8
0
  6
Continuous
100
AcDbCircle
 10
243.5406579775995
 20
-809.5839377997952
 30
0.0
 40
1.5
  0
CIRCLE
  5
BD6
330
6F
100
AcDbEntity
  8
0
  6
Continuous
100
AcDbCircle
 10
189.7406579775996
 20
-809.5839377997952
 30
0.0
 40
1.5
  0
CIRCLE
  5
BD7
330
6F
100
AcDbEntity
  8
0
  6
Continuous
100
AcDbCircle
 10
129.7406579775995
 20
-809.5839377997952
 30
0.0
 40
1.5
  0
CIRCLE
  5
BD8
330
6F
100
AcDbEntity
  8
0
  6
Continuous
100
AcDbCircle
 10
69.74065797759955
 20
-809.5839377997952
 30
0.0
 40
1.5
  0
CIRCLE
  5
BD9
330
6F
100
AcDbEntity
  8
0
  6
Continuous
100
AcDbCircle
 10
9.74065797759956
 20
-809.5839377997952
 30
0.0
 40
1.5
  0
CIRCLE
  5
BDA
330
6F
100
AcDbEntity
  8
0
  6
Continuous
100
AcDbCircle
 10
-44.05869202240046
 20
-809.5839377997952
 30
0.0
 40
1.5
  0
CIRCLE
  5
BDB
330
6F
100
AcDbEntity
  8
0
  6
Continuous
100
AcDbCircle
 10
-44.05869202240046
 20
-919.6833977997956
 30
0.0
 40
1.5
  0
CIRCLE
  5
BDC
330
6F
100
AcDbEntity
  8
0
  6
Continuous
100
AcDbCircle
 10
9.740657977599637
 20
-919.6833977997956
 30
0.0
 40
1.5
  0
CIRCLE
  5
BDD
330
6F
100
AcDbEntity
  8
0
  6
Continuous
100
AcDbCircle
 10
69.74065797759964
 20
-919.6833977997956
 30
0.0
 40
1.5
  0
CIRCLE
  5
BDE
330
6F
100
AcDbEntity
  8
0
  6
Continuous
100
AcDbCircle
 10
129.7406579775996
 20
-919.6833977997956
 30
0.0
 40
1.5
  0
CIRCLE
  5
BDF
330
6F
100
AcDbEntity
  8
0
  6
Continuous
100
AcDbCircle
 10
189.7406579775996
 20
-919.6833977997956
 30
0.0
 40
1.5
  0
CIRCLE
  5
BE0
330
6F
100
AcDbEntity
  8
0
  6
Continuous
100
AcDbCircle
 10
243.5406579775996
 20
-919.6833977997956
 30
0.0
 40
1.5
  0
LINE
  5
BE1
330
6F
100
AcDbEntity
  8
0
 62
     0
100
AcDbLine
 10
243.5406579775996
 20
-819.5839377997952
 30
0.0
 11
243.5406579775996
 21
-912.6833977997955
 31
0.0
  0
LINE
  5
BE3
330
6F
100
AcDbEntity
  8
0
 62
     0
100
AcDbLine
 10
-44.05869202240046
 20
-912.6833977997952
 30
0.0
 11
-44.05869202240046
 21
-819.5839377997952
 31
0.0
  0
HATCH
  5
C21
330
6F
100
AcDbEntity
  8
TopSolderMaskLayer
100
AcDbHatch
 10
0.0
 20
0.0
 30
0.0
210
0.0
220
0.0
230
1.0
  2
SOLID
 70
     1
 71
     0
 91
        1
 92
        7
 72
     1
 73
     1
 93
        4
 10
653.0762660039297
 20
-803.0661876534933
 42
-0.7853981633974483
 10
651.8254684039296
 20
-803.0661876534933
 42
0.0
 10
651.8254684039296
 20
-802.4492555201602
 42
-0.7853981633974483
 10
653.0762660039297
 20
-802.4492555201602
 42
0.0
 97
        0
 75
     0
 76
     1
 47
0.4128176842155181
 98
        1
 10
430.5605248227951
 20
-876.3376161330334
450
        0
451
        0
460
0.0
461
0.0
452
        1
462
1.0
453
        2
463
0.0
 63
     5
421
      255
463
1.0
 63
     7
421
 16777215
470
LINEAR
1001
ACAD
1010
0.0
1020
0.0
1030
0.0
  0
HATCH
  5
C26
330
6F
100
AcDbEntity
  8
BottomSolderMaskLayer
100
AcDbHatch
 10
0.0
 20
0.0
 30
0.0
210
0.0
220
0.0
230
1.0
  2
SOLID
 70
     1
 71
     0
 91
        1
 92
        7
 72
     1
 73
     1
 93
        4
 10
653.0762660039297
 20
-803.0661876534933
 42
-0.7853981633974483
 10
651.8254684039296
 20
-803.0661876534933
 42
0.0
 10
651.8254684039296
 20
-802.4492555201602
 42
-0.7853981633974483
 10
653.0762660039297
 20
-802.4492555201602
 42
0.0
 97
        0
 75
     0
 76
     1
 47
0.4128176842155181
 98
        1
 10
430.5605248227951
 20
-876.3376161330334
450
        0
451
        0
460
0.0
461
0.0
452
        1
462
1.0
453
        2
463
0.0
 63
     5
421
      255
463
1.0
 63
     7
421
 16777215
470
LINEAR
1001
ACAD
1010
0.0
1020
0.0
1030
0.0
  0
HATCH
  5
C2B
330
6F
100
AcDbEntity
  8
Multi-Layer
100
AcDbHatch
 10
0.0
 20
0.0
 30
0.0
210
0.0
220
0.0
230
1.0
  2
SOLID
 70
     1
 71
     0
 91
        1
 92
        7
 72
     1
 73
     1
 93
        4
 10
653.0508660039296
 20
-803.0577209868267
 42
-0.7853981633974483
 10
651.8508684039297
 20
-803.0577209868267
 42
0.0
 10
651.8508684039297
 20
-802.4577221868268
 42
-0.7853981633974483
 10
653.0508660039296
 20
-802.4577221868268
 42
0.0
 97
        0
 75
     0
 76
     1
 47
0.4128176842155181
 98
        1
 10
430.5605248227951
 20
-876.3376161330334
450
        0
451
        0
460
0.0
461
0.0
452
        1
462
1.0
453
        2
463
0.0
 63
     5
421
      255
463
1.0
 63
     7
421
 16777215
470
LINEAR
1001
ACAD
1010
0.0
1020
0.0
1030
0.0
  0
HATCH
  5
C30
330
6F
100
AcDbEntity
  8
TopSolderMaskLayer
100
AcDbHatch
 10
0.0
 20
0.0
 30
0.0
210
0.0
220
0.0
230
1.0
  2
SOLID
 70
     1
 71
     0
 91
        1
 92
        7
 72
     1
 73
     1
 93
        4
 10
644.4260420039299
 20
-803.0661876534933
 42
-0.7853981633974483
 10
643.1752444039298
 20
-803.0661876534933
 42
0.0
 10
643.1752444039298
 20
-802.4492555201602
 42
-0.7853981633974483
 10
644.4260420039299
 20
-802.4492555201602
 42
0.0
 97
        0
 75
     0
 76
     1
 47
0.4128176842155181
 98
        1
 10
430.5605248227951
 20
-876.3376161330334
450
        0
451
        0
460
0.0
461
0.0
452
        1
462
1.0
453
        2
463
0.0
 63
     5
421
      255
463
1.0
 63
     7
421
 16777215
470
LINEAR
1001
ACAD
1010
0.0
1020
0.0
1030
0.0
  0
HATCH
  5
C35
330
6F
100
AcDbEntity
  8
BottomSolderMaskLayer
100
AcDbHatch
 10
0.0
 20
0.0
 30
0.0
210
0.0
220
0.0
230
1.0
  2
SOLID
 70
     1
 71
     0
 91
        1
 92
        7
 72
     1
 73
     1
 93
        4
 10
644.4260420039299
 20
-803.0661876534933
 42
-0.7853981633974483
 10
643.1752444039298
 20
-803.0661876534933
 42
0.0
 10
643.1752444039298
 20
-802.4492555201602
 42
-0.7853981633974483
 10
644.4260420039299
 20
-802.4492555201602
 42
0.0
 97
        0
 75
     0
 76
     1
 47
0.4128176842155181
 98
        1
 10
430.5605248227951
 20
-876.3376161330334
450
        0
451
        0
460
0.0
461
0.0
452
        1
462
1.0
453
        2
463
0.0
 63
     5
421
      255
463
1.0
 63
     7
421
 16777215
470
LINEAR
1001
ACAD
1010
0.0
1020
0.0
1030
0.0
  0
HATCH
  5
C3A
330
6F
100
AcDbEntity
  8
Multi-Layer
100
AcDbHatch
 10
0.0
 20
0.0
 30
0.0
210
0.0
220
0.0
230
1.0
  2
SOLID
 70
     1
 71
     0
 91
        1
 92
        7
 72
     1
 73
     1
 93
        4
 10
644.4006420039299
 20
-803.0577209868267
 42
-0.7853981633974483
 10
643.2006444039298
 20
-803.0577209868267
 42
0.0
 10
643.2006444039298
 20
-802.4577221868268
 42
-0.7853981633974483
 10
644.4006420039299
 20
-802.4577221868268
 42
0.0
 97
        0
 75
     0
 76
     1
 47
0.4128176842155181
 98
        1
 10
430.5605248227951
 20
-876.3376161330334
450
        0
451
        0
460
0.0
461
0.0
452
        1
462
1.0
453
        2
463
0.0
 63
     5
421
      255
463
1.0
 63
     7
421
 16777215
470
LINEAR
1001
ACAD
1010
0.0
1020
0.0
1030
0.0
  0
HATCH
  5
C3B
330
6F
100
AcDbEntity
  8
BottomPasteMaskLayer
100
AcDbHatch
 10
0.0
 20
0.0
 30
0.0
210
0.0
220
0.0
230
1.0
  2
SOLID
 70
     1
 71
     0
 91
        1
 92
        7
 72
     0
 73
     1
 93
      111
 10
644.4053410039298
 20
-802.8616837868268
 10
644.4047568039297
 20
-802.8610995868268
 10
644.4047568039297
 20
-802.4717937868267
 10
644.4036765043392
 20
-802.4360421811163
 10
644.4004395474635
 20
-802.400421029138
 10
644.3950577446068
 20
-802.3650603086121
 10
644.3875507333848
 20
-802.3300890469737
 10
644.377945906067
 20
-802.2956348505633
 10
644.3662783096267
 20
-802.2618234390078
 10
644.3525905178578
 20
-802.2287781864806
 10
644.3369324760285
 20
-802.1966196715251
 10
644.3193613186352
 20
-802.1654652370743
 10
644.2999411609255
 20
-802.1354285622816
 10
644.2787428649487
 20
-802.1066192477155
 10
644.2558437809885
 20
-802.0791424154404
 10
644.2313274653184
 20
-802.0530983254381
 10
644.2052833753161
 20
-802.0285820097681
 10
644.1778065430412
 20
-802.0056829258079
 10
644.1489972284751
 20
-801.9844846298312
 10
644.1189605536822
 20
-801.9650644721217
 10
644.0878061192315
 20
-801.947493314728
 10
644.0556476042761
 20
-801.9318352728985
 10
644.0226023517489
 20
-801.9181474811299
 10
643.9887909401932
 20
-801.9064798846896
 10
643.9543367437829
 20
-801.8968750573717
 10
643.9193654821444
 20
-801.8893680461498
 10
643.8840047616186
 20
-801.8839862432933
 10
643.8483836096404
 20
-801.8807492864175
 10
643.8126320039298
 20
-801.8796689868267
 10
643.7654388039297
 20
-801.8796689868267
 10
643.730515734174
 20
-801.8807664885081
 10
643.6957304898196
 20
-801.8840546622138
 10
643.6612203523343
 20
-801.8895205310249
 10
643.6271215174647
 20
-801.8971425236541
 10
643.5935685577337
 20
-801.9068905595789
 10
643.5606938913442
 20
-801.9187261677547
 10
643.5286272595858
 20
-801.9326026384433
 10
643.4974952148039
 20
-801.9484652075545
 10
643.4674206209565
 20
-801.9662512727748
 10
643.4385221687257
 20
-801.9858906406307
 10
643.4109139071003
 20
-802.0073058035093
 10
643.3847047932752
 20
-802.0304122455467
 10
643.3599982626496
 20
-802.0551187761723
 10
643.3368918206124
 20
-802.0813278899971
 10
643.3154766577338
 20
-802.1089361516228
 10
643.2958372898779
 20
-802.1378346038535
 10
643.2780512246575
 20
-802.1679091977009
 10
643.2621886555464
 20
-802.1990412424827
 10
643.2483121848579
 20
-802.2311078742413
 10
643.236476576682
 20
-802.2639825406306
 10
643.2267285407572
 20
-802.2975355003618
 10
643.2191065481279
 20
-802.3316343352314
 10
643.2136406793167
 20
-802.3661444727165
 10
643.2103525056109
 20
-802.4009297170708
 10
643.2092550039296
 20
-802.4358527868267
 10
643.2092550039296
 20
-802.7250063868269
 10
643.2071468039296
 20
-803.0861689868268
 10
643.2082214962686
 20
-803.1217350252633
 10
643.2114416518498
 20
-803.1571712870826
 10
643.2167955206746
 20
-803.1923484692082
 10
643.2242635670561
 20
-803.2271382139175
 10
643.2338185409037
 20
-803.2614135772044
 10
643.2454255771529
 20
-803.2950494919862
 10
643.259042322988
 20
-803.3279232244568
 10
643.2746190923801
 20
-803.3599148219318
 10
643.2920990473867
 20
-803.3909075505412
 10
643.3114184055475
 20
-803.4207883211797
 10
643.3325066726199
 20
-803.4494481021551
 10
643.3552868998044
 20
-803.4767823170353
 10
643.3796759645222
 20
-803.5026912262344
 10
643.4055848737214
 20
-803.5270802909522
 10
643.4329190886014
 20
-803.5498605181366
 10
643.4615788695771
 20
-803.570948785209
 10
643.4914596402154
 20
-803.5902681433698
 10
643.522452368825
 20
-803.6077480983763
 10
643.5544439662999
 20
-803.6233248677683
 10
643.5873176987704
 20
-803.6369416136036
 10
643.6209536135522
 20
-803.6485486498529
 10
643.6552289768392
 20
-803.6581036237002
 10
643.6900187215483
 20
-803.6655716700821
 10
643.7251959036739
 20
-803.6709255389068
 10
643.7606321654932
 20
-803.6741456944877
 10
643.7961982039298
 20
-803.6752203868269
 10
643.8310470039295
 20
-803.6752203868267
 10
643.8657726219848
 20
-803.6741710893135
 10
643.9003715300257
 20
-803.6710270255463
 10
643.9347174803885
 20
-803.665799667873
 10
643.968685148426
 20
-803.6585080903551
 10
644.0021505898
 20
-803.6491788991678
 10
644.034991692745
 20
-803.6378461355182
 10
644.067088623638
 20
-803.6245511514319
 10
644.0983242642582
 20
-803.609342458864
 10
644.128584639141
 20
-803.5922755526843
 10
644.1577593314596
 20
-803.5734127081827
 10
644.185741885926
 20
-803.5528227538332
 10
644.2124301972334
 20
-803.530580820146
 10
644.2377268826285
 20
-803.5067680655256
 10
644.2615396372491
 20
-803.4814713801306
 10
644.2837815709358
 20
-803.4547830688232
 10
644.3043715252856
 20
-803.4268005143568
 10
644.3232343697871
 20
-803.3976258220379
 10
644.340301275967
 20
-803.3673654471552
 10
644.3555099685347
 20
-803.3361298065351
 10
644.368804952621
 20
-803.3040328756422
 10
644.3801377162706
 20
-803.2711917726972
 10
644.3894669074579
 20
-803.2377263313229
 10
644.3967584849758
 20
-803.2037586632858
 10
644.401985842649
 20
-803.1694127129227
 10
644.4051299064162
 20
-803.1348138048819
 10
644.4061792039296
 20
-803.1000881868267
 10
644.4061792039299
 20
-802.9839847868267
 97
        0
 75
     0
 76
     1
 47
0.4128176842155181
 98
        1
 10
430.5605248227951
 20
-876.3376161330334
450
        0
451
        0
460
0.0
461
0.0
452
        1
462
1.0
453
        2
463
0.0
 63
     5
421
      255
463
1.0
 63
     7
421
 16777215
470
LINEAR
1001
ACAD
1010
0.0
1020
0.0
1030
0.0
  0
HATCH
  5
C3C
330
6F
100
AcDbEntity
  8
BottomPasteMaskLayer
100
AcDbHatch
 10
0.0
 20
0.0
 30
0.0
210
0.0
220
0.0
230
1.0
  2
SOLID
 70
     1
 71
     0
 91
        1
 92
        7
 72
     0
 73
     1
 93
      111
 10
653.0454050039296
 20
-802.8616837868268
 10
653.0448208039299
 20
-802.8610995868268
 10
653.0448208039299
 20
-802.4717937868267
 10
653.0437405043394
 20
-802.4360421811163
 10
653.0405035474634
 20
-802.400421029138
 10
653.035121744607
 20
-802.3650603086121
 10
653.027614733385
 20
-802.3300890469736
 10
653.0180099060672
 20
-802.2956348505633
 10
653.0063423096269
 20
-802.2618234390076
 10
652.992654517858
 20
-802.2287781864806
 10
652.9769964760287
 20
-802.1966196715249
 10
652.9594253186353
 20
-802.1654652370743
 10
652.9400051609252
 20
-802.1354285622814
 10
652.9188068649489
 20
-802.1066192477153
 10
652.8959077809886
 20
-802.0791424154404
 10
652.8713914653185
 20
-802.053098325438
 10
652.845347375316
 20
-802.0285820097681
 10
652.8178705430412
 20
-802.0056829258077
 10
652.789061228475
 20
-801.9844846298312
 10
652.7590245536823
 20
-801.9650644721215
 10
652.7278701192317
 20
-801.947493314728
 10
652.6957116042758
 20
-801.9318352728985
 10
652.6626663517488
 20
-801.9181474811299
 10
652.6288549401932
 20
-801.9064798846896
 10
652.5944007437828
 20
-801.8968750573717
 10
652.5594294821441
 20
-801.8893680461497
 10
652.5240687616185
 20
-801.8839862432932
 10
652.4884476096404
 20
-801.8807492864175
 10
652.4526960039297
 20
-801.8796689868267
 10
652.4055028039297
 20
-801.8796689868267
 10
652.370579734174
 20
-801.8807664885081
 10
652.3357944898195
 20
-801.8840546622138
 10
652.3012843523343
 20
-801.8895205310249
 10
652.2671855174646
 20
-801.8971425236541
 10
652.2336325577336
 20
-801.9068905595789
 10
652.2007578913441
 20
-801.9187261677547
 10
652.1686912595858
 20
-801.9326026384433
 10
652.1375592148038
 20
-801.9484652075545
 10
652.1074846209565
 20
-801.9662512727748
 10
652.0785861687256
 20
-801.9858906406307
 10
652.0509779071001
 20
-802.0073058035093
 10
652.0247687932752
 20
-802.0304122455467
 10
652.0000622626496
 20
-802.0551187761723
 10
651.9769558206124
 20
-802.0813278899971
 10
651.9555406577337
 20
-802.1089361516228
 10
651.9359012898778
 20
-802.1378346038535
 10
651.9181152246574
 20
-802.1679091977009
 10
651.9022526555463
 20
-802.1990412424827
 10
651.8883761848576
 20
-802.2311078742413
 10
651.8765405766819
 20
-802.2639825406306
 10
651.8667925407571
 20
-802.2975355003618
 10
651.8591705481278
 20
-802.3316343352314
 10
651.8537046793166
 20
-802.3661444727165
 10
651.8504165056108
 20
-802.4009297170708
 10
651.8493190039296
 20
-802.4358527868267
 10
651.8493190039296
 20
-802.7250063868269
 10
651.84721080393
 20
-803.0861689868268
 10
651.848285496269
 20
-803.1217350252633
 10
651.8515056518501
 20
-803.1571712870826
 10
651.856859520675
 20
-803.1923484692082
 10
651.8643275670565
 20
-803.2271382139175
 10
651.8738825409038
 20
-803.2614135772044
 10
651.8854895771532
 20
-803.2950494919861
 10
651.8991063229885
 20
-803.3279232244566
 10
651.9146830923805
 20
-803.3599148219318
 10
651.9321630473871
 20
-803.3909075505411
 10
651.9514824055479
 20
-803.4207883211795
 10
651.9725706726203
 20
-803.449448102155
 10
651.9953508998049
 20
-803.4767823170351
 10
652.0197399645224
 20
-803.5026912262344
 10
652.0456488737213
 20
-803.527080290952
 10
652.0729830886018
 20
-803.5498605181366
 10
652.1016428695773
 20
-803.5709487852088
 10
652.1315236402156
 20
-803.5902681433698
 10
652.1625163688252
 20
-803.6077480983763
 10
652.1945079663001
 20
-803.6233248677682
 10
652.2273816987708
 20
-803.6369416136034
 10
652.2610176135522
 20
-803.6485486498529
 10
652.2952929768393
 20
-803.6581036237002
 10
652.3300827215485
 20
-803.6655716700819
 10
652.3652599036741
 20
-803.6709255389068
 10
652.4006961654934
 20
-803.6741456944877
 10
652.43626220393
 20
-803.6752203868269
 10
652.4711110039295
 20
-803.6752203868267
 10
652.5058366219848
 20
-803.6741710893135
 10
652.5404355300256
 20
-803.6710270255463
 10
652.5747814803885
 20
-803.665799667873
 10
652.6087491484259
 20
-803.6585080903551
 10
652.6422145898
 20
-803.6491788991678
 10
652.6750556927449
 20
-803.6378461355182
 10
652.707152623638
 20
-803.6245511514319
 10
652.7383882642582
 20
-803.609342458864
 10
652.7686486391408
 20
-803.5922755526843
 10
652.7978233314595
 20
-803.5734127081827
 10
652.8258058859259
 20
-803.5528227538332
 10
652.8524941972334
 20
-803.530580820146
 10
652.8777908826285
 20
-803.5067680655256
 10
652.9016036372491
 20
-803.4814713801306
 10
652.9238455709357
 20
-803.4547830688232
 10
652.9444355252853
 20
-803.4268005143568
 10
652.963298369787
 20
-803.3976258220379
 10
652.9803652759667
 20
-803.3673654471552
 10
652.9955739685346
 20
-803.3361298065351
 10
653.0088689526207
 20
-803.3040328756422
 10
653.0202017162705
 20
-803.2711917726972
 10
653.0295309074579
 20
-803.2377263313229
 10
653.0368224849758
 20
-803.2037586632858
 10
653.042049842649
 20
-803.1694127129227
 10
653.0451939064162
 20
-803.1348138048819
 10
653.0462432039294
 20
-803.1000881868267
 10
653.0462432039296
 20
-802.9839847868267
 97
        0
 75
     0
 76
     1
 47
0.4128176842155181
 98
        1
 10
430.5605248227951
 20
-876.3376161330334
450
        0
451
        0
460
0.0
461
0.0
452
        1
462
1.0
453
        2
463
0.0
 63
     5
421
      255
463
1.0
 63
     7
421
 16777215
470
LINEAR
1001
ACAD
1010
0.0
1020
0.0
1030
0.0
  0
HATCH
  5
C6C
330
6F
100
AcDbEntity
  8
TopSolderMaskLayer
100
AcDbHatch
 10
0.0
 20
0.0
 30
0.0
210
0.0
220
0.0
230
1.0
  2
SOLID
 70
     1
 71
     0
 91
        1
 92
        7
 72
     1
 73
     1
 93
        4
 10
712.1605147204661
 20
-523.3079630806616
 42
-0.7853981633974483
 10
710.9097171204659
 20
-523.3079630806616
 42
0.0
 10
710.9097171204659
 20
-522.6910309473285
 42
-0.7853981633974483
 10
712.1605147204661
 20
-522.6910309473285
 42
0.0
 97
        0
 75
     0
 76
     1
 47
0.4128176842155181
 98
        1
 10
489.6447735393316
 20
-596.5793915602017
450
        0
451
        0
460
0.0
461
0.0
452
        1
462
1.0
453
        2
463
0.0
 63
     5
421
      255
463
1.0
 63
     7
421
 16777215
470
LINEAR
1001
ACAD
1010
0.0
1020
0.0
1030
0.0
  0
HATCH
  5
C71
330
6F
100
AcDbEntity
  8
BottomSolderMaskLayer
100
AcDbHatch
 10
0.0
 20
0.0
 30
0.0
210
0.0
220
0.0
230
1.0
  2
SOLID
 70
     1
 71
     0
 91
        1
 92
        7
 72
     1
 73
     1
 93
        4
 10
712.1605147204661
 20
-523.3079630806616
 42
-0.7853981633974483
 10
710.9097171204659
 20
-523.3079630806616
 42
0.0
 10
710.9097171204659
 20
-522.6910309473285
 42
-0.7853981633974483
 10
712.1605147204661
 20
-522.6910309473285
 42
0.0
 97
        0
 75
     0
 76
     1
 47
0.4128176842155181
 98
        1
 10
489.6447735393316
 20
-596.5793915602017
450
        0
451
        0
460
0.0
461
0.0
452
        1
462
1.0
453
        2
463
0.0
 63
     5
421
      255
463
1.0
 63
     7
421
 16777215
470
LINEAR
1001
ACAD
1010
0.0
1020
0.0
1030
0.0
  0
HATCH
  5
C76
330
6F
100
AcDbEntity
  8
Multi-Layer
100
AcDbHatch
 10
0.0
 20
0.0
 30
0.0
210
0.0
220
0.0
230
1.0
  2
SOLID
 70
     1
 71
     0
 91
        1
 92
        7
 72
     1
 73
     1
 93
        4
 10
712.135114720466
 20
-523.299496413995
 42
-0.7853981633974483
 10
710.9351171204662
 20
-523.299496413995
 42
0.0
 10
710.9351171204662
 20
-522.699497613995
 42
-0.7853981633974483
 10
712.135114720466
 20
-522.699497613995
 42
0.0
 97
        0
 75
     0
 76
     1
 47
0.4128176842155181
 98
        1
 10
489.6447735393316
 20
-596.5793915602017
450
        0
451
        0
460
0.0
461
0.0
452
        1
462
1.0
453
        2
463
0.0
 63
     5
421
      255
463
1.0
 63
     7
421
 16777215
470
LINEAR
1001
ACAD
1010
0.0
1020
0.0
1030
0.0
  0
HATCH
  5
C7B
330
6F
100
AcDbEntity
  8
TopSolderMaskLayer
100
AcDbHatch
 10
0.0
 20
0.0
 30
0.0
210
0.0
220
0.0
230
1.0
  2
SOLID
 70
     1
 71
     0
 91
        1
 92
        7
 72
     1
 73
     1
 93
        4
 10
703.5102907204662
 20
-523.3079630806616
 42
-0.7853981633974483
 10
702.2594931204662
 20
-523.3079630806616
 42
0.0
 10
702.2594931204662
 20
-522.6910309473285
 42
-0.7853981633974483
 10
703.5102907204662
 20
-522.6910309473285
 42
0.0
 97
        0
 75
     0
 76
     1
 47
0.4128176842155181
 98
        1
 10
489.6447735393316
 20
-596.5793915602017
450
        0
451
        0
460
0.0
461
0.0
452
        1
462
1.0
453
        2
463
0.0
 63
     5
421
      255
463
1.0
 63
     7
421
 16777215
470
LINEAR
1001
ACAD
1010
0.0
1020
0.0
1030
0.0
  0
HATCH
  5
C80
330
6F
100
AcDbEntity
  8
BottomSolderMaskLayer
100
AcDbHatch
 10
0.0
 20
0.0
 30
0.0
210
0.0
220
0.0
230
1.0
  2
SOLID
 70
     1
 71
     0
 91
        1
 92
        7
 72
     1
 73
     1
 93
        4
 10
703.5102907204662
 20
-523.3079630806616
 42
-0.7853981633974483
 10
702.2594931204662
 20
-523.3079630806616
 42
0.0
 10
702.2594931204662
 20
-522.6910309473285
 42
-0.7853981633974483
 10
703.5102907204662
 20
-522.6910309473285
 42
0.0
 97
        0
 75
     0
 76
     1
 47
0.4128176842155181
 98
        1
 10
489.6447735393316
 20
-596.5793915602017
450
        0
451
        0
460
0.0
461
0.0
452
        1
462
1.0
453
        2
463
0.0
 63
     5
421
      255
463
1.0
 63
     7
421
 16777215
470
LINEAR
1001
ACAD
1010
0.0
1020
0.0
1030
0.0
  0
HATCH
  5
C85
330
6F
100
AcDbEntity
  8
Multi-Layer
100
AcDbHatch
 10
0.0
 20
0.0
 30
0.0
210
0.0
220
0.0
230
1.0
  2
SOLID
 70
     1
 71
     0
 91
        1
 92
        7
 72
     1
 73
     1
 93
        4
 10
703.4848907204662
 20
-523.299496413995
 42
-0.7853981633974483
 10
702.2848931204662
 20
-523.299496413995
 42
0.0
 10
702.2848931204662
 20
-522.699497613995
 42
-0.7853981633974483
 10
703.4848907204662
 20
-522.699497613995
 42
0.0
 97
        0
 75
     0
 76
     1
 47
0.4128176842155181
 98
        1
 10
489.6447735393316
 20
-596.5793915602017
450
        0
451
        0
460
0.0
461
0.0
452
        1
462
1.0
453
        2
463
0.0
 63
     5
421
      255
463
1.0
 63
     7
421
 16777215
470
LINEAR
1001
ACAD
1010
0.0
1020
0.0
1030
0.0
  0
HATCH
  5
C86
330
6F
100
AcDbEntity
  8
BottomPasteMaskLayer
100
AcDbHatch
 10
0.0
 20
0.0
 30
0.0
210
0.0
220
0.0
230
1.0
  2
SOLID
 70
     1
 71
     0
 91
        1
 92
        7
 72
     0
 73
     1
 93
      111
 10
703.4895897204663
 20
-523.103459213995
 10
703.4890055204662
 20
-523.102875013995
 10
703.4890055204662
 20
-522.713569213995
 10
703.4879252208757
 20
-522.6778176082844
 10
703.4846882639999
 20
-522.6421964563062
 10
703.4793064611433
 20
-522.6068357357804
 10
703.4717994499212
 20
-522.5718644741419
 10
703.4621946226033
 20
-522.5374102777315
 10
703.4505270261631
 20
-522.503598866176
 10
703.4368392343942
 20
-522.4705536136489
 10
703.421181192565
 20
-522.4383950986932
 10
703.4036100351715
 20
-522.4072406642426
 10
703.3841898774619
 20
-522.3772039894498
 10
703.3629915814851
 20
-522.3483946748837
 10
703.3400924975248
 20
-522.3209178426087
 10
703.3155761818548
 20
-522.2948737526063
 10
703.2895320918526
 20
-522.2703574369363
 10
703.2620552595776
 20
-522.2474583529762
 10
703.2332459450115
 20
-522.2262600569995
 10
703.2032092702186
 20
-522.2068398992899
 10
703.172054835768
 20
-522.1892687418963
 10
703.1398963208125
 20
-522.1736107000668
 10
703.1068510682853
 20
-522.1599229082982
 10
703.0730396567296
 20
-522.1482553118578
 10
703.0385854603194
 20
-522.13865048454
 10
703.0036141986808
 20
-522.131143473318
 10
702.9682534781549
 20
-522.1257616704615
 10
702.9326323261768
 20
-522.1225247135857
 10
702.8968807204662
 20
-522.121444413995
 10
702.8496875204662
 20
-522.121444413995
 10
702.8147644507105
 20
-522.1225419156763
 10
702.7799792063561
 20
-522.1258300893821
 10
702.7454690688707
 20
-522.1312959581931
 10
702.7113702340011
 20
-522.1389179508224
 10
702.6778172742702
 20
-522.1486659867472
 10
702.6449426078807
 20
-522.160501594923
 10
702.6128759761222
 20
-522.1743780656116
 10
702.5817439313402
 20
-522.1902406347228
 10
702.5516693374929
 20
-522.2080266999431
 10
702.5227708852622
 20
-522.2276660677989
 10
702.4951626236368
 20
-522.2490812306776
 10
702.4689535098116
 20
-522.2721876727149
 10
702.4442469791861
 20
-522.2968942033405
 10
702.4211405371488
 20
-522.3231033171654
 10
702.3997253742702
 20
-522.3507115787909
 10
702.3800860064143
 20
-522.3796100310217
 10
702.3622999411939
 20
-522.4096846248691
 10
702.3464373720828
 20
-522.440816669651
 10
702.3325609013943
 20
-522.4728833014095
 10
702.3207252932183
 20
-522.5057579677988
 10
702.3109772572937
 20
-522.5393109275301
 10
702.3033552646643
 20
-522.5734097623996
 10
702.2978893958532
 20
-522.6079198998848
 10
702.2946012221473
 20
-522.6427051442391
 10
702.2935037204661
 20
-522.677628213995
 10
702.2935037204661
 20
-522.9667818139951
 10
702.291395520466
 20
-523.3279444139951
 10
702.292470212805
 20
-523.3635104524315
 10
702.2956903683862
 20
-523.3989467142509
 10
702.301044237211
 20
-523.4341238963764
 10
702.3085122835925
 20
-523.4689136410857
 10
702.3180672574401
 20
-523.5031890043727
 10
702.3296742936893
 20
-523.5368249191544
 10
702.3432910395245
 20
-523.5696986516251
 10
702.3588678089165
 20
-523.6016902491
 10
702.3763477639231
 20
-523.6326829777095
 10
702.3956671220839
 20
-523.6625637483479
 10
702.4167553891563
 20
-523.6912235293234
 10
702.4395356163409
 20
-523.7185577442036
 10
702.4639246810586
 20
-523.7444666534027
 10
702.4898335902578
 20
-523.7688557181204
 10
702.5171678051378
 20
-523.7916359453048
 10
702.5458275861135
 20
-523.8127242123773
 10
702.5757083567518
 20
-523.8320435705381
 10
702.6067010853615
 20
-523.8495235255446
 10
702.6386926828363
 20
-523.8651002949366
 10
702.6715664153068
 20
-523.8787170407717
 10
702.7052023300886
 20
-523.8903240770212
 10
702.7394776933756
 20
-523.8998790508685
 10
702.7742674380847
 20
-523.9073470972503
 10
702.8094446202103
 20
-523.912700966075
 10
702.8448808820296
 20
-523.915921121656
 10
702.8804469204662
 20
-523.9169958139951
 10
702.915295720466
 20
-523.916995813995
 10
702.9500213385213
 20
-523.9159465164817
 10
702.9846202465621
 20
-523.9128024527145
 10
703.018966196925
 20
-523.9075750950413
 10
703.0529338649623
 20
-523.9002835175234
 10
703.0863993063364
 20
-523.8909543263361
 10
703.1192404092815
 20
-523.8796215626864
 10
703.1513373401744
 20
-523.8663265786002
 10
703.1825729807946
 20
-523.8511178860322
 10
703.2128333556775
 20
-523.8340509798526
 10
703.242008047996
 20
-523.815188135351
 10
703.2699906024625
 20
-523.7945981810014
 10
703.2966789137699
 20
-523.7723562473142
 10
703.3219755991649
 20
-523.7485434926937
 10
703.3457883537855
 20
-523.7232468072988
 10
703.3680302874723
 20
-523.6965584959914
 10
703.388620241822
 20
-523.668575941525
 10
703.4074830863235
 20
-523.6394012492062
 10
703.4245499925035
 20
-523.6091408743235
 10
703.4397586850712
 20
-523.5779052337033
 10
703.4530536691574
 20
-523.5458083028105
 10
703.464386432807
 20
-523.5129671998654
 10
703.4737156239944
 20
-523.4795017584912
 10
703.4810072015122
 20
-523.445534090454
 10
703.4862345591855
 20
-523.4111881400909
 10
703.4893786229527
 20
-523.3765892320501
 10
703.4904279204661
 20
-523.3418636139949
 10
703.4904279204663
 20
-523.2257602139949
 97
        0
 75
     0
 76
     1
 47
0.4128176842155181
 98
        1
 10
489.6447735393316
 20
-596.5793915602017
450
        0
451
        0
460
0.0
461
0.0
452
        1
462
1.0
453
        2
463
0.0
 63
     5
421
      255
463
1.0
 63
     7
421
 16777215
470
LINEAR
1001
ACAD
1010
0.0
1020
0.0
1030
0.0
  0
HATCH
  5
C87
330
6F
100
AcDbEntity
  8
BottomPasteMaskLayer
100
AcDbHatch
 10
0.0
 20
0.0
 30
0.0
210
0.0
220
0.0
230
1.0
  2
SOLID
 70
     1
 71
     0
 91
        1
 92
        7
 72
     0
 73
     1
 93
      111
 10
712.1296537204659
 20
-523.103459213995
 10
712.1290695204663
 20
-523.102875013995
 10
712.1290695204663
 20
-522.713569213995
 10
712.1279892208758
 20
-522.6778176082844
 10
712.1247522639999
 20
-522.6421964563062
 10
712.1193704611434
 20
-522.6068357357804
 10
712.1118634499214
 20
-522.5718644741418
 10
712.1022586226035
 20
-522.5374102777315
 10
712.0905910261633
 20
-522.5035988661759
 10
712.0769032343944
 20
-522.4705536136488
 10
712.0612451925651
 20
-522.4383950986931
 10
712.0436740351717
 20
-522.4072406642426
 10
712.0242538774617
 20
-522.3772039894497
 10
712.0030555814853
 20
-522.3483946748835
 10
711.980156497525
 20
-522.3209178426087
 10
711.9556401818549
 20
-522.2948737526062
 10
711.9295960918525
 20
-522.2703574369363
 10
711.9021192595775
 20
-522.247458352976
 10
711.8733099450114
 20
-522.2262600569994
 10
711.8432732702188
 20
-522.2068398992897
 10
711.8121188357681
 20
-522.1892687418963
 10
711.7799603208123
 20
-522.1736107000668
 10
711.7469150682852
 20
-522.1599229082981
 10
711.7131036567295
 20
-522.1482553118578
 10
711.6786494603193
 20
-522.13865048454
 10
711.6436781986806
 20
-522.1311434733179
 10
711.6083174781549
 20
-522.1257616704614
 10
711.5726963261768
 20
-522.1225247135857
 10
711.5369447204662
 20
-522.121444413995
 10
711.4897515204661
 20
-522.121444413995
 10
711.4548284507105
 20
-522.1225419156763
 10
711.420043206356
 20
-522.1258300893821
 10
711.3855330688707
 20
-522.1312959581931
 10
711.351434234001
 20
-522.1389179508224
 10
711.3178812742701
 20
-522.1486659867472
 10
711.2850066078806
 20
-522.160501594923
 10
711.2529399761221
 20
-522.1743780656116
 10
711.2218079313402
 20
-522.1902406347228
 10
711.1917333374929
 20
-522.2080266999431
 10
711.1628348852621
 20
-522.2276660677989
 10
711.1352266236365
 20
-522.2490812306776
 10
711.1090175098115
 20
-522.2721876727149
 10
711.084310979186
 20
-522.2968942033405
 10
711.0612045371488
 20
-522.3231033171654
 10
711.0397893742701
 20
-522.3507115787909
 10
711.0201500064142
 20
-522.3796100310217
 10
711.0023639411938
 20
-522.4096846248691
 10
710.9865013720828
 20
-522.440816669651
 10
710.972624901394
 20
-522.4728833014095
 10
710.9607892932183
 20
-522.5057579677988
 10
710.9510412572936
 20
-522.5393109275301
 10
710.9434192646642
 20
-522.5734097623996
 10
710.9379533958531
 20
-522.6079198998848
 10
710.9346652221472
 20
-522.6427051442391
 10
710.933567720466
 20
-522.677628213995
 10
710.933567720466
 20
-522.9667818139951
 10
710.9314595204664
 20
-523.3279444139951
 10
710.9325342128054
 20
-523.3635104524315
 10
710.9357543683866
 20
-523.3989467142508
 10
710.9411082372114
 20
-523.4341238963764
 10
710.9485762835929
 20
-523.4689136410857
 10
710.9581312574403
 20
-523.5031890043727
 10
710.9697382936897
 20
-523.5368249191544
 10
710.9833550395249
 20
-523.5696986516249
 10
710.9989318089169
 20
-523.6016902491
 10
711.0164117639235
 20
-523.6326829777093
 10
711.0357311220844
 20
-523.6625637483477
 10
711.0568193891567
 20
-523.6912235293233
 10
711.0795996163412
 20
-523.7185577442034
 10
711.1039886810588
 20
-523.7444666534026
 10
711.1298975902577
 20
-523.7688557181203
 10
711.1572318051383
 20
-523.7916359453048
 10
711.1858915861136
 20
-523.8127242123771
 10
711.215772356752
 20
-523.832043570538
 10
711.2467650853616
 20
-523.8495235255446
 10
711.2787566828365
 20
-523.8651002949365
 10
711.3116304153073
 20
-523.8787170407716
 10
711.3452663300886
 20
-523.8903240770212
 10
711.3795416933758
 20
-523.8998790508684
 10
711.4143314380848
 20
-523.9073470972502
 10
711.4495086202104
 20
-523.912700966075
 10
711.4849448820298
 20
-523.915921121656
 10
711.5205109204664
 20
-523.9169958139951
 10
711.5553597204659
 20
-523.916995813995
 10
711.5900853385213
 20
-523.9159465164817
 10
711.6246842465621
 20
-523.9128024527145
 10
711.659030196925
 20
-523.9075750950413
 10
711.6929978649623
 20
-523.9002835175234
 10
711.7264633063363
 20
-523.8909543263361
 10
711.7593044092814
 20
-523.8796215626864
 10
711.7914013401744
 20
-523.8663265786002
 10
711.8226369807946
 20
-523.8511178860322
 10
711.8528973556772
 20
-523.8340509798526
 10
711.8820720479959
 20
-523.815188135351
 10
711.9100546024624
 20
-523.7945981810014
 10
711.9367429137699
 20
-523.7723562473142
 10
711.9620395991648
 20
-523.7485434926937
 10
711.9858523537855
 20
-523.7232468072988
 10
712.0080942874722
 20
-523.6965584959914
 10
712.0286842418217
 20
-523.668575941525
 10
712.0475470863234
 20
-523.6394012492062
 10
712.0646139925031
 20
-523.6091408743235
 10
712.0798226850711
 20
-523.5779052337033
 10
712.0931176691572
 20
-523.5458083028105
 10
712.1044504328069
 20
-523.5129671998654
 10
712.1137796239943
 20
-523.4795017584912
 10
712.1210712015122
 20
-523.445534090454
 10
712.1262985591854
 20
-523.4111881400909
 10
712.1294426229526
 20
-523.3765892320501
 10
712.1304919204658
 20
-523.3418636139949
 10
712.1304919204661
 20
-523.2257602139949
 97
        0
 75
     0
 76
     1
 47
0.4128176842155181
 98
        1
 10
489.6447735393316
 20
-596.5793915602017
450
        0
451
        0
460
0.0
461
0.0
452
        1
462
1.0
453
        2
463
0.0
 63
     5
421
      255
463
1.0
 63
     7
421
 16777215
470
LINEAR
1001
ACAD
1010
0.0
1020
0.0
1030
0.0
  0
LINE
  5
C8C
330
6F
100
AcDbEntity
  8
0
 62
     0
100
AcDbLine
 10
204.5406579775996
 20
-804.5839377997953
 30
0.0
 11
204.5406579775996
 21
-814.5839377997953
 31
0.0
  0
LINE
  5
C8D
330
6F
100
AcDbEntity
  8
0
 62
     0
100
AcDbLine
 10
216.5406579775996
 20
-804.5839377997952
 30
0.0
 11
216.5406579775996
 21
-814.5839377997953
 31
0.0
  0
LINE
  5
C8E
330
6F
100
AcDbEntity
  8
0
 62
     0
100
AcDbLine
 10
219.5406579775996
 20
-817.5839377997952
 30
0.0
 11
241.5406579775996
 21
-817.5839377997952
 31
0.0
  0
LINE
  5
C8F
330
6F
100
AcDbEntity
  8
0
 62
     0
100
AcDbLine
 10
219.5406579775996
 20
-801.5839377997952
 30
0.0
 11
245.5406579775996
 21
-801.5839377997952
 31
0.0
  0
ARC
  5
C96
330
6F
100
AcDbEntity
  8
0
  6
Continuous
100
AcDbCircle
 10
219.5406579775996
 20
-814.5839377997953
 30
0.0
 40
3.0
100
AcDbArc
 50
180.0
 51
270.0000000000006
  0
ARC
  5
C97
330
6F
100
AcDbEntity
  8
0
  6
Continuous
100
AcDbCircle
 10
219.5406579775996
 20
-804.5839377997952
 30
0.0
 40
3.0
100
AcDbArc
 50
90.0
 51
180.0
  0
ARC
  5
C99
330
6F
100
AcDbEntity
  8
0
  6
Continuous
100
AcDbCircle
 10
201.5406579775996
 20
-814.5839377997951
 30
0.0
 40
3.0
100
AcDbArc
 50
270.0
 51
0.0
  0
ARC
  5
C9A
330
6F
100
AcDbEntity
  8
0
  6
Continuous
100
AcDbCircle
 10
201.5406579775996
 20
-804.5839377997953
 30
0.0
 40
3.0
100
AcDbArc
 50
0.0
 51
90.00000000000055
  0
ENDSEC
  0
SECTION
  2
OBJECTS
  0
DICTIONARY
  5
C
330
0
100
AcDbDictionary
281
     1
  3
ACAD_CIP_PREVIOUS_PRODUCT_INFO
350
216
  3
ACAD_COLOR
350
62
  3
ACAD_DETAILVIEWSTYLE
350
69
  3
ACAD_GROUP
350
D
  3
ACAD_LAYOUT
350
61
  3
ACAD_MATERIAL
350
10
  3
ACAD_MLEADERSTYLE
350
65
  3
ACAD_MLINESTYLE
350
5E
  3
ACAD_PLOTSETTINGS
350
60
  3
ACAD_PLOTSTYLENAME
350
E
  3
ACAD_SCALELIST
350
42
  3
ACAD_SECTIONVIEWSTYLE
350
67
  3
ACAD_TABLESTYLE
350
63
  3
ACAD_VISUALSTYLE
350
29
  3
ACDB_RECOMPOSE_DATA
350
CB1
  3
AcDbVariableDictionary
350
218
  0
DICTIONARY
  5
222
330
2
100
AcDbDictionary
280
     1
281
     1
  3
ACAD_LAYERSTATES
360
223
  0
DICTIONARY
  5
7F5
330
54
100
AcDbDictionary
280
     1
281
     1
  3
ADSK_XREC_LAYER_RECONCILED
360
7F6
  0
DICTIONARY
  5
60B
330
6F
100
AcDbDictionary
280
     1
281
     1
  3
ACAD_SORTENTS
360
60C
  0
DICTIONARY
  5
7C8
330
7B7
100
AcDbDictionary
280
     1
281
     1
  3
ACAD_SORTENTS
360
7C9
  0
DICTIONARY
  5
7F1
330
7CC
100
AcDbDictionary
280
     1
281
     1
  3
ACAD_SORTENTS
360
7F2
  0
XRECORD
  5
216
102
{ACAD_REACTORS
330
C
102
}
330
C
100
AcDbXrecord
280
     1
300
ACDMAC
300
2022
300
ACDMAC_F_S
  0
DICTIONARY
  5
62
102
{ACAD_REACTORS
330
C
102
}
330
C
100
AcDbDictionary
281
     1
  0
DICTIONARY
  5
69
102
{ACAD_REACTORS
330
C
102
}
330
C
100
AcDbDictionary
281
     1
  3
Imperial24
350
6A
  3
Metric50
350
BF1
  0
DICTIONARY
  5
D
102
{ACAD_REACTORS
330
C
102
}
330
C
100
AcDbDictionary
281
     1
  0
DICTIONARY
  5
61
102
{ACAD_REACTORS
330
C
102
}
330
C
100
AcDbDictionary
281
     1
  3
Model
350
72
  3
1
350
6E
  0
DICTIONARY
  5
10
102
{ACAD_REACTORS
330
C
102
}
330
C
100
AcDbDictionary
281
     1
  3
ByBlock
350
19
  3
ByLayer
350
11
  3
Global
350
21
  0
DICTIONARY
  5
65
102
{ACAD_REACTORS
330
C
102
}
330
C
100
AcDbDictionary
281
     1
  3
Standard
350
66
  0
DICTIONARY
  5
5E
102
{ACAD_REACTORS
330
C
102
}
330
C
100
AcDbDictionary
281
     1
  3
Standard
350
5F
  0
DICTIONARY
  5
60
102
{ACAD_REACTORS
330
C
102
}
330
C
100
AcDbDictionary
281
     1
  0
ACDBDICTIONARYWDFLT
  5
E
102
{ACAD_REACTORS
330
C
102
}
330
C
100
AcDbDictionary
281
     1
  3
Normal
350
F
100
AcDbDictionaryWithDefault
340
F
  0
DICTIONARY
  5
42
102
{ACAD_REACTORS
330
C
102
}
330
C
100
AcDbDictionary
281
     1
  3
A0
350
43
  3
A1
350
44
  3
A2
350
45
  3
A3
350
46
  3
A4
350
47
  3
A5
350
48
  3
A6
350
49
  3
A7
350
4A
  3
A8
350
4B
  3
A9
350
4C
  3
B0
350
4D
  3
B1
350
4E
  3
B2
350
4F
  3
B3
350
50
  3
B4
350
51
  3
B5
350
52
  3
B6
350
53
  0
DICTIONARY
  5
67
102
{ACAD_REACTORS
330
C
102
}
330
C
100
AcDbDictionary
281
     1
  3
Imperial24
350
68
  3
Metric50
350
BF0
  0
DICTIONARY
  5
63
102
{ACAD_REACTORS
330
C
102
}
330
C
100
AcDbDictionary
281
     1
  3
Standard
350
64
  0
DICTIONARY
  5
29
102
{ACAD_REACTORS
330
C
102
}
330
C
100
AcDbDictionary
281
     1
  3
2dWireframe
350
2F
  3
Basic
350
2E
  3
Brighten
350
35
  3
ColorChange
350
39
  3
Conceptual
350
32
  3
Dim
350
34
  3
EdgeColorOff
350
41
  3
Facepattern
350
38
  3
Flat
350
2A
  3
FlatWithEdges
350
2B
  3
Gouraud
350
2C
  3
GouraudWithEdges
350
2D
  3
Hidden
350
31
  3
JitterOff
350
3F
  3
Linepattern
350
37
  3
OverhangOff
350
40
  3
Realistic
350
33
  3
Shaded
350
3E
  3
Shaded with edges
350
3D
  3
Shades of Gray
350
3A
  3
Sketchy
350
3B
  3
Thicken
350
36
  3
Wireframe
350
30
  3
X-Ray
350
3C
  0
XRECORD
  5
CB1
102
{ACAD_REACTORS
330
C
102
}
330
C
100
AcDbXrecord
280
     1
 90
        1
330
64
  0
DICTIONARY
  5
218
102
{ACAD_REACTORS
330
C
102
}
330
C
100
AcDbDictionary
281
     1
  3
CANNOSCALE
350
21E
  3
CMLEADERSTYLE
350
21A
  3
CTABLESTYLE
350
219
  3
CVIEWDETAILSTYLE
350
21B
  3
CVIEWSECTIONSTYLE
350
21C
  3
LAYEREVAL
350
220
  3
LAYERNOTIFY
350
221
  3
LIGHTINGUNITS
350
21F
  3
MSLTSCALE
350
21D
  0
DICTIONARY
  5
223
102
{ACAD_REACTORS
330
222
102
}
330
222
100
AcDbDictionary
281
     1
  0
XRECORD
  5
7F6
102
{ACAD_REACTORS
330
7F5
102
}
330
7F5
100
AcDbXrecord
280
     1
290
     1
  0
SORTENTSTABLE
  5
60C
102
{ACAD_REACTORS
330
60B
102
}
330
60B
100
AcDbSortentsTable
330
6F
331
A3B
  5
A41
331
A3E
  5
AFB
331
A40
  5
AFD
331
A41
  5
B09
331
A43
  5
B0F
331
A45
  5
B10
331
A46
  5
B13
331
A47
  5
B14
331
A48
  5
B15
331
A49
  5
B17
331
A4A
  5
B18
331
A51
  5
B19
331
A52
  5
B1A
331
A53
  5
B1B
331
A54
  5
B1C
331
A55
  5
B1D
331
A56
  5
B1E
331
A57
  5
B1F
331
A58
  5
B20
331
A5D
  5
B21
331
A61
  5
B22
331
AF6
  5
B23
331
AF7
  5
B24
331
AF8
  5
B25
331
AF9
  5
B26
331
AFA
  5
B27
331
AFB
  5
B28
331
AFC
  5
B29
331
AFE
  5
B2B
331
AFF
  5
B2C
331
B00
  5
B2D
331
B01
  5
B2E
331
B02
  5
B2F
331
B03
  5
B30
331
B04
  5
B31
331
B05
  5
B32
331
B06
  5
B33
331
B08
  5
B35
331
B09
  5
B36
331
B0A
  5
B37
331
B0B
  5
B38
331
B0C
  5
B39
331
B0D
  5
B3A
331
B0E
  5
B3B
331
B0F
  5
B3C
331
B10
  5
B3D
331
B11
  5
B3E
331
B12
  5
B3F
331
B13
  5
B40
331
B14
  5
B41
331
B15
  5
B42
331
B16
  5
B43
331
B17
  5
B44
331
B18
  5
B45
331
B19
  5
B46
331
B1A
  5
B47
331
B1B
  5
B48
331
B1C
  5
B49
331
B1D
  5
B4A
331
B1E
  5
B4B
331
B1F
  5
B4C
331
B20
  5
B4D
331
B21
  5
B6C
331
B22
  5
B6D
331
B23
  5
B6E
331
B24
  5
B6F
331
B25
  5
B70
331
B26
  5
B71
331
B27
  5
B72
331
B28
  5
B73
331
B29
  5
B74
331
B2A
  5
B75
331
B2B
  5
B76
331
B2C
  5
B77
331
B2D
  5
B78
331
B2E
  5
B79
331
B2F
  5
B7A
331
B30
  5
B7B
331
B31
  5
B7D
331
B32
  5
B7F
331
B33
  5
B81
331
B34
  5
B8B
331
B35
  5
B8C
331
B36
  5
B8D
331
B37
  5
B90
331
B38
  5
B92
331
B39
  5
B94
331
B3A
  5
B95
331
B3B
  5
B96
331
B3C
  5
B97
331
B3D
  5
B99
331
B3E
  5
B9A
331
B3F
  5
B9B
331
B40
  5
B9C
331
B41
  5
B9D
331
B42
  5
B9E
331
B43
  5
B9F
331
B44
  5
BA0
331
B45
  5
BA1
331
B46
  5
BA2
331
B47
  5
BA3
331
B48
  5
BA4
331
B49
  5
BA5
331
B4A
  5
BA6
331
B4B
  5
BA7
331
B4C
  5
BA8
331
B4D
  5
BA9
331
B6C
  5
BAA
331
B6D
  5
BAB
331
B6E
  5
BAC
331
B6F
  5
BAD
331
B71
  5
BAF
331
B72
  5
BB0
331
B73
  5
BB1
331
B74
  5
BB2
331
B76
  5
BB4
331
B77
  5
BB5
331
B78
  5
BB6
331
B79
  5
BB7
331
B7A
  5
BB8
331
B7B
  5
BB9
331
B7C
  5
BBA
331
B7D
  5
BBB
331
B7E
  5
BBC
331
B7F
  5
BBD
331
B80
  5
BBE
331
B81
  5
BBF
331
B82
  5
BC0
331
B83
  5
BC1
331
B85
  5
BC2
331
B94
  5
BC3
331
B95
  5
BC4
331
B96
  5
BC5
331
B97
  5
BC6
331
B99
  5
BC7
331
B9A
  5
BC8
331
B9B
  5
BC9
331
B9C
  5
BCA
331
B9D
  5
BCB
331
B9E
  5
BCC
331
B9F
  5
BCD
331
BA0
  5
BCE
331
BA1
  5
B2A
331
BA3
  5
B34
331
BAB
  5
BCF
331
BAC
  5
BD0
331
BAD
  5
BD1
331
BAE
  5
BD2
331
BAF
  5
BD3
331
BB0
  5
BD4
331
BB1
  5
BD5
331
BB2
  5
BD6
331
BB3
  5
BD7
331
BB4
  5
BD8
331
BB5
  5
BD9
331
BB6
  5
BDA
331
BB8
  5
BAE
331
BB9
  5
BB3
331
BC3
  5
BDB
331
BC4
  5
BDC
331
BC5
  5
BDD
331
BC6
  5
BDE
331
BC7
  5
BDF
331
BC8
  5
BE0
331
BC9
  5
BE1
331
BCA
  5
BE2
331
BCB
  5
BE3
331
BCC
  5
BE4
331
BCD
  5
C1A
331
BCE
  5
C1B
331
BD5
  5
C1C
331
BD6
  5
C1D
331
BD7
  5
C1E
331
BD8
  5
C1F
331
BD9
  5
C20
331
BDA
  5
C21
331
BDB
  5
C22
331
BDC
  5
C23
331
BDD
  5
C24
331
BDE
  5
C25
331
BDF
  5
C26
331
BE0
  5
C27
331
BE1
  5
A4A
331
BE3
  5
B0E
331
C21
  5
C2F
331
C26
  5
C34
331
C2B
  5
C39
331
C30
  5
C71
331
C35
  5
C86
331
C3A
  5
C8C
331
C3B
  5
C8D
331
C3C
  5
C8E
331
C6C
  5
C8F
331
C71
  5
C90
331
C76
  5
C91
331
C7B
  5
C92
331
C80
  5
C93
331
C85
  5
C94
331
C86
  5
C95
331
C87
  5
C96
331
C8C
  5
AF8
331
C8D
  5
A55
331
C8E
  5
B00
331
C8F
  5
B0C
331
C96
  5
C97
331
C97
  5
C9A
331
C99
  5
C9D
331
C9A
  5
C9C
  0
SORTENTSTABLE
  5
7C9
102
{ACAD_REACTORS
330
7C8
102
}
330
7C8
100
AcDbSortentsTable
330
7B7
  0
SORTENTSTABLE
  5
7F2
102
{ACAD_REACTORS
330
7F1
102
}
330
7F1
100
AcDbSortentsTable
330
7CC
  0
ACDBDETAILVIEWSTYLE
  5
6A
102
{ACAD_REACTORS
330
69
102
}
330
69
100
AcDbModelDocViewStyle
 70
     0
  3
Imperial24
290
     0
300
Imperial24
 90
        0
100
AcDbDetailViewStyle
 70
     0
 71
     0
 90
        3
 71
     1
340
55
 62
   256
 40
0.24
340
0
 62
   256
 40
0.24
300

 40
0.36
280
     3
 71
     2
340
5C
 90
       25
 62
   256
 71
     3
340
55
 62
   256
 40
0.24
 90
        1
 40
0.75
 90
        1
300
%<\AcVar ViewType \f "%tc1">% %<\AcVar ViewDetailId>%\PSCALE %<\AcVar ViewScale \f "%sn">%
 71
     4
340
5C
 90
       25
 62
   256
340
5C
 90
       25
 62
   256
280
     0
  0
ACDBDETAILVIEWSTYLE
  5
BF1
102
{ACAD_REACTORS
330
69
102
}
330
69
100
AcDbModelDocViewStyle
 70
     0
  3
Metric50
290
     0
300
Metric50
 90
        0
100
AcDbDetailViewStyle
 70
     0
 71
     0
 90
        3
 71
     1
340
55
 62
   256
 40
5.0
340
0
 62
   256
 40
5.0
300

 40
0.0
280
     1
 71
     2
340
5C
 90
       25
 62
   256
 71
     3
340
55
 62
   256
 40
5.0
 90
        0
 40
15.0
 90
        1
300
%<\AcVar ViewDetailId>% (%<\AcVar ViewScale \f "%sn">%)
 71
     4
340
5C
 90
       25
 62
   256
340
5C
 90
       25
 62
   256
280
     0
  0
LAYOUT
  5
72
102
{ACAD_REACTORS
330
61
102
}
330
61
100
AcDbPlotSettings
  1

  2

  4

  6

 40
0.0
 41
0.0
 42
0.0
 43
0.0
 44
0.0
 45
0.0
 46
0.0
 47
0.0
 48
0.0
 49
0.0
140
0.0
141
0.0
142
1.0
143
1.0
 70
  1712
 72
     0
 73
     0
 74
     0
  7

 75
     0
147
1.0
 76
     0
 77
     2
 78
   300
148
0.0
149
0.0
100
AcDbLayout
  1
Model
 70
     1
 71
     0
 10
0.0
 20
0.0
 11
12.0
 21
9.0
 12
0.0
 22
0.0
 32
0.0
 14
0.0
 24
0.0
 34
0.0
 15
0.0
 25
0.0
 35
0.0
146
0.0
 13
0.0
 23
0.0
 33
0.0
 16
1.0
 26
0.0
 36
0.0
 17
0.0
 27
1.0
 37
0.0
 76
     0
330
6F
331
74
  0
LAYOUT
  5
6E
102
{ACAD_REACTORS
330
61
102
}
330
61
100
AcDbPlotSettings
  1

  2

  4

  6

 40
0.0
 41
0.0
 42
0.0
 43
0.0
 44
0.0
 45
0.0
 46
0.0
 47
0.0
 48
0.0
 49
0.0
140
0.0
141
0.0
142
1.0
143
1.0
 70
   688
 72
     0
 73
     0
 74
     5
  7

 75
    16
147
1.0
 76
     0
 77
     2
 78
   300
148
0.0
149
0.0
100
AcDbLayout
  1
1
 70
     1
 71
     1
 10
0.0
 20
0.0
 11
12.0
 21
9.0
 12
0.0
 22
0.0
 32
0.0
 14
1.000000000000000E+20
 24
1.000000000000000E+20
 34
1.000000000000000E+20
 15
-1.000000000000000E+20
 25
-1.000000000000000E+20
 35
-1.000000000000000E+20
146
0.0
 13
0.0
 23
0.0
 33
0.0
 16
1.0
 26
0.0
 36
0.0
 17
0.0
 27
1.0
 37
0.0
 76
     0
330
6B
  0
MATERIAL
  5
19
102
{ACAD_XDICTIONARY
360
1A
102
}
102
{ACAD_REACTORS
330
10
102
}
330
10
100
AcDbMaterial
  1
ByBlock
 72
     0
 43
0.0208333333333333
 43
0.0
 43
0.0
 43
0.0
 43
0.0
 43
0.0208333333333333
 43
0.0
 43
0.0
 43
0.0
 43
0.0
 43
1.0
 43
0.0
 43
0.0
 43
0.0
 43
0.0
 43
1.0
 77
     0
 47
0.0208333333333333
 47
0.0
 47
0.0
 47
0.0
 47
0.0
 47
0.0208333333333333
 47
0.0
 47
0.0
 47
0.0
 47
0.0
 47
1.0
 47
0.0
 47
0.0
 47
0.0
 47
0.0
 47
1.0
171
     0
 49
0.0208333333333333
 49
0.0
 49
0.0
 49
0.0
 49
0.0
 49
0.0208333333333333
 49
0.0
 49
0.0
 49
0.0
 49
0.0
 49
1.0
 49
0.0
 49
0.0
 49
0.0
 49
0.0
 49
1.0
175
     0
142
0.0208333333333333
142
0.0
142
0.0
142
0.0
142
0.0
142
0.0208333333333333
142
0.0
142
0.0
142
0.0
142
0.0
142
1.0
142
0.0
142
0.0
142
0.0
142
0.0
142
1.0
179
     0
144
0.0208333333333333
144
0.0
144
0.0
144
0.0
144
0.0
144
0.0208333333333333
144
0.0
144
0.0
144
0.0
144
0.0
144
1.0
144
0.0
144
0.0
144
0.0
144
0.0
144
1.0
147
0.0208333333333333
147
0.0
147
0.0
147
0.0
147
0.0
147
0.0208333333333333
147
0.0
147
0.0
147
0.0
147
0.0
147
1.0
147
0.0
147
0.0
147
0.0
147
0.0
147
1.0
  0
MATERIAL
  5
11
102
{ACAD_XDICTIONARY
360
12
102
}
102
{ACAD_REACTORS
330
10
102
}
330
10
100
AcDbMaterial
  1
ByLayer
 72
     0
 43
0.0208333333333333
 43
0.0
 43
0.0
 43
0.0
 43
0.0
 43
0.0208333333333333
 43
0.0
 43
0.0
 43
0.0
 43
0.0
 43
1.0
 43
0.0
 43
0.0
 43
0.0
 43
0.0
 43
1.0
 77
     0
 47
0.0208333333333333
 47
0.0
 47
0.0
 47
0.0
 47
0.0
 47
0.0208333333333333
 47
0.0
 47
0.0
 47
0.0
 47
0.0
 47
1.0
 47
0.0
 47
0.0
 47
0.0
 47
0.0
 47
1.0
171
     0
 49
0.0208333333333333
 49
0.0
 49
0.0
 49
0.0
 49
0.0
 49
0.0208333333333333
 49
0.0
 49
0.0
 49
0.0
 49
0.0
 49
1.0
 49
0.0
 49
0.0
 49
0.0
 49
0.0
 49
1.0
175
     0
142
0.0208333333333333
142
0.0
142
0.0
142
0.0
142
0.0
142
0.0208333333333333
142
0.0
142
0.0
142
0.0
142
0.0
142
1.0
142
0.0
142
0.0
142
0.0
142
0.0
142
1.0
179
     0
144
0.0208333333333333
144
0.0
144
0.0
144
0.0
144
0.0
144
0.0208333333333333
144
0.0
144
0.0
144
0.0
144
0.0
144
1.0
144
0.0
144
0.0
144
0.0
144
0.0
144
1.0
147
0.0208333333333333
147
0.0
147
0.0
147
0.0
147
0.0
147
0.0208333333333333
147
0.0
147
0.0
147
0.0
147
0.0
147
1.0
147
0.0
147
0.0
147
0.0
147
0.0
147
1.0
  0
MATERIAL
  5
21
102
{ACAD_XDICTIONARY
360
22
102
}
102
{ACAD_REACTORS
330
10
102
}
330
10
100
AcDbMaterial
  1
Global
 72
     0
 43
0.0208333333333333
 43
0.0
 43
0.0
 43
0.0
 43
0.0
 43
0.0208333333333333
 43
0.0
 43
0.0
 43
0.0
 43
0.0
 43
1.0
 43
0.0
 43
0.0
 43
0.0
 43
0.0
 43
1.0
 77
     0
 47
0.0208333333333333
 47
0.0
 47
0.0
 47
0.0
 47
0.0
 47
0.0208333333333333
 47
0.0
 47
0.0
 47
0.0
 47
0.0
 47
1.0
 47
0.0
 47
0.0
 47
0.0
 47
0.0
 47
1.0
171
     0
 49
0.0208333333333333
 49
0.0
 49
0.0
 49
0.0
 49
0.0
 49
0.0208333333333333
 49
0.0
 49
0.0
 49
0.0
 49
0.0
 49
1.0
 49
0.0
 49
0.0
 49
0.0
 49
0.0
 49
1.0
175
     0
142
0.0208333333333333
142
0.0
142
0.0
142
0.0
142
0.0
142
0.0208333333333333
142
0.0
142
0.0
142
0.0
142
0.0
142
1.0
142
0.0
142
0.0
142
0.0
142
0.0
142
1.0
179
     0
144
0.0208333333333333
144
0.0
144
0.0
144
0.0
144
0.0
144
0.0208333333333333
144
0.0
144
0.0
144
0.0
144
0.0
144
1.0
144
0.0
144
0.0
144
0.0
144
0.0
144
1.0
147
0.0208333333333333
147
0.0
147
0.0
147
0.0
147
0.0
147
0.0208333333333333
147
0.0
147
0.0
147
0.0
147
0.0
147
1.0
147
0.0
147
0.0
147
0.0
147
0.0
147
1.0
  0
MLEADERSTYLE
  5
66
102
{ACAD_REACTORS
330
65
102
}
330
65
100
AcDbMLeaderStyle
179
     2
170
     2
171
     1
172
     0
 90
        2
 40
0.0
 41
0.0
173
     1
 91
-1056964608
340
5A
 92
       -2
290
     1
 42
0.09
291
     1
 43
0.36
  3
Standard
 44
0.18
300

342
55
174
     1
178
     6
175
     1
176
     0
 93
-1056964608
 45
0.18
292
     0
297
     0
 46
0.18
 94
-1056964608
 47
1.0
 49
1.0
140
1.0
293
     1
141
0.0
294
     1
177
     0
142
1.0
295
     0
296
     0
143
0.125
271
     0
272
     9
273
     9
298
     0
  0
MLINESTYLE
  5
5F
102
{ACAD_REACTORS
330
5E
102
}
330
5E
100
AcDbMlineStyle
  2
STANDARD
 70
     0
  3

 62
   256
 51
90.0
 52
90.0
 71
     2
 49
0.5
 62
   256
  6
BYLAYER
 49
-0.5
 62
   256
  6
BYLAYER
  0
ACDBPLACEHOLDER
  5
F
102
{ACAD_REACTORS
330
E
102
}
330
E
  0
SCALE
  5
43
102
{ACAD_REACTORS
330
42
102
}
330
42
100
AcDbScale
 70
     0
300
1:1
140
1.0
141
1.0
290
     1
  0
SCALE
  5
44
102
{ACAD_REACTORS
330
42
102
}
330
42
100
AcDbScale
 70
     0
300
1/128" = 1'-0"
140
0.0078125
141
12.0
290
     0
  0
SCALE
  5
45
102
{ACAD_REACTORS
330
42
102
}
330
42
100
AcDbScale
 70
     0
300
1/64" = 1'-0"
140
0.015625
141
12.0
290
     0
  0
SCALE
  5
46
102
{ACAD_REACTORS
330
42
102
}
330
42
100
AcDbScale
 70
     0
300
1/32" = 1'-0"
140
0.03125
141
12.0
290
     0
  0
SCALE
  5
47
102
{ACAD_REACTORS
330
42
102
}
330
42
100
AcDbScale
 70
     0
300
1/16" = 1'-0"
140
0.0625
141
12.0
290
     0
  0
SCALE
  5
48
102
{ACAD_REACTORS
330
42
102
}
330
42
100
AcDbScale
 70
     0
300
3/32" = 1'-0"
140
0.09375
141
12.0
290
     0
  0
SCALE
  5
49
102
{ACAD_REACTORS
330
42
102
}
330
42
100
AcDbScale
 70
     0
300
1/8" = 1'-0"
140
0.125
141
12.0
290
     0
  0
SCALE
  5
4A
102
{ACAD_REACTORS
330
42
102
}
330
42
100
AcDbScale
 70
     0
300
3/16" = 1'-0"
140
0.1875
141
12.0
290
     0
  0
SCALE
  5
4B
102
{ACAD_REACTORS
330
42
102
}
330
42
100
AcDbScale
 70
     0
300
1/4" = 1'-0"
140
0.25
141
12.0
290
     0
  0
SCALE
  5
4C
102
{ACAD_REACTORS
330
42
102
}
330
42
100
AcDbScale
 70
     0
300
3/8" = 1'-0"
140
0.375
141
12.0
290
     0
  0
SCALE
  5
4D
102
{ACAD_REACTORS
330
42
102
}
330
42
100
AcDbScale
 70
     0
300
1/2" = 1'-0"
140
0.5
141
12.0
290
     0
  0
SCALE
  5
4E
102
{ACAD_REACTORS
330
42
102
}
330
42
100
AcDbScale
 70
     0
300
3/4" = 1'-0"
140
0.75
141
12.0
290
     0
  0
SCALE
  5
4F
102
{ACAD_REACTORS
330
42
102
}
330
42
100
AcDbScale
 70
     0
300
1" = 1'-0"
140
1.0
141
12.0
290
     0
  0
SCALE
  5
50
102
{ACAD_REACTORS
330
42
102
}
330
42
100
AcDbScale
 70
     0
300
1-1/2" = 1'-0"
140
1.5
141
12.0
290
     0
  0
SCALE
  5
51
102
{ACAD_REACTORS
330
42
102
}
330
42
100
AcDbScale
 70
     0
300
3" = 1'-0"
140
3.0
141
12.0
290
     0
  0
SCALE
  5
52
102
{ACAD_REACTORS
330
42
102
}
330
42
100
AcDbScale
 70
     0
300
6" = 1'-0"
140
6.0
141
12.0
290
     0
  0
SCALE
  5
53
102
{ACAD_REACTORS
330
42
102
}
330
42
100
AcDbScale
 70
     0
300
1'-0" = 1'-0"
140
12.0
141
12.0
290
     0
  0
ACDBSECTIONVIEWSTYLE
  5
68
102
{ACAD_REACTORS
330
67
102
}
330
67
100
AcDbModelDocViewStyle
 70
     0
  3
Imperial24
290
     0
300
Imperial24
 90
        0
100
AcDbSectionViewStyle
 70
     0
 71
     0
 90
       78
 71
     1
340
55
 62
   256
 40
0.24
340
0
340
0
 62
   256
 40
0.24
300
I, O, Q, S, X, Z
 40
0.48
 90
        3
 40
0.18
 90
        1
 71
     2
340
5C
 90
       25
 62
   256
340
5C
 90
       50
 62
   256
 40
0.24
 40
0.0
 40
0.24
 71
     3
340
55
 62
   256
 40
0.24
 90
        1
 40
0.75
 90
        1
300
%<\AcVar ViewType \f "%tc1">% %<\AcVar ViewSectionStartId>%-%<\AcVar ViewSectionEndId>%\PSCALE %<\AcVar ViewScale \f "%sn">%
 71
     4
 62
   256
 62
   257
300
ANSI31
 40
1.0
 90
        0
290
     0
290
     0
 90
        6
 40
0.0
 40
1.570796326794896
 40
0.2617993877991494
 40
1.308996938995747
 40
-0.2617993877991494
 40
1.832595714594046
  0
ACDBSECTIONVIEWSTYLE
  5
BF0
102
{ACAD_REACTORS
330
67
102
}
330
67
100
AcDbModelDocViewStyle
 70
     0
  3
Metric50
290
     0
300
Metric50
 90
        0
100
AcDbSectionViewStyle
 70
     0
 71
     0
 90
      102
 71
     1
340
55
 62
   256
 40
5.0
340
0
340
0
 62
   256
 40
5.0
300
I, O, Q, S, X, Z
 40
10.0
 90
        0
 40
2.5
 90
        0
 71
     2
340
5C
 90
       25
 62
   256
340
5C
 90
       50
 62
   256
 40
5.0
 40
2.5
 40
5.0
 71
     3
340
55
 62
   256
 40
5.0
 90
        0
 40
15.0
 90
        1
300
%<\AcVar ViewSectionStartId>%-%<\AcVar ViewSectionEndId>% (%<\AcVar ViewScale \f "%sn">%)
 71
     4
 62
   256
 62
   257
300
ANSI31
 40
1.0
 90
        0
290
     0
290
     0
 90
        6
 40
0.0
 40
1.570796326794896
 40
0.2617993877991494
 40
1.308996938995747
 40
-0.2617993877991494
 40
1.832595714594046
  0
TABLESTYLE
  5
64
102
{ACAD_XDICTIONARY
360
CAF
102
}
102
{ACAD_REACTORS
330
63
102
}
330
63
100
AcDbTableStyle
280
     0
  3
Standard
 70
     0
 71
     0
 40
0.06
 41
0.06
280
     0
281
     0
  7
Standard
140
0.18
170
     2
 62
     0
 63
     7
283
     0
 90
      512
 91
        0
  1

274
    -2
284
     1
 64
     0
275
    -2
285
     1
 65
     0
276
    -2
286
     1
 66
     0
277
    -2
287
     1
 67
     0
278
    -2
288
     1
 68
     0
279
    -2
289
     1
 69
     0
  7
Standard
140
0.25
170
     5
 62
     0
 63
     7
283
     0
 90
      512
 91
        0
  1

274
    -2
284
     1
 64
     0
275
    -2
285
     1
 65
     0
276
    -2
286
     1
 66
     0
277
    -2
287
     1
 67
     0
278
    -2
288
     1
 68
     0
279
    -2
289
     1
 69
     0
  7
Standard
140
0.18
170
     5
 62
     0
 63
     7
283
     0
 90
      512
 91
        0
  1

274
    -2
284
     1
 64
     0
275
    -2
285
     1
 65
     0
276
    -2
286
     1
 66
     0
277
    -2
287
     1
 67
     0
278
    -2
288
     1
 68
     0
279
    -2
289
     1
 69
     0
  0
VISUALSTYLE
  5
2F
102
{ACAD_REACTORS
330
29
102
}
330
29
100
AcDbVisualStyle
  2
2dWireframe
 70
     4
177
     3
291
     0
 70
    58
 90
        0
176
     1
 90
        2
176
     1
 90
        0
176
     1
 90
        0
176
     1
 40
0.6
176
     1
 40
30.0
176
     1
 62
     7
420
 16777215
176
     1
 90
        1
176
     1
 90
        4
176
     1
 62
     7
176
     1
 62
   257
176
     1
 90
        1
176
     1
 90
        1
176
     1
 40
1.0
176
     1
 90
        0
176
     1
 62
   257
176
     1
 40
1.0
176
     1
 90
        1
176
     1
 90
        6
176
     1
 90
        2
176
     1
 62
     7
176
     1
 90
        5
176
     1
 90
        0
176
     1
 90
        0
176
     1
290
     0
176
     1
 90
        1
176
     1
 40
0.0
176
     1
 90
        0
176
     1
290
     1
176
     1
290
     1
176
     1
290
     0
176
     1
290
     0
176
     1
290
     0
176
     1
290
     0
176
     1
290
     0
176
     1
290
     0
176
     1
290
     0
176
     1
 90
       50
176
     1
 40
0.0
176
     1
 40
1.0
176
     1
 90
        0
176
     1
 62
    18
420
        0
176
     1
 90
       50
176
     1
 90
        3
176
     1
 62
     5
420
      255
176
     1
290
     0
176
     1
 90
       50
176
     1
 90
       50
176
     1
 90
       50
176
     1
290
     0
176
     1
 90
       50
176
     1
 62
   256
176
     0
 40
1.0
176
     0
 90
        2
176
     1
  1
strokes_ogs.tif
176
     1
290
     0
176
     1
 40
1.0
176
     1
 40
1.0
176
     1
  0
VISUALSTYLE
  5
2E
102
{ACAD_REACTORS
330
29
102
}
330
29
100
AcDbVisualStyle
  2
Basic
 70
     7
177
     3
291
     1
 70
    58
 90
        1
176
     1
 90
        0
176
     1
 90
        1
176
     1
 90
        0
176
     1
 40
0.6
176
     1
 40
30.0
176
     1
 62
     7
420
 16777215
176
     1
 90
        0
176
     1
 90
        4
176
     1
 62
     7
176
     1
 62
   257
176
     1
 90
        1
176
     1
 90
        1
176
     1
 40
1.0
176
     1
 90
        8
176
     1
 62
     7
176
     1
 40
1.0
176
     1
 90
        1
176
     1
 90
        6
176
     1
 90
        2
176
     1
 62
     7
176
     1
 90
        5
176
     1
 90
        0
176
     1
 90
        0
176
     1
290
     0
176
     1
 90
        1
176
     1
 40
0.0
176
     1
 90
        0
176
     1
290
     0
176
     1
290
     1
176
     1
290
     1
176
     1
290
     0
176
     1
290
     0
176
     1
290
     0
176
     1
290
     0
176
     1
290
     0
176
     1
290
     0
176
     1
 90
       50
176
     1
 40
0.0
176
     1
 40
1.0
176
     1
 90
        0
176
     1
 62
    18
420
        0
176
     1
 90
       50
176
     1
 90
        3
176
     1
 62
     5
420
      255
176
     1
290
     0
176
     1
 90
       50
176
     1
 90
       50
176
     1
 90
       50
176
     1
290
     0
176
     1
 90
       50
176
     1
 62
   256
176
     0
 40
1.0
176
     0
 90
        2
176
     1
  1
strokes_ogs.tif
176
     1
290
     0
176
     1
 40
1.0
176
     1
 40
1.0
176
     1
  0
VISUALSTYLE
  5
35
102
{ACAD_REACTORS
330
29
102
}
330
29
100
AcDbVisualStyle
  2
Brighten
 70
    12
177
     3
291
     1
 70
    58
 90
        2
176
     1
 90
        2
176
     1
 90
        0
176
     1
 90
        0
176
     1
 40
0.6
176
     1
 40
30.0
176
     1
 62
     7
420
 16777215
176
     1
 90
        1
176
     1
 90
        4
176
     1
 62
     7
176
     1
 62
   257
176
     1
 90
        1
176
     1
 90
        1
176
     1
 40
1.0
176
     1
 90
        8
176
     1
 62
     7
176
     1
 40
1.0
176
     1
 90
        1
176
     1
 90
        6
176
     1
 90
        2
176
     1
 62
     7
176
     1
 90
        5
176
     1
 90
        0
176
     1
 90
        0
176
     1
290
     0
176
     1
 90
        1
176
     1
 40
50.0
176
     1
 90
        0
176
     1
290
     0
176
     1
290
     1
176
     1
290
     1
176
     1
290
     0
176
     1
290
     0
176
     1
290
     0
176
     1
290
     0
176
     1
290
     0
176
     1
290
     0
176
     1
 90
       50
176
     1
 40
0.0
176
     1
 40
1.0
176
     1
 90
        0
176
     1
 62
    18
420
        0
176
     1
 90
       50
176
     1
 90
        3
176
     1
 62
     5
420
      255
176
     1
290
     0
176
     1
 90
       50
176
     1
 90
       50
176
     1
 90
       50
176
     1
290
     0
176
     1
 90
       50
176
     1
 62
   256
176
     0
 40
1.0
176
     0
 90
        2
176
     1
  1
strokes_ogs.tif
176
     1
290
     0
176
     1
 40
1.0
176
     1
 40
1.0
176
     1
  0
VISUALSTYLE
  5
39
102
{ACAD_REACTORS
330
29
102
}
330
29
100
AcDbVisualStyle
  2
ColorChange
 70
    16
177
     3
291
     1
 70
    58
 90
        2
176
     1
 90
        2
176
     1
 90
        3
176
     1
 90
        0
176
     1
 40
0.6
176
     1
 40
30.0
176
     1
 62
     8
420
  8421504
176
     1
 90
        1
176
     1
 90
        4
176
     1
 62
     7
176
     1
 62
   257
176
     1
 90
        1
176
     1
 90
        1
176
     1
 40
1.0
176
     1
 90
        8
176
     1
 62
     8
420
  8421504
176
     1
 40
1.0
176
     1
 90
        1
176
     1
 90
        6
176
     1
 90
        2
176
     1
 62
     7
176
     1
 90
        5
176
     1
 90
        0
176
     1
 90
        0
176
     1
290
     0
176
     1
 90
        1
176
     1
 40
0.0
176
     1
 90
        0
176
     1
290
     0
176
     1
290
     1
176
     1
290
     1
176
     1
290
     0
176
     1
290
     0
176
     1
290
     0
176
     1
290
     0
176
     1
290
     0
176
     1
290
     0
176
     1
 90
       50
176
     1
 40
0.0
176
     1
 40
1.0
176
     1
 90
        0
176
     1
 62
    18
420
        0
176
     1
 90
       50
176
     1
 90
        3
176
     1
 62
     5
420
      255
176
     1
290
     0
176
     1
 90
       50
176
     1
 90
       50
176
     1
 90
       50
176
     1
290
     0
176
     1
 90
       50
176
     1
 62
   256
176
     0
 40
1.0
176
     0
 90
        2
176
     1
  1
strokes_ogs.tif
176
     1
290
     0
176
     1
 40
1.0
176
     1
 40
1.0
176
     1
  0
VISUALSTYLE
  5
32
102
{ACAD_REACTORS
330
29
102
}
330
29
100
AcDbVisualStyle
  2
Conceptual
 70
     9
177
     3
291
     0
 70
    58
 90
        3
176
     1
 90
        2
176
     1
 90
        0
176
     1
 90
        0
176
     1
 40
0.6
176
     1
 40
30.0
176
     1
 62
     7
420
 16777215
176
     1
 90
        2
176
     1
 90
        2
176
     1
 62
     7
176
     1
 62
   257
176
     1
 90
        1
176
     1
 90
        1
176
     1
 40
179.0
176
     1
 90
        8
176
     1
 62
     7
176
     1
 40
1.0
176
     1
 90
        1
176
     1
 90
        6
176
     1
 90
        2
176
     1
 62
     7
176
     1
 90
        3
176
     1
 90
        0
176
     1
 90
        0
176
     1
290
     0
176
     1
 90
        1
176
     1
 40
0.0
176
     1
 90
        0
176
     1
290
     0
176
     1
290
     1
176
     1
290
     1
176
     1
290
     0
176
     1
290
     0
176
     1
290
     0
176
     1
290
     0
176
     1
290
     0
176
     1
290
     0
176
     1
 90
       50
176
     1
 40
0.0
176
     1
 40
1.0
176
     1
 90
        0
176
     1
 62
    18
420
        0
176
     1
 90
       50
176
     1
 90
        3
176
     1
 62
     5
420
      255
176
     1
290
     0
176
     1
 90
       50
176
     1
 90
       50
176
     1
 90
       50
176
     1
290
     0
176
     1
 90
       50
176
     1
 62
   256
176
     0
 40
1.0
176
     0
 90
        2
176
     1
  1
strokes_ogs.tif
176
     1
290
     0
176
     1
 40
1.0
176
     1
 40
1.0
176
     1
  0
VISUALSTYLE
  5
34
102
{ACAD_REACTORS
330
29
102
}
330
29
100
AcDbVisualStyle
  2
Dim
 70
    11
177
     3
291
     1
 70
    58
 90
        2
176
     1
 90
        2
176
     1
 90
        0
176
     1
 90
        0
176
     1
 40
0.6
176
     1
 40
30.0
176
     1
 62
     7
420
 16777215
176
     1
 90
        1
176
     1
 90
        4
176
     1
 62
     7
176
     1
 62
   257
176
     1
 90
        1
176
     1
 90
        1
176
     1
 40
1.0
176
     1
 90
        8
176
     1
 62
     7
176
     1
 40
1.0
176
     1
 90
        1
176
     1
 90
        6
176
     1
 90
        2
176
     1
 62
     7
176
     1
 90
        5
176
     1
 90
        0
176
     1
 90
        0
176
     1
290
     0
176
     1
 90
        1
176
     1
 40
-50.0
176
     1
 90
        0
176
     1
290
     0
176
     1
290
     1
176
     1
290
     1
176
     1
290
     0
176
     1
290
     0
176
     1
290
     0
176
     1
290
     0
176
     1
290
     0
176
     1
290
     0
176
     1
 90
       50
176
     1
 40
0.0
176
     1
 40
1.0
176
     1
 90
        0
176
     1
 62
    18
420
        0
176
     1
 90
       50
176
     1
 90
        3
176
     1
 62
     5
420
      255
176
     1
290
     0
176
     1
 90
       50
176
     1
 90
       50
176
     1
 90
       50
176
     1
290
     0
176
     1
 90
       50
176
     1
 62
   256
176
     0
 40
1.0
176
     0
 90
        2
176
     1
  1
strokes_ogs.tif
176
     1
290
     0
176
     1
 40
1.0
176
     1
 40
1.0
176
     1
  0
VISUALSTYLE
  5
41
102
{ACAD_REACTORS
330
29
102
}
330
29
100
AcDbVisualStyle
  2
EdgeColorOff
 70
    22
177
     3
291
     1
 70
    58
 90
        2
176
     0
 90
        2
176
     0
 90
        0
176
     0
 90
        0
176
     0
 40
0.6
176
     0
 40
30.0
176
     0
 62
     7
420
 16777215
176
     0
 90
        1
176
     0
 90
        4
176
     0
 62
     7
176
     0
 62
   257
176
     0
 90
        1
176
     0
 90
        1
176
     0
 40
1.0
176
     0
 90
        8
176
     2
 62
     7
176
     0
 40
1.0
176
     0
 90
        1
176
     0
 90
        6
176
     0
 90
        2
176
     0
 62
     7
176
     0
 90
        5
176
     0
 90
        0
176
     0
 90
        0
176
     0
290
     0
176
     0
 90
        1
176
     0
 40
0.0
176
     0
 90
        0
176
     0
290
     0
176
     1
290
     1
176
     1
290
     1
176
     1
290
     0
176
     1
290
     0
176
     1
290
     0
176
     1
290
     0
176
     1
290
     0
176
     1
290
     0
176
     1
 90
       50
176
     0
 40
0.0
176
     0
 40
1.0
176
     0
 90
        0
176
     0
 62
    18
420
        0
176
     0
 90
       50
176
     0
 90
        3
176
     0
 62
     5
420
      255
176
     0
290
     0
176
     1
 90
       50
176
     0
 90
       50
176
     0
 90
       50
176
     0
290
     0
176
     1
 90
       50
176
     0
 62
   256
176
     0
 40
1.0
176
     0
 90
        2
176
     0
  1
strokes_ogs.tif
176
     0
290
     0
176
     1
 40
1.0
176
     0
 40
1.0
176
     0
  0
VISUALSTYLE
  5
38
102
{ACAD_REACTORS
330
29
102
}
330
29
100
AcDbVisualStyle
  2
Facepattern
 70
    15
177
     3
291
     1
 70
    58
 90
        2
176
     1
 90
        2
176
     1
 90
        0
176
     1
 90
        0
176
     1
 40
0.6
176
     1
 40
30.0
176
     1
 62
     7
420
 16777215
176
     1
 90
        1
176
     1
 90
        4
176
     1
 62
     7
176
     1
 62
   257
176
     1
 90
        1
176
     1
 90
        1
176
     1
 40
1.0
176
     1
 90
        8
176
     1
 62
     7
176
     1
 40
1.0
176
     1
 90
        1
176
     1
 90
        6
176
     1
 90
        2
176
     1
 62
     7
176
     1
 90
        5
176
     1
 90
        0
176
     1
 90
        0
176
     1
290
     0
176
     1
 90
        1
176
     1
 40
0.0
176
     1
 90
        0
176
     1
290
     0
176
     1
290
     1
176
     1
290
     1
176
     1
290
     0
176
     1
290
     0
176
     1
290
     0
176
     1
290
     0
176
     1
290
     0
176
     1
290
     0
176
     1
 90
       50
176
     1
 40
0.0
176
     1
 40
1.0
176
     1
 90
        0
176
     1
 62
    18
420
        0
176
     1
 90
       50
176
     1
 90
        3
176
     1
 62
     5
420
      255
176
     1
290
     0
176
     1
 90
       50
176
     1
 90
       50
176
     1
 90
       50
176
     1
290
     0
176
     1
 90
       50
176
     1
 62
   256
176
     0
 40
1.0
176
     0
 90
        2
176
     1
  1
strokes_ogs.tif
176
     1
290
     0
176
     1
 40
1.0
176
     1
 40
1.0
176
     1
  0
VISUALSTYLE
  5
2A
102
{ACAD_REACTORS
330
29
102
}
330
29
100
AcDbVisualStyle
  2
Flat
 70
     0
177
     3
291
     1
 70
    58
 90
        2
176
     1
 90
        1
176
     1
 90
        1
176
     1
 90
        2
176
     1
 40
0.6
176
     1
 40
30.0
176
     1
 62
     7
420
 16777215
176
     1
 90
        0
176
     1
 90
        0
176
     1
 62
     7
176
     1
 62
   257
176
     1
 90
        1
176
     1
 90
        1
176
     1
 40
1.0
176
     1
 90
        8
176
     1
 62
     7
176
     1
 40
1.0
176
     1
 90
        1
176
     1
 90
        6
176
     1
 90
        2
176
     1
 62
     7
176
     1
 90
        5
176
     1
 90
        0
176
     1
 90
        0
176
     1
290
     0
176
     1
 90
       13
176
     1
 40
0.0
176
     1
 90
        0
176
     1
290
     0
176
     1
290
     1
176
     1
290
     1
176
     1
290
     0
176
     1
290
     0
176
     1
290
     0
176
     1
290
     0
176
     1
290
     0
176
     1
290
     0
176
     1
 90
       50
176
     1
 40
0.0
176
     1
 40
1.0
176
     1
 90
        0
176
     1
 62
    18
420
        0
176
     1
 90
       50
176
     1
 90
        3
176
     1
 62
     5
420
      255
176
     1
290
     0
176
     1
 90
       50
176
     1
 90
       50
176
     1
 90
       50
176
     1
290
     0
176
     1
 90
       50
176
     1
 62
   256
176
     0
 40
1.0
176
     0
 90
        2
176
     1
  1
strokes_ogs.tif
176
     1
290
     0
176
     1
 40
1.0
176
     1
 40
1.0
176
     1
  0
VISUALSTYLE
  5
2B
102
{ACAD_REACTORS
330
29
102
}
330
29
100
AcDbVisualStyle
  2
FlatWithEdges
 70
     1
177
     3
291
     1
 70
    58
 90
        2
176
     1
 90
        1
176
     1
 90
        1
176
     1
 90
        2
176
     1
 40
0.6
176
     1
 40
30.0
176
     1
 62
     7
420
 16777215
176
     1
 90
        1
176
     1
 90
        0
176
     1
 62
     7
176
     1
 62
   257
176
     1
 90
        1
176
     1
 90
        1
176
     1
 40
1.0
176
     1
 90
        0
176
     1
 62
   257
176
     1
 40
1.0
176
     1
 90
        1
176
     1
 90
        6
176
     1
 90
        2
176
     1
 62
     7
176
     1
 90
        5
176
     1
 90
        0
176
     1
 90
        0
176
     1
290
     0
176
     1
 90
       13
176
     1
 40
0.0
176
     1
 90
        0
176
     1
290
     0
176
     1
290
     1
176
     1
290
     1
176
     1
290
     0
176
     1
290
     0
176
     1
290
     0
176
     1
290
     0
176
     1
290
     0
176
     1
290
     0
176
     1
 90
       50
176
     1
 40
0.0
176
     1
 40
1.0
176
     1
 90
        0
176
     1
 62
    18
420
        0
176
     1
 90
       50
176
     1
 90
        3
176
     1
 62
     5
420
      255
176
     1
290
     0
176
     1
 90
       50
176
     1
 90
       50
176
     1
 90
       50
176
     1
290
     0
176
     1
 90
       50
176
     1
 62
   256
176
     0
 40
1.0
176
     0
 90
        2
176
     1
  1
strokes_ogs.tif
176
     1
290
     0
176
     1
 40
1.0
176
     1
 40
1.0
176
     1
  0
VISUALSTYLE
  5
2C
102
{ACAD_REACTORS
330
29
102
}
330
29
100
AcDbVisualStyle
  2
Gouraud
 70
     2
177
     3
291
     1
 70
    58
 90
        2
176
     1
 90
        2
176
     1
 90
        1
176
     1
 90
        2
176
     1
 40
0.6
176
     1
 40
30.0
176
     1
 62
     7
420
 16777215
176
     1
 90
        0
176
     1
 90
        0
176
     1
 62
     7
176
     1
 62
   257
176
     1
 90
        1
176
     1
 90
        1
176
     1
 40
1.0
176
     1
 90
        0
176
     1
 62
     7
176
     1
 40
1.0
176
     1
 90
        1
176
     1
 90
        6
176
     1
 90
        2
176
     1
 62
     7
176
     1
 90
        5
176
     1
 90
        0
176
     1
 90
        0
176
     1
290
     0
176
     1
 90
       13
176
     1
 40
0.0
176
     1
 90
        0
176
     1
290
     0
176
     1
290
     1
176
     1
290
     1
176
     1
290
     0
176
     1
290
     0
176
     1
290
     0
176
     1
290
     0
176
     1
290
     0
176
     1
290
     0
176
     1
 90
       50
176
     1
 40
0.0
176
     1
 40
1.0
176
     1
 90
        0
176
     1
 62
    18
420
        0
176
     1
 90
       50
176
     1
 90
        3
176
     1
 62
     5
420
      255
176
     1
290
     0
176
     1
 90
       50
176
     1
 90
       50
176
     1
 90
       50
176
     1
290
     0
176
     1
 90
       50
176
     1
 62
   256
176
     0
 40
1.0
176
     0
 90
        2
176
     1
  1
strokes_ogs.tif
176
     1
290
     0
176
     1
 40
1.0
176
     1
 40
1.0
176
     1
  0
VISUALSTYLE
  5
2D
102
{ACAD_REACTORS
330
29
102
}
330
29
100
AcDbVisualStyle
  2
GouraudWithEdges
 70
     3
177
     3
291
     1
 70
    58
 90
        2
176
     1
 90
        2
176
     1
 90
        1
176
     1
 90
        2
176
     1
 40
0.6
176
     1
 40
30.0
176
     1
 62
     7
420
 16777215
176
     1
 90
        1
176
     1
 90
        0
176
     1
 62
     7
176
     1
 62
   257
176
     1
 90
        1
176
     1
 90
        1
176
     1
 40
1.0
176
     1
 90
        0
176
     1
 62
   257
176
     1
 40
1.0
176
     1
 90
        1
176
     1
 90
        6
176
     1
 90
        2
176
     1
 62
     7
176
     1
 90
        5
176
     1
 90
        0
176
     1
 90
        0
176
     1
290
     0
176
     1
 90
       13
176
     1
 40
0.0
176
     1
 90
        0
176
     1
290
     0
176
     1
290
     1
176
     1
290
     1
176
     1
290
     0
176
     1
290
     0
176
     1
290
     0
176
     1
290
     0
176
     1
290
     0
176
     1
290
     0
176
     1
 90
       50
176
     1
 40
0.0
176
     1
 40
1.0
176
     1
 90
        0
176
     1
 62
    18
420
        0
176
     1
 90
       50
176
     1
 90
        3
176
     1
 62
     5
420
      255
176
     1
290
     0
176
     1
 90
       50
176
     1
 90
       50
176
     1
 90
       50
176
     1
290
     0
176
     1
 90
       50
176
     1
 62
   256
176
     0
 40
1.0
176
     0
 90
        2
176
     1
  1
strokes_ogs.tif
176
     1
290
     0
176
     1
 40
1.0
176
     1
 40
1.0
176
     1
  0
VISUALSTYLE
  5
31
102
{ACAD_REACTORS
330
29
102
}
330
29
100
AcDbVisualStyle
  2
Hidden
 70
     6
177
     3
291
     0
 70
    58
 90
        1
176
     1
 90
        2
176
     1
 90
        2
176
     1
 90
        0
176
     1
 40
0.6
176
     1
 40
30.0
176
     1
 62
     7
420
 16777215
176
     1
 90
        2
176
     1
 90
        2
176
     1
 62
     7
176
     1
 62
   257
176
     1
 90
        2
176
     1
 90
        1
176
     1
 40
40.0
176
     1
 90
        0
176
     1
 62
   257
176
     1
 40
1.0
176
     1
 90
        1
176
     1
 90
        6
176
     1
 90
        2
176
     1
 62
     7
176
     1
 90
        3
176
     1
 90
        0
176
     1
 90
        0
176
     1
290
     0
176
     1
 90
        1
176
     1
 40
0.0
176
     1
 90
        0
176
     1
290
     0
176
     1
290
     1
176
     1
290
     1
176
     1
290
     0
176
     1
290
     0
176
     1
290
     0
176
     1
290
     0
176
     1
290
     0
176
     1
290
     0
176
     1
 90
       50
176
     1
 40
0.0
176
     1
 40
1.0
176
     1
 90
        0
176
     1
 62
    18
420
        0
176
     1
 90
       50
176
     1
 90
        3
176
     1
 62
     5
420
      255
176
     1
290
     0
176
     1
 90
       50
176
     1
 90
       50
176
     1
 90
       50
176
     1
290
     0
176
     1
 90
       50
176
     1
 62
   256
176
     0
 40
1.0
176
     0
 90
        2
176
     1
  1
strokes_ogs.tif
176
     1
290
     0
176
     1
 40
1.0
176
     1
 40
1.0
176
     1
  0
VISUALSTYLE
  5
3F
102
{ACAD_REACTORS
330
29
102
}
330
29
100
AcDbVisualStyle
  2
JitterOff
 70
    20
177
     3
291
     1
 70
    58
 90
        2
176
     0
 90
        2
176
     0
 90
        0
176
     0
 90
        0
176
     0
 40
0.6
176
     0
 40
30.0
176
     0
 62
     7
420
 16777215
176
     0
 90
        1
176
     0
 90
        4
176
     0
 62
     7
176
     0
 62
   257
176
     0
 90
        1
176
     0
 90
        1
176
     0
 40
1.0
176
     0
 90
       10
176
     2
 62
     7
176
     0
 40
1.0
176
     0
 90
        1
176
     0
 90
        6
176
     0
 90
        2
176
     0
 62
     7
176
     0
 90
        5
176
     0
 90
        0
176
     0
 90
        0
176
     0
290
     0
176
     0
 90
        1
176
     0
 40
0.0
176
     0
 90
        0
176
     0
290
     0
176
     1
290
     1
176
     1
290
     1
176
     1
290
     0
176
     1
290
     0
176
     1
290
     0
176
     1
290
     0
176
     1
290
     0
176
     1
290
     0
176
     1
 90
       50
176
     0
 40
0.0
176
     0
 40
1.0
176
     0
 90
        0
176
     0
 62
    18
420
        0
176
     0
 90
       50
176
     0
 90
        3
176
     0
 62
     5
420
      255
176
     0
290
     0
176
     1
 90
       50
176
     0
 90
       50
176
     0
 90
       50
176
     0
290
     0
176
     1
 90
       50
176
     0
 62
   256
176
     0
 40
1.0
176
     0
 90
        2
176
     0
  1
strokes_ogs.tif
176
     0
290
     0
176
     1
 40
1.0
176
     0
 40
1.0
176
     0
  0
VISUALSTYLE
  5
37
102
{ACAD_REACTORS
330
29
102
}
330
29
100
AcDbVisualStyle
  2
Linepattern
 70
    14
177
     3
291
     1
 70
    58
 90
        2
176
     1
 90
        2
176
     1
 90
        0
176
     1
 90
        0
176
     1
 40
0.6
176
     1
 40
30.0
176
     1
 62
     7
420
 16777215
176
     1
 90
        1
176
     1
 90
        4
176
     1
 62
     7
176
     1
 62
   257
176
     1
 90
        7
176
     1
 90
        7
176
     1
 40
1.0
176
     1
 90
        8
176
     1
 62
     7
176
     1
 40
1.0
176
     1
 90
        1
176
     1
 90
        6
176
     1
 90
        2
176
     1
 62
     7
176
     1
 90
        5
176
     1
 90
        0
176
     1
 90
        0
176
     1
290
     0
176
     1
 90
        1
176
     1
 40
0.0
176
     1
 90
        0
176
     1
290
     0
176
     1
290
     1
176
     1
290
     1
176
     1
290
     0
176
     1
290
     0
176
     1
290
     0
176
     1
290
     0
176
     1
290
     0
176
     1
290
     0
176
     1
 90
       50
176
     1
 40
0.0
176
     1
 40
1.0
176
     1
 90
        0
176
     1
 62
    18
420
        0
176
     1
 90
       50
176
     1
 90
        3
176
     1
 62
     5
420
      255
176
     1
290
     0
176
     1
 90
       50
176
     1
 90
       50
176
     1
 90
       50
176
     1
290
     0
176
     1
 90
       50
176
     1
 62
   256
176
     0
 40
1.0
176
     0
 90
        2
176
     1
  1
strokes_ogs.tif
176
     1
290
     0
176
     1
 40
1.0
176
     1
 40
1.0
176
     1
  0
VISUALSTYLE
  5
40
102
{ACAD_REACTORS
330
29
102
}
330
29
100
AcDbVisualStyle
  2
OverhangOff
 70
    21
177
     3
291
     1
 70
    58
 90
        2
176
     0
 90
        2
176
     0
 90
        0
176
     0
 90
        0
176
     0
 40
0.6
176
     0
 40
30.0
176
     0
 62
     7
420
 16777215
176
     0
 90
        1
176
     0
 90
        4
176
     0
 62
     7
176
     0
 62
   257
176
     0
 90
        1
176
     0
 90
        1
176
     0
 40
1.0
176
     0
 90
        9
176
     2
 62
     7
176
     0
 40
1.0
176
     0
 90
        1
176
     0
 90
        6
176
     0
 90
        2
176
     0
 62
     7
176
     0
 90
        5
176
     0
 90
        0
176
     0
 90
        0
176
     0
290
     0
176
     0
 90
        1
176
     0
 40
0.0
176
     0
 90
        0
176
     0
290
     0
176
     1
290
     1
176
     1
290
     1
176
     1
290
     0
176
     1
290
     0
176
     1
290
     0
176
     1
290
     0
176
     1
290
     0
176
     1
290
     0
176
     1
 90
       50
176
     0
 40
0.0
176
     0
 40
1.0
176
     0
 90
        0
176
     0
 62
    18
420
        0
176
     0
 90
       50
176
     0
 90
        3
176
     0
 62
     5
420
      255
176
     0
290
     0
176
     1
 90
       50
176
     0
 90
       50
176
     0
 90
       50
176
     0
290
     0
176
     1
 90
       50
176
     0
 62
   256
176
     0
 40
1.0
176
     0
 90
        2
176
     0
  1
strokes_ogs.tif
176
     0
290
     0
176
     1
 40
1.0
176
     0
 40
1.0
176
     0
  0
VISUALSTYLE
  5
33
102
{ACAD_REACTORS
330
29
102
}
330
29
100
AcDbVisualStyle
  2
Realistic
 70
     8
177
     3
291
     0
 70
    58
 90
        2
176
     1
 90
        3
176
     1
 90
        0
176
     1
 90
        2
176
     1
 40
0.6
176
     1
 40
30.0
176
     1
 62
     7
420
 16777215
176
     1
 90
        0
176
     1
 90
        0
176
     1
 62
     7
176
     1
 62
   257
176
     1
 90
        1
176
     1
 90
        1
176
     1
 40
1.0
176
     1
 90
        8
176
     1
 62
   257
176
     1
 40
1.0
176
     1
 90
        1
176
     1
 90
        6
176
     1
 90
        2
176
     1
 62
     7
176
     1
 90
        3
176
     1
 90
        0
176
     1
 90
        0
176
     1
290
     0
176
     1
 90
       13
176
     1
 40
0.0
176
     1
 90
        0
176
     1
290
     0
176
     1
290
     1
176
     1
290
     1
176
     1
290
     0
176
     1
290
     0
176
     1
290
     0
176
     1
290
     0
176
     1
290
     0
176
     1
290
     0
176
     1
 90
       50
176
     1
 40
0.0
176
     1
 40
1.0
176
     1
 90
        0
176
     1
 62
    18
420
        0
176
     1
 90
       50
176
     1
 90
        3
176
     1
 62
     5
420
      255
176
     1
290
     0
176
     1
 90
       50
176
     1
 90
       50
176
     1
 90
       50
176
     1
290
     0
176
     1
 90
       50
176
     1
 62
   256
176
     0
 40
1.0
176
     0
 90
        2
176
     1
  1
strokes_ogs.tif
176
     1
290
     0
176
     1
 40
1.0
176
     1
 40
1.0
176
     1
  0
VISUALSTYLE
  5
3E
102
{ACAD_REACTORS
330
29
102
}
330
29
100
AcDbVisualStyle
  2
Shaded
 70
    27
177
     3
291
     0
 70
    58
 90
        2
176
     1
 90
        2
176
     1
 90
        1
176
     1
 90
        2
176
     1
 40
0.6
176
     1
 40
30.0
176
     1
 62
     7
420
 16777215
176
     1
 90
        0
176
     1
 90
        4
176
     1
 62
     7
176
     1
 62
   257
176
     1
 90
        1
176
     1
 90
        1
176
     1
 40
1.0
176
     1
 90
        8
176
     1
 62
   257
176
     1
 40
1.0
176
     1
 90
        1
176
     1
 90
        6
176
     1
 90
        2
176
     1
 62
     8
420
  7895160
176
     1
 90
        3
176
     1
 90
        0
176
     1
 90
        0
176
     1
290
     0
176
     1
 90
        5
176
     1
 40
0.0
176
     1
 90
        0
176
     1
290
     0
176
     1
290
     1
176
     1
290
     1
176
     1
290
     0
176
     1
290
     0
176
     1
290
     0
176
     1
290
     0
176
     1
290
     0
176
     1
290
     0
176
     1
 90
       50
176
     1
 40
0.0
176
     1
 40
1.0
176
     1
 90
        0
176
     1
 62
    18
420
        0
176
     1
 90
       50
176
     1
 90
        3
176
     1
 62
     5
420
      255
176
     1
290
     0
176
     1
 90
       50
176
     1
 90
       50
176
     1
 90
       50
176
     1
290
     0
176
     1
 90
       50
176
     1
 62
   256
176
     0
 40
1.0
176
     0
 90
        2
176
     1
  1
strokes_ogs.tif
176
     1
290
     0
176
     1
 40
1.0
176
     1
 40
1.0
176
     1
  0
VISUALSTYLE
  5
3D
102
{ACAD_REACTORS
330
29
102
}
330
29
100
AcDbVisualStyle
  2
Shaded with edges
 70
    26
177
     3
291
     0
 70
    58
 90
        2
176
     1
 90
        2
176
     1
 90
        1
176
     1
 90
        2
176
     1
 40
0.6
176
     1
 40
30.0
176
     1
 62
     7
420
 16777215
176
     1
 90
        1
176
     1
 90
        2
176
     1
 62
     7
176
     1
 62
   257
176
     1
 90
        2
176
     1
 90
        1
176
     1
 40
1.0
176
     1
 90
        8
176
     1
 62
   257
176
     1
 40
1.0
176
     1
 90
        1
176
     1
 90
        6
176
     1
 90
        2
176
     1
 62
     7
176
     1
 90
        3
176
     1
 90
        0
176
     1
 90
        0
176
     1
290
     0
176
     1
 90
        5
176
     1
 40
0.0
176
     1
 90
        0
176
     1
290
     0
176
     1
290
     1
176
     1
290
     1
176
     1
290
     0
176
     1
290
     0
176
     1
290
     0
176
     1
290
     0
176
     1
290
     0
176
     1
290
     0
176
     1
 90
       50
176
     1
 40
0.0
176
     1
 40
1.0
176
     1
 90
        0
176
     1
 62
    18
420
        0
176
     1
 90
       50
176
     1
 90
        3
176
     1
 62
     5
420
      255
176
     1
290
     0
176
     1
 90
       50
176
     1
 90
       50
176
     1
 90
       50
176
     1
290
     0
176
     1
 90
       50
176
     1
 62
   256
176
     0
 40
1.0
176
     0
 90
        2
176
     1
  1
strokes_ogs.tif
176
     1
290
     0
176
     1
 40
1.0
176
     1
 40
1.0
176
     1
  0
VISUALSTYLE
  5
3A
102
{ACAD_REACTORS
330
29
102
}
330
29
100
AcDbVisualStyle
  2
Shades of Gray
 70
    23
177
     3
291
     0
 70
    58
 90
        2
176
     1
 90
        2
176
     1
 90
        3
176
     1
 90
        0
176
     1
 40
0.6
176
     1
 40
30.0
176
     1
 62
     7
420
 16777215
176
     1
 90
        2
176
     1
 90
        2
176
     1
 62
     7
176
     1
 62
     7
176
     1
 90
        1
176
     1
 90
        1
176
     1
 40
40.0
176
     1
 90
        8
176
     1
 62
     7
176
     1
 40
1.0
176
     1
 90
        1
176
     1
 90
        6
176
     1
 90
        2
176
     1
 62
     7
176
     1
 90
        3
176
     1
 90
        0
176
     1
 90
        0
176
     1
290
     0
176
     1
 90
        1
176
     1
 40
0.0
176
     1
 90
        0
176
     1
290
     0
176
     1
290
     1
176
     1
290
     1
176
     1
290
     0
176
     1
290
     0
176
     1
290
     0
176
     1
290
     0
176
     1
290
     0
176
     1
290
     0
176
     1
 90
       50
176
     1
 40
0.0
176
     1
 40
1.0
176
     1
 90
        0
176
     1
 62
    18
420
        0
176
     1
 90
       50
176
     1
 90
        3
176
     1
 62
     5
420
      255
176
     1
290
     0
176
     1
 90
       50
176
     1
 90
       50
176
     1
 90
       50
176
     1
290
     0
176
     1
 90
       50
176
     1
 62
   256
176
     0
 40
1.0
176
     0
 90
        2
176
     1
  1
strokes_ogs.tif
176
     1
290
     0
176
     1
 40
1.0
176
     1
 40
1.0
176
     1
  0
VISUALSTYLE
  5
3B
102
{ACAD_REACTORS
330
29
102
}
330
29
100
AcDbVisualStyle
  2
Sketchy
 70
    24
177
     3
291
     0
 70
    58
 90
        1
176
     1
 90
        2
176
     1
 90
        2
176
     1
 90
        0
176
     1
 40
0.6
176
     1
 40
30.0
176
     1
 62
     7
420
 16777215
176
     1
 90
        2
176
     1
 90
        2
176
     1
 62
     7
176
     1
 62
     7
176
     1
 90
        1
176
     1
 90
        1
176
     1
 40
40.0
176
     1
 90
       11
176
     1
 62
     7
176
     1
 40
1.0
176
     1
 90
        1
176
     1
 90
        6
176
     1
 90
        2
176
     1
 62
     7
176
     1
 90
        6
176
     1
 90
        0
176
     1
 90
        0
176
     1
290
     0
176
     1
 90
        1
176
     1
 40
0.0
176
     1
 90
        0
176
     1
290
     0
176
     1
290
     1
176
     1
290
     1
176
     1
290
     0
176
     1
290
     0
176
     1
290
     0
176
     1
290
     0
176
     1
290
     0
176
     1
290
     0
176
     1
 90
       50
176
     1
 40
0.0
176
     1
 40
1.0
176
     1
 90
        0
176
     1
 62
    18
420
        0
176
     1
 90
       50
176
     1
 90
        3
176
     1
 62
     5
420
      255
176
     1
290
     0
176
     1
 90
       50
176
     1
 90
       50
176
     1
 90
       50
176
     1
290
     0
176
     1
 90
       50
176
     1
 62
   256
176
     0
 40
1.0
176
     0
 90
        2
176
     1
  1
strokes_ogs.tif
176
     1
290
     0
176
     1
 40
1.0
176
     1
 40
1.0
176
     1
  0
VISUALSTYLE
  5
36
102
{ACAD_REACTORS
330
29
102
}
330
29
100
AcDbVisualStyle
  2
Thicken
 70
    13
177
     3
291
     1
 70
    58
 90
        2
176
     1
 90
        2
176
     1
 90
        0
176
     1
 90
        0
176
     1
 40
0.6
176
     1
 40
30.0
176
     1
 62
     7
420
 16777215
176
     1
 90
        1
176
     1
 90
        4
176
     1
 62
     7
176
     1
 62
   257
176
     1
 90
        1
176
     1
 90
        1
176
     1
 40
1.0
176
     1
 90
       12
176
     1
 62
     7
176
     1
 40
1.0
176
     1
 90
        1
176
     1
 90
        6
176
     1
 90
        2
176
     1
 62
     7
176
     1
 90
        5
176
     1
 90
        0
176
     1
 90
        0
176
     1
290
     0
176
     1
 90
        1
176
     1
 40
0.0
176
     1
 90
        0
176
     1
290
     0
176
     1
290
     1
176
     1
290
     1
176
     1
290
     0
176
     1
290
     0
176
     1
290
     0
176
     1
290
     0
176
     1
290
     0
176
     1
290
     0
176
     1
 90
       50
176
     1
 40
0.0
176
     1
 40
1.0
176
     1
 90
        0
176
     1
 62
    18
420
        0
176
     1
 90
       50
176
     1
 90
        3
176
     1
 62
     5
420
      255
176
     1
290
     0
176
     1
 90
       50
176
     1
 90
       50
176
     1
 90
       50
176
     1
290
     0
176
     1
 90
       50
176
     1
 62
   256
176
     0
 40
1.0
176
     0
 90
        2
176
     1
  1
strokes_ogs.tif
176
     1
290
     0
176
     1
 40
1.0
176
     1
 40
1.0
176
     1
  0
VISUALSTYLE
  5
30
102
{ACAD_REACTORS
330
29
102
}
330
29
100
AcDbVisualStyle
  2
Wireframe
 70
     5
177
     3
291
     0
 70
    58
 90
        0
176
     1
 90
        2
176
     1
 90
        0
176
     1
 90
        0
176
     1
 40
0.6
176
     1
 40
30.0
176
     1
 62
     7
420
 16777215
176
     1
 90
        1
176
     1
 90
        4
176
     1
 62
     7
176
     1
 62
   257
176
     1
 90
        1
176
     1
 90
        1
176
     1
 40
1.0
176
     1
 90
        0
176
     1
 62
   257
176
     1
 40
1.0
176
     1
 90
        1
176
     1
 90
        6
176
     1
 90
        2
176
     1
 62
     7
176
     1
 90
        3
176
     1
 90
        0
176
     1
 90
        0
176
     1
290
     0
176
     1
 90
        1
176
     1
 40
0.0
176
     1
 90
        0
176
     1
290
     0
176
     1
290
     1
176
     1
290
     1
176
     1
290
     0
176
     1
290
     0
176
     1
290
     0
176
     1
290
     0
176
     1
290
     0
176
     1
290
     0
176
     1
 90
       50
176
     1
 40
0.0
176
     1
 40
1.0
176
     1
 90
        0
176
     1
 62
    18
420
        0
176
     1
 90
       50
176
     1
 90
        3
176
     1
 62
     5
420
      255
176
     1
290
     0
176
     1
 90
       50
176
     1
 90
       50
176
     1
 90
       50
176
     1
290
     0
176
     1
 90
       50
176
     1
 62
   256
176
     0
 40
1.0
176
     0
 90
        2
176
     1
  1
strokes_ogs.tif
176
     1
290
     0
176
     1
 40
1.0
176
     1
 40
1.0
176
     1
  0
VISUALSTYLE
  5
3C
102
{ACAD_REACTORS
330
29
102
}
330
29
100
AcDbVisualStyle
  2
X-Ray
 70
    25
177
     3
291
     0
 70
    58
 90
        2
176
     1
 90
        2
176
     1
 90
        1
176
     1
 90
        1
176
     1
 40
0.5
176
     1
 40
30.0
176
     1
 62
     7
420
 16777215
176
     1
 90
        1
176
     1
 90
        0
176
     1
 62
     7
176
     1
 62
   257
176
     1
 90
        1
176
     1
 90
        1
176
     1
 40
1.0
176
     1
 90
        8
176
     1
 62
     7
176
     1
 40
1.0
176
     1
 90
        1
176
     1
 90
        6
176
     1
 90
        2
176
     1
 62
     7
176
     1
 90
        3
176
     1
 90
        0
176
     1
 90
        0
176
     1
290
     0
176
     1
 90
       13
176
     1
 40
0.0
176
     1
 90
        0
176
     1
290
     0
176
     1
290
     1
176
     1
290
     1
176
     1
290
     0
176
     1
290
     0
176
     1
290
     0
176
     1
290
     0
176
     1
290
     0
176
     1
290
     0
176
     1
 90
       50
176
     1
 40
0.0
176
     1
 40
1.0
176
     1
 90
        0
176
     1
 62
    18
420
        0
176
     1
 90
       50
176
     1
 90
        3
176
     1
 62
     5
420
      255
176
     1
290
     0
176
     1
 90
       50
176
     1
 90
       50
176
     1
 90
       50
176
     1
290
     0
176
     1
 90
       50
176
     1
 62
   256
176
     0
 40
1.0
176
     0
 90
        2
176
     1
  1
strokes_ogs.tif
176
     1
290
     0
176
     1
 40
1.0
176
     1
 40
1.0
176
     1
  0
DICTIONARYVAR
  5
21E
102
{ACAD_REACTORS
330
218
102
}
330
218
100
DictionaryVariables
280
     0
  1
1:1
  0
DICTIONARYVAR
  5
21A
102
{ACAD_REACTORS
330
218
102
}
330
218
100
DictionaryVariables
280
     0
  1
STANDARD
  0
DICTIONARYVAR
  5
219
102
{ACAD_REACTORS
330
218
102
}
330
218
100
DictionaryVariables
280
     0
  1
STANDARD
  0
DICTIONARYVAR
  5
21B
102
{ACAD_REACTORS
330
218
102
}
330
218
100
DictionaryVariables
280
     0
  1
Imperial24
  0
DICTIONARYVAR
  5
21C
102
{ACAD_REACTORS
330
218
102
}
330
218
100
DictionaryVariables
280
     0
  1
Imperial24
  0
DICTIONARYVAR
  5
220
102
{ACAD_REACTORS
330
218
102
}
330
218
100
DictionaryVariables
280
     0
  1
1
  0
DICTIONARYVAR
  5
221
102
{ACAD_REACTORS
330
218
102
}
330
218
100
DictionaryVariables
280
     0
  1
15
  0
DICTIONARYVAR
  5
21F
102
{ACAD_REACTORS
330
218
102
}
330
218
100
DictionaryVariables
280
     0
  1
0
  0
DICTIONARYVAR
  5
21D
102
{ACAD_REACTORS
330
218
102
}
330
218
100
DictionaryVariables
280
     0
  1
0
  0
DICTIONARY
  5
1A
330
19
100
AcDbDictionary
280
     1
281
     1
  3
BUMPTILE
360
1C
  3
DIFFUSETILE
360
1B
  3
OPACITYTILE
360
1F
  3
REFLECTIONTILE
360
1E
  3
REFRACTIONTILE
360
20
  3
SPECULARTILE
360
1D
  0
DICTIONARY
  5
12
330
11
100
AcDbDictionary
280
     1
281
     1
  3
BUMPTILE
360
14
  3
DIFFUSETILE
360
13
  3
OPACITYTILE
360
17
  3
REFLECTIONTILE
360
16
  3
REFRACTIONTILE
360
18
  3
SPECULARTILE
360
15
  0
DICTIONARY
  5
22
330
21
100
AcDbDictionary
280
     1
281
     1
  3
BUMPTILE
360
24
  3
DIFFUSETILE
360
23
  3
OPACITYTILE
360
27
  3
REFLECTIONTILE
360
26
  3
REFRACTIONTILE
360
28
  3
SPECULARTILE
360
25
  0
DICTIONARY
  5
CAF
330
64
100
AcDbDictionary
280
     1
281
     1
  3
ACAD_ROUNDTRIP_2008_TABLESTYLE_CELLSTYLEMAP
360
CB0
  0
XRECORD
  5
1C
102
{ACAD_REACTORS
330
1A
102
}
330
1A
100
AcDbXrecord
280
     1
270
     1
271
     1
  0
XRECORD
  5
1B
102
{ACAD_REACTORS
330
1A
102
}
330
1A
100
AcDbXrecord
280
     1
270
     1
271
     1
  0
XRECORD
  5
1F
102
{ACAD_REACTORS
330
1A
102
}
330
1A
100
AcDbXrecord
280
     1
270
     1
271
     1
  0
XRECORD
  5
1E
102
{ACAD_REACTORS
330
1A
102
}
330
1A
100
AcDbXrecord
280
     1
270
     1
271
     1
  0
XRECORD
  5
20
102
{ACAD_REACTORS
330
1A
102
}
330
1A
100
AcDbXrecord
280
     1
270
     1
271
     1
  0
XRECORD
  5
1D
102
{ACAD_REACTORS
330
1A
102
}
330
1A
100
AcDbXrecord
280
     1
270
     1
271
     1
  0
XRECORD
  5
14
102
{ACAD_REACTORS
330
12
102
}
330
12
100
AcDbXrecord
280
     1
270
     1
271
     1
  0
XRECORD
  5
13
102
{ACAD_REACTORS
330
12
102
}
330
12
100
AcDbXrecord
280
     1
270
     1
271
     1
  0
XRECORD
  5
17
102
{ACAD_REACTORS
330
12
102
}
330
12
100
AcDbXrecord
280
     1
270
     1
271
     1
  0
XRECORD
  5
16
102
{ACAD_REACTORS
330
12
102
}
330
12
100
AcDbXrecord
280
     1
270
     1
271
     1
  0
XRECORD
  5
18
102
{ACAD_REACTORS
330
12
102
}
330
12
100
AcDbXrecord
280
     1
270
     1
271
     1
  0
XRECORD
  5
15
102
{ACAD_REACTORS
330
12
102
}
330
12
100
AcDbXrecord
280
     1
270
     1
271
     1
  0
XRECORD
  5
24
102
{ACAD_REACTORS
330
22
102
}
330
22
100
AcDbXrecord
280
     1
270
     1
271
     1
  0
XRECORD
  5
23
102
{ACAD_REACTORS
330
22
102
}
330
22
100
AcDbXrecord
280
     1
270
     1
271
     1
  0
XRECORD
  5
27
102
{ACAD_REACTORS
330
22
102
}
330
22
100
AcDbXrecord
280
     1
270
     1
271
     1
  0
XRECORD
  5
26
102
{ACAD_REACTORS
330
22
102
}
330
22
100
AcDbXrecord
280
     1
270
     1
271
     1
  0
XRECORD
  5
28
102
{ACAD_REACTORS
330
22
102
}
330
22
100
AcDbXrecord
280
     1
270
     1
271
     1
  0
XRECORD
  5
25
102
{ACAD_REACTORS
330
22
102
}
330
22
100
AcDbXrecord
280
     1
270
     1
271
     1
  0
CELLSTYLEMAP
  5
CB0
102
{ACAD_REACTORS
330
CAF
102
}
330
CAF
100
AcDbCellStyleMap
 90
        3
300
CELLSTYLE
  1
TABLEFORMAT_BEGIN
 90
        5
170
     1
 91
        0
 92
    32768
 62
   257
 93
        1
300
CONTENTFORMAT
  1
CONTENTFORMAT_BEGIN
 90
        0
 91
        0
 92
      512
 93
        0
300

 40
0.0
140
1.0
 94
        5
 62
     0
340
55
144
0.25
309
CONTENTFORMAT_END
171
     0
 94
        0
309
TABLEFORMAT_END
  1
CELLSTYLE_BEGIN
 90
        1
 91
        1
300
_TITLE
309
CELLSTYLE_END
300
CELLSTYLE
  1
TABLEFORMAT_BEGIN
 90
        5
170
     1
 91
        0
 92
        0
 62
   257
 93
        1
300
CONTENTFORMAT
  1
CONTENTFORMAT_BEGIN
 90
        0
 91
        0
 92
      512
 93
        0
300

 40
0.0
140
1.0
 94
        5
 62
     0
340
55
144
0.18
309
CONTENTFORMAT_END
171
     0
 94
        0
309
TABLEFORMAT_END
  1
CELLSTYLE_BEGIN
 90
        2
 91
        1
300
_HEADER
309
CELLSTYLE_END
300
CELLSTYLE
  1
TABLEFORMAT_BEGIN
 90
        5
170
     1
 91
        0
 92
        0
 62
   257
 93
        1
300
CONTENTFORMAT
  1
CONTENTFORMAT_BEGIN
 90
        0
 91
        0
 92
      512
 93
        0
300

 40
0.0
140
1.0
 94
        2
 62
     0
340
55
144
0.18
309
CONTENTFORMAT_END
171
     0
 94
        0
309
TABLEFORMAT_END
  1
CELLSTYLE_BEGIN
 90
        3
 91
        2
300
_DATA
309
CELLSTYLE_END
  0
ENDSEC
  0
SECTION
  2
ACDSDATA
 70
     2
 71
     8
  0
ACDSSCHEMA
 90
        0
  1
AcDb_Thumbnail_Schema
  2
AcDbDs::ID
280
    10
 91
        8
  2
Thumbnail_Data
280
    15
 91
        0
101
ACDSRECORD
 95
        0
 90
        1
  2
AcDbDs::TreatedAsObjectData
280
     1
291
     1
101
ACDSRECORD
 95
        0
 90
        2
  2
AcDbDs::Legacy
280
     1
291
     1
101
ACDSRECORD
  1
AcDbDs::ID
 90
        3
  2
AcDs:Indexable
280
     1
291
     1
101
ACDSRECORD
  1
AcDbDs::ID
 90
        4
  2
AcDbDs::HandleAttribute
280
     7
282
     1
  0
ACDSSCHEMA
 90
        1
  1
AcDbDs::TreatedAsObjectDataSchema
  2
AcDbDs::TreatedAsObjectData
280
     1
 91
        0
  0
ACDSSCHEMA
 90
        2
  1
AcDbDs::LegacySchema
  2
AcDbDs::Legacy
280
     1
 91
        0
  0
ACDSSCHEMA
 90
        3
  1
AcDbDs::IndexedPropertySchema
  2
AcDs:Indexable
280
     1
 91
        0
  0
ACDSSCHEMA
 90
        4
  1
AcDbDs::HandleAttributeSchema
  2
AcDbDs::HandleAttribute
280
     7
 91
        1
284
     1
  0
ACDSRECORD
 90
        0
  2
AcDbDs::ID
280
    10
320
72
  2
Thumbnail_Data
280
    15
 94
     1454
310
89504E470D0A1A0A0000000D4948445200000100000000A808030000003894C06300000300504C5445212830FFFFFF2128300000000000000000000000000000000000000000000000000000330000660000990000CC0000FF0033000033330033660033990033CC0033FF0066000066330066660066990066CC0066FF0099
310
000099330099660099990099CC0099FF00CC0000CC3300CC6600CC9900CCCC00CCFF00FF0000FF3300FF6600FF9900FFCC00FFFF3300003300333300663300993300CC3300FF3333003333333333663333993333CC3333FF3366003366333366663366993366CC3366FF3399003399333399663399993399CC3399FF33CC00
310
33CC3333CC6633CC9933CCCC33CCFF33FF0033FF3333FF6633FF9933FFCC33FFFF6600006600336600666600996600CC6600FF6633006633336633666633996633CC6633FF6666006666336666666666996666CC6666FF6699006699336699666699996699CC6699FF66CC0066CC3366CC6666CC9966CCCC66CCFF66FF0066
310
FF3366FF6666FF9966FFCC66FFFF9900009900339900669900999900CC9900FF9933009933339933669933999933CC9933FF9966009966339966669966999966CC9966FF9999009999339999669999999999CC9999FF99CC0099CC3399CC6699CC9999CCCC99CCFF99FF0099FF3399FF6699FF9999FFCC99FFFFCC0000CC00
310
33CC0066CC0099CC00CCCC00FFCC3300CC3333CC3366CC3399CC33CCCC33FFCC6600CC6633CC6666CC6699CC66CCCC66FFCC9900CC9933CC9966CC9999CC99CCCC99FFCCCC00CCCC33CCCC66CCCC99CCCCCCCCCCFFCCFF00CCFF33CCFF66CCFF99CCFFCCCCFFFFFF0000FF0033FF0066FF0099FF00CCFF00FFFF3300FF3333
310
FF3366FF3399FF33CCFF33FFFF6600FF6633FF6666FF6699FF66CCFF66FFFF9900FF9933FF9966FF9999FF99CCFF99FFFFCC00FFCC33FFCC66FFCC99FFCCCCFFCCFFFFFF00FFFF33FFFF66FFFF99FFFFCCFFFFFF0000000D0D0D1A1A1A2828283535354343435050505D5D5D6B6B6B787878868686939393A1A1A1AEAEAEBB
310
BBBBC9C9C9D6D6D6E4E4E4F1F1F1FFFFFF0000000000000000000000000000000000000000000000000000000000002E4550F1000000EA4944415478DAEDDCB11282301045D1FDFFFF4D6F213A3681A869787B4E43411AEFA86419B40A000000000000000000000000806F8D05E1AFFF79ACE921BBC0D21B203BC0F5120104
310
104000010410207923747E3E3BC0C7CEF797F302440C43E79360F647A0FD380C00D5F64A37DC157FDDF79D1EC2EF8AD77B2B3C3D84CF4263C3120104B8F734FCF7925B07D8B346001F015F820208602B9C3A0DBA2B0C00F601C9D3E0E459E9634718BE15EEFDACB46148000104104000010410A06B80EE3F1BF4A830406BED
310
AF02DDFF3F616993238000020820800002082080000298060100000000000000805D1EE77EA6A812BF13450000000049454E44AE426082EE43253ACA093E4D80DE6AA904481F018F14E0834AD01E5209667F4C0E000000000000000000000000000000000000E0C16C3DBDE747667CB582C8D91F3907FFF4A4F756903AFF34
310
3B1D84FF359619FDF766C504785F934B4C538A37A7D7DFF904F0420047008A40BE4AD0621598F09DC135EC05CD137CC3456A8E8364EF151C3501965098EE215AD403B23E620880008905F0DF08E042D7FF17AD804E0C78BA1D778F63D3456A92D574BD133D01427138D7D7D9AF24CC8A778B130AE0D1A5C63DA70065FF335D
310
118811600890AF156872E4DC070809E03D17299B1A038D45954E6FE095A16A5277D3BCC4ABC2EF557A4823271805F02B05D03452ABDBE8E902341BD7F312FCFF22202AC05A3DCD13201A159AAE99A2B79E4973BF2750350A5A29B1BC7701EDB1EC9A679DF31234BFB19760C751AD3152F37D2335B7CEF71410000110804AF0
310
F6CD60F1EDBC1B3783E99F1334CBFEA4280000000000000000000000000000000000DC913F331922678F5259130000000049454E44AE426082
  0
ENDSEC
  0
EOF
