  0
SECTION
  2
HEADER
  9
$ACADVER
  1
AC1032
  9
$ACADMAINTVER
 90
      140
  9
$DWGCODEPAGE
  3
ANSI_936
  9
$LASTSAVEDBY
  1
luxiaofeng
  9
$REQUIREDVERSIONS
160
                 0
  9
$INSBASE
 10
0.0
 20
0.0
 30
0.0
  9
$EXTMIN
 10
-198.7262194002969
 20
-1203.30793160725
 30
0.0
  9
$EXTMAX
 10
347.5146414854523
 20
1041.98659245579
 30
0.0
  9
$LIMMIN
 10
0.0
 20
0.0
  9
$LIMMAX
 10
12.0
 20
9.0
  9
$ORTHOMODE
 70
     0
  9
$REGENMODE
 70
     1
  9
$FILLMODE
 70
     0
  9
$QTEXTMODE
 70
     0
  9
$MIRRTEXT
 70
     0
  9
$LTSCALE
 40
1.0
  9
$ATTMODE
 70
     1
  9
$TEXTSIZE
 40
20.0
  9
$TRACEWID
 40
0.05
  9
$TEXTSTYLE
  7
Standard
  9
$CLAYER
  8
0
  9
$CELTYPE
  6
Continuous
  9
$CECOLOR
 62
   256
  9
$CELTSCALE
 40
1.0
  9
$DISPSILH
 70
     0
  9
$DIMSCALE
 40
1.0
  9
$DIMASZ
 40
0.18
  9
$DIMEXO
 40
0.0625
  9
$DIMDLI
 40
0.38
  9
$DIMRND
 40
0.0
  9
$DIMDLE
 40
0.0
  9
$DIMEXE
 40
0.18
  9
$DIMTP
 40
0.0
  9
$DIMTM
 40
0.0
  9
$DIMTXT
 40
0.18
  9
$DIMCEN
 40
0.09
  9
$DIMTSZ
 40
0.0
  9
$DIMTOL
 70
     0
  9
$DIMLIM
 70
     0
  9
$DIMTIH
 70
     1
  9
$DIMTOH
 70
     1
  9
$DIMSE1
 70
     0
  9
$DIMSE2
 70
     0
  9
$DIMTAD
 70
     0
  9
$DIMZIN
 70
     0
  9
$DIMBLK
  1

  9
$DIMASO
 70
     1
  9
$DIMSHO
 70
     1
  9
$DIMPOST
  1

  9
$DIMAPOST
  1

  9
$DIMALT
 70
     0
  9
$DIMALTD
 70
     2
  9
$DIMALTF
 40
25.4
  9
$DIMLFAC
 40
1.0
  9
$DIMTOFL
 70
     0
  9
$DIMTVP
 40
0.0
  9
$DIMTIX
 70
     0
  9
$DIMSOXD
 70
     0
  9
$DIMSAH
 70
     0
  9
$DIMBLK1
  1

  9
$DIMBLK2
  1

  9
$DIMSTYLE
  2
Standard
  9
$DIMCLRD
 70
     0
  9
$DIMCLRE
 70
     0
  9
$DIMCLRT
 70
     0
  9
$DIMTFAC
 40
1.0
  9
$DIMGAP
 40
0.09
  9
$DIMJUST
 70
     0
  9
$DIMSD1
 70
     0
  9
$DIMSD2
 70
     0
  9
$DIMTOLJ
 70
     1
  9
$DIMTZIN
 70
     0
  9
$DIMALTZ
 70
     0
  9
$DIMALTTZ
 70
     0
  9
$DIMUPT
 70
     0
  9
$DIMDEC
 70
     4
  9
$DIMTDEC
 70
     4
  9
$DIMALTU
 70
     2
  9
$DIMALTTD
 70
     2
  9
$DIMTXSTY
  7
Standard
  9
$DIMAUNIT
 70
     0
  9
$DIMADEC
 70
     0
  9
$DIMALTRND
 40
0.0
  9
$DIMAZIN
 70
     0
  9
$DIMDSEP
 70
    46
  9
$DIMATFIT
 70
     3
  9
$DIMFRAC
 70
     0
  9
$DIMLDRBLK
  1

  9
$DIMLUNIT
 70
     2
  9
$DIMLWD
 70
    -2
  9
$DIMLWE
 70
    -2
  9
$DIMTMOVE
 70
     0
  9
$DIMFXL
 40
1.0
  9
$DIMFXLON
 70
     0
  9
$DIMJOGANG
 40
0.7853981633974483
  9
$DIMTFILL
 70
     0
  9
$DIMTFILLCLR
 70
     0
  9
$DIMARCSYM
 70
     0
  9
$DIMLTYPE
  6

  9
$DIMLTEX1
  6

  9
$DIMLTEX2
  6

  9
$DIMTXTDIRECTION
 70
     0
  9
$LUNITS
 70
     2
  9
$LUPREC
 70
     4
  9
$SKETCHINC
 40
0.1
  9
$FILLETRAD
 40
0.0
  9
$AUNITS
 70
     0
  9
$AUPREC
 70
     0
  9
$MENU
  1
.
  9
$ELEVATION
 40
0.0
  9
$PELEVATION
 40
0.0
  9
$THICKNESS
 40
0.0
  9
$LIMCHECK
 70
     0
  9
$CHAMFERA
 40
0.0
  9
$CHAMFERB
 40
0.0
  9
$CHAMFERC
 40
0.0
  9
$CHAMFERD
 40
0.0
  9
$SKPOLY
 70
     0
  9
$TDCREATE
 40
2459672.941736111
  9
$TDUCREATE
 40
2459672.608402778
  9
$TDUPDATE
 40
2459744.658414352
  9
$TDUUPDATE
 40
2459744.325081019
  9
$TDINDWG
 40
46.8378009259
  9
$TDUSRTIMER
 40
46.8378009259
  9
$USRTIMER
 70
     1
  9
$ANGBASE
 50
0.0
  9
$ANGDIR
 70
     0
  9
$PDMODE
 70
     0
  9
$PDSIZE
 40
0.0
  9
$PLINEWID
 40
0.0
  9
$SPLFRAME
 70
     1
  9
$SPLINETYPE
 70
     6
  9
$SPLINESEGS
 70
     8
  9
$HANDSEED
  5
27C4
  9
$SURFTAB1
 70
     6
  9
$SURFTAB2
 70
     6
  9
$SURFTYPE
 70
     6
  9
$SURFU
 70
     6
  9
$SURFV
 70
     6
  9
$UCSBASE
  2

  9
$UCSNAME
  2

  9
$UCSORG
 10
0.0
 20
0.0
 30
0.0
  9
$UCSXDIR
 10
1.0
 20
0.0
 30
0.0
  9
$UCSYDIR
 10
0.0
 20
1.0
 30
0.0
  9
$UCSORTHOREF
  2

  9
$UCSORTHOVIEW
 70
     0
  9
$UCSORGTOP
 10
0.0
 20
0.0
 30
0.0
  9
$UCSORGBOTTOM
 10
0.0
 20
0.0
 30
0.0
  9
$UCSORGLEFT
 10
0.0
 20
0.0
 30
0.0
  9
$UCSORGRIGHT
 10
0.0
 20
0.0
 30
0.0
  9
$UCSORGFRONT
 10
0.0
 20
0.0
 30
0.0
  9
$UCSORGBACK
 10
0.0
 20
0.0
 30
0.0
  9
$PUCSBASE
  2

  9
$PUCSNAME
  2

  9
$PUCSORG
 10
0.0
 20
0.0
 30
0.0
  9
$PUCSXDIR
 10
1.0
 20
0.0
 30
0.0
  9
$PUCSYDIR
 10
0.0
 20
1.0
 30
0.0
  9
$PUCSORTHOREF
  2

  9
$PUCSORTHOVIEW
 70
     0
  9
$PUCSORGTOP
 10
0.0
 20
0.0
 30
0.0
  9
$PUCSORGBOTTOM
 10
0.0
 20
0.0
 30
0.0
  9
$PUCSORGLEFT
 10
0.0
 20
0.0
 30
0.0
  9
$PUCSORGRIGHT
 10
0.0
 20
0.0
 30
0.0
  9
$PUCSORGFRONT
 10
0.0
 20
0.0
 30
0.0
  9
$PUCSORGBACK
 10
0.0
 20
0.0
 30
0.0
  9
$USERI1
 70
     0
  9
$USERI2
 70
     0
  9
$USERI3
 70
     0
  9
$USERI4
 70
     0
  9
$USERI5
 70
     0
  9
$USERR1
 40
0.0
  9
$USERR2
 40
0.0
  9
$USERR3
 40
0.0
  9
$USERR4
 40
0.0
  9
$USERR5
 40
0.0
  9
$WORLDVIEW
 70
     1
  9
$SHADEDGE
 70
     3
  9
$SHADEDIF
 70
    70
  9
$TILEMODE
 70
     1
  9
$MAXACTVP
 70
    64
  9
$PINSBASE
 10
0.0
 20
0.0
 30
0.0
  9
$PLIMCHECK
 70
     0
  9
$PEXTMIN
 10
1.000000000000000E+20
 20
1.000000000000000E+20
 30
1.000000000000000E+20
  9
$PEXTMAX
 10
-1.000000000000000E+20
 20
-1.000000000000000E+20
 30
-1.000000000000000E+20
  9
$PLIMMIN
 10
0.0
 20
0.0
  9
$PLIMMAX
 10
12.0
 20
9.0
  9
$UNITMODE
 70
     0
  9
$VISRETAIN
 70
     1
  9
$PLINEGEN
 70
     0
  9
$PSLTSCALE
 70
     1
  9
$TREEDEPTH
 70
  3020
  9
$CMLSTYLE
  2
Standard
  9
$CMLJUST
 70
     0
  9
$CMLSCALE
 40
1.0
  9
$PROXYGRAPHICS
 70
     1
  9
$MEASUREMENT
 70
     0
  9
$CELWEIGHT
370
    -1
  9
$ENDCAPS
280
     0
  9
$JOINSTYLE
280
     0
  9
$LWDISPLAY
290
     0
  9
$INSUNITS
 70
     0
  9
$HYPERLINKBASE
  1

  9
$STYLESHEET
  1

  9
$XEDIT
290
     1
  9
$CEPSNTYPE
380
     0
  9
$PSTYLEMODE
290
     1
  9
$FINGERPRINTGUID
  2
{8B8D7928-69A4-8D4A-A871-DDA2047506A2}
  9
$VERSIONGUID
  2
{C0FC29A9-922E-4B46-BDFE-95CAFE894305}
  9
$EXTNAMES
290
     1
  9
$PSVPSCALE
 40
0.0
  9
$OLESTARTUP
290
     0
  9
$SORTENTS
280
   127
  9
$INDEXCTL
280
     0
  9
$HIDETEXT
280
     0
  9
$XCLIPFRAME
280
     2
  9
$HALOGAP
280
     0
  9
$OBSCOLOR
 70
   257
  9
$OBSLTYPE
280
     0
  9
$INTERSECTIONDISPLAY
280
     0
  9
$INTERSECTIONCOLOR
 70
   257
  9
$DIMASSOC
280
     1
  9
$PROJECTNAME
  1

  9
$CAMERADISPLAY
290
     0
  9
$LENSLENGTH
 40
50.0
  9
$CAMERAHEIGHT
 40
0.0
  9
$STEPSPERSEC
 40
2.0
  9
$STEPSIZE
 40
6.0
  9
$3DDWFPREC
 40
2.0
  9
$PSOLWIDTH
 40
0.25
  9
$PSOLHEIGHT
 40
4.0
  9
$LOFTANG1
 40
1.570796326794896
  9
$LOFTANG2
 40
1.570796326794896
  9
$LOFTMAG1
 40
0.0
  9
$LOFTMAG2
 40
0.0
  9
$LOFTPARAM
 70
     7
  9
$LOFTNORMALS
280
     1
  9
$LATITUDE
 40
37.795
  9
$LONGITUDE
 40
-122.394
  9
$NORTHDIRECTION
 40
0.0
  9
$TIMEZONE
 70
 -8000
  9
$LIGHTGLYPHDISPLAY
280
     1
  9
$TILEMODELIGHTSYNCH
280
     1
  9
$CMATERIAL
347
11
  9
$SOLIDHIST
280
     0
  9
$SHOWHIST
280
     1
  9
$DWFFRAME
280
     2
  9
$DGNFRAME
280
     0
  9
$REALWORLDSCALE
290
     1
  9
$INTERFERECOLOR
 62
     1
  9
$INTERFEREOBJVS
345
33
  9
$INTERFEREVPVS
346
30
  9
$CSHADOW
280
     0
  9
$SHADOWPLANELOCATION
 40
0.0
  0
ENDSEC
  0
SECTION
  2
CLASSES
  0
CLASS
  1
ACDBDICTIONARYWDFLT
  2
AcDbDictionaryWithDefault
  3
ObjectDBX Classes
 90
        0
 91
        1
280
     0
281
     0
  0
CLASS
  1
MATERIAL
  2
AcDbMaterial
  3
ObjectDBX Classes
 90
     1153
 91
        3
280
     0
281
     0
  0
CLASS
  1
VISUALSTYLE
  2
AcDbVisualStyle
  3
ObjectDBX Classes
 90
     4095
 91
       24
280
     0
281
     0
  0
CLASS
  1
SCALE
  2
AcDbScale
  3
ObjectDBX Classes
 90
     1153
 91
       17
280
     0
281
     0
  0
CLASS
  1
TABLESTYLE
  2
AcDbTableStyle
  3
ObjectDBX Classes
 90
     4095
 91
        1
280
     0
281
     0
  0
CLASS
  1
MLEADERSTYLE
  2
AcDbMLeaderStyle
  3
ACDB_MLEADERSTYLE_CLASS
 90
     4095
 91
        1
280
     0
281
     0
  0
CLASS
  1
ACDBSECTIONVIEWSTYLE
  2
AcDbSectionViewStyle
  3
ObjectDBX Classes
 90
     1025
 91
        2
280
     0
281
     0
  0
CLASS
  1
ACDBDETAILVIEWSTYLE
  2
AcDbDetailViewStyle
  3
ObjectDBX Classes
 90
     1025
 91
        2
280
     0
281
     0
  0
CLASS
  1
DICTIONARYVAR
  2
AcDbDictionaryVar
  3
ObjectDBX Classes
 90
        0
 91
        9
280
     0
281
     0
  0
CLASS
  1
SORTENTSTABLE
  2
AcDbSortentsTable
  3
ObjectDBX Classes
 90
        0
 91
       12
280
     0
281
     0
  0
CLASS
  1
CELLSTYLEMAP
  2
AcDbCellStyleMap
  3
ObjectDBX Classes
 90
     1152
 91
        2
280
     0
281
     0
  0
ENDSEC
  0
SECTION
  2
TABLES
  0
TABLE
  2
VPORT
  5
8
330
0
100
AcDbSymbolTable
 70
     1
  0
VPORT
  5
74
330
8
100
AcDbSymbolTableRecord
100
AcDbViewportTableRecord
  2
*Active
 70
     0
 10
0.0
 20
0.0
 11
1.0
 21
1.0
 12
339.4235397932372
 22
661.2896904893404
 13
0.0
 23
0.0
 14
1.0
 24
1.0
 15
0.0
 25
0.0
 16
0.0
 26
0.0
 36
1.0
 17
0.0
 27
0.0
 37
0.0
 40
1249.716393507093
 41
1.51624548736462
 42
50.0
 43
0.0
 44
0.0
 50
0.0
 51
0.0
 71
     0
 72
   100
 73
     1
 74
     1
 75
     0
 76
     0
 77
     0
 78
     0
281
     0
 65
     1
110
0.0
120
0.0
130
0.0
111
1.0
121
0.0
131
0.0
112
0.0
122
1.0
132
0.0
 79
     0
146
0.0
348
2F
 60
     3
 61
     5
292
     1
282
     1
141
0.0
142
0.0
 63
   250
421
  3355443
1001
ACAD_NAV_VCDISPLAY
1070
     3
  0
ENDTAB
  0
TABLE
  2
LTYPE
  5
5
330
0
100
AcDbSymbolTable
 70
     3
  0
LTYPE
  5
5A
330
5
100
AcDbSymbolTableRecord
100
AcDbLinetypeTableRecord
  2
ByBlock
 70
     0
  3

 72
    65
 73
     0
 40
0.0
  0
LTYPE
  5
5B
330
5
100
AcDbSymbolTableRecord
100
AcDbLinetypeTableRecord
  2
ByLayer
 70
     0
  3

 72
    65
 73
     0
 40
0.0
  0
LTYPE
  5
5C
330
5
100
AcDbSymbolTableRecord
100
AcDbLinetypeTableRecord
  2
Continuous
 70
     0
  3
Solid line
 72
    65
 73
     0
 40
0.0
  0
ENDTAB
  0
TABLE
  2
LAYER
  5
2
102
{ACAD_XDICTIONARY
360
298
102
}
330
0
100
AcDbSymbolTable
 70
     5
  0
LAYER
  5
54
102
{ACAD_XDICTIONARY
360
3E0
102
}
330
2
100
AcDbSymbolTableRecord
100
AcDbLayerTableRecord
  2
0
 70
     0
 62
     7
  6
Continuous
370
    -3
390
F
347
21
348
0
  0
LAYER
  5
300
102
{ACAD_XDICTIONARY
360
3E2
102
}
330
2
100
AcDbSymbolTableRecord
100
AcDbLayerTableRecord
  2
BottomSilkLayer
 70
     0
 62
    72
420
  6736947
  6
Continuous
370
    -3
390
F
347
21
348
0
  0
LAYER
  5
301
102
{ACAD_XDICTIONARY
360
3E4
102
}
330
2
100
AcDbSymbolTableRecord
100
AcDbLayerTableRecord
  2
BoardOutLine
 70
     0
 62
     6
420
 16711935
  6
Continuous
370
    -3
390
F
347
21
348
0
  0
LAYER
  5
324
102
{ACAD_XDICTIONARY
360
3E6
102
}
330
2
100
AcDbSymbolTableRecord
100
AcDbLayerTableRecord
  2
图层 1
 70
     0
 62
     7
  6
Continuous
370
     0
390
F
347
21
348
0
  0
LAYER
  5
233E
330
2
100
AcDbSymbolTableRecord
100
AcDbLayerTableRecord
  2
TopLayer
 70
     0
 62
     1
420
 16711680
  6
Continuous
370
    -3
390
F
347
21
348
0
  0
ENDTAB
  0
TABLE
  2
STYLE
  5
3
330
0
100
AcDbSymbolTable
 70
     2
  0
STYLE
  5
55
330
3
100
AcDbSymbolTableRecord
100
AcDbTextStyleTableRecord
  2
Standard
 70
     0
 40
0.0
 41
1.0
 50
0.0
 71
     0
 42
20.0
  3
txt
  4

  0
STYLE
  5
59
330
3
100
AcDbSymbolTableRecord
100
AcDbTextStyleTableRecord
  2
Annotative
 70
     0
 40
0.0
 41
1.0
 50
0.0
 71
     0
 42
0.2
  3
txt
  4

1001
AcadAnnotative
1000
AnnotativeData
1002
{
1070
     1
1070
     1
1002
}
  0
ENDTAB
  0
TABLE
  2
VIEW
  5
6
330
0
100
AcDbSymbolTable
 70
     1
  0
ENDTAB
  0
TABLE
  2
UCS
  5
7
330
0
100
AcDbSymbolTable
 70
     0
  0
ENDTAB
  0
TABLE
  2
APPID
  5
9
330
0
100
AcDbSymbolTable
 70
     8
  0
APPID
  5
56
330
9
100
AcDbSymbolTableRecord
100
AcDbRegAppTableRecord
  2
ACAD
 70
     0
  0
APPID
  5
5D
330
9
100
AcDbSymbolTableRecord
100
AcDbRegAppTableRecord
  2
AcadAnnotative
 70
     0
  0
APPID
  5
27B
330
9
100
AcDbSymbolTableRecord
100
AcDbRegAppTableRecord
  2
ACAD_NAV_VCDISPLAY
 70
     0
  0
APPID
  5
286
330
9
100
AcDbSymbolTableRecord
100
AcDbRegAppTableRecord
  2
ACAD_EXEMPT_FROM_CAD_STANDARDS
 70
     0
  0
APPID
  5
28D
330
9
100
AcDbSymbolTableRecord
100
AcDbRegAppTableRecord
  2
Acad_TC
 70
     0
  0
APPID
  5
2340
330
9
100
AcDbSymbolTableRecord
100
AcDbRegAppTableRecord
  2
ACAD_PSEXT
 70
     0
  0
APPID
  5
2341
330
9
100
AcDbSymbolTableRecord
100
AcDbRegAppTableRecord
  2
ACAD_DSTYLE_DIMJAG
 70
     0
  0
APPID
  5
2342
330
9
100
AcDbSymbolTableRecord
100
AcDbRegAppTableRecord
  2
ACAD_DSTYLE_DIMTALN
 70
     0
  0
ENDTAB
  0
TABLE
  2
DIMSTYLE
  5
A
330
0
100
AcDbSymbolTable
 70
     4
100
AcDbDimStyleTable
 71
     1
340
57
  0
DIMSTYLE
105
57
330
A
100
AcDbSymbolTableRecord
100
AcDbDimStyleTableRecord
  2
Standard
 70
     0
340
55
  0
DIMSTYLE
105
58
330
A
100
AcDbSymbolTableRecord
100
AcDbDimStyleTableRecord
  2
Annotative
 70
     0
340
55
1001
AcadAnnotative
1000
AnnotativeData
1002
{
1070
     1
1070
     1
1002
}
  0
DIMSTYLE
105
233F
330
A
100
AcDbSymbolTableRecord
100
AcDbDimStyleTableRecord
  2
ISO-25
 70
     0
 41
2.5
 42
0.625
 43
3.75
 44
1.25
 73
     0
 74
     0
 77
     1
 78
     8
140
2.5
141
2.5
143
0.03937007874016
147
0.625
171
     3
172
     1
271
     2
272
     2
274
     3
278
    44
283
     0
284
     8
340
55
  0
ENDTAB
  0
TABLE
  2
BLOCK_RECORD
  5
1
330
0
100
AcDbSymbolTable
 70
    16
  0
BLOCK_RECORD
  5
6F
102
{ACAD_XDICTIONARY
360
3DC
102
}
330
1
100
AcDbSymbolTableRecord
100
AcDbBlockTableRecord
  2
*Model_Space
340
72
 70
     0
280
     1
281
     0
  0
BLOCK_RECORD
  5
6B
330
1
100
AcDbSymbolTableRecord
100
AcDbBlockTableRecord
  2
*Paper_Space
340
6E
 70
     0
280
     1
281
     0
  0
ENDTAB
  0
ENDSEC
  0
SECTION
  2
BLOCKS
  0
BLOCK
  5
70
330
6F
100
AcDbEntity
  8
0
100
AcDbBlockBegin
  2
*Model_Space
 70
     0
 10
0.0
 20
0.0
 30
0.0
  3
*Model_Space
  1

  0
ENDBLK
  5
71
330
6F
100
AcDbEntity
  8
0
100
AcDbBlockEnd
  0
BLOCK
  5
6C
330
6B
100
AcDbEntity
 67
     1
  8
0
100
AcDbBlockBegin
  2
*Paper_Space
 70
     0
 10
0.0
 20
0.0
 30
0.0
  3
*Paper_Space
  1

  0
ENDBLK
  5
6D
330
6B
100
AcDbEntity
 67
     1
  8
0
100
AcDbBlockEnd
  0
ENDSEC
  0
SECTION
  2
ENTITIES
  0
LINE
  5
1C98
330
6F
100
AcDbEntity
  8
0
 62
     0
100
AcDbLine
 10
111.7705147052193
 20
368.6184436320937
 30
0.0
 11
111.7705147052193
 21
363.9193436320937
 31
0.0
  0
LINE
  5
1C99
330
6F
100
AcDbEntity
  8
0
 62
     0
100
AcDbLine
 10
111.7705147052193
 20
363.9193436320937
 30
0.0
 11
72.14661470521929
 21
363.9193436320937
 31
0.0
  0
LINE
  5
1C9A
330
6F
100
AcDbEntity
  8
0
 62
     0
100
AcDbLine
 10
72.14661470521929
 20
363.9193436320937
 30
0.0
 11
72.14661470521929
 21
367.1495436320937
 31
0.0
  0
LINE
  5
1C9B
330
6F
100
AcDbEntity
  8
0
 62
     0
100
AcDbLine
 10
72.14661470521929
 20
367.1495436320937
 30
0.0
 11
65.39691470521927
 21
367.1495436320937
 31
0.0
  0
LINE
  5
1C9C
330
6F
100
AcDbEntity
  8
0
 62
     0
100
AcDbLine
 10
65.39691470521927
 20
367.1495436320937
 30
0.0
 11
65.39691470521927
 21
363.9193436320937
 31
0.0
  0
LINE
  5
1C9D
330
6F
100
AcDbEntity
  8
0
 62
     0
100
AcDbLine
 10
65.39691470521927
 20
363.9193436320937
 30
0.0
 11
64.57141470521929
 21
363.9193436320937
 31
0.0
  0
LINE
  5
1C9E
330
6F
100
AcDbEntity
  8
0
 62
     0
100
AcDbLine
 10
64.57141470521929
 20
363.9193436320937
 30
0.0
 11
64.57141470521929
 21
361.1192136320937
 31
0.0
  0
LINE
  5
1C9F
330
6F
100
AcDbEntity
  8
0
 62
     0
100
AcDbLine
 10
64.57141470521929
 20
361.1192136320937
 30
0.0
 11
65.39691470521927
 21
361.1192136320937
 31
0.0
  0
LINE
  5
1CA0
330
6F
100
AcDbEntity
  8
0
 62
     0
100
AcDbLine
 10
65.39691470521927
 20
361.1192136320937
 30
0.0
 11
65.39691470521927
 21
354.8505136320937
 31
0.0
  0
LINE
  5
1CA1
330
6F
100
AcDbEntity
  8
0
 62
     0
100
AcDbLine
 10
65.39691470521927
 20
354.8505136320937
 30
0.0
 11
67.12201470521927
 21
354.8505136320937
 31
0.0
  0
LINE
  5
1CA2
330
6F
100
AcDbEntity
  8
0
 62
     0
100
AcDbLine
 10
67.12201470521927
 20
354.8505136320937
 30
0.0
 11
67.12201470521927
 21
353.6488636320937
 31
0.0
  0
LINE
  5
1CA3
330
6F
100
AcDbEntity
  8
0
 62
     0
100
AcDbLine
 10
67.12201470521927
 20
353.6488636320937
 30
0.0
 11
70.42251470521927
 21
353.6488636320937
 31
0.0
  0
LINE
  5
1CA4
330
6F
100
AcDbEntity
  8
0
 62
     0
100
AcDbLine
 10
70.42251470521927
 20
353.6488636320937
 30
0.0
 11
70.42251470521927
 21
354.8505136320937
 31
0.0
  0
LINE
  5
1CA5
330
6F
100
AcDbEntity
  8
0
 62
     0
100
AcDbLine
 10
70.42251470521927
 20
354.8505136320937
 30
0.0
 11
72.14661470521929
 21
354.8505136320937
 31
0.0
  0
LINE
  5
1CA6
330
6F
100
AcDbEntity
  8
0
 62
     0
100
AcDbLine
 10
72.14661470521929
 20
354.8505136320937
 30
0.0
 11
72.14661470521929
 21
359.3194736320937
 31
0.0
  0
LINE
  5
1CA7
330
6F
100
AcDbEntity
  8
0
 62
     0
100
AcDbLine
 10
72.14661470521929
 20
359.3194736320937
 30
0.0
 11
111.7705147052193
 21
359.3194736320937
 31
0.0
  0
LINE
  5
1CA8
330
6F
100
AcDbEntity
  8
0
 62
     0
100
AcDbLine
 10
111.7705147052193
 20
359.3194736320937
 30
0.0
 11
111.7705147052193
 21
354.6190036320937
 31
0.0
  0
LINE
  5
1CA9
330
6F
100
AcDbEntity
  8
0
 62
     0
100
AcDbLine
 10
111.7705147052193
 20
354.6190036320937
 30
0.0
 11
125.7715147052192
 21
354.6190036320937
 31
0.0
  0
LINE
  5
1CAA
330
6F
100
AcDbEntity
  8
0
 62
     0
100
AcDbLine
 10
125.7715147052192
 20
354.6190036320937
 30
0.0
 11
125.7715147052192
 21
359.3194736320937
 31
0.0
  0
LINE
  5
1CAB
330
6F
100
AcDbEntity
  8
0
 62
     0
100
AcDbLine
 10
125.7715147052192
 20
359.3194736320937
 30
0.0
 11
165.3975147052193
 21
359.3194736320937
 31
0.0
  0
LINE
  5
1CAC
330
6F
100
AcDbEntity
  8
0
 62
     0
100
AcDbLine
 10
165.3975147052193
 20
359.3194736320937
 30
0.0
 11
165.3975147052193
 21
354.8505136320937
 31
0.0
  0
LINE
  5
1CAD
330
6F
100
AcDbEntity
  8
0
 62
     0
100
AcDbLine
 10
165.3975147052193
 20
354.8505136320937
 30
0.0
 11
167.1225147052193
 21
354.8505136320937
 31
0.0
  0
LINE
  5
1CAE
330
6F
100
AcDbEntity
  8
0
 62
     0
100
AcDbLine
 10
167.1225147052193
 20
354.8505136320937
 30
0.0
 11
167.1225147052193
 21
353.6488636320937
 31
0.0
  0
LINE
  5
1CAF
330
6F
100
AcDbEntity
  8
0
 62
     0
100
AcDbLine
 10
167.1225147052193
 20
353.6488636320937
 30
0.0
 11
170.4225147052192
 21
353.6488636320937
 31
0.0
  0
LINE
  5
1CB0
330
6F
100
AcDbEntity
  8
0
 62
     0
100
AcDbLine
 10
170.4225147052192
 20
353.6488636320937
 30
0.0
 11
170.4225147052192
 21
354.8505136320937
 31
0.0
  0
LINE
  5
1CB1
330
6F
100
AcDbEntity
  8
0
 62
     0
100
AcDbLine
 10
170.4225147052192
 20
354.8505136320937
 30
0.0
 11
172.1465147052193
 21
354.8505136320937
 31
0.0
  0
LINE
  5
1CB2
330
6F
100
AcDbEntity
  8
0
 62
     0
100
AcDbLine
 10
172.1465147052193
 20
354.8505136320937
 30
0.0
 11
172.1465147052193
 21
361.1192136320937
 31
0.0
  0
LINE
  5
1CB3
330
6F
100
AcDbEntity
  8
0
 62
     0
100
AcDbLine
 10
172.1465147052193
 20
361.1192136320937
 30
0.0
 11
172.9715147052192
 21
361.1192136320937
 31
0.0
  0
LINE
  5
1CB4
330
6F
100
AcDbEntity
  8
0
 62
     0
100
AcDbLine
 10
172.9715147052192
 20
361.1192136320937
 30
0.0
 11
172.9715147052192
 21
363.9193436320937
 31
0.0
  0
LINE
  5
1CB5
330
6F
100
AcDbEntity
  8
0
 62
     0
100
AcDbLine
 10
172.9715147052192
 20
363.9193436320937
 30
0.0
 11
172.1465147052193
 21
363.9193436320937
 31
0.0
  0
LINE
  5
1CB6
330
6F
100
AcDbEntity
  8
0
 62
     0
100
AcDbLine
 10
172.1465147052193
 20
363.9193436320937
 30
0.0
 11
172.1465147052193
 21
367.1495436320937
 31
0.0
  0
LINE
  5
1CB7
330
6F
100
AcDbEntity
  8
0
 62
     0
100
AcDbLine
 10
172.1465147052193
 20
367.1495436320937
 30
0.0
 11
165.3975147052193
 21
367.1495436320937
 31
0.0
  0
LINE
  5
1CB8
330
6F
100
AcDbEntity
  8
0
 62
     0
100
AcDbLine
 10
165.3975147052193
 20
367.1495436320937
 30
0.0
 11
165.3975147052193
 21
363.9193436320937
 31
0.0
  0
LINE
  5
1CB9
330
6F
100
AcDbEntity
  8
0
 62
     0
100
AcDbLine
 10
165.3975147052193
 20
363.9193436320937
 30
0.0
 11
125.7715147052192
 21
363.9193436320937
 31
0.0
  0
LINE
  5
1CBA
330
6F
100
AcDbEntity
  8
0
 62
     0
100
AcDbLine
 10
125.7715147052192
 20
363.9193436320937
 30
0.0
 11
125.7715147052192
 21
368.6184436320937
 31
0.0
  0
LINE
  5
1CBB
330
6F
100
AcDbEntity
  8
0
 62
     0
100
AcDbLine
 10
125.7715147052192
 20
368.6184436320937
 30
0.0
 11
111.7705147052193
 21
368.6184436320937
 31
0.0
  0
LINE
  5
1CBC
330
6F
100
AcDbEntity
  8
0
 62
     0
100
AcDbLine
 10
299.8905147052195
 20
368.6184436320937
 30
0.0
 11
313.8915147052194
 21
368.6184436320937
 31
0.0
  0
LINE
  5
1CBD
330
6F
100
AcDbEntity
  8
0
 62
     0
100
AcDbLine
 10
313.8915147052194
 20
368.6184436320937
 30
0.0
 11
313.8915147052194
 21
354.6190036320937
 31
0.0
  0
LINE
  5
1CBE
330
6F
100
AcDbEntity
  8
0
 62
     0
100
AcDbLine
 10
313.8915147052194
 20
354.6190036320937
 30
0.0
 11
299.8905147052195
 21
354.6190036320937
 31
0.0
  0
LINE
  5
1CBF
330
6F
100
AcDbEntity
  8
0
 62
     0
100
AcDbLine
 10
299.8905147052195
 20
354.6190036320937
 30
0.0
 11
299.8905147052195
 21
368.6184436320937
 31
0.0
  0
LINE
  5
1CC0
330
6F
100
AcDbEntity
  8
0
 62
     0
100
AcDbLine
 10
280.8405147052193
 20
368.6184436320937
 30
0.0
 11
294.8415147052192
 21
368.6184436320937
 31
0.0
  0
LINE
  5
1CC1
330
6F
100
AcDbEntity
  8
0
 62
     0
100
AcDbLine
 10
294.8415147052192
 20
368.6184436320937
 30
0.0
 11
294.8415147052192
 21
354.6190036320937
 31
0.0
  0
LINE
  5
1CC2
330
6F
100
AcDbEntity
  8
0
 62
     0
100
AcDbLine
 10
294.8415147052192
 20
354.6190036320937
 30
0.0
 11
280.8405147052193
 21
354.6190036320937
 31
0.0
  0
LINE
  5
1CC3
330
6F
100
AcDbEntity
  8
0
 62
     0
100
AcDbLine
 10
280.8405147052193
 20
354.6190036320937
 30
0.0
 11
280.8405147052193
 21
368.6184436320937
 31
0.0
  0
LINE
  5
1CC4
330
6F
100
AcDbEntity
  8
0
 62
     0
100
AcDbLine
 10
261.7905147052192
 20
368.6184436320937
 30
0.0
 11
275.7915147052192
 21
368.6184436320937
 31
0.0
  0
LINE
  5
1CC5
330
6F
100
AcDbEntity
  8
0
 62
     0
100
AcDbLine
 10
275.7915147052192
 20
368.6184436320937
 30
0.0
 11
275.7915147052192
 21
354.6190036320937
 31
0.0
  0
LINE
  5
1CC6
330
6F
100
AcDbEntity
  8
0
 62
     0
100
AcDbLine
 10
275.7915147052192
 20
354.6190036320937
 30
0.0
 11
261.7905147052192
 21
354.6190036320937
 31
0.0
  0
LINE
  5
1CC7
330
6F
100
AcDbEntity
  8
0
 62
     0
100
AcDbLine
 10
261.7905147052192
 20
354.6190036320937
 30
0.0
 11
261.7905147052192
 21
368.6184436320937
 31
0.0
  0
LINE
  5
1CC8
330
6F
100
AcDbEntity
  8
0
 62
     0
100
AcDbLine
 10
230.8345147052193
 20
368.6184436320937
 30
0.0
 11
244.8355147052193
 21
368.6184436320937
 31
0.0
  0
LINE
  5
1CC9
330
6F
100
AcDbEntity
  8
0
 62
     0
100
AcDbLine
 10
244.8355147052193
 20
368.6184436320937
 30
0.0
 11
244.8355147052193
 21
354.6190036320937
 31
0.0
  0
LINE
  5
1CCA
330
6F
100
AcDbEntity
  8
0
 62
     0
100
AcDbLine
 10
244.8355147052193
 20
354.6190036320937
 30
0.0
 11
230.8345147052193
 21
354.6190036320937
 31
0.0
  0
LINE
  5
1CCB
330
6F
100
AcDbEntity
  8
0
 62
     0
100
AcDbLine
 10
230.8345147052193
 20
354.6190036320937
 30
0.0
 11
230.8345147052193
 21
368.6184436320937
 31
0.0
  0
LINE
  5
1CCC
330
6F
100
AcDbEntity
  8
0
 62
     0
100
AcDbLine
 10
207.0215147052192
 20
368.6184436320937
 30
0.0
 11
221.0215147052192
 21
368.6184436320937
 31
0.0
  0
LINE
  5
1CCD
330
6F
100
AcDbEntity
  8
0
 62
     0
100
AcDbLine
 10
221.0215147052192
 20
368.6184436320937
 30
0.0
 11
221.0215147052192
 21
354.6190036320937
 31
0.0
  0
LINE
  5
1CCE
330
6F
100
AcDbEntity
  8
0
 62
     0
100
AcDbLine
 10
221.0215147052192
 20
354.6190036320937
 30
0.0
 11
207.0215147052192
 21
354.6190036320937
 31
0.0
  0
LINE
  5
1CCF
330
6F
100
AcDbEntity
  8
0
 62
     0
100
AcDbLine
 10
207.0215147052192
 20
354.6190036320937
 30
0.0
 11
207.0215147052192
 21
368.6184436320937
 31
0.0
  0
LINE
  5
1CD0
330
6F
100
AcDbEntity
  8
0
 62
     0
100
AcDbLine
 10
183.2095147052193
 20
368.6184436320937
 30
0.0
 11
197.2105147052193
 21
368.6184436320937
 31
0.0
  0
LINE
  5
1CD1
330
6F
100
AcDbEntity
  8
0
 62
     0
100
AcDbLine
 10
197.2105147052193
 20
368.6184436320937
 30
0.0
 11
197.2105147052193
 21
354.6190036320937
 31
0.0
  0
LINE
  5
1CD2
330
6F
100
AcDbEntity
  8
0
 62
     0
100
AcDbLine
 10
197.2105147052193
 20
354.6190036320937
 30
0.0
 11
183.2095147052193
 21
354.6190036320937
 31
0.0
  0
LINE
  5
1CD3
330
6F
100
AcDbEntity
  8
0
 62
     0
100
AcDbLine
 10
183.2095147052193
 20
354.6190036320937
 30
0.0
 11
183.2095147052193
 21
368.6184436320937
 31
0.0
  0
LINE
  5
1CD4
330
6F
100
AcDbEntity
  8
0
 62
     0
100
AcDbLine
 10
40.33451470521931
 20
368.6184436320937
 30
0.0
 11
54.33521470521924
 21
368.6184436320937
 31
0.0
  0
LINE
  5
1CD5
330
6F
100
AcDbEntity
  8
0
 62
     0
100
AcDbLine
 10
54.33521470521924
 20
368.6184436320937
 30
0.0
 11
54.33521470521924
 21
354.6190036320937
 31
0.0
  0
LINE
  5
1CD6
330
6F
100
AcDbEntity
  8
0
 62
     0
100
AcDbLine
 10
54.33521470521924
 20
354.6190036320937
 30
0.0
 11
40.33451470521931
 21
354.6190036320937
 31
0.0
  0
LINE
  5
1CD7
330
6F
100
AcDbEntity
  8
0
 62
     0
100
AcDbLine
 10
40.33451470521931
 20
354.6190036320937
 30
0.0
 11
40.33451470521931
 21
368.6184436320937
 31
0.0
  0
LINE
  5
1CD8
330
6F
100
AcDbEntity
  8
0
 62
     0
100
AcDbLine
 10
16.52191470521927
 20
368.6184436320937
 30
0.0
 11
30.52131470521926
 21
368.6184436320937
 31
0.0
  0
LINE
  5
1CD9
330
6F
100
AcDbEntity
  8
0
 62
     0
100
AcDbLine
 10
30.52131470521926
 20
368.6184436320937
 30
0.0
 11
30.52131470521926
 21
354.6190036320937
 31
0.0
  0
LINE
  5
1CDA
330
6F
100
AcDbEntity
  8
0
 62
     0
100
AcDbLine
 10
30.52131470521926
 20
354.6190036320937
 30
0.0
 11
16.52191470521927
 21
354.6190036320937
 31
0.0
  0
LINE
  5
1CDB
330
6F
100
AcDbEntity
  8
0
 62
     0
100
AcDbLine
 10
16.52191470521927
 20
354.6190036320937
 30
0.0
 11
16.52191470521927
 21
368.6184436320937
 31
0.0
  0
LINE
  5
1CDC
330
6F
100
AcDbEntity
  8
0
 62
     0
100
AcDbLine
 10
-7.290575294780751
 20
368.6184436320937
 30
0.0
 11
6.710314705219275
 21
368.6184436320937
 31
0.0
  0
LINE
  5
1CDD
330
6F
100
AcDbEntity
  8
0
 62
     0
100
AcDbLine
 10
6.710314705219275
 20
368.6184436320937
 30
0.0
 11
6.710314705219275
 21
354.6190036320937
 31
0.0
  0
LINE
  5
1CDE
330
6F
100
AcDbEntity
  8
0
 62
     0
100
AcDbLine
 10
6.710314705219275
 20
354.6190036320937
 30
0.0
 11
-7.290575294780751
 21
354.6190036320937
 31
0.0
  0
LINE
  5
1CDF
330
6F
100
AcDbEntity
  8
0
 62
     0
100
AcDbLine
 10
316.9915147052192
 20
351.5190036320937
 30
0.0
 11
281.9915147052194
 21
351.5190036320937
 31
0.0
  0
LINE
  5
1CE0
330
6F
100
AcDbEntity
  8
0
 62
     0
100
AcDbLine
 10
318.9915147052192
 20
384.5190036320937
 30
0.0
 11
316.9915147052192
 21
384.5190036320937
 31
0.0
  0
LINE
  5
1CE1
330
6F
100
AcDbEntity
  8
0
 62
     0
100
AcDbLine
 10
318.9915147052192
 20
414.5190036320936
 30
0.0
 11
316.9915147052192
 21
414.5190036320936
 31
0.0
  0
LINE
  5
1CE2
330
6F
100
AcDbEntity
  8
0
 62
     0
100
AcDbLine
 10
251.9915147052192
 20
351.5190036320937
 30
0.0
 11
220.9915147052194
 21
351.5190036320937
 31
0.0
  0
LINE
  5
1CE3
330
6F
100
AcDbEntity
  8
0
 62
     0
100
AcDbLine
 10
190.9915147052192
 20
351.5190036320937
 30
0.0
 11
172.2295447052192
 21
351.5190036320937
 31
0.0
  0
LINE
  5
1CE4
330
6F
100
AcDbEntity
  8
0
 62
     0
100
AcDbLine
 10
218.9915147052194
 20
347.5190036320937
 30
0.0
 11
192.9915147052192
 21
347.5190036320937
 31
0.0
  0
LINE
  5
1CE5
330
6F
100
AcDbEntity
  8
0
 62
     0
100
AcDbLine
 10
172.3919258834211
 20
351.5190036320937
 30
0.0
 11
113.2295447052193
 21
351.5190036320937
 31
0.0
  0
LINE
  5
1CE6
330
6F
100
AcDbEntity
  8
0
 62
     0
100
AcDbLine
 10
83.22954470521926
 20
351.5190036320937
 30
0.0
 11
52.22954470521926
 21
351.5190036320937
 31
0.0
  0
LINE
  5
1CE7
330
6F
100
AcDbEntity
  8
0
 62
     0
100
AcDbLine
 10
111.2295447052192
 20
347.5190036320937
 30
0.0
 11
85.22954470521927
 21
347.5190036320937
 31
0.0
  0
LINE
  5
1CE8
330
6F
100
AcDbEntity
  8
0
 62
     0
100
AcDbLine
 10
22.22954470521927
 20
351.5190036320937
 30
0.0
 11
-12.77045529478073
 21
351.5190036320937
 31
0.0
  0
LINE
  5
1CE9
330
6F
100
AcDbEntity
  8
0
 62
     0
100
AcDbLine
 10
279.9915147052193
 20
347.5190036320937
 30
0.0
 11
253.9915147052192
 21
347.5190036320937
 31
0.0
  0
LINE
  5
1CEA
330
6F
100
AcDbEntity
  8
0
 62
     0
100
AcDbLine
 10
50.22954470521927
 20
347.5190036320937
 30
0.0
 11
24.22954470521927
 21
347.5190036320937
 31
0.0
  0
LINE
  5
1CEB
330
6F
100
AcDbEntity
  8
0
 62
     0
100
AcDbLine
 10
-7.290575294780751
 20
354.6190036320937
 30
0.0
 11
-7.290575294780751
 21
368.6184436320937
 31
0.0
  0
LINE
  5
1CEC
330
6F
100
AcDbEntity
  8
0
 62
     0
100
AcDbLine
 10
240.3595147052193
 20
387.6683436320936
 30
0.0
 11
240.3595147052193
 21
382.9693436320937
 31
0.0
  0
LINE
  5
1CED
330
6F
100
AcDbEntity
  8
0
 62
     0
100
AcDbLine
 10
240.3595147052193
 20
382.9693436320937
 30
0.0
 11
238.8355147052193
 21
382.9693436320937
 31
0.0
  0
LINE
  5
1CEE
330
6F
100
AcDbEntity
  8
0
 62
     0
100
AcDbLine
 10
238.8355147052193
 20
382.9693436320937
 30
0.0
 11
238.8355147052193
 21
386.1995436320937
 31
0.0
  0
LINE
  5
1CEF
330
6F
100
AcDbEntity
  8
0
 62
     0
100
AcDbLine
 10
238.8355147052193
 20
386.1995436320937
 30
0.0
 11
232.0855147052193
 21
386.1995436320937
 31
0.0
  0
LINE
  5
1CF0
330
6F
100
AcDbEntity
  8
0
 62
     0
100
AcDbLine
 10
232.0855147052193
 20
386.1995436320937
 30
0.0
 11
232.0855147052193
 21
382.9693436320937
 31
0.0
  0
LINE
  5
1CF1
330
6F
100
AcDbEntity
  8
0
 62
     0
100
AcDbLine
 10
232.0855147052193
 20
382.9693436320937
 30
0.0
 11
231.2605147052192
 21
382.9693436320937
 31
0.0
  0
LINE
  5
1CF2
330
6F
100
AcDbEntity
  8
0
 62
     0
100
AcDbLine
 10
231.2605147052192
 20
382.9693436320937
 30
0.0
 11
231.2605147052192
 21
380.1692436320936
 31
0.0
  0
LINE
  5
1CF3
330
6F
100
AcDbEntity
  8
0
 62
     0
100
AcDbLine
 10
231.2605147052192
 20
380.1692436320936
 30
0.0
 11
232.0855147052193
 21
380.1692436320936
 31
0.0
  0
LINE
  5
1CF4
330
6F
100
AcDbEntity
  8
0
 62
     0
100
AcDbLine
 10
232.0855147052193
 20
380.1692436320936
 30
0.0
 11
232.0855147052193
 21
373.8991436320937
 31
0.0
  0
LINE
  5
1CF5
330
6F
100
AcDbEntity
  8
0
 62
     0
100
AcDbLine
 10
232.0855147052193
 20
373.8991436320937
 30
0.0
 11
233.8095147052192
 21
373.8991436320937
 31
0.0
  0
LINE
  5
1CF6
330
6F
100
AcDbEntity
  8
0
 62
     0
100
AcDbLine
 10
233.8095147052192
 20
373.8991436320937
 30
0.0
 11
233.8095147052192
 21
372.6988436320937
 31
0.0
  0
LINE
  5
1CF7
330
6F
100
AcDbEntity
  8
0
 62
     0
100
AcDbLine
 10
233.8095147052192
 20
372.6988436320937
 30
0.0
 11
237.1105147052193
 21
372.6988436320937
 31
0.0
  0
LINE
  5
1CF8
330
6F
100
AcDbEntity
  8
0
 62
     0
100
AcDbLine
 10
237.1105147052193
 20
372.6988436320937
 30
0.0
 11
237.1105147052193
 21
373.8991436320937
 31
0.0
  0
LINE
  5
1CF9
330
6F
100
AcDbEntity
  8
0
 62
     0
100
AcDbLine
 10
237.1105147052193
 20
373.8991436320937
 30
0.0
 11
238.8355147052193
 21
373.8991436320937
 31
0.0
  0
LINE
  5
1CFA
330
6F
100
AcDbEntity
  8
0
 62
     0
100
AcDbLine
 10
238.8355147052193
 20
373.8991436320937
 30
0.0
 11
238.8355147052193
 21
378.3694436320936
 31
0.0
  0
LINE
  5
1CFB
330
6F
100
AcDbEntity
  8
0
 62
     0
100
AcDbLine
 10
238.8355147052193
 20
378.3694436320936
 30
0.0
 11
240.3595147052193
 21
378.3694436320936
 31
0.0
  0
LINE
  5
1CFC
330
6F
100
AcDbEntity
  8
0
 62
     0
100
AcDbLine
 10
240.3595147052193
 20
378.3694436320936
 30
0.0
 11
240.3595147052193
 21
373.6690436320937
 31
0.0
  0
LINE
  5
1CFD
330
6F
100
AcDbEntity
  8
0
 62
     0
100
AcDbLine
 10
240.3595147052193
 20
373.6690436320937
 30
0.0
 11
254.3605147052192
 21
373.6690436320937
 31
0.0
  0
LINE
  5
1CFE
330
6F
100
AcDbEntity
  8
0
 62
     0
100
AcDbLine
 10
254.3605147052192
 20
373.6690436320937
 30
0.0
 11
254.3605147052192
 21
378.3694436320936
 31
0.0
  0
LINE
  5
1CFF
330
6F
100
AcDbEntity
  8
0
 62
     0
100
AcDbLine
 10
254.3605147052192
 20
378.3694436320936
 30
0.0
 11
255.8845147052192
 21
378.3694436320936
 31
0.0
  0
LINE
  5
1D00
330
6F
100
AcDbEntity
  8
0
 62
     0
100
AcDbLine
 10
255.8845147052192
 20
378.3694436320936
 30
0.0
 11
255.8845147052192
 21
373.8991436320937
 31
0.0
  0
LINE
  5
1D01
330
6F
100
AcDbEntity
  8
0
 62
     0
100
AcDbLine
 10
255.8845147052192
 20
373.8991436320937
 30
0.0
 11
257.6095147052193
 21
373.8991436320937
 31
0.0
  0
LINE
  5
1D02
330
6F
100
AcDbEntity
  8
0
 62
     0
100
AcDbLine
 10
257.6095147052193
 20
373.8991436320937
 30
0.0
 11
257.6095147052193
 21
372.6988436320937
 31
0.0
  0
LINE
  5
1D03
330
6F
100
AcDbEntity
  8
0
 62
     0
100
AcDbLine
 10
257.6095147052193
 20
372.6988436320937
 30
0.0
 11
260.9105147052194
 21
372.6988436320937
 31
0.0
  0
LINE
  5
1D04
330
6F
100
AcDbEntity
  8
0
 62
     0
100
AcDbLine
 10
260.9105147052194
 20
372.6988436320937
 30
0.0
 11
260.9105147052194
 21
373.8991436320937
 31
0.0
  0
LINE
  5
1D05
330
6F
100
AcDbEntity
  8
0
 62
     0
100
AcDbLine
 10
260.9105147052194
 20
373.8991436320937
 30
0.0
 11
262.6355147052194
 21
373.8991436320937
 31
0.0
  0
LINE
  5
1D06
330
6F
100
AcDbEntity
  8
0
 62
     0
100
AcDbLine
 10
262.6355147052194
 20
373.8991436320937
 30
0.0
 11
262.6355147052194
 21
380.1692436320936
 31
0.0
  0
LINE
  5
1D07
330
6F
100
AcDbEntity
  8
0
 62
     0
100
AcDbLine
 10
262.6355147052194
 20
380.1692436320936
 30
0.0
 11
263.4595147052193
 21
380.1692436320936
 31
0.0
  0
LINE
  5
1D08
330
6F
100
AcDbEntity
  8
0
 62
     0
100
AcDbLine
 10
263.4595147052193
 20
380.1692436320936
 30
0.0
 11
263.4595147052193
 21
382.9693436320937
 31
0.0
  0
LINE
  5
1D09
330
6F
100
AcDbEntity
  8
0
 62
     0
100
AcDbLine
 10
263.4595147052193
 20
382.9693436320937
 30
0.0
 11
262.6355147052194
 21
382.9693436320937
 31
0.0
  0
LINE
  5
1D0A
330
6F
100
AcDbEntity
  8
0
 62
     0
100
AcDbLine
 10
262.6355147052194
 20
382.9693436320937
 30
0.0
 11
262.6355147052194
 21
386.1995436320937
 31
0.0
  0
LINE
  5
1D0B
330
6F
100
AcDbEntity
  8
0
 62
     0
100
AcDbLine
 10
262.6355147052194
 20
386.1995436320937
 30
0.0
 11
255.8845147052192
 21
386.1995436320937
 31
0.0
  0
LINE
  5
1D0C
330
6F
100
AcDbEntity
  8
0
 62
     0
100
AcDbLine
 10
255.8845147052192
 20
386.1995436320937
 30
0.0
 11
255.8845147052192
 21
382.9693436320937
 31
0.0
  0
LINE
  5
1D0D
330
6F
100
AcDbEntity
  8
0
 62
     0
100
AcDbLine
 10
255.8845147052192
 20
382.9693436320937
 30
0.0
 11
254.3605147052192
 21
382.9693436320937
 31
0.0
  0
LINE
  5
1D0E
330
6F
100
AcDbEntity
  8
0
 62
     0
100
AcDbLine
 10
254.3605147052192
 20
382.9693436320937
 30
0.0
 11
254.3605147052192
 21
387.6683436320936
 31
0.0
  0
LINE
  5
1D0F
330
6F
100
AcDbEntity
  8
0
 62
     0
100
AcDbLine
 10
254.3605147052192
 20
387.6683436320936
 30
0.0
 11
240.3595147052193
 21
387.6683436320936
 31
0.0
  0
LINE
  5
1D10
330
6F
100
AcDbEntity
  8
0
 62
     0
100
AcDbLine
 10
2.234414705219251
 20
387.6683436320936
 30
0.0
 11
2.234414705219251
 21
382.9693436320937
 31
0.0
  0
LINE
  5
1D11
330
6F
100
AcDbEntity
  8
0
 62
     0
100
AcDbLine
 10
2.234414705219251
 20
382.9693436320937
 30
0.0
 11
0.7103147052192753
 21
382.9693436320937
 31
0.0
  0
LINE
  5
1D12
330
6F
100
AcDbEntity
  8
0
 62
     0
100
AcDbLine
 10
0.7103147052192753
 20
382.9693436320937
 30
0.0
 11
0.7103147052192753
 21
386.1995436320937
 31
0.0
  0
LINE
  5
1D13
330
6F
100
AcDbEntity
  8
0
 62
     0
100
AcDbLine
 10
0.7103147052192753
 20
386.1995436320937
 30
0.0
 11
-6.039315294780749
 21
386.1995436320937
 31
0.0
  0
LINE
  5
1D14
330
6F
100
AcDbEntity
  8
0
 62
     0
100
AcDbLine
 10
-6.039315294780749
 20
386.1995436320937
 30
0.0
 11
-6.039315294780749
 21
382.9693436320937
 31
0.0
  0
LINE
  5
1D15
330
6F
100
AcDbEntity
  8
0
 62
     0
100
AcDbLine
 10
-6.039315294780749
 20
382.9693436320937
 30
0.0
 11
-6.864775294780713
 21
382.9693436320937
 31
0.0
  0
LINE
  5
1D16
330
6F
100
AcDbEntity
  8
0
 62
     0
100
AcDbLine
 10
-6.864775294780713
 20
382.9693436320937
 30
0.0
 11
-6.864775294780713
 21
380.1692436320936
 31
0.0
  0
LINE
  5
1D17
330
6F
100
AcDbEntity
  8
0
 62
     0
100
AcDbLine
 10
-6.864775294780713
 20
380.1692436320936
 30
0.0
 11
-6.039315294780749
 21
380.1692436320936
 31
0.0
  0
LINE
  5
1D18
330
6F
100
AcDbEntity
  8
0
 62
     0
100
AcDbLine
 10
-6.039315294780749
 20
380.1692436320936
 30
0.0
 11
-6.039315294780749
 21
373.8991436320937
 31
0.0
  0
LINE
  5
1D19
330
6F
100
AcDbEntity
  8
0
 62
     0
100
AcDbLine
 10
-6.039315294780749
 20
373.8991436320937
 30
0.0
 11
-4.315395294780728
 21
373.8991436320937
 31
0.0
  0
LINE
  5
1D1A
330
6F
100
AcDbEntity
  8
0
 62
     0
100
AcDbLine
 10
-4.315395294780728
 20
373.8991436320937
 30
0.0
 11
-4.315395294780728
 21
372.6988436320937
 31
0.0
  0
LINE
  5
1D1B
330
6F
100
AcDbEntity
  8
0
 62
     0
100
AcDbLine
 10
-4.315395294780728
 20
372.6988436320937
 30
0.0
 11
-1.014985294780728
 21
372.6988436320937
 31
0.0
  0
LINE
  5
1D1C
330
6F
100
AcDbEntity
  8
0
 62
     0
100
AcDbLine
 10
-1.014985294780728
 20
372.6988436320937
 30
0.0
 11
-1.014985294780728
 21
373.8991436320937
 31
0.0
  0
LINE
  5
1D1D
330
6F
100
AcDbEntity
  8
0
 62
     0
100
AcDbLine
 10
-1.014985294780728
 20
373.8991436320937
 30
0.0
 11
0.7103147052192753
 21
373.8991436320937
 31
0.0
  0
LINE
  5
1D1E
330
6F
100
AcDbEntity
  8
0
 62
     0
100
AcDbLine
 10
0.7103147052192753
 20
373.8991436320937
 30
0.0
 11
0.7103147052192753
 21
378.3694436320936
 31
0.0
  0
LINE
  5
1D1F
330
6F
100
AcDbEntity
  8
0
 62
     0
100
AcDbLine
 10
0.7103147052192753
 20
378.3694436320936
 30
0.0
 11
2.234414705219251
 21
378.3694436320936
 31
0.0
  0
LINE
  5
1D20
330
6F
100
AcDbEntity
  8
0
 62
     0
100
AcDbLine
 10
2.234414705219251
 20
378.3694436320936
 30
0.0
 11
2.234414705219251
 21
373.6690436320937
 31
0.0
  0
LINE
  5
1D21
330
6F
100
AcDbEntity
  8
0
 62
     0
100
AcDbLine
 10
2.234414705219251
 20
373.6690436320937
 30
0.0
 11
16.23531470521925
 21
373.6690436320937
 31
0.0
  0
LINE
  5
1D22
330
6F
100
AcDbEntity
  8
0
 62
     0
100
AcDbLine
 10
16.23531470521925
 20
373.6690436320937
 30
0.0
 11
16.23531470521925
 21
378.3694436320936
 31
0.0
  0
LINE
  5
1D23
330
6F
100
AcDbEntity
  8
0
 62
     0
100
AcDbLine
 10
16.23531470521925
 20
378.3694436320936
 30
0.0
 11
17.75941470521928
 21
378.3694436320936
 31
0.0
  0
LINE
  5
1D24
330
6F
100
AcDbEntity
  8
0
 62
     0
100
AcDbLine
 10
17.75941470521928
 20
378.3694436320936
 30
0.0
 11
17.75941470521928
 21
373.8991436320937
 31
0.0
  0
LINE
  5
1D25
330
6F
100
AcDbEntity
  8
0
 62
     0
100
AcDbLine
 10
17.75941470521928
 20
373.8991436320937
 30
0.0
 11
19.48471470521929
 21
373.8991436320937
 31
0.0
  0
LINE
  5
1D26
330
6F
100
AcDbEntity
  8
0
 62
     0
100
AcDbLine
 10
19.48471470521929
 20
373.8991436320937
 30
0.0
 11
19.48471470521929
 21
372.6988436320937
 31
0.0
  0
LINE
  5
1D27
330
6F
100
AcDbEntity
  8
0
 62
     0
100
AcDbLine
 10
19.48471470521929
 20
372.6988436320937
 30
0.0
 11
22.78511470521926
 21
372.6988436320937
 31
0.0
  0
LINE
  5
1D28
330
6F
100
AcDbEntity
  8
0
 62
     0
100
AcDbLine
 10
22.78511470521926
 20
372.6988436320937
 30
0.0
 11
22.78511470521926
 21
373.8991436320937
 31
0.0
  0
LINE
  5
1D29
330
6F
100
AcDbEntity
  8
0
 62
     0
100
AcDbLine
 10
22.78511470521926
 20
373.8991436320937
 30
0.0
 11
24.51031470521929
 21
373.8991436320937
 31
0.0
  0
LINE
  5
1D2A
330
6F
100
AcDbEntity
  8
0
 62
     0
100
AcDbLine
 10
24.51031470521929
 20
373.8991436320937
 30
0.0
 11
24.51031470521929
 21
380.1692436320936
 31
0.0
  0
LINE
  5
1D2B
330
6F
100
AcDbEntity
  8
0
 62
     0
100
AcDbLine
 10
24.51031470521929
 20
380.1692436320936
 30
0.0
 11
25.33441470521927
 21
380.1692436320936
 31
0.0
  0
LINE
  5
1D2C
330
6F
100
AcDbEntity
  8
0
 62
     0
100
AcDbLine
 10
25.33441470521927
 20
380.1692436320936
 30
0.0
 11
25.33441470521927
 21
382.9693436320937
 31
0.0
  0
LINE
  5
1D2D
330
6F
100
AcDbEntity
  8
0
 62
     0
100
AcDbLine
 10
25.33441470521927
 20
382.9693436320937
 30
0.0
 11
24.51031470521929
 21
382.9693436320937
 31
0.0
  0
LINE
  5
1D2E
330
6F
100
AcDbEntity
  8
0
 62
     0
100
AcDbLine
 10
24.51031470521929
 20
382.9693436320937
 30
0.0
 11
24.51031470521929
 21
386.1995436320937
 31
0.0
  0
LINE
  5
1D2F
330
6F
100
AcDbEntity
  8
0
 62
     0
100
AcDbLine
 10
24.51031470521929
 20
386.1995436320937
 30
0.0
 11
17.75941470521928
 21
386.1995436320937
 31
0.0
  0
LINE
  5
1D30
330
6F
100
AcDbEntity
  8
0
 62
     0
100
AcDbLine
 10
17.75941470521928
 20
386.1995436320937
 30
0.0
 11
17.75941470521928
 21
382.9693436320937
 31
0.0
  0
LINE
  5
1D31
330
6F
100
AcDbEntity
  8
0
 62
     0
100
AcDbLine
 10
17.75941470521928
 20
382.9693436320937
 30
0.0
 11
16.23531470521925
 21
382.9693436320937
 31
0.0
  0
LINE
  5
1D32
330
6F
100
AcDbEntity
  8
0
 62
     0
100
AcDbLine
 10
16.23531470521925
 20
382.9693436320937
 30
0.0
 11
16.23531470521925
 21
387.6683436320936
 31
0.0
  0
LINE
  5
1D33
330
6F
100
AcDbEntity
  8
0
 62
     0
100
AcDbLine
 10
16.23531470521925
 20
387.6683436320936
 30
0.0
 11
2.234414705219251
 21
387.6683436320936
 31
0.0
  0
LINE
  5
1D34
330
6F
100
AcDbEntity
  8
0
 62
     0
100
AcDbLine
 10
280.8405147052193
 20
387.6683436320936
 30
0.0
 11
294.8415147052192
 21
387.6683436320936
 31
0.0
  0
LINE
  5
1D35
330
6F
100
AcDbEntity
  8
0
 62
     0
100
AcDbLine
 10
294.8415147052192
 20
387.6683436320936
 30
0.0
 11
294.8415147052192
 21
373.6690436320937
 31
0.0
  0
LINE
  5
1D36
330
6F
100
AcDbEntity
  8
0
 62
     0
100
AcDbLine
 10
294.8415147052192
 20
373.6690436320937
 30
0.0
 11
280.8405147052193
 21
373.6690436320937
 31
0.0
  0
LINE
  5
1D37
330
6F
100
AcDbEntity
  8
0
 62
     0
100
AcDbLine
 10
280.8405147052193
 20
373.6690436320937
 30
0.0
 11
280.8405147052193
 21
387.6683436320936
 31
0.0
  0
LINE
  5
1D38
330
6F
100
AcDbEntity
  8
0
 62
     0
100
AcDbLine
 10
204.6405147052194
 20
387.6683436320936
 30
0.0
 11
218.6415147052193
 21
387.6683436320936
 31
0.0
  0
LINE
  5
1D39
330
6F
100
AcDbEntity
  8
0
 62
     0
100
AcDbLine
 10
218.6415147052193
 20
387.6683436320936
 30
0.0
 11
218.6415147052193
 21
373.6690436320937
 31
0.0
  0
LINE
  5
1D3A
330
6F
100
AcDbEntity
  8
0
 62
     0
100
AcDbLine
 10
218.6415147052193
 20
373.6690436320937
 30
0.0
 11
204.6405147052194
 21
373.6690436320937
 31
0.0
  0
LINE
  5
1D3B
330
6F
100
AcDbEntity
  8
0
 62
     0
100
AcDbLine
 10
204.6405147052194
 20
373.6690436320937
 30
0.0
 11
204.6405147052194
 21
387.6683436320936
 31
0.0
  0
LINE
  5
1D3C
330
6F
100
AcDbEntity
  8
0
 62
     0
100
AcDbLine
 10
185.5905147052192
 20
387.6683436320936
 30
0.0
 11
199.5915147052192
 21
387.6683436320936
 31
0.0
  0
LINE
  5
1D3D
330
6F
100
AcDbEntity
  8
0
 62
     0
100
AcDbLine
 10
199.5915147052192
 20
387.6683436320936
 30
0.0
 11
199.5915147052192
 21
373.6690436320937
 31
0.0
  0
LINE
  5
1D3E
330
6F
100
AcDbEntity
  8
0
 62
     0
100
AcDbLine
 10
199.5915147052192
 20
373.6690436320937
 30
0.0
 11
185.5905147052192
 21
373.6690436320937
 31
0.0
  0
LINE
  5
1D3F
330
6F
100
AcDbEntity
  8
0
 62
     0
100
AcDbLine
 10
185.5905147052192
 20
373.6690436320937
 30
0.0
 11
185.5905147052192
 21
387.6683436320936
 31
0.0
  0
LINE
  5
1D40
330
6F
100
AcDbEntity
  8
0
 62
     0
100
AcDbLine
 10
166.5405147052193
 20
387.6683436320936
 30
0.0
 11
180.5415147052193
 21
387.6683436320936
 31
0.0
  0
LINE
  5
1D41
330
6F
100
AcDbEntity
  8
0
 62
     0
100
AcDbLine
 10
180.5415147052193
 20
387.6683436320936
 30
0.0
 11
180.5415147052193
 21
373.6690436320937
 31
0.0
  0
LINE
  5
1D42
330
6F
100
AcDbEntity
  8
0
 62
     0
100
AcDbLine
 10
180.5415147052193
 20
373.6690436320937
 30
0.0
 11
166.5405147052193
 21
373.6690436320937
 31
0.0
  0
LINE
  5
1D43
330
6F
100
AcDbEntity
  8
0
 62
     0
100
AcDbLine
 10
166.5405147052193
 20
373.6690436320937
 30
0.0
 11
166.5405147052193
 21
387.6683436320936
 31
0.0
  0
LINE
  5
1D44
330
6F
100
AcDbEntity
  8
0
 62
     0
100
AcDbLine
 10
147.4905147052192
 20
387.6683436320936
 30
0.0
 11
161.4915147052192
 21
387.6683436320936
 31
0.0
  0
LINE
  5
1D45
330
6F
100
AcDbEntity
  8
0
 62
     0
100
AcDbLine
 10
161.4915147052192
 20
387.6683436320936
 30
0.0
 11
161.4915147052192
 21
373.6690436320937
 31
0.0
  0
LINE
  5
1D46
330
6F
100
AcDbEntity
  8
0
 62
     0
100
AcDbLine
 10
161.4915147052192
 20
373.6690436320937
 30
0.0
 11
147.4905147052192
 21
373.6690436320937
 31
0.0
  0
LINE
  5
1D47
330
6F
100
AcDbEntity
  8
0
 62
     0
100
AcDbLine
 10
147.4905147052192
 20
373.6690436320937
 30
0.0
 11
147.4905147052192
 21
387.6683436320936
 31
0.0
  0
LINE
  5
1D48
330
6F
100
AcDbEntity
  8
0
 62
     0
100
AcDbLine
 10
128.4405147052193
 20
387.6683436320936
 30
0.0
 11
142.4415147052193
 21
387.6683436320936
 31
0.0
  0
LINE
  5
1D49
330
6F
100
AcDbEntity
  8
0
 62
     0
100
AcDbLine
 10
142.4415147052193
 20
387.6683436320936
 30
0.0
 11
142.4415147052193
 21
373.6690436320937
 31
0.0
  0
LINE
  5
1D4A
330
6F
100
AcDbEntity
  8
0
 62
     0
100
AcDbLine
 10
142.4415147052193
 20
373.6690436320937
 30
0.0
 11
128.4405147052193
 21
373.6690436320937
 31
0.0
  0
LINE
  5
1D4B
330
6F
100
AcDbEntity
  8
0
 62
     0
100
AcDbLine
 10
128.4405147052193
 20
373.6690436320937
 30
0.0
 11
128.4405147052193
 21
387.6683436320936
 31
0.0
  0
LINE
  5
1D4C
330
6F
100
AcDbEntity
  8
0
 62
     0
100
AcDbLine
 10
109.3905147052193
 20
387.6683436320936
 30
0.0
 11
123.3915147052193
 21
387.6683436320936
 31
0.0
  0
LINE
  5
1D4D
330
6F
100
AcDbEntity
  8
0
 62
     0
100
AcDbLine
 10
123.3915147052193
 20
387.6683436320936
 30
0.0
 11
123.3915147052193
 21
373.6690436320937
 31
0.0
  0
LINE
  5
1D4E
330
6F
100
AcDbEntity
  8
0
 62
     0
100
AcDbLine
 10
123.3915147052193
 20
373.6690436320937
 30
0.0
 11
109.3905147052193
 21
373.6690436320937
 31
0.0
  0
LINE
  5
1D4F
330
6F
100
AcDbEntity
  8
0
 62
     0
100
AcDbLine
 10
109.3905147052193
 20
373.6690436320937
 30
0.0
 11
109.3905147052193
 21
387.6683436320936
 31
0.0
  0
LINE
  5
1D50
330
6F
100
AcDbEntity
  8
0
 62
     0
100
AcDbLine
 10
90.34051470521928
 20
387.6683436320936
 30
0.0
 11
104.3415147052192
 21
387.6683436320936
 31
0.0
  0
LINE
  5
1D51
330
6F
100
AcDbEntity
  8
0
 62
     0
100
AcDbLine
 10
104.3415147052192
 20
387.6683436320936
 30
0.0
 11
104.3415147052192
 21
373.6690436320937
 31
0.0
  0
LINE
  5
1D52
330
6F
100
AcDbEntity
  8
0
 62
     0
100
AcDbLine
 10
104.3415147052192
 20
373.6690436320937
 30
0.0
 11
90.34051470521928
 21
373.6690436320937
 31
0.0
  0
LINE
  5
1D53
330
6F
100
AcDbEntity
  8
0
 62
     0
100
AcDbLine
 10
90.34051470521928
 20
373.6690436320937
 30
0.0
 11
90.34051470521928
 21
387.6683436320936
 31
0.0
  0
LINE
  5
1D54
330
6F
100
AcDbEntity
  8
0
 62
     0
100
AcDbLine
 10
71.29071470521927
 20
387.6683436320936
 30
0.0
 11
85.29141470521926
 21
387.6683436320936
 31
0.0
  0
LINE
  5
1D55
330
6F
100
AcDbEntity
  8
0
 62
     0
100
AcDbLine
 10
85.29141470521926
 20
387.6683436320936
 30
0.0
 11
85.29141470521926
 21
373.6690436320937
 31
0.0
  0
LINE
  5
1D56
330
6F
100
AcDbEntity
  8
0
 62
     0
100
AcDbLine
 10
85.29141470521926
 20
373.6690436320937
 30
0.0
 11
71.29071470521927
 21
373.6690436320937
 31
0.0
  0
LINE
  5
1D57
330
6F
100
AcDbEntity
  8
0
 62
     0
100
AcDbLine
 10
71.29071470521927
 20
373.6690436320937
 30
0.0
 11
71.29071470521927
 21
387.6683436320936
 31
0.0
  0
LINE
  5
1D58
330
6F
100
AcDbEntity
  8
0
 62
     0
100
AcDbLine
 10
52.24071470521926
 20
387.6683436320936
 30
0.0
 11
66.24141470521926
 21
387.6683436320936
 31
0.0
  0
LINE
  5
1D59
330
6F
100
AcDbEntity
  8
0
 62
     0
100
AcDbLine
 10
66.24141470521926
 20
387.6683436320936
 30
0.0
 11
66.24141470521926
 21
373.6690436320937
 31
0.0
  0
LINE
  5
1D5A
330
6F
100
AcDbEntity
  8
0
 62
     0
100
AcDbLine
 10
66.24141470521926
 20
373.6690436320937
 30
0.0
 11
52.24071470521926
 21
373.6690436320937
 31
0.0
  0
LINE
  5
1D5B
330
6F
100
AcDbEntity
  8
0
 62
     0
100
AcDbLine
 10
52.24071470521926
 20
373.6690436320937
 30
0.0
 11
52.24071470521926
 21
387.6683436320936
 31
0.0
  0
LINE
  5
1D5C
330
6F
100
AcDbEntity
  8
0
 62
     0
100
AcDbLine
 10
33.19071470521925
 20
387.6683436320936
 30
0.0
 11
47.1914147052193
 21
387.6683436320936
 31
0.0
  0
LINE
  5
1D5D
330
6F
100
AcDbEntity
  8
0
 62
     0
100
AcDbLine
 10
47.1914147052193
 20
387.6683436320936
 30
0.0
 11
47.1914147052193
 21
373.6690436320937
 31
0.0
  0
LINE
  5
1D5E
330
6F
100
AcDbEntity
  8
0
 62
     0
100
AcDbLine
 10
47.1914147052193
 20
373.6690436320937
 30
0.0
 11
33.19071470521925
 21
373.6690436320937
 31
0.0
  0
LINE
  5
1D5F
330
6F
100
AcDbEntity
  8
0
 62
     0
100
AcDbLine
 10
33.19071470521925
 20
373.6690436320937
 30
0.0
 11
33.19071470521925
 21
387.6683436320936
 31
0.0
  0
LINE
  5
1D60
330
6F
100
AcDbEntity
  8
0
 62
     0
100
AcDbLine
 10
245.1215147052195
 20
406.7183436320936
 30
0.0
 11
245.1215147052195
 21
402.0193436320936
 31
0.0
  0
LINE
  5
1D61
330
6F
100
AcDbEntity
  8
0
 62
     0
100
AcDbLine
 10
245.1215147052195
 20
402.0193436320936
 30
0.0
 11
243.5965147052193
 21
402.0193436320936
 31
0.0
  0
LINE
  5
1D62
330
6F
100
AcDbEntity
  8
0
 62
     0
100
AcDbLine
 10
243.5965147052193
 20
402.0193436320936
 30
0.0
 11
243.5965147052193
 21
405.2494436320936
 31
0.0
  0
LINE
  5
1D63
330
6F
100
AcDbEntity
  8
0
 62
     0
100
AcDbLine
 10
243.5965147052193
 20
405.2494436320936
 30
0.0
 11
236.8465147052193
 21
405.2494436320936
 31
0.0
  0
LINE
  5
1D64
330
6F
100
AcDbEntity
  8
0
 62
     0
100
AcDbLine
 10
236.8465147052193
 20
405.2494436320936
 30
0.0
 11
236.8465147052193
 21
402.0193436320936
 31
0.0
  0
LINE
  5
1D65
330
6F
100
AcDbEntity
  8
0
 62
     0
100
AcDbLine
 10
236.8465147052193
 20
402.0193436320936
 30
0.0
 11
236.0215147052192
 21
402.0193436320936
 31
0.0
  0
LINE
  5
1D66
330
6F
100
AcDbEntity
  8
0
 62
     0
100
AcDbLine
 10
236.0215147052192
 20
402.0193436320936
 30
0.0
 11
236.0215147052192
 21
399.2193436320937
 31
0.0
  0
LINE
  5
1D67
330
6F
100
AcDbEntity
  8
0
 62
     0
100
AcDbLine
 10
236.0215147052192
 20
399.2193436320937
 30
0.0
 11
236.8465147052193
 21
399.2193436320937
 31
0.0
  0
LINE
  5
1D68
330
6F
100
AcDbEntity
  8
0
 62
     0
100
AcDbLine
 10
236.8465147052193
 20
399.2193436320937
 30
0.0
 11
236.8465147052193
 21
392.9505436320937
 31
0.0
  0
LINE
  5
1D69
330
6F
100
AcDbEntity
  8
0
 62
     0
100
AcDbLine
 10
236.8465147052193
 20
392.9505436320937
 30
0.0
 11
238.5715147052193
 21
392.9505436320937
 31
0.0
  0
LINE
  5
1D6A
330
6F
100
AcDbEntity
  8
0
 62
     0
100
AcDbLine
 10
238.5715147052193
 20
392.9505436320937
 30
0.0
 11
238.5715147052193
 21
391.7489436320936
 31
0.0
  0
LINE
  5
1D6B
330
6F
100
AcDbEntity
  8
0
 62
     0
100
AcDbLine
 10
238.5715147052193
 20
391.7489436320936
 30
0.0
 11
241.8715147052192
 21
391.7489436320936
 31
0.0
  0
LINE
  5
1D6C
330
6F
100
AcDbEntity
  8
0
 62
     0
100
AcDbLine
 10
241.8715147052192
 20
391.7489436320936
 30
0.0
 11
241.8715147052192
 21
392.9505436320937
 31
0.0
  0
LINE
  5
1D6D
330
6F
100
AcDbEntity
  8
0
 62
     0
100
AcDbLine
 10
241.8715147052192
 20
392.9505436320937
 30
0.0
 11
243.5965147052193
 21
392.9505436320937
 31
0.0
  0
LINE
  5
1D6E
330
6F
100
AcDbEntity
  8
0
 62
     0
100
AcDbLine
 10
243.5965147052193
 20
392.9505436320937
 30
0.0
 11
243.5965147052193
 21
397.4195436320937
 31
0.0
  0
LINE
  5
1D6F
330
6F
100
AcDbEntity
  8
0
 62
     0
100
AcDbLine
 10
243.5965147052193
 20
397.4195436320937
 30
0.0
 11
245.1215147052195
 21
397.4195436320937
 31
0.0
  0
LINE
  5
1D70
330
6F
100
AcDbEntity
  8
0
 62
     0
100
AcDbLine
 10
245.1215147052195
 20
397.4195436320937
 30
0.0
 11
245.1215147052195
 21
392.7191436320937
 31
0.0
  0
LINE
  5
1D71
330
6F
100
AcDbEntity
  8
0
 62
     0
100
AcDbLine
 10
245.1215147052195
 20
392.7191436320937
 30
0.0
 11
259.1215147052194
 21
392.7191436320937
 31
0.0
  0
LINE
  5
1D72
330
6F
100
AcDbEntity
  8
0
 62
     0
100
AcDbLine
 10
259.1215147052194
 20
392.7191436320937
 30
0.0
 11
259.1215147052194
 21
397.4195436320937
 31
0.0
  0
LINE
  5
1D73
330
6F
100
AcDbEntity
  8
0
 62
     0
100
AcDbLine
 10
259.1215147052194
 20
397.4195436320937
 30
0.0
 11
260.6475147052193
 21
397.4195436320937
 31
0.0
  0
LINE
  5
1D74
330
6F
100
AcDbEntity
  8
0
 62
     0
100
AcDbLine
 10
260.6475147052193
 20
397.4195436320937
 30
0.0
 11
260.6475147052193
 21
392.9505436320937
 31
0.0
  0
LINE
  5
1D75
330
6F
100
AcDbEntity
  8
0
 62
     0
100
AcDbLine
 10
260.6475147052193
 20
392.9505436320937
 30
0.0
 11
262.3725147052192
 21
392.9505436320937
 31
0.0
  0
LINE
  5
1D76
330
6F
100
AcDbEntity
  8
0
 62
     0
100
AcDbLine
 10
262.3725147052192
 20
392.9505436320937
 30
0.0
 11
262.3725147052192
 21
391.7489436320936
 31
0.0
  0
LINE
  5
1D77
330
6F
100
AcDbEntity
  8
0
 62
     0
100
AcDbLine
 10
262.3725147052192
 20
391.7489436320936
 30
0.0
 11
265.6725147052193
 21
391.7489436320936
 31
0.0
  0
LINE
  5
1D78
330
6F
100
AcDbEntity
  8
0
 62
     0
100
AcDbLine
 10
265.6725147052193
 20
391.7489436320936
 30
0.0
 11
265.6725147052193
 21
392.9505436320937
 31
0.0
  0
LINE
  5
1D79
330
6F
100
AcDbEntity
  8
0
 62
     0
100
AcDbLine
 10
265.6725147052193
 20
392.9505436320937
 30
0.0
 11
267.3965147052192
 21
392.9505436320937
 31
0.0
  0
LINE
  5
1D7A
330
6F
100
AcDbEntity
  8
0
 62
     0
100
AcDbLine
 10
267.3965147052192
 20
392.9505436320937
 30
0.0
 11
267.3965147052192
 21
399.2193436320937
 31
0.0
  0
LINE
  5
1D7B
330
6F
100
AcDbEntity
  8
0
 62
     0
100
AcDbLine
 10
267.3965147052192
 20
399.2193436320937
 30
0.0
 11
268.2215147052194
 21
399.2193436320937
 31
0.0
  0
LINE
  5
1D7C
330
6F
100
AcDbEntity
  8
0
 62
     0
100
AcDbLine
 10
268.2215147052194
 20
399.2193436320937
 30
0.0
 11
268.2215147052194
 21
402.0193436320936
 31
0.0
  0
LINE
  5
1D7D
330
6F
100
AcDbEntity
  8
0
 62
     0
100
AcDbLine
 10
268.2215147052194
 20
402.0193436320936
 30
0.0
 11
267.3965147052192
 21
402.0193436320936
 31
0.0
  0
LINE
  5
1D7E
330
6F
100
AcDbEntity
  8
0
 62
     0
100
AcDbLine
 10
267.3965147052192
 20
402.0193436320936
 30
0.0
 11
267.3965147052192
 21
405.2494436320936
 31
0.0
  0
LINE
  5
1D7F
330
6F
100
AcDbEntity
  8
0
 62
     0
100
AcDbLine
 10
267.3965147052192
 20
405.2494436320936
 30
0.0
 11
260.6475147052193
 21
405.2494436320936
 31
0.0
  0
LINE
  5
1D80
330
6F
100
AcDbEntity
  8
0
 62
     0
100
AcDbLine
 10
260.6475147052193
 20
405.2494436320936
 30
0.0
 11
260.6475147052193
 21
402.0193436320936
 31
0.0
  0
LINE
  5
1D81
330
6F
100
AcDbEntity
  8
0
 62
     0
100
AcDbLine
 10
260.6475147052193
 20
402.0193436320936
 30
0.0
 11
259.1215147052194
 21
402.0193436320936
 31
0.0
  0
LINE
  5
1D82
330
6F
100
AcDbEntity
  8
0
 62
     0
100
AcDbLine
 10
259.1215147052194
 20
402.0193436320936
 30
0.0
 11
259.1215147052194
 21
406.7183436320936
 31
0.0
  0
LINE
  5
1D83
330
6F
100
AcDbEntity
  8
0
 62
     0
100
AcDbLine
 10
259.1215147052194
 20
406.7183436320936
 30
0.0
 11
245.1215147052195
 21
406.7183436320936
 31
0.0
  0
LINE
  5
1D84
330
6F
100
AcDbEntity
  8
0
 62
     0
100
AcDbLine
 10
214.1655147052192
 20
406.7183436320936
 30
0.0
 11
228.1665147052193
 21
406.7183436320936
 31
0.0
  0
LINE
  5
1D85
330
6F
100
AcDbEntity
  8
0
 62
     0
100
AcDbLine
 10
228.1665147052193
 20
406.7183436320936
 30
0.0
 11
228.1665147052193
 21
392.7191436320937
 31
0.0
  0
LINE
  5
1D86
330
6F
100
AcDbEntity
  8
0
 62
     0
100
AcDbLine
 10
228.1665147052193
 20
392.7191436320937
 30
0.0
 11
214.1655147052192
 21
392.7191436320937
 31
0.0
  0
LINE
  5
1D87
330
6F
100
AcDbEntity
  8
0
 62
     0
100
AcDbLine
 10
214.1655147052192
 20
392.7191436320937
 30
0.0
 11
214.1655147052192
 21
406.7183436320936
 31
0.0
  0
LINE
  5
1D88
330
6F
100
AcDbEntity
  8
0
 62
     0
100
AcDbLine
 10
195.1155147052192
 20
406.7183436320936
 30
0.0
 11
209.1165147052192
 21
406.7183436320936
 31
0.0
  0
LINE
  5
1D89
330
6F
100
AcDbEntity
  8
0
 62
     0
100
AcDbLine
 10
209.1165147052192
 20
406.7183436320936
 30
0.0
 11
209.1165147052192
 21
392.7191436320937
 31
0.0
  0
LINE
  5
1D8A
330
6F
100
AcDbEntity
  8
0
 62
     0
100
AcDbLine
 10
209.1165147052192
 20
392.7191436320937
 30
0.0
 11
195.1155147052192
 21
392.7191436320937
 31
0.0
  0
LINE
  5
1D8B
330
6F
100
AcDbEntity
  8
0
 62
     0
100
AcDbLine
 10
195.1155147052192
 20
392.7191436320937
 30
0.0
 11
195.1155147052192
 21
406.7183436320936
 31
0.0
  0
LINE
  5
1D8C
330
6F
100
AcDbEntity
  8
0
 62
     0
100
AcDbLine
 10
176.0655147052193
 20
406.7183436320936
 30
0.0
 11
190.0665147052192
 21
406.7183436320936
 31
0.0
  0
LINE
  5
1D8D
330
6F
100
AcDbEntity
  8
0
 62
     0
100
AcDbLine
 10
190.0665147052192
 20
406.7183436320936
 30
0.0
 11
190.0665147052192
 21
392.7191436320937
 31
0.0
  0
LINE
  5
1D8E
330
6F
100
AcDbEntity
  8
0
 62
     0
100
AcDbLine
 10
190.0665147052192
 20
392.7191436320937
 30
0.0
 11
176.0655147052193
 21
392.7191436320937
 31
0.0
  0
LINE
  5
1D8F
330
6F
100
AcDbEntity
  8
0
 62
     0
100
AcDbLine
 10
176.0655147052193
 20
392.7191436320937
 30
0.0
 11
176.0655147052193
 21
406.7183436320936
 31
0.0
  0
LINE
  5
1D90
330
6F
100
AcDbEntity
  8
0
 62
     0
100
AcDbLine
 10
157.0155147052193
 20
406.7183436320936
 30
0.0
 11
171.0165147052193
 21
406.7183436320936
 31
0.0
  0
LINE
  5
1D91
330
6F
100
AcDbEntity
  8
0
 62
     0
100
AcDbLine
 10
171.0165147052193
 20
406.7183436320936
 30
0.0
 11
171.0165147052193
 21
392.7191436320937
 31
0.0
  0
LINE
  5
1D92
330
6F
100
AcDbEntity
  8
0
 62
     0
100
AcDbLine
 10
171.0165147052193
 20
392.7191436320937
 30
0.0
 11
157.0155147052193
 21
392.7191436320937
 31
0.0
  0
LINE
  5
1D93
330
6F
100
AcDbEntity
  8
0
 62
     0
100
AcDbLine
 10
157.0155147052193
 20
392.7191436320937
 30
0.0
 11
157.0155147052193
 21
406.7183436320936
 31
0.0
  0
LINE
  5
1D94
330
6F
100
AcDbEntity
  8
0
 62
     0
100
AcDbLine
 10
137.9655147052192
 20
406.7183436320936
 30
0.0
 11
151.9665147052193
 21
406.7183436320936
 31
0.0
  0
LINE
  5
1D95
330
6F
100
AcDbEntity
  8
0
 62
     0
100
AcDbLine
 10
151.9665147052193
 20
406.7183436320936
 30
0.0
 11
151.9665147052193
 21
392.7191436320937
 31
0.0
  0
LINE
  5
1D96
330
6F
100
AcDbEntity
  8
0
 62
     0
100
AcDbLine
 10
151.9665147052193
 20
392.7191436320937
 30
0.0
 11
137.9655147052192
 21
392.7191436320937
 31
0.0
  0
LINE
  5
1D97
330
6F
100
AcDbEntity
  8
0
 62
     0
100
AcDbLine
 10
137.9655147052192
 20
392.7191436320937
 30
0.0
 11
137.9655147052192
 21
406.7183436320936
 31
0.0
  0
LINE
  5
1D98
330
6F
100
AcDbEntity
  8
0
 62
     0
100
AcDbLine
 10
118.9155147052192
 20
406.7183436320936
 30
0.0
 11
132.9165147052193
 21
406.7183436320936
 31
0.0
  0
LINE
  5
1D99
330
6F
100
AcDbEntity
  8
0
 62
     0
100
AcDbLine
 10
132.9165147052193
 20
406.7183436320936
 30
0.0
 11
132.9165147052193
 21
392.7191436320937
 31
0.0
  0
LINE
  5
1D9A
330
6F
100
AcDbEntity
  8
0
 62
     0
100
AcDbLine
 10
132.9165147052193
 20
392.7191436320937
 30
0.0
 11
118.9155147052192
 21
392.7191436320937
 31
0.0
  0
LINE
  5
1D9B
330
6F
100
AcDbEntity
  8
0
 62
     0
100
AcDbLine
 10
118.9155147052192
 20
392.7191436320937
 30
0.0
 11
118.9155147052192
 21
406.7183436320936
 31
0.0
  0
LINE
  5
1D9C
330
6F
100
AcDbEntity
  8
0
 62
     0
100
AcDbLine
 10
99.8655147052192
 20
406.7183436320936
 30
0.0
 11
113.8665147052192
 21
406.7183436320936
 31
0.0
  0
LINE
  5
1D9D
330
6F
100
AcDbEntity
  8
0
 62
     0
100
AcDbLine
 10
113.8665147052192
 20
406.7183436320936
 30
0.0
 11
113.8665147052192
 21
392.7191436320937
 31
0.0
  0
LINE
  5
1D9E
330
6F
100
AcDbEntity
  8
0
 62
     0
100
AcDbLine
 10
113.8665147052192
 20
392.7191436320937
 30
0.0
 11
99.8655147052192
 21
392.7191436320937
 31
0.0
  0
LINE
  5
1D9F
330
6F
100
AcDbEntity
  8
0
 62
     0
100
AcDbLine
 10
99.8655147052192
 20
392.7191436320937
 30
0.0
 11
99.8655147052192
 21
406.7183436320936
 31
0.0
  0
LINE
  5
1DA0
330
6F
100
AcDbEntity
  8
0
 62
     0
100
AcDbLine
 10
80.81571470521925
 20
406.7183436320936
 30
0.0
 11
94.81651470521928
 21
406.7183436320936
 31
0.0
  0
LINE
  5
1DA1
330
6F
100
AcDbEntity
  8
0
 62
     0
100
AcDbLine
 10
94.81651470521928
 20
406.7183436320936
 30
0.0
 11
94.81651470521928
 21
392.7191436320937
 31
0.0
  0
LINE
  5
1DA2
330
6F
100
AcDbEntity
  8
0
 62
     0
100
AcDbLine
 10
94.81651470521928
 20
392.7191436320937
 30
0.0
 11
80.81571470521925
 21
392.7191436320937
 31
0.0
  0
LINE
  5
1DA3
330
6F
100
AcDbEntity
  8
0
 62
     0
100
AcDbLine
 10
80.81571470521925
 20
392.7191436320937
 30
0.0
 11
80.81571470521925
 21
406.7183436320936
 31
0.0
  0
LINE
  5
1DA4
330
6F
100
AcDbEntity
  8
0
 62
     0
100
AcDbLine
 10
61.76571470521929
 20
406.7183436320936
 30
0.0
 11
75.76641470521929
 21
406.7183436320936
 31
0.0
  0
LINE
  5
1DA5
330
6F
100
AcDbEntity
  8
0
 62
     0
100
AcDbLine
 10
75.76641470521929
 20
406.7183436320936
 30
0.0
 11
75.76641470521929
 21
392.7191436320937
 31
0.0
  0
LINE
  5
1DA6
330
6F
100
AcDbEntity
  8
0
 62
     0
100
AcDbLine
 10
75.76641470521929
 20
392.7191436320937
 30
0.0
 11
61.76571470521929
 21
392.7191436320937
 31
0.0
  0
LINE
  5
1DA7
330
6F
100
AcDbEntity
  8
0
 62
     0
100
AcDbLine
 10
61.76571470521929
 20
392.7191436320937
 30
0.0
 11
61.76571470521929
 21
406.7183436320936
 31
0.0
  0
LINE
  5
1DA8
330
6F
100
AcDbEntity
  8
0
 62
     0
100
AcDbLine
 10
42.71571470521928
 20
406.7183436320936
 30
0.0
 11
56.71641470521928
 21
406.7183436320936
 31
0.0
  0
LINE
  5
1DA9
330
6F
100
AcDbEntity
  8
0
 62
     0
100
AcDbLine
 10
56.71641470521928
 20
406.7183436320936
 30
0.0
 11
56.71641470521928
 21
392.7191436320937
 31
0.0
  0
LINE
  5
1DAA
330
6F
100
AcDbEntity
  8
0
 62
     0
100
AcDbLine
 10
56.71641470521928
 20
392.7191436320937
 30
0.0
 11
42.71571470521928
 21
392.7191436320937
 31
0.0
  0
LINE
  5
1DAB
330
6F
100
AcDbEntity
  8
0
 62
     0
100
AcDbLine
 10
42.71571470521928
 20
392.7191436320937
 30
0.0
 11
42.71571470521928
 21
406.7183436320936
 31
0.0
  0
LINE
  5
1DAC
330
6F
100
AcDbEntity
  8
0
 62
     0
100
AcDbLine
 10
23.66571470521927
 20
406.7183436320936
 30
0.0
 11
37.66641470521927
 21
406.7183436320936
 31
0.0
  0
LINE
  5
1DAD
330
6F
100
AcDbEntity
  8
0
 62
     0
100
AcDbLine
 10
37.66641470521927
 20
406.7183436320936
 30
0.0
 11
37.66641470521927
 21
392.7191436320937
 31
0.0
  0
LINE
  5
1DAE
330
6F
100
AcDbEntity
  8
0
 62
     0
100
AcDbLine
 10
37.66641470521927
 20
392.7191436320937
 30
0.0
 11
23.66571470521927
 21
392.7191436320937
 31
0.0
  0
LINE
  5
1DAF
330
6F
100
AcDbEntity
  8
0
 62
     0
100
AcDbLine
 10
23.66571470521927
 20
392.7191436320937
 30
0.0
 11
23.66571470521927
 21
406.7183436320936
 31
0.0
  0
LINE
  5
1DB0
330
6F
100
AcDbEntity
  8
0
 62
     0
100
AcDbLine
 10
-2.528075294780705
 20
406.7183436320936
 30
0.0
 11
11.47141470521927
 21
406.7183436320936
 31
0.0
  0
LINE
  5
1DB1
330
6F
100
AcDbEntity
  8
0
 62
     0
100
AcDbLine
 10
11.47141470521927
 20
406.7183436320936
 30
0.0
 11
11.47141470521927
 21
392.7191436320937
 31
0.0
  0
LINE
  5
1DB2
330
6F
100
AcDbEntity
  8
0
 62
     0
100
AcDbLine
 10
11.47141470521927
 20
392.7191436320937
 30
0.0
 11
-2.528075294780705
 21
392.7191436320937
 31
0.0
  0
LINE
  5
1DB3
330
6F
100
AcDbEntity
  8
0
 62
     0
100
AcDbLine
 10
-2.528075294780705
 20
392.7191436320937
 30
0.0
 11
-2.528075294780705
 21
406.7183436320936
 31
0.0
  0
LINE
  5
1DB4
330
6F
100
AcDbEntity
  8
0
 62
     0
100
AcDbLine
 10
299.8905147052195
 20
425.7683436320936
 30
0.0
 11
313.8915147052194
 21
425.7683436320936
 31
0.0
  0
LINE
  5
1DB5
330
6F
100
AcDbEntity
  8
0
 62
     0
100
AcDbLine
 10
313.8915147052194
 20
425.7683436320936
 30
0.0
 11
313.8915147052194
 21
411.7691436320937
 31
0.0
  0
LINE
  5
1DB6
330
6F
100
AcDbEntity
  8
0
 62
     0
100
AcDbLine
 10
313.8915147052194
 20
411.7691436320937
 30
0.0
 11
299.8905147052195
 21
411.7691436320937
 31
0.0
  0
LINE
  5
1DB7
330
6F
100
AcDbEntity
  8
0
 62
     0
100
AcDbLine
 10
299.8905147052195
 20
411.7691436320937
 30
0.0
 11
299.8905147052195
 21
425.7683436320936
 31
0.0
  0
LINE
  5
1DB8
330
6F
100
AcDbEntity
  8
0
 62
     0
100
AcDbLine
 10
280.8405147052193
 20
425.7683436320936
 30
0.0
 11
294.8415147052192
 21
425.7683436320936
 31
0.0
  0
LINE
  5
1DB9
330
6F
100
AcDbEntity
  8
0
 62
     0
100
AcDbLine
 10
294.8415147052192
 20
425.7683436320936
 30
0.0
 11
294.8415147052192
 21
411.7691436320937
 31
0.0
  0
LINE
  5
1DBA
330
6F
100
AcDbEntity
  8
0
 62
     0
100
AcDbLine
 10
294.8415147052192
 20
411.7691436320937
 30
0.0
 11
280.8405147052193
 21
411.7691436320937
 31
0.0
  0
LINE
  5
1DBB
330
6F
100
AcDbEntity
  8
0
 62
     0
100
AcDbLine
 10
280.8405147052193
 20
411.7691436320937
 30
0.0
 11
280.8405147052193
 21
425.7683436320936
 31
0.0
  0
LINE
  5
1DBC
330
6F
100
AcDbEntity
  8
0
 62
     0
100
AcDbLine
 10
252.2655147052192
 20
425.7683436320936
 30
0.0
 11
266.2665147052192
 21
425.7683436320936
 31
0.0
  0
LINE
  5
1DBD
330
6F
100
AcDbEntity
  8
0
 62
     0
100
AcDbLine
 10
266.2665147052192
 20
425.7683436320936
 30
0.0
 11
266.2665147052192
 21
411.7691436320937
 31
0.0
  0
LINE
  5
1DBE
330
6F
100
AcDbEntity
  8
0
 62
     0
100
AcDbLine
 10
266.2665147052192
 20
411.7691436320937
 30
0.0
 11
252.2655147052192
 21
411.7691436320937
 31
0.0
  0
LINE
  5
1DBF
330
6F
100
AcDbEntity
  8
0
 62
     0
100
AcDbLine
 10
252.2655147052192
 20
411.7691436320937
 30
0.0
 11
252.2655147052192
 21
425.7683436320936
 31
0.0
  0
LINE
  5
1DC0
330
6F
100
AcDbEntity
  8
0
 62
     0
100
AcDbLine
 10
228.4545147052192
 20
425.7683436320936
 30
0.0
 11
242.4525147052194
 21
425.7683436320936
 31
0.0
  0
LINE
  5
1DC1
330
6F
100
AcDbEntity
  8
0
 62
     0
100
AcDbLine
 10
242.4525147052194
 20
425.7683436320936
 30
0.0
 11
242.4525147052194
 21
411.7691436320937
 31
0.0
  0
LINE
  5
1DC2
330
6F
100
AcDbEntity
  8
0
 62
     0
100
AcDbLine
 10
242.4525147052194
 20
411.7691436320937
 30
0.0
 11
228.4545147052192
 21
411.7691436320937
 31
0.0
  0
LINE
  5
1DC3
330
6F
100
AcDbEntity
  8
0
 62
     0
100
AcDbLine
 10
228.4545147052192
 20
411.7691436320937
 30
0.0
 11
228.4545147052192
 21
425.7683436320936
 31
0.0
  0
LINE
  5
1DC4
330
6F
100
AcDbEntity
  8
0
 62
     0
100
AcDbLine
 10
209.4045147052193
 20
425.7683436320936
 30
0.0
 11
223.4035147052193
 21
425.7683436320936
 31
0.0
  0
LINE
  5
1DC5
330
6F
100
AcDbEntity
  8
0
 62
     0
100
AcDbLine
 10
223.4035147052193
 20
425.7683436320936
 30
0.0
 11
223.4035147052193
 21
411.7691436320937
 31
0.0
  0
LINE
  5
1DC6
330
6F
100
AcDbEntity
  8
0
 62
     0
100
AcDbLine
 10
223.4035147052193
 20
411.7691436320937
 30
0.0
 11
209.4045147052193
 21
411.7691436320937
 31
0.0
  0
LINE
  5
1DC7
330
6F
100
AcDbEntity
  8
0
 62
     0
100
AcDbLine
 10
209.4045147052193
 20
411.7691436320937
 30
0.0
 11
209.4045147052193
 21
425.7683436320936
 31
0.0
  0
LINE
  5
1DC8
330
6F
100
AcDbEntity
  8
0
 62
     0
100
AcDbLine
 10
190.3545147052193
 20
425.7683436320936
 30
0.0
 11
204.3535147052193
 21
425.7683436320936
 31
0.0
  0
LINE
  5
1DC9
330
6F
100
AcDbEntity
  8
0
 62
     0
100
AcDbLine
 10
204.3535147052193
 20
425.7683436320936
 30
0.0
 11
204.3535147052193
 21
411.7691436320937
 31
0.0
  0
LINE
  5
1DCA
330
6F
100
AcDbEntity
  8
0
 62
     0
100
AcDbLine
 10
204.3535147052193
 20
411.7691436320937
 30
0.0
 11
190.3545147052193
 21
411.7691436320937
 31
0.0
  0
LINE
  5
1DCB
330
6F
100
AcDbEntity
  8
0
 62
     0
100
AcDbLine
 10
190.3545147052193
 20
411.7691436320937
 30
0.0
 11
190.3545147052193
 21
425.7683436320936
 31
0.0
  0
LINE
  5
1DCC
330
6F
100
AcDbEntity
  8
0
 62
     0
100
AcDbLine
 10
171.3045147052192
 20
425.7683436320936
 30
0.0
 11
185.3035147052192
 21
425.7683436320936
 31
0.0
  0
LINE
  5
1DCD
330
6F
100
AcDbEntity
  8
0
 62
     0
100
AcDbLine
 10
185.3035147052192
 20
425.7683436320936
 30
0.0
 11
185.3035147052192
 21
411.7691436320937
 31
0.0
  0
LINE
  5
1DCE
330
6F
100
AcDbEntity
  8
0
 62
     0
100
AcDbLine
 10
185.3035147052192
 20
411.7691436320937
 30
0.0
 11
171.3045147052192
 21
411.7691436320937
 31
0.0
  0
LINE
  5
1DCF
330
6F
100
AcDbEntity
  8
0
 62
     0
100
AcDbLine
 10
171.3045147052192
 20
411.7691436320937
 30
0.0
 11
171.3045147052192
 21
425.7683436320936
 31
0.0
  0
LINE
  5
1DD0
330
6F
100
AcDbEntity
  8
0
 62
     0
100
AcDbLine
 10
152.2545147052192
 20
425.7683436320936
 30
0.0
 11
166.2535147052193
 21
425.7683436320936
 31
0.0
  0
LINE
  5
1DD1
330
6F
100
AcDbEntity
  8
0
 62
     0
100
AcDbLine
 10
166.2535147052193
 20
425.7683436320936
 30
0.0
 11
166.2535147052193
 21
411.7691436320937
 31
0.0
  0
LINE
  5
1DD2
330
6F
100
AcDbEntity
  8
0
 62
     0
100
AcDbLine
 10
166.2535147052193
 20
411.7691436320937
 30
0.0
 11
152.2545147052192
 21
411.7691436320937
 31
0.0
  0
LINE
  5
1DD3
330
6F
100
AcDbEntity
  8
0
 62
     0
100
AcDbLine
 10
152.2545147052192
 20
411.7691436320937
 30
0.0
 11
152.2545147052192
 21
425.7683436320936
 31
0.0
  0
LINE
  5
1DD4
330
6F
100
AcDbEntity
  8
0
 62
     0
100
AcDbLine
 10
133.2045147052193
 20
425.7683436320936
 30
0.0
 11
147.2035147052193
 21
425.7683436320936
 31
0.0
  0
LINE
  5
1DD5
330
6F
100
AcDbEntity
  8
0
 62
     0
100
AcDbLine
 10
147.2035147052193
 20
425.7683436320936
 30
0.0
 11
147.2035147052193
 21
411.7691436320937
 31
0.0
  0
LINE
  5
1DD6
330
6F
100
AcDbEntity
  8
0
 62
     0
100
AcDbLine
 10
147.2035147052193
 20
411.7691436320937
 30
0.0
 11
133.2045147052193
 21
411.7691436320937
 31
0.0
  0
LINE
  5
1DD7
330
6F
100
AcDbEntity
  8
0
 62
     0
100
AcDbLine
 10
133.2045147052193
 20
411.7691436320937
 30
0.0
 11
133.2045147052193
 21
425.7683436320936
 31
0.0
  0
LINE
  5
1DD8
330
6F
100
AcDbEntity
  8
0
 62
     0
100
AcDbLine
 10
114.1545147052192
 20
425.7683436320936
 30
0.0
 11
128.1535147052192
 21
425.7683436320936
 31
0.0
  0
LINE
  5
1DD9
330
6F
100
AcDbEntity
  8
0
 62
     0
100
AcDbLine
 10
128.1535147052192
 20
425.7683436320936
 30
0.0
 11
128.1535147052192
 21
411.7691436320937
 31
0.0
  0
LINE
  5
1DDA
330
6F
100
AcDbEntity
  8
0
 62
     0
100
AcDbLine
 10
128.1535147052192
 20
411.7691436320937
 30
0.0
 11
114.1545147052192
 21
411.7691436320937
 31
0.0
  0
LINE
  5
1DDB
330
6F
100
AcDbEntity
  8
0
 62
     0
100
AcDbLine
 10
114.1545147052192
 20
411.7691436320937
 30
0.0
 11
114.1545147052192
 21
425.7683436320936
 31
0.0
  0
LINE
  5
1DDC
330
6F
100
AcDbEntity
  8
0
 62
     0
100
AcDbLine
 10
95.10451470521928
 20
425.7683436320936
 30
0.0
 11
109.1035147052192
 21
425.7683436320936
 31
0.0
  0
LINE
  5
1DDD
330
6F
100
AcDbEntity
  8
0
 62
     0
100
AcDbLine
 10
109.1035147052192
 20
425.7683436320936
 30
0.0
 11
109.1035147052192
 21
411.7691436320937
 31
0.0
  0
LINE
  5
1DDE
330
6F
100
AcDbEntity
  8
0
 62
     0
100
AcDbLine
 10
109.1035147052192
 20
411.7691436320937
 30
0.0
 11
95.10451470521928
 21
411.7691436320937
 31
0.0
  0
LINE
  5
1DDF
330
6F
100
AcDbEntity
  8
0
 62
     0
100
AcDbLine
 10
95.10451470521928
 20
411.7691436320937
 30
0.0
 11
95.10451470521928
 21
425.7683436320936
 31
0.0
  0
LINE
  5
1DE0
330
6F
100
AcDbEntity
  8
0
 62
     0
100
AcDbLine
 10
76.0546147052193
 20
425.7683436320936
 30
0.0
 11
90.05351470521924
 21
425.7683436320936
 31
0.0
  0
LINE
  5
1DE1
330
6F
100
AcDbEntity
  8
0
 62
     0
100
AcDbLine
 10
90.05351470521924
 20
425.7683436320936
 30
0.0
 11
90.05351470521924
 21
411.7691436320937
 31
0.0
  0
LINE
  5
1DE2
330
6F
100
AcDbEntity
  8
0
 62
     0
100
AcDbLine
 10
90.05351470521924
 20
411.7691436320937
 30
0.0
 11
76.0546147052193
 21
411.7691436320937
 31
0.0
  0
LINE
  5
1DE3
330
6F
100
AcDbEntity
  8
0
 62
     0
100
AcDbLine
 10
76.0546147052193
 20
411.7691436320937
 30
0.0
 11
76.0546147052193
 21
425.7683436320936
 31
0.0
  0
LINE
  5
1DE4
330
6F
100
AcDbEntity
  8
0
 62
     0
100
AcDbLine
 10
57.00461470521924
 20
425.7683436320936
 30
0.0
 11
71.0039147052193
 21
425.7683436320936
 31
0.0
  0
LINE
  5
1DE5
330
6F
100
AcDbEntity
  8
0
 62
     0
100
AcDbLine
 10
71.0039147052193
 20
425.7683436320936
 30
0.0
 11
71.0039147052193
 21
411.7691436320937
 31
0.0
  0
LINE
  5
1DE6
330
6F
100
AcDbEntity
  8
0
 62
     0
100
AcDbLine
 10
71.0039147052193
 20
411.7691436320937
 30
0.0
 11
57.00461470521924
 21
411.7691436320937
 31
0.0
  0
LINE
  5
1DE7
330
6F
100
AcDbEntity
  8
0
 62
     0
100
AcDbLine
 10
57.00461470521924
 20
411.7691436320937
 30
0.0
 11
57.00461470521924
 21
425.7683436320936
 31
0.0
  0
LINE
  5
1DE8
330
6F
100
AcDbEntity
  8
0
 62
     0
100
AcDbLine
 10
37.95461470521928
 20
425.7683436320936
 30
0.0
 11
51.95391470521929
 21
425.7683436320936
 31
0.0
  0
LINE
  5
1DE9
330
6F
100
AcDbEntity
  8
0
 62
     0
100
AcDbLine
 10
51.95391470521929
 20
425.7683436320936
 30
0.0
 11
51.95391470521929
 21
411.7691436320937
 31
0.0
  0
LINE
  5
1DEA
330
6F
100
AcDbEntity
  8
0
 62
     0
100
AcDbLine
 10
51.95391470521929
 20
411.7691436320937
 30
0.0
 11
37.95461470521928
 21
411.7691436320937
 31
0.0
  0
LINE
  5
1DEB
330
6F
100
AcDbEntity
  8
0
 62
     0
100
AcDbLine
 10
37.95461470521928
 20
411.7691436320937
 30
0.0
 11
37.95461470521928
 21
425.7683436320936
 31
0.0
  0
LINE
  5
1DEC
330
6F
100
AcDbEntity
  8
0
 62
     0
100
AcDbLine
 10
18.90451470521924
 20
425.7683436320936
 30
0.0
 11
32.90391470521928
 21
425.7683436320936
 31
0.0
  0
LINE
  5
1DED
330
6F
100
AcDbEntity
  8
0
 62
     0
100
AcDbLine
 10
32.90391470521928
 20
425.7683436320936
 30
0.0
 11
32.90391470521928
 21
411.7691436320937
 31
0.0
  0
LINE
  5
1DEE
330
6F
100
AcDbEntity
  8
0
 62
     0
100
AcDbLine
 10
32.90391470521928
 20
411.7691436320937
 30
0.0
 11
18.90451470521924
 21
411.7691436320937
 31
0.0
  0
LINE
  5
1DEF
330
6F
100
AcDbEntity
  8
0
 62
     0
100
AcDbLine
 10
18.90451470521924
 20
411.7691436320937
 30
0.0
 11
18.90451470521924
 21
425.7683436320936
 31
0.0
  0
LINE
  5
1DF0
330
6F
100
AcDbEntity
  8
0
 62
     0
100
AcDbLine
 10
-4.909325294780728
 20
425.7683436320936
 30
0.0
 11
9.091514705219253
 21
425.7683436320936
 31
0.0
  0
LINE
  5
1DF1
330
6F
100
AcDbEntity
  8
0
 62
     0
100
AcDbLine
 10
9.091514705219253
 20
425.7683436320936
 30
0.0
 11
9.091514705219253
 21
411.7691436320937
 31
0.0
  0
LINE
  5
1DF2
330
6F
100
AcDbEntity
  8
0
 62
     0
100
AcDbLine
 10
9.091514705219253
 20
411.7691436320937
 30
0.0
 11
-4.909325294780728
 21
411.7691436320937
 31
0.0
  0
LINE
  5
1DF3
330
6F
100
AcDbEntity
  8
0
 62
     0
100
AcDbLine
 10
-4.909325294780728
 20
411.7691436320937
 30
0.0
 11
-4.909325294780728
 21
425.7683436320936
 31
0.0
  0
LINE
  5
1DF4
330
6F
100
AcDbEntity
  8
0
 62
     0
100
AcDbLine
 10
247.5045147052193
 20
444.8183436320936
 30
0.0
 11
247.5045147052193
 21
440.1193436320936
 31
0.0
  0
LINE
  5
1DF5
330
6F
100
AcDbEntity
  8
0
 62
     0
100
AcDbLine
 10
247.5045147052193
 20
440.1193436320936
 30
0.0
 11
245.9785147052193
 21
440.1193436320936
 31
0.0
  0
LINE
  5
1DF6
330
6F
100
AcDbEntity
  8
0
 62
     0
100
AcDbLine
 10
245.9785147052193
 20
440.1193436320936
 30
0.0
 11
245.9785147052193
 21
443.3494436320936
 31
0.0
  0
LINE
  5
1DF7
330
6F
100
AcDbEntity
  8
0
 62
     0
100
AcDbLine
 10
245.9785147052193
 20
443.3494436320936
 30
0.0
 11
239.2295147052193
 21
443.3494436320936
 31
0.0
  0
LINE
  5
1DF8
330
6F
100
AcDbEntity
  8
0
 62
     0
100
AcDbLine
 10
239.2295147052193
 20
443.3494436320936
 30
0.0
 11
239.2295147052193
 21
440.1193436320936
 31
0.0
  0
LINE
  5
1DF9
330
6F
100
AcDbEntity
  8
0
 62
     0
100
AcDbLine
 10
239.2295147052193
 20
440.1193436320936
 30
0.0
 11
238.4045147052193
 21
440.1193436320936
 31
0.0
  0
LINE
  5
1DFA
330
6F
100
AcDbEntity
  8
0
 62
     0
100
AcDbLine
 10
238.4045147052193
 20
440.1193436320936
 30
0.0
 11
238.4045147052193
 21
437.3193436320937
 31
0.0
  0
LINE
  5
1DFB
330
6F
100
AcDbEntity
  8
0
 62
     0
100
AcDbLine
 10
238.4045147052193
 20
437.3193436320937
 30
0.0
 11
239.2295147052193
 21
437.3193436320937
 31
0.0
  0
LINE
  5
1DFC
330
6F
100
AcDbEntity
  8
0
 62
     0
100
AcDbLine
 10
239.2295147052193
 20
437.3193436320937
 30
0.0
 11
239.2295147052193
 21
431.0491436320936
 31
0.0
  0
LINE
  5
1DFD
330
6F
100
AcDbEntity
  8
0
 62
     0
100
AcDbLine
 10
239.2295147052193
 20
431.0491436320936
 30
0.0
 11
240.9535147052192
 21
431.0491436320936
 31
0.0
  0
LINE
  5
1DFE
330
6F
100
AcDbEntity
  8
0
 62
     0
100
AcDbLine
 10
240.9535147052192
 20
431.0491436320936
 30
0.0
 11
240.9535147052192
 21
429.8489436320936
 31
0.0
  0
LINE
  5
1DFF
330
6F
100
AcDbEntity
  8
0
 62
     0
100
AcDbLine
 10
240.9535147052192
 20
429.8489436320936
 30
0.0
 11
244.2535147052193
 21
429.8489436320936
 31
0.0
  0
LINE
  5
1E00
330
6F
100
AcDbEntity
  8
0
 62
     0
100
AcDbLine
 10
244.2535147052193
 20
429.8489436320936
 30
0.0
 11
244.2535147052193
 21
431.0491436320936
 31
0.0
  0
LINE
  5
1E01
330
6F
100
AcDbEntity
  8
0
 62
     0
100
AcDbLine
 10
244.2535147052193
 20
431.0491436320936
 30
0.0
 11
245.9785147052193
 21
431.0491436320936
 31
0.0
  0
LINE
  5
1E02
330
6F
100
AcDbEntity
  8
0
 62
     0
100
AcDbLine
 10
245.9785147052193
 20
431.0491436320936
 30
0.0
 11
245.9785147052193
 21
435.5195436320936
 31
0.0
  0
LINE
  5
1E03
330
6F
100
AcDbEntity
  8
0
 62
     0
100
AcDbLine
 10
245.9785147052193
 20
435.5195436320936
 30
0.0
 11
247.5045147052193
 21
435.5195436320936
 31
0.0
  0
LINE
  5
1E04
330
6F
100
AcDbEntity
  8
0
 62
     0
100
AcDbLine
 10
247.5045147052193
 20
435.5195436320936
 30
0.0
 11
247.5045147052193
 21
430.8191436320936
 31
0.0
  0
LINE
  5
1E05
330
6F
100
AcDbEntity
  8
0
 62
     0
100
AcDbLine
 10
247.5045147052193
 20
430.8191436320936
 30
0.0
 11
261.5035147052193
 21
430.8191436320936
 31
0.0
  0
LINE
  5
1E06
330
6F
100
AcDbEntity
  8
0
 62
     0
100
AcDbLine
 10
261.5035147052193
 20
430.8191436320936
 30
0.0
 11
261.5035147052193
 21
435.5195436320936
 31
0.0
  0
LINE
  5
1E07
330
6F
100
AcDbEntity
  8
0
 62
     0
100
AcDbLine
 10
261.5035147052193
 20
435.5195436320936
 30
0.0
 11
263.0295147052194
 21
435.5195436320936
 31
0.0
  0
LINE
  5
1E08
330
6F
100
AcDbEntity
  8
0
 62
     0
100
AcDbLine
 10
263.0295147052194
 20
435.5195436320936
 30
0.0
 11
263.0295147052194
 21
431.0491436320936
 31
0.0
  0
LINE
  5
1E09
330
6F
100
AcDbEntity
  8
0
 62
     0
100
AcDbLine
 10
263.0295147052194
 20
431.0491436320936
 30
0.0
 11
264.7535147052193
 21
431.0491436320936
 31
0.0
  0
LINE
  5
1E0A
330
6F
100
AcDbEntity
  8
0
 62
     0
100
AcDbLine
 10
264.7535147052193
 20
431.0491436320936
 30
0.0
 11
264.7535147052193
 21
429.8489436320936
 31
0.0
  0
LINE
  5
1E0B
330
6F
100
AcDbEntity
  8
0
 62
     0
100
AcDbLine
 10
264.7535147052193
 20
429.8489436320936
 30
0.0
 11
268.0535147052195
 21
429.8489436320936
 31
0.0
  0
LINE
  5
1E0C
330
6F
100
AcDbEntity
  8
0
 62
     0
100
AcDbLine
 10
268.0535147052195
 20
429.8489436320936
 30
0.0
 11
268.0535147052195
 21
431.0491436320936
 31
0.0
  0
LINE
  5
1E0D
330
6F
100
AcDbEntity
  8
0
 62
     0
100
AcDbLine
 10
268.0535147052195
 20
431.0491436320936
 30
0.0
 11
269.7795147052191
 21
431.0491436320936
 31
0.0
  0
LINE
  5
1E0E
330
6F
100
AcDbEntity
  8
0
 62
     0
100
AcDbLine
 10
269.7795147052191
 20
431.0491436320936
 30
0.0
 11
269.7795147052191
 21
437.3193436320937
 31
0.0
  0
LINE
  5
1E0F
330
6F
100
AcDbEntity
  8
0
 62
     0
100
AcDbLine
 10
269.7795147052191
 20
437.3193436320937
 30
0.0
 11
270.6045147052193
 21
437.3193436320937
 31
0.0
  0
LINE
  5
1E10
330
6F
100
AcDbEntity
  8
0
 62
     0
100
AcDbLine
 10
270.6045147052193
 20
437.3193436320937
 30
0.0
 11
270.6045147052193
 21
440.1193436320936
 31
0.0
  0
LINE
  5
1E11
330
6F
100
AcDbEntity
  8
0
 62
     0
100
AcDbLine
 10
270.6045147052193
 20
440.1193436320936
 30
0.0
 11
269.7795147052191
 21
440.1193436320936
 31
0.0
  0
LINE
  5
1E12
330
6F
100
AcDbEntity
  8
0
 62
     0
100
AcDbLine
 10
269.7795147052191
 20
440.1193436320936
 30
0.0
 11
269.7795147052191
 21
443.3494436320936
 31
0.0
  0
LINE
  5
1E13
330
6F
100
AcDbEntity
  8
0
 62
     0
100
AcDbLine
 10
269.7795147052191
 20
443.3494436320936
 30
0.0
 11
263.0295147052194
 21
443.3494436320936
 31
0.0
  0
LINE
  5
1E14
330
6F
100
AcDbEntity
  8
0
 62
     0
100
AcDbLine
 10
263.0295147052194
 20
443.3494436320936
 30
0.0
 11
263.0295147052194
 21
440.1193436320936
 31
0.0
  0
LINE
  5
1E15
330
6F
100
AcDbEntity
  8
0
 62
     0
100
AcDbLine
 10
263.0295147052194
 20
440.1193436320936
 30
0.0
 11
261.5035147052193
 21
440.1193436320936
 31
0.0
  0
LINE
  5
1E16
330
6F
100
AcDbEntity
  8
0
 62
     0
100
AcDbLine
 10
261.5035147052193
 20
440.1193436320936
 30
0.0
 11
261.5035147052193
 21
444.8183436320936
 31
0.0
  0
LINE
  5
1E17
330
6F
100
AcDbEntity
  8
0
 62
     0
100
AcDbLine
 10
261.5035147052193
 20
444.8183436320936
 30
0.0
 11
247.5045147052193
 21
444.8183436320936
 31
0.0
  0
LINE
  5
1E18
330
6F
100
AcDbEntity
  8
0
 62
     0
100
AcDbLine
 10
299.8905147052195
 20
444.8183436320936
 30
0.0
 11
313.8915147052194
 21
444.8183436320936
 31
0.0
  0
LINE
  5
1E19
330
6F
100
AcDbEntity
  8
0
 62
     0
100
AcDbLine
 10
313.8915147052194
 20
444.8183436320936
 30
0.0
 11
313.8915147052194
 21
430.8191436320936
 31
0.0
  0
LINE
  5
1E1A
330
6F
100
AcDbEntity
  8
0
 62
     0
100
AcDbLine
 10
316.9915147052192
 20
447.9183436320936
 30
0.0
 11
316.9915147052192
 21
414.5190036320936
 31
0.0
  0
LINE
  5
1E1B
330
6F
100
AcDbEntity
  8
0
 62
     0
100
AcDbLine
 10
220.9915147052194
 20
449.9183436320936
 30
0.0
 11
220.9915147052194
 21
447.9183436320936
 31
0.0
  0
LINE
  5
1E1C
330
6F
100
AcDbEntity
  8
0
 62
     0
100
AcDbLine
 10
220.9915147052194
 20
351.5190036320937
 30
0.0
 11
220.9915147052194
 21
349.5190036320937
 31
0.0
  0
LINE
  5
1E1D
330
6F
100
AcDbEntity
  8
0
 62
     0
100
AcDbLine
 10
190.9915147052192
 20
449.9183436320935
 30
0.0
 11
190.9915147052192
 21
447.9183436320936
 31
0.0
  0
LINE
  5
1E1E
330
6F
100
AcDbEntity
  8
0
 62
     0
100
AcDbLine
 10
190.9915147052192
 20
351.5190036320937
 30
0.0
 11
190.9915147052192
 21
349.5190036320937
 31
0.0
  0
LINE
  5
1E1F
330
6F
100
AcDbEntity
  8
0
 62
     0
100
AcDbLine
 10
316.9915147052192
 20
384.5190036320937
 30
0.0
 11
316.9915147052192
 21
351.5190036320937
 31
0.0
  0
LINE
  5
1E20
330
6F
100
AcDbEntity
  8
0
 62
     0
100
AcDbLine
 10
320.9915147052192
 20
412.5190036320937
 30
0.0
 11
320.9915147052192
 21
386.5190036320937
 31
0.0
  0
LINE
  5
1E21
330
6F
100
AcDbEntity
  8
0
 62
     0
100
AcDbLine
 10
320.9915147052192
 20
412.5190036320937
 30
0.0
 11
320.9915147052192
 21
386.5190036320937
 31
0.0
  0
LINE
  5
1E22
330
6F
100
AcDbEntity
  8
0
 62
     0
100
AcDbLine
 10
281.9915147052192
 20
449.9183436320935
 30
0.0
 11
281.9915147052192
 21
447.9183436320936
 31
0.0
  0
LINE
  5
1E23
330
6F
100
AcDbEntity
  8
0
 62
     0
100
AcDbLine
 10
281.9915147052194
 20
351.5190036320937
 30
0.0
 11
281.9915147052192
 21
349.5190036320937
 31
0.0
  0
LINE
  5
1E24
330
6F
100
AcDbEntity
  8
0
 62
     0
100
AcDbLine
 10
251.9915147052192
 20
449.9183436320935
 30
0.0
 11
251.9915147052192
 21
447.9183436320936
 31
0.0
  0
LINE
  5
1E25
330
6F
100
AcDbEntity
  8
0
 62
     0
100
AcDbLine
 10
251.9915147052192
 20
351.5190036320937
 30
0.0
 11
251.9915147052192
 21
349.5190036320937
 31
0.0
  0
LINE
  5
1E26
330
6F
100
AcDbEntity
  8
0
 62
     0
100
AcDbLine
 10
313.8915147052194
 20
430.8191436320936
 30
0.0
 11
299.8905147052195
 21
430.8191436320936
 31
0.0
  0
LINE
  5
1E27
330
6F
100
AcDbEntity
  8
0
 62
     0
100
AcDbLine
 10
299.8905147052195
 20
430.8191436320936
 30
0.0
 11
299.8905147052195
 21
444.8183436320936
 31
0.0
  0
LINE
  5
1E28
330
6F
100
AcDbEntity
  8
0
 62
     0
100
AcDbLine
 10
280.8405147052193
 20
444.8183436320936
 30
0.0
 11
294.8415147052192
 21
444.8183436320936
 31
0.0
  0
LINE
  5
1E29
330
6F
100
AcDbEntity
  8
0
 62
     0
100
AcDbLine
 10
294.8415147052192
 20
444.8183436320936
 30
0.0
 11
294.8415147052192
 21
430.8191436320936
 31
0.0
  0
LINE
  5
1E2A
330
6F
100
AcDbEntity
  8
0
 62
     0
100
AcDbLine
 10
294.8415147052192
 20
430.8191436320936
 30
0.0
 11
280.8405147052193
 21
430.8191436320936
 31
0.0
  0
LINE
  5
1E2B
330
6F
100
AcDbEntity
  8
0
 62
     0
100
AcDbLine
 10
280.8405147052193
 20
430.8191436320936
 30
0.0
 11
280.8405147052193
 21
444.8183436320936
 31
0.0
  0
LINE
  5
1E2C
330
6F
100
AcDbEntity
  8
0
 62
     0
100
AcDbLine
 10
218.9295147052192
 20
444.8183436320936
 30
0.0
 11
232.9285147052193
 21
444.8183436320936
 31
0.0
  0
LINE
  5
1E2D
330
6F
100
AcDbEntity
  8
0
 62
     0
100
AcDbLine
 10
232.9285147052193
 20
444.8183436320936
 30
0.0
 11
232.9285147052193
 21
430.8191436320936
 31
0.0
  0
LINE
  5
1E2E
330
6F
100
AcDbEntity
  8
0
 62
     0
100
AcDbLine
 10
232.9285147052193
 20
430.8191436320936
 30
0.0
 11
218.9295147052192
 21
430.8191436320936
 31
0.0
  0
LINE
  5
1E2F
330
6F
100
AcDbEntity
  8
0
 62
     0
100
AcDbLine
 10
218.9295147052192
 20
430.8191436320936
 30
0.0
 11
218.9295147052192
 21
444.8183436320936
 31
0.0
  0
LINE
  5
1E30
330
6F
100
AcDbEntity
  8
0
 62
     0
100
AcDbLine
 10
199.8795147052192
 20
444.8183436320936
 30
0.0
 11
213.8785147052193
 21
444.8183436320936
 31
0.0
  0
LINE
  5
1E31
330
6F
100
AcDbEntity
  8
0
 62
     0
100
AcDbLine
 10
213.8785147052193
 20
444.8183436320936
 30
0.0
 11
213.8785147052193
 21
430.8191436320936
 31
0.0
  0
LINE
  5
1E32
330
6F
100
AcDbEntity
  8
0
 62
     0
100
AcDbLine
 10
213.8785147052193
 20
430.8191436320936
 30
0.0
 11
199.8795147052192
 21
430.8191436320936
 31
0.0
  0
LINE
  5
1E33
330
6F
100
AcDbEntity
  8
0
 62
     0
100
AcDbLine
 10
199.8795147052192
 20
430.8191436320936
 30
0.0
 11
199.8795147052192
 21
444.8183436320936
 31
0.0
  0
LINE
  5
1E34
330
6F
100
AcDbEntity
  8
0
 62
     0
100
AcDbLine
 10
180.8295147052192
 20
444.8183436320936
 30
0.0
 11
194.8285147052192
 21
444.8183436320936
 31
0.0
  0
LINE
  5
1E35
330
6F
100
AcDbEntity
  8
0
 62
     0
100
AcDbLine
 10
194.8285147052192
 20
444.8183436320936
 30
0.0
 11
194.8285147052192
 21
430.8191436320936
 31
0.0
  0
LINE
  5
1E36
330
6F
100
AcDbEntity
  8
0
 62
     0
100
AcDbLine
 10
194.8285147052192
 20
430.8191436320936
 30
0.0
 11
180.8295147052192
 21
430.8191436320936
 31
0.0
  0
LINE
  5
1E37
330
6F
100
AcDbEntity
  8
0
 62
     0
100
AcDbLine
 10
180.8295147052192
 20
430.8191436320936
 30
0.0
 11
180.8295147052192
 21
444.8183436320936
 31
0.0
  0
LINE
  5
1E38
330
6F
100
AcDbEntity
  8
0
 62
     0
100
AcDbLine
 10
161.7795147052192
 20
444.8183436320936
 30
0.0
 11
175.7785147052192
 21
444.8183436320936
 31
0.0
  0
LINE
  5
1E39
330
6F
100
AcDbEntity
  8
0
 62
     0
100
AcDbLine
 10
175.7785147052192
 20
444.8183436320936
 30
0.0
 11
175.7785147052192
 21
430.8191436320936
 31
0.0
  0
LINE
  5
1E3A
330
6F
100
AcDbEntity
  8
0
 62
     0
100
AcDbLine
 10
175.7785147052192
 20
430.8191436320936
 30
0.0
 11
161.7795147052192
 21
430.8191436320936
 31
0.0
  0
LINE
  5
1E3B
330
6F
100
AcDbEntity
  8
0
 62
     0
100
AcDbLine
 10
161.7795147052192
 20
430.8191436320936
 30
0.0
 11
161.7795147052192
 21
444.8183436320936
 31
0.0
  0
LINE
  5
1E3C
330
6F
100
AcDbEntity
  8
0
 62
     0
100
AcDbLine
 10
142.7295147052193
 20
444.8183436320936
 30
0.0
 11
156.7285147052193
 21
444.8183436320936
 31
0.0
  0
LINE
  5
1E3D
330
6F
100
AcDbEntity
  8
0
 62
     0
100
AcDbLine
 10
156.7285147052193
 20
444.8183436320936
 30
0.0
 11
156.7285147052193
 21
430.8191436320936
 31
0.0
  0
LINE
  5
1E3E
330
6F
100
AcDbEntity
  8
0
 62
     0
100
AcDbLine
 10
156.7285147052193
 20
430.8191436320936
 30
0.0
 11
142.7295147052193
 21
430.8191436320936
 31
0.0
  0
LINE
  5
1E3F
330
6F
100
AcDbEntity
  8
0
 62
     0
100
AcDbLine
 10
142.7295147052193
 20
430.8191436320936
 30
0.0
 11
142.7295147052193
 21
444.8183436320936
 31
0.0
  0
LINE
  5
1E40
330
6F
100
AcDbEntity
  8
0
 62
     0
100
AcDbLine
 10
123.6795147052193
 20
444.8183436320936
 30
0.0
 11
137.6785147052192
 21
444.8183436320936
 31
0.0
  0
LINE
  5
1E41
330
6F
100
AcDbEntity
  8
0
 62
     0
100
AcDbLine
 10
137.6785147052192
 20
444.8183436320936
 30
0.0
 11
137.6785147052192
 21
430.8191436320936
 31
0.0
  0
LINE
  5
1E42
330
6F
100
AcDbEntity
  8
0
 62
     0
100
AcDbLine
 10
137.6785147052192
 20
430.8191436320936
 30
0.0
 11
123.6795147052193
 21
430.8191436320936
 31
0.0
  0
LINE
  5
1E43
330
6F
100
AcDbEntity
  8
0
 62
     0
100
AcDbLine
 10
123.6795147052193
 20
430.8191436320936
 30
0.0
 11
123.6795147052193
 21
444.8183436320936
 31
0.0
  0
LINE
  5
1E44
330
6F
100
AcDbEntity
  8
0
 62
     0
100
AcDbLine
 10
104.6285147052193
 20
444.8183436320936
 30
0.0
 11
118.6285147052193
 21
444.8183436320936
 31
0.0
  0
LINE
  5
1E45
330
6F
100
AcDbEntity
  8
0
 62
     0
100
AcDbLine
 10
118.6285147052193
 20
444.8183436320936
 30
0.0
 11
118.6285147052193
 21
430.8191436320936
 31
0.0
  0
LINE
  5
1E46
330
6F
100
AcDbEntity
  8
0
 62
     0
100
AcDbLine
 10
118.6285147052193
 20
430.8191436320936
 30
0.0
 11
104.6285147052193
 21
430.8191436320936
 31
0.0
  0
LINE
  5
1E47
330
6F
100
AcDbEntity
  8
0
 62
     0
100
AcDbLine
 10
104.6285147052193
 20
430.8191436320936
 30
0.0
 11
104.6285147052193
 21
444.8183436320936
 31
0.0
  0
LINE
  5
1E48
330
6F
100
AcDbEntity
  8
0
 62
     0
100
AcDbLine
 10
85.57821470521929
 20
444.8183436320936
 30
0.0
 11
99.5775147052192
 21
444.8183436320936
 31
0.0
  0
LINE
  5
1E49
330
6F
100
AcDbEntity
  8
0
 62
     0
100
AcDbLine
 10
99.5775147052192
 20
444.8183436320936
 30
0.0
 11
99.5775147052192
 21
430.8191436320936
 31
0.0
  0
LINE
  5
1E4A
330
6F
100
AcDbEntity
  8
0
 62
     0
100
AcDbLine
 10
99.5775147052192
 20
430.8191436320936
 30
0.0
 11
85.57821470521929
 21
430.8191436320936
 31
0.0
  0
LINE
  5
1E4B
330
6F
100
AcDbEntity
  8
0
 62
     0
100
AcDbLine
 10
85.57821470521929
 20
430.8191436320936
 30
0.0
 11
85.57821470521929
 21
444.8183436320936
 31
0.0
  0
LINE
  5
1E4C
330
6F
100
AcDbEntity
  8
0
 62
     0
100
AcDbLine
 10
66.52961470521927
 20
444.8183436320936
 30
0.0
 11
80.52891470521927
 21
444.8183436320936
 31
0.0
  0
LINE
  5
1E4D
330
6F
100
AcDbEntity
  8
0
 62
     0
100
AcDbLine
 10
80.52891470521927
 20
444.8183436320936
 30
0.0
 11
80.52891470521927
 21
430.8191436320936
 31
0.0
  0
LINE
  5
1E4E
330
6F
100
AcDbEntity
  8
0
 62
     0
100
AcDbLine
 10
80.52891470521927
 20
430.8191436320936
 30
0.0
 11
66.52961470521927
 21
430.8191436320936
 31
0.0
  0
LINE
  5
1E4F
330
6F
100
AcDbEntity
  8
0
 62
     0
100
AcDbLine
 10
66.52961470521927
 20
430.8191436320936
 30
0.0
 11
66.52961470521927
 21
444.8183436320936
 31
0.0
  0
LINE
  5
1E50
330
6F
100
AcDbEntity
  8
0
 62
     0
100
AcDbLine
 10
47.47961470521926
 20
444.8183436320936
 30
0.0
 11
61.47891470521926
 21
444.8183436320936
 31
0.0
  0
LINE
  5
1E51
330
6F
100
AcDbEntity
  8
0
 62
     0
100
AcDbLine
 10
61.47891470521926
 20
444.8183436320936
 30
0.0
 11
61.47891470521926
 21
430.8191436320936
 31
0.0
  0
LINE
  5
1E52
330
6F
100
AcDbEntity
  8
0
 62
     0
100
AcDbLine
 10
61.47891470521926
 20
430.8191436320936
 30
0.0
 11
47.47961470521926
 21
430.8191436320936
 31
0.0
  0
LINE
  5
1E53
330
6F
100
AcDbEntity
  8
0
 62
     0
100
AcDbLine
 10
47.47961470521926
 20
430.8191436320936
 30
0.0
 11
47.47961470521926
 21
444.8183436320936
 31
0.0
  0
LINE
  5
1E54
330
6F
100
AcDbEntity
  8
0
 62
     0
100
AcDbLine
 10
28.42961470521925
 20
444.8183436320936
 30
0.0
 11
42.42891470521925
 21
444.8183436320936
 31
0.0
  0
LINE
  5
1E55
330
6F
100
AcDbEntity
  8
0
 62
     0
100
AcDbLine
 10
42.42891470521925
 20
444.8183436320936
 30
0.0
 11
42.42891470521925
 21
430.8191436320936
 31
0.0
  0
LINE
  5
1E56
330
6F
100
AcDbEntity
  8
0
 62
     0
100
AcDbLine
 10
42.42891470521925
 20
430.8191436320936
 30
0.0
 11
28.42961470521925
 21
430.8191436320936
 31
0.0
  0
LINE
  5
1E57
330
6F
100
AcDbEntity
  8
0
 62
     0
100
AcDbLine
 10
28.42961470521925
 20
430.8191436320936
 30
0.0
 11
28.42961470521925
 21
444.8183436320936
 31
0.0
  0
LINE
  5
1E58
330
6F
100
AcDbEntity
  8
0
 62
     0
100
AcDbLine
 10
9.379514705219264
 20
444.8183436320936
 30
0.0
 11
23.3789147052193
 21
444.8183436320936
 31
0.0
  0
LINE
  5
1E59
330
6F
100
AcDbEntity
  8
0
 62
     0
100
AcDbLine
 10
23.3789147052193
 20
444.8183436320936
 30
0.0
 11
23.3789147052193
 21
430.8191436320936
 31
0.0
  0
LINE
  5
1E5A
330
6F
100
AcDbEntity
  8
0
 62
     0
100
AcDbLine
 10
23.3789147052193
 20
430.8191436320936
 30
0.0
 11
9.379514705219264
 21
430.8191436320936
 31
0.0
  0
LINE
  5
1E5B
330
6F
100
AcDbEntity
  8
0
 62
     0
100
AcDbLine
 10
9.379514705219264
 20
430.8191436320936
 30
0.0
 11
9.379514705219264
 21
444.8183436320936
 31
0.0
  0
LINE
  5
1E5C
330
6F
100
AcDbEntity
  8
0
 62
     0
100
AcDbLine
 10
-9.670455294780708
 20
444.8183436320936
 30
0.0
 11
4.329014705219265
 21
444.8183436320936
 31
0.0
  0
LINE
  5
1E5D
330
6F
100
AcDbEntity
  8
0
 62
     0
100
AcDbLine
 10
-12.77045529478073
 20
447.9183436320936
 30
0.0
 11
22.22954470521927
 21
447.9183436320936
 31
0.0
  0
LINE
  5
1E5E
330
6F
100
AcDbEntity
  8
0
 62
     0
100
AcDbLine
 10
-14.77045529478073
 20
384.9183436320936
 30
0.0
 11
-12.77045529478073
 21
384.9183436320936
 31
0.0
  0
LINE
  5
1E5F
330
6F
100
AcDbEntity
  8
0
 62
     0
100
AcDbLine
 10
-14.77045529478073
 20
414.9183436320936
 30
0.0
 11
-12.77045529478073
 21
414.9183436320936
 31
0.0
  0
LINE
  5
1E60
330
6F
100
AcDbEntity
  8
0
 62
     0
100
AcDbLine
 10
52.22954470521926
 20
447.9183436320936
 30
0.0
 11
83.22954470521926
 21
447.9183436320936
 31
0.0
  0
LINE
  5
1E61
330
6F
100
AcDbEntity
  8
0
 62
     0
100
AcDbLine
 10
113.2295447052193
 20
447.9183436320935
 30
0.0
 11
190.9915147052192
 21
447.9183436320936
 31
0.0
  0
LINE
  5
1E62
330
6F
100
AcDbEntity
  8
0
 62
     0
100
AcDbLine
 10
85.22954470521927
 20
451.9183436320935
 30
0.0
 11
111.2295447052192
 21
451.9183436320935
 31
0.0
  0
LINE
  5
1E63
330
6F
100
AcDbEntity
  8
0
 62
     0
100
AcDbLine
 10
220.9915147052194
 20
447.9183436320936
 30
0.0
 11
251.9915147052192
 21
447.9183436320936
 31
0.0
  0
LINE
  5
1E64
330
6F
100
AcDbEntity
  8
0
 62
     0
100
AcDbLine
 10
253.9915147052192
 20
451.9183436320936
 30
0.0
 11
279.9915147052193
 21
451.9183436320935
 31
0.0
  0
LINE
  5
1E65
330
6F
100
AcDbEntity
  8
0
 62
     0
100
AcDbLine
 10
192.9915147052192
 20
451.9183436320935
 30
0.0
 11
218.9915147052192
 21
451.9183436320935
 31
0.0
  0
LINE
  5
1E66
330
6F
100
AcDbEntity
  8
0
 62
     0
100
AcDbLine
 10
281.9915147052192
 20
447.9183436320936
 30
0.0
 11
316.9915147052192
 21
447.9183436320936
 31
0.0
  0
LINE
  5
1E67
330
6F
100
AcDbEntity
  8
0
 62
     0
100
AcDbLine
 10
24.22954470521927
 20
451.9183436320935
 30
0.0
 11
50.22954470521927
 21
451.9183436320935
 31
0.0
  0
LINE
  5
1E68
330
6F
100
AcDbEntity
  8
0
 62
     0
100
AcDbLine
 10
4.329014705219265
 20
444.8183436320936
 30
0.0
 11
4.329014705219265
 21
430.8191436320936
 31
0.0
  0
LINE
  5
1E69
330
6F
100
AcDbEntity
  8
0
 62
     0
100
AcDbLine
 10
4.329014705219265
 20
430.8191436320936
 30
0.0
 11
-9.670455294780708
 21
430.8191436320936
 31
0.0
  0
LINE
  5
1E6A
330
6F
100
AcDbEntity
  8
0
 62
     0
100
AcDbLine
 10
-9.670455294780708
 20
430.8191436320936
 30
0.0
 11
-9.670455294780708
 21
444.8183436320936
 31
0.0
  0
LINE
  5
1E6B
330
6F
100
AcDbEntity
  8
0
 62
     0
100
AcDbLine
 10
-12.77045529478073
 20
351.5190036320937
 30
0.0
 11
-12.77045529478073
 21
384.9183436320936
 31
0.0
  0
LINE
  5
1E6C
330
6F
100
AcDbEntity
  8
0
 62
     0
100
AcDbLine
 10
-12.77045529478073
 20
414.9183436320936
 30
0.0
 11
-12.77045529478073
 21
447.9183436320936
 31
0.0
  0
LINE
  5
1E6D
330
6F
100
AcDbEntity
  8
0
 62
     0
100
AcDbLine
 10
83.22954470521926
 20
349.5190036320937
 30
0.0
 11
83.22954470521926
 21
351.5190036320937
 31
0.0
  0
LINE
  5
1E6E
330
6F
100
AcDbEntity
  8
0
 62
     0
100
AcDbLine
 10
83.22954470521926
 20
447.9183436320936
 30
0.0
 11
83.22954470521926
 21
449.9183436320935
 31
0.0
  0
LINE
  5
1E6F
330
6F
100
AcDbEntity
  8
0
 62
     0
100
AcDbLine
 10
113.2295447052193
 20
349.5190036320937
 30
0.0
 11
113.2295447052193
 21
351.5190036320937
 31
0.0
  0
LINE
  5
1E70
330
6F
100
AcDbEntity
  8
0
 62
     0
100
AcDbLine
 10
113.2295447052193
 20
447.9183436320936
 30
0.0
 11
113.2295447052193
 21
449.9183436320935
 31
0.0
  0
LINE
  5
1E71
330
6F
100
AcDbEntity
  8
0
 62
     0
100
AcDbLine
 10
-16.77045529478073
 20
386.9183436320936
 30
0.0
 11
-16.77045529478073
 21
412.9183436320936
 31
0.0
  0
LINE
  5
1E72
330
6F
100
AcDbEntity
  8
0
 62
     0
100
AcDbLine
 10
52.22954470521926
 20
349.5190036320937
 30
0.0
 11
52.22954470521926
 21
351.5190036320937
 31
0.0
  0
LINE
  5
1E73
330
6F
100
AcDbEntity
  8
0
 62
     0
100
AcDbLine
 10
52.22954470521926
 20
447.9183436320936
 30
0.0
 11
52.22954470521926
 21
449.9183436320935
 31
0.0
  0
LINE
  5
1E74
330
6F
100
AcDbEntity
  8
0
 62
     0
100
AcDbLine
 10
22.22954470521927
 20
349.5190036320937
 30
0.0
 11
22.22954470521927
 21
351.5190036320937
 31
0.0
  0
LINE
  5
1E75
330
6F
100
AcDbEntity
  8
0
 62
     0
100
AcDbLine
 10
22.22954470521927
 20
447.9183436320936
 30
0.0
 11
22.22954470521927
 21
449.9183436320935
 31
0.0
  0
ARC
  5
1E76
330
6F
100
AcDbEntity
  8
0
  6
Continuous
100
AcDbCircle
 10
85.22954470521927
 20
449.9183436320935
 30
0.0
 40
2.0
100
AcDbArc
 50
90.0
 51
180.0
  0
ARC
  5
1E77
330
6F
100
AcDbEntity
  8
0
  6
Continuous
100
AcDbCircle
 10
111.2295447052192
 20
449.9183436320935
 30
0.0
 40
2.0
100
AcDbArc
 50
359.9999999999968
 51
90.0
  0
ARC
  5
1E78
330
6F
100
AcDbEntity
  8
0
  6
Continuous
100
AcDbCircle
 10
192.9915147052192
 20
449.9183436320935
 30
0.0
 40
2.0
100
AcDbArc
 50
90.0
 51
180.0
  0
ARC
  5
1E79
330
6F
100
AcDbEntity
  8
0
  6
Continuous
100
AcDbCircle
 10
218.9915147052192
 20
449.9183436320935
 30
0.0
 40
2.0
100
AcDbArc
 50
0.0
 51
90.0
  0
ARC
  5
1E7A
330
6F
100
AcDbEntity
  8
0
  6
Continuous
100
AcDbCircle
 10
85.22954470521927
 20
349.5190036320937
 30
0.0
 40
2.0
100
AcDbArc
 50
179.9999999999967
 51
270.0
  0
ARC
  5
1E7B
330
6F
100
AcDbEntity
  8
0
  6
Continuous
100
AcDbCircle
 10
111.2295447052192
 20
349.5190036320937
 30
0.0
 40
2.0
100
AcDbArc
 50
270.0
 51
0.0
  0
ARC
  5
1E7C
330
6F
100
AcDbEntity
  8
0
  6
Continuous
100
AcDbCircle
 10
192.9915147052192
 20
349.5190036320937
 30
0.0
 40
2.0
100
AcDbArc
 50
180.0
 51
270.0
  0
ARC
  5
1E7D
330
6F
100
AcDbEntity
  8
0
  6
Continuous
100
AcDbCircle
 10
218.9915147052192
 20
349.5190036320937
 30
0.0
 40
2.0
100
AcDbArc
 50
270.0
 51
0.0
  0
ARC
  5
1E7E
330
6F
100
AcDbEntity
  8
0
  6
Continuous
100
AcDbCircle
 10
253.9915147052192
 20
449.9183436320935
 30
0.0
 40
2.0
100
AcDbArc
 50
90.0
 51
180.0
  0
ARC
  5
1E7F
330
6F
100
AcDbEntity
  8
0
  6
Continuous
100
AcDbCircle
 10
279.9915147052193
 20
449.9183436320935
 30
0.0
 40
2.0
100
AcDbArc
 50
0.0
 51
90.0
  0
ARC
  5
1E80
330
6F
100
AcDbEntity
  8
0
  6
Continuous
100
AcDbCircle
 10
24.22954470521927
 20
449.9183436320935
 30
0.0
 40
2.0
100
AcDbArc
 50
90.0
 51
180.0
  0
ARC
  5
1E81
330
6F
100
AcDbEntity
  8
0
  6
Continuous
100
AcDbCircle
 10
50.22954470521927
 20
449.9183436320935
 30
0.0
 40
2.0
100
AcDbArc
 50
0.0
 51
90.0
  0
ARC
  5
1E82
330
6F
100
AcDbEntity
  8
0
  6
Continuous
100
AcDbCircle
 10
-14.77045529478073
 20
386.9183436320936
 30
0.0
 40
2.0
100
AcDbArc
 50
179.9999999999967
 51
270.0
  0
ARC
  5
1E83
330
6F
100
AcDbEntity
  8
0
  6
Continuous
100
AcDbCircle
 10
-14.77045529478073
 20
412.9183436320936
 30
0.0
 40
2.0
100
AcDbArc
 50
90.0
 51
180.0
  0
ARC
  5
1E84
330
6F
100
AcDbEntity
  8
0
  6
Continuous
100
AcDbCircle
 10
318.9915147052192
 20
386.5190036320937
 30
0.0
 40
2.0
100
AcDbArc
 50
270.0
 51
359.9999999999968
  0
ARC
  5
1E85
330
6F
100
AcDbEntity
  8
0
  6
Continuous
100
AcDbCircle
 10
318.9915147052192
 20
412.5190036320937
 30
0.0
 40
2.0
100
AcDbArc
 50
0.0
 51
90.0
  0
ARC
  5
1E86
330
6F
100
AcDbEntity
  8
0
  6
Continuous
100
AcDbCircle
 10
24.22954470521927
 20
349.5190036320937
 30
0.0
 40
2.0
100
AcDbArc
 50
179.9999999999967
 51
270.0
  0
ARC
  5
1E87
330
6F
100
AcDbEntity
  8
0
  6
Continuous
100
AcDbCircle
 10
50.22954470521927
 20
349.5190036320937
 30
0.0
 40
2.0
100
AcDbArc
 50
270.0
 51
0.0
  0
ARC
  5
1E88
330
6F
100
AcDbEntity
  8
0
  6
Continuous
100
AcDbCircle
 10
279.9915147052193
 20
349.5190036320937
 30
0.0
 40
2.0
100
AcDbArc
 50
270.0
 51
0.0
  0
ARC
  5
1E89
330
6F
100
AcDbEntity
  8
0
  6
Continuous
100
AcDbCircle
 10
253.9915147052192
 20
349.5190036320937
 30
0.0
 40
2.0
100
AcDbArc
 50
180.0
 51
270.0
  0
LINE
  5
215B
330
6F
100
AcDbEntity
  8
0
 62
     1
100
AcDbLine
 10
331.5132948062537
 20
660.078264631231
 30
0.0
 11
329.5132948062537
 21
660.078264631231
 31
0.0
  0
LINE
  5
215C
330
6F
100
AcDbEntity
  8
0
 62
     1
100
AcDbLine
 10
331.5132948062537
 20
690.078264631231
 30
0.0
 11
329.5132948062537
 21
690.078264631231
 31
0.0
  0
LINE
  5
215D
330
6F
100
AcDbEntity
  8
0
 62
     1
100
AcDbLine
 10
231.5132948062538
 20
623.078264631231
 30
0.0
 11
205.5132948062537
 21
623.078264631231
 31
0.0
  0
LINE
  5
215E
330
6F
100
AcDbEntity
  8
0
 62
     1
100
AcDbLine
 10
123.7513248062537
 20
623.078264631231
 30
0.0
 11
97.75132480625376
 21
623.078264631231
 31
0.0
  0
LINE
  5
215F
330
6F
100
AcDbEntity
  8
0
 62
     1
100
AcDbLine
 10
292.5132948062537
 20
623.078264631231
 30
0.0
 11
266.5132948062537
 21
623.078264631231
 31
0.0
  0
LINE
  5
2160
330
6F
100
AcDbEntity
  8
0
 62
     1
100
AcDbLine
 10
62.75132480625376
 20
623.078264631231
 30
0.0
 11
36.75132480625376
 21
623.078264631231
 31
0.0
  0
LINE
  5
2161
330
6F
100
AcDbEntity
  8
0
 62
     1
100
AcDbLine
 10
233.5132948062538
 20
725.477604631231
 30
0.0
 11
233.5132948062538
 21
723.4776046312309
 31
0.0
  0
LINE
  5
2162
330
6F
100
AcDbEntity
  8
0
 62
     1
100
AcDbLine
 10
233.5132948062538
 20
627.078264631231
 30
0.0
 11
233.5132948062538
 21
625.078264631231
 31
0.0
  0
LINE
  5
2163
330
6F
100
AcDbEntity
  8
0
 62
     1
100
AcDbLine
 10
203.5132948062537
 20
725.4776046312308
 30
0.0
 11
203.5132948062537
 21
723.4776046312309
 31
0.0
  0
LINE
  5
2164
330
6F
100
AcDbEntity
  8
0
 62
     1
100
AcDbLine
 10
203.5132948062537
 20
627.078264631231
 30
0.0
 11
203.5132948062537
 21
625.078264631231
 31
0.0
  0
LINE
  5
2165
330
6F
100
AcDbEntity
  8
0
 62
     1
100
AcDbLine
 10
333.5132948062537
 20
688.078264631231
 30
0.0
 11
333.5132948062537
 21
662.078264631231
 31
0.0
  0
LINE
  5
2166
330
6F
100
AcDbEntity
  8
0
 62
     1
100
AcDbLine
 10
333.5132948062537
 20
688.078264631231
 30
0.0
 11
333.5132948062537
 21
662.078264631231
 31
0.0
  0
LINE
  5
2167
330
6F
100
AcDbEntity
  8
0
 62
     1
100
AcDbLine
 10
294.5132948062537
 20
725.4776046312308
 30
0.0
 11
294.5132948062537
 21
723.4776046312309
 31
0.0
  0
LINE
  5
2168
330
6F
100
AcDbEntity
  8
0
 62
     1
100
AcDbLine
 10
294.5132948062538
 20
627.078264631231
 30
0.0
 11
294.5132948062537
 21
625.078264631231
 31
0.0
  0
LINE
  5
2169
330
6F
100
AcDbEntity
  8
0
 62
     1
100
AcDbLine
 10
264.5132948062537
 20
725.4776046312308
 30
0.0
 11
264.5132948062537
 21
723.4776046312309
 31
0.0
  0
LINE
  5
216A
330
6F
100
AcDbEntity
  8
0
 62
     1
100
AcDbLine
 10
264.5132948062537
 20
627.078264631231
 30
0.0
 11
264.5132948062537
 21
625.078264631231
 31
0.0
  0
LINE
  5
216B
330
6F
100
AcDbEntity
  8
0
 62
     1
100
AcDbLine
 10
-2.248675193746237
 20
660.4776046312309
 30
0.0
 11
-0.2486751937462372
 21
660.4776046312309
 31
0.0
  0
LINE
  5
216C
330
6F
100
AcDbEntity
  8
0
 62
     1
100
AcDbLine
 10
-2.248675193746237
 20
690.4776046312309
 30
0.0
 11
-0.2486751937462372
 21
690.4776046312309
 31
0.0
  0
LINE
  5
216D
330
6F
100
AcDbEntity
  8
0
 62
     1
100
AcDbLine
 10
97.75132480625376
 20
727.4776046312308
 30
0.0
 11
123.7513248062537
 21
727.4776046312308
 31
0.0
  0
LINE
  5
216E
330
6F
100
AcDbEntity
  8
0
 62
     1
100
AcDbLine
 10
266.5132948062537
 20
727.4776046312309
 30
0.0
 11
292.5132948062537
 21
727.4776046312308
 31
0.0
  0
LINE
  5
216F
330
6F
100
AcDbEntity
  8
0
 62
     1
100
AcDbLine
 10
205.5132948062537
 20
727.4776046312308
 30
0.0
 11
231.5132948062537
 21
727.4776046312308
 31
0.0
  0
LINE
  5
2170
330
6F
100
AcDbEntity
  8
0
 62
     1
100
AcDbLine
 10
36.75132480625376
 20
727.4776046312308
 30
0.0
 11
62.75132480625376
 21
727.4776046312308
 31
0.0
  0
LINE
  5
2171
330
6F
100
AcDbEntity
  8
0
 62
     1
100
AcDbLine
 10
95.75132480625375
 20
625.078264631231
 30
0.0
 11
95.75132480625375
 21
627.078264631231
 31
0.0
  0
LINE
  5
2172
330
6F
100
AcDbEntity
  8
0
 62
     1
100
AcDbLine
 10
95.75132480625375
 20
723.4776046312309
 30
0.0
 11
95.75132480625375
 21
725.4776046312308
 31
0.0
  0
LINE
  5
2173
330
6F
100
AcDbEntity
  8
0
 62
     1
100
AcDbLine
 10
125.7513248062538
 20
625.078264631231
 30
0.0
 11
125.7513248062538
 21
627.078264631231
 31
0.0
  0
LINE
  5
2174
330
6F
100
AcDbEntity
  8
0
 62
     1
100
AcDbLine
 10
125.7513248062538
 20
723.4776046312309
 30
0.0
 11
125.7513248062538
 21
725.4776046312308
 31
0.0
  0
LINE
  5
2175
330
6F
100
AcDbEntity
  8
0
 62
     1
100
AcDbLine
 10
-4.248675193746237
 20
662.477604631231
 30
0.0
 11
-4.248675193746237
 21
688.4776046312309
 31
0.0
  0
LINE
  5
2176
330
6F
100
AcDbEntity
  8
0
 62
     1
100
AcDbLine
 10
64.75132480625376
 20
625.078264631231
 30
0.0
 11
64.75132480625376
 21
627.078264631231
 31
0.0
  0
LINE
  5
2177
330
6F
100
AcDbEntity
  8
0
 62
     1
100
AcDbLine
 10
64.75132480625376
 20
723.4776046312309
 30
0.0
 11
64.75132480625376
 21
725.4776046312308
 31
0.0
  0
LINE
  5
2178
330
6F
100
AcDbEntity
  8
0
 62
     1
100
AcDbLine
 10
34.75132480625376
 20
625.078264631231
 30
0.0
 11
34.75132480625376
 21
627.078264631231
 31
0.0
  0
LINE
  5
2179
330
6F
100
AcDbEntity
  8
0
 62
     1
100
AcDbLine
 10
34.75132480625376
 20
723.4776046312309
 30
0.0
 11
34.75132480625376
 21
725.4776046312308
 31
0.0
  0
ARC
  5
217A
330
6F
100
AcDbEntity
  8
0
  6
Continuous
 62
     1
100
AcDbCircle
 10
97.75132480625376
 20
725.4776046312308
 30
0.0
 40
2.0
100
AcDbArc
 50
90.0
 51
180.0
  0
ARC
  5
217B
330
6F
100
AcDbEntity
  8
0
  6
Continuous
 62
     1
100
AcDbCircle
 10
123.7513248062537
 20
725.4776046312308
 30
0.0
 40
2.0
100
AcDbArc
 50
0.0
 51
90.0
  0
ARC
  5
217C
330
6F
100
AcDbEntity
  8
0
  6
Continuous
 62
     1
100
AcDbCircle
 10
205.5132948062537
 20
725.4776046312308
 30
0.0
 40
2.0
100
AcDbArc
 50
90.0
 51
180.0
  0
ARC
  5
217D
330
6F
100
AcDbEntity
  8
0
  6
Continuous
 62
     1
100
AcDbCircle
 10
231.5132948062537
 20
725.4776046312308
 30
0.0
 40
2.0
100
AcDbArc
 50
0.0
 51
90.0
  0
ARC
  5
217E
330
6F
100
AcDbEntity
  8
0
  6
Continuous
 62
     1
100
AcDbCircle
 10
97.75132480625376
 20
625.078264631231
 30
0.0
 40
2.0
100
AcDbArc
 50
180.0
 51
270.0
  0
ARC
  5
217F
330
6F
100
AcDbEntity
  8
0
  6
Continuous
 62
     1
100
AcDbCircle
 10
123.7513248062537
 20
625.078264631231
 30
0.0
 40
2.0
100
AcDbArc
 50
270.0
 51
0.0
  0
ARC
  5
2180
330
6F
100
AcDbEntity
  8
0
  6
Continuous
 62
     1
100
AcDbCircle
 10
205.5132948062537
 20
625.078264631231
 30
0.0
 40
2.0
100
AcDbArc
 50
180.0
 51
270.0
  0
ARC
  5
2181
330
6F
100
AcDbEntity
  8
0
  6
Continuous
 62
     1
100
AcDbCircle
 10
231.5132948062537
 20
625.078264631231
 30
0.0
 40
2.0
100
AcDbArc
 50
270.0
 51
0.0
  0
ARC
  5
2182
330
6F
100
AcDbEntity
  8
0
  6
Continuous
 62
     1
100
AcDbCircle
 10
266.5132948062537
 20
725.4776046312308
 30
0.0
 40
2.0
100
AcDbArc
 50
90.0
 51
180.0
  0
ARC
  5
2183
330
6F
100
AcDbEntity
  8
0
  6
Continuous
 62
     1
100
AcDbCircle
 10
292.5132948062537
 20
725.4776046312308
 30
0.0
 40
2.0
100
AcDbArc
 50
0.0
 51
90.0
  0
ARC
  5
2184
330
6F
100
AcDbEntity
  8
0
  6
Continuous
 62
     1
100
AcDbCircle
 10
36.75132480625376
 20
725.4776046312308
 30
0.0
 40
2.0
100
AcDbArc
 50
90.0
 51
180.0
  0
ARC
  5
2185
330
6F
100
AcDbEntity
  8
0
  6
Continuous
 62
     1
100
AcDbCircle
 10
62.75132480625376
 20
725.4776046312308
 30
0.0
 40
2.0
100
AcDbArc
 50
0.0
 51
90.0
  0
ARC
  5
2186
330
6F
100
AcDbEntity
  8
0
  6
Continuous
 62
     1
100
AcDbCircle
 10
-2.248675193746237
 20
662.477604631231
 30
0.0
 40
2.0
100
AcDbArc
 50
180.0
 51
270.0
  0
ARC
  5
2187
330
6F
100
AcDbEntity
  8
0
  6
Continuous
 62
     1
100
AcDbCircle
 10
-2.248675193746237
 20
688.4776046312309
 30
0.0
 40
2.0
100
AcDbArc
 50
90.0
 51
180.0
  0
ARC
  5
2188
330
6F
100
AcDbEntity
  8
0
  6
Continuous
 62
     1
100
AcDbCircle
 10
331.5132948062537
 20
662.078264631231
 30
0.0
 40
2.0
100
AcDbArc
 50
270.0
 51
0.0
  0
ARC
  5
2189
330
6F
100
AcDbEntity
  8
0
  6
Continuous
 62
     1
100
AcDbCircle
 10
331.5132948062537
 20
688.078264631231
 30
0.0
 40
2.0
100
AcDbArc
 50
0.0
 51
90.0
  0
ARC
  5
218A
330
6F
100
AcDbEntity
  8
0
  6
Continuous
 62
     1
100
AcDbCircle
 10
36.75132480625376
 20
625.078264631231
 30
0.0
 40
2.0
100
AcDbArc
 50
180.0
 51
270.0
  0
ARC
  5
218B
330
6F
100
AcDbEntity
  8
0
  6
Continuous
 62
     1
100
AcDbCircle
 10
62.75132480625376
 20
625.078264631231
 30
0.0
 40
2.0
100
AcDbArc
 50
270.0
 51
0.0
  0
ARC
  5
218C
330
6F
100
AcDbEntity
  8
0
  6
Continuous
 62
     1
100
AcDbCircle
 10
292.5132948062537
 20
625.078264631231
 30
0.0
 40
2.0
100
AcDbArc
 50
270.0
 51
0.0
  0
ARC
  5
218D
330
6F
100
AcDbEntity
  8
0
  6
Continuous
 62
     1
100
AcDbCircle
 10
266.5132948062537
 20
625.078264631231
 30
0.0
 40
2.0
100
AcDbArc
 50
180.0
 51
270.0
  0
LINE
  5
218E
330
6F
100
AcDbEntity
  8
0
 62
     0
100
AcDbLine
 10
-0.2520351937462806
 20
721.4800946312309
 30
0.0
 11
-0.2520351937462806
 21
629.078264631231
 31
0.0
  0
LINE
  5
218F
330
6F
100
AcDbEntity
  8
0
 62
     0
100
AcDbLine
 10
-10.25203519374628
 20
726.9800946312309
 30
0.0
 11
-10.25203519374628
 21
623.578264631231
 31
0.0
  0
LINE
  5
2190
330
6F
100
AcDbEntity
  8
0
 62
     0
100
AcDbLine
 10
1.747964806253719
 20
627.078264631231
 30
0.0
 11
260.8382948062537
 21
627.078264631231
 31
0.0
  0
LINE
  5
2191
330
6F
100
AcDbEntity
  8
0
 62
     0
100
AcDbLine
 10
-6.752035193746284
 20
620.078264631231
 30
0.0
 11
336.0132948062537
 21
620.078264631231
 31
0.0
  0
LINE
  5
2192
330
6F
100
AcDbEntity
  8
0
 62
     0
100
AcDbLine
 10
262.8382948062537
 20
629.0782646312309
 30
0.0
 11
262.8382948062537
 21
644.1268946312309
 31
0.0
  0
LINE
  5
2193
330
6F
100
AcDbEntity
  8
0
 62
     0
100
AcDbLine
 10
264.8382948062537
 20
646.1268946312308
 30
0.0
 11
269.2102948062537
 21
646.1268946312308
 31
0.0
  0
LINE
  5
2194
330
6F
100
AcDbEntity
  8
0
 62
     0
100
AcDbLine
 10
271.2102948062538
 20
644.1268946312309
 30
0.0
 11
271.2102948062537
 21
629.0782646312309
 31
0.0
  0
LINE
  5
2195
330
6F
100
AcDbEntity
  8
0
 62
     0
100
AcDbLine
 10
273.2102948062537
 20
627.0782646312309
 30
0.0
 11
327.5132948062537
 21
627.078264631231
 31
0.0
  0
LINE
  5
2196
330
6F
100
AcDbEntity
  8
0
 62
     0
100
AcDbLine
 10
329.5132948062537
 20
629.0782646312309
 30
0.0
 11
329.5132948062537
 21
645.2782946312325
 31
0.0
  0
LINE
  5
2197
330
6F
100
AcDbEntity
  8
0
 62
     0
100
AcDbLine
 10
310.4632948062538
 20
648.2782946312318
 30
0.0
 11
310.4632948062536
 21
664.3283946312309
 31
0.0
  0
LINE
  5
2198
330
6F
100
AcDbEntity
  8
0
 62
     0
100
AcDbLine
 10
308.4632948062537
 20
666.3283946312311
 30
0.0
 11
292.2602948062537
 21
666.3283946312309
 31
0.0
  0
LINE
  5
2199
330
6F
100
AcDbEntity
  8
0
 62
     0
100
AcDbLine
 10
290.2602948062537
 20
664.3283946312309
 30
0.0
 11
290.2602948062537
 21
648.278294631231
 31
0.0
  0
LINE
  5
219A
330
6F
100
AcDbEntity
  8
0
 62
     0
100
AcDbLine
 10
327.5132948062538
 20
647.2782946312324
 30
0.0
 11
311.4632948062537
 21
647.2782946312317
 31
0.0
  0
LINE
  5
219B
330
6F
100
AcDbEntity
  8
0
 62
     0
100
AcDbLine
 10
289.2602948062538
 20
647.2782946312311
 30
0.0
 11
287.6502948062537
 21
647.2782946312311
 31
0.0
  0
LINE
  5
219C
330
6F
100
AcDbEntity
  8
0
 62
     0
100
AcDbLine
 10
286.6502948062537
 20
648.278294631231
 30
0.0
 11
286.6502948062537
 21
721.4800946312309
 31
0.0
  0
LINE
  5
219D
330
6F
100
AcDbEntity
  8
0
 62
     0
100
AcDbLine
 10
1.747964806253719
 20
723.4800946312309
 30
0.0
 11
284.6502948062537
 21
723.4800946312309
 31
0.0
  0
LINE
  5
219E
330
6F
100
AcDbEntity
  8
0
 62
     0
100
AcDbLine
 10
-6.75203519374628
 20
730.4800946312309
 30
0.0
 11
336.0132948062537
 21
730.4800946312309
 31
0.0
  0
LINE
  5
219F
330
6F
100
AcDbEntity
  8
0
 62
     0
100
AcDbLine
 10
292.2602948062537
 20
723.4800946312309
 30
0.0
 11
327.5132948062537
 21
723.4800946312309
 31
0.0
  0
LINE
  5
21A0
330
6F
100
AcDbEntity
  8
0
 62
     0
100
AcDbLine
 10
329.5132948062537
 20
721.4800946312309
 30
0.0
 11
329.5132948062537
 21
686.226994631231
 31
0.0
  0
LINE
  5
21A1
330
6F
100
AcDbEntity
  8
0
 62
     0
100
AcDbLine
 10
339.5132948062537
 20
726.9800946312309
 30
0.0
 11
339.5132948062537
 21
623.5782646312308
 31
0.0
  0
LINE
  5
21A2
330
6F
100
AcDbEntity
  8
0
 62
     0
100
AcDbLine
 10
327.5132948062537
 20
684.226994631231
 30
0.0
 11
292.2602948062537
 21
684.226994631231
 31
0.0
  0
LINE
  5
21A3
330
6F
100
AcDbEntity
  8
0
 62
     0
100
AcDbLine
 10
290.2602948062537
 20
686.226994631231
 30
0.0
 11
290.2602948062537
 21
721.4800946312309
 31
0.0
  0
ARC
  5
21A4
330
6F
100
AcDbEntity
  8
0
  6
Continuous
100
AcDbCircle
 10
-6.75203519374628
 20
726.9800946312309
 30
0.0
 40
3.5
100
AcDbArc
 50
90.0
 51
180.0
  0
ARC
  5
21A5
330
6F
100
AcDbEntity
  8
0
  6
Continuous
100
AcDbCircle
 10
-6.75203519374628
 20
623.578264631231
 30
0.0
 40
3.5
100
AcDbArc
 50
180.0
 51
270.0
  0
ARC
  5
21A6
330
6F
100
AcDbEntity
  8
0
  6
Continuous
100
AcDbCircle
 10
336.0132948062537
 20
623.5782646312308
 30
0.0
 40
3.5
100
AcDbArc
 50
270.0
 51
0.0
  0
ARC
  5
21A7
330
6F
100
AcDbEntity
  8
0
  6
Continuous
100
AcDbCircle
 10
336.0132948062537
 20
726.9800946312309
 30
0.0
 40
3.5
100
AcDbArc
 50
0.0
 51
90.0
  0
ARC
  5
21A8
330
6F
100
AcDbEntity
  8
0
  6
Continuous
100
AcDbCircle
 10
1.747964806253719
 20
721.4800946312309
 30
0.0
 40
2.0
100
AcDbArc
 50
90.0
 51
180.0
  0
ARC
  5
21A9
330
6F
100
AcDbEntity
  8
0
  6
Continuous
100
AcDbCircle
 10
1.747964806253719
 20
629.078264631231
 30
0.0
 40
2.0
100
AcDbArc
 50
180.0
 51
270.0
  0
ARC
  5
21AA
330
6F
100
AcDbEntity
  8
0
  6
Continuous
100
AcDbCircle
 10
284.6502948062537
 20
721.4800946312309
 30
0.0
 40
2.0
100
AcDbArc
 50
0.0
 51
90.00000000000161
  0
ARC
  5
21AB
330
6F
100
AcDbEntity
  8
0
  6
Continuous
100
AcDbCircle
 10
292.2602948062537
 20
721.4800946312309
 30
0.0
 40
2.0
100
AcDbArc
 50
90.0
 51
180.0
  0
ARC
  5
21AC
330
6F
100
AcDbEntity
  8
0
  6
Continuous
100
AcDbCircle
 10
292.2602948062537
 20
686.226994631231
 30
0.0
 40
2.0
100
AcDbArc
 50
180.0
 51
270.0
  0
ARC
  5
21AD
330
6F
100
AcDbEntity
  8
0
  6
Continuous
100
AcDbCircle
 10
327.5132948062537
 20
686.226994631231
 30
0.0
 40
2.0
100
AcDbArc
 50
270.0
 51
0.0
  0
ARC
  5
21AE
330
6F
100
AcDbEntity
  8
0
  6
Continuous
100
AcDbCircle
 10
327.5132948062537
 20
721.4800946312309
 30
0.0
 40
2.0
100
AcDbArc
 50
0.0
 51
90.0
  0
ARC
  5
21AF
330
6F
100
AcDbEntity
  8
0
  6
Continuous
100
AcDbCircle
 10
260.8382948062537
 20
629.0782646312309
 30
0.0
 40
2.0
100
AcDbArc
 50
270.0
 51
0.0
  0
ARC
  5
21B0
330
6F
100
AcDbEntity
  8
0
  6
Continuous
100
AcDbCircle
 10
273.2102948062537
 20
629.0782646312309
 30
0.0
 40
2.0
100
AcDbArc
 50
180.0
 51
270.0
  0
ARC
  5
21B1
330
6F
100
AcDbEntity
  8
0
  6
Continuous
100
AcDbCircle
 10
327.5132948062537
 20
629.0782646312309
 30
0.0
 40
2.0
100
AcDbArc
 50
270.0
 51
0.0
  0
ARC
  5
21B2
330
6F
100
AcDbEntity
  8
0
  6
Continuous
100
AcDbCircle
 10
308.4632948062537
 20
664.3283946312309
 30
0.0
 40
2.0
100
AcDbArc
 50
0.0
 51
90.0
  0
ARC
  5
21B3
330
6F
100
AcDbEntity
  8
0
  6
Continuous
100
AcDbCircle
 10
292.2602948062537
 20
664.3283946312309
 30
0.0
 40
2.0
100
AcDbArc
 50
90.0
 51
180.0
  0
ARC
  5
21B4
330
6F
100
AcDbEntity
  8
0
  6
Continuous
100
AcDbCircle
 10
269.2102948062537
 20
644.1268946312309
 30
0.0
 40
2.0
100
AcDbArc
 50
0.0
 51
90.0
  0
ARC
  5
21B5
330
6F
100
AcDbEntity
  8
0
  6
Continuous
100
AcDbCircle
 10
264.8382948062537
 20
644.1268946312309
 30
0.0
 40
2.0
100
AcDbArc
 50
90.0
 51
180.0
  0
ARC
  5
21B6
330
6F
100
AcDbEntity
  8
0
  6
Continuous
100
AcDbCircle
 10
287.6502948062537
 20
648.278294631231
 30
0.0
 40
1.0
100
AcDbArc
 50
180.0
 51
270.0
  0
ARC
  5
21B7
330
6F
100
AcDbEntity
  8
0
  6
Continuous
100
AcDbCircle
 10
289.2602948062537
 20
648.278294631231
 30
0.0
 40
1.0
100
AcDbArc
 50
270.0
 51
0.0
  0
ARC
  5
21B8
330
6F
100
AcDbEntity
  8
0
  6
Continuous
100
AcDbCircle
 10
311.4632948062537
 20
648.2782946312319
 30
0.0
 40
1.0
100
AcDbArc
 50
180.0
 51
270.0000000000033
  0
ARC
  5
21B9
330
6F
100
AcDbEntity
  8
0
  6
Continuous
100
AcDbCircle
 10
327.5132948062537
 20
645.2782946312325
 30
0.0
 40
2.0
100
AcDbArc
 50
0.0
 51
90.0
  0
LWPOLYLINE
  5
2355
330
6F
100
AcDbEntity
  8
BottomSilkLayer
100
AcDbPolyline
 90
        1
 70
     1
 43
0.254
 10
271.1882326540284
 20
-933.8431803198579
  0
LWPOLYLINE
  5
2361
330
6F
100
AcDbEntity
  8
BoardOutLine
100
AcDbPolyline
 90
        3
 70
     0
 43
0.254
 10
-10.85252332284835
 20
487.2426050177464
 10
-10.85252332284835
 20
487.2426050177464
 10
-10.85252332284835
 20
583.6419550177463
  0
LWPOLYLINE
  5
2362
330
6F
100
AcDbEntity
  8
BoardOutLine
100
AcDbPolyline
 90
        3
 70
     0
 43
0.254
 10
-10.85252332284835
 20
583.6419550177463
 10
-10.85252332284835
 20
583.6419550177463
 10
318.9094536771516
 20
583.6419550177463
  0
LWPOLYLINE
  5
2363
330
6F
100
AcDbEntity
  8
BoardOutLine
100
AcDbPolyline
 90
        3
 70
     0
 43
0.254
 10
318.9094536771516
 20
583.6419550177463
 10
318.9094536771516
 20
583.6419550177463
 10
318.9094536771516
 20
487.2426050177464
  0
LWPOLYLINE
  5
2364
330
6F
100
AcDbEntity
  8
BoardOutLine
100
AcDbPolyline
 90
        3
 70
     0
 43
0.254
 10
318.9094536771516
 20
487.2426050177464
 10
318.9094536771516
 20
487.2426050177464
 10
-10.85252332284835
 20
487.2426050177464
  0
LWPOLYLINE
  5
2365
330
6F
100
AcDbEntity
  8
BottomSilkLayer
100
AcDbPolyline
 90
        3
 70
     0
 43
0.254
 10
277.5820280771517
 20
584.9299890177463
 10
268.6420408771517
 20
584.9299890177463
 10
268.6420408771517
 20
583.4486864177462
  0
LWPOLYLINE
  5
2366
330
6F
100
AcDbEntity
  8
BottomSilkLayer
100
AcDbPolyline
 90
        3
 70
     0
 43
0.254
 10
277.5820280771517
 20
584.9299890177463
 10
277.5820280771517
 20
584.9299890177463
 10
277.5820280771517
 20
583.4483308177462
  0
ENDSEC
  0
SECTION
  2
OBJECTS
  0
DICTIONARY
  5
C
330
0
100
AcDbDictionary
281
     1
  3
ACAD_CIP_PREVIOUS_PRODUCT_INFO
350
27A
  3
ACAD_COLOR
350
62
  3
ACAD_DETAILVIEWSTYLE
350
69
  3
ACAD_GROUP
350
D
  3
ACAD_LAYOUT
350
61
  3
ACAD_MATERIAL
350
10
  3
ACAD_MLEADERSTYLE
350
65
  3
ACAD_MLINESTYLE
350
5E
  3
ACAD_PLOTSETTINGS
350
60
  3
ACAD_PLOTSTYLENAME
350
E
  3
ACAD_SCALELIST
350
42
  3
ACAD_SECTIONVIEWSTYLE
350
67
  3
ACAD_TABLESTYLE
350
63
  3
ACAD_VISUALSTYLE
350
29
  3
ACDB_RECOMPOSE_DATA
350
27C3
  3
AcDbVariableDictionary
350
31A
  0
DICTIONARY
  5
298
330
2
100
AcDbDictionary
280
     1
281
     1
  3
ACAD_LAYERSTATES
360
299
  0
DICTIONARY
  5
3E0
330
54
100
AcDbDictionary
280
     1
281
     1
  3
ADSK_XREC_LAYER_RECONCILED
360
3E1
  0
DICTIONARY
  5
3E2
330
300
100
AcDbDictionary
280
     1
281
     1
  3
ADSK_XREC_LAYER_RECONCILED
360
3E3
  0
DICTIONARY
  5
3E4
330
301
100
AcDbDictionary
280
     1
281
     1
  3
ADSK_XREC_LAYER_RECONCILED
360
3E5
  0
DICTIONARY
  5
3E6
330
324
100
AcDbDictionary
280
     1
281
     1
  3
ADSK_XREC_LAYER_RECONCILED
360
3E7
  0
DICTIONARY
  5
3DC
330
6F
100
AcDbDictionary
280
     1
281
     1
  3
ACAD_SORTENTS
360
3DD
  0
XRECORD
  5
27A
102
{ACAD_REACTORS
330
C
102
}
330
C
100
AcDbXrecord
280
     1
300
ACDMAC
300
2022
300
ACDMAC_F_S
  0
DICTIONARY
  5
62
102
{ACAD_REACTORS
330
C
102
}
330
C
100
AcDbDictionary
281
     1
  0
DICTIONARY
  5
69
102
{ACAD_REACTORS
330
C
102
}
330
C
100
AcDbDictionary
281
     1
  3
Imperial24
350
6A
  3
Metric50
350
2344
  0
DICTIONARY
  5
D
102
{ACAD_REACTORS
330
C
102
}
330
C
100
AcDbDictionary
281
     1
  0
DICTIONARY
  5
61
102
{ACAD_REACTORS
330
C
102
}
330
C
100
AcDbDictionary
281
     1
  3
Model
350
72
  3
布局1
350
6E
  0
DICTIONARY
  5
10
102
{ACAD_REACTORS
330
C
102
}
330
C
100
AcDbDictionary
281
     1
  3
ByBlock
350
19
  3
ByLayer
350
11
  3
Global
350
21
  0
DICTIONARY
  5
65
102
{ACAD_REACTORS
330
C
102
}
330
C
100
AcDbDictionary
281
     1
  3
Standard
350
66
  0
DICTIONARY
  5
5E
102
{ACAD_REACTORS
330
C
102
}
330
C
100
AcDbDictionary
281
     1
  3
Standard
350
5F
  0
DICTIONARY
  5
60
102
{ACAD_REACTORS
330
C
102
}
330
C
100
AcDbDictionary
281
     1
  0
ACDBDICTIONARYWDFLT
  5
E
102
{ACAD_REACTORS
330
C
102
}
330
C
100
AcDbDictionary
281
     1
  3
Normal
350
F
100
AcDbDictionaryWithDefault
340
F
  0
DICTIONARY
  5
42
102
{ACAD_REACTORS
330
C
102
}
330
C
100
AcDbDictionary
281
     1
  3
A0
350
43
  3
A1
350
44
  3
A2
350
45
  3
A3
350
46
  3
A4
350
47
  3
A5
350
48
  3
A6
350
49
  3
A7
350
4A
  3
A8
350
4B
  3
A9
350
4C
  3
B0
350
4D
  3
B1
350
4E
  3
B2
350
4F
  3
B3
350
50
  3
B4
350
51
  3
B5
350
52
  3
B6
350
53
  0
DICTIONARY
  5
67
102
{ACAD_REACTORS
330
C
102
}
330
C
100
AcDbDictionary
281
     1
  3
Imperial24
350
68
  3
Metric50
350
2343
  0
DICTIONARY
  5
63
102
{ACAD_REACTORS
330
C
102
}
330
C
100
AcDbDictionary
281
     1
  3
Standard
350
64
  0
DICTIONARY
  5
29
102
{ACAD_REACTORS
330
C
102
}
330
C
100
AcDbDictionary
281
     1
  3
2dWireframe
350
2F
  3
Basic
350
2E
  3
Brighten
350
35
  3
ColorChange
350
39
  3
Conceptual
350
32
  3
Dim
350
34
  3
EdgeColorOff
350
41
  3
Facepattern
350
38
  3
Flat
350
2A
  3
FlatWithEdges
350
2B
  3
Gouraud
350
2C
  3
GouraudWithEdges
350
2D
  3
Hidden
350
31
  3
JitterOff
350
3F
  3
Linepattern
350
37
  3
OverhangOff
350
40
  3
Realistic
350
33
  3
Shaded
350
3E
  3
Shaded with edges
350
3D
  3
Shades of Gray
350
3A
  3
Sketchy
350
3B
  3
Thicken
350
36
  3
Wireframe
350
30
  3
X-Ray
350
3C
  0
XRECORD
  5
27C3
102
{ACAD_REACTORS
330
C
102
}
330
C
100
AcDbXrecord
280
     1
 90
        1
330
64
  0
DICTIONARY
  5
31A
102
{ACAD_REACTORS
330
C
102
}
330
C
100
AcDbDictionary
281
     1
  3
CANNOSCALE
350
320
  3
CMLEADERSTYLE
350
31C
  3
CTABLESTYLE
350
31B
  3
CVIEWDETAILSTYLE
350
31D
  3
CVIEWSECTIONSTYLE
350
31E
  3
LAYEREVAL
350
322
  3
LAYERNOTIFY
350
323
  3
LIGHTINGUNITS
350
321
  3
MSLTSCALE
350
31F
  0
DICTIONARY
  5
299
102
{ACAD_REACTORS
330
298
102
}
330
298
100
AcDbDictionary
281
     1
  0
XRECORD
  5
3E1
102
{ACAD_REACTORS
330
3E0
102
}
330
3E0
100
AcDbXrecord
280
     1
290
     1
  0
XRECORD
  5
3E3
102
{ACAD_REACTORS
330
3E2
102
}
330
3E2
100
AcDbXrecord
280
     1
290
     1
  0
XRECORD
  5
3E5
102
{ACAD_REACTORS
330
3E4
102
}
330
3E4
100
AcDbXrecord
280
     1
290
     1
  0
XRECORD
  5
3E7
102
{ACAD_REACTORS
330
3E6
102
}
330
3E6
100
AcDbXrecord
280
     1
290
     1
  0
SORTENTSTABLE
  5
3DD
102
{ACAD_REACTORS
330
3DC
102
}
330
3DC
100
AcDbSortentsTable
330
6F
331
1C98
  5
1CC2
331
1C99
  5
1CC3
331
1C9A
  5
1CC4
331
1C9B
  5
1CC5
331
1C9C
  5
1CC6
331
1C9D
  5
1CC7
331
1C9E
  5
1CC8
331
1C9F
  5
1CC9
331
1CA0
  5
1CCA
331
1CA1
  5
1CCB
331
1CA2
  5
1CCC
331
1CA3
  5
1CCD
331
1CA4
  5
1CCE
331
1CA5
  5
1CCF
331
1CA6
  5
1CD0
331
1CA7
  5
1CD1
331
1CA8
  5
1CD2
331
1CA9
  5
1CD3
331
1CAA
  5
1CD4
331
1CAB
  5
1CD5
331
1CAC
  5
1CD6
331
1CAD
  5
1CD7
331
1CAE
  5
1CD8
331
1CAF
  5
1CD9
331
1CB0
  5
1CDA
331
1CB1
  5
1CDB
331
1CB2
  5
1CDC
331
1CB3
  5
1CDD
331
1CB4
  5
1CDE
331
1CB5
  5
1CDF
331
1CB6
  5
1CE0
331
1CB7
  5
1CE1
331
1CB8
  5
1CE2
331
1CB9
  5
1CE3
331
1CBA
  5
1CE4
331
1CBB
  5
1CE5
331
1CBC
  5
1CE6
331
1CBD
  5
1CE7
331
1CBE
  5
1CE8
331
1CBF
  5
1CE9
331
1CC0
  5
1CEA
331
1CC1
  5
1CEB
331
1CC2
  5
1CEC
331
1CC3
  5
1CED
331
1CC4
  5
1CEE
331
1CC5
  5
1CEF
331
1CC6
  5
1CF0
331
1CC7
  5
1CF1
331
1CC8
  5
1CF2
331
1CC9
  5
1CF3
331
1CCA
  5
1CF4
331
1CCB
  5
1CF5
331
1CCC
  5
1CF6
331
1CCD
  5
1CF7
331
1CCE
  5
1CF8
331
1CCF
  5
1CF9
331
1CD0
  5
1CFA
331
1CD1
  5
1CFB
331
1CD2
  5
1CFC
331
1CD3
  5
1CFD
331
1CD4
  5
1CFE
331
1CD5
  5
1CFF
331
1CD6
  5
1D00
331
1CD7
  5
1D01
331
1CD8
  5
1D02
331
1CD9
  5
1D03
331
1CDA
  5
1D04
331
1CDB
  5
1D05
331
1CDC
  5
1D06
331
1CDD
  5
1D07
331
1CDE
  5
1D08
331
1CDF
  5
1D09
331
1CE0
  5
1D0A
331
1CE1
  5
1D0B
331
1CE2
  5
1D0C
331
1CE3
  5
1D0D
331
1CE4
  5
1D0E
331
1CE5
  5
1D0F
331
1CE6
  5
1D10
331
1CE7
  5
1D11
331
1CE8
  5
1D12
331
1CE9
  5
1D13
331
1CEA
  5
1D14
331
1CEB
  5
1D15
331
1CEC
  5
1D16
331
1CED
  5
1D17
331
1CEE
  5
1D18
331
1CEF
  5
1D19
331
1CF0
  5
1D1A
331
1CF1
  5
1D1B
331
1CF2
  5
1D1C
331
1CF3
  5
1D1D
331
1CF4
  5
1D1E
331
1CF5
  5
1D1F
331
1CF6
  5
1D20
331
1CF7
  5
1D21
331
1CF8
  5
1D22
331
1CF9
  5
1D23
331
1CFA
  5
1D24
331
1CFB
  5
1D25
331
1CFC
  5
1D26
331
1CFD
  5
1D27
331
1CFE
  5
1D28
331
1CFF
  5
1D29
331
1D00
  5
1D2A
331
1D01
  5
1D2B
331
1D02
  5
1D2C
331
1D03
  5
1D2D
331
1D04
  5
1D2E
331
1D05
  5
1D2F
331
1D06
  5
1D30
331
1D07
  5
1D31
331
1D08
  5
1D32
331
1D09
  5
1D33
331
1D0A
  5
1D34
331
1D0B
  5
1D35
331
1D0C
  5
1D36
331
1D0D
  5
1D37
331
1D0E
  5
1D38
331
1D0F
  5
1D39
331
1D10
  5
1D3A
331
1D11
  5
1D3B
331
1D12
  5
1D3C
331
1D13
  5
1D3D
331
1D14
  5
1D3E
331
1D15
  5
1D3F
331
1D16
  5
1D40
331
1D17
  5
1D41
331
1D18
  5
1D42
331
1D19
  5
1D43
331
1D1A
  5
1D44
331
1D1B
  5
1D45
331
1D1C
  5
1D46
331
1D1D
  5
1D47
331
1D1E
  5
1D48
331
1D1F
  5
1D49
331
1D20
  5
1D4A
331
1D21
  5
1D4B
331
1D22
  5
1D4C
331
1D23
  5
1D4D
331
1D24
  5
1D4E
331
1D25
  5
1D4F
331
1D26
  5
1D50
331
1D27
  5
1D51
331
1D28
  5
1D52
331
1D29
  5
1D53
331
1D2A
  5
1D54
331
1D2B
  5
1D55
331
1D2C
  5
1D56
331
1D2D
  5
1D57
331
1D2E
  5
1D58
331
1D2F
  5
1D59
331
1D30
  5
1D5A
331
1D31
  5
1D5B
331
1D32
  5
1D5C
331
1D33
  5
1D5D
331
1D34
  5
1D5E
331
1D35
  5
1D5F
331
1D36
  5
1D60
331
1D37
  5
1D61
331
1D38
  5
1D62
331
1D39
  5
1D63
331
1D3A
  5
1D64
331
1D3B
  5
1D65
331
1D3C
  5
1D66
331
1D3D
  5
1D67
331
1D3E
  5
1D68
331
1D3F
  5
1D69
331
1D40
  5
1D6A
331
1D41
  5
1D6B
331
1D42
  5
1D6C
331
1D43
  5
1D6D
331
1D44
  5
1D6E
331
1D45
  5
1D6F
331
1D46
  5
1D70
331
1D47
  5
1D71
331
1D48
  5
1D72
331
1D49
  5
1D73
331
1D4A
  5
1D74
331
1D4B
  5
1D75
331
1D4C
  5
1D76
331
1D4D
  5
1D77
331
1D4E
  5
1D78
331
1D4F
  5
1D79
331
1D50
  5
1D7A
331
1D51
  5
1D7B
331
1D52
  5
1D7C
331
1D53
  5
1D7D
331
1D54
  5
1D7E
331
1D55
  5
1D7F
331
1D56
  5
1D80
331
1D57
  5
1D81
331
1D58
  5
1D82
331
1D59
  5
1D83
331
1D5A
  5
1D84
331
1D5B
  5
1D85
331
1D5C
  5
1D86
331
1D5D
  5
1D87
331
1D5E
  5
1D88
331
1D5F
  5
1D89
331
1D60
  5
1D8A
331
1D61
  5
1D8B
331
1D62
  5
1D8C
331
1D63
  5
1D8D
331
1D64
  5
1D8E
331
1D65
  5
1D8F
331
1D66
  5
1D90
331
1D67
  5
1D91
331
1D68
  5
1D92
331
1D69
  5
1D93
331
1D6A
  5
1D94
331
1D6B
  5
1D95
331
1D6C
  5
1D96
331
1D6D
  5
1D97
331
1D6E
  5
1D98
331
1D6F
  5
1D99
331
1D70
  5
1D9A
331
1D71
  5
1D9B
331
1D72
  5
1D9C
331
1D73
  5
1D9D
331
1D74
  5
1D9E
331
1D75
  5
1D9F
331
1D76
  5
1DA0
331
1D77
  5
1DA1
331
1D78
  5
1DA2
331
1D79
  5
1DA3
331
1D7A
  5
1DA4
331
1D7B
  5
1DA5
331
1D7C
  5
1DA6
331
1D7D
  5
1DA7
331
1D7E
  5
1DA8
331
1D7F
  5
1DA9
331
1D80
  5
1DAA
331
1D81
  5
1DAB
331
1D82
  5
1DAC
331
1D83
  5
1DAD
331
1D84
  5
1DAE
331
1D85
  5
1DAF
331
1D86
  5
1DB0
331
1D87
  5
1DB1
331
1D88
  5
1DB2
331
1D89
  5
1DB3
331
1D8A
  5
1DB4
331
1D8B
  5
1DB5
331
1D8C
  5
1DB6
331
1D8D
  5
1DB7
331
1D8E
  5
1DB8
331
1D8F
  5
1DB9
331
1D90
  5
1DBA
331
1D91
  5
1DBB
331
1D92
  5
1DBC
331
1D93
  5
1DBD
331
1D94
  5
1DBE
331
1D95
  5
1DBF
331
1D96
  5
1DC0
331
1D97
  5
1DC1
331
1D98
  5
1DC2
331
1D99
  5
1DC3
331
1D9A
  5
1DC4
331
1D9B
  5
1DC5
331
1D9C
  5
1DC6
331
1D9D
  5
1DC7
331
1D9E
  5
1DC8
331
1D9F
  5
1DC9
331
1DA0
  5
1DCA
331
1DA1
  5
1DCB
331
1DA2
  5
1DCC
331
1DA3
  5
1DCD
331
1DA4
  5
1DCE
331
1DA5
  5
1DCF
331
1DA6
  5
1DD0
331
1DA7
  5
1DD1
331
1DA8
  5
1DD2
331
1DA9
  5
1DD3
331
1DAA
  5
1DD4
331
1DAB
  5
1DD5
331
1DAC
  5
1DD6
331
1DAD
  5
1DD7
331
1DAE
  5
1DD8
331
1DAF
  5
1DD9
331
1DB0
  5
1DDA
331
1DB1
  5
1DDB
331
1DB2
  5
1DDC
331
1DB3
  5
1DDD
331
1DB4
  5
1DDE
331
1DB5
  5
1DDF
331
1DB6
  5
1DE0
331
1DB7
  5
1DE1
331
1DB8
  5
1DE2
331
1DB9
  5
1DE3
331
1DBA
  5
1DE4
331
1DBB
  5
1DE5
331
1DBC
  5
1DE6
331
1DBD
  5
1DE7
331
1DBE
  5
1DE8
331
1DBF
  5
1DE9
331
1DC0
  5
1DEA
331
1DC1
  5
1DEB
331
1DC2
  5
1DEC
331
1DC3
  5
1DED
331
1DC4
  5
1DEE
331
1DC5
  5
1DEF
331
1DC6
  5
1DF0
331
1DC7
  5
1DF1
331
1DC8
  5
1DF2
331
1DC9
  5
1DF3
331
1DCA
  5
1DF4
331
1DCB
  5
1DF5
331
1DCC
  5
1DF6
331
1DCD
  5
1DF7
331
1DCE
  5
1DF8
331
1DCF
  5
1DF9
331
1DD0
  5
1DFA
331
1DD1
  5
1DFB
331
1DD2
  5
1DFC
331
1DD3
  5
1DFD
331
1DD4
  5
1DFE
331
1DD5
  5
1DFF
331
1DD6
  5
1E00
331
1DD7
  5
1E01
331
1DD8
  5
1E02
331
1DD9
  5
1E03
331
1DDA
  5
1E04
331
1DDB
  5
1E05
331
1DDC
  5
1E06
331
1DDD
  5
1E07
331
1DDE
  5
1E08
331
1DDF
  5
1E09
331
1DE0
  5
1E0A
331
1DE1
  5
1E0B
331
1DE2
  5
1E0C
331
1DE3
  5
1E0D
331
1DE4
  5
1E0E
331
1DE5
  5
1E0F
331
1DE6
  5
1E10
331
1DE7
  5
1E11
331
1DE8
  5
1E12
331
1DE9
  5
1E13
331
1DEA
  5
1E14
331
1DEB
  5
1E15
331
1DEC
  5
1E16
331
1DED
  5
1E17
331
1DEE
  5
1E18
331
1DEF
  5
1E19
331
1DF0
  5
1E1A
331
1DF1
  5
1E1B
331
1DF2
  5
1E1C
331
1DF3
  5
1E1D
331
1DF4
  5
1E1E
331
1DF5
  5
1E1F
331
1DF6
  5
1E20
331
1DF7
  5
1E21
331
1DF8
  5
1E22
331
1DF9
  5
1E23
331
1DFA
  5
1E24
331
1DFB
  5
1E25
331
1DFC
  5
1E26
331
1DFD
  5
1E27
331
1DFE
  5
1E28
331
1DFF
  5
1E29
331
1E00
  5
1E2A
331
1E01
  5
1E2B
331
1E02
  5
1E2C
331
1E03
  5
1E2D
331
1E04
  5
1E2E
331
1E05
  5
1E2F
331
1E06
  5
1E30
331
1E07
  5
1E31
331
1E08
  5
1E32
331
1E09
  5
1E33
331
1E0A
  5
1E34
331
1E0B
  5
1E35
331
1E0C
  5
1E36
331
1E0D
  5
1E37
331
1E0E
  5
1E38
331
1E0F
  5
1E39
331
1E10
  5
1E3A
331
1E11
  5
1E3B
331
1E12
  5
1E3C
331
1E13
  5
1E3D
331
1E14
  5
1E3E
331
1E15
  5
1E3F
331
1E16
  5
1E40
331
1E17
  5
1E41
331
1E18
  5
1E42
331
1E19
  5
1E43
331
1E1A
  5
1E44
331
1E1B
  5
1E45
331
1E1C
  5
1E46
331
1E1D
  5
1E47
331
1E1E
  5
1E48
331
1E1F
  5
1E49
331
1E20
  5
1E4A
331
1E21
  5
1E4B
331
1E22
  5
1E4C
331
1E23
  5
1E4D
331
1E24
  5
1E4E
331
1E25
  5
1E4F
331
1E26
  5
1E50
331
1E27
  5
1E51
331
1E28
  5
1E52
331
1E29
  5
1E53
331
1E2A
  5
1E54
331
1E2B
  5
1E55
331
1E2C
  5
1E56
331
1E2D
  5
1E57
331
1E2E
  5
1E58
331
1E2F
  5
1E59
331
1E30
  5
1E5A
331
1E31
  5
1E5B
331
1E32
  5
1E5C
331
1E33
  5
1E5D
331
1E34
  5
1E5E
331
1E35
  5
1E5F
331
1E36
  5
1E60
331
1E37
  5
1E61
331
1E38
  5
1E62
331
1E39
  5
1E63
331
1E3A
  5
1E64
331
1E3B
  5
1E65
331
1E3C
  5
1E66
331
1E3D
  5
1E67
331
1E3E
  5
1E68
331
1E3F
  5
1E69
331
1E40
  5
1E6A
331
1E41
  5
1E6B
331
1E42
  5
1E6C
331
1E43
  5
1E6D
331
1E44
  5
1E6E
331
1E45
  5
1E6F
331
1E46
  5
1E70
331
1E47
  5
1E71
331
1E48
  5
1E72
331
1E49
  5
1E73
331
1E4A
  5
1E74
331
1E4B
  5
1E75
331
1E4C
  5
1E76
331
1E4D
  5
1E77
331
1E4E
  5
1E78
331
1E4F
  5
1E79
331
1E50
  5
1E7A
331
1E51
  5
1E7B
331
1E52
  5
1E7C
331
1E53
  5
1E7D
331
1E54
  5
1E7E
331
1E55
  5
1E7F
331
1E56
  5
1E80
331
1E57
  5
1E81
331
1E58
  5
1E82
331
1E59
  5
1E83
331
1E5A
  5
1E84
331
1E5B
  5
1E85
331
1E5C
  5
1E86
331
1E5D
  5
1E87
331
1E5E
  5
1E88
331
1E5F
  5
1E89
331
1E60
  5
1E8A
331
1E61
  5
1E8B
331
1E62
  5
1E8C
331
1E63
  5
1E8D
331
1E64
  5
1E8E
331
1E65
  5
1E8F
331
1E66
  5
1E90
331
1E67
  5
1E91
331
1E68
  5
1E92
331
1E69
  5
1E93
331
1E6A
  5
1E94
331
1E6B
  5
1E95
331
1E6C
  5
1E96
331
1E6D
  5
1E98
331
1E6E
  5
1E99
331
1E6F
  5
1E9A
331
1E70
  5
1E9B
331
1E71
  5
1E9C
331
1E72
  5
1E9D
331
1E73
  5
1E9E
331
1E74
  5
1E9F
331
1E75
  5
1EA0
331
1E76
  5
1EA1
331
1E77
  5
1EA2
331
1E78
  5
1EA3
331
1E79
  5
1EA5
331
1E7A
  5
1EA7
331
1E7B
  5
1EA9
331
1E7C
  5
1EAA
331
1E7D
  5
1EAB
331
1E7E
  5
1EAC
331
1E7F
  5
1EAD
331
1E80
  5
1EAE
331
1E81
  5
1EAF
331
1E82
  5
1EB0
331
1E83
  5
1EB1
331
1E84
  5
1EB2
331
1E85
  5
1EB3
331
1E86
  5
1EB4
331
1E87
  5
1EB5
331
1E88
  5
1EB6
331
1E89
  5
1EB8
331
215B
  5
216C
331
215C
  5
216D
331
215D
  5
216E
331
215E
  5
216F
331
215F
  5
2170
331
2160
  5
2171
331
2161
  5
2172
331
2162
  5
2173
331
2163
  5
2174
331
2164
  5
2175
331
2165
  5
2176
331
2166
  5
2177
331
2167
  5
2178
331
2168
  5
2179
331
2169
  5
217A
331
216A
  5
217B
331
216B
  5
217C
331
216C
  5
217D
331
216D
  5
217E
331
216E
  5
217F
331
216F
  5
2180
331
2170
  5
2181
331
2171
  5
2182
331
2172
  5
2183
331
2173
  5
2184
331
2174
  5
2185
331
2175
  5
2186
331
2176
  5
2187
331
2177
  5
2188
331
2178
  5
2189
331
2179
  5
218A
331
217A
  5
218B
331
217B
  5
218C
331
217C
  5
218D
331
217D
  5
218E
331
217E
  5
218F
331
217F
  5
2190
331
2180
  5
2191
331
2181
  5
2192
331
2182
  5
2193
331
2183
  5
2194
331
2184
  5
2195
331
2185
  5
2196
331
2186
  5
2197
331
2187
  5
2198
331
2188
  5
2199
331
2189
  5
219A
331
218A
  5
219B
331
218B
  5
219C
331
218C
  5
219D
331
218D
  5
219E
331
218E
  5
219F
331
218F
  5
21A0
331
2190
  5
21A1
331
2191
  5
21A2
331
2192
  5
21A3
331
2193
  5
21A4
331
2194
  5
21A5
331
2195
  5
21A6
331
2196
  5
21A7
331
2197
  5
21A8
331
2198
  5
21A9
331
2199
  5
21AA
331
219A
  5
21AB
331
219B
  5
21AC
331
219C
  5
21AD
331
219D
  5
21AE
331
219E
  5
21AF
331
219F
  5
21B0
331
21A0
  5
21B1
331
21A1
  5
21B2
331
21A2
  5
21B3
331
21A3
  5
21B4
331
21A4
  5
21B5
331
21A5
  5
21B6
331
21A6
  5
21B7
331
21A7
  5
21B8
331
21A8
  5
21B9
331
21A9
  5
21EC
331
21AA
  5
21EE
331
21AB
  5
21EF
331
21AC
  5
21F1
331
21AD
  5
21F2
331
21AE
  5
21F3
331
21AF
  5
21F4
331
21B0
  5
21F5
331
21B1
  5
21F6
331
21B2
  5
21F7
331
21B3
  5
21F8
331
21B4
  5
21FB
331
21B5
  5
2201
331
21B6
  5
2203
331
21B7
  5
2204
331
21B8
  5
2205
331
21B9
  5
220A
331
2355
  5
2393
331
2361
  5
2394
331
2362
  5
2395
331
2363
  5
2396
331
2364
  5
2397
331
2365
  5
2398
331
2366
  5
2399
  0
ACDBDETAILVIEWSTYLE
  5
6A
102
{ACAD_REACTORS
330
69
102
}
330
69
100
AcDbModelDocViewStyle
 70
     0
  3
Imperial24
290
     0
300
Imperial24
 90
        0
100
AcDbDetailViewStyle
 70
     0
 71
     0
 90
        3
 71
     1
340
55
 62
   256
 40
0.24
340
0
 62
   256
 40
0.24
300

 40
0.36
280
     3
 71
     2
340
5C
 90
       25
 62
   256
 71
     3
340
55
 62
   256
 40
0.24
 90
        1
 40
0.75
 90
        1
300
%<\AcVar ViewType \f "%tc1">% %<\AcVar ViewDetailId>%\PSCALE %<\AcVar ViewScale \f "%sn">%
 71
     4
340
5C
 90
       25
 62
   256
340
5C
 90
       25
 62
   256
280
     0
  0
ACDBDETAILVIEWSTYLE
  5
2344
102
{ACAD_REACTORS
330
69
102
}
330
69
100
AcDbModelDocViewStyle
 70
     0
  3
Metric50
290
     0
300
Metric50
 90
        0
100
AcDbDetailViewStyle
 70
     0
 71
     0
 90
        3
 71
     1
340
55
 62
   256
 40
5.0
340
0
 62
   256
 40
5.0
300

 40
0.0
280
     1
 71
     2
340
5C
 90
       25
 62
   256
 71
     3
340
55
 62
   256
 40
5.0
 90
        0
 40
15.0
 90
        1
300
%<\AcVar ViewDetailId>% (%<\AcVar ViewScale \f "%sn">%)
 71
     4
340
5C
 90
       25
 62
   256
340
5C
 90
       25
 62
   256
280
     0
  0
LAYOUT
  5
72
102
{ACAD_REACTORS
330
61
102
}
330
61
100
AcDbPlotSettings
  1

  2

  4

  6

 40
0.0
 41
0.0
 42
0.0
 43
0.0
 44
0.0
 45
0.0
 46
0.0
 47
0.0
 48
0.0
 49
0.0
140
0.0
141
0.0
142
1.0
143
1.0
 70
  1712
 72
     0
 73
     0
 74
     0
  7

 75
     0
147
1.0
 76
     0
 77
     2
 78
   300
148
0.0
149
0.0
100
AcDbLayout
  1
Model
 70
     1
 71
     0
 10
0.0
 20
0.0
 11
12.0
 21
9.0
 12
0.0
 22
0.0
 32
0.0
 14
0.0
 24
0.0
 34
0.0
 15
0.0
 25
0.0
 35
0.0
146
0.0
 13
0.0
 23
0.0
 33
0.0
 16
1.0
 26
0.0
 36
0.0
 17
0.0
 27
1.0
 37
0.0
 76
     0
330
6F
331
74
  0
LAYOUT
  5
6E
102
{ACAD_REACTORS
330
61
102
}
330
61
100
AcDbPlotSettings
  1

  2

  4

  6

 40
0.0
 41
0.0
 42
0.0
 43
0.0
 44
0.0
 45
0.0
 46
0.0
 47
0.0
 48
0.0
 49
0.0
140
0.0
141
0.0
142
1.0
143
1.0
 70
   688
 72
     0
 73
     0
 74
     5
  7

 75
    16
147
1.0
 76
     0
 77
     2
 78
   300
148
0.0
149
0.0
100
AcDbLayout
  1
布局1
 70
     1
 71
     1
 10
0.0
 20
0.0
 11
12.0
 21
9.0
 12
0.0
 22
0.0
 32
0.0
 14
1.000000000000000E+20
 24
1.000000000000000E+20
 34
1.000000000000000E+20
 15
-1.000000000000000E+20
 25
-1.000000000000000E+20
 35
-1.000000000000000E+20
146
0.0
 13
0.0
 23
0.0
 33
0.0
 16
1.0
 26
0.0
 36
0.0
 17
0.0
 27
1.0
 37
0.0
 76
     0
330
6B
  0
MATERIAL
  5
19
102
{ACAD_XDICTIONARY
360
1A
102
}
102
{ACAD_REACTORS
330
10
102
}
330
10
100
AcDbMaterial
  1
ByBlock
 72
     0
 43
0.0208333333333333
 43
0.0
 43
0.0
 43
0.0
 43
0.0
 43
0.0208333333333333
 43
0.0
 43
0.0
 43
0.0
 43
0.0
 43
1.0
 43
0.0
 43
0.0
 43
0.0
 43
0.0
 43
1.0
 77
     0
 47
0.0208333333333333
 47
0.0
 47
0.0
 47
0.0
 47
0.0
 47
0.0208333333333333
 47
0.0
 47
0.0
 47
0.0
 47
0.0
 47
1.0
 47
0.0
 47
0.0
 47
0.0
 47
0.0
 47
1.0
171
     0
 49
0.0208333333333333
 49
0.0
 49
0.0
 49
0.0
 49
0.0
 49
0.0208333333333333
 49
0.0
 49
0.0
 49
0.0
 49
0.0
 49
1.0
 49
0.0
 49
0.0
 49
0.0
 49
0.0
 49
1.0
175
     0
142
0.0208333333333333
142
0.0
142
0.0
142
0.0
142
0.0
142
0.0208333333333333
142
0.0
142
0.0
142
0.0
142
0.0
142
1.0
142
0.0
142
0.0
142
0.0
142
0.0
142
1.0
179
     0
144
0.0208333333333333
144
0.0
144
0.0
144
0.0
144
0.0
144
0.0208333333333333
144
0.0
144
0.0
144
0.0
144
0.0
144
1.0
144
0.0
144
0.0
144
0.0
144
0.0
144
1.0
147
0.0208333333333333
147
0.0
147
0.0
147
0.0
147
0.0
147
0.0208333333333333
147
0.0
147
0.0
147
0.0
147
0.0
147
1.0
147
0.0
147
0.0
147
0.0
147
0.0
147
1.0
  0
MATERIAL
  5
11
102
{ACAD_XDICTIONARY
360
12
102
}
102
{ACAD_REACTORS
330
10
102
}
330
10
100
AcDbMaterial
  1
ByLayer
 72
     0
 43
0.0208333333333333
 43
0.0
 43
0.0
 43
0.0
 43
0.0
 43
0.0208333333333333
 43
0.0
 43
0.0
 43
0.0
 43
0.0
 43
1.0
 43
0.0
 43
0.0
 43
0.0
 43
0.0
 43
1.0
 77
     0
 47
0.0208333333333333
 47
0.0
 47
0.0
 47
0.0
 47
0.0
 47
0.0208333333333333
 47
0.0
 47
0.0
 47
0.0
 47
0.0
 47
1.0
 47
0.0
 47
0.0
 47
0.0
 47
0.0
 47
1.0
171
     0
 49
0.0208333333333333
 49
0.0
 49
0.0
 49
0.0
 49
0.0
 49
0.0208333333333333
 49
0.0
 49
0.0
 49
0.0
 49
0.0
 49
1.0
 49
0.0
 49
0.0
 49
0.0
 49
0.0
 49
1.0
175
     0
142
0.0208333333333333
142
0.0
142
0.0
142
0.0
142
0.0
142
0.0208333333333333
142
0.0
142
0.0
142
0.0
142
0.0
142
1.0
142
0.0
142
0.0
142
0.0
142
0.0
142
1.0
179
     0
144
0.0208333333333333
144
0.0
144
0.0
144
0.0
144
0.0
144
0.0208333333333333
144
0.0
144
0.0
144
0.0
144
0.0
144
1.0
144
0.0
144
0.0
144
0.0
144
0.0
144
1.0
147
0.0208333333333333
147
0.0
147
0.0
147
0.0
147
0.0
147
0.0208333333333333
147
0.0
147
0.0
147
0.0
147
0.0
147
1.0
147
0.0
147
0.0
147
0.0
147
0.0
147
1.0
  0
MATERIAL
  5
21
102
{ACAD_XDICTIONARY
360
22
102
}
102
{ACAD_REACTORS
330
10
102
}
330
10
100
AcDbMaterial
  1
Global
 72
     0
 43
0.0208333333333333
 43
0.0
 43
0.0
 43
0.0
 43
0.0
 43
0.0208333333333333
 43
0.0
 43
0.0
 43
0.0
 43
0.0
 43
1.0
 43
0.0
 43
0.0
 43
0.0
 43
0.0
 43
1.0
 77
     0
 47
0.0208333333333333
 47
0.0
 47
0.0
 47
0.0
 47
0.0
 47
0.0208333333333333
 47
0.0
 47
0.0
 47
0.0
 47
0.0
 47
1.0
 47
0.0
 47
0.0
 47
0.0
 47
0.0
 47
1.0
171
     0
 49
0.0208333333333333
 49
0.0
 49
0.0
 49
0.0
 49
0.0
 49
0.0208333333333333
 49
0.0
 49
0.0
 49
0.0
 49
0.0
 49
1.0
 49
0.0
 49
0.0
 49
0.0
 49
0.0
 49
1.0
175
     0
142
0.0208333333333333
142
0.0
142
0.0
142
0.0
142
0.0
142
0.0208333333333333
142
0.0
142
0.0
142
0.0
142
0.0
142
1.0
142
0.0
142
0.0
142
0.0
142
0.0
142
1.0
179
     0
144
0.0208333333333333
144
0.0
144
0.0
144
0.0
144
0.0
144
0.0208333333333333
144
0.0
144
0.0
144
0.0
144
0.0
144
1.0
144
0.0
144
0.0
144
0.0
144
0.0
144
1.0
147
0.0208333333333333
147
0.0
147
0.0
147
0.0
147
0.0
147
0.0208333333333333
147
0.0
147
0.0
147
0.0
147
0.0
147
1.0
147
0.0
147
0.0
147
0.0
147
0.0
147
1.0
  0
MLEADERSTYLE
  5
66
102
{ACAD_REACTORS
330
65
102
}
330
65
100
AcDbMLeaderStyle
179
     2
170
     2
171
     1
172
     0
 90
        2
 40
0.0
 41
0.0
173
     1
 91
-1056964608
340
5A
 92
       -2
290
     1
 42
0.09
291
     1
 43
0.36
  3
Standard
 44
0.18
300

342
55
174
     1
178
     6
175
     1
176
     0
 93
-1056964608
 45
0.18
292
     0
297
     0
 46
0.18
 94
-1056964608
 47
1.0
 49
1.0
140
1.0
293
     1
141
0.0
294
     1
177
     0
142
1.0
295
     0
296
     0
143
0.125
271
     0
272
     9
273
     9
298
     0
  0
MLINESTYLE
  5
5F
102
{ACAD_REACTORS
330
5E
102
}
330
5E
100
AcDbMlineStyle
  2
STANDARD
 70
     0
  3

 62
   256
 51
90.0
 52
90.0
 71
     2
 49
0.5
 62
   256
  6
BYLAYER
 49
-0.5
 62
   256
  6
BYLAYER
  0
ACDBPLACEHOLDER
  5
F
102
{ACAD_REACTORS
330
E
102
}
330
E
  0
SCALE
  5
43
102
{ACAD_REACTORS
330
42
102
}
330
42
100
AcDbScale
 70
     0
300
1:1
140
1.0
141
1.0
290
     1
  0
SCALE
  5
44
102
{ACAD_REACTORS
330
42
102
}
330
42
100
AcDbScale
 70
     0
300
1/128" = 1'-0"
140
0.0078125
141
12.0
290
     0
  0
SCALE
  5
45
102
{ACAD_REACTORS
330
42
102
}
330
42
100
AcDbScale
 70
     0
300
1/64" = 1'-0"
140
0.015625
141
12.0
290
     0
  0
SCALE
  5
46
102
{ACAD_REACTORS
330
42
102
}
330
42
100
AcDbScale
 70
     0
300
1/32" = 1'-0"
140
0.03125
141
12.0
290
     0
  0
SCALE
  5
47
102
{ACAD_REACTORS
330
42
102
}
330
42
100
AcDbScale
 70
     0
300
1/16" = 1'-0"
140
0.0625
141
12.0
290
     0
  0
SCALE
  5
48
102
{ACAD_REACTORS
330
42
102
}
330
42
100
AcDbScale
 70
     0
300
3/32" = 1'-0"
140
0.09375
141
12.0
290
     0
  0
SCALE
  5
49
102
{ACAD_REACTORS
330
42
102
}
330
42
100
AcDbScale
 70
     0
300
1/8" = 1'-0"
140
0.125
141
12.0
290
     0
  0
SCALE
  5
4A
102
{ACAD_REACTORS
330
42
102
}
330
42
100
AcDbScale
 70
     0
300
3/16" = 1'-0"
140
0.1875
141
12.0
290
     0
  0
SCALE
  5
4B
102
{ACAD_REACTORS
330
42
102
}
330
42
100
AcDbScale
 70
     0
300
1/4" = 1'-0"
140
0.25
141
12.0
290
     0
  0
SCALE
  5
4C
102
{ACAD_REACTORS
330
42
102
}
330
42
100
AcDbScale
 70
     0
300
3/8" = 1'-0"
140
0.375
141
12.0
290
     0
  0
SCALE
  5
4D
102
{ACAD_REACTORS
330
42
102
}
330
42
100
AcDbScale
 70
     0
300
1/2" = 1'-0"
140
0.5
141
12.0
290
     0
  0
SCALE
  5
4E
102
{ACAD_REACTORS
330
42
102
}
330
42
100
AcDbScale
 70
     0
300
3/4" = 1'-0"
140
0.75
141
12.0
290
     0
  0
SCALE
  5
4F
102
{ACAD_REACTORS
330
42
102
}
330
42
100
AcDbScale
 70
     0
300
1" = 1'-0"
140
1.0
141
12.0
290
     0
  0
SCALE
  5
50
102
{ACAD_REACTORS
330
42
102
}
330
42
100
AcDbScale
 70
     0
300
1-1/2" = 1'-0"
140
1.5
141
12.0
290
     0
  0
SCALE
  5
51
102
{ACAD_REACTORS
330
42
102
}
330
42
100
AcDbScale
 70
     0
300
3" = 1'-0"
140
3.0
141
12.0
290
     0
  0
SCALE
  5
52
102
{ACAD_REACTORS
330
42
102
}
330
42
100
AcDbScale
 70
     0
300
6" = 1'-0"
140
6.0
141
12.0
290
     0
  0
SCALE
  5
53
102
{ACAD_REACTORS
330
42
102
}
330
42
100
AcDbScale
 70
     0
300
1'-0" = 1'-0"
140
12.0
141
12.0
290
     0
  0
ACDBSECTIONVIEWSTYLE
  5
68
102
{ACAD_REACTORS
330
67
102
}
330
67
100
AcDbModelDocViewStyle
 70
     0
  3
Imperial24
290
     0
300
Imperial24
 90
        0
100
AcDbSectionViewStyle
 70
     0
 71
     0
 90
       78
 71
     1
340
55
 62
   256
 40
0.24
340
0
340
0
 62
   256
 40
0.24
300
I, O, Q, S, X, Z
 40
0.48
 90
        3
 40
0.18
 90
        1
 71
     2
340
5C
 90
       25
 62
   256
340
5C
 90
       50
 62
   256
 40
0.24
 40
0.0
 40
0.24
 71
     3
340
55
 62
   256
 40
0.24
 90
        1
 40
0.75
 90
        1
300
%<\AcVar ViewType \f "%tc1">% %<\AcVar ViewSectionStartId>%-%<\AcVar ViewSectionEndId>%\PSCALE %<\AcVar ViewScale \f "%sn">%
 71
     4
 62
   256
 62
   257
300
ANSI31
 40
1.0
 90
        0
290
     0
290
     0
 90
        6
 40
0.0
 40
1.570796326794896
 40
0.2617993877991494
 40
1.308996938995747
 40
-0.2617993877991494
 40
1.832595714594045
  0
ACDBSECTIONVIEWSTYLE
  5
2343
102
{ACAD_REACTORS
330
67
102
}
330
67
100
AcDbModelDocViewStyle
 70
     0
  3
Metric50
290
     0
300
Metric50
 90
        0
100
AcDbSectionViewStyle
 70
     0
 71
     0
 90
      102
 71
     1
340
55
 62
   256
 40
5.0
340
0
340
0
 62
   256
 40
5.0
300
I, O, Q, S, X, Z
 40
10.0
 90
        0
 40
2.5
 90
        0
 71
     2
340
5C
 90
       25
 62
   256
340
5C
 90
       50
 62
   256
 40
5.0
 40
2.5
 40
5.0
 71
     3
340
55
 62
   256
 40
5.0
 90
        0
 40
15.0
 90
        1
300
%<\AcVar ViewSectionStartId>%-%<\AcVar ViewSectionEndId>% (%<\AcVar ViewScale \f "%sn">%)
 71
     4
 62
   256
 62
   257
300
ANSI31
 40
1.0
 90
        0
290
     0
290
     0
 90
        6
 40
0.0
 40
1.570796326794896
 40
0.2617993877991494
 40
1.308996938995747
 40
-0.2617993877991494
 40
1.832595714594046
  0
TABLESTYLE
  5
64
102
{ACAD_XDICTIONARY
360
1289
102
}
102
{ACAD_REACTORS
330
63
102
}
330
63
100
AcDbTableStyle
280
     0
  3
Standard
 70
     0
 71
     0
 40
0.06
 41
0.06
280
     0
281
     0
  7
Standard
140
0.18
170
     2
 62
     0
 63
     7
283
     0
 90
      512
 91
        0
  1

274
    -2
284
     1
 64
     0
275
    -2
285
     1
 65
     0
276
    -2
286
     1
 66
     0
277
    -2
287
     1
 67
     0
278
    -2
288
     1
 68
     0
279
    -2
289
     1
 69
     0
  7
Standard
140
0.25
170
     5
 62
     0
 63
     7
283
     0
 90
      512
 91
        0
  1

274
    -2
284
     1
 64
     0
275
    -2
285
     1
 65
     0
276
    -2
286
     1
 66
     0
277
    -2
287
     1
 67
     0
278
    -2
288
     1
 68
     0
279
    -2
289
     1
 69
     0
  7
Standard
140
0.18
170
     5
 62
     0
 63
     7
283
     0
 90
      512
 91
        0
  1

274
    -2
284
     1
 64
     0
275
    -2
285
     1
 65
     0
276
    -2
286
     1
 66
     0
277
    -2
287
     1
 67
     0
278
    -2
288
     1
 68
     0
279
    -2
289
     1
 69
     0
  0
VISUALSTYLE
  5
2F
102
{ACAD_REACTORS
330
29
102
}
330
29
100
AcDbVisualStyle
  2
2dWireframe
 70
     4
177
     3
291
     0
 70
    58
 90
        0
176
     1
 90
        2
176
     1
 90
        0
176
     1
 90
        0
176
     1
 40
0.6
176
     1
 40
30.0
176
     1
 62
     7
420
 16777215
176
     1
 90
        1
176
     1
 90
        4
176
     1
 62
     7
176
     1
 62
   257
176
     1
 90
        1
176
     1
 90
        1
176
     1
 40
1.0
176
     1
 90
        0
176
     1
 62
   257
176
     1
 40
1.0
176
     1
 90
        1
176
     1
 90
        6
176
     1
 90
        2
176
     1
 62
     7
176
     1
 90
        5
176
     1
 90
        0
176
     1
 90
        0
176
     1
290
     0
176
     1
 90
        1
176
     1
 40
0.0
176
     1
 90
        0
176
     1
290
     1
176
     1
290
     1
176
     1
290
     0
176
     1
290
     0
176
     1
290
     0
176
     1
290
     0
176
     1
290
     0
176
     1
290
     0
176
     1
290
     0
176
     1
 90
       50
176
     1
 40
0.0
176
     1
 40
1.0
176
     1
 90
        0
176
     1
 62
    18
176
     1
 90
       50
176
     1
 90
        3
176
     1
 62
     5
420
      255
176
     1
290
     0
176
     1
 90
       50
176
     1
 90
       50
176
     1
 90
       50
176
     1
290
     0
176
     1
 90
       50
176
     1
 62
   256
176
     0
 40
1.0
176
     0
 90
        2
176
     1
  1
strokes_ogs.tif
176
     1
290
     0
176
     1
 40
1.0
176
     1
 40
1.0
176
     1
  0
VISUALSTYLE
  5
2E
102
{ACAD_REACTORS
330
29
102
}
330
29
100
AcDbVisualStyle
  2
Basic
 70
     7
177
     3
291
     1
 70
    58
 90
        1
176
     1
 90
        0
176
     1
 90
        1
176
     1
 90
        0
176
     1
 40
0.6
176
     1
 40
30.0
176
     1
 62
     7
420
 16777215
176
     1
 90
        0
176
     1
 90
        4
176
     1
 62
     7
176
     1
 62
   257
176
     1
 90
        1
176
     1
 90
        1
176
     1
 40
1.0
176
     1
 90
        8
176
     1
 62
     7
176
     1
 40
1.0
176
     1
 90
        1
176
     1
 90
        6
176
     1
 90
        2
176
     1
 62
     7
176
     1
 90
        5
176
     1
 90
        0
176
     1
 90
        0
176
     1
290
     0
176
     1
 90
        1
176
     1
 40
0.0
176
     1
 90
        0
176
     1
290
     0
176
     1
290
     1
176
     1
290
     1
176
     1
290
     0
176
     1
290
     0
176
     1
290
     0
176
     1
290
     0
176
     1
290
     0
176
     1
290
     0
176
     1
 90
       50
176
     1
 40
0.0
176
     1
 40
1.0
176
     1
 90
        0
176
     1
 62
    18
176
     1
 90
       50
176
     1
 90
        3
176
     1
 62
     5
420
      255
176
     1
290
     0
176
     1
 90
       50
176
     1
 90
       50
176
     1
 90
       50
176
     1
290
     0
176
     1
 90
       50
176
     1
 62
   256
176
     0
 40
1.0
176
     0
 90
        2
176
     1
  1
strokes_ogs.tif
176
     1
290
     0
176
     1
 40
1.0
176
     1
 40
1.0
176
     1
  0
VISUALSTYLE
  5
35
102
{ACAD_REACTORS
330
29
102
}
330
29
100
AcDbVisualStyle
  2
Brighten
 70
    12
177
     3
291
     1
 70
    58
 90
        2
176
     1
 90
        2
176
     1
 90
        0
176
     1
 90
        0
176
     1
 40
0.6
176
     1
 40
30.0
176
     1
 62
     7
420
 16777215
176
     1
 90
        1
176
     1
 90
        4
176
     1
 62
     7
176
     1
 62
   257
176
     1
 90
        1
176
     1
 90
        1
176
     1
 40
1.0
176
     1
 90
        8
176
     1
 62
     7
176
     1
 40
1.0
176
     1
 90
        1
176
     1
 90
        6
176
     1
 90
        2
176
     1
 62
     7
176
     1
 90
        5
176
     1
 90
        0
176
     1
 90
        0
176
     1
290
     0
176
     1
 90
        1
176
     1
 40
50.0
176
     1
 90
        0
176
     1
290
     0
176
     1
290
     1
176
     1
290
     1
176
     1
290
     0
176
     1
290
     0
176
     1
290
     0
176
     1
290
     0
176
     1
290
     0
176
     1
290
     0
176
     1
 90
       50
176
     1
 40
0.0
176
     1
 40
1.0
176
     1
 90
        0
176
     1
 62
    18
176
     1
 90
       50
176
     1
 90
        3
176
     1
 62
     5
420
      255
176
     1
290
     0
176
     1
 90
       50
176
     1
 90
       50
176
     1
 90
       50
176
     1
290
     0
176
     1
 90
       50
176
     1
 62
   256
176
     0
 40
1.0
176
     0
 90
        2
176
     1
  1
strokes_ogs.tif
176
     1
290
     0
176
     1
 40
1.0
176
     1
 40
1.0
176
     1
  0
VISUALSTYLE
  5
39
102
{ACAD_REACTORS
330
29
102
}
330
29
100
AcDbVisualStyle
  2
ColorChange
 70
    16
177
     3
291
     1
 70
    58
 90
        2
176
     1
 90
        2
176
     1
 90
        3
176
     1
 90
        0
176
     1
 40
0.6
176
     1
 40
30.0
176
     1
 62
     8
420
  8421504
176
     1
 90
        1
176
     1
 90
        4
176
     1
 62
     7
176
     1
 62
   257
176
     1
 90
        1
176
     1
 90
        1
176
     1
 40
1.0
176
     1
 90
        8
176
     1
 62
     8
420
  8421504
176
     1
 40
1.0
176
     1
 90
        1
176
     1
 90
        6
176
     1
 90
        2
176
     1
 62
     7
176
     1
 90
        5
176
     1
 90
        0
176
     1
 90
        0
176
     1
290
     0
176
     1
 90
        1
176
     1
 40
0.0
176
     1
 90
        0
176
     1
290
     0
176
     1
290
     1
176
     1
290
     1
176
     1
290
     0
176
     1
290
     0
176
     1
290
     0
176
     1
290
     0
176
     1
290
     0
176
     1
290
     0
176
     1
 90
       50
176
     1
 40
0.0
176
     1
 40
1.0
176
     1
 90
        0
176
     1
 62
    18
176
     1
 90
       50
176
     1
 90
        3
176
     1
 62
     5
420
      255
176
     1
290
     0
176
     1
 90
       50
176
     1
 90
       50
176
     1
 90
       50
176
     1
290
     0
176
     1
 90
       50
176
     1
 62
   256
176
     0
 40
1.0
176
     0
 90
        2
176
     1
  1
strokes_ogs.tif
176
     1
290
     0
176
     1
 40
1.0
176
     1
 40
1.0
176
     1
  0
VISUALSTYLE
  5
32
102
{ACAD_REACTORS
330
29
102
}
330
29
100
AcDbVisualStyle
  2
Conceptual
 70
     9
177
     3
291
     0
 70
    58
 90
        3
176
     1
 90
        2
176
     1
 90
        0
176
     1
 90
        0
176
     1
 40
0.6
176
     1
 40
30.0
176
     1
 62
     7
420
 16777215
176
     1
 90
        2
176
     1
 90
        2
176
     1
 62
     7
176
     1
 62
   257
176
     1
 90
        1
176
     1
 90
        1
176
     1
 40
179.0
176
     1
 90
        8
176
     1
 62
     7
176
     1
 40
1.0
176
     1
 90
        1
176
     1
 90
        6
176
     1
 90
        2
176
     1
 62
     7
176
     1
 90
        3
176
     1
 90
        0
176
     1
 90
        0
176
     1
290
     0
176
     1
 90
        1
176
     1
 40
0.0
176
     1
 90
        0
176
     1
290
     0
176
     1
290
     1
176
     1
290
     1
176
     1
290
     0
176
     1
290
     0
176
     1
290
     0
176
     1
290
     0
176
     1
290
     0
176
     1
290
     0
176
     1
 90
       50
176
     1
 40
0.0
176
     1
 40
1.0
176
     1
 90
        0
176
     1
 62
    18
176
     1
 90
       50
176
     1
 90
        3
176
     1
 62
     5
420
      255
176
     1
290
     0
176
     1
 90
       50
176
     1
 90
       50
176
     1
 90
       50
176
     1
290
     0
176
     1
 90
       50
176
     1
 62
   256
176
     0
 40
1.0
176
     0
 90
        2
176
     1
  1
strokes_ogs.tif
176
     1
290
     0
176
     1
 40
1.0
176
     1
 40
1.0
176
     1
  0
VISUALSTYLE
  5
34
102
{ACAD_REACTORS
330
29
102
}
330
29
100
AcDbVisualStyle
  2
Dim
 70
    11
177
     3
291
     1
 70
    58
 90
        2
176
     1
 90
        2
176
     1
 90
        0
176
     1
 90
        0
176
     1
 40
0.6
176
     1
 40
30.0
176
     1
 62
     7
420
 16777215
176
     1
 90
        1
176
     1
 90
        4
176
     1
 62
     7
176
     1
 62
   257
176
     1
 90
        1
176
     1
 90
        1
176
     1
 40
1.0
176
     1
 90
        8
176
     1
 62
     7
176
     1
 40
1.0
176
     1
 90
        1
176
     1
 90
        6
176
     1
 90
        2
176
     1
 62
     7
176
     1
 90
        5
176
     1
 90
        0
176
     1
 90
        0
176
     1
290
     0
176
     1
 90
        1
176
     1
 40
-50.0
176
     1
 90
        0
176
     1
290
     0
176
     1
290
     1
176
     1
290
     1
176
     1
290
     0
176
     1
290
     0
176
     1
290
     0
176
     1
290
     0
176
     1
290
     0
176
     1
290
     0
176
     1
 90
       50
176
     1
 40
0.0
176
     1
 40
1.0
176
     1
 90
        0
176
     1
 62
    18
176
     1
 90
       50
176
     1
 90
        3
176
     1
 62
     5
420
      255
176
     1
290
     0
176
     1
 90
       50
176
     1
 90
       50
176
     1
 90
       50
176
     1
290
     0
176
     1
 90
       50
176
     1
 62
   256
176
     0
 40
1.0
176
     0
 90
        2
176
     1
  1
strokes_ogs.tif
176
     1
290
     0
176
     1
 40
1.0
176
     1
 40
1.0
176
     1
  0
VISUALSTYLE
  5
41
102
{ACAD_REACTORS
330
29
102
}
330
29
100
AcDbVisualStyle
  2
EdgeColorOff
 70
    22
177
     3
291
     1
 70
    58
 90
        2
176
     0
 90
        2
176
     0
 90
        0
176
     0
 90
        0
176
     0
 40
0.6
176
     0
 40
30.0
176
     0
 62
     7
420
 16777215
176
     0
 90
        1
176
     0
 90
        4
176
     0
 62
     7
176
     0
 62
   257
176
     0
 90
        1
176
     0
 90
        1
176
     0
 40
1.0
176
     0
 90
        8
176
     2
 62
     7
176
     0
 40
1.0
176
     0
 90
        1
176
     0
 90
        6
176
     0
 90
        2
176
     0
 62
     7
176
     0
 90
        5
176
     0
 90
        0
176
     0
 90
        0
176
     0
290
     0
176
     0
 90
        1
176
     0
 40
0.0
176
     0
 90
        0
176
     0
290
     0
176
     1
290
     1
176
     1
290
     1
176
     1
290
     0
176
     1
290
     0
176
     1
290
     0
176
     1
290
     0
176
     1
290
     0
176
     1
290
     0
176
     1
 90
       50
176
     0
 40
0.0
176
     0
 40
1.0
176
     0
 90
        0
176
     0
 62
    18
176
     0
 90
       50
176
     0
 90
        3
176
     0
 62
     5
420
      255
176
     0
290
     0
176
     1
 90
       50
176
     0
 90
       50
176
     0
 90
       50
176
     0
290
     0
176
     1
 90
       50
176
     0
 62
   256
176
     0
 40
1.0
176
     0
 90
        2
176
     0
  1
strokes_ogs.tif
176
     0
290
     0
176
     1
 40
1.0
176
     0
 40
1.0
176
     0
  0
VISUALSTYLE
  5
38
102
{ACAD_REACTORS
330
29
102
}
330
29
100
AcDbVisualStyle
  2
Facepattern
 70
    15
177
     3
291
     1
 70
    58
 90
        2
176
     1
 90
        2
176
     1
 90
        0
176
     1
 90
        0
176
     1
 40
0.6
176
     1
 40
30.0
176
     1
 62
     7
420
 16777215
176
     1
 90
        1
176
     1
 90
        4
176
     1
 62
     7
176
     1
 62
   257
176
     1
 90
        1
176
     1
 90
        1
176
     1
 40
1.0
176
     1
 90
        8
176
     1
 62
     7
176
     1
 40
1.0
176
     1
 90
        1
176
     1
 90
        6
176
     1
 90
        2
176
     1
 62
     7
176
     1
 90
        5
176
     1
 90
        0
176
     1
 90
        0
176
     1
290
     0
176
     1
 90
        1
176
     1
 40
0.0
176
     1
 90
        0
176
     1
290
     0
176
     1
290
     1
176
     1
290
     1
176
     1
290
     0
176
     1
290
     0
176
     1
290
     0
176
     1
290
     0
176
     1
290
     0
176
     1
290
     0
176
     1
 90
       50
176
     1
 40
0.0
176
     1
 40
1.0
176
     1
 90
        0
176
     1
 62
    18
176
     1
 90
       50
176
     1
 90
        3
176
     1
 62
     5
420
      255
176
     1
290
     0
176
     1
 90
       50
176
     1
 90
       50
176
     1
 90
       50
176
     1
290
     0
176
     1
 90
       50
176
     1
 62
   256
176
     0
 40
1.0
176
     0
 90
        2
176
     1
  1
strokes_ogs.tif
176
     1
290
     0
176
     1
 40
1.0
176
     1
 40
1.0
176
     1
  0
VISUALSTYLE
  5
2A
102
{ACAD_REACTORS
330
29
102
}
330
29
100
AcDbVisualStyle
  2
Flat
 70
     0
177
     3
291
     1
 70
    58
 90
        2
176
     1
 90
        1
176
     1
 90
        1
176
     1
 90
        2
176
     1
 40
0.6
176
     1
 40
30.0
176
     1
 62
     7
420
 16777215
176
     1
 90
        0
176
     1
 90
        0
176
     1
 62
     7
176
     1
 62
   257
176
     1
 90
        1
176
     1
 90
        1
176
     1
 40
1.0
176
     1
 90
        8
176
     1
 62
     7
176
     1
 40
1.0
176
     1
 90
        1
176
     1
 90
        6
176
     1
 90
        2
176
     1
 62
     7
176
     1
 90
        5
176
     1
 90
        0
176
     1
 90
        0
176
     1
290
     0
176
     1
 90
       13
176
     1
 40
0.0
176
     1
 90
        0
176
     1
290
     0
176
     1
290
     1
176
     1
290
     1
176
     1
290
     0
176
     1
290
     0
176
     1
290
     0
176
     1
290
     0
176
     1
290
     0
176
     1
290
     0
176
     1
 90
       50
176
     1
 40
0.0
176
     1
 40
1.0
176
     1
 90
        0
176
     1
 62
    18
176
     1
 90
       50
176
     1
 90
        3
176
     1
 62
     5
420
      255
176
     1
290
     0
176
     1
 90
       50
176
     1
 90
       50
176
     1
 90
       50
176
     1
290
     0
176
     1
 90
       50
176
     1
 62
   256
176
     0
 40
1.0
176
     0
 90
        2
176
     1
  1
strokes_ogs.tif
176
     1
290
     0
176
     1
 40
1.0
176
     1
 40
1.0
176
     1
  0
VISUALSTYLE
  5
2B
102
{ACAD_REACTORS
330
29
102
}
330
29
100
AcDbVisualStyle
  2
FlatWithEdges
 70
     1
177
     3
291
     1
 70
    58
 90
        2
176
     1
 90
        1
176
     1
 90
        1
176
     1
 90
        2
176
     1
 40
0.6
176
     1
 40
30.0
176
     1
 62
     7
420
 16777215
176
     1
 90
        1
176
     1
 90
        0
176
     1
 62
     7
176
     1
 62
   257
176
     1
 90
        1
176
     1
 90
        1
176
     1
 40
1.0
176
     1
 90
        0
176
     1
 62
   257
176
     1
 40
1.0
176
     1
 90
        1
176
     1
 90
        6
176
     1
 90
        2
176
     1
 62
     7
176
     1
 90
        5
176
     1
 90
        0
176
     1
 90
        0
176
     1
290
     0
176
     1
 90
       13
176
     1
 40
0.0
176
     1
 90
        0
176
     1
290
     0
176
     1
290
     1
176
     1
290
     1
176
     1
290
     0
176
     1
290
     0
176
     1
290
     0
176
     1
290
     0
176
     1
290
     0
176
     1
290
     0
176
     1
 90
       50
176
     1
 40
0.0
176
     1
 40
1.0
176
     1
 90
        0
176
     1
 62
    18
176
     1
 90
       50
176
     1
 90
        3
176
     1
 62
     5
420
      255
176
     1
290
     0
176
     1
 90
       50
176
     1
 90
       50
176
     1
 90
       50
176
     1
290
     0
176
     1
 90
       50
176
     1
 62
   256
176
     0
 40
1.0
176
     0
 90
        2
176
     1
  1
strokes_ogs.tif
176
     1
290
     0
176
     1
 40
1.0
176
     1
 40
1.0
176
     1
  0
VISUALSTYLE
  5
2C
102
{ACAD_REACTORS
330
29
102
}
330
29
100
AcDbVisualStyle
  2
Gouraud
 70
     2
177
     3
291
     1
 70
    58
 90
        2
176
     1
 90
        2
176
     1
 90
        1
176
     1
 90
        2
176
     1
 40
0.6
176
     1
 40
30.0
176
     1
 62
     7
420
 16777215
176
     1
 90
        0
176
     1
 90
        0
176
     1
 62
     7
176
     1
 62
   257
176
     1
 90
        1
176
     1
 90
        1
176
     1
 40
1.0
176
     1
 90
        0
176
     1
 62
     7
176
     1
 40
1.0
176
     1
 90
        1
176
     1
 90
        6
176
     1
 90
        2
176
     1
 62
     7
176
     1
 90
        5
176
     1
 90
        0
176
     1
 90
        0
176
     1
290
     0
176
     1
 90
       13
176
     1
 40
0.0
176
     1
 90
        0
176
     1
290
     0
176
     1
290
     1
176
     1
290
     1
176
     1
290
     0
176
     1
290
     0
176
     1
290
     0
176
     1
290
     0
176
     1
290
     0
176
     1
290
     0
176
     1
 90
       50
176
     1
 40
0.0
176
     1
 40
1.0
176
     1
 90
        0
176
     1
 62
    18
176
     1
 90
       50
176
     1
 90
        3
176
     1
 62
     5
420
      255
176
     1
290
     0
176
     1
 90
       50
176
     1
 90
       50
176
     1
 90
       50
176
     1
290
     0
176
     1
 90
       50
176
     1
 62
   256
176
     0
 40
1.0
176
     0
 90
        2
176
     1
  1
strokes_ogs.tif
176
     1
290
     0
176
     1
 40
1.0
176
     1
 40
1.0
176
     1
  0
VISUALSTYLE
  5
2D
102
{ACAD_REACTORS
330
29
102
}
330
29
100
AcDbVisualStyle
  2
GouraudWithEdges
 70
     3
177
     3
291
     1
 70
    58
 90
        2
176
     1
 90
        2
176
     1
 90
        1
176
     1
 90
        2
176
     1
 40
0.6
176
     1
 40
30.0
176
     1
 62
     7
420
 16777215
176
     1
 90
        1
176
     1
 90
        0
176
     1
 62
     7
176
     1
 62
   257
176
     1
 90
        1
176
     1
 90
        1
176
     1
 40
1.0
176
     1
 90
        0
176
     1
 62
   257
176
     1
 40
1.0
176
     1
 90
        1
176
     1
 90
        6
176
     1
 90
        2
176
     1
 62
     7
176
     1
 90
        5
176
     1
 90
        0
176
     1
 90
        0
176
     1
290
     0
176
     1
 90
       13
176
     1
 40
0.0
176
     1
 90
        0
176
     1
290
     0
176
     1
290
     1
176
     1
290
     1
176
     1
290
     0
176
     1
290
     0
176
     1
290
     0
176
     1
290
     0
176
     1
290
     0
176
     1
290
     0
176
     1
 90
       50
176
     1
 40
0.0
176
     1
 40
1.0
176
     1
 90
        0
176
     1
 62
    18
176
     1
 90
       50
176
     1
 90
        3
176
     1
 62
     5
420
      255
176
     1
290
     0
176
     1
 90
       50
176
     1
 90
       50
176
     1
 90
       50
176
     1
290
     0
176
     1
 90
       50
176
     1
 62
   256
176
     0
 40
1.0
176
     0
 90
        2
176
     1
  1
strokes_ogs.tif
176
     1
290
     0
176
     1
 40
1.0
176
     1
 40
1.0
176
     1
  0
VISUALSTYLE
  5
31
102
{ACAD_REACTORS
330
29
102
}
330
29
100
AcDbVisualStyle
  2
Hidden
 70
     6
177
     3
291
     0
 70
    58
 90
        1
176
     1
 90
        2
176
     1
 90
        2
176
     1
 90
        0
176
     1
 40
0.6
176
     1
 40
30.0
176
     1
 62
     7
420
 16777215
176
     1
 90
        2
176
     1
 90
        2
176
     1
 62
     7
176
     1
 62
   257
176
     1
 90
        2
176
     1
 90
        1
176
     1
 40
40.0
176
     1
 90
        0
176
     1
 62
   257
176
     1
 40
1.0
176
     1
 90
        1
176
     1
 90
        6
176
     1
 90
        2
176
     1
 62
     7
176
     1
 90
        3
176
     1
 90
        0
176
     1
 90
        0
176
     1
290
     0
176
     1
 90
        1
176
     1
 40
0.0
176
     1
 90
        0
176
     1
290
     0
176
     1
290
     1
176
     1
290
     1
176
     1
290
     0
176
     1
290
     0
176
     1
290
     0
176
     1
290
     0
176
     1
290
     0
176
     1
290
     0
176
     1
 90
       50
176
     1
 40
0.0
176
     1
 40
1.0
176
     1
 90
        0
176
     1
 62
    18
176
     1
 90
       50
176
     1
 90
        3
176
     1
 62
     5
420
      255
176
     1
290
     0
176
     1
 90
       50
176
     1
 90
       50
176
     1
 90
       50
176
     1
290
     0
176
     1
 90
       50
176
     1
 62
   256
176
     0
 40
1.0
176
     0
 90
        2
176
     1
  1
strokes_ogs.tif
176
     1
290
     0
176
     1
 40
1.0
176
     1
 40
1.0
176
     1
  0
VISUALSTYLE
  5
3F
102
{ACAD_REACTORS
330
29
102
}
330
29
100
AcDbVisualStyle
  2
JitterOff
 70
    20
177
     3
291
     1
 70
    58
 90
        2
176
     0
 90
        2
176
     0
 90
        0
176
     0
 90
        0
176
     0
 40
0.6
176
     0
 40
30.0
176
     0
 62
     7
420
 16777215
176
     0
 90
        1
176
     0
 90
        4
176
     0
 62
     7
176
     0
 62
   257
176
     0
 90
        1
176
     0
 90
        1
176
     0
 40
1.0
176
     0
 90
       10
176
     2
 62
     7
176
     0
 40
1.0
176
     0
 90
        1
176
     0
 90
        6
176
     0
 90
        2
176
     0
 62
     7
176
     0
 90
        5
176
     0
 90
        0
176
     0
 90
        0
176
     0
290
     0
176
     0
 90
        1
176
     0
 40
0.0
176
     0
 90
        0
176
     0
290
     0
176
     1
290
     1
176
     1
290
     1
176
     1
290
     0
176
     1
290
     0
176
     1
290
     0
176
     1
290
     0
176
     1
290
     0
176
     1
290
     0
176
     1
 90
       50
176
     0
 40
0.0
176
     0
 40
1.0
176
     0
 90
        0
176
     0
 62
    18
176
     0
 90
       50
176
     0
 90
        3
176
     0
 62
     5
420
      255
176
     0
290
     0
176
     1
 90
       50
176
     0
 90
       50
176
     0
 90
       50
176
     0
290
     0
176
     1
 90
       50
176
     0
 62
   256
176
     0
 40
1.0
176
     0
 90
        2
176
     0
  1
strokes_ogs.tif
176
     0
290
     0
176
     1
 40
1.0
176
     0
 40
1.0
176
     0
  0
VISUALSTYLE
  5
37
102
{ACAD_REACTORS
330
29
102
}
330
29
100
AcDbVisualStyle
  2
Linepattern
 70
    14
177
     3
291
     1
 70
    58
 90
        2
176
     1
 90
        2
176
     1
 90
        0
176
     1
 90
        0
176
     1
 40
0.6
176
     1
 40
30.0
176
     1
 62
     7
420
 16777215
176
     1
 90
        1
176
     1
 90
        4
176
     1
 62
     7
176
     1
 62
   257
176
     1
 90
        7
176
     1
 90
        7
176
     1
 40
1.0
176
     1
 90
        8
176
     1
 62
     7
176
     1
 40
1.0
176
     1
 90
        1
176
     1
 90
        6
176
     1
 90
        2
176
     1
 62
     7
176
     1
 90
        5
176
     1
 90
        0
176
     1
 90
        0
176
     1
290
     0
176
     1
 90
        1
176
     1
 40
0.0
176
     1
 90
        0
176
     1
290
     0
176
     1
290
     1
176
     1
290
     1
176
     1
290
     0
176
     1
290
     0
176
     1
290
     0
176
     1
290
     0
176
     1
290
     0
176
     1
290
     0
176
     1
 90
       50
176
     1
 40
0.0
176
     1
 40
1.0
176
     1
 90
        0
176
     1
 62
    18
176
     1
 90
       50
176
     1
 90
        3
176
     1
 62
     5
420
      255
176
     1
290
     0
176
     1
 90
       50
176
     1
 90
       50
176
     1
 90
       50
176
     1
290
     0
176
     1
 90
       50
176
     1
 62
   256
176
     0
 40
1.0
176
     0
 90
        2
176
     1
  1
strokes_ogs.tif
176
     1
290
     0
176
     1
 40
1.0
176
     1
 40
1.0
176
     1
  0
VISUALSTYLE
  5
40
102
{ACAD_REACTORS
330
29
102
}
330
29
100
AcDbVisualStyle
  2
OverhangOff
 70
    21
177
     3
291
     1
 70
    58
 90
        2
176
     0
 90
        2
176
     0
 90
        0
176
     0
 90
        0
176
     0
 40
0.6
176
     0
 40
30.0
176
     0
 62
     7
420
 16777215
176
     0
 90
        1
176
     0
 90
        4
176
     0
 62
     7
176
     0
 62
   257
176
     0
 90
        1
176
     0
 90
        1
176
     0
 40
1.0
176
     0
 90
        9
176
     2
 62
     7
176
     0
 40
1.0
176
     0
 90
        1
176
     0
 90
        6
176
     0
 90
        2
176
     0
 62
     7
176
     0
 90
        5
176
     0
 90
        0
176
     0
 90
        0
176
     0
290
     0
176
     0
 90
        1
176
     0
 40
0.0
176
     0
 90
        0
176
     0
290
     0
176
     1
290
     1
176
     1
290
     1
176
     1
290
     0
176
     1
290
     0
176
     1
290
     0
176
     1
290
     0
176
     1
290
     0
176
     1
290
     0
176
     1
 90
       50
176
     0
 40
0.0
176
     0
 40
1.0
176
     0
 90
        0
176
     0
 62
    18
176
     0
 90
       50
176
     0
 90
        3
176
     0
 62
     5
420
      255
176
     0
290
     0
176
     1
 90
       50
176
     0
 90
       50
176
     0
 90
       50
176
     0
290
     0
176
     1
 90
       50
176
     0
 62
   256
176
     0
 40
1.0
176
     0
 90
        2
176
     0
  1
strokes_ogs.tif
176
     0
290
     0
176
     1
 40
1.0
176
     0
 40
1.0
176
     0
  0
VISUALSTYLE
  5
33
102
{ACAD_REACTORS
330
29
102
}
330
29
100
AcDbVisualStyle
  2
Realistic
 70
     8
177
     3
291
     0
 70
    58
 90
        2
176
     1
 90
        3
176
     1
 90
        0
176
     1
 90
        2
176
     1
 40
0.6
176
     1
 40
30.0
176
     1
 62
     7
420
 16777215
176
     1
 90
        0
176
     1
 90
        0
176
     1
 62
     7
176
     1
 62
   257
176
     1
 90
        1
176
     1
 90
        1
176
     1
 40
1.0
176
     1
 90
        8
176
     1
 62
   257
176
     1
 40
1.0
176
     1
 90
        1
176
     1
 90
        6
176
     1
 90
        2
176
     1
 62
     7
176
     1
 90
        3
176
     1
 90
        0
176
     1
 90
        0
176
     1
290
     0
176
     1
 90
       13
176
     1
 40
0.0
176
     1
 90
        0
176
     1
290
     0
176
     1
290
     1
176
     1
290
     1
176
     1
290
     0
176
     1
290
     0
176
     1
290
     0
176
     1
290
     0
176
     1
290
     0
176
     1
290
     0
176
     1
 90
       50
176
     1
 40
0.0
176
     1
 40
1.0
176
     1
 90
        0
176
     1
 62
    18
176
     1
 90
       50
176
     1
 90
        3
176
     1
 62
     5
420
      255
176
     1
290
     0
176
     1
 90
       50
176
     1
 90
       50
176
     1
 90
       50
176
     1
290
     0
176
     1
 90
       50
176
     1
 62
   256
176
     0
 40
1.0
176
     0
 90
        2
176
     1
  1
strokes_ogs.tif
176
     1
290
     0
176
     1
 40
1.0
176
     1
 40
1.0
176
     1
  0
VISUALSTYLE
  5
3E
102
{ACAD_REACTORS
330
29
102
}
330
29
100
AcDbVisualStyle
  2
Shaded
 70
    27
177
     3
291
     0
 70
    58
 90
        2
176
     1
 90
        2
176
     1
 90
        1
176
     1
 90
        2
176
     1
 40
0.6
176
     1
 40
30.0
176
     1
 62
     7
420
 16777215
176
     1
 90
        0
176
     1
 90
        4
176
     1
 62
     7
176
     1
 62
   257
176
     1
 90
        1
176
     1
 90
        1
176
     1
 40
1.0
176
     1
 90
        8
176
     1
 62
   257
176
     1
 40
1.0
176
     1
 90
        1
176
     1
 90
        6
176
     1
 90
        2
176
     1
 62
     8
420
  7895160
176
     1
 90
        3
176
     1
 90
        0
176
     1
 90
        0
176
     1
290
     0
176
     1
 90
        5
176
     1
 40
0.0
176
     1
 90
        0
176
     1
290
     0
176
     1
290
     1
176
     1
290
     1
176
     1
290
     0
176
     1
290
     0
176
     1
290
     0
176
     1
290
     0
176
     1
290
     0
176
     1
290
     0
176
     1
 90
       50
176
     1
 40
0.0
176
     1
 40
1.0
176
     1
 90
        0
176
     1
 62
    18
176
     1
 90
       50
176
     1
 90
        3
176
     1
 62
     5
420
      255
176
     1
290
     0
176
     1
 90
       50
176
     1
 90
       50
176
     1
 90
       50
176
     1
290
     0
176
     1
 90
       50
176
     1
 62
   256
176
     0
 40
1.0
176
     0
 90
        2
176
     1
  1
strokes_ogs.tif
176
     1
290
     0
176
     1
 40
1.0
176
     1
 40
1.0
176
     1
  0
VISUALSTYLE
  5
3D
102
{ACAD_REACTORS
330
29
102
}
330
29
100
AcDbVisualStyle
  2
Shaded with edges
 70
    26
177
     3
291
     0
 70
    58
 90
        2
176
     1
 90
        2
176
     1
 90
        1
176
     1
 90
        2
176
     1
 40
0.6
176
     1
 40
30.0
176
     1
 62
     7
420
 16777215
176
     1
 90
        1
176
     1
 90
        2
176
     1
 62
     7
176
     1
 62
   257
176
     1
 90
        2
176
     1
 90
        1
176
     1
 40
1.0
176
     1
 90
        8
176
     1
 62
   257
176
     1
 40
1.0
176
     1
 90
        1
176
     1
 90
        6
176
     1
 90
        2
176
     1
 62
     7
176
     1
 90
        3
176
     1
 90
        0
176
     1
 90
        0
176
     1
290
     0
176
     1
 90
        5
176
     1
 40
0.0
176
     1
 90
        0
176
     1
290
     0
176
     1
290
     1
176
     1
290
     1
176
     1
290
     0
176
     1
290
     0
176
     1
290
     0
176
     1
290
     0
176
     1
290
     0
176
     1
290
     0
176
     1
 90
       50
176
     1
 40
0.0
176
     1
 40
1.0
176
     1
 90
        0
176
     1
 62
    18
176
     1
 90
       50
176
     1
 90
        3
176
     1
 62
     5
420
      255
176
     1
290
     0
176
     1
 90
       50
176
     1
 90
       50
176
     1
 90
       50
176
     1
290
     0
176
     1
 90
       50
176
     1
 62
   256
176
     0
 40
1.0
176
     0
 90
        2
176
     1
  1
strokes_ogs.tif
176
     1
290
     0
176
     1
 40
1.0
176
     1
 40
1.0
176
     1
  0
VISUALSTYLE
  5
3A
102
{ACAD_REACTORS
330
29
102
}
330
29
100
AcDbVisualStyle
  2
Shades of Gray
 70
    23
177
     3
291
     0
 70
    58
 90
        2
176
     1
 90
        2
176
     1
 90
        3
176
     1
 90
        0
176
     1
 40
0.6
176
     1
 40
30.0
176
     1
 62
     7
420
 16777215
176
     1
 90
        2
176
     1
 90
        2
176
     1
 62
     7
176
     1
 62
     7
176
     1
 90
        1
176
     1
 90
        1
176
     1
 40
40.0
176
     1
 90
        8
176
     1
 62
     7
176
     1
 40
1.0
176
     1
 90
        1
176
     1
 90
        6
176
     1
 90
        2
176
     1
 62
     7
176
     1
 90
        3
176
     1
 90
        0
176
     1
 90
        0
176
     1
290
     0
176
     1
 90
        1
176
     1
 40
0.0
176
     1
 90
        0
176
     1
290
     0
176
     1
290
     1
176
     1
290
     1
176
     1
290
     0
176
     1
290
     0
176
     1
290
     0
176
     1
290
     0
176
     1
290
     0
176
     1
290
     0
176
     1
 90
       50
176
     1
 40
0.0
176
     1
 40
1.0
176
     1
 90
        0
176
     1
 62
    18
176
     1
 90
       50
176
     1
 90
        3
176
     1
 62
     5
420
      255
176
     1
290
     0
176
     1
 90
       50
176
     1
 90
       50
176
     1
 90
       50
176
     1
290
     0
176
     1
 90
       50
176
     1
 62
   256
176
     0
 40
1.0
176
     0
 90
        2
176
     1
  1
strokes_ogs.tif
176
     1
290
     0
176
     1
 40
1.0
176
     1
 40
1.0
176
     1
  0
VISUALSTYLE
  5
3B
102
{ACAD_REACTORS
330
29
102
}
330
29
100
AcDbVisualStyle
  2
Sketchy
 70
    24
177
     3
291
     0
 70
    58
 90
        1
176
     1
 90
        2
176
     1
 90
        2
176
     1
 90
        0
176
     1
 40
0.6
176
     1
 40
30.0
176
     1
 62
     7
420
 16777215
176
     1
 90
        2
176
     1
 90
        2
176
     1
 62
     7
176
     1
 62
     7
176
     1
 90
        1
176
     1
 90
        1
176
     1
 40
40.0
176
     1
 90
       11
176
     1
 62
     7
176
     1
 40
1.0
176
     1
 90
        1
176
     1
 90
        6
176
     1
 90
        2
176
     1
 62
     7
176
     1
 90
        6
176
     1
 90
        0
176
     1
 90
        0
176
     1
290
     0
176
     1
 90
        1
176
     1
 40
0.0
176
     1
 90
        0
176
     1
290
     0
176
     1
290
     1
176
     1
290
     1
176
     1
290
     0
176
     1
290
     0
176
     1
290
     0
176
     1
290
     0
176
     1
290
     0
176
     1
290
     0
176
     1
 90
       50
176
     1
 40
0.0
176
     1
 40
1.0
176
     1
 90
        0
176
     1
 62
    18
176
     1
 90
       50
176
     1
 90
        3
176
     1
 62
     5
420
      255
176
     1
290
     0
176
     1
 90
       50
176
     1
 90
       50
176
     1
 90
       50
176
     1
290
     0
176
     1
 90
       50
176
     1
 62
   256
176
     0
 40
1.0
176
     0
 90
        2
176
     1
  1
strokes_ogs.tif
176
     1
290
     0
176
     1
 40
1.0
176
     1
 40
1.0
176
     1
  0
VISUALSTYLE
  5
36
102
{ACAD_REACTORS
330
29
102
}
330
29
100
AcDbVisualStyle
  2
Thicken
 70
    13
177
     3
291
     1
 70
    58
 90
        2
176
     1
 90
        2
176
     1
 90
        0
176
     1
 90
        0
176
     1
 40
0.6
176
     1
 40
30.0
176
     1
 62
     7
420
 16777215
176
     1
 90
        1
176
     1
 90
        4
176
     1
 62
     7
176
     1
 62
   257
176
     1
 90
        1
176
     1
 90
        1
176
     1
 40
1.0
176
     1
 90
       12
176
     1
 62
     7
176
     1
 40
1.0
176
     1
 90
        1
176
     1
 90
        6
176
     1
 90
        2
176
     1
 62
     7
176
     1
 90
        5
176
     1
 90
        0
176
     1
 90
        0
176
     1
290
     0
176
     1
 90
        1
176
     1
 40
0.0
176
     1
 90
        0
176
     1
290
     0
176
     1
290
     1
176
     1
290
     1
176
     1
290
     0
176
     1
290
     0
176
     1
290
     0
176
     1
290
     0
176
     1
290
     0
176
     1
290
     0
176
     1
 90
       50
176
     1
 40
0.0
176
     1
 40
1.0
176
     1
 90
        0
176
     1
 62
    18
176
     1
 90
       50
176
     1
 90
        3
176
     1
 62
     5
420
      255
176
     1
290
     0
176
     1
 90
       50
176
     1
 90
       50
176
     1
 90
       50
176
     1
290
     0
176
     1
 90
       50
176
     1
 62
   256
176
     0
 40
1.0
176
     0
 90
        2
176
     1
  1
strokes_ogs.tif
176
     1
290
     0
176
     1
 40
1.0
176
     1
 40
1.0
176
     1
  0
VISUALSTYLE
  5
30
102
{ACAD_REACTORS
330
29
102
}
330
29
100
AcDbVisualStyle
  2
Wireframe
 70
     5
177
     3
291
     0
 70
    58
 90
        0
176
     1
 90
        2
176
     1
 90
        0
176
     1
 90
        0
176
     1
 40
0.6
176
     1
 40
30.0
176
     1
 62
     7
420
 16777215
176
     1
 90
        1
176
     1
 90
        4
176
     1
 62
     7
176
     1
 62
   257
176
     1
 90
        1
176
     1
 90
        1
176
     1
 40
1.0
176
     1
 90
        0
176
     1
 62
   257
176
     1
 40
1.0
176
     1
 90
        1
176
     1
 90
        6
176
     1
 90
        2
176
     1
 62
     7
176
     1
 90
        3
176
     1
 90
        0
176
     1
 90
        0
176
     1
290
     0
176
     1
 90
        1
176
     1
 40
0.0
176
     1
 90
        0
176
     1
290
     0
176
     1
290
     1
176
     1
290
     1
176
     1
290
     0
176
     1
290
     0
176
     1
290
     0
176
     1
290
     0
176
     1
290
     0
176
     1
290
     0
176
     1
 90
       50
176
     1
 40
0.0
176
     1
 40
1.0
176
     1
 90
        0
176
     1
 62
    18
176
     1
 90
       50
176
     1
 90
        3
176
     1
 62
     5
420
      255
176
     1
290
     0
176
     1
 90
       50
176
     1
 90
       50
176
     1
 90
       50
176
     1
290
     0
176
     1
 90
       50
176
     1
 62
   256
176
     0
 40
1.0
176
     0
 90
        2
176
     1
  1
strokes_ogs.tif
176
     1
290
     0
176
     1
 40
1.0
176
     1
 40
1.0
176
     1
  0
VISUALSTYLE
  5
3C
102
{ACAD_REACTORS
330
29
102
}
330
29
100
AcDbVisualStyle
  2
X-Ray
 70
    25
177
     3
291
     0
 70
    58
 90
        2
176
     1
 90
        2
176
     1
 90
        1
176
     1
 90
        1
176
     1
 40
0.5
176
     1
 40
30.0
176
     1
 62
     7
420
 16777215
176
     1
 90
        1
176
     1
 90
        0
176
     1
 62
     7
176
     1
 62
   257
176
     1
 90
        1
176
     1
 90
        1
176
     1
 40
1.0
176
     1
 90
        8
176
     1
 62
     7
176
     1
 40
1.0
176
     1
 90
        1
176
     1
 90
        6
176
     1
 90
        2
176
     1
 62
     7
176
     1
 90
        3
176
     1
 90
        0
176
     1
 90
        0
176
     1
290
     0
176
     1
 90
       13
176
     1
 40
0.0
176
     1
 90
        0
176
     1
290
     0
176
     1
290
     1
176
     1
290
     1
176
     1
290
     0
176
     1
290
     0
176
     1
290
     0
176
     1
290
     0
176
     1
290
     0
176
     1
290
     0
176
     1
 90
       50
176
     1
 40
0.0
176
     1
 40
1.0
176
     1
 90
        0
176
     1
 62
    18
176
     1
 90
       50
176
     1
 90
        3
176
     1
 62
     5
420
      255
176
     1
290
     0
176
     1
 90
       50
176
     1
 90
       50
176
     1
 90
       50
176
     1
290
     0
176
     1
 90
       50
176
     1
 62
   256
176
     0
 40
1.0
176
     0
 90
        2
176
     1
  1
strokes_ogs.tif
176
     1
290
     0
176
     1
 40
1.0
176
     1
 40
1.0
176
     1
  0
DICTIONARYVAR
  5
320
102
{ACAD_REACTORS
330
31A
102
}
330
31A
100
DictionaryVariables
280
     0
  1
1:1
  0
DICTIONARYVAR
  5
31C
102
{ACAD_REACTORS
330
31A
102
}
330
31A
100
DictionaryVariables
280
     0
  1
STANDARD
  0
DICTIONARYVAR
  5
31B
102
{ACAD_REACTORS
330
31A
102
}
330
31A
100
DictionaryVariables
280
     0
  1
STANDARD
  0
DICTIONARYVAR
  5
31D
102
{ACAD_REACTORS
330
31A
102
}
330
31A
100
DictionaryVariables
280
     0
  1
Imperial24
  0
DICTIONARYVAR
  5
31E
102
{ACAD_REACTORS
330
31A
102
}
330
31A
100
DictionaryVariables
280
     0
  1
Imperial24
  0
DICTIONARYVAR
  5
322
102
{ACAD_REACTORS
330
31A
102
}
330
31A
100
DictionaryVariables
280
     0
  1
1
  0
DICTIONARYVAR
  5
323
102
{ACAD_REACTORS
330
31A
102
}
330
31A
100
DictionaryVariables
280
     0
  1
15
  0
DICTIONARYVAR
  5
321
102
{ACAD_REACTORS
330
31A
102
}
330
31A
100
DictionaryVariables
280
     0
  1
0
  0
DICTIONARYVAR
  5
31F
102
{ACAD_REACTORS
330
31A
102
}
330
31A
100
DictionaryVariables
280
     0
  1
0
  0
DICTIONARY
  5
1A
330
19
100
AcDbDictionary
280
     1
281
     1
  3
BUMPTILE
360
1C
  3
DIFFUSETILE
360
1B
  3
OPACITYTILE
360
1F
  3
REFLECTIONTILE
360
1E
  3
REFRACTIONTILE
360
20
  3
SPECULARTILE
360
1D
  0
DICTIONARY
  5
12
330
11
100
AcDbDictionary
280
     1
281
     1
  3
BUMPTILE
360
14
  3
DIFFUSETILE
360
13
  3
OPACITYTILE
360
17
  3
REFLECTIONTILE
360
16
  3
REFRACTIONTILE
360
18
  3
SPECULARTILE
360
15
  0
DICTIONARY
  5
22
330
21
100
AcDbDictionary
280
     1
281
     1
  3
BUMPTILE
360
24
  3
DIFFUSETILE
360
23
  3
OPACITYTILE
360
27
  3
REFLECTIONTILE
360
26
  3
REFRACTIONTILE
360
28
  3
SPECULARTILE
360
25
  0
DICTIONARY
  5
1289
330
64
100
AcDbDictionary
280
     1
281
     1
  3
ACAD_ROUNDTRIP_2008_TABLESTYLE_CELLSTYLEMAP
360
27C2
  0
XRECORD
  5
1C
102
{ACAD_REACTORS
330
1A
102
}
330
1A
100
AcDbXrecord
280
     1
270
     1
271
     1
  0
XRECORD
  5
1B
102
{ACAD_REACTORS
330
1A
102
}
330
1A
100
AcDbXrecord
280
     1
270
     1
271
     1
  0
XRECORD
  5
1F
102
{ACAD_REACTORS
330
1A
102
}
330
1A
100
AcDbXrecord
280
     1
270
     1
271
     1
  0
XRECORD
  5
1E
102
{ACAD_REACTORS
330
1A
102
}
330
1A
100
AcDbXrecord
280
     1
270
     1
271
     1
  0
XRECORD
  5
20
102
{ACAD_REACTORS
330
1A
102
}
330
1A
100
AcDbXrecord
280
     1
270
     1
271
     1
  0
XRECORD
  5
1D
102
{ACAD_REACTORS
330
1A
102
}
330
1A
100
AcDbXrecord
280
     1
270
     1
271
     1
  0
XRECORD
  5
14
102
{ACAD_REACTORS
330
12
102
}
330
12
100
AcDbXrecord
280
     1
270
     1
271
     1
  0
XRECORD
  5
13
102
{ACAD_REACTORS
330
12
102
}
330
12
100
AcDbXrecord
280
     1
270
     1
271
     1
  0
XRECORD
  5
17
102
{ACAD_REACTORS
330
12
102
}
330
12
100
AcDbXrecord
280
     1
270
     1
271
     1
  0
XRECORD
  5
16
102
{ACAD_REACTORS
330
12
102
}
330
12
100
AcDbXrecord
280
     1
270
     1
271
     1
  0
XRECORD
  5
18
102
{ACAD_REACTORS
330
12
102
}
330
12
100
AcDbXrecord
280
     1
270
     1
271
     1
  0
XRECORD
  5
15
102
{ACAD_REACTORS
330
12
102
}
330
12
100
AcDbXrecord
280
     1
270
     1
271
     1
  0
XRECORD
  5
24
102
{ACAD_REACTORS
330
22
102
}
330
22
100
AcDbXrecord
280
     1
270
     1
271
     1
  0
XRECORD
  5
23
102
{ACAD_REACTORS
330
22
102
}
330
22
100
AcDbXrecord
280
     1
270
     1
271
     1
  0
XRECORD
  5
27
102
{ACAD_REACTORS
330
22
102
}
330
22
100
AcDbXrecord
280
     1
270
     1
271
     1
  0
XRECORD
  5
26
102
{ACAD_REACTORS
330
22
102
}
330
22
100
AcDbXrecord
280
     1
270
     1
271
     1
  0
XRECORD
  5
28
102
{ACAD_REACTORS
330
22
102
}
330
22
100
AcDbXrecord
280
     1
270
     1
271
     1
  0
XRECORD
  5
25
102
{ACAD_REACTORS
330
22
102
}
330
22
100
AcDbXrecord
280
     1
270
     1
271
     1
  0
CELLSTYLEMAP
  5
27C2
102
{ACAD_REACTORS
330
1289
102
}
330
1289
100
AcDbCellStyleMap
 90
        3
300
CELLSTYLE
  1
TABLEFORMAT_BEGIN
 90
        5
170
     1
 91
        0
 92
    32768
 62
   257
 93
        1
300
CONTENTFORMAT
  1
CONTENTFORMAT_BEGIN
 90
        0
 91
        0
 92
      512
 93
        0
300

 40
0.0
140
1.0
 94
        5
 62
     0
340
55
144
0.25
309
CONTENTFORMAT_END
171
     1
301
MARGIN
  1
CELLMARGIN_BEGIN
 40
0.06
 40
0.06
 40
0.06
 40
0.06
 40
0.18
 40
0.18
309
CELLMARGIN_END
 94
        6
 95
        1
302
GRIDFORMAT
  1
GRIDFORMAT_BEGIN
 90
        0
 91
        1
 62
     0
 92
       -2
340
0
 93
        0
 40
0.045
309
GRIDFORMAT_END
 95
        2
302
GRIDFORMAT
  1
GRIDFORMAT_BEGIN
 90
        0
 91
        1
 62
     0
 92
       -2
340
0
 93
        0
 40
0.045
309
GRIDFORMAT_END
 95
        4
302
GRIDFORMAT
  1
GRIDFORMAT_BEGIN
 90
        0
 91
        1
 62
     0
 92
       -2
340
0
 93
        0
 40
0.045
309
GRIDFORMAT_END
 95
        8
302
GRIDFORMAT
  1
GRIDFORMAT_BEGIN
 90
        0
 91
        1
 62
     0
 92
       -2
340
0
 93
        0
 40
0.045
309
GRIDFORMAT_END
 95
       16
302
GRIDFORMAT
  1
GRIDFORMAT_BEGIN
 90
        0
 91
        1
 62
     0
 92
       -2
340
0
 93
        0
 40
0.045
309
GRIDFORMAT_END
 95
       32
302
GRIDFORMAT
  1
GRIDFORMAT_BEGIN
 90
        0
 91
        1
 62
     0
 92
       -2
340
0
 93
        0
 40
0.045
309
GRIDFORMAT_END
309
TABLEFORMAT_END
  1
CELLSTYLE_BEGIN
 90
        1
 91
        1
300
_TITLE
309
CELLSTYLE_END
300
CELLSTYLE
  1
TABLEFORMAT_BEGIN
 90
        5
170
     1
 91
        0
 92
        0
 62
   257
 93
        1
300
CONTENTFORMAT
  1
CONTENTFORMAT_BEGIN
 90
        0
 91
        0
 92
      512
 93
        0
300

 40
0.0
140
1.0
 94
        5
 62
     0
340
55
144
0.18
309
CONTENTFORMAT_END
171
     1
301
MARGIN
  1
CELLMARGIN_BEGIN
 40
0.06
 40
0.06
 40
0.06
 40
0.06
 40
0.18
 40
0.18
309
CELLMARGIN_END
 94
        6
 95
        1
302
GRIDFORMAT
  1
GRIDFORMAT_BEGIN
 90
        0
 91
        1
 62
     0
 92
       -2
340
0
 93
        0
 40
0.045
309
GRIDFORMAT_END
 95
        2
302
GRIDFORMAT
  1
GRIDFORMAT_BEGIN
 90
        0
 91
        1
 62
     0
 92
       -2
340
0
 93
        0
 40
0.045
309
GRIDFORMAT_END
 95
        4
302
GRIDFORMAT
  1
GRIDFORMAT_BEGIN
 90
        0
 91
        1
 62
     0
 92
       -2
340
0
 93
        0
 40
0.045
309
GRIDFORMAT_END
 95
        8
302
GRIDFORMAT
  1
GRIDFORMAT_BEGIN
 90
        0
 91
        1
 62
     0
 92
       -2
340
0
 93
        0
 40
0.045
309
GRIDFORMAT_END
 95
       16
302
GRIDFORMAT
  1
GRIDFORMAT_BEGIN
 90
        0
 91
        1
 62
     0
 92
       -2
340
0
 93
        0
 40
0.045
309
GRIDFORMAT_END
 95
       32
302
GRIDFORMAT
  1
GRIDFORMAT_BEGIN
 90
        0
 91
        1
 62
     0
 92
       -2
340
0
 93
        0
 40
0.045
309
GRIDFORMAT_END
309
TABLEFORMAT_END
  1
CELLSTYLE_BEGIN
 90
        2
 91
        1
300
_HEADER
309
CELLSTYLE_END
300
CELLSTYLE
  1
TABLEFORMAT_BEGIN
 90
        5
170
     1
 91
        0
 92
        0
 62
   257
 93
        1
300
CONTENTFORMAT
  1
CONTENTFORMAT_BEGIN
 90
        0
 91
        0
 92
      512
 93
        0
300

 40
0.0
140
1.0
 94
        2
 62
     0
340
55
144
0.18
309
CONTENTFORMAT_END
171
     1
301
MARGIN
  1
CELLMARGIN_BEGIN
 40
0.06
 40
0.06
 40
0.06
 40
0.06
 40
0.18
 40
0.18
309
CELLMARGIN_END
 94
        6
 95
        1
302
GRIDFORMAT
  1
GRIDFORMAT_BEGIN
 90
        0
 91
        1
 62
     0
 92
       -2
340
0
 93
        0
 40
0.045
309
GRIDFORMAT_END
 95
        2
302
GRIDFORMAT
  1
GRIDFORMAT_BEGIN
 90
        0
 91
        1
 62
     0
 92
       -2
340
0
 93
        0
 40
0.045
309
GRIDFORMAT_END
 95
        4
302
GRIDFORMAT
  1
GRIDFORMAT_BEGIN
 90
        0
 91
        1
 62
     0
 92
       -2
340
0
 93
        0
 40
0.045
309
GRIDFORMAT_END
 95
        8
302
GRIDFORMAT
  1
GRIDFORMAT_BEGIN
 90
        0
 91
        1
 62
     0
 92
       -2
340
0
 93
        0
 40
0.045
309
GRIDFORMAT_END
 95
       16
302
GRIDFORMAT
  1
GRIDFORMAT_BEGIN
 90
        0
 91
        1
 62
     0
 92
       -2
340
0
 93
        0
 40
0.045
309
GRIDFORMAT_END
 95
       32
302
GRIDFORMAT
  1
GRIDFORMAT_BEGIN
 90
        0
 91
        1
 62
     0
 92
       -2
340
0
 93
        0
 40
0.045
309
GRIDFORMAT_END
309
TABLEFORMAT_END
  1
CELLSTYLE_BEGIN
 90
        3
 91
        2
300
_DATA
309
CELLSTYLE_END
  0
ENDSEC
  0
SECTION
  2
ACDSDATA
 70
     2
 71
     8
  0
ACDSSCHEMA
 90
        0
  1
AcDb_Thumbnail_Schema
  2
AcDbDs::ID
280
    10
 91
        8
  2
Thumbnail_Data
280
    15
 91
        0
101
ACDSRECORD
 95
        0
 90
        1
  2
AcDbDs::TreatedAsObjectData
280
     1
291
     1
101
ACDSRECORD
 95
        0
 90
        2
  2
AcDbDs::Legacy
280
     1
291
     1
101
ACDSRECORD
  1
AcDbDs::ID
 90
        3
  2
AcDs:Indexable
280
     1
291
     1
101
ACDSRECORD
  1
AcDbDs::ID
 90
        4
  2
AcDbDs::HandleAttribute
280
     7
282
     1
  0
ACDSSCHEMA
 90
        1
  1
AcDbDs::TreatedAsObjectDataSchema
  2
AcDbDs::TreatedAsObjectData
280
     1
 91
        0
  0
ACDSSCHEMA
 90
        2
  1
AcDbDs::LegacySchema
  2
AcDbDs::Legacy
280
     1
 91
        0
  0
ACDSSCHEMA
 90
        3
  1
AcDbDs::IndexedPropertySchema
  2
AcDs:Indexable
280
     1
 91
        0
  0
ACDSSCHEMA
 90
        4
  1
AcDbDs::HandleAttributeSchema
  2
AcDbDs::HandleAttribute
280
     7
 91
        1
284
     1
  0
ACDSRECORD
 90
        0
  2
AcDbDs::ID
280
    10
320
72
  2
Thumbnail_Data
280
    15
 94
     1455
310
89504E470D0A1A0A0000000D4948445200000100000000A808030000003894C06300000300504C5445212830FFFFFF2128300000000000000000000000000000000000000000000000000000330000660000990000CC0000FF0033000033330033660033990033CC0033FF0066000066330066660066990066CC0066FF0099
310
000099330099660099990099CC0099FF00CC0000CC3300CC6600CC9900CCCC00CCFF00FF0000FF3300FF6600FF9900FFCC00FFFF3300003300333300663300993300CC3300FF3333003333333333663333993333CC3333FF3366003366333366663366993366CC3366FF3399003399333399663399993399CC3399FF33CC00
310
33CC3333CC6633CC9933CCCC33CCFF33FF0033FF3333FF6633FF9933FFCC33FFFF6600006600336600666600996600CC6600FF6633006633336633666633996633CC6633FF6666006666336666666666996666CC6666FF6699006699336699666699996699CC6699FF66CC0066CC3366CC6666CC9966CCCC66CCFF66FF0066
310
FF3366FF6666FF9966FFCC66FFFF9900009900339900669900999900CC9900FF9933009933339933669933999933CC9933FF9966009966339966669966999966CC9966FF9999009999339999669999999999CC9999FF99CC0099CC3399CC6699CC9999CCCC99CCFF99FF0099FF3399FF6699FF9999FFCC99FFFFCC0000CC00
310
33CC0066CC0099CC00CCCC00FFCC3300CC3333CC3366CC3399CC33CCCC33FFCC6600CC6633CC6666CC6699CC66CCCC66FFCC9900CC9933CC9966CC9999CC99CCCC99FFCCCC00CCCC33CCCC66CCCC99CCCCCCCCCCFFCCFF00CCFF33CCFF66CCFF99CCFFCCCCFFFFFF0000FF0033FF0066FF0099FF00CCFF00FFFF3300FF3333
310
FF3366FF3399FF33CCFF33FFFF6600FF6633FF6666FF6699FF66CCFF66FFFF9900FF9933FF9966FF9999FF99CCFF99FFFFCC00FFCC33FFCC66FFCC99FFCCCCFFCCFFFFFF00FFFF33FFFF66FFFF99FFFFCCFFFFFF0000000D0D0D1A1A1A2828283535354343435050505D5D5D6B6B6B787878868686939393A1A1A1AEAEAEBB
310
BBBBC9C9C9D6D6D6E4E4E4F1F1F1FFFFFF0000000000000000000000000000000000000000000000000000000000002E4550F1000001034944415478DAEDDA4D0E82301080D1B92F7764E399BA375A4120C6948531CCBC67E25FDCF0A5D5168C00000000000000000000000000000000000080AE9D93EFF8CF15889630C0E0
310
4039F369010410E03201E6D1004F73DD00FD4180DA53A07680C72898E7D2BF02755782EB16408094018A6F865AF5FD3050DA6DC834F5C78C017EF66101041040000104104000010410E0FA9BA185CD23A4B49CEE3D9CF65D5EA53E1B3C7A2E3C6D847EB5A3C5F16EF3F6F2245ADD11D0728F808183CF1C20B673E0D35C88F5
310
D6AA8F80AC0162F492A80005A740ECA641CE00B15B0A1CD605AFAFC6BAEB8078AF04B30788AFE3BFC042A87C00FF0F02000000000000000000E09FEEC0CD8202BA952DD40000000049454E44AE426082DC31088E51140DFF122C9F8047817C392FEAD4D09BAEB6A6903A6BC2B045D15C7F52CB9971E70BE0A6AB2CFC742A41
310
1B73E92F08E0F06CEA570318FE09C89D1262AFAAFCD5010C3E088EFE2F326B69ECF63EBF71D08B0600000000000000000080F0FE000537FA2DEB985D820000000049454E44AE426082A2A005842AD6BEBE081BD4D9747D0002E416C0CE12C064E6FF1C27A812072CE55737BF62B35B7A35378A8B416901BAE9FACEEC382E06
310
130AE096028600C90548E904271540C2A08C009B0FB8AE3E2AD43180583A964985BB859BBD0F8B3D4B62D6781AB1C540F4D607096013010A02480AF07F7F012501CE7082398AA2F241D05B806B0EAB8CA153436F0E954E73583BF5B245D1B641D465C6F346C9417B60F3D0B46E4D70538097B3A9AB0A90DE02A6ADB2571020
310
B913CCDE223352637AF4FD93690F06000000000000000000000000000000000000000058E307E855F3737D251A850000000049454E44AE426082
  0
ENDSEC
  0
EOF
