  0
SECTION
  2
HEADER
  9
$ACADVER
  1
AC1032
  9
$ACADMAINTVER
 90
      140
  9
$DWGCODEPAGE
  3
ANSI_936
  9
$LASTSAVEDBY
  1
luxiaofeng
  9
$REQUIREDVERSIONS
160
                 0
  9
$INSBASE
 10
0.0
 20
0.0
 30
0.0
  9
$EXTMIN
 10
-27.91637130200297
 20
-278.105831265548
 30
0.0
  9
$EXTMAX
 10
712.2398066053563
 20
227.4612556631287
 30
0.0
  9
$LIMMIN
 10
0.0
 20
0.0
  9
$LIMMAX
 10
12.0
 20
9.0
  9
$ORTHOMODE
 70
     0
  9
$REGENMODE
 70
     1
  9
$FILLMODE
 70
     0
  9
$QTEXTMODE
 70
     0
  9
$MIRRTEXT
 70
     0
  9
$LTSCALE
 40
1.0
  9
$ATTMODE
 70
     1
  9
$TEXTSIZE
 40
0.2
  9
$TRACEWID
 40
0.05
  9
$TEXTSTYLE
  7
Standard
  9
$CLAYER
  8
0
  9
$CELTYPE
  6
Continuous
  9
$CECOLOR
 62
   256
  9
$CELTSCALE
 40
1.0
  9
$DISPSILH
 70
     0
  9
$DIMSCALE
 40
1.0
  9
$DIMASZ
 40
0.18
  9
$DIMEXO
 40
0.0625
  9
$DIMDLI
 40
0.38
  9
$DIMRND
 40
0.0
  9
$DIMDLE
 40
0.0
  9
$DIMEXE
 40
0.18
  9
$DIMTP
 40
0.0
  9
$DIMTM
 40
0.0
  9
$DIMTXT
 40
0.18
  9
$DIMCEN
 40
0.09
  9
$DIMTSZ
 40
0.0
  9
$DIMTOL
 70
     0
  9
$DIMLIM
 70
     0
  9
$DIMTIH
 70
     1
  9
$DIMTOH
 70
     1
  9
$DIMSE1
 70
     0
  9
$DIMSE2
 70
     0
  9
$DIMTAD
 70
     0
  9
$DIMZIN
 70
     0
  9
$DIMBLK
  1

  9
$DIMASO
 70
     1
  9
$DIMSHO
 70
     1
  9
$DIMPOST
  1

  9
$DIMAPOST
  1

  9
$DIMALT
 70
     0
  9
$DIMALTD
 70
     2
  9
$DIMALTF
 40
25.4
  9
$DIMLFAC
 40
1.0
  9
$DIMTOFL
 70
     0
  9
$DIMTVP
 40
0.0
  9
$DIMTIX
 70
     0
  9
$DIMSOXD
 70
     0
  9
$DIMSAH
 70
     0
  9
$DIMBLK1
  1

  9
$DIMBLK2
  1

  9
$DIMSTYLE
  2
Standard
  9
$DIMCLRD
 70
     0
  9
$DIMCLRE
 70
     0
  9
$DIMCLRT
 70
     0
  9
$DIMTFAC
 40
1.0
  9
$DIMGAP
 40
0.09
  9
$DIMJUST
 70
     0
  9
$DIMSD1
 70
     0
  9
$DIMSD2
 70
     0
  9
$DIMTOLJ
 70
     1
  9
$DIMTZIN
 70
     0
  9
$DIMALTZ
 70
     0
  9
$DIMALTTZ
 70
     0
  9
$DIMUPT
 70
     0
  9
$DIMDEC
 70
     4
  9
$DIMTDEC
 70
     4
  9
$DIMALTU
 70
     2
  9
$DIMALTTD
 70
     2
  9
$DIMTXSTY
  7
Standard
  9
$DIMAUNIT
 70
     0
  9
$DIMADEC
 70
     0
  9
$DIMALTRND
 40
0.0
  9
$DIMAZIN
 70
     0
  9
$DIMDSEP
 70
    46
  9
$DIMATFIT
 70
     3
  9
$DIMFRAC
 70
     0
  9
$DIMLDRBLK
  1

  9
$DIMLUNIT
 70
     2
  9
$DIMLWD
 70
    -2
  9
$DIMLWE
 70
    -2
  9
$DIMTMOVE
 70
     0
  9
$DIMFXL
 40
1.0
  9
$DIMFXLON
 70
     0
  9
$DIMJOGANG
 40
0.7853981633974483
  9
$DIMTFILL
 70
     0
  9
$DIMTFILLCLR
 70
     0
  9
$DIMARCSYM
 70
     0
  9
$DIMLTYPE
  6

  9
$DIMLTEX1
  6

  9
$DIMLTEX2
  6

  9
$DIMTXTDIRECTION
 70
     0
  9
$LUNITS
 70
     2
  9
$LUPREC
 70
     4
  9
$SKETCHINC
 40
0.1
  9
$FILLETRAD
 40
0.0
  9
$AUNITS
 70
     0
  9
$AUPREC
 70
     0
  9
$MENU
  1
.
  9
$ELEVATION
 40
0.0
  9
$PELEVATION
 40
0.0
  9
$THICKNESS
 40
0.0
  9
$LIMCHECK
 70
     0
  9
$CHAMFERA
 40
0.0
  9
$CHAMFERB
 40
0.0
  9
$CHAMFERC
 40
0.0
  9
$CHAMFERD
 40
0.0
  9
$SKPOLY
 70
     0
  9
$TDCREATE
 40
2459672.941736111
  9
$TDUCREATE
 40
2459672.608402778
  9
$TDUPDATE
 40
2459718.485856482
  9
$TDUUPDATE
 40
2459718.152523148
  9
$TDINDWG
 40
45.5441203704
  9
$TDUSRTIMER
 40
45.5441203704
  9
$USRTIMER
 70
     1
  9
$ANGBASE
 50
0.0
  9
$ANGDIR
 70
     0
  9
$PDMODE
 70
     0
  9
$PDSIZE
 40
0.0
  9
$PLINEWID
 40
0.0
  9
$SPLFRAME
 70
     1
  9
$SPLINETYPE
 70
     6
  9
$SPLINESEGS
 70
     8
  9
$HANDSEED
  5
128C
  9
$SURFTAB1
 70
     6
  9
$SURFTAB2
 70
     6
  9
$SURFTYPE
 70
     6
  9
$SURFU
 70
     6
  9
$SURFV
 70
     6
  9
$UCSBASE
  2

  9
$UCSNAME
  2

  9
$UCSORG
 10
0.0
 20
0.0
 30
0.0
  9
$UCSXDIR
 10
1.0
 20
0.0
 30
0.0
  9
$UCSYDIR
 10
0.0
 20
1.0
 30
0.0
  9
$UCSORTHOREF
  2

  9
$UCSORTHOVIEW
 70
     0
  9
$UCSORGTOP
 10
0.0
 20
0.0
 30
0.0
  9
$UCSORGBOTTOM
 10
0.0
 20
0.0
 30
0.0
  9
$UCSORGLEFT
 10
0.0
 20
0.0
 30
0.0
  9
$UCSORGRIGHT
 10
0.0
 20
0.0
 30
0.0
  9
$UCSORGFRONT
 10
0.0
 20
0.0
 30
0.0
  9
$UCSORGBACK
 10
0.0
 20
0.0
 30
0.0
  9
$PUCSBASE
  2

  9
$PUCSNAME
  2

  9
$PUCSORG
 10
0.0
 20
0.0
 30
0.0
  9
$PUCSXDIR
 10
1.0
 20
0.0
 30
0.0
  9
$PUCSYDIR
 10
0.0
 20
1.0
 30
0.0
  9
$PUCSORTHOREF
  2

  9
$PUCSORTHOVIEW
 70
     0
  9
$PUCSORGTOP
 10
0.0
 20
0.0
 30
0.0
  9
$PUCSORGBOTTOM
 10
0.0
 20
0.0
 30
0.0
  9
$PUCSORGLEFT
 10
0.0
 20
0.0
 30
0.0
  9
$PUCSORGRIGHT
 10
0.0
 20
0.0
 30
0.0
  9
$PUCSORGFRONT
 10
0.0
 20
0.0
 30
0.0
  9
$PUCSORGBACK
 10
0.0
 20
0.0
 30
0.0
  9
$USERI1
 70
     0
  9
$USERI2
 70
     0
  9
$USERI3
 70
     0
  9
$USERI4
 70
     0
  9
$USERI5
 70
     0
  9
$USERR1
 40
0.0
  9
$USERR2
 40
0.0
  9
$USERR3
 40
0.0
  9
$USERR4
 40
0.0
  9
$USERR5
 40
0.0
  9
$WORLDVIEW
 70
     1
  9
$SHADEDGE
 70
     3
  9
$SHADEDIF
 70
    70
  9
$TILEMODE
 70
     1
  9
$MAXACTVP
 70
    64
  9
$PINSBASE
 10
0.0
 20
0.0
 30
0.0
  9
$PLIMCHECK
 70
     0
  9
$PEXTMIN
 10
1.000000000000000E+20
 20
1.000000000000000E+20
 30
1.000000000000000E+20
  9
$PEXTMAX
 10
-1.000000000000000E+20
 20
-1.000000000000000E+20
 30
-1.000000000000000E+20
  9
$PLIMMIN
 10
0.0
 20
0.0
  9
$PLIMMAX
 10
12.0
 20
9.0
  9
$UNITMODE
 70
     0
  9
$VISRETAIN
 70
     1
  9
$PLINEGEN
 70
     0
  9
$PSLTSCALE
 70
     1
  9
$TREEDEPTH
 70
  3020
  9
$CMLSTYLE
  2
Standard
  9
$CMLJUST
 70
     0
  9
$CMLSCALE
 40
1.0
  9
$PROXYGRAPHICS
 70
     1
  9
$MEASUREMENT
 70
     0
  9
$CELWEIGHT
370
    -1
  9
$ENDCAPS
280
     0
  9
$JOINSTYLE
280
     0
  9
$LWDISPLAY
290
     0
  9
$INSUNITS
 70
     0
  9
$HYPERLINKBASE
  1

  9
$STYLESHEET
  1

  9
$XEDIT
290
     1
  9
$CEPSNTYPE
380
     0
  9
$PSTYLEMODE
290
     1
  9
$FINGERPRINTGUID
  2
{8B8D7928-69A4-8D4A-A871-DDA2047506A2}
  9
$VERSIONGUID
  2
{33DA4A6D-1F24-6D4A-9B60-A69A9FA2BBC7}
  9
$EXTNAMES
290
     1
  9
$PSVPSCALE
 40
0.0
  9
$OLESTARTUP
290
     0
  9
$SORTENTS
280
   127
  9
$INDEXCTL
280
     0
  9
$HIDETEXT
280
     0
  9
$XCLIPFRAME
280
     2
  9
$HALOGAP
280
     0
  9
$OBSCOLOR
 70
   257
  9
$OBSLTYPE
280
     0
  9
$INTERSECTIONDISPLAY
280
     0
  9
$INTERSECTIONCOLOR
 70
   257
  9
$DIMASSOC
280
     1
  9
$PROJECTNAME
  1

  9
$CAMERADISPLAY
290
     0
  9
$LENSLENGTH
 40
50.0
  9
$CAMERAHEIGHT
 40
0.0
  9
$STEPSPERSEC
 40
2.0
  9
$STEPSIZE
 40
6.0
  9
$3DDWFPREC
 40
2.0
  9
$PSOLWIDTH
 40
0.25
  9
$PSOLHEIGHT
 40
4.0
  9
$LOFTANG1
 40
1.570796326794896
  9
$LOFTANG2
 40
1.570796326794896
  9
$LOFTMAG1
 40
0.0
  9
$LOFTMAG2
 40
0.0
  9
$LOFTPARAM
 70
     7
  9
$LOFTNORMALS
280
     1
  9
$LATITUDE
 40
37.795
  9
$LONGITUDE
 40
-122.394
  9
$NORTHDIRECTION
 40
0.0
  9
$TIMEZONE
 70
 -8000
  9
$LIGHTGLYPHDISPLAY
280
     1
  9
$TILEMODELIGHTSYNCH
280
     1
  9
$CMATERIAL
347
11
  9
$SOLIDHIST
280
     0
  9
$SHOWHIST
280
     1
  9
$DWFFRAME
280
     2
  9
$DGNFRAME
280
     0
  9
$REALWORLDSCALE
290
     1
  9
$INTERFERECOLOR
 62
     1
  9
$INTERFEREOBJVS
345
33
  9
$INTERFEREVPVS
346
30
  9
$CSHADOW
280
     0
  9
$SHADOWPLANELOCATION
 40
0.0
  0
ENDSEC
  0
SECTION
  2
CLASSES
  0
CLASS
  1
ACDBDICTIONARYWDFLT
  2
AcDbDictionaryWithDefault
  3
ObjectDBX Classes
 90
        0
 91
        1
280
     0
281
     0
  0
CLASS
  1
MATERIAL
  2
AcDbMaterial
  3
ObjectDBX Classes
 90
     1153
 91
        3
280
     0
281
     0
  0
CLASS
  1
VISUALSTYLE
  2
AcDbVisualStyle
  3
ObjectDBX Classes
 90
     4095
 91
       24
280
     0
281
     0
  0
CLASS
  1
SCALE
  2
AcDbScale
  3
ObjectDBX Classes
 90
     1153
 91
       17
280
     0
281
     0
  0
CLASS
  1
TABLESTYLE
  2
AcDbTableStyle
  3
ObjectDBX Classes
 90
     4095
 91
        1
280
     0
281
     0
  0
CLASS
  1
MLEADERSTYLE
  2
AcDbMLeaderStyle
  3
ACDB_MLEADERSTYLE_CLASS
 90
     4095
 91
        1
280
     0
281
     0
  0
CLASS
  1
ACDBSECTIONVIEWSTYLE
  2
AcDbSectionViewStyle
  3
ObjectDBX Classes
 90
     1025
 91
        1
280
     0
281
     0
  0
CLASS
  1
ACDBDETAILVIEWSTYLE
  2
AcDbDetailViewStyle
  3
ObjectDBX Classes
 90
     1025
 91
        1
280
     0
281
     0
  0
CLASS
  1
DICTIONARYVAR
  2
AcDbDictionaryVar
  3
ObjectDBX Classes
 90
        0
 91
       36
280
     0
281
     0
  0
CLASS
  1
SORTENTSTABLE
  2
AcDbSortentsTable
  3
ObjectDBX Classes
 90
        0
 91
        6
280
     0
281
     0
  0
CLASS
  1
CELLSTYLEMAP
  2
AcDbCellStyleMap
  3
ObjectDBX Classes
 90
     1152
 91
        3
280
     0
281
     0
  0
ENDSEC
  0
SECTION
  2
TABLES
  0
TABLE
  2
VPORT
  5
8
330
0
100
AcDbSymbolTable
 70
     1
  0
VPORT
  5
74
330
8
100
AcDbSymbolTableRecord
100
AcDbViewportTableRecord
  2
*Active
 70
     0
 10
0.0
 20
0.0
 11
1.0
 21
1.0
 12
201.0034486886032
 22
120.3149793393119
 13
0.0
 23
0.0
 14
1.0
 24
1.0
 15
0.0
 25
0.0
 16
0.0
 26
0.0
 36
1.0
 17
0.0
 27
0.0
 37
0.0
 40
464.7778584293816
 41
1.51624548736462
 42
50.0
 43
0.0
 44
0.0
 50
0.0
 51
0.0
 71
     0
 72
   100
 73
     1
 74
     1
 75
     0
 76
     0
 77
     0
 78
     0
281
     0
 65
     1
110
0.0
120
0.0
130
0.0
111
1.0
121
0.0
131
0.0
112
0.0
122
1.0
132
0.0
 79
     0
146
0.0
348
2F
 60
     3
 61
     5
292
     1
282
     1
141
0.0
142
0.0
 63
   250
421
  3355443
1001
ACAD_NAV_VCDISPLAY
1070
     3
  0
ENDTAB
  0
TABLE
  2
LTYPE
  5
5
330
0
100
AcDbSymbolTable
 70
     2
  0
LTYPE
  5
5A
330
5
100
AcDbSymbolTableRecord
100
AcDbLinetypeTableRecord
  2
ByBlock
 70
     0
  3

 72
    65
 73
     0
 40
0.0
  0
LTYPE
  5
5B
330
5
100
AcDbSymbolTableRecord
100
AcDbLinetypeTableRecord
  2
ByLayer
 70
     0
  3

 72
    65
 73
     0
 40
0.0
  0
LTYPE
  5
5C
330
5
100
AcDbSymbolTableRecord
100
AcDbLinetypeTableRecord
  2
Continuous
 70
     0
  3
Solid line
 72
    65
 73
     0
 40
0.0
  0
ENDTAB
  0
TABLE
  2
LAYER
  5
2
102
{ACAD_XDICTIONARY
360
298
102
}
330
0
100
AcDbSymbolTable
 70
     4
  0
LAYER
  5
54
102
{ACAD_XDICTIONARY
360
3E0
102
}
330
2
100
AcDbSymbolTableRecord
100
AcDbLayerTableRecord
  2
0
 70
     0
 62
     7
  6
Continuous
370
    -3
390
F
347
21
348
0
  0
LAYER
  5
300
102
{ACAD_XDICTIONARY
360
3E2
102
}
330
2
100
AcDbSymbolTableRecord
100
AcDbLayerTableRecord
  2
BottomSilkLayer
 70
     0
 62
    72
420
  6736947
  6
Continuous
370
    -3
390
F
347
21
348
0
  0
LAYER
  5
301
102
{ACAD_XDICTIONARY
360
3E4
102
}
330
2
100
AcDbSymbolTableRecord
100
AcDbLayerTableRecord
  2
BoardOutLine
 70
     0
 62
     6
420
 16711935
  6
Continuous
370
    -3
390
F
347
21
348
0
  0
LAYER
  5
324
102
{ACAD_XDICTIONARY
360
3E6
102
}
330
2
100
AcDbSymbolTableRecord
100
AcDbLayerTableRecord
  2
图层 1
 70
     0
 62
     7
  6
Continuous
370
     0
390
F
347
21
348
0
  0
ENDTAB
  0
TABLE
  2
STYLE
  5
3
330
0
100
AcDbSymbolTable
 70
     2
  0
STYLE
  5
55
330
3
100
AcDbSymbolTableRecord
100
AcDbTextStyleTableRecord
  2
Standard
 70
     0
 40
0.0
 41
1.0
 50
0.0
 71
     0
 42
0.2
  3
txt
  4

  0
STYLE
  5
59
330
3
100
AcDbSymbolTableRecord
100
AcDbTextStyleTableRecord
  2
Annotative
 70
     0
 40
0.0
 41
1.0
 50
0.0
 71
     0
 42
0.2
  3
txt
  4

1001
AcadAnnotative
1000
AnnotativeData
1002
{
1070
     1
1070
     1
1002
}
  0
ENDTAB
  0
TABLE
  2
VIEW
  5
6
330
0
100
AcDbSymbolTable
 70
     5
  0
ENDTAB
  0
TABLE
  2
UCS
  5
7
330
0
100
AcDbSymbolTable
 70
     0
  0
ENDTAB
  0
TABLE
  2
APPID
  5
9
330
0
100
AcDbSymbolTable
 70
     5
  0
APPID
  5
56
330
9
100
AcDbSymbolTableRecord
100
AcDbRegAppTableRecord
  2
ACAD
 70
     0
  0
APPID
  5
5D
330
9
100
AcDbSymbolTableRecord
100
AcDbRegAppTableRecord
  2
AcadAnnotative
 70
     0
  0
APPID
  5
27B
330
9
100
AcDbSymbolTableRecord
100
AcDbRegAppTableRecord
  2
ACAD_NAV_VCDISPLAY
 70
     0
  0
APPID
  5
286
330
9
100
AcDbSymbolTableRecord
100
AcDbRegAppTableRecord
  2
ACAD_EXEMPT_FROM_CAD_STANDARDS
 70
     0
  0
APPID
  5
28D
330
9
100
AcDbSymbolTableRecord
100
AcDbRegAppTableRecord
  2
Acad_TC
 70
     0
  0
ENDTAB
  0
TABLE
  2
DIMSTYLE
  5
A
330
0
100
AcDbSymbolTable
 70
     3
100
AcDbDimStyleTable
 71
     1
340
57
  0
DIMSTYLE
105
57
330
A
100
AcDbSymbolTableRecord
100
AcDbDimStyleTableRecord
  2
Standard
 70
     0
340
55
  0
DIMSTYLE
105
58
330
A
100
AcDbSymbolTableRecord
100
AcDbDimStyleTableRecord
  2
Annotative
 70
     0
340
55
1001
AcadAnnotative
1000
AnnotativeData
1002
{
1070
     1
1070
     1
1002
}
  0
ENDTAB
  0
TABLE
  2
BLOCK_RECORD
  5
1
330
0
100
AcDbSymbolTable
 70
     6
  0
BLOCK_RECORD
  5
6F
102
{ACAD_XDICTIONARY
360
3DC
102
}
330
1
100
AcDbSymbolTableRecord
100
AcDbBlockTableRecord
  2
*Model_Space
340
72
 70
     0
280
     1
281
     0
  0
BLOCK_RECORD
  5
6B
330
1
100
AcDbSymbolTableRecord
100
AcDbBlockTableRecord
  2
*Paper_Space
340
6E
 70
     0
280
     1
281
     0
  0
ENDTAB
  0
ENDSEC
  0
SECTION
  2
BLOCKS
  0
BLOCK
  5
70
330
6F
100
AcDbEntity
  8
0
100
AcDbBlockBegin
  2
*Model_Space
 70
     0
 10
0.0
 20
0.0
 30
0.0
  3
*Model_Space
  1

  0
ENDBLK
  5
71
330
6F
100
AcDbEntity
  8
0
100
AcDbBlockEnd
  0
BLOCK
  5
6C
330
6B
100
AcDbEntity
 67
     1
  8
0
100
AcDbBlockBegin
  2
*Paper_Space
 70
     0
 10
0.0
 20
0.0
 30
0.0
  3
*Paper_Space
  1

  0
ENDBLK
  5
6D
330
6B
100
AcDbEntity
 67
     1
  8
0
100
AcDbBlockEnd
  0
ENDSEC
  0
SECTION
  2
ENTITIES
  0
LINE
  5
1086
330
6F
100
AcDbEntity
  8
0
 62
     0
100
AcDbLine
 10
116.6176472002644
 20
27.80503262550019
 30
0.0
 11
116.6176472002644
 21
23.1059326255002
 31
0.0
  0
LINE
  5
1087
330
6F
100
AcDbEntity
  8
0
 62
     0
100
AcDbLine
 10
116.6176472002644
 20
23.1059326255002
 30
0.0
 11
76.9937472002644
 21
23.1059326255002
 31
0.0
  0
LINE
  5
1088
330
6F
100
AcDbEntity
  8
0
 62
     0
100
AcDbLine
 10
76.9937472002644
 20
23.1059326255002
 30
0.0
 11
76.9937472002644
 21
26.33613262550023
 31
0.0
  0
LINE
  5
1089
330
6F
100
AcDbEntity
  8
0
 62
     0
100
AcDbLine
 10
76.9937472002644
 20
26.33613262550023
 30
0.0
 11
70.24404720026439
 21
26.33613262550023
 31
0.0
  0
LINE
  5
108A
330
6F
100
AcDbEntity
  8
0
 62
     0
100
AcDbLine
 10
70.24404720026439
 20
26.33613262550023
 30
0.0
 11
70.24404720026439
 21
23.1059326255002
 31
0.0
  0
LINE
  5
108B
330
6F
100
AcDbEntity
  8
0
 62
     0
100
AcDbLine
 10
70.24404720026439
 20
23.1059326255002
 30
0.0
 11
69.41854720026441
 21
23.1059326255002
 31
0.0
  0
LINE
  5
108C
330
6F
100
AcDbEntity
  8
0
 62
     0
100
AcDbLine
 10
69.41854720026441
 20
23.1059326255002
 30
0.0
 11
69.41854720026441
 21
20.30580262550018
 31
0.0
  0
LINE
  5
108D
330
6F
100
AcDbEntity
  8
0
 62
     0
100
AcDbLine
 10
69.41854720026441
 20
20.30580262550018
 30
0.0
 11
70.24404720026439
 21
20.30580262550018
 31
0.0
  0
LINE
  5
108E
330
6F
100
AcDbEntity
  8
0
 62
     0
100
AcDbLine
 10
70.24404720026439
 20
20.30580262550018
 30
0.0
 11
70.24404720026439
 21
14.03710262550021
 31
0.0
  0
LINE
  5
108F
330
6F
100
AcDbEntity
  8
0
 62
     0
100
AcDbLine
 10
70.24404720026439
 20
14.03710262550021
 30
0.0
 11
71.96914720026438
 21
14.03710262550021
 31
0.0
  0
LINE
  5
1090
330
6F
100
AcDbEntity
  8
0
 62
     0
100
AcDbLine
 10
71.96914720026438
 20
14.03710262550021
 30
0.0
 11
71.96914720026438
 21
12.83545262550024
 31
0.0
  0
LINE
  5
1091
330
6F
100
AcDbEntity
  8
0
 62
     0
100
AcDbLine
 10
71.96914720026438
 20
12.83545262550024
 30
0.0
 11
75.26964720026438
 21
12.83545262550024
 31
0.0
  0
LINE
  5
1092
330
6F
100
AcDbEntity
  8
0
 62
     0
100
AcDbLine
 10
75.26964720026438
 20
12.83545262550024
 30
0.0
 11
75.26964720026438
 21
14.03710262550021
 31
0.0
  0
LINE
  5
1093
330
6F
100
AcDbEntity
  8
0
 62
     0
100
AcDbLine
 10
75.26964720026438
 20
14.03710262550021
 30
0.0
 11
76.9937472002644
 21
14.03710262550021
 31
0.0
  0
LINE
  5
1094
330
6F
100
AcDbEntity
  8
0
 62
     0
100
AcDbLine
 10
76.9937472002644
 20
14.03710262550021
 30
0.0
 11
76.9937472002644
 21
18.50606262550019
 31
0.0
  0
LINE
  5
1095
330
6F
100
AcDbEntity
  8
0
 62
     0
100
AcDbLine
 10
76.9937472002644
 20
18.50606262550019
 30
0.0
 11
116.6176472002644
 21
18.50606262550019
 31
0.0
  0
LINE
  5
1096
330
6F
100
AcDbEntity
  8
0
 62
     0
100
AcDbLine
 10
116.6176472002644
 20
18.50606262550019
 30
0.0
 11
116.6176472002644
 21
13.8055926255002
 31
0.0
  0
LINE
  5
1097
330
6F
100
AcDbEntity
  8
0
 62
     0
100
AcDbLine
 10
116.6176472002644
 20
13.8055926255002
 30
0.0
 11
130.6186472002643
 21
13.8055926255002
 31
0.0
  0
LINE
  5
1098
330
6F
100
AcDbEntity
  8
0
 62
     0
100
AcDbLine
 10
130.6186472002643
 20
13.8055926255002
 30
0.0
 11
130.6186472002643
 21
18.50606262550019
 31
0.0
  0
LINE
  5
1099
330
6F
100
AcDbEntity
  8
0
 62
     0
100
AcDbLine
 10
130.6186472002643
 20
18.50606262550019
 30
0.0
 11
170.2446472002644
 21
18.50606262550019
 31
0.0
  0
LINE
  5
109A
330
6F
100
AcDbEntity
  8
0
 62
     0
100
AcDbLine
 10
170.2446472002644
 20
18.50606262550019
 30
0.0
 11
170.2446472002644
 21
14.03710262550021
 31
0.0
  0
LINE
  5
109B
330
6F
100
AcDbEntity
  8
0
 62
     0
100
AcDbLine
 10
170.2446472002644
 20
14.03710262550021
 30
0.0
 11
171.9696472002644
 21
14.03710262550021
 31
0.0
  0
LINE
  5
109C
330
6F
100
AcDbEntity
  8
0
 62
     0
100
AcDbLine
 10
171.9696472002644
 20
14.03710262550021
 30
0.0
 11
171.9696472002644
 21
12.83545262550024
 31
0.0
  0
LINE
  5
109D
330
6F
100
AcDbEntity
  8
0
 62
     0
100
AcDbLine
 10
171.9696472002644
 20
12.83545262550024
 30
0.0
 11
175.2696472002644
 21
12.83545262550024
 31
0.0
  0
LINE
  5
109E
330
6F
100
AcDbEntity
  8
0
 62
     0
100
AcDbLine
 10
175.2696472002644
 20
12.83545262550024
 30
0.0
 11
175.2696472002644
 21
14.03710262550021
 31
0.0
  0
LINE
  5
109F
330
6F
100
AcDbEntity
  8
0
 62
     0
100
AcDbLine
 10
175.2696472002644
 20
14.03710262550021
 30
0.0
 11
176.9936472002644
 21
14.03710262550021
 31
0.0
  0
LINE
  5
10A0
330
6F
100
AcDbEntity
  8
0
 62
     0
100
AcDbLine
 10
176.9936472002644
 20
14.03710262550021
 30
0.0
 11
176.9936472002644
 21
20.30580262550018
 31
0.0
  0
LINE
  5
10A1
330
6F
100
AcDbEntity
  8
0
 62
     0
100
AcDbLine
 10
176.9936472002644
 20
20.30580262550018
 30
0.0
 11
177.8186472002643
 21
20.30580262550018
 31
0.0
  0
LINE
  5
10A2
330
6F
100
AcDbEntity
  8
0
 62
     0
100
AcDbLine
 10
177.8186472002643
 20
20.30580262550018
 30
0.0
 11
177.8186472002643
 21
23.1059326255002
 31
0.0
  0
LINE
  5
10A3
330
6F
100
AcDbEntity
  8
0
 62
     0
100
AcDbLine
 10
177.8186472002643
 20
23.1059326255002
 30
0.0
 11
176.9936472002644
 21
23.1059326255002
 31
0.0
  0
LINE
  5
10A4
330
6F
100
AcDbEntity
  8
0
 62
     0
100
AcDbLine
 10
176.9936472002644
 20
23.1059326255002
 30
0.0
 11
176.9936472002644
 21
26.33613262550023
 31
0.0
  0
LINE
  5
10A5
330
6F
100
AcDbEntity
  8
0
 62
     0
100
AcDbLine
 10
176.9936472002644
 20
26.33613262550023
 30
0.0
 11
170.2446472002644
 21
26.33613262550023
 31
0.0
  0
LINE
  5
10A6
330
6F
100
AcDbEntity
  8
0
 62
     0
100
AcDbLine
 10
170.2446472002644
 20
26.33613262550023
 30
0.0
 11
170.2446472002644
 21
23.1059326255002
 31
0.0
  0
LINE
  5
10A7
330
6F
100
AcDbEntity
  8
0
 62
     0
100
AcDbLine
 10
170.2446472002644
 20
23.1059326255002
 30
0.0
 11
130.6186472002643
 21
23.1059326255002
 31
0.0
  0
LINE
  5
10A8
330
6F
100
AcDbEntity
  8
0
 62
     0
100
AcDbLine
 10
130.6186472002643
 20
23.1059326255002
 30
0.0
 11
130.6186472002643
 21
27.80503262550019
 31
0.0
  0
LINE
  5
10A9
330
6F
100
AcDbEntity
  8
0
 62
     0
100
AcDbLine
 10
130.6186472002643
 20
27.80503262550019
 30
0.0
 11
116.6176472002644
 21
27.80503262550019
 31
0.0
  0
LINE
  5
10AA
330
6F
100
AcDbEntity
  8
0
 62
     0
100
AcDbLine
 10
304.7376472002645
 20
27.80503262550019
 30
0.0
 11
318.7386472002645
 21
27.80503262550019
 31
0.0
  0
LINE
  5
10AB
330
6F
100
AcDbEntity
  8
0
 62
     0
100
AcDbLine
 10
318.7386472002645
 20
27.80503262550019
 30
0.0
 11
318.7386472002645
 21
13.8055926255002
 31
0.0
  0
LINE
  5
10AC
330
6F
100
AcDbEntity
  8
0
 62
     0
100
AcDbLine
 10
318.7386472002645
 20
13.8055926255002
 30
0.0
 11
304.7376472002645
 21
13.8055926255002
 31
0.0
  0
LINE
  5
10AD
330
6F
100
AcDbEntity
  8
0
 62
     0
100
AcDbLine
 10
304.7376472002645
 20
13.8055926255002
 30
0.0
 11
304.7376472002645
 21
27.80503262550019
 31
0.0
  0
LINE
  5
10AE
330
6F
100
AcDbEntity
  8
0
 62
     0
100
AcDbLine
 10
285.6876472002644
 20
27.80503262550019
 30
0.0
 11
299.6886472002644
 21
27.80503262550019
 31
0.0
  0
LINE
  5
10AF
330
6F
100
AcDbEntity
  8
0
 62
     0
100
AcDbLine
 10
299.6886472002644
 20
27.80503262550019
 30
0.0
 11
299.6886472002644
 21
13.8055926255002
 31
0.0
  0
LINE
  5
10B0
330
6F
100
AcDbEntity
  8
0
 62
     0
100
AcDbLine
 10
299.6886472002644
 20
13.8055926255002
 30
0.0
 11
285.6876472002644
 21
13.8055926255002
 31
0.0
  0
LINE
  5
10B1
330
6F
100
AcDbEntity
  8
0
 62
     0
100
AcDbLine
 10
285.6876472002644
 20
13.8055926255002
 30
0.0
 11
285.6876472002644
 21
27.80503262550019
 31
0.0
  0
LINE
  5
10B2
330
6F
100
AcDbEntity
  8
0
 62
     0
100
AcDbLine
 10
266.6376472002643
 20
27.80503262550019
 30
0.0
 11
280.6386472002643
 21
27.80503262550019
 31
0.0
  0
LINE
  5
10B3
330
6F
100
AcDbEntity
  8
0
 62
     0
100
AcDbLine
 10
280.6386472002643
 20
27.80503262550019
 30
0.0
 11
280.6386472002643
 21
13.8055926255002
 31
0.0
  0
LINE
  5
10B4
330
6F
100
AcDbEntity
  8
0
 62
     0
100
AcDbLine
 10
280.6386472002643
 20
13.8055926255002
 30
0.0
 11
266.6376472002643
 21
13.8055926255002
 31
0.0
  0
LINE
  5
10B5
330
6F
100
AcDbEntity
  8
0
 62
     0
100
AcDbLine
 10
266.6376472002643
 20
13.8055926255002
 30
0.0
 11
266.6376472002643
 21
27.80503262550019
 31
0.0
  0
LINE
  5
10B6
330
6F
100
AcDbEntity
  8
0
 62
     0
100
AcDbLine
 10
235.6816472002644
 20
27.80503262550019
 30
0.0
 11
249.6826472002644
 21
27.80503262550019
 31
0.0
  0
LINE
  5
10B7
330
6F
100
AcDbEntity
  8
0
 62
     0
100
AcDbLine
 10
249.6826472002644
 20
27.80503262550019
 30
0.0
 11
249.6826472002644
 21
13.8055926255002
 31
0.0
  0
LINE
  5
10B8
330
6F
100
AcDbEntity
  8
0
 62
     0
100
AcDbLine
 10
249.6826472002644
 20
13.8055926255002
 30
0.0
 11
235.6816472002644
 21
13.8055926255002
 31
0.0
  0
LINE
  5
10B9
330
6F
100
AcDbEntity
  8
0
 62
     0
100
AcDbLine
 10
235.6816472002644
 20
13.8055926255002
 30
0.0
 11
235.6816472002644
 21
27.80503262550019
 31
0.0
  0
LINE
  5
10BA
330
6F
100
AcDbEntity
  8
0
 62
     0
100
AcDbLine
 10
211.8686472002643
 20
27.80503262550019
 30
0.0
 11
225.8686472002643
 21
27.80503262550019
 31
0.0
  0
LINE
  5
10BB
330
6F
100
AcDbEntity
  8
0
 62
     0
100
AcDbLine
 10
225.8686472002643
 20
27.80503262550019
 30
0.0
 11
225.8686472002643
 21
13.8055926255002
 31
0.0
  0
LINE
  5
10BC
330
6F
100
AcDbEntity
  8
0
 62
     0
100
AcDbLine
 10
225.8686472002643
 20
13.8055926255002
 30
0.0
 11
211.8686472002643
 21
13.8055926255002
 31
0.0
  0
LINE
  5
10BD
330
6F
100
AcDbEntity
  8
0
 62
     0
100
AcDbLine
 10
211.8686472002643
 20
13.8055926255002
 30
0.0
 11
211.8686472002643
 21
27.80503262550019
 31
0.0
  0
LINE
  5
10BE
330
6F
100
AcDbEntity
  8
0
 62
     0
100
AcDbLine
 10
188.0566472002644
 20
27.80503262550019
 30
0.0
 11
202.0576472002644
 21
27.80503262550019
 31
0.0
  0
LINE
  5
10BF
330
6F
100
AcDbEntity
  8
0
 62
     0
100
AcDbLine
 10
202.0576472002644
 20
27.80503262550019
 30
0.0
 11
202.0576472002644
 21
13.8055926255002
 31
0.0
  0
LINE
  5
10C0
330
6F
100
AcDbEntity
  8
0
 62
     0
100
AcDbLine
 10
202.0576472002644
 20
13.8055926255002
 30
0.0
 11
188.0566472002644
 21
13.8055926255002
 31
0.0
  0
LINE
  5
10C1
330
6F
100
AcDbEntity
  8
0
 62
     0
100
AcDbLine
 10
188.0566472002644
 20
13.8055926255002
 30
0.0
 11
188.0566472002644
 21
27.80503262550019
 31
0.0
  0
LINE
  5
10C2
330
6F
100
AcDbEntity
  8
0
 62
     0
100
AcDbLine
 10
45.18164720026442
 20
27.80503262550019
 30
0.0
 11
59.18234720026436
 21
27.80503262550019
 31
0.0
  0
LINE
  5
10C3
330
6F
100
AcDbEntity
  8
0
 62
     0
100
AcDbLine
 10
59.18234720026436
 20
27.80503262550019
 30
0.0
 11
59.18234720026436
 21
13.8055926255002
 31
0.0
  0
LINE
  5
10C4
330
6F
100
AcDbEntity
  8
0
 62
     0
100
AcDbLine
 10
59.18234720026436
 20
13.8055926255002
 30
0.0
 11
45.18164720026442
 21
13.8055926255002
 31
0.0
  0
LINE
  5
10C5
330
6F
100
AcDbEntity
  8
0
 62
     0
100
AcDbLine
 10
45.18164720026442
 20
13.8055926255002
 30
0.0
 11
45.18164720026442
 21
27.80503262550019
 31
0.0
  0
LINE
  5
10C6
330
6F
100
AcDbEntity
  8
0
 62
     0
100
AcDbLine
 10
21.36904720026439
 20
27.80503262550019
 30
0.0
 11
35.36844720026437
 21
27.80503262550019
 31
0.0
  0
LINE
  5
10C7
330
6F
100
AcDbEntity
  8
0
 62
     0
100
AcDbLine
 10
35.36844720026437
 20
27.80503262550019
 30
0.0
 11
35.36844720026437
 21
13.8055926255002
 31
0.0
  0
LINE
  5
10C8
330
6F
100
AcDbEntity
  8
0
 62
     0
100
AcDbLine
 10
35.36844720026437
 20
13.8055926255002
 30
0.0
 11
21.36904720026439
 21
13.8055926255002
 31
0.0
  0
LINE
  5
10C9
330
6F
100
AcDbEntity
  8
0
 62
     0
100
AcDbLine
 10
21.36904720026439
 20
13.8055926255002
 30
0.0
 11
21.36904720026439
 21
27.80503262550019
 31
0.0
  0
LINE
  5
10CA
330
6F
100
AcDbEntity
  8
0
 62
     0
100
AcDbLine
 10
-2.443442799735635
 20
27.80503262550019
 30
0.0
 11
11.55744720026439
 21
27.80503262550019
 31
0.0
  0
LINE
  5
10CB
330
6F
100
AcDbEntity
  8
0
 62
     0
100
AcDbLine
 10
11.55744720026439
 20
27.80503262550019
 30
0.0
 11
11.55744720026439
 21
13.8055926255002
 31
0.0
  0
LINE
  5
10CC
330
6F
100
AcDbEntity
  8
0
 62
     0
100
AcDbLine
 10
11.55744720026439
 20
13.8055926255002
 30
0.0
 11
-2.443442799735635
 21
13.8055926255002
 31
0.0
  0
LINE
  5
10CD
330
6F
100
AcDbEntity
  8
0
 62
     0
100
AcDbLine
 10
321.8386472002643
 20
10.70559262550023
 30
0.0
 11
286.8386472002645
 21
10.70559262550023
 31
0.0
  0
LINE
  5
10CE
330
6F
100
AcDbEntity
  8
0
 62
     0
100
AcDbLine
 10
323.8386472002643
 20
43.70559262550023
 30
0.0
 11
321.8386472002643
 21
43.70559262550023
 31
0.0
  0
LINE
  5
10CF
330
6F
100
AcDbEntity
  8
0
 62
     0
100
AcDbLine
 10
323.8386472002643
 20
73.70559262550023
 30
0.0
 11
321.8386472002643
 21
73.70559262550023
 31
0.0
  0
LINE
  5
10D0
330
6F
100
AcDbEntity
  8
0
 62
     0
100
AcDbLine
 10
256.8386472002643
 20
10.70559262550023
 30
0.0
 11
225.8386472002644
 21
10.70559262550021
 31
0.0
  0
LINE
  5
10D1
330
6F
100
AcDbEntity
  8
0
 62
     0
100
AcDbLine
 10
195.8386472002643
 20
10.70559262550024
 30
0.0
 11
177.0766772002644
 21
10.70559262550023
 31
0.0
  0
LINE
  5
10D2
330
6F
100
AcDbEntity
  8
0
 62
     0
100
AcDbLine
 10
223.8386472002644
 20
6.70559262550023
 30
0.0
 11
197.8386472002643
 21
6.70559262550023
 31
0.0
  0
LINE
  5
10D3
330
6F
100
AcDbEntity
  8
0
 62
     0
100
AcDbLine
 10
177.2390583784663
 20
10.70559262550023
 30
0.0
 11
118.0766772002644
 21
10.70559262550023
 31
0.0
  0
LINE
  5
10D4
330
6F
100
AcDbEntity
  8
0
 62
     0
100
AcDbLine
 10
88.07667720026438
 20
10.70559262550023
 30
0.0
 11
57.07667720026439
 21
10.70559262550023
 31
0.0
  0
LINE
  5
10D5
330
6F
100
AcDbEntity
  8
0
 62
     0
100
AcDbLine
 10
116.0766772002643
 20
6.70559262550023
 30
0.0
 11
90.07667720026438
 21
6.70559262550023
 31
0.0
  0
LINE
  5
10D6
330
6F
100
AcDbEntity
  8
0
 62
     0
100
AcDbLine
 10
27.07667720026439
 20
10.70559262550023
 30
0.0
 11
-7.923322799735615
 21
10.70559262550023
 31
0.0
  0
LINE
  5
10D7
330
6F
100
AcDbEntity
  8
0
 62
     0
100
AcDbLine
 10
284.8386472002643
 20
6.705592625500244
 30
0.0
 11
258.8386472002643
 21
6.705592625500244
 31
0.0
  0
LINE
  5
10D8
330
6F
100
AcDbEntity
  8
0
 62
     0
100
AcDbLine
 10
55.07667720026439
 20
6.70559262550023
 30
0.0
 11
29.07667720026438
 21
6.70559262550023
 31
0.0
  0
LINE
  5
10D9
330
6F
100
AcDbEntity
  8
0
 62
     0
100
AcDbLine
 10
-2.443442799735635
 20
13.8055926255002
 30
0.0
 11
-2.443442799735635
 21
27.80503262550019
 31
0.0
  0
LINE
  5
10DA
330
6F
100
AcDbEntity
  8
0
 62
     0
100
AcDbLine
 10
245.2066472002644
 20
46.85493262550017
 30
0.0
 11
245.2066472002644
 21
42.15593262550021
 31
0.0
  0
LINE
  5
10DB
330
6F
100
AcDbEntity
  8
0
 62
     0
100
AcDbLine
 10
245.2066472002644
 20
42.15593262550021
 30
0.0
 11
243.6826472002644
 21
42.15593262550021
 31
0.0
  0
LINE
  5
10DC
330
6F
100
AcDbEntity
  8
0
 62
     0
100
AcDbLine
 10
243.6826472002644
 20
42.15593262550021
 30
0.0
 11
243.6826472002644
 21
45.38613262550017
 31
0.0
  0
LINE
  5
10DD
330
6F
100
AcDbEntity
  8
0
 62
     0
100
AcDbLine
 10
243.6826472002644
 20
45.38613262550017
 30
0.0
 11
236.9326472002644
 21
45.38613262550017
 31
0.0
  0
LINE
  5
10DE
330
6F
100
AcDbEntity
  8
0
 62
     0
100
AcDbLine
 10
236.9326472002644
 20
45.38613262550017
 30
0.0
 11
236.9326472002644
 21
42.15593262550021
 31
0.0
  0
LINE
  5
10DF
330
6F
100
AcDbEntity
  8
0
 62
     0
100
AcDbLine
 10
236.9326472002644
 20
42.15593262550021
 30
0.0
 11
236.1076472002643
 21
42.15593262550021
 31
0.0
  0
LINE
  5
10E0
330
6F
100
AcDbEntity
  8
0
 62
     0
100
AcDbLine
 10
236.1076472002643
 20
42.15593262550021
 30
0.0
 11
236.1076472002643
 21
39.35583262550017
 31
0.0
  0
LINE
  5
10E1
330
6F
100
AcDbEntity
  8
0
 62
     0
100
AcDbLine
 10
236.1076472002643
 20
39.35583262550017
 30
0.0
 11
236.9326472002644
 21
39.35583262550017
 31
0.0
  0
LINE
  5
10E2
330
6F
100
AcDbEntity
  8
0
 62
     0
100
AcDbLine
 10
236.9326472002644
 20
39.35583262550017
 30
0.0
 11
236.9326472002644
 21
33.08573262550022
 31
0.0
  0
LINE
  5
10E3
330
6F
100
AcDbEntity
  8
0
 62
     0
100
AcDbLine
 10
236.9326472002644
 20
33.08573262550022
 30
0.0
 11
238.6566472002643
 21
33.08573262550022
 31
0.0
  0
LINE
  5
10E4
330
6F
100
AcDbEntity
  8
0
 62
     0
100
AcDbLine
 10
238.6566472002643
 20
33.08573262550022
 30
0.0
 11
238.6566472002643
 21
31.88543262550024
 31
0.0
  0
LINE
  5
10E5
330
6F
100
AcDbEntity
  8
0
 62
     0
100
AcDbLine
 10
238.6566472002643
 20
31.88543262550024
 30
0.0
 11
241.9576472002644
 21
31.88543262550024
 31
0.0
  0
LINE
  5
10E6
330
6F
100
AcDbEntity
  8
0
 62
     0
100
AcDbLine
 10
241.9576472002644
 20
31.88543262550024
 30
0.0
 11
241.9576472002644
 21
33.08573262550022
 31
0.0
  0
LINE
  5
10E7
330
6F
100
AcDbEntity
  8
0
 62
     0
100
AcDbLine
 10
241.9576472002644
 20
33.08573262550022
 30
0.0
 11
243.6826472002644
 21
33.08573262550022
 31
0.0
  0
LINE
  5
10E8
330
6F
100
AcDbEntity
  8
0
 62
     0
100
AcDbLine
 10
243.6826472002644
 20
33.08573262550022
 30
0.0
 11
243.6826472002644
 21
37.55603262550017
 31
0.0
  0
LINE
  5
10E9
330
6F
100
AcDbEntity
  8
0
 62
     0
100
AcDbLine
 10
243.6826472002644
 20
37.55603262550017
 30
0.0
 11
245.2066472002644
 21
37.55603262550017
 31
0.0
  0
LINE
  5
10EA
330
6F
100
AcDbEntity
  8
0
 62
     0
100
AcDbLine
 10
245.2066472002644
 20
37.55603262550017
 30
0.0
 11
245.2066472002644
 21
32.85563262550022
 31
0.0
  0
LINE
  5
10EB
330
6F
100
AcDbEntity
  8
0
 62
     0
100
AcDbLine
 10
245.2066472002644
 20
32.85563262550022
 30
0.0
 11
259.2076472002644
 21
32.85563262550022
 31
0.0
  0
LINE
  5
10EC
330
6F
100
AcDbEntity
  8
0
 62
     0
100
AcDbLine
 10
259.2076472002644
 20
32.85563262550022
 30
0.0
 11
259.2076472002644
 21
37.55603262550017
 31
0.0
  0
LINE
  5
10ED
330
6F
100
AcDbEntity
  8
0
 62
     0
100
AcDbLine
 10
259.2076472002644
 20
37.55603262550017
 30
0.0
 11
260.7316472002644
 21
37.55603262550017
 31
0.0
  0
LINE
  5
10EE
330
6F
100
AcDbEntity
  8
0
 62
     0
100
AcDbLine
 10
260.7316472002644
 20
37.55603262550017
 30
0.0
 11
260.7316472002644
 21
33.08573262550022
 31
0.0
  0
LINE
  5
10EF
330
6F
100
AcDbEntity
  8
0
 62
     0
100
AcDbLine
 10
260.7316472002644
 20
33.08573262550022
 30
0.0
 11
262.4566472002644
 21
33.08573262550022
 31
0.0
  0
LINE
  5
10F0
330
6F
100
AcDbEntity
  8
0
 62
     0
100
AcDbLine
 10
262.4566472002644
 20
33.08573262550022
 30
0.0
 11
262.4566472002644
 21
31.88543262550024
 31
0.0
  0
LINE
  5
10F1
330
6F
100
AcDbEntity
  8
0
 62
     0
100
AcDbLine
 10
262.4566472002644
 20
31.88543262550024
 30
0.0
 11
265.7576472002645
 21
31.88543262550024
 31
0.0
  0
LINE
  5
10F2
330
6F
100
AcDbEntity
  8
0
 62
     0
100
AcDbLine
 10
265.7576472002645
 20
31.88543262550024
 30
0.0
 11
265.7576472002645
 21
33.08573262550022
 31
0.0
  0
LINE
  5
10F3
330
6F
100
AcDbEntity
  8
0
 62
     0
100
AcDbLine
 10
265.7576472002645
 20
33.08573262550022
 30
0.0
 11
267.4826472002644
 21
33.08573262550022
 31
0.0
  0
LINE
  5
10F4
330
6F
100
AcDbEntity
  8
0
 62
     0
100
AcDbLine
 10
267.4826472002644
 20
33.08573262550022
 30
0.0
 11
267.4826472002644
 21
39.35583262550017
 31
0.0
  0
LINE
  5
10F5
330
6F
100
AcDbEntity
  8
0
 62
     0
100
AcDbLine
 10
267.4826472002644
 20
39.35583262550017
 30
0.0
 11
268.3066472002644
 21
39.35583262550017
 31
0.0
  0
LINE
  5
10F6
330
6F
100
AcDbEntity
  8
0
 62
     0
100
AcDbLine
 10
268.3066472002644
 20
39.35583262550017
 30
0.0
 11
268.3066472002644
 21
42.15593262550021
 31
0.0
  0
LINE
  5
10F7
330
6F
100
AcDbEntity
  8
0
 62
     0
100
AcDbLine
 10
268.3066472002644
 20
42.15593262550021
 30
0.0
 11
267.4826472002644
 21
42.15593262550021
 31
0.0
  0
LINE
  5
10F8
330
6F
100
AcDbEntity
  8
0
 62
     0
100
AcDbLine
 10
267.4826472002644
 20
42.15593262550021
 30
0.0
 11
267.4826472002644
 21
45.38613262550017
 31
0.0
  0
LINE
  5
10F9
330
6F
100
AcDbEntity
  8
0
 62
     0
100
AcDbLine
 10
267.4826472002644
 20
45.38613262550017
 30
0.0
 11
260.7316472002644
 21
45.38613262550017
 31
0.0
  0
LINE
  5
10FA
330
6F
100
AcDbEntity
  8
0
 62
     0
100
AcDbLine
 10
260.7316472002644
 20
45.38613262550017
 30
0.0
 11
260.7316472002644
 21
42.15593262550021
 31
0.0
  0
LINE
  5
10FB
330
6F
100
AcDbEntity
  8
0
 62
     0
100
AcDbLine
 10
260.7316472002644
 20
42.15593262550021
 30
0.0
 11
259.2076472002644
 21
42.15593262550021
 31
0.0
  0
LINE
  5
10FC
330
6F
100
AcDbEntity
  8
0
 62
     0
100
AcDbLine
 10
259.2076472002644
 20
42.15593262550021
 30
0.0
 11
259.2076472002644
 21
46.85493262550017
 31
0.0
  0
LINE
  5
10FD
330
6F
100
AcDbEntity
  8
0
 62
     0
100
AcDbLine
 10
259.2076472002644
 20
46.85493262550017
 30
0.0
 11
245.2066472002644
 21
46.85493262550017
 31
0.0
  0
LINE
  5
10FE
330
6F
100
AcDbEntity
  8
0
 62
     0
100
AcDbLine
 10
7.081547200264367
 20
46.85493262550017
 30
0.0
 11
7.081547200264367
 21
42.15593262550021
 31
0.0
  0
LINE
  5
10FF
330
6F
100
AcDbEntity
  8
0
 62
     0
100
AcDbLine
 10
7.081547200264367
 20
42.15593262550021
 30
0.0
 11
5.557447200264391
 21
42.15593262550021
 31
0.0
  0
LINE
  5
1100
330
6F
100
AcDbEntity
  8
0
 62
     0
100
AcDbLine
 10
5.557447200264391
 20
42.15593262550021
 30
0.0
 11
5.557447200264391
 21
45.38613262550017
 31
0.0
  0
LINE
  5
1101
330
6F
100
AcDbEntity
  8
0
 62
     0
100
AcDbLine
 10
5.557447200264391
 20
45.38613262550017
 30
0.0
 11
-1.192182799735633
 21
45.38613262550017
 31
0.0
  0
LINE
  5
1102
330
6F
100
AcDbEntity
  8
0
 62
     0
100
AcDbLine
 10
-1.192182799735633
 20
45.38613262550017
 30
0.0
 11
-1.192182799735633
 21
42.15593262550021
 31
0.0
  0
LINE
  5
1103
330
6F
100
AcDbEntity
  8
0
 62
     0
100
AcDbLine
 10
-1.192182799735633
 20
42.15593262550021
 30
0.0
 11
-2.017642799735597
 21
42.15593262550021
 31
0.0
  0
LINE
  5
1104
330
6F
100
AcDbEntity
  8
0
 62
     0
100
AcDbLine
 10
-2.017642799735597
 20
42.15593262550021
 30
0.0
 11
-2.017642799735597
 21
39.35583262550017
 31
0.0
  0
LINE
  5
1105
330
6F
100
AcDbEntity
  8
0
 62
     0
100
AcDbLine
 10
-2.017642799735597
 20
39.35583262550017
 30
0.0
 11
-1.192182799735633
 21
39.35583262550017
 31
0.0
  0
LINE
  5
1106
330
6F
100
AcDbEntity
  8
0
 62
     0
100
AcDbLine
 10
-1.192182799735633
 20
39.35583262550017
 30
0.0
 11
-1.192182799735633
 21
33.08573262550022
 31
0.0
  0
LINE
  5
1107
330
6F
100
AcDbEntity
  8
0
 62
     0
100
AcDbLine
 10
-1.192182799735633
 20
33.08573262550022
 30
0.0
 11
0.5317372002643879
 21
33.08573262550022
 31
0.0
  0
LINE
  5
1108
330
6F
100
AcDbEntity
  8
0
 62
     0
100
AcDbLine
 10
0.5317372002643879
 20
33.08573262550022
 30
0.0
 11
0.5317372002643879
 21
31.88543262550024
 31
0.0
  0
LINE
  5
1109
330
6F
100
AcDbEntity
  8
0
 62
     0
100
AcDbLine
 10
0.5317372002643879
 20
31.88543262550024
 30
0.0
 11
3.832147200264387
 21
31.88543262550024
 31
0.0
  0
LINE
  5
110A
330
6F
100
AcDbEntity
  8
0
 62
     0
100
AcDbLine
 10
3.832147200264387
 20
31.88543262550024
 30
0.0
 11
3.832147200264387
 21
33.08573262550022
 31
0.0
  0
LINE
  5
110B
330
6F
100
AcDbEntity
  8
0
 62
     0
100
AcDbLine
 10
3.832147200264387
 20
33.08573262550022
 30
0.0
 11
5.557447200264391
 21
33.08573262550022
 31
0.0
  0
LINE
  5
110C
330
6F
100
AcDbEntity
  8
0
 62
     0
100
AcDbLine
 10
5.557447200264391
 20
33.08573262550022
 30
0.0
 11
5.557447200264391
 21
37.55603262550017
 31
0.0
  0
LINE
  5
110D
330
6F
100
AcDbEntity
  8
0
 62
     0
100
AcDbLine
 10
5.557447200264391
 20
37.55603262550017
 30
0.0
 11
7.081547200264367
 21
37.55603262550017
 31
0.0
  0
LINE
  5
110E
330
6F
100
AcDbEntity
  8
0
 62
     0
100
AcDbLine
 10
7.081547200264367
 20
37.55603262550017
 30
0.0
 11
7.081547200264367
 21
32.85563262550022
 31
0.0
  0
LINE
  5
110F
330
6F
100
AcDbEntity
  8
0
 62
     0
100
AcDbLine
 10
7.081547200264367
 20
32.85563262550022
 30
0.0
 11
21.08244720026437
 21
32.85563262550022
 31
0.0
  0
LINE
  5
1110
330
6F
100
AcDbEntity
  8
0
 62
     0
100
AcDbLine
 10
21.08244720026437
 20
32.85563262550022
 30
0.0
 11
21.08244720026437
 21
37.55603262550017
 31
0.0
  0
LINE
  5
1111
330
6F
100
AcDbEntity
  8
0
 62
     0
100
AcDbLine
 10
21.08244720026437
 20
37.55603262550017
 30
0.0
 11
22.6065472002644
 21
37.55603262550017
 31
0.0
  0
LINE
  5
1112
330
6F
100
AcDbEntity
  8
0
 62
     0
100
AcDbLine
 10
22.6065472002644
 20
37.55603262550017
 30
0.0
 11
22.6065472002644
 21
33.08573262550022
 31
0.0
  0
LINE
  5
1113
330
6F
100
AcDbEntity
  8
0
 62
     0
100
AcDbLine
 10
22.6065472002644
 20
33.08573262550022
 30
0.0
 11
24.33184720026441
 21
33.08573262550022
 31
0.0
  0
LINE
  5
1114
330
6F
100
AcDbEntity
  8
0
 62
     0
100
AcDbLine
 10
24.33184720026441
 20
33.08573262550022
 30
0.0
 11
24.33184720026441
 21
31.88543262550024
 31
0.0
  0
LINE
  5
1115
330
6F
100
AcDbEntity
  8
0
 62
     0
100
AcDbLine
 10
24.33184720026441
 20
31.88543262550024
 30
0.0
 11
27.63224720026438
 21
31.88543262550024
 31
0.0
  0
LINE
  5
1116
330
6F
100
AcDbEntity
  8
0
 62
     0
100
AcDbLine
 10
27.63224720026438
 20
31.88543262550024
 30
0.0
 11
27.63224720026438
 21
33.08573262550022
 31
0.0
  0
LINE
  5
1117
330
6F
100
AcDbEntity
  8
0
 62
     0
100
AcDbLine
 10
27.63224720026438
 20
33.08573262550022
 30
0.0
 11
29.3574472002644
 21
33.08573262550022
 31
0.0
  0
LINE
  5
1118
330
6F
100
AcDbEntity
  8
0
 62
     0
100
AcDbLine
 10
29.3574472002644
 20
33.08573262550022
 30
0.0
 11
29.3574472002644
 21
39.35583262550017
 31
0.0
  0
LINE
  5
1119
330
6F
100
AcDbEntity
  8
0
 62
     0
100
AcDbLine
 10
29.3574472002644
 20
39.35583262550017
 30
0.0
 11
30.18154720026439
 21
39.35583262550017
 31
0.0
  0
LINE
  5
111A
330
6F
100
AcDbEntity
  8
0
 62
     0
100
AcDbLine
 10
30.18154720026439
 20
39.35583262550017
 30
0.0
 11
30.18154720026439
 21
42.15593262550021
 31
0.0
  0
LINE
  5
111B
330
6F
100
AcDbEntity
  8
0
 62
     0
100
AcDbLine
 10
30.18154720026439
 20
42.15593262550021
 30
0.0
 11
29.3574472002644
 21
42.15593262550021
 31
0.0
  0
LINE
  5
111C
330
6F
100
AcDbEntity
  8
0
 62
     0
100
AcDbLine
 10
29.3574472002644
 20
42.15593262550021
 30
0.0
 11
29.3574472002644
 21
45.38613262550017
 31
0.0
  0
LINE
  5
111D
330
6F
100
AcDbEntity
  8
0
 62
     0
100
AcDbLine
 10
29.3574472002644
 20
45.38613262550017
 30
0.0
 11
22.6065472002644
 21
45.38613262550017
 31
0.0
  0
LINE
  5
111E
330
6F
100
AcDbEntity
  8
0
 62
     0
100
AcDbLine
 10
22.6065472002644
 20
45.38613262550017
 30
0.0
 11
22.6065472002644
 21
42.15593262550021
 31
0.0
  0
LINE
  5
111F
330
6F
100
AcDbEntity
  8
0
 62
     0
100
AcDbLine
 10
22.6065472002644
 20
42.15593262550021
 30
0.0
 11
21.08244720026437
 21
42.15593262550021
 31
0.0
  0
LINE
  5
1120
330
6F
100
AcDbEntity
  8
0
 62
     0
100
AcDbLine
 10
21.08244720026437
 20
42.15593262550021
 30
0.0
 11
21.08244720026437
 21
46.85493262550017
 31
0.0
  0
LINE
  5
1121
330
6F
100
AcDbEntity
  8
0
 62
     0
100
AcDbLine
 10
21.08244720026437
 20
46.85493262550017
 30
0.0
 11
7.081547200264367
 21
46.85493262550017
 31
0.0
  0
LINE
  5
1122
330
6F
100
AcDbEntity
  8
0
 62
     0
100
AcDbLine
 10
285.6876472002644
 20
46.85493262550017
 30
0.0
 11
299.6886472002644
 21
46.85493262550017
 31
0.0
  0
LINE
  5
1123
330
6F
100
AcDbEntity
  8
0
 62
     0
100
AcDbLine
 10
299.6886472002644
 20
46.85493262550017
 30
0.0
 11
299.6886472002644
 21
32.85563262550022
 31
0.0
  0
LINE
  5
1124
330
6F
100
AcDbEntity
  8
0
 62
     0
100
AcDbLine
 10
299.6886472002644
 20
32.85563262550022
 30
0.0
 11
285.6876472002644
 21
32.85563262550022
 31
0.0
  0
LINE
  5
1125
330
6F
100
AcDbEntity
  8
0
 62
     0
100
AcDbLine
 10
285.6876472002644
 20
32.85563262550022
 30
0.0
 11
285.6876472002644
 21
46.85493262550017
 31
0.0
  0
LINE
  5
1126
330
6F
100
AcDbEntity
  8
0
 62
     0
100
AcDbLine
 10
209.4876472002645
 20
46.85493262550017
 30
0.0
 11
223.4886472002644
 21
46.85493262550017
 31
0.0
  0
LINE
  5
1127
330
6F
100
AcDbEntity
  8
0
 62
     0
100
AcDbLine
 10
223.4886472002644
 20
46.85493262550017
 30
0.0
 11
223.4886472002644
 21
32.85563262550022
 31
0.0
  0
LINE
  5
1128
330
6F
100
AcDbEntity
  8
0
 62
     0
100
AcDbLine
 10
223.4886472002644
 20
32.85563262550022
 30
0.0
 11
209.4876472002645
 21
32.85563262550022
 31
0.0
  0
LINE
  5
1129
330
6F
100
AcDbEntity
  8
0
 62
     0
100
AcDbLine
 10
209.4876472002645
 20
32.85563262550022
 30
0.0
 11
209.4876472002645
 21
46.85493262550017
 31
0.0
  0
LINE
  5
112A
330
6F
100
AcDbEntity
  8
0
 62
     0
100
AcDbLine
 10
190.4376472002644
 20
46.85493262550017
 30
0.0
 11
204.4386472002644
 21
46.85493262550017
 31
0.0
  0
LINE
  5
112B
330
6F
100
AcDbEntity
  8
0
 62
     0
100
AcDbLine
 10
204.4386472002644
 20
46.85493262550017
 30
0.0
 11
204.4386472002644
 21
32.85563262550022
 31
0.0
  0
LINE
  5
112C
330
6F
100
AcDbEntity
  8
0
 62
     0
100
AcDbLine
 10
204.4386472002644
 20
32.85563262550022
 30
0.0
 11
190.4376472002644
 21
32.85563262550022
 31
0.0
  0
LINE
  5
112D
330
6F
100
AcDbEntity
  8
0
 62
     0
100
AcDbLine
 10
190.4376472002644
 20
32.85563262550022
 30
0.0
 11
190.4376472002644
 21
46.85493262550017
 31
0.0
  0
LINE
  5
112E
330
6F
100
AcDbEntity
  8
0
 62
     0
100
AcDbLine
 10
171.3876472002644
 20
46.85493262550017
 30
0.0
 11
185.3886472002644
 21
46.85493262550017
 31
0.0
  0
LINE
  5
112F
330
6F
100
AcDbEntity
  8
0
 62
     0
100
AcDbLine
 10
185.3886472002644
 20
46.85493262550017
 30
0.0
 11
185.3886472002644
 21
32.85563262550022
 31
0.0
  0
LINE
  5
1130
330
6F
100
AcDbEntity
  8
0
 62
     0
100
AcDbLine
 10
185.3886472002644
 20
32.85563262550022
 30
0.0
 11
171.3876472002644
 21
32.85563262550022
 31
0.0
  0
LINE
  5
1131
330
6F
100
AcDbEntity
  8
0
 62
     0
100
AcDbLine
 10
171.3876472002644
 20
32.85563262550022
 30
0.0
 11
171.3876472002644
 21
46.85493262550017
 31
0.0
  0
LINE
  5
1132
330
6F
100
AcDbEntity
  8
0
 62
     0
100
AcDbLine
 10
152.3376472002643
 20
46.85493262550017
 30
0.0
 11
166.3386472002643
 21
46.85493262550017
 31
0.0
  0
LINE
  5
1133
330
6F
100
AcDbEntity
  8
0
 62
     0
100
AcDbLine
 10
166.3386472002643
 20
46.85493262550017
 30
0.0
 11
166.3386472002643
 21
32.85563262550022
 31
0.0
  0
LINE
  5
1134
330
6F
100
AcDbEntity
  8
0
 62
     0
100
AcDbLine
 10
166.3386472002643
 20
32.85563262550022
 30
0.0
 11
152.3376472002643
 21
32.85563262550022
 31
0.0
  0
LINE
  5
1135
330
6F
100
AcDbEntity
  8
0
 62
     0
100
AcDbLine
 10
152.3376472002643
 20
32.85563262550022
 30
0.0
 11
152.3376472002643
 21
46.85493262550017
 31
0.0
  0
LINE
  5
1136
330
6F
100
AcDbEntity
  8
0
 62
     0
100
AcDbLine
 10
133.2876472002644
 20
46.85493262550017
 30
0.0
 11
147.2886472002644
 21
46.85493262550017
 31
0.0
  0
LINE
  5
1137
330
6F
100
AcDbEntity
  8
0
 62
     0
100
AcDbLine
 10
147.2886472002644
 20
46.85493262550017
 30
0.0
 11
147.2886472002644
 21
32.85563262550022
 31
0.0
  0
LINE
  5
1138
330
6F
100
AcDbEntity
  8
0
 62
     0
100
AcDbLine
 10
147.2886472002644
 20
32.85563262550022
 30
0.0
 11
133.2876472002644
 21
32.85563262550022
 31
0.0
  0
LINE
  5
1139
330
6F
100
AcDbEntity
  8
0
 62
     0
100
AcDbLine
 10
133.2876472002644
 20
32.85563262550022
 30
0.0
 11
133.2876472002644
 21
46.85493262550017
 31
0.0
  0
LINE
  5
113A
330
6F
100
AcDbEntity
  8
0
 62
     0
100
AcDbLine
 10
114.2376472002644
 20
46.85493262550017
 30
0.0
 11
128.2386472002644
 21
46.85493262550017
 31
0.0
  0
LINE
  5
113B
330
6F
100
AcDbEntity
  8
0
 62
     0
100
AcDbLine
 10
128.2386472002644
 20
46.85493262550017
 30
0.0
 11
128.2386472002644
 21
32.85563262550022
 31
0.0
  0
LINE
  5
113C
330
6F
100
AcDbEntity
  8
0
 62
     0
100
AcDbLine
 10
128.2386472002644
 20
32.85563262550022
 30
0.0
 11
114.2376472002644
 21
32.85563262550022
 31
0.0
  0
LINE
  5
113D
330
6F
100
AcDbEntity
  8
0
 62
     0
100
AcDbLine
 10
114.2376472002644
 20
32.85563262550022
 30
0.0
 11
114.2376472002644
 21
46.85493262550017
 31
0.0
  0
LINE
  5
113E
330
6F
100
AcDbEntity
  8
0
 62
     0
100
AcDbLine
 10
95.18764720026439
 20
46.85493262550017
 30
0.0
 11
109.1886472002643
 21
46.85493262550017
 31
0.0
  0
LINE
  5
113F
330
6F
100
AcDbEntity
  8
0
 62
     0
100
AcDbLine
 10
109.1886472002643
 20
46.85493262550017
 30
0.0
 11
109.1886472002643
 21
32.85563262550022
 31
0.0
  0
LINE
  5
1140
330
6F
100
AcDbEntity
  8
0
 62
     0
100
AcDbLine
 10
109.1886472002643
 20
32.85563262550022
 30
0.0
 11
95.18764720026439
 21
32.85563262550022
 31
0.0
  0
LINE
  5
1141
330
6F
100
AcDbEntity
  8
0
 62
     0
100
AcDbLine
 10
95.18764720026439
 20
32.85563262550022
 30
0.0
 11
95.18764720026439
 21
46.85493262550017
 31
0.0
  0
LINE
  5
1142
330
6F
100
AcDbEntity
  8
0
 62
     0
100
AcDbLine
 10
76.13784720026439
 20
46.85493262550017
 30
0.0
 11
90.13854720026438
 21
46.85493262550017
 31
0.0
  0
LINE
  5
1143
330
6F
100
AcDbEntity
  8
0
 62
     0
100
AcDbLine
 10
90.13854720026438
 20
46.85493262550017
 30
0.0
 11
90.13854720026438
 21
32.85563262550022
 31
0.0
  0
LINE
  5
1144
330
6F
100
AcDbEntity
  8
0
 62
     0
100
AcDbLine
 10
90.13854720026438
 20
32.85563262550022
 30
0.0
 11
76.13784720026439
 21
32.85563262550022
 31
0.0
  0
LINE
  5
1145
330
6F
100
AcDbEntity
  8
0
 62
     0
100
AcDbLine
 10
76.13784720026439
 20
32.85563262550022
 30
0.0
 11
76.13784720026439
 21
46.85493262550017
 31
0.0
  0
LINE
  5
1146
330
6F
100
AcDbEntity
  8
0
 62
     0
100
AcDbLine
 10
57.08784720026438
 20
46.85493262550017
 30
0.0
 11
71.08854720026437
 21
46.85493262550017
 31
0.0
  0
LINE
  5
1147
330
6F
100
AcDbEntity
  8
0
 62
     0
100
AcDbLine
 10
71.08854720026437
 20
46.85493262550017
 30
0.0
 11
71.08854720026437
 21
32.85563262550022
 31
0.0
  0
LINE
  5
1148
330
6F
100
AcDbEntity
  8
0
 62
     0
100
AcDbLine
 10
71.08854720026437
 20
32.85563262550022
 30
0.0
 11
57.08784720026438
 21
32.85563262550022
 31
0.0
  0
LINE
  5
1149
330
6F
100
AcDbEntity
  8
0
 62
     0
100
AcDbLine
 10
57.08784720026438
 20
32.85563262550022
 30
0.0
 11
57.08784720026438
 21
46.85493262550017
 31
0.0
  0
LINE
  5
114A
330
6F
100
AcDbEntity
  8
0
 62
     0
100
AcDbLine
 10
38.03784720026437
 20
46.85493262550017
 30
0.0
 11
52.03854720026441
 21
46.85493262550017
 31
0.0
  0
LINE
  5
114B
330
6F
100
AcDbEntity
  8
0
 62
     0
100
AcDbLine
 10
52.03854720026441
 20
46.85493262550017
 30
0.0
 11
52.03854720026441
 21
32.85563262550022
 31
0.0
  0
LINE
  5
114C
330
6F
100
AcDbEntity
  8
0
 62
     0
100
AcDbLine
 10
52.03854720026441
 20
32.85563262550022
 30
0.0
 11
38.03784720026437
 21
32.85563262550022
 31
0.0
  0
LINE
  5
114D
330
6F
100
AcDbEntity
  8
0
 62
     0
100
AcDbLine
 10
38.03784720026437
 20
32.85563262550022
 30
0.0
 11
38.03784720026437
 21
46.85493262550017
 31
0.0
  0
LINE
  5
114E
330
6F
100
AcDbEntity
  8
0
 62
     0
100
AcDbLine
 10
249.9686472002645
 20
65.90493262550023
 30
0.0
 11
249.9686472002645
 21
61.20593262550016
 31
0.0
  0
LINE
  5
114F
330
6F
100
AcDbEntity
  8
0
 62
     0
100
AcDbLine
 10
249.9686472002645
 20
61.20593262550016
 30
0.0
 11
248.4436472002644
 21
61.20593262550016
 31
0.0
  0
LINE
  5
1150
330
6F
100
AcDbEntity
  8
0
 62
     0
100
AcDbLine
 10
248.4436472002644
 20
61.20593262550016
 30
0.0
 11
248.4436472002644
 21
64.43603262550022
 31
0.0
  0
LINE
  5
1151
330
6F
100
AcDbEntity
  8
0
 62
     0
100
AcDbLine
 10
248.4436472002644
 20
64.43603262550022
 30
0.0
 11
241.6936472002644
 21
64.43603262550022
 31
0.0
  0
LINE
  5
1152
330
6F
100
AcDbEntity
  8
0
 62
     0
100
AcDbLine
 10
241.6936472002644
 20
64.43603262550022
 30
0.0
 11
241.6936472002644
 21
61.20593262550016
 31
0.0
  0
LINE
  5
1153
330
6F
100
AcDbEntity
  8
0
 62
     0
100
AcDbLine
 10
241.6936472002644
 20
61.20593262550016
 30
0.0
 11
240.8686472002643
 21
61.20593262550016
 31
0.0
  0
LINE
  5
1154
330
6F
100
AcDbEntity
  8
0
 62
     0
100
AcDbLine
 10
240.8686472002643
 20
61.20593262550016
 30
0.0
 11
240.8686472002643
 21
58.40593262550021
 31
0.0
  0
LINE
  5
1155
330
6F
100
AcDbEntity
  8
0
 62
     0
100
AcDbLine
 10
240.8686472002643
 20
58.40593262550021
 30
0.0
 11
241.6936472002644
 21
58.40593262550021
 31
0.0
  0
LINE
  5
1156
330
6F
100
AcDbEntity
  8
0
 62
     0
100
AcDbLine
 10
241.6936472002644
 20
58.40593262550021
 30
0.0
 11
241.6936472002644
 21
52.13713262550021
 31
0.0
  0
LINE
  5
1157
330
6F
100
AcDbEntity
  8
0
 62
     0
100
AcDbLine
 10
241.6936472002644
 20
52.13713262550021
 30
0.0
 11
243.4186472002644
 21
52.13713262550021
 31
0.0
  0
LINE
  5
1158
330
6F
100
AcDbEntity
  8
0
 62
     0
100
AcDbLine
 10
243.4186472002644
 20
52.13713262550021
 30
0.0
 11
243.4186472002644
 21
50.93553262550017
 31
0.0
  0
LINE
  5
1159
330
6F
100
AcDbEntity
  8
0
 62
     0
100
AcDbLine
 10
243.4186472002644
 20
50.93553262550017
 30
0.0
 11
246.7186472002643
 21
50.93553262550017
 31
0.0
  0
LINE
  5
115A
330
6F
100
AcDbEntity
  8
0
 62
     0
100
AcDbLine
 10
246.7186472002643
 20
50.93553262550017
 30
0.0
 11
246.7186472002643
 21
52.13713262550021
 31
0.0
  0
LINE
  5
115B
330
6F
100
AcDbEntity
  8
0
 62
     0
100
AcDbLine
 10
246.7186472002643
 20
52.13713262550021
 30
0.0
 11
248.4436472002644
 21
52.13713262550021
 31
0.0
  0
LINE
  5
115C
330
6F
100
AcDbEntity
  8
0
 62
     0
100
AcDbLine
 10
248.4436472002644
 20
52.13713262550021
 30
0.0
 11
248.4436472002644
 21
56.60613262550021
 31
0.0
  0
LINE
  5
115D
330
6F
100
AcDbEntity
  8
0
 62
     0
100
AcDbLine
 10
248.4436472002644
 20
56.60613262550021
 30
0.0
 11
249.9686472002645
 21
56.60613262550021
 31
0.0
  0
LINE
  5
115E
330
6F
100
AcDbEntity
  8
0
 62
     0
100
AcDbLine
 10
249.9686472002645
 20
56.60613262550021
 30
0.0
 11
249.9686472002645
 21
51.90573262550021
 31
0.0
  0
LINE
  5
115F
330
6F
100
AcDbEntity
  8
0
 62
     0
100
AcDbLine
 10
249.9686472002645
 20
51.90573262550021
 30
0.0
 11
263.9686472002645
 21
51.90573262550021
 31
0.0
  0
LINE
  5
1160
330
6F
100
AcDbEntity
  8
0
 62
     0
100
AcDbLine
 10
263.9686472002645
 20
51.90573262550021
 30
0.0
 11
263.9686472002645
 21
56.60613262550021
 31
0.0
  0
LINE
  5
1161
330
6F
100
AcDbEntity
  8
0
 62
     0
100
AcDbLine
 10
263.9686472002645
 20
56.60613262550021
 30
0.0
 11
265.4946472002644
 21
56.60613262550021
 31
0.0
  0
LINE
  5
1162
330
6F
100
AcDbEntity
  8
0
 62
     0
100
AcDbLine
 10
265.4946472002644
 20
56.60613262550021
 30
0.0
 11
265.4946472002644
 21
52.13713262550021
 31
0.0
  0
LINE
  5
1163
330
6F
100
AcDbEntity
  8
0
 62
     0
100
AcDbLine
 10
265.4946472002644
 20
52.13713262550021
 30
0.0
 11
267.2196472002644
 21
52.13713262550021
 31
0.0
  0
LINE
  5
1164
330
6F
100
AcDbEntity
  8
0
 62
     0
100
AcDbLine
 10
267.2196472002644
 20
52.13713262550021
 30
0.0
 11
267.2196472002644
 21
50.93553262550017
 31
0.0
  0
LINE
  5
1165
330
6F
100
AcDbEntity
  8
0
 62
     0
100
AcDbLine
 10
267.2196472002644
 20
50.93553262550017
 30
0.0
 11
270.5196472002644
 21
50.93553262550017
 31
0.0
  0
LINE
  5
1166
330
6F
100
AcDbEntity
  8
0
 62
     0
100
AcDbLine
 10
270.5196472002644
 20
50.93553262550017
 30
0.0
 11
270.5196472002644
 21
52.13713262550021
 31
0.0
  0
LINE
  5
1167
330
6F
100
AcDbEntity
  8
0
 62
     0
100
AcDbLine
 10
270.5196472002644
 20
52.13713262550021
 30
0.0
 11
272.2436472002643
 21
52.13713262550021
 31
0.0
  0
LINE
  5
1168
330
6F
100
AcDbEntity
  8
0
 62
     0
100
AcDbLine
 10
272.2436472002643
 20
52.13713262550021
 30
0.0
 11
272.2436472002643
 21
58.40593262550021
 31
0.0
  0
LINE
  5
1169
330
6F
100
AcDbEntity
  8
0
 62
     0
100
AcDbLine
 10
272.2436472002643
 20
58.40593262550021
 30
0.0
 11
273.0686472002644
 21
58.40593262550021
 31
0.0
  0
LINE
  5
116A
330
6F
100
AcDbEntity
  8
0
 62
     0
100
AcDbLine
 10
273.0686472002644
 20
58.40593262550021
 30
0.0
 11
273.0686472002644
 21
61.20593262550016
 31
0.0
  0
LINE
  5
116B
330
6F
100
AcDbEntity
  8
0
 62
     0
100
AcDbLine
 10
273.0686472002644
 20
61.20593262550016
 30
0.0
 11
272.2436472002643
 21
61.20593262550016
 31
0.0
  0
LINE
  5
116C
330
6F
100
AcDbEntity
  8
0
 62
     0
100
AcDbLine
 10
272.2436472002643
 20
61.20593262550016
 30
0.0
 11
272.2436472002643
 21
64.43603262550022
 31
0.0
  0
LINE
  5
116D
330
6F
100
AcDbEntity
  8
0
 62
     0
100
AcDbLine
 10
272.2436472002643
 20
64.43603262550022
 30
0.0
 11
265.4946472002644
 21
64.43603262550022
 31
0.0
  0
LINE
  5
116E
330
6F
100
AcDbEntity
  8
0
 62
     0
100
AcDbLine
 10
265.4946472002644
 20
64.43603262550022
 30
0.0
 11
265.4946472002644
 21
61.20593262550016
 31
0.0
  0
LINE
  5
116F
330
6F
100
AcDbEntity
  8
0
 62
     0
100
AcDbLine
 10
265.4946472002644
 20
61.20593262550016
 30
0.0
 11
263.9686472002645
 21
61.20593262550016
 31
0.0
  0
LINE
  5
1170
330
6F
100
AcDbEntity
  8
0
 62
     0
100
AcDbLine
 10
263.9686472002645
 20
61.20593262550016
 30
0.0
 11
263.9686472002645
 21
65.90493262550023
 31
0.0
  0
LINE
  5
1171
330
6F
100
AcDbEntity
  8
0
 62
     0
100
AcDbLine
 10
263.9686472002645
 20
65.90493262550023
 30
0.0
 11
249.9686472002645
 21
65.90493262550023
 31
0.0
  0
LINE
  5
1172
330
6F
100
AcDbEntity
  8
0
 62
     0
100
AcDbLine
 10
219.0126472002643
 20
65.90493262550023
 30
0.0
 11
233.0136472002644
 21
65.90493262550023
 31
0.0
  0
LINE
  5
1173
330
6F
100
AcDbEntity
  8
0
 62
     0
100
AcDbLine
 10
233.0136472002644
 20
65.90493262550023
 30
0.0
 11
233.0136472002644
 21
51.90573262550021
 31
0.0
  0
LINE
  5
1174
330
6F
100
AcDbEntity
  8
0
 62
     0
100
AcDbLine
 10
233.0136472002644
 20
51.90573262550021
 30
0.0
 11
219.0126472002643
 21
51.90573262550021
 31
0.0
  0
LINE
  5
1175
330
6F
100
AcDbEntity
  8
0
 62
     0
100
AcDbLine
 10
219.0126472002643
 20
51.90573262550021
 30
0.0
 11
219.0126472002643
 21
65.90493262550023
 31
0.0
  0
LINE
  5
1176
330
6F
100
AcDbEntity
  8
0
 62
     0
100
AcDbLine
 10
199.9626472002644
 20
65.90493262550023
 30
0.0
 11
213.9636472002643
 21
65.90493262550023
 31
0.0
  0
LINE
  5
1177
330
6F
100
AcDbEntity
  8
0
 62
     0
100
AcDbLine
 10
213.9636472002643
 20
65.90493262550023
 30
0.0
 11
213.9636472002643
 21
51.90573262550021
 31
0.0
  0
LINE
  5
1178
330
6F
100
AcDbEntity
  8
0
 62
     0
100
AcDbLine
 10
213.9636472002643
 20
51.90573262550021
 30
0.0
 11
199.9626472002644
 21
51.90573262550021
 31
0.0
  0
LINE
  5
1179
330
6F
100
AcDbEntity
  8
0
 62
     0
100
AcDbLine
 10
199.9626472002644
 20
51.90573262550021
 30
0.0
 11
199.9626472002644
 21
65.90493262550023
 31
0.0
  0
LINE
  5
117A
330
6F
100
AcDbEntity
  8
0
 62
     0
100
AcDbLine
 10
180.9126472002644
 20
65.90493262550023
 30
0.0
 11
194.9136472002644
 21
65.90493262550023
 31
0.0
  0
LINE
  5
117B
330
6F
100
AcDbEntity
  8
0
 62
     0
100
AcDbLine
 10
194.9136472002644
 20
65.90493262550023
 30
0.0
 11
194.9136472002644
 21
51.90573262550021
 31
0.0
  0
LINE
  5
117C
330
6F
100
AcDbEntity
  8
0
 62
     0
100
AcDbLine
 10
194.9136472002644
 20
51.90573262550021
 30
0.0
 11
180.9126472002644
 21
51.90573262550021
 31
0.0
  0
LINE
  5
117D
330
6F
100
AcDbEntity
  8
0
 62
     0
100
AcDbLine
 10
180.9126472002644
 20
51.90573262550021
 30
0.0
 11
180.9126472002644
 21
65.90493262550023
 31
0.0
  0
LINE
  5
117E
330
6F
100
AcDbEntity
  8
0
 62
     0
100
AcDbLine
 10
161.8626472002644
 20
65.90493262550023
 30
0.0
 11
175.8636472002644
 21
65.90493262550023
 31
0.0
  0
LINE
  5
117F
330
6F
100
AcDbEntity
  8
0
 62
     0
100
AcDbLine
 10
175.8636472002644
 20
65.90493262550023
 30
0.0
 11
175.8636472002644
 21
51.90573262550021
 31
0.0
  0
LINE
  5
1180
330
6F
100
AcDbEntity
  8
0
 62
     0
100
AcDbLine
 10
175.8636472002644
 20
51.90573262550021
 30
0.0
 11
161.8626472002644
 21
51.90573262550021
 31
0.0
  0
LINE
  5
1181
330
6F
100
AcDbEntity
  8
0
 62
     0
100
AcDbLine
 10
161.8626472002644
 20
51.90573262550021
 30
0.0
 11
161.8626472002644
 21
65.90493262550023
 31
0.0
  0
LINE
  5
1182
330
6F
100
AcDbEntity
  8
0
 62
     0
100
AcDbLine
 10
142.8126472002644
 20
65.90493262550023
 30
0.0
 11
156.8136472002644
 21
65.90493262550023
 31
0.0
  0
LINE
  5
1183
330
6F
100
AcDbEntity
  8
0
 62
     0
100
AcDbLine
 10
156.8136472002644
 20
65.90493262550023
 30
0.0
 11
156.8136472002644
 21
51.90573262550021
 31
0.0
  0
LINE
  5
1184
330
6F
100
AcDbEntity
  8
0
 62
     0
100
AcDbLine
 10
156.8136472002644
 20
51.90573262550021
 30
0.0
 11
142.8126472002644
 21
51.90573262550021
 31
0.0
  0
LINE
  5
1185
330
6F
100
AcDbEntity
  8
0
 62
     0
100
AcDbLine
 10
142.8126472002644
 20
51.90573262550021
 30
0.0
 11
142.8126472002644
 21
65.90493262550023
 31
0.0
  0
LINE
  5
1186
330
6F
100
AcDbEntity
  8
0
 62
     0
100
AcDbLine
 10
123.7626472002643
 20
65.90493262550023
 30
0.0
 11
137.7636472002644
 21
65.90493262550023
 31
0.0
  0
LINE
  5
1187
330
6F
100
AcDbEntity
  8
0
 62
     0
100
AcDbLine
 10
137.7636472002644
 20
65.90493262550023
 30
0.0
 11
137.7636472002644
 21
51.90573262550021
 31
0.0
  0
LINE
  5
1188
330
6F
100
AcDbEntity
  8
0
 62
     0
100
AcDbLine
 10
137.7636472002644
 20
51.90573262550021
 30
0.0
 11
123.7626472002643
 21
51.90573262550021
 31
0.0
  0
LINE
  5
1189
330
6F
100
AcDbEntity
  8
0
 62
     0
100
AcDbLine
 10
123.7626472002643
 20
51.90573262550021
 30
0.0
 11
123.7626472002643
 21
65.90493262550023
 31
0.0
  0
LINE
  5
118A
330
6F
100
AcDbEntity
  8
0
 62
     0
100
AcDbLine
 10
104.7126472002643
 20
65.90493262550023
 30
0.0
 11
118.7136472002643
 21
65.90493262550023
 31
0.0
  0
LINE
  5
118B
330
6F
100
AcDbEntity
  8
0
 62
     0
100
AcDbLine
 10
118.7136472002643
 20
65.90493262550023
 30
0.0
 11
118.7136472002643
 21
51.90573262550021
 31
0.0
  0
LINE
  5
118C
330
6F
100
AcDbEntity
  8
0
 62
     0
100
AcDbLine
 10
118.7136472002643
 20
51.90573262550021
 30
0.0
 11
104.7126472002643
 21
51.90573262550021
 31
0.0
  0
LINE
  5
118D
330
6F
100
AcDbEntity
  8
0
 62
     0
100
AcDbLine
 10
104.7126472002643
 20
51.90573262550021
 30
0.0
 11
104.7126472002643
 21
65.90493262550023
 31
0.0
  0
LINE
  5
118E
330
6F
100
AcDbEntity
  8
0
 62
     0
100
AcDbLine
 10
85.66284720026436
 20
65.90493262550023
 30
0.0
 11
99.6636472002644
 21
65.90493262550023
 31
0.0
  0
LINE
  5
118F
330
6F
100
AcDbEntity
  8
0
 62
     0
100
AcDbLine
 10
99.6636472002644
 20
65.90493262550023
 30
0.0
 11
99.6636472002644
 21
51.90573262550021
 31
0.0
  0
LINE
  5
1190
330
6F
100
AcDbEntity
  8
0
 62
     0
100
AcDbLine
 10
99.6636472002644
 20
51.90573262550021
 30
0.0
 11
85.66284720026436
 21
51.90573262550021
 31
0.0
  0
LINE
  5
1191
330
6F
100
AcDbEntity
  8
0
 62
     0
100
AcDbLine
 10
85.66284720026436
 20
51.90573262550021
 30
0.0
 11
85.66284720026436
 21
65.90493262550023
 31
0.0
  0
LINE
  5
1192
330
6F
100
AcDbEntity
  8
0
 62
     0
100
AcDbLine
 10
66.61284720026441
 20
65.90493262550023
 30
0.0
 11
80.61354720026441
 21
65.90493262550023
 31
0.0
  0
LINE
  5
1193
330
6F
100
AcDbEntity
  8
0
 62
     0
100
AcDbLine
 10
80.61354720026441
 20
65.90493262550023
 30
0.0
 11
80.61354720026441
 21
51.90573262550021
 31
0.0
  0
LINE
  5
1194
330
6F
100
AcDbEntity
  8
0
 62
     0
100
AcDbLine
 10
80.61354720026441
 20
51.90573262550021
 30
0.0
 11
66.61284720026441
 21
51.90573262550021
 31
0.0
  0
LINE
  5
1195
330
6F
100
AcDbEntity
  8
0
 62
     0
100
AcDbLine
 10
66.61284720026441
 20
51.90573262550021
 30
0.0
 11
66.61284720026441
 21
65.90493262550023
 31
0.0
  0
LINE
  5
1196
330
6F
100
AcDbEntity
  8
0
 62
     0
100
AcDbLine
 10
47.5628472002644
 20
65.90493262550023
 30
0.0
 11
61.56354720026439
 21
65.90493262550023
 31
0.0
  0
LINE
  5
1197
330
6F
100
AcDbEntity
  8
0
 62
     0
100
AcDbLine
 10
61.56354720026439
 20
65.90493262550023
 30
0.0
 11
61.56354720026439
 21
51.90573262550021
 31
0.0
  0
LINE
  5
1198
330
6F
100
AcDbEntity
  8
0
 62
     0
100
AcDbLine
 10
61.56354720026439
 20
51.90573262550021
 30
0.0
 11
47.5628472002644
 21
51.90573262550021
 31
0.0
  0
LINE
  5
1199
330
6F
100
AcDbEntity
  8
0
 62
     0
100
AcDbLine
 10
47.5628472002644
 20
51.90573262550021
 30
0.0
 11
47.5628472002644
 21
65.90493262550023
 31
0.0
  0
LINE
  5
119A
330
6F
100
AcDbEntity
  8
0
 62
     0
100
AcDbLine
 10
28.51284720026439
 20
65.90493262550023
 30
0.0
 11
42.51354720026438
 21
65.90493262550023
 31
0.0
  0
LINE
  5
119B
330
6F
100
AcDbEntity
  8
0
 62
     0
100
AcDbLine
 10
42.51354720026438
 20
65.90493262550023
 30
0.0
 11
42.51354720026438
 21
51.90573262550021
 31
0.0
  0
LINE
  5
119C
330
6F
100
AcDbEntity
  8
0
 62
     0
100
AcDbLine
 10
42.51354720026438
 20
51.90573262550021
 30
0.0
 11
28.51284720026439
 21
51.90573262550021
 31
0.0
  0
LINE
  5
119D
330
6F
100
AcDbEntity
  8
0
 62
     0
100
AcDbLine
 10
28.51284720026439
 20
51.90573262550021
 30
0.0
 11
28.51284720026439
 21
65.90493262550023
 31
0.0
  0
LINE
  5
119E
330
6F
100
AcDbEntity
  8
0
 62
     0
100
AcDbLine
 10
2.31905720026441
 20
65.90493262550023
 30
0.0
 11
16.31854720026439
 21
65.90493262550023
 31
0.0
  0
LINE
  5
119F
330
6F
100
AcDbEntity
  8
0
 62
     0
100
AcDbLine
 10
16.31854720026439
 20
65.90493262550023
 30
0.0
 11
16.31854720026439
 21
51.90573262550021
 31
0.0
  0
LINE
  5
11A0
330
6F
100
AcDbEntity
  8
0
 62
     0
100
AcDbLine
 10
16.31854720026439
 20
51.90573262550021
 30
0.0
 11
2.31905720026441
 21
51.90573262550021
 31
0.0
  0
LINE
  5
11A1
330
6F
100
AcDbEntity
  8
0
 62
     0
100
AcDbLine
 10
2.31905720026441
 20
51.90573262550021
 30
0.0
 11
2.31905720026441
 21
65.90493262550023
 31
0.0
  0
LINE
  5
11A2
330
6F
100
AcDbEntity
  8
0
 62
     0
100
AcDbLine
 10
304.7376472002645
 20
84.95493262550018
 30
0.0
 11
318.7386472002645
 21
84.95493262550018
 31
0.0
  0
LINE
  5
11A3
330
6F
100
AcDbEntity
  8
0
 62
     0
100
AcDbLine
 10
318.7386472002645
 20
84.95493262550018
 30
0.0
 11
318.7386472002645
 21
70.95573262550022
 31
0.0
  0
LINE
  5
11A4
330
6F
100
AcDbEntity
  8
0
 62
     0
100
AcDbLine
 10
318.7386472002645
 20
70.95573262550022
 30
0.0
 11
304.7376472002645
 21
70.95573262550022
 31
0.0
  0
LINE
  5
11A5
330
6F
100
AcDbEntity
  8
0
 62
     0
100
AcDbLine
 10
304.7376472002645
 20
70.95573262550022
 30
0.0
 11
304.7376472002645
 21
84.95493262550018
 31
0.0
  0
LINE
  5
11A6
330
6F
100
AcDbEntity
  8
0
 62
     0
100
AcDbLine
 10
285.6876472002644
 20
84.95493262550018
 30
0.0
 11
299.6886472002644
 21
84.95493262550018
 31
0.0
  0
LINE
  5
11A7
330
6F
100
AcDbEntity
  8
0
 62
     0
100
AcDbLine
 10
299.6886472002644
 20
84.95493262550018
 30
0.0
 11
299.6886472002644
 21
70.95573262550022
 31
0.0
  0
LINE
  5
11A8
330
6F
100
AcDbEntity
  8
0
 62
     0
100
AcDbLine
 10
299.6886472002644
 20
70.95573262550022
 30
0.0
 11
285.6876472002644
 21
70.95573262550022
 31
0.0
  0
LINE
  5
11A9
330
6F
100
AcDbEntity
  8
0
 62
     0
100
AcDbLine
 10
285.6876472002644
 20
70.95573262550022
 30
0.0
 11
285.6876472002644
 21
84.95493262550018
 31
0.0
  0
LINE
  5
11AA
330
6F
100
AcDbEntity
  8
0
 62
     0
100
AcDbLine
 10
257.1126472002644
 20
84.95493262550018
 30
0.0
 11
271.1136472002644
 21
84.95493262550018
 31
0.0
  0
LINE
  5
11AB
330
6F
100
AcDbEntity
  8
0
 62
     0
100
AcDbLine
 10
271.1136472002644
 20
84.95493262550018
 30
0.0
 11
271.1136472002644
 21
70.95573262550022
 31
0.0
  0
LINE
  5
11AC
330
6F
100
AcDbEntity
  8
0
 62
     0
100
AcDbLine
 10
271.1136472002644
 20
70.95573262550022
 30
0.0
 11
257.1126472002644
 21
70.95573262550022
 31
0.0
  0
LINE
  5
11AD
330
6F
100
AcDbEntity
  8
0
 62
     0
100
AcDbLine
 10
257.1126472002644
 20
70.95573262550022
 30
0.0
 11
257.1126472002644
 21
84.95493262550018
 31
0.0
  0
LINE
  5
11AE
330
6F
100
AcDbEntity
  8
0
 62
     0
100
AcDbLine
 10
233.3016472002643
 20
84.95493262550018
 30
0.0
 11
247.2996472002644
 21
84.95493262550018
 31
0.0
  0
LINE
  5
11AF
330
6F
100
AcDbEntity
  8
0
 62
     0
100
AcDbLine
 10
247.2996472002644
 20
84.95493262550018
 30
0.0
 11
247.2996472002644
 21
70.95573262550022
 31
0.0
  0
LINE
  5
11B0
330
6F
100
AcDbEntity
  8
0
 62
     0
100
AcDbLine
 10
247.2996472002644
 20
70.95573262550022
 30
0.0
 11
233.3016472002643
 21
70.95573262550022
 31
0.0
  0
LINE
  5
11B1
330
6F
100
AcDbEntity
  8
0
 62
     0
100
AcDbLine
 10
233.3016472002643
 20
70.95573262550022
 30
0.0
 11
233.3016472002643
 21
84.95493262550018
 31
0.0
  0
LINE
  5
11B2
330
6F
100
AcDbEntity
  8
0
 62
     0
100
AcDbLine
 10
214.2516472002644
 20
84.95493262550018
 30
0.0
 11
228.2506472002644
 21
84.95493262550018
 31
0.0
  0
LINE
  5
11B3
330
6F
100
AcDbEntity
  8
0
 62
     0
100
AcDbLine
 10
228.2506472002644
 20
84.95493262550018
 30
0.0
 11
228.2506472002644
 21
70.95573262550022
 31
0.0
  0
LINE
  5
11B4
330
6F
100
AcDbEntity
  8
0
 62
     0
100
AcDbLine
 10
228.2506472002644
 20
70.95573262550022
 30
0.0
 11
214.2516472002644
 21
70.95573262550022
 31
0.0
  0
LINE
  5
11B5
330
6F
100
AcDbEntity
  8
0
 62
     0
100
AcDbLine
 10
214.2516472002644
 20
70.95573262550022
 30
0.0
 11
214.2516472002644
 21
84.95493262550018
 31
0.0
  0
LINE
  5
11B6
330
6F
100
AcDbEntity
  8
0
 62
     0
100
AcDbLine
 10
195.2016472002644
 20
84.95493262550018
 30
0.0
 11
209.2006472002644
 21
84.95493262550018
 31
0.0
  0
LINE
  5
11B7
330
6F
100
AcDbEntity
  8
0
 62
     0
100
AcDbLine
 10
209.2006472002644
 20
84.95493262550018
 30
0.0
 11
209.2006472002644
 21
70.95573262550022
 31
0.0
  0
LINE
  5
11B8
330
6F
100
AcDbEntity
  8
0
 62
     0
100
AcDbLine
 10
209.2006472002644
 20
70.95573262550022
 30
0.0
 11
195.2016472002644
 21
70.95573262550022
 31
0.0
  0
LINE
  5
11B9
330
6F
100
AcDbEntity
  8
0
 62
     0
100
AcDbLine
 10
195.2016472002644
 20
70.95573262550022
 30
0.0
 11
195.2016472002644
 21
84.95493262550018
 31
0.0
  0
LINE
  5
11BA
330
6F
100
AcDbEntity
  8
0
 62
     0
100
AcDbLine
 10
176.1516472002643
 20
84.95493262550018
 30
0.0
 11
190.1506472002643
 21
84.95493262550018
 31
0.0
  0
LINE
  5
11BB
330
6F
100
AcDbEntity
  8
0
 62
     0
100
AcDbLine
 10
190.1506472002643
 20
84.95493262550018
 30
0.0
 11
190.1506472002643
 21
70.95573262550022
 31
0.0
  0
LINE
  5
11BC
330
6F
100
AcDbEntity
  8
0
 62
     0
100
AcDbLine
 10
190.1506472002643
 20
70.95573262550022
 30
0.0
 11
176.1516472002643
 21
70.95573262550022
 31
0.0
  0
LINE
  5
11BD
330
6F
100
AcDbEntity
  8
0
 62
     0
100
AcDbLine
 10
176.1516472002643
 20
70.95573262550022
 30
0.0
 11
176.1516472002643
 21
84.95493262550018
 31
0.0
  0
LINE
  5
11BE
330
6F
100
AcDbEntity
  8
0
 62
     0
100
AcDbLine
 10
157.1016472002644
 20
84.95493262550018
 30
0.0
 11
171.1006472002644
 21
84.95493262550018
 31
0.0
  0
LINE
  5
11BF
330
6F
100
AcDbEntity
  8
0
 62
     0
100
AcDbLine
 10
171.1006472002644
 20
84.95493262550018
 30
0.0
 11
171.1006472002644
 21
70.95573262550022
 31
0.0
  0
LINE
  5
11C0
330
6F
100
AcDbEntity
  8
0
 62
     0
100
AcDbLine
 10
171.1006472002644
 20
70.95573262550022
 30
0.0
 11
157.1016472002644
 21
70.95573262550022
 31
0.0
  0
LINE
  5
11C1
330
6F
100
AcDbEntity
  8
0
 62
     0
100
AcDbLine
 10
157.1016472002644
 20
70.95573262550022
 30
0.0
 11
157.1016472002644
 21
84.95493262550018
 31
0.0
  0
LINE
  5
11C2
330
6F
100
AcDbEntity
  8
0
 62
     0
100
AcDbLine
 10
138.0516472002644
 20
84.95493262550018
 30
0.0
 11
152.0506472002644
 21
84.95493262550018
 31
0.0
  0
LINE
  5
11C3
330
6F
100
AcDbEntity
  8
0
 62
     0
100
AcDbLine
 10
152.0506472002644
 20
84.95493262550018
 30
0.0
 11
152.0506472002644
 21
70.95573262550022
 31
0.0
  0
LINE
  5
11C4
330
6F
100
AcDbEntity
  8
0
 62
     0
100
AcDbLine
 10
152.0506472002644
 20
70.95573262550022
 30
0.0
 11
138.0516472002644
 21
70.95573262550022
 31
0.0
  0
LINE
  5
11C5
330
6F
100
AcDbEntity
  8
0
 62
     0
100
AcDbLine
 10
138.0516472002644
 20
70.95573262550022
 30
0.0
 11
138.0516472002644
 21
84.95493262550018
 31
0.0
  0
LINE
  5
11C6
330
6F
100
AcDbEntity
  8
0
 62
     0
100
AcDbLine
 10
119.0016472002643
 20
84.95493262550018
 30
0.0
 11
133.0006472002644
 21
84.95493262550018
 31
0.0
  0
LINE
  5
11C7
330
6F
100
AcDbEntity
  8
0
 62
     0
100
AcDbLine
 10
133.0006472002644
 20
84.95493262550018
 30
0.0
 11
133.0006472002644
 21
70.95573262550022
 31
0.0
  0
LINE
  5
11C8
330
6F
100
AcDbEntity
  8
0
 62
     0
100
AcDbLine
 10
133.0006472002644
 20
70.95573262550022
 30
0.0
 11
119.0016472002643
 21
70.95573262550022
 31
0.0
  0
LINE
  5
11C9
330
6F
100
AcDbEntity
  8
0
 62
     0
100
AcDbLine
 10
119.0016472002643
 20
70.95573262550022
 30
0.0
 11
119.0016472002643
 21
84.95493262550018
 31
0.0
  0
LINE
  5
11CA
330
6F
100
AcDbEntity
  8
0
 62
     0
100
AcDbLine
 10
99.95164720026441
 20
84.95493262550018
 30
0.0
 11
113.9506472002643
 21
84.95493262550018
 31
0.0
  0
LINE
  5
11CB
330
6F
100
AcDbEntity
  8
0
 62
     0
100
AcDbLine
 10
113.9506472002643
 20
84.95493262550018
 30
0.0
 11
113.9506472002643
 21
70.95573262550022
 31
0.0
  0
LINE
  5
11CC
330
6F
100
AcDbEntity
  8
0
 62
     0
100
AcDbLine
 10
113.9506472002643
 20
70.95573262550022
 30
0.0
 11
99.95164720026441
 21
70.95573262550022
 31
0.0
  0
LINE
  5
11CD
330
6F
100
AcDbEntity
  8
0
 62
     0
100
AcDbLine
 10
99.95164720026441
 20
70.95573262550022
 30
0.0
 11
99.95164720026441
 21
84.95493262550018
 31
0.0
  0
LINE
  5
11CE
330
6F
100
AcDbEntity
  8
0
 62
     0
100
AcDbLine
 10
80.90174720026443
 20
84.95493262550018
 30
0.0
 11
94.90064720026436
 21
84.95493262550018
 31
0.0
  0
LINE
  5
11CF
330
6F
100
AcDbEntity
  8
0
 62
     0
100
AcDbLine
 10
94.90064720026436
 20
84.95493262550018
 30
0.0
 11
94.90064720026436
 21
70.95573262550022
 31
0.0
  0
LINE
  5
11D0
330
6F
100
AcDbEntity
  8
0
 62
     0
100
AcDbLine
 10
94.90064720026436
 20
70.95573262550022
 30
0.0
 11
80.90174720026443
 21
70.95573262550022
 31
0.0
  0
LINE
  5
11D1
330
6F
100
AcDbEntity
  8
0
 62
     0
100
AcDbLine
 10
80.90174720026443
 20
70.95573262550022
 30
0.0
 11
80.90174720026443
 21
84.95493262550018
 31
0.0
  0
LINE
  5
11D2
330
6F
100
AcDbEntity
  8
0
 62
     0
100
AcDbLine
 10
61.85174720026435
 20
84.95493262550018
 30
0.0
 11
75.85104720026442
 21
84.95493262550018
 31
0.0
  0
LINE
  5
11D3
330
6F
100
AcDbEntity
  8
0
 62
     0
100
AcDbLine
 10
75.85104720026442
 20
84.95493262550018
 30
0.0
 11
75.85104720026442
 21
70.95573262550022
 31
0.0
  0
LINE
  5
11D4
330
6F
100
AcDbEntity
  8
0
 62
     0
100
AcDbLine
 10
75.85104720026442
 20
70.95573262550022
 30
0.0
 11
61.85174720026435
 21
70.95573262550022
 31
0.0
  0
LINE
  5
11D5
330
6F
100
AcDbEntity
  8
0
 62
     0
100
AcDbLine
 10
61.85174720026435
 20
70.95573262550022
 30
0.0
 11
61.85174720026435
 21
84.95493262550018
 31
0.0
  0
LINE
  5
11D6
330
6F
100
AcDbEntity
  8
0
 62
     0
100
AcDbLine
 10
42.80174720026439
 20
84.95493262550018
 30
0.0
 11
56.80104720026441
 21
84.95493262550018
 31
0.0
  0
LINE
  5
11D7
330
6F
100
AcDbEntity
  8
0
 62
     0
100
AcDbLine
 10
56.80104720026441
 20
84.95493262550018
 30
0.0
 11
56.80104720026441
 21
70.95573262550022
 31
0.0
  0
LINE
  5
11D8
330
6F
100
AcDbEntity
  8
0
 62
     0
100
AcDbLine
 10
56.80104720026441
 20
70.95573262550022
 30
0.0
 11
42.80174720026439
 21
70.95573262550022
 31
0.0
  0
LINE
  5
11D9
330
6F
100
AcDbEntity
  8
0
 62
     0
100
AcDbLine
 10
42.80174720026439
 20
70.95573262550022
 30
0.0
 11
42.80174720026439
 21
84.95493262550018
 31
0.0
  0
LINE
  5
11DA
330
6F
100
AcDbEntity
  8
0
 62
     0
100
AcDbLine
 10
23.75164720026436
 20
84.95493262550018
 30
0.0
 11
37.7510472002644
 21
84.95493262550018
 31
0.0
  0
LINE
  5
11DB
330
6F
100
AcDbEntity
  8
0
 62
     0
100
AcDbLine
 10
37.7510472002644
 20
84.95493262550018
 30
0.0
 11
37.7510472002644
 21
70.95573262550022
 31
0.0
  0
LINE
  5
11DC
330
6F
100
AcDbEntity
  8
0
 62
     0
100
AcDbLine
 10
37.7510472002644
 20
70.95573262550022
 30
0.0
 11
23.75164720026436
 21
70.95573262550022
 31
0.0
  0
LINE
  5
11DD
330
6F
100
AcDbEntity
  8
0
 62
     0
100
AcDbLine
 10
23.75164720026436
 20
70.95573262550022
 30
0.0
 11
23.75164720026436
 21
84.95493262550018
 31
0.0
  0
LINE
  5
11DE
330
6F
100
AcDbEntity
  8
0
 62
     0
100
AcDbLine
 10
-0.0621927997356124
 20
84.95493262550018
 30
0.0
 11
13.93864720026437
 21
84.95493262550018
 31
0.0
  0
LINE
  5
11DF
330
6F
100
AcDbEntity
  8
0
 62
     0
100
AcDbLine
 10
13.93864720026437
 20
84.95493262550018
 30
0.0
 11
13.93864720026437
 21
70.95573262550022
 31
0.0
  0
LINE
  5
11E0
330
6F
100
AcDbEntity
  8
0
 62
     0
100
AcDbLine
 10
13.93864720026437
 20
70.95573262550022
 30
0.0
 11
-0.0621927997356124
 21
70.95573262550022
 31
0.0
  0
LINE
  5
11E1
330
6F
100
AcDbEntity
  8
0
 62
     0
100
AcDbLine
 10
-0.0621927997356124
 20
70.95573262550022
 30
0.0
 11
-0.0621927997356124
 21
84.95493262550018
 31
0.0
  0
LINE
  5
11E2
330
6F
100
AcDbEntity
  8
0
 62
     0
100
AcDbLine
 10
252.3516472002644
 20
104.0049326255002
 30
0.0
 11
252.3516472002644
 21
99.30593262550019
 31
0.0
  0
LINE
  5
11E3
330
6F
100
AcDbEntity
  8
0
 62
     0
100
AcDbLine
 10
252.3516472002644
 20
99.30593262550019
 30
0.0
 11
250.8256472002644
 21
99.30593262550019
 31
0.0
  0
LINE
  5
11E4
330
6F
100
AcDbEntity
  8
0
 62
     0
100
AcDbLine
 10
250.8256472002644
 20
99.30593262550019
 30
0.0
 11
250.8256472002644
 21
102.5360326255002
 31
0.0
  0
LINE
  5
11E5
330
6F
100
AcDbEntity
  8
0
 62
     0
100
AcDbLine
 10
250.8256472002644
 20
102.5360326255002
 30
0.0
 11
244.0766472002644
 21
102.5360326255002
 31
0.0
  0
LINE
  5
11E6
330
6F
100
AcDbEntity
  8
0
 62
     0
100
AcDbLine
 10
244.0766472002644
 20
102.5360326255002
 30
0.0
 11
244.0766472002644
 21
99.30593262550019
 31
0.0
  0
LINE
  5
11E7
330
6F
100
AcDbEntity
  8
0
 62
     0
100
AcDbLine
 10
244.0766472002644
 20
99.30593262550019
 30
0.0
 11
243.2516472002644
 21
99.30593262550019
 31
0.0
  0
LINE
  5
11E8
330
6F
100
AcDbEntity
  8
0
 62
     0
100
AcDbLine
 10
243.2516472002644
 20
99.30593262550019
 30
0.0
 11
243.2516472002644
 21
96.50593262550025
 31
0.0
  0
LINE
  5
11E9
330
6F
100
AcDbEntity
  8
0
 62
     0
100
AcDbLine
 10
243.2516472002644
 20
96.50593262550025
 30
0.0
 11
244.0766472002644
 21
96.50593262550025
 31
0.0
  0
LINE
  5
11EA
330
6F
100
AcDbEntity
  8
0
 62
     0
100
AcDbLine
 10
244.0766472002644
 20
96.50593262550025
 30
0.0
 11
244.0766472002644
 21
90.23573262550019
 31
0.0
  0
LINE
  5
11EB
330
6F
100
AcDbEntity
  8
0
 62
     0
100
AcDbLine
 10
244.0766472002644
 20
90.23573262550019
 30
0.0
 11
245.8006472002643
 21
90.23573262550019
 31
0.0
  0
LINE
  5
11EC
330
6F
100
AcDbEntity
  8
0
 62
     0
100
AcDbLine
 10
245.8006472002643
 20
90.23573262550019
 30
0.0
 11
245.8006472002643
 21
89.03553262550019
 31
0.0
  0
LINE
  5
11ED
330
6F
100
AcDbEntity
  8
0
 62
     0
100
AcDbLine
 10
245.8006472002643
 20
89.03553262550019
 30
0.0
 11
249.1006472002644
 21
89.03553262550019
 31
0.0
  0
LINE
  5
11EE
330
6F
100
AcDbEntity
  8
0
 62
     0
100
AcDbLine
 10
249.1006472002644
 20
89.03553262550019
 30
0.0
 11
249.1006472002644
 21
90.23573262550019
 31
0.0
  0
LINE
  5
11EF
330
6F
100
AcDbEntity
  8
0
 62
     0
100
AcDbLine
 10
249.1006472002644
 20
90.23573262550019
 30
0.0
 11
250.8256472002644
 21
90.23573262550019
 31
0.0
  0
LINE
  5
11F0
330
6F
100
AcDbEntity
  8
0
 62
     0
100
AcDbLine
 10
250.8256472002644
 20
90.23573262550019
 30
0.0
 11
250.8256472002644
 21
94.70613262550022
 31
0.0
  0
LINE
  5
11F1
330
6F
100
AcDbEntity
  8
0
 62
     0
100
AcDbLine
 10
250.8256472002644
 20
94.70613262550022
 30
0.0
 11
252.3516472002644
 21
94.70613262550022
 31
0.0
  0
LINE
  5
11F2
330
6F
100
AcDbEntity
  8
0
 62
     0
100
AcDbLine
 10
252.3516472002644
 20
94.70613262550022
 30
0.0
 11
252.3516472002644
 21
90.00573262550018
 31
0.0
  0
LINE
  5
11F3
330
6F
100
AcDbEntity
  8
0
 62
     0
100
AcDbLine
 10
252.3516472002644
 20
90.00573262550018
 30
0.0
 11
266.3506472002644
 21
90.00573262550018
 31
0.0
  0
LINE
  5
11F4
330
6F
100
AcDbEntity
  8
0
 62
     0
100
AcDbLine
 10
266.3506472002644
 20
90.00573262550018
 30
0.0
 11
266.3506472002644
 21
94.70613262550022
 31
0.0
  0
LINE
  5
11F5
330
6F
100
AcDbEntity
  8
0
 62
     0
100
AcDbLine
 10
266.3506472002644
 20
94.70613262550022
 30
0.0
 11
267.8766472002644
 21
94.70613262550022
 31
0.0
  0
LINE
  5
11F6
330
6F
100
AcDbEntity
  8
0
 62
     0
100
AcDbLine
 10
267.8766472002644
 20
94.70613262550022
 30
0.0
 11
267.8766472002644
 21
90.23573262550019
 31
0.0
  0
LINE
  5
11F7
330
6F
100
AcDbEntity
  8
0
 62
     0
100
AcDbLine
 10
267.8766472002644
 20
90.23573262550019
 30
0.0
 11
269.6006472002644
 21
90.23573262550019
 31
0.0
  0
LINE
  5
11F8
330
6F
100
AcDbEntity
  8
0
 62
     0
100
AcDbLine
 10
269.6006472002644
 20
90.23573262550019
 30
0.0
 11
269.6006472002644
 21
89.03553262550019
 31
0.0
  0
LINE
  5
11F9
330
6F
100
AcDbEntity
  8
0
 62
     0
100
AcDbLine
 10
269.6006472002644
 20
89.03553262550019
 30
0.0
 11
272.9006472002645
 21
89.03553262550019
 31
0.0
  0
LINE
  5
11FA
330
6F
100
AcDbEntity
  8
0
 62
     0
100
AcDbLine
 10
272.9006472002645
 20
89.03553262550019
 30
0.0
 11
272.9006472002645
 21
90.23573262550019
 31
0.0
  0
LINE
  5
11FB
330
6F
100
AcDbEntity
  8
0
 62
     0
100
AcDbLine
 10
272.9006472002645
 20
90.23573262550019
 30
0.0
 11
274.6266472002643
 21
90.23573262550019
 31
0.0
  0
LINE
  5
11FC
330
6F
100
AcDbEntity
  8
0
 62
     0
100
AcDbLine
 10
274.6266472002643
 20
90.23573262550019
 30
0.0
 11
274.6266472002643
 21
96.50593262550025
 31
0.0
  0
LINE
  5
11FD
330
6F
100
AcDbEntity
  8
0
 62
     0
100
AcDbLine
 10
274.6266472002643
 20
96.50593262550025
 30
0.0
 11
275.4516472002644
 21
96.50593262550025
 31
0.0
  0
LINE
  5
11FE
330
6F
100
AcDbEntity
  8
0
 62
     0
100
AcDbLine
 10
275.4516472002644
 20
96.50593262550025
 30
0.0
 11
275.4516472002644
 21
99.30593262550019
 31
0.0
  0
LINE
  5
11FF
330
6F
100
AcDbEntity
  8
0
 62
     0
100
AcDbLine
 10
275.4516472002644
 20
99.30593262550019
 30
0.0
 11
274.6266472002643
 21
99.30593262550019
 31
0.0
  0
LINE
  5
1200
330
6F
100
AcDbEntity
  8
0
 62
     0
100
AcDbLine
 10
274.6266472002643
 20
99.30593262550019
 30
0.0
 11
274.6266472002643
 21
102.5360326255002
 31
0.0
  0
LINE
  5
1201
330
6F
100
AcDbEntity
  8
0
 62
     0
100
AcDbLine
 10
274.6266472002643
 20
102.5360326255002
 30
0.0
 11
267.8766472002644
 21
102.5360326255002
 31
0.0
  0
LINE
  5
1202
330
6F
100
AcDbEntity
  8
0
 62
     0
100
AcDbLine
 10
267.8766472002644
 20
102.5360326255002
 30
0.0
 11
267.8766472002644
 21
99.30593262550019
 31
0.0
  0
LINE
  5
1203
330
6F
100
AcDbEntity
  8
0
 62
     0
100
AcDbLine
 10
267.8766472002644
 20
99.30593262550019
 30
0.0
 11
266.3506472002644
 21
99.30593262550019
 31
0.0
  0
LINE
  5
1204
330
6F
100
AcDbEntity
  8
0
 62
     0
100
AcDbLine
 10
266.3506472002644
 20
99.30593262550019
 30
0.0
 11
266.3506472002644
 21
104.0049326255002
 31
0.0
  0
LINE
  5
1205
330
6F
100
AcDbEntity
  8
0
 62
     0
100
AcDbLine
 10
266.3506472002644
 20
104.0049326255002
 30
0.0
 11
252.3516472002644
 21
104.0049326255002
 31
0.0
  0
LINE
  5
1206
330
6F
100
AcDbEntity
  8
0
 62
     0
100
AcDbLine
 10
304.7376472002645
 20
104.0049326255002
 30
0.0
 11
318.7386472002645
 21
104.0049326255002
 31
0.0
  0
LINE
  5
1207
330
6F
100
AcDbEntity
  8
0
 62
     0
100
AcDbLine
 10
318.7386472002645
 20
104.0049326255002
 30
0.0
 11
318.7386472002645
 21
90.00573262550018
 31
0.0
  0
LINE
  5
1208
330
6F
100
AcDbEntity
  8
0
 62
     0
100
AcDbLine
 10
321.8386472002643
 20
107.1049326255002
 30
0.0
 11
321.8386472002643
 21
73.70559262550017
 31
0.0
  0
LINE
  5
1209
330
6F
100
AcDbEntity
  8
0
 62
     0
100
AcDbLine
 10
225.8386472002644
 20
109.1049326255002
 30
0.0
 11
225.8386472002644
 21
107.1049326255002
 31
0.0
  0
LINE
  5
120A
330
6F
100
AcDbEntity
  8
0
 62
     0
100
AcDbLine
 10
225.8386472002644
 20
10.70559262550024
 30
0.0
 11
225.8386472002644
 21
8.70559262550023
 31
0.0
  0
LINE
  5
120B
330
6F
100
AcDbEntity
  8
0
 62
     0
100
AcDbLine
 10
195.8386472002643
 20
109.1049326255001
 30
0.0
 11
195.8386472002643
 21
107.1049326255002
 31
0.0
  0
LINE
  5
120C
330
6F
100
AcDbEntity
  8
0
 62
     0
100
AcDbLine
 10
195.8386472002643
 20
10.70559262550023
 30
0.0
 11
195.8386472002643
 21
8.705592625500244
 31
0.0
  0
LINE
  5
120D
330
6F
100
AcDbEntity
  8
0
 62
     0
100
AcDbLine
 10
321.8386472002643
 20
43.70559262550023
 30
0.0
 11
321.8386472002643
 21
10.70559262550023
 31
0.0
  0
LINE
  5
120E
330
6F
100
AcDbEntity
  8
0
 62
     0
100
AcDbLine
 10
325.8386472002643
 20
71.70559262550026
 30
0.0
 11
325.8386472002643
 21
45.70559262550021
 31
0.0
  0
LINE
  5
120F
330
6F
100
AcDbEntity
  8
0
 62
     0
100
AcDbLine
 10
325.8386472002643
 20
71.70559262550026
 30
0.0
 11
325.8386472002643
 21
45.70559262550021
 31
0.0
  0
LINE
  5
1210
330
6F
100
AcDbEntity
  8
0
 62
     0
100
AcDbLine
 10
286.8386472002644
 20
109.1049326255001
 30
0.0
 11
286.8386472002644
 21
107.1049326255002
 31
0.0
  0
LINE
  5
1211
330
6F
100
AcDbEntity
  8
0
 62
     0
100
AcDbLine
 10
286.8386472002645
 20
10.70559262550023
 30
0.0
 11
286.8386472002644
 21
8.70559262550023
 31
0.0
  0
LINE
  5
1212
330
6F
100
AcDbEntity
  8
0
 62
     0
100
AcDbLine
 10
256.8386472002643
 20
109.1049326255001
 30
0.0
 11
256.8386472002643
 21
107.1049326255002
 31
0.0
  0
LINE
  5
1213
330
6F
100
AcDbEntity
  8
0
 62
     0
100
AcDbLine
 10
256.8386472002643
 20
10.70559262550023
 30
0.0
 11
256.8386472002643
 21
8.705592625500244
 31
0.0
  0
LINE
  5
1214
330
6F
100
AcDbEntity
  8
0
 62
     0
100
AcDbLine
 10
318.7386472002645
 20
90.00573262550018
 30
0.0
 11
304.7376472002645
 21
90.00573262550018
 31
0.0
  0
LINE
  5
1215
330
6F
100
AcDbEntity
  8
0
 62
     0
100
AcDbLine
 10
304.7376472002645
 20
90.00573262550018
 30
0.0
 11
304.7376472002645
 21
104.0049326255002
 31
0.0
  0
LINE
  5
1216
330
6F
100
AcDbEntity
  8
0
 62
     0
100
AcDbLine
 10
285.6876472002644
 20
104.0049326255002
 30
0.0
 11
299.6886472002644
 21
104.0049326255002
 31
0.0
  0
LINE
  5
1217
330
6F
100
AcDbEntity
  8
0
 62
     0
100
AcDbLine
 10
299.6886472002644
 20
104.0049326255002
 30
0.0
 11
299.6886472002644
 21
90.00573262550018
 31
0.0
  0
LINE
  5
1218
330
6F
100
AcDbEntity
  8
0
 62
     0
100
AcDbLine
 10
299.6886472002644
 20
90.00573262550018
 30
0.0
 11
285.6876472002644
 21
90.00573262550018
 31
0.0
  0
LINE
  5
1219
330
6F
100
AcDbEntity
  8
0
 62
     0
100
AcDbLine
 10
285.6876472002644
 20
90.00573262550018
 30
0.0
 11
285.6876472002644
 21
104.0049326255002
 31
0.0
  0
LINE
  5
121A
330
6F
100
AcDbEntity
  8
0
 62
     0
100
AcDbLine
 10
223.7766472002643
 20
104.0049326255002
 30
0.0
 11
237.7756472002644
 21
104.0049326255002
 31
0.0
  0
LINE
  5
121B
330
6F
100
AcDbEntity
  8
0
 62
     0
100
AcDbLine
 10
237.7756472002644
 20
104.0049326255002
 30
0.0
 11
237.7756472002644
 21
90.00573262550018
 31
0.0
  0
LINE
  5
121C
330
6F
100
AcDbEntity
  8
0
 62
     0
100
AcDbLine
 10
237.7756472002644
 20
90.00573262550018
 30
0.0
 11
223.7766472002643
 21
90.00573262550018
 31
0.0
  0
LINE
  5
121D
330
6F
100
AcDbEntity
  8
0
 62
     0
100
AcDbLine
 10
223.7766472002643
 20
90.00573262550018
 30
0.0
 11
223.7766472002643
 21
104.0049326255002
 31
0.0
  0
LINE
  5
121E
330
6F
100
AcDbEntity
  8
0
 62
     0
100
AcDbLine
 10
204.7266472002644
 20
104.0049326255002
 30
0.0
 11
218.7256472002644
 21
104.0049326255002
 31
0.0
  0
LINE
  5
121F
330
6F
100
AcDbEntity
  8
0
 62
     0
100
AcDbLine
 10
218.7256472002644
 20
104.0049326255002
 30
0.0
 11
218.7256472002644
 21
90.00573262550018
 31
0.0
  0
LINE
  5
1220
330
6F
100
AcDbEntity
  8
0
 62
     0
100
AcDbLine
 10
218.7256472002644
 20
90.00573262550018
 30
0.0
 11
204.7266472002644
 21
90.00573262550018
 31
0.0
  0
LINE
  5
1221
330
6F
100
AcDbEntity
  8
0
 62
     0
100
AcDbLine
 10
204.7266472002644
 20
90.00573262550018
 30
0.0
 11
204.7266472002644
 21
104.0049326255002
 31
0.0
  0
LINE
  5
1222
330
6F
100
AcDbEntity
  8
0
 62
     0
100
AcDbLine
 10
185.6766472002643
 20
104.0049326255002
 30
0.0
 11
199.6756472002643
 21
104.0049326255002
 31
0.0
  0
LINE
  5
1223
330
6F
100
AcDbEntity
  8
0
 62
     0
100
AcDbLine
 10
199.6756472002643
 20
104.0049326255002
 30
0.0
 11
199.6756472002643
 21
90.00573262550018
 31
0.0
  0
LINE
  5
1224
330
6F
100
AcDbEntity
  8
0
 62
     0
100
AcDbLine
 10
199.6756472002643
 20
90.00573262550018
 30
0.0
 11
185.6766472002643
 21
90.00573262550018
 31
0.0
  0
LINE
  5
1225
330
6F
100
AcDbEntity
  8
0
 62
     0
100
AcDbLine
 10
185.6766472002643
 20
90.00573262550018
 30
0.0
 11
185.6766472002643
 21
104.0049326255002
 31
0.0
  0
LINE
  5
1226
330
6F
100
AcDbEntity
  8
0
 62
     0
100
AcDbLine
 10
166.6266472002643
 20
104.0049326255002
 30
0.0
 11
180.6256472002644
 21
104.0049326255002
 31
0.0
  0
LINE
  5
1227
330
6F
100
AcDbEntity
  8
0
 62
     0
100
AcDbLine
 10
180.6256472002644
 20
104.0049326255002
 30
0.0
 11
180.6256472002644
 21
90.00573262550018
 31
0.0
  0
LINE
  5
1228
330
6F
100
AcDbEntity
  8
0
 62
     0
100
AcDbLine
 10
180.6256472002644
 20
90.00573262550018
 30
0.0
 11
166.6266472002643
 21
90.00573262550018
 31
0.0
  0
LINE
  5
1229
330
6F
100
AcDbEntity
  8
0
 62
     0
100
AcDbLine
 10
166.6266472002643
 20
90.00573262550018
 30
0.0
 11
166.6266472002643
 21
104.0049326255002
 31
0.0
  0
LINE
  5
122A
330
6F
100
AcDbEntity
  8
0
 62
     0
100
AcDbLine
 10
147.5766472002644
 20
104.0049326255002
 30
0.0
 11
161.5756472002644
 21
104.0049326255002
 31
0.0
  0
LINE
  5
122B
330
6F
100
AcDbEntity
  8
0
 62
     0
100
AcDbLine
 10
161.5756472002644
 20
104.0049326255002
 30
0.0
 11
161.5756472002644
 21
90.00573262550018
 31
0.0
  0
LINE
  5
122C
330
6F
100
AcDbEntity
  8
0
 62
     0
100
AcDbLine
 10
161.5756472002644
 20
90.00573262550018
 30
0.0
 11
147.5766472002644
 21
90.00573262550018
 31
0.0
  0
LINE
  5
122D
330
6F
100
AcDbEntity
  8
0
 62
     0
100
AcDbLine
 10
147.5766472002644
 20
90.00573262550018
 30
0.0
 11
147.5766472002644
 21
104.0049326255002
 31
0.0
  0
LINE
  5
122E
330
6F
100
AcDbEntity
  8
0
 62
     0
100
AcDbLine
 10
128.5266472002644
 20
104.0049326255002
 30
0.0
 11
142.5256472002643
 21
104.0049326255002
 31
0.0
  0
LINE
  5
122F
330
6F
100
AcDbEntity
  8
0
 62
     0
100
AcDbLine
 10
142.5256472002643
 20
104.0049326255002
 30
0.0
 11
142.5256472002643
 21
90.00573262550018
 31
0.0
  0
LINE
  5
1230
330
6F
100
AcDbEntity
  8
0
 62
     0
100
AcDbLine
 10
142.5256472002643
 20
90.00573262550018
 30
0.0
 11
128.5266472002644
 21
90.00573262550018
 31
0.0
  0
LINE
  5
1231
330
6F
100
AcDbEntity
  8
0
 62
     0
100
AcDbLine
 10
128.5266472002644
 20
90.00573262550018
 30
0.0
 11
128.5266472002644
 21
104.0049326255002
 31
0.0
  0
LINE
  5
1232
330
6F
100
AcDbEntity
  8
0
 62
     0
100
AcDbLine
 10
109.4756472002644
 20
104.0049326255002
 30
0.0
 11
123.4756472002644
 21
104.0049326255002
 31
0.0
  0
LINE
  5
1233
330
6F
100
AcDbEntity
  8
0
 62
     0
100
AcDbLine
 10
123.4756472002644
 20
104.0049326255002
 30
0.0
 11
123.4756472002644
 21
90.00573262550018
 31
0.0
  0
LINE
  5
1234
330
6F
100
AcDbEntity
  8
0
 62
     0
100
AcDbLine
 10
123.4756472002644
 20
90.00573262550018
 30
0.0
 11
109.4756472002644
 21
90.00573262550018
 31
0.0
  0
LINE
  5
1235
330
6F
100
AcDbEntity
  8
0
 62
     0
100
AcDbLine
 10
109.4756472002644
 20
90.00573262550018
 30
0.0
 11
109.4756472002644
 21
104.0049326255002
 31
0.0
  0
LINE
  5
1236
330
6F
100
AcDbEntity
  8
0
 62
     0
100
AcDbLine
 10
90.42534720026441
 20
104.0049326255002
 30
0.0
 11
104.4246472002643
 21
104.0049326255002
 31
0.0
  0
LINE
  5
1237
330
6F
100
AcDbEntity
  8
0
 62
     0
100
AcDbLine
 10
104.4246472002643
 20
104.0049326255002
 30
0.0
 11
104.4246472002643
 21
90.00573262550018
 31
0.0
  0
LINE
  5
1238
330
6F
100
AcDbEntity
  8
0
 62
     0
100
AcDbLine
 10
104.4246472002643
 20
90.00573262550018
 30
0.0
 11
90.42534720026441
 21
90.00573262550018
 31
0.0
  0
LINE
  5
1239
330
6F
100
AcDbEntity
  8
0
 62
     0
100
AcDbLine
 10
90.42534720026441
 20
90.00573262550018
 30
0.0
 11
90.42534720026441
 21
104.0049326255002
 31
0.0
  0
LINE
  5
123A
330
6F
100
AcDbEntity
  8
0
 62
     0
100
AcDbLine
 10
71.37674720026438
 20
104.0049326255002
 30
0.0
 11
85.3760472002644
 21
104.0049326255002
 31
0.0
  0
LINE
  5
123B
330
6F
100
AcDbEntity
  8
0
 62
     0
100
AcDbLine
 10
85.3760472002644
 20
104.0049326255002
 30
0.0
 11
85.3760472002644
 21
90.00573262550018
 31
0.0
  0
LINE
  5
123C
330
6F
100
AcDbEntity
  8
0
 62
     0
100
AcDbLine
 10
85.3760472002644
 20
90.00573262550018
 30
0.0
 11
71.37674720026438
 21
90.00573262550018
 31
0.0
  0
LINE
  5
123D
330
6F
100
AcDbEntity
  8
0
 62
     0
100
AcDbLine
 10
71.37674720026438
 20
90.00573262550018
 30
0.0
 11
71.37674720026438
 21
104.0049326255002
 31
0.0
  0
LINE
  5
123E
330
6F
100
AcDbEntity
  8
0
 62
     0
100
AcDbLine
 10
52.32674720026437
 20
104.0049326255002
 30
0.0
 11
66.32604720026439
 21
104.0049326255002
 31
0.0
  0
LINE
  5
123F
330
6F
100
AcDbEntity
  8
0
 62
     0
100
AcDbLine
 10
66.32604720026439
 20
104.0049326255002
 30
0.0
 11
66.32604720026439
 21
90.00573262550018
 31
0.0
  0
LINE
  5
1240
330
6F
100
AcDbEntity
  8
0
 62
     0
100
AcDbLine
 10
66.32604720026439
 20
90.00573262550018
 30
0.0
 11
52.32674720026437
 21
90.00573262550018
 31
0.0
  0
LINE
  5
1241
330
6F
100
AcDbEntity
  8
0
 62
     0
100
AcDbLine
 10
52.32674720026437
 20
90.00573262550018
 30
0.0
 11
52.32674720026437
 21
104.0049326255002
 31
0.0
  0
LINE
  5
1242
330
6F
100
AcDbEntity
  8
0
 62
     0
100
AcDbLine
 10
33.27674720026437
 20
104.0049326255002
 30
0.0
 11
47.27604720026437
 21
104.0049326255002
 31
0.0
  0
LINE
  5
1243
330
6F
100
AcDbEntity
  8
0
 62
     0
100
AcDbLine
 10
47.27604720026437
 20
104.0049326255002
 30
0.0
 11
47.27604720026437
 21
90.00573262550018
 31
0.0
  0
LINE
  5
1244
330
6F
100
AcDbEntity
  8
0
 62
     0
100
AcDbLine
 10
47.27604720026437
 20
90.00573262550018
 30
0.0
 11
33.27674720026437
 21
90.00573262550018
 31
0.0
  0
LINE
  5
1245
330
6F
100
AcDbEntity
  8
0
 62
     0
100
AcDbLine
 10
33.27674720026437
 20
90.00573262550018
 30
0.0
 11
33.27674720026437
 21
104.0049326255002
 31
0.0
  0
LINE
  5
1246
330
6F
100
AcDbEntity
  8
0
 62
     0
100
AcDbLine
 10
14.22664720026438
 20
104.0049326255002
 30
0.0
 11
28.22604720026442
 21
104.0049326255002
 31
0.0
  0
LINE
  5
1247
330
6F
100
AcDbEntity
  8
0
 62
     0
100
AcDbLine
 10
28.22604720026442
 20
104.0049326255002
 30
0.0
 11
28.22604720026442
 21
90.00573262550018
 31
0.0
  0
LINE
  5
1248
330
6F
100
AcDbEntity
  8
0
 62
     0
100
AcDbLine
 10
28.22604720026442
 20
90.00573262550018
 30
0.0
 11
14.22664720026438
 21
90.00573262550018
 31
0.0
  0
LINE
  5
1249
330
6F
100
AcDbEntity
  8
0
 62
     0
100
AcDbLine
 10
14.22664720026438
 20
90.00573262550018
 30
0.0
 11
14.22664720026438
 21
104.0049326255002
 31
0.0
  0
LINE
  5
124A
330
6F
100
AcDbEntity
  8
0
 62
     0
100
AcDbLine
 10
-4.823322799735592
 20
104.0049326255002
 30
0.0
 11
9.176147200264381
 21
104.0049326255002
 31
0.0
  0
LINE
  5
124B
330
6F
100
AcDbEntity
  8
0
 62
     0
100
AcDbLine
 10
-7.923322799735615
 20
107.1049326255002
 30
0.0
 11
27.07667720026439
 21
107.1049326255002
 31
0.0
  0
LINE
  5
124C
330
6F
100
AcDbEntity
  8
0
 62
     0
100
AcDbLine
 10
-9.923322799735615
 20
44.10493262550019
 30
0.0
 11
-7.923322799735615
 21
44.10493262550017
 31
0.0
  0
LINE
  5
124D
330
6F
100
AcDbEntity
  8
0
 62
     0
100
AcDbLine
 10
-9.923322799735601
 20
74.10493262550017
 30
0.0
 11
-7.923322799735615
 21
74.10493262550017
 31
0.0
  0
LINE
  5
124E
330
6F
100
AcDbEntity
  8
0
 62
     0
100
AcDbLine
 10
57.07667720026439
 20
107.1049326255002
 30
0.0
 11
88.07667720026438
 21
107.1049326255002
 31
0.0
  0
LINE
  5
124F
330
6F
100
AcDbEntity
  8
0
 62
     0
100
AcDbLine
 10
118.0766772002644
 20
107.1049326255001
 30
0.0
 11
195.8386472002643
 21
107.1049326255002
 31
0.0
  0
LINE
  5
1250
330
6F
100
AcDbEntity
  8
0
 62
     0
100
AcDbLine
 10
90.07667720026438
 20
111.1049326255001
 30
0.0
 11
116.0766772002643
 21
111.1049326255001
 31
0.0
  0
LINE
  5
1251
330
6F
100
AcDbEntity
  8
0
 62
     0
100
AcDbLine
 10
225.8386472002644
 20
107.1049326255002
 30
0.0
 11
256.8386472002643
 21
107.1049326255002
 31
0.0
  0
LINE
  5
1252
330
6F
100
AcDbEntity
  8
0
 62
     0
100
AcDbLine
 10
258.8386472002643
 20
111.1049326255002
 30
0.0
 11
284.8386472002644
 21
111.1049326255001
 31
0.0
  0
LINE
  5
1253
330
6F
100
AcDbEntity
  8
0
 62
     0
100
AcDbLine
 10
197.8386472002643
 20
111.1049326255001
 30
0.0
 11
223.8386472002643
 21
111.1049326255001
 31
0.0
  0
LINE
  5
1254
330
6F
100
AcDbEntity
  8
0
 62
     0
100
AcDbLine
 10
286.8386472002644
 20
107.1049326255002
 30
0.0
 11
321.8386472002643
 21
107.1049326255002
 31
0.0
  0
LINE
  5
1255
330
6F
100
AcDbEntity
  8
0
 62
     0
100
AcDbLine
 10
29.07667720026438
 20
111.1049326255001
 30
0.0
 11
55.07667720026439
 21
111.1049326255001
 31
0.0
  0
LINE
  5
1256
330
6F
100
AcDbEntity
  8
0
 62
     0
100
AcDbLine
 10
9.176147200264381
 20
104.0049326255002
 30
0.0
 11
9.176147200264381
 21
90.00573262550018
 31
0.0
  0
LINE
  5
1257
330
6F
100
AcDbEntity
  8
0
 62
     0
100
AcDbLine
 10
9.176147200264381
 20
90.00573262550018
 30
0.0
 11
-4.823322799735592
 21
90.00573262550018
 31
0.0
  0
LINE
  5
1258
330
6F
100
AcDbEntity
  8
0
 62
     0
100
AcDbLine
 10
-4.823322799735592
 20
90.00573262550018
 30
0.0
 11
-4.823322799735592
 21
104.0049326255002
 31
0.0
  0
LINE
  5
1259
330
6F
100
AcDbEntity
  8
0
 62
     0
100
AcDbLine
 10
-7.923322799735615
 20
10.70559262550023
 30
0.0
 11
-7.923322799735615
 21
44.10493262550017
 31
0.0
  0
LINE
  5
125A
330
6F
100
AcDbEntity
  8
0
 62
     0
100
AcDbLine
 10
-7.923322799735615
 20
74.10493262550017
 30
0.0
 11
-7.923322799735629
 21
107.1049326255002
 31
0.0
  0
LINE
  5
125B
330
6F
100
AcDbEntity
  8
0
 62
     0
100
AcDbLine
 10
88.07667720026438
 20
8.705592625500244
 30
0.0
 11
88.07667720026438
 21
10.70559262550023
 31
0.0
  0
LINE
  5
125C
330
6F
100
AcDbEntity
  8
0
 62
     0
100
AcDbLine
 10
88.07667720026438
 20
107.1049326255002
 30
0.0
 11
88.07667720026438
 21
109.1049326255001
 31
0.0
  0
LINE
  5
125D
330
6F
100
AcDbEntity
  8
0
 62
     0
100
AcDbLine
 10
118.0766772002644
 20
8.70559262550023
 30
0.0
 11
118.0766772002644
 21
10.70559262550023
 31
0.0
  0
LINE
  5
125E
330
6F
100
AcDbEntity
  8
0
 62
     0
100
AcDbLine
 10
118.0766772002644
 20
107.1049326255002
 30
0.0
 11
118.0766772002644
 21
109.1049326255001
 31
0.0
  0
LINE
  5
125F
330
6F
100
AcDbEntity
  8
0
 62
     0
100
AcDbLine
 10
-11.92332279973561
 20
46.10493262550017
 30
0.0
 11
-11.92332279973561
 21
72.10493262550016
 31
0.0
  0
LINE
  5
1260
330
6F
100
AcDbEntity
  8
0
 62
     0
100
AcDbLine
 10
57.07667720026439
 20
8.70559262550023
 30
0.0
 11
57.07667720026439
 21
10.70559262550023
 31
0.0
  0
LINE
  5
1261
330
6F
100
AcDbEntity
  8
0
 62
     0
100
AcDbLine
 10
57.07667720026439
 20
107.1049326255002
 30
0.0
 11
57.07667720026439
 21
109.1049326255001
 31
0.0
  0
LINE
  5
1262
330
6F
100
AcDbEntity
  8
0
 62
     0
100
AcDbLine
 10
27.07667720026437
 20
8.705592625500244
 30
0.0
 11
27.07667720026439
 21
10.70559262550023
 31
0.0
  0
LINE
  5
1263
330
6F
100
AcDbEntity
  8
0
 62
     0
100
AcDbLine
 10
27.07667720026439
 20
107.1049326255002
 30
0.0
 11
27.07667720026439
 21
109.1049326255001
 31
0.0
  0
ARC
  5
1264
330
6F
100
AcDbEntity
  8
0
  6
Continuous
100
AcDbCircle
 10
90.07667720026438
 20
109.1049326255001
 30
0.0
 40
2.0
100
AcDbArc
 50
90.0
 51
180.0
  0
ARC
  5
1265
330
6F
100
AcDbEntity
  8
0
  6
Continuous
100
AcDbCircle
 10
116.0766772002643
 20
109.1049326255001
 30
0.0
 40
2.0
100
AcDbArc
 50
359.9999999999984
 51
90.0
  0
ARC
  5
1266
330
6F
100
AcDbEntity
  8
0
  6
Continuous
100
AcDbCircle
 10
197.8386472002643
 20
109.1049326255001
 30
0.0
 40
2.0
100
AcDbArc
 50
90.0
 51
180.0
  0
ARC
  5
1267
330
6F
100
AcDbEntity
  8
0
  6
Continuous
100
AcDbCircle
 10
223.8386472002643
 20
109.1049326255001
 30
0.0
 40
2.0
100
AcDbArc
 50
0.0
 51
89.9999999999992
  0
ARC
  5
1268
330
6F
100
AcDbEntity
  8
0
  6
Continuous
100
AcDbCircle
 10
90.07667720026438
 20
8.70559262550023
 30
0.0
 40
2.0
100
AcDbArc
 50
179.9999999999992
 51
270.0
  0
ARC
  5
1269
330
6F
100
AcDbEntity
  8
0
  6
Continuous
100
AcDbCircle
 10
116.0766772002643
 20
8.70559262550023
 30
0.0
 40
2.0
100
AcDbArc
 50
270.0
 51
0.0
  0
ARC
  5
126A
330
6F
100
AcDbEntity
  8
0
  6
Continuous
100
AcDbCircle
 10
197.8386472002643
 20
8.70559262550023
 30
0.0
 40
2.0
100
AcDbArc
 50
180.0
 51
270.0
  0
ARC
  5
126B
330
6F
100
AcDbEntity
  8
0
  6
Continuous
100
AcDbCircle
 10
223.8386472002643
 20
8.70559262550023
 30
0.0
 40
2.0
100
AcDbArc
 50
270.0
 51
0.0
  0
ARC
  5
126C
330
6F
100
AcDbEntity
  8
0
  6
Continuous
100
AcDbCircle
 10
258.8386472002643
 20
109.1049326255001
 30
0.0
 40
2.0
100
AcDbArc
 50
90.0
 51
180.0
  0
ARC
  5
126D
330
6F
100
AcDbEntity
  8
0
  6
Continuous
100
AcDbCircle
 10
284.8386472002644
 20
109.1049326255001
 30
0.0
 40
2.0
100
AcDbArc
 50
0.0
 51
90.0
  0
ARC
  5
126E
330
6F
100
AcDbEntity
  8
0
  6
Continuous
100
AcDbCircle
 10
29.07667720026438
 20
109.1049326255001
 30
0.0
 40
2.0
100
AcDbArc
 50
90.0
 51
180.0
  0
ARC
  5
126F
330
6F
100
AcDbEntity
  8
0
  6
Continuous
100
AcDbCircle
 10
55.07667720026439
 20
109.1049326255001
 30
0.0
 40
2.0
100
AcDbArc
 50
0.0
 51
90.0
  0
ARC
  5
1270
330
6F
100
AcDbEntity
  8
0
  6
Continuous
100
AcDbCircle
 10
-9.923322799735615
 20
46.10493262550017
 30
0.0
 40
2.0
100
AcDbArc
 50
179.9999999999992
 51
269.9999999999992
  0
ARC
  5
1271
330
6F
100
AcDbEntity
  8
0
  6
Continuous
100
AcDbCircle
 10
-9.923322799735615
 20
72.10493262550016
 30
0.0
 40
2.0
100
AcDbArc
 50
90.0
 51
180.0
  0
ARC
  5
1272
330
6F
100
AcDbEntity
  8
0
  6
Continuous
100
AcDbCircle
 10
323.8386472002643
 20
45.70559262550022
 30
0.0
 40
2.0
100
AcDbArc
 50
270.0
 51
359.9999999999992
  0
ARC
  5
1273
330
6F
100
AcDbEntity
  8
0
  6
Continuous
100
AcDbCircle
 10
323.8386472002643
 20
71.70559262550023
 30
0.0
 40
2.0
100
AcDbArc
 50
0.0
 51
90.0
  0
ARC
  5
1274
330
6F
100
AcDbEntity
  8
0
  6
Continuous
100
AcDbCircle
 10
29.07667720026438
 20
8.70559262550023
 30
0.0
 40
2.0
100
AcDbArc
 50
179.9999999999992
 51
270.0
  0
ARC
  5
1275
330
6F
100
AcDbEntity
  8
0
  6
Continuous
100
AcDbCircle
 10
55.07667720026439
 20
8.70559262550023
 30
0.0
 40
2.0
100
AcDbArc
 50
270.0
 51
0.0
  0
ARC
  5
1276
330
6F
100
AcDbEntity
  8
0
  6
Continuous
100
AcDbCircle
 10
284.8386472002644
 20
8.70559262550023
 30
0.0
 40
2.0
100
AcDbArc
 50
270.0
 51
0.0
  0
ARC
  5
1277
330
6F
100
AcDbEntity
  8
0
  6
Continuous
100
AcDbCircle
 10
258.8386472002643
 20
8.70559262550023
 30
0.0
 40
2.0
100
AcDbArc
 50
180.0
 51
270.0
  0
ENDSEC
  0
SECTION
  2
OBJECTS
  0
DICTIONARY
  5
C
330
0
100
AcDbDictionary
281
     1
  3
ACAD_CIP_PREVIOUS_PRODUCT_INFO
350
27A
  3
ACAD_COLOR
350
62
  3
ACAD_DETAILVIEWSTYLE
350
69
  3
ACAD_GROUP
350
D
  3
ACAD_LAYOUT
350
61
  3
ACAD_MATERIAL
350
10
  3
ACAD_MLEADERSTYLE
350
65
  3
ACAD_MLINESTYLE
350
5E
  3
ACAD_PLOTSETTINGS
350
60
  3
ACAD_PLOTSTYLENAME
350
E
  3
ACAD_SCALELIST
350
42
  3
ACAD_SECTIONVIEWSTYLE
350
67
  3
ACAD_TABLESTYLE
350
63
  3
ACAD_VISUALSTYLE
350
29
  3
ACDB_RECOMPOSE_DATA
350
128B
  3
AcDbVariableDictionary
350
31A
  0
DICTIONARY
  5
298
330
2
100
AcDbDictionary
280
     1
281
     1
  3
ACAD_LAYERSTATES
360
299
  0
DICTIONARY
  5
3E0
330
54
100
AcDbDictionary
280
     1
281
     1
  3
ADSK_XREC_LAYER_RECONCILED
360
3E1
  0
DICTIONARY
  5
3E2
330
300
100
AcDbDictionary
280
     1
281
     1
  3
ADSK_XREC_LAYER_RECONCILED
360
3E3
  0
DICTIONARY
  5
3E4
330
301
100
AcDbDictionary
280
     1
281
     1
  3
ADSK_XREC_LAYER_RECONCILED
360
3E5
  0
DICTIONARY
  5
3E6
330
324
100
AcDbDictionary
280
     1
281
     1
  3
ADSK_XREC_LAYER_RECONCILED
360
3E7
  0
DICTIONARY
  5
3DC
330
6F
100
AcDbDictionary
280
     1
281
     1
  3
ACAD_SORTENTS
360
3DD
  0
XRECORD
  5
27A
102
{ACAD_REACTORS
330
C
102
}
330
C
100
AcDbXrecord
280
     1
300
ACDMAC
300
2022
300
ACDMAC_F_S
  0
DICTIONARY
  5
62
102
{ACAD_REACTORS
330
C
102
}
330
C
100
AcDbDictionary
281
     1
  0
DICTIONARY
  5
69
102
{ACAD_REACTORS
330
C
102
}
330
C
100
AcDbDictionary
281
     1
  3
Imperial24
350
6A
  0
DICTIONARY
  5
D
102
{ACAD_REACTORS
330
C
102
}
330
C
100
AcDbDictionary
281
     1
  0
DICTIONARY
  5
61
102
{ACAD_REACTORS
330
C
102
}
330
C
100
AcDbDictionary
281
     1
  3
Model
350
72
  3
布局1
350
6E
  0
DICTIONARY
  5
10
102
{ACAD_REACTORS
330
C
102
}
330
C
100
AcDbDictionary
281
     1
  3
ByBlock
350
19
  3
ByLayer
350
11
  3
Global
350
21
  0
DICTIONARY
  5
65
102
{ACAD_REACTORS
330
C
102
}
330
C
100
AcDbDictionary
281
     1
  3
Standard
350
66
  0
DICTIONARY
  5
5E
102
{ACAD_REACTORS
330
C
102
}
330
C
100
AcDbDictionary
281
     1
  3
Standard
350
5F
  0
DICTIONARY
  5
60
102
{ACAD_REACTORS
330
C
102
}
330
C
100
AcDbDictionary
281
     1
  0
ACDBDICTIONARYWDFLT
  5
E
102
{ACAD_REACTORS
330
C
102
}
330
C
100
AcDbDictionary
281
     1
  3
Normal
350
F
100
AcDbDictionaryWithDefault
340
F
  0
DICTIONARY
  5
42
102
{ACAD_REACTORS
330
C
102
}
330
C
100
AcDbDictionary
281
     1
  3
A0
350
43
  3
A1
350
44
  3
A2
350
45
  3
A3
350
46
  3
A4
350
47
  3
A5
350
48
  3
A6
350
49
  3
A7
350
4A
  3
A8
350
4B
  3
A9
350
4C
  3
B0
350
4D
  3
B1
350
4E
  3
B2
350
4F
  3
B3
350
50
  3
B4
350
51
  3
B5
350
52
  3
B6
350
53
  0
DICTIONARY
  5
67
102
{ACAD_REACTORS
330
C
102
}
330
C
100
AcDbDictionary
281
     1
  3
Imperial24
350
68
  0
DICTIONARY
  5
63
102
{ACAD_REACTORS
330
C
102
}
330
C
100
AcDbDictionary
281
     1
  3
Standard
350
64
  0
DICTIONARY
  5
29
102
{ACAD_REACTORS
330
C
102
}
330
C
100
AcDbDictionary
281
     1
  3
2dWireframe
350
2F
  3
Basic
350
2E
  3
Brighten
350
35
  3
ColorChange
350
39
  3
Conceptual
350
32
  3
Dim
350
34
  3
EdgeColorOff
350
41
  3
Facepattern
350
38
  3
Flat
350
2A
  3
FlatWithEdges
350
2B
  3
Gouraud
350
2C
  3
GouraudWithEdges
350
2D
  3
Hidden
350
31
  3
JitterOff
350
3F
  3
Linepattern
350
37
  3
OverhangOff
350
40
  3
Realistic
350
33
  3
Shaded
350
3E
  3
Shaded with edges
350
3D
  3
Shades of Gray
350
3A
  3
Sketchy
350
3B
  3
Thicken
350
36
  3
Wireframe
350
30
  3
X-Ray
350
3C
  0
XRECORD
  5
128B
102
{ACAD_REACTORS
330
C
102
}
330
C
100
AcDbXrecord
280
     1
 90
        1
330
64
  0
DICTIONARY
  5
31A
102
{ACAD_REACTORS
330
C
102
}
330
C
100
AcDbDictionary
281
     1
  3
CANNOSCALE
350
320
  3
CMLEADERSTYLE
350
31C
  3
CTABLESTYLE
350
31B
  3
CVIEWDETAILSTYLE
350
31D
  3
CVIEWSECTIONSTYLE
350
31E
  3
LAYEREVAL
350
322
  3
LAYERNOTIFY
350
323
  3
LIGHTINGUNITS
350
321
  3
MSLTSCALE
350
31F
  0
DICTIONARY
  5
299
102
{ACAD_REACTORS
330
298
102
}
330
298
100
AcDbDictionary
281
     1
  0
XRECORD
  5
3E1
102
{ACAD_REACTORS
330
3E0
102
}
330
3E0
100
AcDbXrecord
280
     1
290
     1
  0
XRECORD
  5
3E3
102
{ACAD_REACTORS
330
3E2
102
}
330
3E2
100
AcDbXrecord
280
     1
290
     1
  0
XRECORD
  5
3E5
102
{ACAD_REACTORS
330
3E4
102
}
330
3E4
100
AcDbXrecord
280
     1
290
     1
  0
XRECORD
  5
3E7
102
{ACAD_REACTORS
330
3E6
102
}
330
3E6
100
AcDbXrecord
280
     1
290
     1
  0
SORTENTSTABLE
  5
3DD
102
{ACAD_REACTORS
330
3DC
102
}
330
3DC
100
AcDbSortentsTable
330
6F
  0
ACDBDETAILVIEWSTYLE
  5
6A
102
{ACAD_REACTORS
330
69
102
}
330
69
100
AcDbModelDocViewStyle
 70
     0
  3
Imperial24
290
     0
300
Imperial24
 90
        0
100
AcDbDetailViewStyle
 70
     0
 71
     0
 90
        3
 71
     1
340
55
 62
   256
 40
0.24
340
0
 62
   256
 40
0.24
300

 40
0.36
280
     3
 71
     2
340
5C
 90
       25
 62
   256
 71
     3
340
55
 62
   256
 40
0.24
 90
        1
 40
0.75
 90
        1
300
%<\AcVar ViewType \f "%tc1">% %<\AcVar ViewDetailId>%\PSCALE %<\AcVar ViewScale \f "%sn">%
 71
     4
340
5C
 90
       25
 62
   256
340
5C
 90
       25
 62
   256
280
     0
  0
LAYOUT
  5
72
102
{ACAD_REACTORS
330
61
102
}
330
61
100
AcDbPlotSettings
  1

  2

  4

  6

 40
0.0
 41
0.0
 42
0.0
 43
0.0
 44
0.0
 45
0.0
 46
0.0
 47
0.0
 48
0.0
 49
0.0
140
0.0
141
0.0
142
1.0
143
1.0
 70
  1712
 72
     0
 73
     0
 74
     0
  7

 75
     0
147
1.0
 76
     0
 77
     2
 78
   300
148
0.0
149
0.0
100
AcDbLayout
  1
Model
 70
     1
 71
     0
 10
0.0
 20
0.0
 11
12.0
 21
9.0
 12
0.0
 22
0.0
 32
0.0
 14
0.0
 24
0.0
 34
0.0
 15
0.0
 25
0.0
 35
0.0
146
0.0
 13
0.0
 23
0.0
 33
0.0
 16
1.0
 26
0.0
 36
0.0
 17
0.0
 27
1.0
 37
0.0
 76
     0
330
6F
331
74
  0
LAYOUT
  5
6E
102
{ACAD_REACTORS
330
61
102
}
330
61
100
AcDbPlotSettings
  1

  2

  4

  6

 40
0.0
 41
0.0
 42
0.0
 43
0.0
 44
0.0
 45
0.0
 46
0.0
 47
0.0
 48
0.0
 49
0.0
140
0.0
141
0.0
142
1.0
143
1.0
 70
   688
 72
     0
 73
     0
 74
     5
  7

 75
    16
147
1.0
 76
     0
 77
     2
 78
   300
148
0.0
149
0.0
100
AcDbLayout
  1
布局1
 70
     1
 71
     1
 10
0.0
 20
0.0
 11
12.0
 21
9.0
 12
0.0
 22
0.0
 32
0.0
 14
1.000000000000000E+20
 24
1.000000000000000E+20
 34
1.000000000000000E+20
 15
-1.000000000000000E+20
 25
-1.000000000000000E+20
 35
-1.000000000000000E+20
146
0.0
 13
0.0
 23
0.0
 33
0.0
 16
1.0
 26
0.0
 36
0.0
 17
0.0
 27
1.0
 37
0.0
 76
     0
330
6B
  0
MATERIAL
  5
19
102
{ACAD_XDICTIONARY
360
1A
102
}
102
{ACAD_REACTORS
330
10
102
}
330
10
100
AcDbMaterial
  1
ByBlock
 72
     0
 43
0.0208333333333333
 43
0.0
 43
0.0
 43
0.0
 43
0.0
 43
0.0208333333333333
 43
0.0
 43
0.0
 43
0.0
 43
0.0
 43
1.0
 43
0.0
 43
0.0
 43
0.0
 43
0.0
 43
1.0
 77
     0
 47
0.0208333333333333
 47
0.0
 47
0.0
 47
0.0
 47
0.0
 47
0.0208333333333333
 47
0.0
 47
0.0
 47
0.0
 47
0.0
 47
1.0
 47
0.0
 47
0.0
 47
0.0
 47
0.0
 47
1.0
171
     0
 49
0.0208333333333333
 49
0.0
 49
0.0
 49
0.0
 49
0.0
 49
0.0208333333333333
 49
0.0
 49
0.0
 49
0.0
 49
0.0
 49
1.0
 49
0.0
 49
0.0
 49
0.0
 49
0.0
 49
1.0
175
     0
142
0.0208333333333333
142
0.0
142
0.0
142
0.0
142
0.0
142
0.0208333333333333
142
0.0
142
0.0
142
0.0
142
0.0
142
1.0
142
0.0
142
0.0
142
0.0
142
0.0
142
1.0
179
     0
144
0.0208333333333333
144
0.0
144
0.0
144
0.0
144
0.0
144
0.0208333333333333
144
0.0
144
0.0
144
0.0
144
0.0
144
1.0
144
0.0
144
0.0
144
0.0
144
0.0
144
1.0
147
0.0208333333333333
147
0.0
147
0.0
147
0.0
147
0.0
147
0.0208333333333333
147
0.0
147
0.0
147
0.0
147
0.0
147
1.0
147
0.0
147
0.0
147
0.0
147
0.0
147
1.0
  0
MATERIAL
  5
11
102
{ACAD_XDICTIONARY
360
12
102
}
102
{ACAD_REACTORS
330
10
102
}
330
10
100
AcDbMaterial
  1
ByLayer
 72
     0
 43
0.0208333333333333
 43
0.0
 43
0.0
 43
0.0
 43
0.0
 43
0.0208333333333333
 43
0.0
 43
0.0
 43
0.0
 43
0.0
 43
1.0
 43
0.0
 43
0.0
 43
0.0
 43
0.0
 43
1.0
 77
     0
 47
0.0208333333333333
 47
0.0
 47
0.0
 47
0.0
 47
0.0
 47
0.0208333333333333
 47
0.0
 47
0.0
 47
0.0
 47
0.0
 47
1.0
 47
0.0
 47
0.0
 47
0.0
 47
0.0
 47
1.0
171
     0
 49
0.0208333333333333
 49
0.0
 49
0.0
 49
0.0
 49
0.0
 49
0.0208333333333333
 49
0.0
 49
0.0
 49
0.0
 49
0.0
 49
1.0
 49
0.0
 49
0.0
 49
0.0
 49
0.0
 49
1.0
175
     0
142
0.0208333333333333
142
0.0
142
0.0
142
0.0
142
0.0
142
0.0208333333333333
142
0.0
142
0.0
142
0.0
142
0.0
142
1.0
142
0.0
142
0.0
142
0.0
142
0.0
142
1.0
179
     0
144
0.0208333333333333
144
0.0
144
0.0
144
0.0
144
0.0
144
0.0208333333333333
144
0.0
144
0.0
144
0.0
144
0.0
144
1.0
144
0.0
144
0.0
144
0.0
144
0.0
144
1.0
147
0.0208333333333333
147
0.0
147
0.0
147
0.0
147
0.0
147
0.0208333333333333
147
0.0
147
0.0
147
0.0
147
0.0
147
1.0
147
0.0
147
0.0
147
0.0
147
0.0
147
1.0
  0
MATERIAL
  5
21
102
{ACAD_XDICTIONARY
360
22
102
}
102
{ACAD_REACTORS
330
10
102
}
330
10
100
AcDbMaterial
  1
Global
 72
     0
 43
0.0208333333333333
 43
0.0
 43
0.0
 43
0.0
 43
0.0
 43
0.0208333333333333
 43
0.0
 43
0.0
 43
0.0
 43
0.0
 43
1.0
 43
0.0
 43
0.0
 43
0.0
 43
0.0
 43
1.0
 77
     0
 47
0.0208333333333333
 47
0.0
 47
0.0
 47
0.0
 47
0.0
 47
0.0208333333333333
 47
0.0
 47
0.0
 47
0.0
 47
0.0
 47
1.0
 47
0.0
 47
0.0
 47
0.0
 47
0.0
 47
1.0
171
     0
 49
0.0208333333333333
 49
0.0
 49
0.0
 49
0.0
 49
0.0
 49
0.0208333333333333
 49
0.0
 49
0.0
 49
0.0
 49
0.0
 49
1.0
 49
0.0
 49
0.0
 49
0.0
 49
0.0
 49
1.0
175
     0
142
0.0208333333333333
142
0.0
142
0.0
142
0.0
142
0.0
142
0.0208333333333333
142
0.0
142
0.0
142
0.0
142
0.0
142
1.0
142
0.0
142
0.0
142
0.0
142
0.0
142
1.0
179
     0
144
0.0208333333333333
144
0.0
144
0.0
144
0.0
144
0.0
144
0.0208333333333333
144
0.0
144
0.0
144
0.0
144
0.0
144
1.0
144
0.0
144
0.0
144
0.0
144
0.0
144
1.0
147
0.0208333333333333
147
0.0
147
0.0
147
0.0
147
0.0
147
0.0208333333333333
147
0.0
147
0.0
147
0.0
147
0.0
147
1.0
147
0.0
147
0.0
147
0.0
147
0.0
147
1.0
  0
MLEADERSTYLE
  5
66
102
{ACAD_REACTORS
330
65
102
}
330
65
100
AcDbMLeaderStyle
179
     2
170
     2
171
     1
172
     0
 90
        2
 40
0.0
 41
0.0
173
     1
 91
-1056964608
340
5A
 92
       -2
290
     1
 42
0.09
291
     1
 43
0.36
  3
Standard
 44
0.18
300

342
55
174
     1
178
     6
175
     1
176
     0
 93
-1056964608
 45
0.18
292
     0
297
     0
 46
0.18
 94
-1056964608
 47
1.0
 49
1.0
140
1.0
293
     1
141
0.0
294
     1
177
     0
142
1.0
295
     0
296
     0
143
0.125
271
     0
272
     9
273
     9
298
     0
  0
MLINESTYLE
  5
5F
102
{ACAD_REACTORS
330
5E
102
}
330
5E
100
AcDbMlineStyle
  2
STANDARD
 70
     0
  3

 62
   256
 51
90.0
 52
90.0
 71
     2
 49
0.5
 62
   256
  6
BYLAYER
 49
-0.5
 62
   256
  6
BYLAYER
  0
ACDBPLACEHOLDER
  5
F
102
{ACAD_REACTORS
330
E
102
}
330
E
  0
SCALE
  5
43
102
{ACAD_REACTORS
330
42
102
}
330
42
100
AcDbScale
 70
     0
300
1:1
140
1.0
141
1.0
290
     1
  0
SCALE
  5
44
102
{ACAD_REACTORS
330
42
102
}
330
42
100
AcDbScale
 70
     0
300
1/128" = 1'-0"
140
0.0078125
141
12.0
290
     0
  0
SCALE
  5
45
102
{ACAD_REACTORS
330
42
102
}
330
42
100
AcDbScale
 70
     0
300
1/64" = 1'-0"
140
0.015625
141
12.0
290
     0
  0
SCALE
  5
46
102
{ACAD_REACTORS
330
42
102
}
330
42
100
AcDbScale
 70
     0
300
1/32" = 1'-0"
140
0.03125
141
12.0
290
     0
  0
SCALE
  5
47
102
{ACAD_REACTORS
330
42
102
}
330
42
100
AcDbScale
 70
     0
300
1/16" = 1'-0"
140
0.0625
141
12.0
290
     0
  0
SCALE
  5
48
102
{ACAD_REACTORS
330
42
102
}
330
42
100
AcDbScale
 70
     0
300
3/32" = 1'-0"
140
0.09375
141
12.0
290
     0
  0
SCALE
  5
49
102
{ACAD_REACTORS
330
42
102
}
330
42
100
AcDbScale
 70
     0
300
1/8" = 1'-0"
140
0.125
141
12.0
290
     0
  0
SCALE
  5
4A
102
{ACAD_REACTORS
330
42
102
}
330
42
100
AcDbScale
 70
     0
300
3/16" = 1'-0"
140
0.1875
141
12.0
290
     0
  0
SCALE
  5
4B
102
{ACAD_REACTORS
330
42
102
}
330
42
100
AcDbScale
 70
     0
300
1/4" = 1'-0"
140
0.25
141
12.0
290
     0
  0
SCALE
  5
4C
102
{ACAD_REACTORS
330
42
102
}
330
42
100
AcDbScale
 70
     0
300
3/8" = 1'-0"
140
0.375
141
12.0
290
     0
  0
SCALE
  5
4D
102
{ACAD_REACTORS
330
42
102
}
330
42
100
AcDbScale
 70
     0
300
1/2" = 1'-0"
140
0.5
141
12.0
290
     0
  0
SCALE
  5
4E
102
{ACAD_REACTORS
330
42
102
}
330
42
100
AcDbScale
 70
     0
300
3/4" = 1'-0"
140
0.75
141
12.0
290
     0
  0
SCALE
  5
4F
102
{ACAD_REACTORS
330
42
102
}
330
42
100
AcDbScale
 70
     0
300
1" = 1'-0"
140
1.0
141
12.0
290
     0
  0
SCALE
  5
50
102
{ACAD_REACTORS
330
42
102
}
330
42
100
AcDbScale
 70
     0
300
1-1/2" = 1'-0"
140
1.5
141
12.0
290
     0
  0
SCALE
  5
51
102
{ACAD_REACTORS
330
42
102
}
330
42
100
AcDbScale
 70
     0
300
3" = 1'-0"
140
3.0
141
12.0
290
     0
  0
SCALE
  5
52
102
{ACAD_REACTORS
330
42
102
}
330
42
100
AcDbScale
 70
     0
300
6" = 1'-0"
140
6.0
141
12.0
290
     0
  0
SCALE
  5
53
102
{ACAD_REACTORS
330
42
102
}
330
42
100
AcDbScale
 70
     0
300
1'-0" = 1'-0"
140
12.0
141
12.0
290
     0
  0
ACDBSECTIONVIEWSTYLE
  5
68
102
{ACAD_REACTORS
330
67
102
}
330
67
100
AcDbModelDocViewStyle
 70
     0
  3
Imperial24
290
     0
300
Imperial24
 90
        0
100
AcDbSectionViewStyle
 70
     0
 71
     0
 90
       78
 71
     1
340
55
 62
   256
 40
0.24
340
0
340
0
 62
   256
 40
0.24
300
I, O, Q, S, X, Z
 40
0.48
 90
        3
 40
0.18
 90
        1
 71
     2
340
5C
 90
       25
 62
   256
340
5C
 90
       50
 62
   256
 40
0.24
 40
0.0
 40
0.24
 71
     3
340
55
 62
   256
 40
0.24
 90
        1
 40
0.75
 90
        1
300
%<\AcVar ViewType \f "%tc1">% %<\AcVar ViewSectionStartId>%-%<\AcVar ViewSectionEndId>%\PSCALE %<\AcVar ViewScale \f "%sn">%
 71
     4
 62
   256
 62
   257
300
ANSI31
 40
1.0
 90
        0
290
     0
290
     0
 90
        6
 40
0.0
 40
1.570796326794896
 40
0.2617993877991494
 40
1.308996938995747
 40
-0.2617993877991494
 40
1.832595714594046
  0
TABLESTYLE
  5
64
102
{ACAD_XDICTIONARY
360
1289
102
}
102
{ACAD_REACTORS
330
63
102
}
330
63
100
AcDbTableStyle
280
     0
  3
Standard
 70
     0
 71
     0
 40
0.06
 41
0.06
280
     0
281
     0
  7
Standard
140
0.18
170
     2
 62
     0
 63
     7
283
     0
 90
      512
 91
        0
  1

274
    -2
284
     1
 64
     0
275
    -2
285
     1
 65
     0
276
    -2
286
     1
 66
     0
277
    -2
287
     1
 67
     0
278
    -2
288
     1
 68
     0
279
    -2
289
     1
 69
     0
  7
Standard
140
0.25
170
     5
 62
     0
 63
     7
283
     0
 90
      512
 91
        0
  1

274
    -2
284
     1
 64
     0
275
    -2
285
     1
 65
     0
276
    -2
286
     1
 66
     0
277
    -2
287
     1
 67
     0
278
    -2
288
     1
 68
     0
279
    -2
289
     1
 69
     0
  7
Standard
140
0.18
170
     5
 62
     0
 63
     7
283
     0
 90
      512
 91
        0
  1

274
    -2
284
     1
 64
     0
275
    -2
285
     1
 65
     0
276
    -2
286
     1
 66
     0
277
    -2
287
     1
 67
     0
278
    -2
288
     1
 68
     0
279
    -2
289
     1
 69
     0
  0
VISUALSTYLE
  5
2F
102
{ACAD_REACTORS
330
29
102
}
330
29
100
AcDbVisualStyle
  2
2dWireframe
 70
     4
177
     3
291
     0
 70
    58
 90
        0
176
     1
 90
        2
176
     1
 90
        0
176
     1
 90
        0
176
     1
 40
0.6
176
     1
 40
30.0
176
     1
 62
     7
420
 16777215
176
     1
 90
        1
176
     1
 90
        4
176
     1
 62
     7
176
     1
 62
   257
176
     1
 90
        1
176
     1
 90
        1
176
     1
 40
1.0
176
     1
 90
        0
176
     1
 62
   257
176
     1
 40
1.0
176
     1
 90
        1
176
     1
 90
        6
176
     1
 90
        2
176
     1
 62
     7
176
     1
 90
        5
176
     1
 90
        0
176
     1
 90
        0
176
     1
290
     0
176
     1
 90
        1
176
     1
 40
0.0
176
     1
 90
        0
176
     1
290
     1
176
     1
290
     1
176
     1
290
     0
176
     1
290
     0
176
     1
290
     0
176
     1
290
     0
176
     1
290
     0
176
     1
290
     0
176
     1
290
     0
176
     1
 90
       50
176
     1
 40
0.0
176
     1
 40
1.0
176
     1
 90
        0
176
     1
 62
    18
420
        0
176
     1
 90
       50
176
     1
 90
        3
176
     1
 62
     5
420
      255
176
     1
290
     0
176
     1
 90
       50
176
     1
 90
       50
176
     1
 90
       50
176
     1
290
     0
176
     1
 90
       50
176
     1
 62
   256
176
     0
 40
1.0
176
     0
 90
        2
176
     1
  1
strokes_ogs.tif
176
     1
290
     0
176
     1
 40
1.0
176
     1
 40
1.0
176
     1
  0
VISUALSTYLE
  5
2E
102
{ACAD_REACTORS
330
29
102
}
330
29
100
AcDbVisualStyle
  2
Basic
 70
     7
177
     3
291
     1
 70
    58
 90
        1
176
     1
 90
        0
176
     1
 90
        1
176
     1
 90
        0
176
     1
 40
0.6
176
     1
 40
30.0
176
     1
 62
     7
420
 16777215
176
     1
 90
        0
176
     1
 90
        4
176
     1
 62
     7
176
     1
 62
   257
176
     1
 90
        1
176
     1
 90
        1
176
     1
 40
1.0
176
     1
 90
        8
176
     1
 62
     7
176
     1
 40
1.0
176
     1
 90
        1
176
     1
 90
        6
176
     1
 90
        2
176
     1
 62
     7
176
     1
 90
        5
176
     1
 90
        0
176
     1
 90
        0
176
     1
290
     0
176
     1
 90
        1
176
     1
 40
0.0
176
     1
 90
        0
176
     1
290
     0
176
     1
290
     1
176
     1
290
     1
176
     1
290
     0
176
     1
290
     0
176
     1
290
     0
176
     1
290
     0
176
     1
290
     0
176
     1
290
     0
176
     1
 90
       50
176
     1
 40
0.0
176
     1
 40
1.0
176
     1
 90
        0
176
     1
 62
    18
420
        0
176
     1
 90
       50
176
     1
 90
        3
176
     1
 62
     5
420
      255
176
     1
290
     0
176
     1
 90
       50
176
     1
 90
       50
176
     1
 90
       50
176
     1
290
     0
176
     1
 90
       50
176
     1
 62
   256
176
     0
 40
1.0
176
     0
 90
        2
176
     1
  1
strokes_ogs.tif
176
     1
290
     0
176
     1
 40
1.0
176
     1
 40
1.0
176
     1
  0
VISUALSTYLE
  5
35
102
{ACAD_REACTORS
330
29
102
}
330
29
100
AcDbVisualStyle
  2
Brighten
 70
    12
177
     3
291
     1
 70
    58
 90
        2
176
     1
 90
        2
176
     1
 90
        0
176
     1
 90
        0
176
     1
 40
0.6
176
     1
 40
30.0
176
     1
 62
     7
420
 16777215
176
     1
 90
        1
176
     1
 90
        4
176
     1
 62
     7
176
     1
 62
   257
176
     1
 90
        1
176
     1
 90
        1
176
     1
 40
1.0
176
     1
 90
        8
176
     1
 62
     7
176
     1
 40
1.0
176
     1
 90
        1
176
     1
 90
        6
176
     1
 90
        2
176
     1
 62
     7
176
     1
 90
        5
176
     1
 90
        0
176
     1
 90
        0
176
     1
290
     0
176
     1
 90
        1
176
     1
 40
50.0
176
     1
 90
        0
176
     1
290
     0
176
     1
290
     1
176
     1
290
     1
176
     1
290
     0
176
     1
290
     0
176
     1
290
     0
176
     1
290
     0
176
     1
290
     0
176
     1
290
     0
176
     1
 90
       50
176
     1
 40
0.0
176
     1
 40
1.0
176
     1
 90
        0
176
     1
 62
    18
420
        0
176
     1
 90
       50
176
     1
 90
        3
176
     1
 62
     5
420
      255
176
     1
290
     0
176
     1
 90
       50
176
     1
 90
       50
176
     1
 90
       50
176
     1
290
     0
176
     1
 90
       50
176
     1
 62
   256
176
     0
 40
1.0
176
     0
 90
        2
176
     1
  1
strokes_ogs.tif
176
     1
290
     0
176
     1
 40
1.0
176
     1
 40
1.0
176
     1
  0
VISUALSTYLE
  5
39
102
{ACAD_REACTORS
330
29
102
}
330
29
100
AcDbVisualStyle
  2
ColorChange
 70
    16
177
     3
291
     1
 70
    58
 90
        2
176
     1
 90
        2
176
     1
 90
        3
176
     1
 90
        0
176
     1
 40
0.6
176
     1
 40
30.0
176
     1
 62
     8
420
  8421504
176
     1
 90
        1
176
     1
 90
        4
176
     1
 62
     7
176
     1
 62
   257
176
     1
 90
        1
176
     1
 90
        1
176
     1
 40
1.0
176
     1
 90
        8
176
     1
 62
     8
420
  8421504
176
     1
 40
1.0
176
     1
 90
        1
176
     1
 90
        6
176
     1
 90
        2
176
     1
 62
     7
176
     1
 90
        5
176
     1
 90
        0
176
     1
 90
        0
176
     1
290
     0
176
     1
 90
        1
176
     1
 40
0.0
176
     1
 90
        0
176
     1
290
     0
176
     1
290
     1
176
     1
290
     1
176
     1
290
     0
176
     1
290
     0
176
     1
290
     0
176
     1
290
     0
176
     1
290
     0
176
     1
290
     0
176
     1
 90
       50
176
     1
 40
0.0
176
     1
 40
1.0
176
     1
 90
        0
176
     1
 62
    18
420
        0
176
     1
 90
       50
176
     1
 90
        3
176
     1
 62
     5
420
      255
176
     1
290
     0
176
     1
 90
       50
176
     1
 90
       50
176
     1
 90
       50
176
     1
290
     0
176
     1
 90
       50
176
     1
 62
   256
176
     0
 40
1.0
176
     0
 90
        2
176
     1
  1
strokes_ogs.tif
176
     1
290
     0
176
     1
 40
1.0
176
     1
 40
1.0
176
     1
  0
VISUALSTYLE
  5
32
102
{ACAD_REACTORS
330
29
102
}
330
29
100
AcDbVisualStyle
  2
Conceptual
 70
     9
177
     3
291
     0
 70
    58
 90
        3
176
     1
 90
        2
176
     1
 90
        0
176
     1
 90
        0
176
     1
 40
0.6
176
     1
 40
30.0
176
     1
 62
     7
420
 16777215
176
     1
 90
        2
176
     1
 90
        2
176
     1
 62
     7
176
     1
 62
   257
176
     1
 90
        1
176
     1
 90
        1
176
     1
 40
179.0
176
     1
 90
        8
176
     1
 62
     7
176
     1
 40
1.0
176
     1
 90
        1
176
     1
 90
        6
176
     1
 90
        2
176
     1
 62
     7
176
     1
 90
        3
176
     1
 90
        0
176
     1
 90
        0
176
     1
290
     0
176
     1
 90
        1
176
     1
 40
0.0
176
     1
 90
        0
176
     1
290
     0
176
     1
290
     1
176
     1
290
     1
176
     1
290
     0
176
     1
290
     0
176
     1
290
     0
176
     1
290
     0
176
     1
290
     0
176
     1
290
     0
176
     1
 90
       50
176
     1
 40
0.0
176
     1
 40
1.0
176
     1
 90
        0
176
     1
 62
    18
420
        0
176
     1
 90
       50
176
     1
 90
        3
176
     1
 62
     5
420
      255
176
     1
290
     0
176
     1
 90
       50
176
     1
 90
       50
176
     1
 90
       50
176
     1
290
     0
176
     1
 90
       50
176
     1
 62
   256
176
     0
 40
1.0
176
     0
 90
        2
176
     1
  1
strokes_ogs.tif
176
     1
290
     0
176
     1
 40
1.0
176
     1
 40
1.0
176
     1
  0
VISUALSTYLE
  5
34
102
{ACAD_REACTORS
330
29
102
}
330
29
100
AcDbVisualStyle
  2
Dim
 70
    11
177
     3
291
     1
 70
    58
 90
        2
176
     1
 90
        2
176
     1
 90
        0
176
     1
 90
        0
176
     1
 40
0.6
176
     1
 40
30.0
176
     1
 62
     7
420
 16777215
176
     1
 90
        1
176
     1
 90
        4
176
     1
 62
     7
176
     1
 62
   257
176
     1
 90
        1
176
     1
 90
        1
176
     1
 40
1.0
176
     1
 90
        8
176
     1
 62
     7
176
     1
 40
1.0
176
     1
 90
        1
176
     1
 90
        6
176
     1
 90
        2
176
     1
 62
     7
176
     1
 90
        5
176
     1
 90
        0
176
     1
 90
        0
176
     1
290
     0
176
     1
 90
        1
176
     1
 40
-50.0
176
     1
 90
        0
176
     1
290
     0
176
     1
290
     1
176
     1
290
     1
176
     1
290
     0
176
     1
290
     0
176
     1
290
     0
176
     1
290
     0
176
     1
290
     0
176
     1
290
     0
176
     1
 90
       50
176
     1
 40
0.0
176
     1
 40
1.0
176
     1
 90
        0
176
     1
 62
    18
420
        0
176
     1
 90
       50
176
     1
 90
        3
176
     1
 62
     5
420
      255
176
     1
290
     0
176
     1
 90
       50
176
     1
 90
       50
176
     1
 90
       50
176
     1
290
     0
176
     1
 90
       50
176
     1
 62
   256
176
     0
 40
1.0
176
     0
 90
        2
176
     1
  1
strokes_ogs.tif
176
     1
290
     0
176
     1
 40
1.0
176
     1
 40
1.0
176
     1
  0
VISUALSTYLE
  5
41
102
{ACAD_REACTORS
330
29
102
}
330
29
100
AcDbVisualStyle
  2
EdgeColorOff
 70
    22
177
     3
291
     1
 70
    58
 90
        2
176
     0
 90
        2
176
     0
 90
        0
176
     0
 90
        0
176
     0
 40
0.6
176
     0
 40
30.0
176
     0
 62
     7
420
 16777215
176
     0
 90
        1
176
     0
 90
        4
176
     0
 62
     7
176
     0
 62
   257
176
     0
 90
        1
176
     0
 90
        1
176
     0
 40
1.0
176
     0
 90
        8
176
     2
 62
     7
176
     0
 40
1.0
176
     0
 90
        1
176
     0
 90
        6
176
     0
 90
        2
176
     0
 62
     7
176
     0
 90
        5
176
     0
 90
        0
176
     0
 90
        0
176
     0
290
     0
176
     0
 90
        1
176
     0
 40
0.0
176
     0
 90
        0
176
     0
290
     0
176
     1
290
     1
176
     1
290
     1
176
     1
290
     0
176
     1
290
     0
176
     1
290
     0
176
     1
290
     0
176
     1
290
     0
176
     1
290
     0
176
     1
 90
       50
176
     0
 40
0.0
176
     0
 40
1.0
176
     0
 90
        0
176
     0
 62
    18
420
        0
176
     0
 90
       50
176
     0
 90
        3
176
     0
 62
     5
420
      255
176
     0
290
     0
176
     1
 90
       50
176
     0
 90
       50
176
     0
 90
       50
176
     0
290
     0
176
     1
 90
       50
176
     0
 62
   256
176
     0
 40
1.0
176
     0
 90
        2
176
     0
  1
strokes_ogs.tif
176
     0
290
     0
176
     1
 40
1.0
176
     0
 40
1.0
176
     0
  0
VISUALSTYLE
  5
38
102
{ACAD_REACTORS
330
29
102
}
330
29
100
AcDbVisualStyle
  2
Facepattern
 70
    15
177
     3
291
     1
 70
    58
 90
        2
176
     1
 90
        2
176
     1
 90
        0
176
     1
 90
        0
176
     1
 40
0.6
176
     1
 40
30.0
176
     1
 62
     7
420
 16777215
176
     1
 90
        1
176
     1
 90
        4
176
     1
 62
     7
176
     1
 62
   257
176
     1
 90
        1
176
     1
 90
        1
176
     1
 40
1.0
176
     1
 90
        8
176
     1
 62
     7
176
     1
 40
1.0
176
     1
 90
        1
176
     1
 90
        6
176
     1
 90
        2
176
     1
 62
     7
176
     1
 90
        5
176
     1
 90
        0
176
     1
 90
        0
176
     1
290
     0
176
     1
 90
        1
176
     1
 40
0.0
176
     1
 90
        0
176
     1
290
     0
176
     1
290
     1
176
     1
290
     1
176
     1
290
     0
176
     1
290
     0
176
     1
290
     0
176
     1
290
     0
176
     1
290
     0
176
     1
290
     0
176
     1
 90
       50
176
     1
 40
0.0
176
     1
 40
1.0
176
     1
 90
        0
176
     1
 62
    18
420
        0
176
     1
 90
       50
176
     1
 90
        3
176
     1
 62
     5
420
      255
176
     1
290
     0
176
     1
 90
       50
176
     1
 90
       50
176
     1
 90
       50
176
     1
290
     0
176
     1
 90
       50
176
     1
 62
   256
176
     0
 40
1.0
176
     0
 90
        2
176
     1
  1
strokes_ogs.tif
176
     1
290
     0
176
     1
 40
1.0
176
     1
 40
1.0
176
     1
  0
VISUALSTYLE
  5
2A
102
{ACAD_REACTORS
330
29
102
}
330
29
100
AcDbVisualStyle
  2
Flat
 70
     0
177
     3
291
     1
 70
    58
 90
        2
176
     1
 90
        1
176
     1
 90
        1
176
     1
 90
        2
176
     1
 40
0.6
176
     1
 40
30.0
176
     1
 62
     7
420
 16777215
176
     1
 90
        0
176
     1
 90
        0
176
     1
 62
     7
176
     1
 62
   257
176
     1
 90
        1
176
     1
 90
        1
176
     1
 40
1.0
176
     1
 90
        8
176
     1
 62
     7
176
     1
 40
1.0
176
     1
 90
        1
176
     1
 90
        6
176
     1
 90
        2
176
     1
 62
     7
176
     1
 90
        5
176
     1
 90
        0
176
     1
 90
        0
176
     1
290
     0
176
     1
 90
       13
176
     1
 40
0.0
176
     1
 90
        0
176
     1
290
     0
176
     1
290
     1
176
     1
290
     1
176
     1
290
     0
176
     1
290
     0
176
     1
290
     0
176
     1
290
     0
176
     1
290
     0
176
     1
290
     0
176
     1
 90
       50
176
     1
 40
0.0
176
     1
 40
1.0
176
     1
 90
        0
176
     1
 62
    18
420
        0
176
     1
 90
       50
176
     1
 90
        3
176
     1
 62
     5
420
      255
176
     1
290
     0
176
     1
 90
       50
176
     1
 90
       50
176
     1
 90
       50
176
     1
290
     0
176
     1
 90
       50
176
     1
 62
   256
176
     0
 40
1.0
176
     0
 90
        2
176
     1
  1
strokes_ogs.tif
176
     1
290
     0
176
     1
 40
1.0
176
     1
 40
1.0
176
     1
  0
VISUALSTYLE
  5
2B
102
{ACAD_REACTORS
330
29
102
}
330
29
100
AcDbVisualStyle
  2
FlatWithEdges
 70
     1
177
     3
291
     1
 70
    58
 90
        2
176
     1
 90
        1
176
     1
 90
        1
176
     1
 90
        2
176
     1
 40
0.6
176
     1
 40
30.0
176
     1
 62
     7
420
 16777215
176
     1
 90
        1
176
     1
 90
        0
176
     1
 62
     7
176
     1
 62
   257
176
     1
 90
        1
176
     1
 90
        1
176
     1
 40
1.0
176
     1
 90
        0
176
     1
 62
   257
176
     1
 40
1.0
176
     1
 90
        1
176
     1
 90
        6
176
     1
 90
        2
176
     1
 62
     7
176
     1
 90
        5
176
     1
 90
        0
176
     1
 90
        0
176
     1
290
     0
176
     1
 90
       13
176
     1
 40
0.0
176
     1
 90
        0
176
     1
290
     0
176
     1
290
     1
176
     1
290
     1
176
     1
290
     0
176
     1
290
     0
176
     1
290
     0
176
     1
290
     0
176
     1
290
     0
176
     1
290
     0
176
     1
 90
       50
176
     1
 40
0.0
176
     1
 40
1.0
176
     1
 90
        0
176
     1
 62
    18
420
        0
176
     1
 90
       50
176
     1
 90
        3
176
     1
 62
     5
420
      255
176
     1
290
     0
176
     1
 90
       50
176
     1
 90
       50
176
     1
 90
       50
176
     1
290
     0
176
     1
 90
       50
176
     1
 62
   256
176
     0
 40
1.0
176
     0
 90
        2
176
     1
  1
strokes_ogs.tif
176
     1
290
     0
176
     1
 40
1.0
176
     1
 40
1.0
176
     1
  0
VISUALSTYLE
  5
2C
102
{ACAD_REACTORS
330
29
102
}
330
29
100
AcDbVisualStyle
  2
Gouraud
 70
     2
177
     3
291
     1
 70
    58
 90
        2
176
     1
 90
        2
176
     1
 90
        1
176
     1
 90
        2
176
     1
 40
0.6
176
     1
 40
30.0
176
     1
 62
     7
420
 16777215
176
     1
 90
        0
176
     1
 90
        0
176
     1
 62
     7
176
     1
 62
   257
176
     1
 90
        1
176
     1
 90
        1
176
     1
 40
1.0
176
     1
 90
        0
176
     1
 62
     7
176
     1
 40
1.0
176
     1
 90
        1
176
     1
 90
        6
176
     1
 90
        2
176
     1
 62
     7
176
     1
 90
        5
176
     1
 90
        0
176
     1
 90
        0
176
     1
290
     0
176
     1
 90
       13
176
     1
 40
0.0
176
     1
 90
        0
176
     1
290
     0
176
     1
290
     1
176
     1
290
     1
176
     1
290
     0
176
     1
290
     0
176
     1
290
     0
176
     1
290
     0
176
     1
290
     0
176
     1
290
     0
176
     1
 90
       50
176
     1
 40
0.0
176
     1
 40
1.0
176
     1
 90
        0
176
     1
 62
    18
420
        0
176
     1
 90
       50
176
     1
 90
        3
176
     1
 62
     5
420
      255
176
     1
290
     0
176
     1
 90
       50
176
     1
 90
       50
176
     1
 90
       50
176
     1
290
     0
176
     1
 90
       50
176
     1
 62
   256
176
     0
 40
1.0
176
     0
 90
        2
176
     1
  1
strokes_ogs.tif
176
     1
290
     0
176
     1
 40
1.0
176
     1
 40
1.0
176
     1
  0
VISUALSTYLE
  5
2D
102
{ACAD_REACTORS
330
29
102
}
330
29
100
AcDbVisualStyle
  2
GouraudWithEdges
 70
     3
177
     3
291
     1
 70
    58
 90
        2
176
     1
 90
        2
176
     1
 90
        1
176
     1
 90
        2
176
     1
 40
0.6
176
     1
 40
30.0
176
     1
 62
     7
420
 16777215
176
     1
 90
        1
176
     1
 90
        0
176
     1
 62
     7
176
     1
 62
   257
176
     1
 90
        1
176
     1
 90
        1
176
     1
 40
1.0
176
     1
 90
        0
176
     1
 62
   257
176
     1
 40
1.0
176
     1
 90
        1
176
     1
 90
        6
176
     1
 90
        2
176
     1
 62
     7
176
     1
 90
        5
176
     1
 90
        0
176
     1
 90
        0
176
     1
290
     0
176
     1
 90
       13
176
     1
 40
0.0
176
     1
 90
        0
176
     1
290
     0
176
     1
290
     1
176
     1
290
     1
176
     1
290
     0
176
     1
290
     0
176
     1
290
     0
176
     1
290
     0
176
     1
290
     0
176
     1
290
     0
176
     1
 90
       50
176
     1
 40
0.0
176
     1
 40
1.0
176
     1
 90
        0
176
     1
 62
    18
420
        0
176
     1
 90
       50
176
     1
 90
        3
176
     1
 62
     5
420
      255
176
     1
290
     0
176
     1
 90
       50
176
     1
 90
       50
176
     1
 90
       50
176
     1
290
     0
176
     1
 90
       50
176
     1
 62
   256
176
     0
 40
1.0
176
     0
 90
        2
176
     1
  1
strokes_ogs.tif
176
     1
290
     0
176
     1
 40
1.0
176
     1
 40
1.0
176
     1
  0
VISUALSTYLE
  5
31
102
{ACAD_REACTORS
330
29
102
}
330
29
100
AcDbVisualStyle
  2
Hidden
 70
     6
177
     3
291
     0
 70
    58
 90
        1
176
     1
 90
        2
176
     1
 90
        2
176
     1
 90
        0
176
     1
 40
0.6
176
     1
 40
30.0
176
     1
 62
     7
420
 16777215
176
     1
 90
        2
176
     1
 90
        2
176
     1
 62
     7
176
     1
 62
   257
176
     1
 90
        2
176
     1
 90
        1
176
     1
 40
40.0
176
     1
 90
        0
176
     1
 62
   257
176
     1
 40
1.0
176
     1
 90
        1
176
     1
 90
        6
176
     1
 90
        2
176
     1
 62
     7
176
     1
 90
        3
176
     1
 90
        0
176
     1
 90
        0
176
     1
290
     0
176
     1
 90
        1
176
     1
 40
0.0
176
     1
 90
        0
176
     1
290
     0
176
     1
290
     1
176
     1
290
     1
176
     1
290
     0
176
     1
290
     0
176
     1
290
     0
176
     1
290
     0
176
     1
290
     0
176
     1
290
     0
176
     1
 90
       50
176
     1
 40
0.0
176
     1
 40
1.0
176
     1
 90
        0
176
     1
 62
    18
420
        0
176
     1
 90
       50
176
     1
 90
        3
176
     1
 62
     5
420
      255
176
     1
290
     0
176
     1
 90
       50
176
     1
 90
       50
176
     1
 90
       50
176
     1
290
     0
176
     1
 90
       50
176
     1
 62
   256
176
     0
 40
1.0
176
     0
 90
        2
176
     1
  1
strokes_ogs.tif
176
     1
290
     0
176
     1
 40
1.0
176
     1
 40
1.0
176
     1
  0
VISUALSTYLE
  5
3F
102
{ACAD_REACTORS
330
29
102
}
330
29
100
AcDbVisualStyle
  2
JitterOff
 70
    20
177
     3
291
     1
 70
    58
 90
        2
176
     0
 90
        2
176
     0
 90
        0
176
     0
 90
        0
176
     0
 40
0.6
176
     0
 40
30.0
176
     0
 62
     7
420
 16777215
176
     0
 90
        1
176
     0
 90
        4
176
     0
 62
     7
176
     0
 62
   257
176
     0
 90
        1
176
     0
 90
        1
176
     0
 40
1.0
176
     0
 90
       10
176
     2
 62
     7
176
     0
 40
1.0
176
     0
 90
        1
176
     0
 90
        6
176
     0
 90
        2
176
     0
 62
     7
176
     0
 90
        5
176
     0
 90
        0
176
     0
 90
        0
176
     0
290
     0
176
     0
 90
        1
176
     0
 40
0.0
176
     0
 90
        0
176
     0
290
     0
176
     1
290
     1
176
     1
290
     1
176
     1
290
     0
176
     1
290
     0
176
     1
290
     0
176
     1
290
     0
176
     1
290
     0
176
     1
290
     0
176
     1
 90
       50
176
     0
 40
0.0
176
     0
 40
1.0
176
     0
 90
        0
176
     0
 62
    18
420
        0
176
     0
 90
       50
176
     0
 90
        3
176
     0
 62
     5
420
      255
176
     0
290
     0
176
     1
 90
       50
176
     0
 90
       50
176
     0
 90
       50
176
     0
290
     0
176
     1
 90
       50
176
     0
 62
   256
176
     0
 40
1.0
176
     0
 90
        2
176
     0
  1
strokes_ogs.tif
176
     0
290
     0
176
     1
 40
1.0
176
     0
 40
1.0
176
     0
  0
VISUALSTYLE
  5
37
102
{ACAD_REACTORS
330
29
102
}
330
29
100
AcDbVisualStyle
  2
Linepattern
 70
    14
177
     3
291
     1
 70
    58
 90
        2
176
     1
 90
        2
176
     1
 90
        0
176
     1
 90
        0
176
     1
 40
0.6
176
     1
 40
30.0
176
     1
 62
     7
420
 16777215
176
     1
 90
        1
176
     1
 90
        4
176
     1
 62
     7
176
     1
 62
   257
176
     1
 90
        7
176
     1
 90
        7
176
     1
 40
1.0
176
     1
 90
        8
176
     1
 62
     7
176
     1
 40
1.0
176
     1
 90
        1
176
     1
 90
        6
176
     1
 90
        2
176
     1
 62
     7
176
     1
 90
        5
176
     1
 90
        0
176
     1
 90
        0
176
     1
290
     0
176
     1
 90
        1
176
     1
 40
0.0
176
     1
 90
        0
176
     1
290
     0
176
     1
290
     1
176
     1
290
     1
176
     1
290
     0
176
     1
290
     0
176
     1
290
     0
176
     1
290
     0
176
     1
290
     0
176
     1
290
     0
176
     1
 90
       50
176
     1
 40
0.0
176
     1
 40
1.0
176
     1
 90
        0
176
     1
 62
    18
420
        0
176
     1
 90
       50
176
     1
 90
        3
176
     1
 62
     5
420
      255
176
     1
290
     0
176
     1
 90
       50
176
     1
 90
       50
176
     1
 90
       50
176
     1
290
     0
176
     1
 90
       50
176
     1
 62
   256
176
     0
 40
1.0
176
     0
 90
        2
176
     1
  1
strokes_ogs.tif
176
     1
290
     0
176
     1
 40
1.0
176
     1
 40
1.0
176
     1
  0
VISUALSTYLE
  5
40
102
{ACAD_REACTORS
330
29
102
}
330
29
100
AcDbVisualStyle
  2
OverhangOff
 70
    21
177
     3
291
     1
 70
    58
 90
        2
176
     0
 90
        2
176
     0
 90
        0
176
     0
 90
        0
176
     0
 40
0.6
176
     0
 40
30.0
176
     0
 62
     7
420
 16777215
176
     0
 90
        1
176
     0
 90
        4
176
     0
 62
     7
176
     0
 62
   257
176
     0
 90
        1
176
     0
 90
        1
176
     0
 40
1.0
176
     0
 90
        9
176
     2
 62
     7
176
     0
 40
1.0
176
     0
 90
        1
176
     0
 90
        6
176
     0
 90
        2
176
     0
 62
     7
176
     0
 90
        5
176
     0
 90
        0
176
     0
 90
        0
176
     0
290
     0
176
     0
 90
        1
176
     0
 40
0.0
176
     0
 90
        0
176
     0
290
     0
176
     1
290
     1
176
     1
290
     1
176
     1
290
     0
176
     1
290
     0
176
     1
290
     0
176
     1
290
     0
176
     1
290
     0
176
     1
290
     0
176
     1
 90
       50
176
     0
 40
0.0
176
     0
 40
1.0
176
     0
 90
        0
176
     0
 62
    18
420
        0
176
     0
 90
       50
176
     0
 90
        3
176
     0
 62
     5
420
      255
176
     0
290
     0
176
     1
 90
       50
176
     0
 90
       50
176
     0
 90
       50
176
     0
290
     0
176
     1
 90
       50
176
     0
 62
   256
176
     0
 40
1.0
176
     0
 90
        2
176
     0
  1
strokes_ogs.tif
176
     0
290
     0
176
     1
 40
1.0
176
     0
 40
1.0
176
     0
  0
VISUALSTYLE
  5
33
102
{ACAD_REACTORS
330
29
102
}
330
29
100
AcDbVisualStyle
  2
Realistic
 70
     8
177
     3
291
     0
 70
    58
 90
        2
176
     1
 90
        3
176
     1
 90
        0
176
     1
 90
        2
176
     1
 40
0.6
176
     1
 40
30.0
176
     1
 62
     7
420
 16777215
176
     1
 90
        0
176
     1
 90
        0
176
     1
 62
     7
176
     1
 62
   257
176
     1
 90
        1
176
     1
 90
        1
176
     1
 40
1.0
176
     1
 90
        8
176
     1
 62
   257
176
     1
 40
1.0
176
     1
 90
        1
176
     1
 90
        6
176
     1
 90
        2
176
     1
 62
     7
176
     1
 90
        3
176
     1
 90
        0
176
     1
 90
        0
176
     1
290
     0
176
     1
 90
       13
176
     1
 40
0.0
176
     1
 90
        0
176
     1
290
     0
176
     1
290
     1
176
     1
290
     1
176
     1
290
     0
176
     1
290
     0
176
     1
290
     0
176
     1
290
     0
176
     1
290
     0
176
     1
290
     0
176
     1
 90
       50
176
     1
 40
0.0
176
     1
 40
1.0
176
     1
 90
        0
176
     1
 62
    18
420
        0
176
     1
 90
       50
176
     1
 90
        3
176
     1
 62
     5
420
      255
176
     1
290
     0
176
     1
 90
       50
176
     1
 90
       50
176
     1
 90
       50
176
     1
290
     0
176
     1
 90
       50
176
     1
 62
   256
176
     0
 40
1.0
176
     0
 90
        2
176
     1
  1
strokes_ogs.tif
176
     1
290
     0
176
     1
 40
1.0
176
     1
 40
1.0
176
     1
  0
VISUALSTYLE
  5
3E
102
{ACAD_REACTORS
330
29
102
}
330
29
100
AcDbVisualStyle
  2
Shaded
 70
    27
177
     3
291
     0
 70
    58
 90
        2
176
     1
 90
        2
176
     1
 90
        1
176
     1
 90
        2
176
     1
 40
0.6
176
     1
 40
30.0
176
     1
 62
     7
420
 16777215
176
     1
 90
        0
176
     1
 90
        4
176
     1
 62
     7
176
     1
 62
   257
176
     1
 90
        1
176
     1
 90
        1
176
     1
 40
1.0
176
     1
 90
        8
176
     1
 62
   257
176
     1
 40
1.0
176
     1
 90
        1
176
     1
 90
        6
176
     1
 90
        2
176
     1
 62
     8
420
  7895160
176
     1
 90
        3
176
     1
 90
        0
176
     1
 90
        0
176
     1
290
     0
176
     1
 90
        5
176
     1
 40
0.0
176
     1
 90
        0
176
     1
290
     0
176
     1
290
     1
176
     1
290
     1
176
     1
290
     0
176
     1
290
     0
176
     1
290
     0
176
     1
290
     0
176
     1
290
     0
176
     1
290
     0
176
     1
 90
       50
176
     1
 40
0.0
176
     1
 40
1.0
176
     1
 90
        0
176
     1
 62
    18
420
        0
176
     1
 90
       50
176
     1
 90
        3
176
     1
 62
     5
420
      255
176
     1
290
     0
176
     1
 90
       50
176
     1
 90
       50
176
     1
 90
       50
176
     1
290
     0
176
     1
 90
       50
176
     1
 62
   256
176
     0
 40
1.0
176
     0
 90
        2
176
     1
  1
strokes_ogs.tif
176
     1
290
     0
176
     1
 40
1.0
176
     1
 40
1.0
176
     1
  0
VISUALSTYLE
  5
3D
102
{ACAD_REACTORS
330
29
102
}
330
29
100
AcDbVisualStyle
  2
Shaded with edges
 70
    26
177
     3
291
     0
 70
    58
 90
        2
176
     1
 90
        2
176
     1
 90
        1
176
     1
 90
        2
176
     1
 40
0.6
176
     1
 40
30.0
176
     1
 62
     7
420
 16777215
176
     1
 90
        1
176
     1
 90
        2
176
     1
 62
     7
176
     1
 62
   257
176
     1
 90
        2
176
     1
 90
        1
176
     1
 40
1.0
176
     1
 90
        8
176
     1
 62
   257
176
     1
 40
1.0
176
     1
 90
        1
176
     1
 90
        6
176
     1
 90
        2
176
     1
 62
     7
176
     1
 90
        3
176
     1
 90
        0
176
     1
 90
        0
176
     1
290
     0
176
     1
 90
        5
176
     1
 40
0.0
176
     1
 90
        0
176
     1
290
     0
176
     1
290
     1
176
     1
290
     1
176
     1
290
     0
176
     1
290
     0
176
     1
290
     0
176
     1
290
     0
176
     1
290
     0
176
     1
290
     0
176
     1
 90
       50
176
     1
 40
0.0
176
     1
 40
1.0
176
     1
 90
        0
176
     1
 62
    18
420
        0
176
     1
 90
       50
176
     1
 90
        3
176
     1
 62
     5
420
      255
176
     1
290
     0
176
     1
 90
       50
176
     1
 90
       50
176
     1
 90
       50
176
     1
290
     0
176
     1
 90
       50
176
     1
 62
   256
176
     0
 40
1.0
176
     0
 90
        2
176
     1
  1
strokes_ogs.tif
176
     1
290
     0
176
     1
 40
1.0
176
     1
 40
1.0
176
     1
  0
VISUALSTYLE
  5
3A
102
{ACAD_REACTORS
330
29
102
}
330
29
100
AcDbVisualStyle
  2
Shades of Gray
 70
    23
177
     3
291
     0
 70
    58
 90
        2
176
     1
 90
        2
176
     1
 90
        3
176
     1
 90
        0
176
     1
 40
0.6
176
     1
 40
30.0
176
     1
 62
     7
420
 16777215
176
     1
 90
        2
176
     1
 90
        2
176
     1
 62
     7
176
     1
 62
     7
176
     1
 90
        1
176
     1
 90
        1
176
     1
 40
40.0
176
     1
 90
        8
176
     1
 62
     7
176
     1
 40
1.0
176
     1
 90
        1
176
     1
 90
        6
176
     1
 90
        2
176
     1
 62
     7
176
     1
 90
        3
176
     1
 90
        0
176
     1
 90
        0
176
     1
290
     0
176
     1
 90
        1
176
     1
 40
0.0
176
     1
 90
        0
176
     1
290
     0
176
     1
290
     1
176
     1
290
     1
176
     1
290
     0
176
     1
290
     0
176
     1
290
     0
176
     1
290
     0
176
     1
290
     0
176
     1
290
     0
176
     1
 90
       50
176
     1
 40
0.0
176
     1
 40
1.0
176
     1
 90
        0
176
     1
 62
    18
420
        0
176
     1
 90
       50
176
     1
 90
        3
176
     1
 62
     5
420
      255
176
     1
290
     0
176
     1
 90
       50
176
     1
 90
       50
176
     1
 90
       50
176
     1
290
     0
176
     1
 90
       50
176
     1
 62
   256
176
     0
 40
1.0
176
     0
 90
        2
176
     1
  1
strokes_ogs.tif
176
     1
290
     0
176
     1
 40
1.0
176
     1
 40
1.0
176
     1
  0
VISUALSTYLE
  5
3B
102
{ACAD_REACTORS
330
29
102
}
330
29
100
AcDbVisualStyle
  2
Sketchy
 70
    24
177
     3
291
     0
 70
    58
 90
        1
176
     1
 90
        2
176
     1
 90
        2
176
     1
 90
        0
176
     1
 40
0.6
176
     1
 40
30.0
176
     1
 62
     7
420
 16777215
176
     1
 90
        2
176
     1
 90
        2
176
     1
 62
     7
176
     1
 62
     7
176
     1
 90
        1
176
     1
 90
        1
176
     1
 40
40.0
176
     1
 90
       11
176
     1
 62
     7
176
     1
 40
1.0
176
     1
 90
        1
176
     1
 90
        6
176
     1
 90
        2
176
     1
 62
     7
176
     1
 90
        6
176
     1
 90
        0
176
     1
 90
        0
176
     1
290
     0
176
     1
 90
        1
176
     1
 40
0.0
176
     1
 90
        0
176
     1
290
     0
176
     1
290
     1
176
     1
290
     1
176
     1
290
     0
176
     1
290
     0
176
     1
290
     0
176
     1
290
     0
176
     1
290
     0
176
     1
290
     0
176
     1
 90
       50
176
     1
 40
0.0
176
     1
 40
1.0
176
     1
 90
        0
176
     1
 62
    18
420
        0
176
     1
 90
       50
176
     1
 90
        3
176
     1
 62
     5
420
      255
176
     1
290
     0
176
     1
 90
       50
176
     1
 90
       50
176
     1
 90
       50
176
     1
290
     0
176
     1
 90
       50
176
     1
 62
   256
176
     0
 40
1.0
176
     0
 90
        2
176
     1
  1
strokes_ogs.tif
176
     1
290
     0
176
     1
 40
1.0
176
     1
 40
1.0
176
     1
  0
VISUALSTYLE
  5
36
102
{ACAD_REACTORS
330
29
102
}
330
29
100
AcDbVisualStyle
  2
Thicken
 70
    13
177
     3
291
     1
 70
    58
 90
        2
176
     1
 90
        2
176
     1
 90
        0
176
     1
 90
        0
176
     1
 40
0.6
176
     1
 40
30.0
176
     1
 62
     7
420
 16777215
176
     1
 90
        1
176
     1
 90
        4
176
     1
 62
     7
176
     1
 62
   257
176
     1
 90
        1
176
     1
 90
        1
176
     1
 40
1.0
176
     1
 90
       12
176
     1
 62
     7
176
     1
 40
1.0
176
     1
 90
        1
176
     1
 90
        6
176
     1
 90
        2
176
     1
 62
     7
176
     1
 90
        5
176
     1
 90
        0
176
     1
 90
        0
176
     1
290
     0
176
     1
 90
        1
176
     1
 40
0.0
176
     1
 90
        0
176
     1
290
     0
176
     1
290
     1
176
     1
290
     1
176
     1
290
     0
176
     1
290
     0
176
     1
290
     0
176
     1
290
     0
176
     1
290
     0
176
     1
290
     0
176
     1
 90
       50
176
     1
 40
0.0
176
     1
 40
1.0
176
     1
 90
        0
176
     1
 62
    18
420
        0
176
     1
 90
       50
176
     1
 90
        3
176
     1
 62
     5
420
      255
176
     1
290
     0
176
     1
 90
       50
176
     1
 90
       50
176
     1
 90
       50
176
     1
290
     0
176
     1
 90
       50
176
     1
 62
   256
176
     0
 40
1.0
176
     0
 90
        2
176
     1
  1
strokes_ogs.tif
176
     1
290
     0
176
     1
 40
1.0
176
     1
 40
1.0
176
     1
  0
VISUALSTYLE
  5
30
102
{ACAD_REACTORS
330
29
102
}
330
29
100
AcDbVisualStyle
  2
Wireframe
 70
     5
177
     3
291
     0
 70
    58
 90
        0
176
     1
 90
        2
176
     1
 90
        0
176
     1
 90
        0
176
     1
 40
0.6
176
     1
 40
30.0
176
     1
 62
     7
420
 16777215
176
     1
 90
        1
176
     1
 90
        4
176
     1
 62
     7
176
     1
 62
   257
176
     1
 90
        1
176
     1
 90
        1
176
     1
 40
1.0
176
     1
 90
        0
176
     1
 62
   257
176
     1
 40
1.0
176
     1
 90
        1
176
     1
 90
        6
176
     1
 90
        2
176
     1
 62
     7
176
     1
 90
        3
176
     1
 90
        0
176
     1
 90
        0
176
     1
290
     0
176
     1
 90
        1
176
     1
 40
0.0
176
     1
 90
        0
176
     1
290
     0
176
     1
290
     1
176
     1
290
     1
176
     1
290
     0
176
     1
290
     0
176
     1
290
     0
176
     1
290
     0
176
     1
290
     0
176
     1
290
     0
176
     1
 90
       50
176
     1
 40
0.0
176
     1
 40
1.0
176
     1
 90
        0
176
     1
 62
    18
420
        0
176
     1
 90
       50
176
     1
 90
        3
176
     1
 62
     5
420
      255
176
     1
290
     0
176
     1
 90
       50
176
     1
 90
       50
176
     1
 90
       50
176
     1
290
     0
176
     1
 90
       50
176
     1
 62
   256
176
     0
 40
1.0
176
     0
 90
        2
176
     1
  1
strokes_ogs.tif
176
     1
290
     0
176
     1
 40
1.0
176
     1
 40
1.0
176
     1
  0
VISUALSTYLE
  5
3C
102
{ACAD_REACTORS
330
29
102
}
330
29
100
AcDbVisualStyle
  2
X-Ray
 70
    25
177
     3
291
     0
 70
    58
 90
        2
176
     1
 90
        2
176
     1
 90
        1
176
     1
 90
        1
176
     1
 40
0.5
176
     1
 40
30.0
176
     1
 62
     7
420
 16777215
176
     1
 90
        1
176
     1
 90
        0
176
     1
 62
     7
176
     1
 62
   257
176
     1
 90
        1
176
     1
 90
        1
176
     1
 40
1.0
176
     1
 90
        8
176
     1
 62
     7
176
     1
 40
1.0
176
     1
 90
        1
176
     1
 90
        6
176
     1
 90
        2
176
     1
 62
     7
176
     1
 90
        3
176
     1
 90
        0
176
     1
 90
        0
176
     1
290
     0
176
     1
 90
       13
176
     1
 40
0.0
176
     1
 90
        0
176
     1
290
     0
176
     1
290
     1
176
     1
290
     1
176
     1
290
     0
176
     1
290
     0
176
     1
290
     0
176
     1
290
     0
176
     1
290
     0
176
     1
290
     0
176
     1
 90
       50
176
     1
 40
0.0
176
     1
 40
1.0
176
     1
 90
        0
176
     1
 62
    18
420
        0
176
     1
 90
       50
176
     1
 90
        3
176
     1
 62
     5
420
      255
176
     1
290
     0
176
     1
 90
       50
176
     1
 90
       50
176
     1
 90
       50
176
     1
290
     0
176
     1
 90
       50
176
     1
 62
   256
176
     0
 40
1.0
176
     0
 90
        2
176
     1
  1
strokes_ogs.tif
176
     1
290
     0
176
     1
 40
1.0
176
     1
 40
1.0
176
     1
  0
DICTIONARYVAR
  5
320
102
{ACAD_REACTORS
330
31A
102
}
330
31A
100
DictionaryVariables
280
     0
  1
1:1
  0
DICTIONARYVAR
  5
31C
102
{ACAD_REACTORS
330
31A
102
}
330
31A
100
DictionaryVariables
280
     0
  1
STANDARD
  0
DICTIONARYVAR
  5
31B
102
{ACAD_REACTORS
330
31A
102
}
330
31A
100
DictionaryVariables
280
     0
  1
STANDARD
  0
DICTIONARYVAR
  5
31D
102
{ACAD_REACTORS
330
31A
102
}
330
31A
100
DictionaryVariables
280
     0
  1
Imperial24
  0
DICTIONARYVAR
  5
31E
102
{ACAD_REACTORS
330
31A
102
}
330
31A
100
DictionaryVariables
280
     0
  1
Imperial24
  0
DICTIONARYVAR
  5
322
102
{ACAD_REACTORS
330
31A
102
}
330
31A
100
DictionaryVariables
280
     0
  1
1
  0
DICTIONARYVAR
  5
323
102
{ACAD_REACTORS
330
31A
102
}
330
31A
100
DictionaryVariables
280
     0
  1
15
  0
DICTIONARYVAR
  5
321
102
{ACAD_REACTORS
330
31A
102
}
330
31A
100
DictionaryVariables
280
     0
  1
0
  0
DICTIONARYVAR
  5
31F
102
{ACAD_REACTORS
330
31A
102
}
330
31A
100
DictionaryVariables
280
     0
  1
0
  0
DICTIONARY
  5
1A
330
19
100
AcDbDictionary
280
     1
281
     1
  3
BUMPTILE
360
1C
  3
DIFFUSETILE
360
1B
  3
OPACITYTILE
360
1F
  3
REFLECTIONTILE
360
1E
  3
REFRACTIONTILE
360
20
  3
SPECULARTILE
360
1D
  0
DICTIONARY
  5
12
330
11
100
AcDbDictionary
280
     1
281
     1
  3
BUMPTILE
360
14
  3
DIFFUSETILE
360
13
  3
OPACITYTILE
360
17
  3
REFLECTIONTILE
360
16
  3
REFRACTIONTILE
360
18
  3
SPECULARTILE
360
15
  0
DICTIONARY
  5
22
330
21
100
AcDbDictionary
280
     1
281
     1
  3
BUMPTILE
360
24
  3
DIFFUSETILE
360
23
  3
OPACITYTILE
360
27
  3
REFLECTIONTILE
360
26
  3
REFRACTIONTILE
360
28
  3
SPECULARTILE
360
25
  0
DICTIONARY
  5
1289
330
64
100
AcDbDictionary
280
     1
281
     1
  3
ACAD_ROUNDTRIP_2008_TABLESTYLE_CELLSTYLEMAP
360
128A
  0
XRECORD
  5
1C
102
{ACAD_REACTORS
330
1A
102
}
330
1A
100
AcDbXrecord
280
     1
270
     1
271
     1
  0
XRECORD
  5
1B
102
{ACAD_REACTORS
330
1A
102
}
330
1A
100
AcDbXrecord
280
     1
270
     1
271
     1
  0
XRECORD
  5
1F
102
{ACAD_REACTORS
330
1A
102
}
330
1A
100
AcDbXrecord
280
     1
270
     1
271
     1
  0
XRECORD
  5
1E
102
{ACAD_REACTORS
330
1A
102
}
330
1A
100
AcDbXrecord
280
     1
270
     1
271
     1
  0
XRECORD
  5
20
102
{ACAD_REACTORS
330
1A
102
}
330
1A
100
AcDbXrecord
280
     1
270
     1
271
     1
  0
XRECORD
  5
1D
102
{ACAD_REACTORS
330
1A
102
}
330
1A
100
AcDbXrecord
280
     1
270
     1
271
     1
  0
XRECORD
  5
14
102
{ACAD_REACTORS
330
12
102
}
330
12
100
AcDbXrecord
280
     1
270
     1
271
     1
  0
XRECORD
  5
13
102
{ACAD_REACTORS
330
12
102
}
330
12
100
AcDbXrecord
280
     1
270
     1
271
     1
  0
XRECORD
  5
17
102
{ACAD_REACTORS
330
12
102
}
330
12
100
AcDbXrecord
280
     1
270
     1
271
     1
  0
XRECORD
  5
16
102
{ACAD_REACTORS
330
12
102
}
330
12
100
AcDbXrecord
280
     1
270
     1
271
     1
  0
XRECORD
  5
18
102
{ACAD_REACTORS
330
12
102
}
330
12
100
AcDbXrecord
280
     1
270
     1
271
     1
  0
XRECORD
  5
15
102
{ACAD_REACTORS
330
12
102
}
330
12
100
AcDbXrecord
280
     1
270
     1
271
     1
  0
XRECORD
  5
24
102
{ACAD_REACTORS
330
22
102
}
330
22
100
AcDbXrecord
280
     1
270
     1
271
     1
  0
XRECORD
  5
23
102
{ACAD_REACTORS
330
22
102
}
330
22
100
AcDbXrecord
280
     1
270
     1
271
     1
  0
XRECORD
  5
27
102
{ACAD_REACTORS
330
22
102
}
330
22
100
AcDbXrecord
280
     1
270
     1
271
     1
  0
XRECORD
  5
26
102
{ACAD_REACTORS
330
22
102
}
330
22
100
AcDbXrecord
280
     1
270
     1
271
     1
  0
XRECORD
  5
28
102
{ACAD_REACTORS
330
22
102
}
330
22
100
AcDbXrecord
280
     1
270
     1
271
     1
  0
XRECORD
  5
25
102
{ACAD_REACTORS
330
22
102
}
330
22
100
AcDbXrecord
280
     1
270
     1
271
     1
  0
CELLSTYLEMAP
  5
128A
102
{ACAD_REACTORS
330
1289
102
}
330
1289
100
AcDbCellStyleMap
 90
        3
300
CELLSTYLE
  1
TABLEFORMAT_BEGIN
 90
        5
170
     1
 91
        0
 92
    32768
 62
   257
 93
        1
300
CONTENTFORMAT
  1
CONTENTFORMAT_BEGIN
 90
        0
 91
        0
 92
      512
 93
        0
300

 40
0.0
140
1.0
 94
        5
 62
     0
340
55
144
0.25
309
CONTENTFORMAT_END
171
     0
 94
        0
309
TABLEFORMAT_END
  1
CELLSTYLE_BEGIN
 90
        1
 91
        1
300
_TITLE
309
CELLSTYLE_END
300
CELLSTYLE
  1
TABLEFORMAT_BEGIN
 90
        5
170
     1
 91
        0
 92
        0
 62
   257
 93
        1
300
CONTENTFORMAT
  1
CONTENTFORMAT_BEGIN
 90
        0
 91
        0
 92
      512
 93
        0
300

 40
0.0
140
1.0
 94
        5
 62
     0
340
55
144
0.18
309
CONTENTFORMAT_END
171
     0
 94
        0
309
TABLEFORMAT_END
  1
CELLSTYLE_BEGIN
 90
        2
 91
        1
300
_HEADER
309
CELLSTYLE_END
300
CELLSTYLE
  1
TABLEFORMAT_BEGIN
 90
        5
170
     1
 91
        0
 92
        0
 62
   257
 93
        1
300
CONTENTFORMAT
  1
CONTENTFORMAT_BEGIN
 90
        0
 91
        0
 92
      512
 93
        0
300

 40
0.0
140
1.0
 94
        2
 62
     0
340
55
144
0.18
309
CONTENTFORMAT_END
171
     0
 94
        0
309
TABLEFORMAT_END
  1
CELLSTYLE_BEGIN
 90
        3
 91
        2
300
_DATA
309
CELLSTYLE_END
  0
ENDSEC
  0
SECTION
  2
ACDSDATA
 70
     2
 71
     8
  0
ACDSSCHEMA
 90
        0
  1
AcDb_Thumbnail_Schema
  2
AcDbDs::ID
280
    10
 91
        8
  2
Thumbnail_Data
280
    15
 91
        0
101
ACDSRECORD
 95
        0
 90
        1
  2
AcDbDs::TreatedAsObjectData
280
     1
291
     1
101
ACDSRECORD
 95
        0
 90
        2
  2
AcDbDs::Legacy
280
     1
291
     1
101
ACDSRECORD
  1
AcDbDs::ID
 90
        3
  2
AcDs:Indexable
280
     1
291
     1
101
ACDSRECORD
  1
AcDbDs::ID
 90
        4
  2
AcDbDs::HandleAttribute
280
     7
282
     1
  0
ACDSSCHEMA
 90
        1
  1
AcDbDs::TreatedAsObjectDataSchema
  2
AcDbDs::TreatedAsObjectData
280
     1
 91
        0
  0
ACDSSCHEMA
 90
        2
  1
AcDbDs::LegacySchema
  2
AcDbDs::Legacy
280
     1
 91
        0
  0
ACDSSCHEMA
 90
        3
  1
AcDbDs::IndexedPropertySchema
  2
AcDs:Indexable
280
     1
 91
        0
  0
ACDSSCHEMA
 90
        4
  1
AcDbDs::HandleAttributeSchema
  2
AcDbDs::HandleAttribute
280
     7
 91
        1
284
     1
  0
ACDSRECORD
 90
        0
  2
AcDbDs::ID
280
    10
320
72
  2
Thumbnail_Data
280
    15
 94
     1455
310
89504E470D0A1A0A0000000D4948445200000100000000A808030000003894C06300000300504C5445212830FFFFFF2128300000000000000000000000000000000000000000000000000000330000660000990000CC0000FF0033000033330033660033990033CC0033FF0066000066330066660066990066CC0066FF0099
310
000099330099660099990099CC0099FF00CC0000CC3300CC6600CC9900CCCC00CCFF00FF0000FF3300FF6600FF9900FFCC00FFFF3300003300333300663300993300CC3300FF3333003333333333663333993333CC3333FF3366003366333366663366993366CC3366FF3399003399333399663399993399CC3399FF33CC00
310
33CC3333CC6633CC9933CCCC33CCFF33FF0033FF3333FF6633FF9933FFCC33FFFF6600006600336600666600996600CC6600FF6633006633336633666633996633CC6633FF6666006666336666666666996666CC6666FF6699006699336699666699996699CC6699FF66CC0066CC3366CC6666CC9966CCCC66CCFF66FF0066
310
FF3366FF6666FF9966FFCC66FFFF9900009900339900669900999900CC9900FF9933009933339933669933999933CC9933FF9966009966339966669966999966CC9966FF9999009999339999669999999999CC9999FF99CC0099CC3399CC6699CC9999CCCC99CCFF99FF0099FF3399FF6699FF9999FFCC99FFFFCC0000CC00
310
33CC0066CC0099CC00CCCC00FFCC3300CC3333CC3366CC3399CC33CCCC33FFCC6600CC6633CC6666CC6699CC66CCCC66FFCC9900CC9933CC9966CC9999CC99CCCC99FFCCCC00CCCC33CCCC66CCCC99CCCCCCCCCCFFCCFF00CCFF33CCFF66CCFF99CCFFCCCCFFFFFF0000FF0033FF0066FF0099FF00CCFF00FFFF3300FF3333
310
FF3366FF3399FF33CCFF33FFFF6600FF6633FF6666FF6699FF66CCFF66FFFF9900FF9933FF9966FF9999FF99CCFF99FFFFCC00FFCC33FFCC66FFCC99FFCCCCFFCCFFFFFF00FFFF33FFFF66FFFF99FFFFCCFFFFFF0000000D0D0D1A1A1A2828283535354343435050505D5D5D6B6B6B787878868686939393A1A1A1AEAEAEBB
310
BBBBC9C9C9D6D6D6E4E4E4F1F1F1FFFFFF0000000000000000000000000000000000000000000000000000000000002E4550F10000017B4944415478DAEDDADB728320140550FEFF7F79EF8C333508784934F124ACF5506668BD6D0DC249530200000000000000000000000000000000000000008081E487DDDE6B370E71CD
310
E5391EE86DEC6CBCD61D2380B4D12C4FFC7833EFBD3C528A17C0F4336D34F9E81FD64D91C2D4D1ECF3D70348F30E860D603E8A272070006F1B04CB8D020F826F7FBAA64BFFE4619F0EE0FF96BC788BD3C60392DA5762C027202FDB179BEEAF1E3B8F3B060860EC00F25D01E430F7FF9E4130CA7B200F79E8E62CEADB75C9DC
310
A85E0C860EA03B5D3F393BAE17830306502C05B200060F60C84170A702E835182680EA4E9D5AFC37F39EF5776294A9E04AE1E6DCB4B82C89E566A409B618A847EB8B02C83B012401840CE0731F814801DC31088E51140DFF122C9F8047817C392FEAD4D09BAEB6A6903A6BC2B045D15C7F52CB9971E70BE0A6AB2CFC742A41
310
1B73E92F08E0F06CEA570318FE09C89D1262AFAAFCD5010C3E088EFE2F326B69ECF63EBF71D08B0600000000000000000080F0FE000537FA2DEB985D820000000049454E44AE426082A2A005842AD6BEBE081BD4D9747D0002E416C0CE12C064E6FF1C27A812072CE55737BF62B35B7A35378A8B416901BAE9FACEEC382E06
310
130AE096028600C90548E904271540C2A08C009B0FB8AE3E2AD43180583A964985BB859BBD0F8B3D4B62D6781AB1C540F4D607096013010A02480AF07F7F012501CE7082398AA2F241D05B806B0EAB8CA153436F0E954E73583BF5B245D1B641D465C6F346C9417B60F3D0B46E4D70538097B3A9AB0A90DE02A6ADB2571020
310
B913CCDE223352637AF4FD93690F06000000000000000000000000000000000000000058E307E855F3737D251A850000000049454E44AE426082
  0
ENDSEC
  0
EOF
